<?xml version="1.0" encoding="UTF-8"?>
<!-- Generator: visioncortex VTracer -->
<svg id="svg" version="1.1" xmlns="http://www.w3.org/2000/svg" style="display: block;" viewBox="0 0 2048 2048"><path d="M0 0 C675.84 0 1351.68 0 2048 0 C2048 675.84 2048 1351.68 2048 2048 C1372.16 2048 696.32 2048 0 2048 C0 1372.16 0 696.32 0 0 Z " transform="translate(0,0)" style="fill: #FEFEFE;"/><path d="M0 0 C0.886875 0.29970703 1.77375 0.59941406 2.6875 0.90820312 C18.09175828 6.24306022 31.01120598 13.73346253 42.8515625 24.9921875 C44.99776059 27.05971216 44.99776059 27.05971216 47.5 28.9375 C64.24368865 42.75104313 74.82908809 65.63756443 81 86 C81.5551359 87.81851329 81.5551359 87.81851329 82.12148666 89.67376423 C86.50829859 106.0210032 85.54189618 123.14608814 85.46426249 139.92338383 C85.4468234 144.65860735 85.4528457 149.39381219 85.45587158 154.12905884 C85.45795865 162.31265727 85.44551753 170.49612713 85.42292023 178.67969322 C85.39027072 190.51141417 85.37998003 202.3430736 85.37496826 214.17483471 C85.36623582 233.37578758 85.33967617 252.57667209 85.30175781 271.77758789 C85.26498445 290.41820944 85.23669881 309.05881235 85.21972656 327.69946289 C85.21867567 328.85043843 85.21762477 330.00141398 85.21654204 331.18726756 C85.2113215 336.96196097 85.20626676 342.7366545 85.20129442 348.51134813 C85.15989632 396.34094597 85.08950408 444.17046963 85 492 C86.09119141 491.98114746 87.18238281 491.96229492 88.30664062 491.94287109 C89.75650587 491.9276217 91.20637604 491.91283498 92.65625 491.8984375 C93.37329102 491.88482178 94.09033203 491.87120605 94.82910156 491.85717773 C105.43403568 491.77830809 113.01553159 496.49655269 120.65234375 503.51953125 C129.87105697 513.16047561 130.78811835 524.80150785 130.59692383 537.42651367 C130.5625936 539.9306728 130.5763245 542.43128927 130.59570312 544.93554688 C130.58416409 558.08118988 129.0188394 570.68679013 120 581 C111.99828925 588.69129956 101.64938831 592.18296031 90.6875 592.0625 C89.61886719 592.05347656 88.55023437 592.04445313 87.44921875 592.03515625 C86.23685547 592.01775391 86.23685547 592.01775391 85 592 C85.00151888 593.19199804 85.00303776 594.38399607 85.00460267 595.61211526 C85.07133747 648.19245868 85.13304026 700.7728058 85.16937256 753.35317993 C85.1702009 754.54889209 85.1702009 754.54889209 85.17104598 755.76876005 C85.18302006 773.09644982 85.19410043 790.42414004 85.20426132 807.75183096 C85.20925028 816.25040694 85.21443655 824.74898279 85.21972656 833.24755859 C85.2202496 834.09322951 85.22077263 834.93890042 85.22131152 835.81019773 C85.23833019 863.17750898 85.26835538 890.544787 85.30518888 917.91207816 C85.3429987 946.05615499 85.36756015 974.20021347 85.37565996 1002.34431528 C85.37681243 1006.32748083 85.37811497 1010.31064632 85.37950897 1014.2938118 C85.37991351 1015.46962651 85.37991351 1015.46962651 85.38032622 1016.66919506 C85.38503696 1029.24286958 85.40354535 1041.81648701 85.42732814 1054.39013834 C85.45099033 1067.05790569 85.45984379 1079.72561696 85.45400551 1092.3934056 C85.45124745 1099.24614632 85.45524902 1106.0987111 85.4768219 1112.95142365 C85.49648236 1119.24307603 85.4971452 1125.53445243 85.48359558 1131.82611831 C85.48192434 1134.0849834 85.48683181 1136.3438667 85.49953273 1138.6026967 C85.75932627 1187.72032923 69.09025184 1226.00385188 40.1875 1264.875 C21.78091649 1289.76542122 17.60046616 1311.48145311 17.3125 1341.9375 C17.27926484 1344.37436661 17.24476965 1346.81121638 17.20898438 1349.24804688 C17.12479753 1355.16524885 17.05615728 1361.08246905 17 1367 C18.216875 1366.896875 19.43375 1366.79375 20.6875 1366.6875 C24.16447927 1366.70176562 24.93717622 1366.95664968 27.96069336 1369.04296875 C30.50281791 1372.72909499 30.63142461 1374.85779347 30.62890625 1379.3125 C30.63252419 1380.3495105 30.63252419 1380.3495105 30.63621521 1381.4074707 C30.63523956 1382.86317708 30.62191289 1384.31892186 30.59692383 1385.77441406 C30.56259081 1387.9941291 30.57627843 1390.2098626 30.59570312 1392.4296875 C30.58880414 1393.84897516 30.57913126 1395.26825262 30.56640625 1396.6875 C30.55552979 1397.97011719 30.54465332 1399.25273438 30.53344727 1400.57421875 C29.91761594 1404.52906778 28.81146452 1406.20358229 26 1409 C23.859375 1409.70703125 23.859375 1409.70703125 21.75 1409.8125 C20.5125 1409.874375 19.275 1409.93625 18 1410 C18.01740234 1411.37671875 18.01740234 1411.37671875 18.03515625 1412.78125 C18.04869141 1414.62203125 18.04869141 1414.62203125 18.0625 1416.5 C18.07410156 1417.7065625 18.08570313 1418.913125 18.09765625 1420.15625 C18.01661488 1423.34603847 17.70573103 1426.3712548 17.27416992 1429.52587891 C16.69468396 1434.75518497 16.52035787 1440.0228434 16.24145508 1445.2755127 C15.60153413 1457.15563843 14.68279965 1468.9121618 13.10375977 1480.71069336 C11.87478275 1490.16679586 11.30547452 1499.64524861 10.91015625 1509.17089844 C10.37992594 1519.02710668 8.19157827 1526.97964979 1 1534 C-0.97932507 1534.72575252 -2.97859185 1535.40137362 -5 1536 C-5.04535889 1536.82145508 -5.09071777 1537.64291016 -5.13745117 1538.48925781 C-5.89023491 1551.31271386 -6.90613414 1564.1138731 -7.99194336 1576.91308594 C-8.20739386 1579.4919283 -8.41561426 1582.07138396 -8.61694336 1584.65136719 C-8.91103396 1588.4098498 -9.22837038 1592.16572919 -9.55078125 1595.921875 C-9.63636795 1597.07596863 -9.72195465 1598.23006226 -9.81013489 1599.41912842 C-9.9549958 1601.0229538 -9.9549958 1601.0229538 -10.1027832 1602.65917969 C-10.17970901 1603.59687195 -10.25663483 1604.53456421 -10.33589172 1605.50067139 C-11.1902158 1608.71586487 -12.36750425 1609.99573453 -15 1612 C-17.20043945 1612.5146637 -17.20043945 1612.5146637 -19.61328125 1612.53344727 C-20.52102295 1612.5492836 -21.42876465 1612.56511993 -22.36401367 1612.58143616 C-23.33701416 1612.57647629 -24.31001465 1612.57151642 -25.3125 1612.56640625 C-26.31837158 1612.57260483 -27.32424316 1612.57880341 -28.3605957 1612.58518982 C-30.48550448 1612.5922881 -32.61046887 1612.58911388 -34.73535156 1612.57641602 C-37.9886694 1612.5625483 -41.23911255 1612.59662443 -44.4921875 1612.63476562 C-46.55729237 1612.6357168 -48.62240085 1612.6338581 -50.6875 1612.62890625 C-51.66050049 1612.64216446 -52.63350098 1612.65542267 -53.63598633 1612.66908264 C-60.35984603 1612.57624689 -60.35984603 1612.57624689 -63.59716797 1609.66210938 C-65.35334511 1606.32946831 -65.76583239 1603.69347622 -66.125 1599.9375 C-66.1971875 1599.22142578 -66.269375 1598.50535156 -66.34375 1597.76757812 C-67.15430767 1589.30563554 -67.67701436 1580.8133832 -68.24609375 1572.33251953 C-68.70391958 1565.63136647 -69.27072639 1558.97476442 -70.125 1552.3125 C-70.82858002 1546.80478764 -71.20172403 1541.54741095 -71 1536 C-72.3303125 1535.87625 -72.3303125 1535.87625 -73.6875 1535.75 C-78.10643744 1534.74948586 -80.55536737 1533.11946102 -83.12890625 1529.34375 C-86.18077396 1523.84813581 -87.15881394 1518.17164932 -88 1512 C-88.11214844 1511.23558594 -88.22429687 1510.47117187 -88.33984375 1509.68359375 C-88.88444267 1505.51330885 -89.0423255 1501.42447881 -89.0234375 1497.21875 C-89.02005371 1496.23841797 -89.01666992 1495.25808594 -89.01318359 1494.24804688 C-89.00883301 1493.50619141 -89.00448242 1492.76433594 -89 1492 C-90.05127075 1491.96241577 -90.05127075 1491.96241577 -91.1237793 1491.92407227 C-94.31185488 1491.80773455 -97.49966242 1491.68517956 -100.6875 1491.5625 C-102.34168945 1491.50352539 -102.34168945 1491.50352539 -104.02929688 1491.44335938 C-105.09599609 1491.40146484 -106.16269531 1491.35957031 -107.26171875 1491.31640625 C-108.24100342 1491.27974854 -109.22028809 1491.24309082 -110.22924805 1491.20532227 C-112.89465177 1491.00780667 -115.39469788 1490.58426967 -118 1490 C-117.96519531 1490.59167969 -117.93039062 1491.18335938 -117.89453125 1491.79296875 C-117.72676185 1496.69023752 -117.68140107 1500.08879412 -121 1504 C-125.90304645 1507.19638339 -131.77811401 1506.37198137 -137.41723633 1506.37060547 C-139.42810742 1506.37497957 -141.43678235 1506.41132689 -143.44726562 1506.44921875 C-145.35862305 1506.45501953 -145.35862305 1506.45501953 -147.30859375 1506.4609375 C-148.47189209 1506.46915527 -149.63519043 1506.47737305 -150.83374023 1506.48583984 C-154.63801053 1505.90210186 -156.2755782 1504.66331385 -159 1502 C-160.50156874 1498.99686252 -160.09281204 1496.20932478 -160.0625 1492.875 C-160.05347656 1491.59367187 -160.04445313 1490.31234375 -160.03515625 1488.9921875 C-160.01775391 1487.51105469 -160.01775391 1487.51105469 -160 1486 C-160.91218796 1486.01277985 -160.91218796 1486.01277985 -161.84280396 1486.02581787 C-167.87275202 1486.07340655 -173.80064773 1485.80604014 -179.8046875 1485.265625 C-180.69108917 1485.18632751 -181.57749084 1485.10703003 -182.49075317 1485.02532959 C-184.34467491 1484.85656262 -186.19834467 1484.68500578 -188.05175781 1484.51074219 C-189.94393207 1484.33598932 -191.83687742 1484.16940494 -193.73046875 1484.01074219 C-196.4862629 1483.77982564 -199.23899091 1483.52549537 -201.9921875 1483.265625 C-202.83699677 1483.19877502 -203.68180603 1483.13192505 -204.55221558 1483.06304932 C-208.11504744 1482.70245557 -210.47142799 1482.33326896 -213.53198242 1480.40356445 C-215.56498022 1477.07496586 -215.55568549 1474.06298162 -215.49609375 1470.27734375 C-215.49754898 1469.53545303 -215.49900421 1468.79356232 -215.50050354 1468.02919006 C-215.49884733 1466.46497662 -215.48731695 1464.90074642 -215.46655273 1463.33666992 C-215.43755259 1460.94184293 -215.44595644 1458.54922458 -215.45898438 1456.15429688 C-215.45274788 1454.63280174 -215.44435762 1453.11131359 -215.43359375 1451.58984375 C-215.43652939 1450.87416733 -215.43946503 1450.15849091 -215.44248962 1449.42112732 C-215.3898556 1446.65099791 -215.29472885 1444.50227987 -213.875 1442.08276367 C-211.13735884 1440.5018472 -208.70803065 1440.36539582 -205.56640625 1440.0859375 C-204.27669922 1439.96476562 -202.98699219 1439.84359375 -201.65820312 1439.71875 C-200.29299275 1439.6038811 -198.92775819 1439.48929918 -197.5625 1439.375 C-196.23231025 1439.25382329 -194.90222994 1439.13143884 -193.57226562 1439.0078125 C-189.71602326 1438.65637684 -185.8584767 1438.32587292 -182 1438 C-180.86256348 1437.89921143 -179.72512695 1437.79842285 -178.55322266 1437.69458008 C-177.50827637 1437.60329834 -176.46333008 1437.5120166 -175.38671875 1437.41796875 C-174.48010498 1437.33828857 -173.57349121 1437.2586084 -172.6394043 1437.17651367 C-168.42588438 1436.89472892 -164.22031009 1436.91596728 -160 1437 C-160.06960938 1435.90300781 -160.13921875 1434.80601563 -160.2109375 1433.67578125 C-160.26723552 1432.22141562 -160.3218335 1430.76698348 -160.375 1429.3125 C-160.42527344 1428.59126953 -160.47554687 1427.87003906 -160.52734375 1427.12695312 C-160.63808225 1423.08499792 -160.27712318 1421.38615525 -157.85546875 1418.01171875 C-152.70830023 1414.41432528 -145.92140685 1415.36559883 -139.9375 1415.5 C-138.67099609 1415.49742188 -137.40449219 1415.49484375 -136.09960938 1415.4921875 C-128.90583235 1415.56819148 -124.28655395 1415.71344605 -119 1421 C-118.8046875 1424.0390625 -118.8046875 1424.0390625 -118.875 1427.625 C-118.89304687 1428.81351563 -118.91109375 1430.00203125 -118.9296875 1431.2265625 C-118.96449219 1432.59941406 -118.96449219 1432.59941406 -119 1434 C-118.03964844 1433.68289063 -117.07929687 1433.36578125 -116.08984375 1433.0390625 C-111.60844372 1431.75866249 -107.19828393 1431.55492282 -102.5625 1431.375 C-98.3240625 1431.189375 -98.3240625 1431.189375 -94 1431 C-94 1424.07 -94 1417.14 -94 1410 C-96.31 1410 -98.62 1410 -101 1410 C-103.89819336 1407.98657227 -103.89819336 1407.98657227 -106 1405 C-106.48840276 1402.19447093 -106.68142462 1400.00888872 -106.62890625 1397.21484375 C-106.63131821 1396.47673965 -106.63373016 1395.73863556 -106.63621521 1394.97816467 C-106.63523926 1393.42410893 -106.62190542 1391.87001735 -106.59692383 1390.31616211 C-106.5625462 1387.94069256 -106.57628963 1385.56893278 -106.59570312 1383.19335938 C-106.58880575 1381.67967171 -106.57913434 1380.16599361 -106.56640625 1378.65234375 C-106.57384605 1377.59127663 -106.57384605 1377.59127663 -106.58143616 1376.5087738 C-106.50588235 1373.33962199 -106.17632161 1371.27742126 -104.46459961 1368.58422852 C-100.97269467 1366.33965485 -98.12526246 1366.2750175 -94 1366 C-93.89717841 1359.06653766 -93.82794986 1352.13327721 -93.78027344 1345.19921875 C-93.76036347 1342.84855809 -93.73322553 1340.49794559 -93.69824219 1338.14746094 C-93.21207056 1304.60161837 -102.74240525 1283.02892783 -122.5625 1256.5 C-149.07642264 1220.83399097 -160.36238044 1183.37200978 -160.24050903 1139.31626892 C-160.24138261 1136.9504603 -160.24313638 1134.58465188 -160.24568737 1132.21884447 C-160.24967048 1126.43310288 -160.24444129 1120.64742233 -160.23520601 1114.86168796 C-160.22466693 1107.92317668 -160.22589997 1100.98467956 -160.22749493 1094.04616222 C-160.23011398 1081.24440355 -160.22347329 1068.44266564 -160.21146011 1055.64091301 C-160.19960507 1042.97505528 -160.19192399 1030.30920621 -160.18975449 1017.64334297 C-160.18961701 1016.85429388 -160.18947953 1016.06524479 -160.18933788 1015.25228512 C-160.18866117 1011.24471183 -160.18805842 1007.23713852 -160.18748413 1003.22956521 C-160.18328909 974.88212289 -160.16983054 946.53469184 -160.15087891 918.18725586 C-160.1324949 890.65698303 -160.1183351 863.12671329 -160.10986328 835.59643555 C-160.10960023 834.74705962 -160.10933718 833.8976837 -160.10906615 833.02256911 C-160.106429 824.49238471 -160.10387739 815.96220029 -160.10138843 807.43201585 C-160.09631671 790.05677362 -160.09067421 772.6815316 -160.08468628 755.30628967 C-160.08427441 754.10809754 -160.08427441 754.10809754 -160.08385422 752.8856995 C-160.06546897 699.59046153 -160.03362621 646.29523025 -160 593 C-170.56 593 -181.12 593 -192 593 C-192.33 596.3 -192.66 599.6 -193 603 C-195.28588695 608.08794193 -197.43561559 611.07513322 -202.1875 614 C-208 616 -208 616 -226 616 C-226 935.44 -226 1254.88 -226 1584 C-222.37 1584 -218.74 1584 -215 1584 C-212 1584.875 -212 1584.875 -210 1587 C-207.54043538 1592.265852 -206.80917394 1597.95105394 -206.08203125 1603.66796875 C-205.90989046 1605.00087415 -205.73725915 1606.33371627 -205.56420898 1607.66650391 C-205.47340057 1608.36938538 -205.38259216 1609.07226685 -205.28903198 1609.79644775 C-204.7836167 1613.64968563 -204.24513785 1617.49832404 -203.7109375 1621.34765625 C-203.37776635 1623.76840637 -203.04529358 1626.18925171 -202.71289062 1628.61010742 C-202.4853847 1630.26133361 -202.25651731 1631.91237271 -202.02636719 1633.56323242 C-201.68830214 1635.99087277 -201.35539585 1638.41917431 -201.0234375 1640.84765625 C-200.92034271 1641.57896255 -200.81724792 1642.31026886 -200.71102905 1643.06373596 C-200.16736521 1647.08046992 -199.96083204 1650.95157753 -200 1655 C-199.15529337 1654.99848112 -198.31058674 1654.99696224 -197.44028294 1654.99539733 C-147.3787281 1654.9058896 -97.31718175 1654.83725607 -47.25556291 1654.79573868 C-41.24491941 1654.79073584 -35.23427607 1654.78555855 -29.22363281 1654.78027344 C-28.02701939 1654.7792242 -26.83040597 1654.77817495 -25.59753154 1654.77709392 C-6.22084894 1654.75968758 13.1557862 1654.7281486 32.53244065 1654.69138882 C52.41392415 1654.65398581 72.29538279 1654.63176549 92.17690003 1654.62364602 C104.44536087 1654.61815694 116.71368757 1654.60081856 128.98210712 1654.56833413 C137.39444383 1654.54719419 145.80671116 1654.5407988 154.21907251 1654.54599449 C159.07294206 1654.54855705 163.92657715 1654.54462218 168.78040504 1654.5231781 C173.22700222 1654.5036768 177.67320783 1654.5027532 182.11982323 1654.51640442 C183.72565118 1654.51809099 185.33150382 1654.51304713 186.93728338 1654.50046727 C199.57081088 1654.40727595 210.23004298 1656.46007354 220 1665 C228.26706636 1674.56782855 231.27101853 1682.88004702 232.8125 1695.1875 C233.14983276 1697.7075446 233.49117846 1700.22705437 233.8359375 1702.74609375 C233.9263884 1703.40844025 234.01683929 1704.07078674 234.11003113 1704.75320435 C235.22162276 1712.77908615 236.58327294 1720.76219393 237.9375 1728.75 C238.4502532 1731.79149295 238.961626 1734.83321712 239.47265625 1737.875 C239.5992009 1738.62793839 239.72574554 1739.38087677 239.85612488 1740.15663147 C241.11387149 1747.65380842 242.34711448 1755.15469393 243.54153442 1762.66223145 C243.7608356 1764.03523701 243.98235085 1765.40789109 244.20626831 1766.78015137 C247.22373936 1785.29771648 247.22373936 1785.29771648 244.07740784 1789.67442322 C239.79445374 1792.91102334 236.55105705 1792.69830438 231.31616211 1792.63110352 C230.34650009 1792.63825882 229.37683807 1792.64541412 228.37779236 1792.65278625 C225.17716156 1792.66967563 221.97793078 1792.65026995 218.77734375 1792.62890625 C216.55204655 1792.62973485 214.32674941 1792.63219391 212.10145569 1792.63621521 C207.44008947 1792.6390733 202.77920373 1792.62436911 198.11791992 1792.59692383 C192.13987682 1792.56282175 186.16269183 1792.56886602 180.18460751 1792.5875864 C175.59067112 1792.59814856 170.99693482 1792.58922594 166.40301704 1792.57420158 C164.19857947 1792.56901492 161.99412105 1792.56950742 159.7896862 1792.57574654 C156.71081374 1792.58118989 153.63317526 1792.56085171 150.55444336 1792.53344727 C149.64160583 1792.53997314 148.72876831 1792.54649902 147.78826904 1792.55322266 C141.61070815 1792.45960922 141.61070815 1792.45960922 138.45495605 1790.0846405 C137.03645525 1788.05223257 136.27689631 1786.56440711 135.69140625 1784.171875 C135.50425049 1783.45781494 135.31709473 1782.74375488 135.12426758 1782.00805664 C134.93888428 1781.26289795 134.75350098 1780.51773926 134.5625 1779.75 C132.59542296 1772.45815578 130.48832431 1766.48832431 125 1761 C121.99659197 1760.69132653 121.99659197 1760.69132653 118.39319038 1760.73993778 C117.70322462 1760.73613211 117.01325885 1760.73232644 116.30238503 1760.72840545 C113.96723228 1760.71801697 111.63231936 1760.72200905 109.29714966 1760.72584534 C107.61535333 1760.72139686 105.93355911 1760.71608411 104.25176799 1760.70997661 C99.61215101 1760.69573937 94.97260084 1760.6941344 90.33296514 1760.69457352 C85.33627121 1760.69293034 80.33960521 1760.67987327 75.34292603 1760.66838074 C64.40924069 1760.64549323 53.47557472 1760.63760619 42.54186869 1760.63255429 C35.71982311 1760.62930181 28.89778319 1760.62278209 22.07574081 1760.6155529 C3.20156345 1760.59598256 -15.67260863 1760.57958074 -34.5467968 1760.57667637 C-35.7555057 1760.5764888 -36.9642146 1760.57630123 -38.20955104 1760.57610798 C-40.66008639 1760.57574172 -43.11062174 1760.57537802 -45.56115709 1760.57501686 C-46.77766959 1760.57483405 -47.99418208 1760.57465124 -49.24755859 1760.57446289 C-50.46554918 1760.57428234 -51.68353976 1760.57410179 -52.93843915 1760.57391577 C-72.68443044 1760.5703724 -92.4303128 1760.54334176 -112.1762663 1760.505965 C-132.43069706 1760.46793134 -152.6850737 1760.44851926 -172.93954098 1760.44821686 C-184.31917301 1760.44763119 -195.69867508 1760.43906912 -207.07827377 1760.41021919 C-216.76633271 1760.38577135 -226.4542143 1760.37837765 -236.1422957 1760.39346672 C-241.08863578 1760.4006626 -246.0346252 1760.39966356 -250.98092651 1760.37705612 C-255.50493328 1760.35657623 -260.02831736 1760.35896261 -264.55231656 1760.37993097 C-266.19296771 1760.38344706 -267.8336628 1760.37842701 -269.47425626 1760.36422653 C-271.69743907 1760.34621651 -273.91839554 1760.35874089 -276.1415081 1760.37917423 C-277.37831223 1760.37835978 -278.61511636 1760.37754532 -279.88939941 1760.37670618 C-283.17476903 1760.73381492 -283.17476903 1760.73381492 -285.35394871 1763.3776688 C-288.89192285 1769.01403022 -290.75997566 1775.37031094 -292 1781.875 C-292.78252561 1785.77365438 -294.14107227 1788.14107227 -297 1791 C-300.45130309 1792.72565155 -304.43556475 1792.17509538 -308.2355957 1792.19287109 C-309.19345978 1792.20104858 -310.15132385 1792.20922607 -311.13821411 1792.21765137 C-314.31739674 1792.2425241 -317.49653469 1792.25902557 -320.67578125 1792.2734375 C-322.3020044 1792.28142302 -322.3020044 1792.28142302 -323.96108055 1792.28956985 C-329.69857451 1792.31630867 -335.43604665 1792.33568188 -341.17358398 1792.35009766 C-347.10563618 1792.36675388 -353.03713371 1792.41153818 -358.96897602 1792.4624691 C-363.52514804 1792.49609135 -368.08118756 1792.50766958 -372.63747215 1792.51332474 C-374.82438589 1792.5200503 -377.01129051 1792.53530602 -379.19808388 1792.55921555 C-382.25792551 1792.5907636 -385.31625976 1792.59091922 -388.3762207 1792.58349609 C-389.28082535 1792.59990143 -390.18542999 1792.61630676 -391.1174469 1792.63320923 C-395.5332853 1792.58932182 -397.432234 1792.42287507 -401.07316589 1789.71109009 C-404.9239932 1784.29290712 -403.03474005 1777.83626375 -402.046875 1771.6484375 C-401.6200863 1769.22298358 -401.18748181 1766.79854801 -400.75 1764.375 C-398.84287445 1753.50792176 -397.22794724 1742.63703101 -395.875 1731.6875 C-394.72004222 1722.39349357 -393.46584521 1713.17849285 -391.703125 1703.98046875 C-391.14085902 1700.97173123 -390.72862666 1697.96417871 -390.359375 1694.92578125 C-388.70483415 1681.58873261 -385.93233825 1670.81491694 -375 1662 C-367.899471 1656.8297119 -361.62138254 1654.68013943 -352.7578125 1654.8046875 C-351.98944061 1654.8075174 -351.22106873 1654.81034729 -350.42941284 1654.81326294 C-347.99444479 1654.82438689 -345.55985538 1654.8494764 -343.125 1654.875 C-341.46615118 1654.88503989 -339.80729654 1654.89416397 -338.1484375 1654.90234375 C-334.09881421 1654.92430063 -330.04947113 1654.95877594 -326 1655 C-326.04125 1653.845 -326.0825 1652.69 -326.125 1651.5 C-326.12058582 1645.02188208 -325.16737552 1638.65575297 -324.30047607 1632.24932861 C-323.88823512 1629.16334122 -323.50393237 1626.07405893 -323.11782837 1622.98471069 C-322.71426482 1619.77830697 -322.2967512 1616.57379479 -321.87768555 1613.36938477 C-321.66553698 1611.73250493 -321.45727471 1610.09511723 -321.25268555 1608.45727539 C-320.95029971 1606.04176864 -320.63467986 1603.62830207 -320.31640625 1601.21484375 C-320.18498985 1600.1303318 -320.18498985 1600.1303318 -320.05091858 1599.02391052 C-319.40044878 1594.22940854 -318.22650528 1590.3158646 -316 1586 C-313 1584 -313 1584 -300 1584 C-300 1264.56 -300 945.12 -300 616 C-306.6 616 -313.2 616 -320 616 C-327.91835181 611.47522754 -330.6289518 609.42762051 -334 601 C-334 594.4 -334 587.8 -334 581 C-347.2 581 -360.4 581 -374 581 C-374.33 586.28 -374.66 591.56 -375 597 C-375.52383738 602.08173617 -376.09029628 607.12533802 -376.75 612.1875 C-376.894375 613.45658203 -377.03875 614.72566406 -377.1875 616.03320312 C-377.34734375 617.25330078 -377.5071875 618.47339844 -377.671875 619.73046875 C-377.8069043 620.81739014 -377.94193359 621.90431152 -378.08105469 623.02416992 C-379.27205836 626.88100939 -380.90642275 628.43236534 -384 631 C-386.96607971 631.62818909 -386.96607971 631.62818909 -390.28735352 631.63110352 C-391.53537247 631.64363663 -392.78339142 631.65616974 -394.06922913 631.66908264 C-395.4224655 631.65681522 -396.77569184 631.64339534 -398.12890625 631.62890625 C-399.524655 631.62973546 -400.92040364 631.63219681 -402.31614685 631.63621521 C-405.23572317 631.63906862 -408.15453036 631.62441684 -411.07397461 631.59692383 C-414.81241677 631.56280838 -418.5494871 631.5688731 -422.28799534 631.5875864 C-425.16801858 631.59816369 -428.04772355 631.58921286 -430.92771721 631.57420158 C-432.3059895 631.56902667 -433.68429512 631.56949323 -435.06256294 631.57574654 C-436.98909949 631.58120763 -438.9156526 631.55795345 -440.84204102 631.53344727 C-441.93726578 631.52724869 -443.03249054 631.52105011 -444.16090393 631.5146637 C-447.65253777 630.88170971 -448.82162902 629.74244579 -451 627 C-451.75341797 624.984375 -451.75341797 624.984375 -452.1171875 622.75 C-452.33713379 621.41775391 -452.33713379 621.41775391 -452.56152344 620.05859375 C-452.7062207 619.04925781 -452.85091797 618.03992188 -453 617 C-453.17305664 615.87722656 -453.34611328 614.75445313 -453.52441406 613.59765625 C-459.47890073 572.31037482 -459.14360899 528.67653712 -455.25 487.1875 C-455.17177002 486.31773529 -455.09354004 485.44797058 -455.01293945 484.55184937 C-454.78771698 482.1497753 -454.53436125 479.75302401 -454.265625 477.35546875 C-454.19873474 476.67226563 -454.13184448 475.9890625 -454.06292725 475.28515625 C-453.49462876 470.79446421 -452.14515536 468.23260419 -449 465 C-446.28112436 463.64056218 -444.1129284 463.85024647 -441.0690918 463.82299805 C-439.82407394 463.81016281 -438.57905609 463.79732758 -437.29631042 463.78410339 C-435.93061724 463.77593572 -434.56491956 463.76849204 -433.19921875 463.76171875 C-432.51224222 463.75764322 -431.82526569 463.7535677 -431.11747169 463.74936867 C-427.48074265 463.72850824 -423.84405133 463.71420696 -420.20727539 463.70483398 C-416.45443992 463.69377475 -412.70219826 463.65938142 -408.94957256 463.61966228 C-406.06102918 463.59349089 -403.17262711 463.58514171 -400.2839756 463.58155251 C-398.90089728 463.57668711 -397.51782525 463.56507426 -396.1348629 463.54651451 C-394.19641825 463.52211901 -392.25768468 463.52550829 -390.3190918 463.5300293 C-388.66601265 463.52122993 -388.66601265 463.52122993 -386.97953796 463.51225281 C-383.30632996 464.11355305 -381.64477228 465.4335159 -379 468 C-378.13134766 469.99682617 -378.13134766 469.99682617 -377.7890625 472.10546875 C-377.65145508 472.89356934 -377.51384766 473.68166992 -377.37207031 474.49365234 C-377.24928711 475.32074707 -377.12650391 476.1478418 -377 477 C-376.85916992 477.82580566 -376.71833984 478.65161133 -376.57324219 479.50244141 C-376.13994769 482.10171037 -375.75278541 484.70462416 -375.375 487.3125 C-375.2409375 488.17294922 -375.106875 489.03339844 -374.96875 489.91992188 C-373.96618243 496.81001636 -374 502.86477206 -374 510 C-360.8 510 -347.6 510 -334 510 C-334 503.4 -334 496.8 -334 490 C-327.53163834 479.65062134 -327.53163834 479.65062134 -322 478 C-318.16649345 477.56286454 -314.41404705 477.61969392 -310.5625 477.75 C-309.54478516 477.76804687 -308.52707031 477.78609375 -307.47851562 477.8046875 C-304.98468345 477.85152003 -302.49284953 477.91708573 -300 478 C-300.00227832 476.99841307 -300.00227832 476.99841307 -300.00460267 475.97659206 C-300.09411161 436.40333158 -300.16274453 396.83008416 -300.20426132 357.25674295 C-300.20926415 352.50530893 -300.21444144 347.75387512 -300.21972656 343.00244141 C-300.2207758 342.05651501 -300.22182505 341.11058861 -300.22290608 340.13599777 C-300.24031213 324.81893597 -300.27185094 309.50193421 -300.30861118 294.18490803 C-300.34601502 278.46866068 -300.36823468 262.75244478 -300.37635398 247.03615475 C-300.3818429 237.33805484 -300.3991803 227.64012465 -300.43166587 217.94207698 C-300.45280686 211.29209486 -300.45920098 204.64220049 -300.45400551 197.9921872 C-300.45144308 194.15522483 -300.45537585 190.31855906 -300.4768219 186.4816494 C-300.49991424 182.3197664 -300.49194867 178.15851455 -300.48101807 173.99658203 C-300.49266943 172.78645415 -300.5043208 171.57632627 -300.51632524 170.32952785 C-300.4598145 162.38128669 -299.38832031 157.02185079 -294.140625 150.79296875 C-293.51671875 150.26316406 -292.8928125 149.73335937 -292.25 149.1875 C-291.32960938 148.37345703 -291.32960938 148.37345703 -290.390625 147.54296875 C-282.62485169 142.53074578 -274.90121096 142.44110825 -265.95654297 142.4440918 C-263.76740354 142.43755199 -261.58286655 142.38303413 -259.39453125 142.32617188 C-249.32450951 142.20555957 -241.00346244 144.00624832 -233.04760742 150.62402344 C-225.73932289 158.28802583 -225.56560131 167.92353657 -225.63923645 177.96498108 C-225.63667318 179.25082279 -225.6341099 180.5366645 -225.63146895 181.86147112 C-225.62479449 185.40993256 -225.63671433 188.95811983 -225.65180314 192.50654638 C-225.66480343 196.3407794 -225.66037122 200.17499795 -225.65809631 204.00924683 C-225.65652609 210.64549969 -225.66590894 217.28166382 -225.68280983 223.91789436 C-225.70722945 233.51266053 -225.71500813 243.10738394 -225.7187738 252.70217782 C-225.72533364 268.27047032 -225.74528212 283.83871556 -225.77368164 299.40698242 C-225.80123431 314.52677169 -225.82246198 329.64654811 -225.83520508 344.76635742 C-225.83638733 346.16520508 -225.83638733 346.16520508 -225.83759347 347.59231228 C-225.84150869 352.2708908 -225.84529979 356.9494694 -225.84902918 361.62804806 C-225.88011053 400.41873179 -225.9329336 439.20936277 -226 478 C-225.43603516 477.97905273 -224.87207031 477.95810547 -224.29101562 477.93652344 C-221.69419751 477.85251499 -219.09766638 477.80107771 -216.5 477.75 C-215.613125 477.71648437 -214.72625 477.68296875 -213.8125 477.6484375 C-207.01768007 477.54851368 -201.53908102 478.71509488 -196.43969727 483.44824219 C-193.908708 486.3000358 -192.93679468 488.25282129 -192 492 C-181.77 492 -171.54 492 -161 492 C-161.00999275 484.8371228 -161.00999275 484.8371228 -161.02018738 477.52954102 C-161.07992634 433.70605417 -161.12469163 389.88257216 -161.15319599 346.05905348 C-161.15694796 340.31150432 -161.16083094 334.56395526 -161.16479492 328.81640625 C-161.16558185 327.67220714 -161.16636878 326.52800804 -161.16717956 325.34913623 C-161.18022168 306.83979862 -161.20386894 288.33048906 -161.23145839 269.82116807 C-161.25954583 250.81880403 -161.27618332 231.81645465 -161.28226548 212.8140707 C-161.286375 201.09535063 -161.2993391 189.37670984 -161.3237494 177.65801418 C-161.33964781 169.61427478 -161.34439108 161.57057617 -161.34050413 153.52682221 C-161.33858897 148.89097573 -161.34145595 144.25526749 -161.35761642 139.6194458 C-161.37233807 135.36503018 -161.37287385 131.11084428 -161.36269668 126.85641754 C-161.36144099 125.32720158 -161.365142 123.79797061 -161.37464955 122.26878369 C-161.58376831 86.51997333 -147.75087609 54.12227766 -123 28.5625 C-91.09453235 -3.37143773 -42.58063515 -14.63709333 0 0 Z " transform="translate(1126,130)" style="fill: #060606;"/><path d="M0 0 C49.17 0 98.34 0 149 0 C149 1.32 149 2.64 149 4 C135.14 4 121.28 4 107 4 C107 5.65 107 7.3 107 9 C120.86 9 134.72 9 149 9 C149 13.29 149 17.58 149 22 C135.14 22 121.28 22 107 22 C107 23.98 107 25.96 107 28 C120.86 28 134.72 28 149 28 C149 32.29 149 36.58 149 41 C135.14 41 121.28 41 107 41 C107 42.98 107 44.96 107 47 C120.86 47 134.72 47 149 47 C149 59 149 59 148 60 C145.04294679 60.08868299 142.10934944 60.11520296 139.15234375 60.09765625 C137.82270348 60.09553383 137.82270348 60.09553383 136.46620178 60.09336853 C133.62326746 60.08775215 130.78041069 60.07519691 127.9375 60.0625 C126.01497509 60.05748711 124.09244896 60.05292384 122.16992188 60.04882812 C117.44658451 60.03777741 112.72330542 60.02050183 108 60 C108 61.65 108 63.3 108 65 C121.53 65 135.06 65 149 65 C149 69.29 149 73.58 149 78 C135.14 78 121.28 78 107 78 C107 79.98 107 81.96 107 84 C120.86 84 134.72 84 149 84 C149 86.97 149 89.94 149 93 C122.6 93 96.2 93 69 93 C69 97.29 69 101.58 69 106 C95.4 106 121.8 106 149 106 C149 109.3 149 112.6 149 116 C135.47 116 121.94 116 108 116 C108 117.65 108 119.3 108 121 C121.53 121 135.06 121 149 121 C149 125.29 149 129.58 149 134 C135.14 134 121.28 134 107 134 C107 135.98 107 137.96 107 140 C120.86 140 134.72 140 149 140 C149 144.29 149 148.58 149 153 C135.14 153 121.28 153 107 153 C107 154.98 107 156.96 107 159 C120.86 159 134.72 159 149 159 C149 162.96 149 166.92 149 171 C135.14 171 121.28 171 107 171 C107 172.98 107 174.96 107 177 C120.86 177 134.72 177 149 177 C149 179.97 149 182.94 149 186 C122.27 186 95.54 186 68 186 C68 190.95 68 195.9 68 201 C94.73 201 121.46 201 149 201 C149 203.97 149 206.94 149 210 C135.14 210 121.28 210 107 210 C107 211.65 107 213.3 107 215 C120.86 215 134.72 215 149 215 C149 219.29 149 223.58 149 228 C135.14 228 121.28 228 107 228 C107 229.98 107 231.96 107 234 C120.86 234 134.72 234 149 234 C149 238.29 149 242.58 149 247 C135.47 247 121.94 247 108 247 C108 248.65 108 250.3 108 252 C121.53 252 135.06 252 149 252 C149 256.62 149 261.24 149 266 C135.47 266 121.94 266 108 266 C108 267.65 108 269.3 108 271 C121.53 271 135.06 271 149 271 C149 275.29 149 279.58 149 284 C135.14 284 121.28 284 107 284 C107 285.65 107 287.3 107 289 C120.86 289 134.72 289 149 289 C149 291.97 149 294.94 149 298 C122.6 298 96.2 298 69 298 C69 302.62 69 307.24 69 312 C95.4 312 121.8 312 149 312 C149 314.97 149 317.94 149 321 C135.14 321 121.28 321 107 321 C107 322.98 107 324.96 107 327 C120.86 327 134.72 327 149 327 C149 331.29 149 335.58 149 340 C135.47 340 121.94 340 108 340 C108 341.65 108 343.3 108 345 C121.53 345 135.06 345 149 345 C149 349.29 149 353.58 149 358 C135.47 358 121.94 358 108 358 C108 359.98 108 361.96 108 364 C121.53 364 135.06 364 149 364 C149 367.96 149 371.92 149 376 C135.14 376 121.28 376 107 376 C107 377.98 107 379.96 107 382 C120.86 382 134.72 382 149 382 C149 384.97 149 387.94 149 391 C122.6 391 96.2 391 69 391 C69 395.62 69 400.24 69 405 C95.73 405 122.46 405 150 405 C150 407.97 150 410.94 150 414 C135.81 414 121.62 414 107 414 C107 415.98 107 417.96 107 420 C120.86 420 134.72 420 149 420 C149 424.29 149 428.58 149 433 C135.47 433 121.94 433 108 433 C108 434.98 108 436.96 108 439 C121.53 439 135.06 439 149 439 C149 442.96 149 446.92 149 451 C135.47 451 121.94 451 108 451 C108 452.98 108 454.96 108 457 C121.53 457 135.06 457 149 457 C149 461.29 149 465.58 149 470 C135.14 470 121.28 470 107 470 C107 471.98 107 473.96 107 476 C120.86 476 134.72 476 149 476 C149 480.29 149 484.58 149 489 C135.47 489 121.94 489 108 489 C108 490.65 108 492.3 108 494 C121.86 494 135.72 494 150 494 C150 496.97 150 499.94 150 503 C122.94 503 95.88 503 68 503 C68 507.95 68 512.9 68 518 C94.73 518 121.46 518 149 518 C149.04125 528.6425 149.0825 539.285 149.125 550.25 C149.14320801 553.58641602 149.16141602 556.92283203 149.18017578 560.36035156 C149.18602299 563.03710774 149.191118 565.71386572 149.1953125 568.390625 C149.20053925 569.06913513 149.20576599 569.74764526 149.21115112 570.44671631 C149.27476581 579.15488866 148.76240681 587.45015829 147 596 C146.77699219 597.12535156 146.55398438 598.25070312 146.32421875 599.41015625 C144.64722741 606.39590546 142.18329211 612.57302813 139 619 C138.47277344 620.11503906 137.94554687 621.23007813 137.40234375 622.37890625 C133.52868103 630.41741819 129.02122746 637.62415054 124 645 C121.07227428 649.31355142 118.15007133 653.63076779 115.23608398 657.95361328 C114.37145898 659.23291367 113.50394884 660.51026893 112.63354492 661.78564453 C92.9052829 690.71647552 89.56787531 718.14784641 89.33044434 752.36328125 C89.29485694 756.97269656 89.23809177 761.58189806 89.18505096 766.19113922 C89.10751588 773.12739515 89.05617472 780.06339073 89 787 C79.1 787 69.2 787 59 787 C58.95101563 782.42125 58.90203125 777.8425 58.8515625 773.125 C58.81609525 770.19008466 58.78008956 767.25519496 58.7421875 764.3203125 C58.6823368 759.68200755 58.62426964 755.04373765 58.578125 750.40527344 C58.54071379 746.65740393 58.49422006 742.90973879 58.44193649 739.16204834 C58.42368376 737.74627337 58.4084739 736.33045512 58.39665604 734.91461182 C58.26977987 720.2124885 57.22090456 705.86999344 52 692 C51.75572266 691.34870117 51.51144531 690.69740234 51.25976562 690.02636719 C46.41526752 677.43419111 39.47470601 666.69578637 31.82128906 655.64355469 C10.73461241 625.03678058 -0.34074259 599.83550634 -0.24050903 562.31011963 C-0.24138177 559.88262949 -0.243134 557.45513954 -0.24568737 555.02765059 C-0.24922065 549.76092576 -0.24657638 544.49425861 -0.23841095 539.22754288 C-0.22630329 531.39623257 -0.22574283 523.56495066 -0.22749493 515.7336327 C-0.23011833 502.55788932 -0.22345666 489.38216606 -0.21146011 476.20642853 C-0.19961656 463.1652237 -0.1919263 450.12402725 -0.18975449 437.08281708 C-0.18954827 435.86545557 -0.18954827 435.86545557 -0.18933788 434.6235009 C-0.18866119 430.5017421 -0.18805843 426.37998328 -0.18748413 422.25822446 C-0.18328593 393.08164915 -0.16981854 363.90508478 -0.15087891 334.72851562 C-0.13250327 306.38802142 -0.11833936 278.04753022 -0.10986328 249.70703125 C-0.10960023 248.8330928 -0.10933718 247.95915435 -0.10906615 247.05873292 C-0.10642906 238.28209602 -0.10387744 229.5054591 -0.10138843 220.72882216 C-0.09631633 202.85060703 -0.09067382 184.97239209 -0.08468628 167.09417725 C-0.0844117 166.27220822 -0.08413712 165.45023919 -0.08385422 164.60336201 C-0.07540988 139.41463017 -0.06454845 114.22590018 -0.05130005 89.03717041 C-0.05092493 88.32218701 -0.05054982 87.60720361 -0.05016333 86.87055404 C-0.03493447 57.91370185 -0.01714547 28.95685111 0 0 Z " transform="translate(1014,710)" style="fill: #FCFCFC;"/><path d="M0 0 C21.58294926 17.12701003 34.45520092 40.02469795 38.5664041 67.22339952 C39.34190161 73.97794746 39.26774145 80.73339131 39.24050903 87.52107239 C39.24138289 89.15746413 39.24313718 90.79385559 39.24568737 92.43024558 C39.25012946 96.89313058 39.24220075 101.35591839 39.23213124 105.81879103 C39.22345346 110.64410165 39.22641995 115.46940728 39.22793579 120.29472351 C39.22898191 128.64372355 39.22273387 136.9926922 39.21146011 145.34168434 C39.19517103 157.41275955 39.18999362 169.48381966 39.18748413 181.55490466 C39.18311237 201.14183631 39.16981736 220.72875125 39.15087891 240.31567383 C39.13250667 259.33683184 39.11835674 278.3579853 39.10986328 297.37915039 C39.10933783 298.55261124 39.10881239 299.7260721 39.10827102 300.93509237 C39.10566085 306.82229817 39.10313345 312.709504 39.10064721 318.59670985 C39.07993087 367.39781822 39.04457029 416.19890803 39 465 C34.05 465 29.1 465 24 465 C24 398.67 24 332.34 24 264 C22.35 263.34 20.7 262.68 19 262 C18.01 261.34 17.02 260.68 16 260 C7.204337 257.80108425 -1.98234122 257.46812983 -11 257 C-11 256.67 -11 256.34 -11 256 C-0.11 256 10.78 256 22 256 C22 254.02 22 252.04 22 250 C6.82 250 -8.36 250 -24 250 C-24 251.98 -24 253.96 -24 256 C-25.55616531 256.00879936 -25.55616531 256.00879936 -27.14376831 256.01777649 C-36.9981235 256.07539182 -46.85226618 256.14834954 -56.70640373 256.23571491 C-61.77056106 256.28013651 -66.83464313 256.31945186 -71.89892578 256.34643555 C-76.80096251 256.37275369 -81.70270506 256.4133489 -86.60455704 256.46318626 C-88.4596702 256.47966481 -90.31483402 256.49129577 -92.17000961 256.49761391 C-101.46781376 256.53243216 -110.58773766 256.8349911 -119.78564453 258.28198242 C-120.49802717 258.38934628 -121.21040981 258.49671015 -121.94437981 258.60732746 C-127.498083 259.5880674 -130.61782462 261.30891231 -136 264 C-136.33 330.33 -136.66 396.66 -137 465 C-142.28 465 -147.56 465 -153 465 C-153.0913319 414.98574522 -153.16208075 364.97150106 -153.20426132 314.95717917 C-153.2092639 309.04697347 -153.21444121 303.13676795 -153.21972656 297.2265625 C-153.2207758 296.04999125 -153.22182505 294.87342001 -153.22290608 293.66119508 C-153.24029164 274.63264235 -153.27181913 255.60413815 -153.30861118 236.57561417 C-153.34607209 217.03761587 -153.36824673 197.49964293 -153.37635398 177.9616102 C-153.38183107 165.91427939 -153.39910408 153.86708581 -153.43166587 141.81979726 C-153.45287736 133.54850215 -153.45918507 125.27727757 -153.45400551 117.00595726 C-153.45145404 112.24020624 -153.45525019 107.47469433 -153.4768219 102.70898628 C-153.49648107 98.33351875 -153.49714643 93.95844805 -153.48359558 89.58296113 C-153.48192418 88.0119837 -153.48683319 86.44098011 -153.49953273 84.87005313 C-153.70046165 58.4479633 -145.15802246 34.14986251 -128 14 C-127.36449219 13.17242187 -126.72898437 12.34484375 -126.07421875 11.4921875 C-95.57778687 -25.14947641 -36.81562131 -27.17206942 0 0 Z " transform="translate(1145,169)" style="fill: #FCFCFC;"/><path d="M0 0 C0.80391934 -0.00327219 1.60783867 -0.00654439 2.4361192 -0.00991574 C3.75495104 -0.0076903 3.75495104 -0.0076903 5.10042596 -0.00541991 C6.04138033 -0.00777214 6.98233471 -0.01012437 7.95180285 -0.01254788 C11.12868612 -0.01924491 14.30552855 -0.01877945 17.4824183 -0.01836985 C19.77355862 -0.02166803 22.06469835 -0.02539349 24.35583735 -0.02951133 C30.67063095 -0.03954451 36.98541504 -0.04325024 43.30021548 -0.04590064 C49.40526036 -0.04891919 55.51029871 -0.05754646 61.6153388 -0.06544458 C77.97394887 -0.08629148 94.33256075 -0.09675876 110.69118101 -0.10557419 C118.42828431 -0.10977994 126.16538682 -0.11500199 133.90248946 -0.12025872 C160.38217297 -0.13814821 186.8618567 -0.15314512 213.34154534 -0.16057891 C215.00400885 -0.16105366 216.66647237 -0.16152955 218.32893588 -0.16200657 C219.15337453 -0.16224294 219.97781319 -0.16247932 220.82723483 -0.16272286 C225.00430852 -0.16392407 229.18138221 -0.16513952 233.3584559 -0.16636485 C234.18741082 -0.166605 235.01636574 -0.16684515 235.8704405 -0.16709258 C262.75481723 -0.17498774 289.63914987 -0.1984244 316.52350734 -0.23092079 C344.94066428 -0.26520731 373.35779542 -0.2849289 401.77497339 -0.28822315 C404.89360342 -0.28864069 408.01223342 -0.28912026 411.13086343 -0.28964633 C411.89876971 -0.28976952 412.66667599 -0.28989271 413.45785216 -0.29001964 C425.82285615 -0.292353 438.18780898 -0.30802042 450.55279473 -0.32848817 C462.97780211 -0.34872925 475.40274795 -0.3542316 487.82776877 -0.34471754 C494.56083929 -0.33995611 501.29373348 -0.34214313 508.02678323 -0.36147898 C514.18781228 -0.37901976 520.34855249 -0.37818689 526.50958422 -0.36258169 C528.74108966 -0.36019179 530.97261462 -0.36460016 533.20409009 -0.37641034 C536.23336515 -0.39145272 539.26160663 -0.38190925 542.29085565 -0.36618346 C543.16071221 -0.37640567 544.03056878 -0.38662787 544.92678463 -0.39715984 C551.62081657 -0.32112292 556.70791584 1.5130912 561.93560433 5.73426992 C568.80802837 13.94468801 569.67147915 23.73262159 571.0247767 34.05162221 C571.53694044 37.94979236 572.07854612 41.84387122 572.61919808 45.73817617 C572.78284356 46.92219266 572.78284356 46.92219266 572.94979501 48.13012868 C574.17961443 56.94304206 575.65041389 65.70995509 577.15972543 74.47914296 C578.9083248 84.68128011 580.41025551 94.88168398 581.94732308 105.12880117 C555.87732308 105.12880117 529.80732308 105.12880117 502.94732308 105.12880117 C502.28732308 102.15880117 501.62732308 99.18880117 500.94732308 96.12880117 C497.23514212 86.54736111 493.22124289 79.61921642 483.76494271 75.08157849 C480.33421801 73.92147985 477.49624973 73.87437355 473.87322164 73.86873895 C472.81715034 73.86303044 472.81715034 73.86303044 471.73974428 73.85720661 C469.37471466 73.84687982 467.00992457 73.85079896 464.64487863 73.8546465 C462.93447035 73.8501947 461.22406414 73.84488084 459.51366097 73.83877778 C454.80873363 73.82458063 450.1038723 73.82293481 445.39892662 73.82337469 C440.32654386 73.82172801 435.25418841 73.80866436 430.18182015 73.7971819 C419.08895804 73.77432206 407.99611505 73.76641038 396.90323257 73.76135546 C389.97845622 73.75809988 383.05368542 73.75157829 376.12891221 73.74435407 C356.96038356 73.72478763 337.79186009 73.70838342 318.62332082 73.70547754 C317.39645025 73.70528997 316.16957968 73.7051024 314.90553122 73.70490914 C312.41831664 73.70454289 309.93110207 73.70417919 307.44388749 73.70381803 C306.20921313 73.70363522 304.97453877 73.70345241 303.70245004 73.70326406 C302.4662709 73.70308351 301.23009176 73.70290296 299.95645265 73.70271694 C279.91912808 73.69917415 259.8819109 73.67214537 239.84462359 73.63476617 C219.27819521 73.59670647 198.71182015 73.57732023 178.14535576 73.57701802 C166.59573189 73.57643296 155.04623615 73.5679094 143.49664521 73.53902036 C133.66348084 73.51453788 123.83049135 73.50720249 113.99730476 73.52226789 C108.97956569 73.52944933 103.96217218 73.52852606 98.9444716 73.50585729 C94.35067973 73.48530227 89.75749985 73.48783506 85.16371486 73.50873213 C83.50222101 73.51223367 81.84068332 73.50728893 80.17924698 73.49302769 C70.43649518 73.41479128 63.5543618 73.79662203 56.21464103 80.77654636 C49.89135662 87.19333433 48.07235777 95.62866242 45.94732308 104.12880117 C20.20732308 104.12880117 -5.53267692 104.12880117 -32.05267692 104.12880117 C-32.05267692 98.04542095 -31.92484378 93.24934161 -30.95111442 87.41395742 C-30.83429816 86.69672002 -30.71748191 85.97948262 -30.59712577 85.24051076 C-30.21357786 82.88969626 -29.82079906 80.5405319 -29.42767692 78.19130117 C-28.86885507 74.80545626 -28.31622915 71.41864302 -27.76752067 68.03114492 C-27.625185 67.1534142 -27.48284934 66.27568349 -27.33620048 65.37135488 C-26.2826564 58.78385129 -25.36358915 52.18429086 -24.49408317 45.57020742 C-24.23908679 43.66191634 -23.98404167 41.75363177 -23.72894645 39.8453539 C-23.35879405 37.06969236 -22.99513489 34.29398386 -22.65222526 31.51481801 C-22.33258303 28.92790006 -21.98959927 26.3449725 -21.64252067 23.76161367 C-21.55611823 23.00477788 -21.4697158 22.2479421 -21.3806951 21.46817189 C-20.39214125 14.40251326 -17.06290075 8.25550421 -11.49017692 3.69130117 C-10.93201285 3.21821523 -10.37384879 2.74512929 -9.79877067 2.25770742 C-6.72168076 0.26826898 -3.60147605 0.00384938 0 0 Z " transform="translate(773.0526769161224,1800.8711988329887)" style="fill: #DFE0E0;"/><path d="M0 0 C13.86 0 27.72 0 42 0 C42 319.44 42 638.88 42 968 C28.14 968 14.28 968 0 968 C0 648.56 0 329.12 0 0 Z " transform="translate(842,746)" style="fill: #C0C1C3;"/><path d="M0 0 C35.64 0 71.28 0 108 0 C108 1.98 108 3.96 108 6 C121.53 6 135.06 6 149 6 C149 10.29 149 14.58 149 19 C135.47 19 121.94 19 108 19 C108 20.65 108 22.3 108 24 C121.86 24 135.72 24 150 24 C150 28.62 150 33.24 150 38 C136.14 38 122.28 38 108 38 C108 39.65 108 41.3 108 43 C121.53 43 135.06 43 149 43 C149 45.97 149 48.94 149 52 C122.6 52 96.2 52 69 52 C69 56.62 69 61.24 69 66 C95.4 66 121.8 66 149 66 C149 68.97 149 71.94 149 75 C135.47 75 121.94 75 108 75 C108 76.98 108 78.96 108 81 C121.53 81 135.06 81 149 81 C149 85.29 149 89.58 149 94 C135.47 94.33 121.94 94.66 108 95 C107.67 96.65 107.34 98.3 107 100 C120.86 100 134.72 100 149 100 C149 104.29 149 108.58 149 113 C135.14 113 121.28 113 107 113 C107 114.98 107 116.96 107 119 C120.86 119 134.72 119 149 119 C149 123.29 149 127.58 149 132 C135.14 132 121.28 132 107 132 C107 133.65 107 135.3 107 137 C120.86 137 134.72 137 149 137 C149 139.97 149 142.94 149 146 C122.27 146 95.54 146 68 146 C68.495 152.93 68.495 152.93 69 160 C95.4 160.33 121.8 160.66 149 161 C149 163.64 149 166.28 149 169 C135.47 169 121.94 169 108 169 C108 170.98 108 172.96 108 175 C121.53 175 135.06 175 149 175 C149 179.29 149 183.58 149 188 C135.14 188 121.28 188 107 188 C107 189.98 107 191.96 107 194 C120.86 194 134.72 194 149 194 C149 195.32 149 196.64 149 198 C99.83 198 50.66 198 0 198 C0 132.66 0 67.32 0 0 Z " transform="translate(1014,436)" style="fill: #FCFCFC;"/><path d="M0 0 C6.93 0 13.86 0 21 0 C21 319.44 21 638.88 21 968 C14.07 967.67 7.14 967.34 0 967 C0 647.89 0 328.78 0 0 Z " transform="translate(863,746)" style="fill: #E0E0E0;"/><path d="M0 0 C1.216875 0.00451172 2.43375 0.00902344 3.6875 0.01367188 C4.945625 0.05427734 6.20375 0.09488281 7.5 0.13671875 C9.3871875 0.13381836 9.3871875 0.13381836 11.3125 0.13085938 C22.76030782 0.30669964 22.76030782 0.30669964 27.5 4.82421875 C29.71978986 8.15390354 29.74921668 9.17249354 29.74609566 13.05036449 C29.75007775 14.13967366 29.75405985 15.22898283 29.75816262 16.35130137 C29.74942409 18.15332097 29.74942409 18.15332097 29.74050903 19.991745 C29.74221788 21.26429305 29.74392673 22.53684111 29.74568737 23.84795123 C29.75017069 27.38710791 29.74214377 30.9261441 29.73213124 34.46528542 C29.72351318 38.27917427 29.72641574 42.09305606 29.72793579 45.9069519 C29.72898569 52.51709802 29.72269819 59.12720472 29.71146011 65.73734093 C29.69522221 75.29454215 29.68999886 84.85172427 29.68748413 94.40893779 C29.68310434 109.91399342 29.66978753 125.41902804 29.65087891 140.92407227 C29.63252746 155.98787328 29.61836736 171.05166859 29.60986328 186.11547852 C29.60907511 187.5077297 29.60907511 187.5077297 29.60827102 188.92810716 C29.60566099 193.58434139 29.60313356 198.24057565 29.60064721 202.89680994 C29.57990586 241.53929498 29.54412308 280.18175386 29.5 318.82421875 C15.64 318.82421875 1.78 318.82421875 -12.5 318.82421875 C-12.63561769 279.32385075 -12.74304647 239.82354392 -12.80639198 200.32299 C-12.81389628 195.66039463 -12.82166221 190.99779974 -12.82958984 186.33520508 C-12.83116371 185.40696006 -12.83273757 184.47871504 -12.83435912 183.52234138 C-12.86047239 168.48909 -12.9077828 153.45597618 -12.96291678 138.42280643 C-13.01901107 122.99924196 -13.05234955 107.57574957 -13.06453097 92.15208727 C-13.07276682 82.63353933 -13.09878555 73.11538018 -13.1474988 63.59695191 C-13.1791963 57.07123244 -13.18880475 50.5457142 -13.18100826 44.01992332 C-13.17716226 40.25381883 -13.18308813 36.48839406 -13.21523285 32.7224102 C-13.24983452 28.63874926 -13.2379348 24.55653713 -13.2215271 20.47276306 C-13.23900415 19.28306803 -13.2564812 18.093373 -13.27448785 16.86762661 C-13.20506908 10.49147377 -12.63507553 6.6390355 -8.09536135 1.99459749 C-5.43993543 0.04654099 -3.23889757 -0.0328714 0 0 Z " transform="translate(854.5,288.17578125)" style="fill: #C0C1C2;"/><path d="M0 0 C36.9865405 -0.11298834 73.97303571 -0.20252446 110.95971401 -0.25532665 C115.32446132 -0.26158032 119.68920828 -0.26805192 124.05395508 -0.2746582 C125.3573911 -0.27662553 125.3573911 -0.27662553 126.68715916 -0.2786326 C140.76469682 -0.30040032 154.84213258 -0.33982934 168.91960975 -0.38576398 C183.360056 -0.43249066 197.80044882 -0.46028736 212.24096757 -0.47044247 C221.15450091 -0.47730952 230.06774625 -0.49901276 238.98119096 -0.53958233 C245.09012689 -0.56597398 251.19891353 -0.57400915 257.30790236 -0.56750689 C260.8347085 -0.56429834 264.36101077 -0.56928094 267.88772774 -0.59602737 C271.70908694 -0.62479717 275.52978618 -0.61496194 279.35124207 -0.60127258 C280.46894381 -0.61583679 281.58664556 -0.630401 282.73821706 -0.64540654 C290.216357 -0.57267794 290.216357 -0.57267794 294.1886034 2.33019733 C296.51854379 5.76427747 296.6313341 7.92558747 296.62890625 12.05859375 C296.63131821 12.72536636 296.63373016 13.39213898 296.63621521 14.07911682 C296.63523967 15.48355072 296.62191554 16.88802447 296.59692383 18.29223633 C296.56264294 20.42859198 296.57626503 22.56079741 296.59570312 24.69726562 C296.5888024 26.06772575 296.57912794 27.43817529 296.56640625 28.80859375 C296.55009155 30.66182251 296.55009155 30.66182251 296.53344727 32.55249023 C295.9015928 36.63597624 294.57364336 38.80039052 292 42 C288.7481558 44.16789613 287.87155867 44.24934739 284.11743641 44.24609566 C283.10476194 44.25007775 282.09208748 44.25405985 281.0487259 44.25816262 C279.93298037 44.25233693 278.81723484 44.24651125 277.66767883 44.24050903 C276.48496893 44.24221788 275.30225902 44.24392673 274.08370942 44.24568737 C270.79534425 44.24841776 267.50721572 44.24214564 264.2188791 44.23213124 C260.67493143 44.22351132 257.13099134 44.22641587 253.58703613 44.22793579 C247.4450691 44.22898557 241.30314449 44.2226993 235.16118813 44.21146011 C226.28090671 44.19522061 217.40064585 44.1899987 208.52035119 44.18748413 C194.11340934 44.18310459 179.70649011 44.16978847 165.29956055 44.15087891 C151.30281691 44.13252681 137.30607941 44.11836702 123.30932617 44.10986328 C122.44687262 44.10933783 121.58441907 44.10881239 120.69583056 44.10827102 C116.36924591 44.10566098 112.04266122 44.10313356 107.71607649 44.10064721 C71.81070105 44.07990665 35.90535376 44.04412446 0 44 C0 29.48 0 14.96 0 0 Z " transform="translate(934,650)" style="fill: #E2E2E2;"/><path d="M0 0 C13.93379272 -0.02333048 27.86758243 -0.04091349 41.80139065 -0.05181217 C48.2706768 -0.05704168 54.73994989 -0.06414056 61.20922852 -0.07543945 C67.446703 -0.08626592 73.68416487 -0.09227632 79.92164803 -0.09487724 C82.30720277 -0.09673193 84.69275679 -0.10035336 87.0783062 -0.10573006 C90.40695591 -0.11293729 93.73555279 -0.11399108 97.06420898 -0.11352539 C98.06114273 -0.11712067 99.05807648 -0.12071594 100.08522034 -0.12442017 C100.98690948 -0.1230455 101.88859863 -0.12167084 102.81761169 -0.12025452 C103.6057447 -0.12117631 104.3938777 -0.1220981 105.20589352 -0.12304783 C107 0 107 0 108 1 C108.09746311 2.3510732 108.12631579 3.70718373 108.12698364 5.06176758 C108.13121338 6.37426987 108.13121338 6.37426987 108.13552856 7.71328735 C108.13249222 9.16425308 108.13249222 9.16425308 108.12939453 10.64453125 C108.13202301 12.16389786 108.13202301 12.16389786 108.13470459 13.71395874 C108.13912522 17.08015631 108.13618437 20.44630184 108.1328125 23.8125 C108.13348548 26.14038096 108.13445545 28.46826186 108.13571167 30.79614258 C108.13718893 35.68213569 108.13503318 40.56811056 108.13037109 45.45410156 C108.1246738 51.73272656 108.12795265 58.01130882 108.13394356 64.28993225 C108.13754841 69.09900233 108.13641093 73.90806219 108.13381577 78.71713257 C108.13314629 81.03290817 108.13397564 83.34868469 108.13629532 85.66445923 C108.13882061 88.89482091 108.13498299 92.12511233 108.12939453 95.35546875 C108.13141876 96.32277924 108.13344299 97.29008972 108.13552856 98.28671265 C108.13270874 99.16171417 108.12988892 100.0367157 108.12698364 100.93823242 C108.1264181 102.08529915 108.1264181 102.08529915 108.12584114 103.25553894 C108 105 108 105 107 106 C105.61089367 106.0975858 104.21687051 106.12631639 102.82434082 106.12698364 C101.47397484 106.13121338 101.47397484 106.13121338 100.09632874 106.13552856 C99.10096603 106.13350433 98.10560333 106.1314801 97.08007812 106.12939453 C95.51682045 106.13202301 95.51682045 106.13202301 93.92198181 106.13470459 C90.45838787 106.13912538 86.99484451 106.13618431 83.53125 106.1328125 C81.1361083 106.13348547 78.74096666 106.13445544 76.3458252 106.13571167 C71.31859692 106.13718895 66.29138638 106.13503311 61.26416016 106.13037109 C54.80393309 106.1246738 48.34374757 106.12795264 41.88352203 106.13394356 C36.93548263 106.13754835 31.98745315 106.13641096 27.03941345 106.13381577 C24.65665177 106.13314627 22.27388919 106.1339757 19.89112854 106.13629532 C16.56736851 106.13882051 13.24367679 106.13498313 9.91992188 106.12939453 C8.92455917 106.13141876 7.92919647 106.13344299 6.90367126 106.13552856 C6.00342728 106.13270874 5.10318329 106.12988892 4.17565918 106.12698364 C3.388825 106.12660662 2.60199081 106.12622959 1.79131317 106.12584114 C0 106 0 106 -1 105 C-1.09741448 103.66385268 -1.12631556 102.32261896 -1.12698364 100.98292542 C-1.12980347 100.1177832 -1.13262329 99.25264099 -1.13552856 98.36128235 C-1.13350433 97.40489365 -1.1314801 96.44850494 -1.12939453 95.46313477 C-1.13114685 94.46158356 -1.13289917 93.46003235 -1.13470459 92.4281311 C-1.13912558 89.09920547 -1.13618402 85.77033247 -1.1328125 82.44140625 C-1.13348552 80.13834116 -1.13445553 77.83527615 -1.13571167 75.5322113 C-1.13718902 70.69749274 -1.13503309 65.8627926 -1.13037109 61.02807617 C-1.12467698 54.81905174 -1.12795058 48.61007055 -1.13394356 42.40104771 C-1.13755088 37.64254936 -1.13640973 32.88406132 -1.13381577 28.12556267 C-1.13314681 25.83573336 -1.13397384 23.54590313 -1.13629532 21.25607491 C-1.13882429 18.05944451 -1.1349776 14.86288487 -1.12939453 11.66625977 C-1.13141876 10.71189529 -1.13344299 9.75753082 -1.13552856 8.77424622 C-1.13270874 7.90628418 -1.12988892 7.03832214 -1.12698364 6.14405823 C-1.12660662 5.38764321 -1.12622959 4.6312282 -1.12584114 3.85189152 C-1 2 -1 2 0 0 Z " transform="translate(809,623)" style="fill: #E1E1E1;"/><path d="M0 0 C4.95 0 9.9 0 15 0 C15.06852039 54.97076769 15.13219671 109.94153943 15.16937256 164.91233826 C15.16992479 165.72681072 15.17047702 166.54128318 15.17104598 167.38043663 C15.18301951 185.08402862 15.19409997 202.78762107 15.20426132 220.49121419 C15.20925037 229.17391177 15.21443662 237.85660924 15.21972656 246.53930664 C15.2202496 247.40330794 15.22077263 248.26730925 15.22131152 249.15749241 C15.2383361 277.12779431 15.26836575 305.09806374 15.30518888 333.068346 C15.342982 361.82785966 15.3675563 390.58735538 15.37565996 419.34689345 C15.37681246 423.41534883 15.37811501 427.48380415 15.37950897 431.55225945 C15.37977866 432.35293599 15.38004836 433.15361254 15.38032622 433.97855202 C15.38504052 446.83176833 15.40355866 459.68492892 15.42732814 472.53812256 C15.45096639 485.48140881 15.45984969 498.42464018 15.45400551 511.36794723 C15.45097899 519.04390119 15.45893137 526.71965325 15.48319017 534.39557049 C15.50012355 540.1504339 15.4957555 545.90513312 15.48359558 551.66000139 C15.48191984 553.97130254 15.48686772 556.28262129 15.49953273 558.59388835 C15.69668141 596.83003569 5.1603603 629.56066932 -18 660 C-38.59318076 687.24754919 -51.78947805 711.64572069 -52.31640625 746.5703125 C-52.33718735 747.73255341 -52.35796844 748.89479431 -52.37937927 750.09225464 C-52.4442597 753.76978189 -52.50347103 757.44737464 -52.5625 761.125 C-52.60574384 763.63281901 -52.64935991 766.14063163 -52.69335938 768.6484375 C-52.79987716 774.76555771 -52.90175257 780.88274166 -53 787 C-55.64 787 -58.28 787 -61 787 C-61.09395749 779.03545191 -61.16438594 771.07114704 -61.20724869 763.10617638 C-61.22785256 759.40505349 -61.25564974 755.70431796 -61.30175781 752.00341797 C-61.72916703 716.73833679 -56.40952381 689.47113995 -35.64526367 660.53857422 C-30.14683184 652.87105213 -25.01404839 644.99094768 -20 637 C-18.97712891 635.37771484 -18.97712891 635.37771484 -17.93359375 633.72265625 C-13.70167304 626.76695072 -10.68471181 619.67628709 -8 612 C-7.57074219 610.84757812 -7.57074219 610.84757812 -7.1328125 609.671875 C-2.50910284 596.80175534 -0.84600582 583.427861 -0.8613348 569.83449459 C-0.85849258 568.84485325 -0.85565036 567.85521192 -0.85272202 566.83558145 C-0.84440773 563.52326793 -0.84310938 560.21098953 -0.84178162 556.89866638 C-0.83721404 554.49851384 -0.83221373 552.09836208 -0.82681805 549.69821125 C-0.81608241 544.48194595 -0.80839968 539.26568537 -0.80341911 534.04941177 C-0.79599662 526.29304903 -0.7829097 518.53670302 -0.76867336 510.78035016 C-0.74488344 497.73183617 -0.72567061 484.6833192 -0.70907402 471.63479424 C-0.69262835 458.71670562 -0.67414365 445.79862257 -0.65294075 432.88054085 C-0.65162314 432.07707837 -0.65030554 431.2736159 -0.648948 430.44580607 C-0.64224584 426.3653606 -0.63550729 422.28491519 -0.62875474 418.20446981 C-0.58100247 389.30908879 -0.53781435 360.41370257 -0.49731445 331.51831055 C-0.45796099 303.44831972 -0.41653759 275.3783332 -0.37231445 247.30834961 C-0.37095192 246.44298092 -0.36958939 245.57761222 -0.36818558 244.68602024 C-0.3545001 235.9955648 -0.34077257 227.30510943 -0.32701423 218.6146541 C-0.29898833 200.91148385 -0.27124309 183.20831317 -0.2436676 165.50514221 C-0.2423994 164.69119425 -0.2411312 163.87724628 -0.23982458 163.03863322 C-0.15518082 108.69242913 -0.07710011 54.34621525 0 0 Z " transform="translate(1169,710)" style="fill: #F9F9F8;"/><path d="M0 0 C4.95 0 9.9 0 15 0 C15.00097681 1.22889131 15.00195362 2.45778263 15.00296003 3.72391307 C15.04622307 57.9053165 15.09319445 112.08671566 15.15898132 166.26809692 C15.15997689 167.08889862 15.16097246 167.90970032 15.16199819 168.75537479 C15.18365877 186.59534069 15.20598161 204.4353057 15.22898628 222.27526992 C15.2402644 231.0244962 15.25139624 239.77372266 15.26245117 248.52294922 C15.26355374 249.39358369 15.2646563 250.26421816 15.26579228 251.16123549 C15.30143508 279.36047175 15.32742585 307.55970682 15.34838969 335.7589575 C15.36999116 364.74712624 15.40137331 393.73526844 15.44499113 422.72341281 C15.45115301 426.82158094 15.45720355 430.91974923 15.46318626 435.01791763 C15.46436715 435.8244639 15.46554803 436.63101017 15.46676469 437.46199723 C15.48545675 450.42403585 15.4938957 463.38606166 15.49846124 476.34811211 C15.50327589 489.39214408 15.51898561 502.43612741 15.54566566 515.48013328 C15.56117279 523.22151794 15.56847716 530.96280657 15.56376929 538.70420589 C15.56116904 544.49892932 15.57426216 550.2935356 15.59323552 556.08822466 C15.59848093 558.42230554 15.59876213 560.75640436 15.59339563 563.09048496 C15.51606371 600.56023095 27.16099287 627.27446634 47.98046875 657.84765625 C58.50513394 673.35497761 67.63353432 687.56381158 72 706 C72.31904297 707.26457031 72.31904297 707.26457031 72.64453125 708.5546875 C75.04700037 718.54481089 75.13808749 728.4382166 75.09765625 738.66015625 C75.09578737 740.05976816 75.09436569 741.45938073 75.09336853 742.85899353 C75.08958036 746.51347716 75.0797824 750.16792 75.06866455 753.8223877 C75.05837016 757.56322681 75.05385384 761.30407263 75.04882812 765.04492188 C75.0381562 772.36329969 75.02112515 779.68164409 75 787 C72.69 787 70.38 787 68 787 C67.99635437 786.42467026 67.99270874 785.84934052 67.98895264 785.25657654 C67.94635995 779.1377153 67.87651411 773.01955199 67.79248047 766.90112305 C67.76466608 764.63329126 67.74326049 762.36536965 67.72900391 760.09741211 C67.64917632 748.09932566 67.23205022 736.36395289 65.1953125 724.51953125 C65.04020203 723.61480576 64.88509155 722.71008026 64.72528076 721.77793884 C62.87090027 712.00291384 59.18674995 702.9860898 55 694 C54.30970703 692.48792969 54.30970703 692.48792969 53.60546875 690.9453125 C49.78852372 683.35754867 44.51620298 676.65032742 39.51171875 669.8203125 C14.34167634 635.40655976 -0.71494119 603.63028605 -0.48101807 560.38604736 C-0.482766 557.95577622 -0.48627497 555.52550582 -0.49137473 553.0952394 C-0.49840932 547.84718704 -0.49322479 542.5992997 -0.4768219 537.35127449 C-0.45250066 529.5478996 -0.45149531 521.74463806 -0.45498985 513.94123217 C-0.46022392 500.80938126 -0.44696217 487.67761135 -0.42292023 474.545784 C-0.39919936 461.55584562 -0.38384583 448.56594102 -0.37950897 435.57598114 C-0.37909653 434.36152403 -0.37909653 434.36152403 -0.37867576 433.12253243 C-0.37732231 429.01028536 -0.37611682 424.89803826 -0.37496826 420.78579113 C-0.36658112 391.70791987 -0.33967231 362.6300926 -0.30175781 333.55224609 C-0.26498197 305.31494377 -0.23666622 277.07765352 -0.21972656 248.84033203 C-0.21920046 247.96893985 -0.21867435 247.09754766 -0.21813231 246.19974965 C-0.21285793 237.44835318 -0.20775472 228.69695662 -0.20277687 219.94555997 C-0.19263379 202.1201798 -0.18134878 184.29480042 -0.16937256 166.46942139 C-0.1688234 165.64995617 -0.16827424 164.83049094 -0.16770844 163.98619344 C-0.13094614 109.3241105 -0.06748654 54.66205259 0 0 Z " transform="translate(993,710)" style="fill: #FCFCFB;"/><path d="M0 0 C28.38 0 56.76 0 86 0 C86 14.60728573 86 14.60728573 85.44702148 19.57958984 C85.32682144 20.70732819 85.2066214 21.83506653 85.08277893 22.99697876 C84.95104782 24.18133514 84.81931671 25.36569153 84.68359375 26.5859375 C84.40335262 29.23640798 84.12512821 31.88697905 83.85107422 34.53808594 C83.77993062 35.22372683 83.70878702 35.90936771 83.63548756 36.6157856 C82.8922946 43.87684772 82.29737714 51.14859303 81.71510696 58.42404938 C81.53542204 60.66075391 81.35236794 62.89715582 81.1680603 65.13348389 C81.10717413 65.87237225 81.04628796 66.6112606 80.98355675 67.37253952 C80.86046885 68.86558476 80.73737239 70.3586293 80.61426735 71.85167313 C80.30109187 75.66497711 79.99485705 79.47865606 79.70043945 83.29345703 C79.40793372 87.0771322 79.09786311 90.85900204 78.77578545 94.64027023 C78.65810269 96.05989034 78.54685163 97.48005998 78.44239998 98.90071487 C78.29745564 100.86171614 78.12793034 102.82085389 77.95727539 104.77978516 C77.8686171 105.88842926 77.7799588 106.99707336 77.68861389 108.13931274 C76.84448081 111.64606851 75.93725575 112.92028051 73 115 C70.18540955 115.50793457 70.18540955 115.50793457 66.90209961 115.51757812 C65.67079819 115.53018677 64.43949677 115.54279541 63.17088318 115.55578613 C61.8313642 115.54862707 60.49185045 115.54042327 59.15234375 115.53125 C57.77518947 115.53394548 56.39803705 115.53782837 55.02088928 115.54284668 C52.13833449 115.54873729 49.25627627 115.54019249 46.3737793 115.52148438 C42.67896314 115.49867247 38.98530778 115.51183308 35.29053402 115.53577423 C32.44832098 115.55022642 29.60638338 115.54562952 26.76416206 115.53526306 C25.40179876 115.53259522 24.03941042 115.53586763 22.67707634 115.54518127 C20.77422437 115.5553375 18.87128466 115.53711277 16.96850586 115.51757812 C15.88580917 115.51439575 14.80311249 115.51121338 13.68760681 115.50793457 C11 115 11 115 9.16546631 113.11885071 C7.80318011 110.64217587 7.39751544 108.6898043 7.05078125 105.88671875 C6.92453369 104.8930127 6.79828613 103.89930664 6.66821289 102.87548828 C6.55082764 101.82345215 6.43344238 100.77141602 6.3125 99.6875 C6.12578735 98.07077393 6.12578735 98.07077393 5.93530273 96.42138672 C4.58464884 84.08916889 3.49827945 73.46366108 9 62 C10.7258315 57.06905286 11.25273256 54.06674508 10 49 C8.71244105 46.88047988 7.39611061 44.77835063 6.0625 42.6875 C2 33 2 33 0 0 Z " transform="translate(1045,1539)" style="fill: #FAFAFA;"/><path d="M0 0 C3.97535268 4.25891552 3.01393163 10.20253531 2.94744587 15.66009998 C2.95171799 16.93435689 2.95599012 18.2086138 2.9603917 19.52148455 C2.9715723 23.05636189 2.95157279 26.5904818 2.92650139 30.12526262 C2.90491536 33.93775264 2.91221549 37.75019971 2.91601276 41.56273365 C2.91863494 48.16747444 2.90294336 54.77196832 2.87482357 61.376647 C2.83419368 70.92586807 2.82116689 80.47496973 2.81488361 90.02426787 C2.80393962 105.51717865 2.77066258 121.00995782 2.72337055 136.50279713 C2.67747768 151.55292063 2.64208444 166.6030084 2.62083149 181.65318775 C2.61951787 182.58082976 2.61820425 183.50847177 2.61685083 184.46422414 C2.61032566 189.1179169 2.60400711 193.77160992 2.59779131 198.4253031 C2.54595503 237.03431667 2.45751529 275.64317991 2.34617329 314.2520647 C-4.58382671 314.2520647 -11.51382671 314.2520647 -18.65382671 314.2520647 C-18.7906814 275.13388876 -18.89687389 236.0157504 -18.96021869 196.89738276 C-18.96772299 192.27985122 -18.97548892 187.66232015 -18.98341656 183.04478931 C-18.98499042 182.12551614 -18.98656428 181.20624296 -18.98818584 180.25911302 C-19.01429877 165.37135777 -19.061609 150.48374144 -19.11674349 135.59606861 C-19.17283871 120.32166586 -19.20617646 105.04733589 -19.21835768 89.77283436 C-19.22659334 80.34641315 -19.25261103 70.92038455 -19.30132551 61.49408419 C-19.33302415 55.03143865 -19.34263121 48.5689963 -19.33483498 42.10627865 C-19.33098914 38.37662634 -19.33691281 34.6476604 -19.36905956 30.91812992 C-19.40366444 26.87387624 -19.39176072 22.83108535 -19.37535381 18.78671741 C-19.39283086 17.60869523 -19.41030791 16.43067304 -19.42831457 15.21695322 C-19.35898351 8.90950583 -18.77610339 5.07021675 -14.33158553 0.44029957 C-9.97930616 -2.6421042 -4.41732011 -2.90945512 0 0 Z " transform="translate(881.653826713562,292.747935295105)" style="fill: #DFDFDF;"/><path d="M0 0 C0.33 0 0.66 0 1 0 C1.09935088 4.30495015 1.17169268 8.60928183 1.21972656 12.91503906 C1.23976332 14.37772252 1.26700104 15.84032666 1.30175781 17.30273438 C1.35063225 19.4129601 1.37304659 21.52212136 1.390625 23.6328125 C1.41157227 24.90012207 1.43251953 26.16743164 1.45410156 27.47314453 C0.91584923 31.65357099 -0.36237331 33.75089643 -3 37 C-6.2518442 39.16789613 -7.12844133 39.24934739 -10.88256359 39.24609566 C-11.89523806 39.25007775 -12.90791252 39.25405985 -13.9512741 39.25816262 C-15.06701963 39.25233693 -16.18276516 39.24651125 -17.33232117 39.24050903 C-18.51503107 39.24221788 -19.69774098 39.24392673 -20.91629058 39.24568737 C-24.20465575 39.24841776 -27.49278428 39.24214564 -30.7811209 39.23213124 C-34.32506857 39.22351132 -37.86900866 39.22641587 -41.41296387 39.22793579 C-47.5549309 39.22898557 -53.69685551 39.2226993 -59.83881187 39.21146011 C-68.71909329 39.19522061 -77.59935415 39.1899987 -86.47964881 39.18748413 C-100.88659066 39.18310459 -115.29350989 39.16978847 -129.70043945 39.15087891 C-143.69718309 39.13252681 -157.69392059 39.11836702 -171.69067383 39.10986328 C-172.55312738 39.10933783 -173.41558093 39.10881239 -174.30416944 39.10827102 C-178.63075409 39.10566098 -182.95733878 39.10313356 -187.28392351 39.10064721 C-223.18929847 39.07990665 -259.09464711 39.04452562 -295 39 C-295 33.06 -295 27.12 -295 21 C-287.98283442 20.07936332 -281.13254892 19.86078619 -274.06004333 19.87974548 C-272.88445754 19.87889106 -271.70887174 19.87803663 -270.49766213 19.87715632 C-267.25713107 19.8758003 -264.01664061 19.87890152 -260.77611434 19.88393438 C-257.27317236 19.8882713 -253.77023212 19.88679016 -250.26728821 19.8860321 C-244.20565282 19.88550892 -238.14402823 19.88863424 -232.08239555 19.89426994 C-223.31839922 19.9024128 -214.55440809 19.90500302 -205.79040838 19.90625793 C-191.56982333 19.90844408 -177.34924404 19.9150923 -163.12866211 19.92456055 C-149.31844105 19.93374598 -135.50822155 19.94082128 -121.69799805 19.94506836 C-120.84608182 19.94533108 -119.9941656 19.94559381 -119.11643373 19.94586449 C-114.84242507 19.94716957 -110.5684164 19.94843327 -106.29440773 19.94967639 C-70.86293434 19.96003538 -35.4314678 19.97771637 0 20 C0 13.4 0 6.8 0 0 Z " transform="translate(1229,655)" style="fill: #BEBFC0;"/><path d="M0 0 C26.73 0 53.46 0 81 0 C82.74928507 11.07880546 84.46480396 21.99766527 85.625 33.125 C85.74617187 34.25164062 85.86734375 35.37828125 85.9921875 36.5390625 C86.21650972 38.62623444 86.43899249 40.71360588 86.65869141 42.80126953 C87.09271591 46.86892977 87.54825221 50.93426993 88 55 C56.98 55 25.96 55 -6 55 C-4.84961331 36.59381295 -2.34517723 18.29238243 0 0 Z " transform="translate(822,1730)" style="fill: #E0E1E1;"/><path d="M0 0 C6.53935694 4.20031755 11.48179245 10.1268598 13.875 17.5625 C15.01216625 27.65154474 13.44292432 36.27257017 7.1875 44.375 C2.24376387 49.69612057 -4.39836654 53.18084637 -11.640625 53.765625 C-21.58951773 53.93617745 -28.83313179 51.52646835 -36.125 44.5625 C-42.35493178 36.51879062 -44.40549446 28.69313757 -43.125 18.5625 C-40.09261369 9.43296685 -35.45798822 3.25172914 -26.91796875 -1.0546875 C-18.73548975 -4.42789039 -7.84661824 -3.91244123 0 0 Z " transform="translate(877.125,650.4375)" style="fill: #060606;"/><path d="M0 0 C35.31 0 70.62 0 107 0 C107 0.33 107 0.66 107 1 C106.07815918 1.00142502 105.15631836 1.00285004 104.20654297 1.00431824 C95.4968259 1.02218635 86.78761451 1.06391275 78.07814026 1.13209057 C73.60101695 1.16630537 69.12423287 1.19146193 64.64697266 1.19555664 C60.32187009 1.19985149 55.99753206 1.22841161 51.67266846 1.27343178 C50.02700258 1.28636906 48.38124504 1.29072786 46.73553467 1.28615379 C34.41198608 1.0475725 34.41198608 1.0475725 24 7 C16.75370775 14.44213799 16.54211615 22.06231475 16.56640625 31.94921875 C16.55854347 33.82272758 16.55854347 33.82272758 16.55052185 35.73408508 C16.54411046 38.37276919 16.54397716 41.01058484 16.55395508 43.64916992 C16.56312404 46.332756 16.55627828 49.01547074 16.53344727 51.69897461 C16.50254612 55.59515341 16.49938397 59.49043606 16.50390625 63.38671875 C16.49267227 64.57150314 16.48143829 65.75628754 16.46986389 66.97697449 C16.55277175 77.03187795 18.1567647 87.10510907 25.4375 94.5625 C26.17871094 95.34753906 26.91992188 96.13257813 27.68359375 96.94140625 C32.09821741 100.864689 36.3007067 102.54723896 42 104 C41.67 104.66 41.34 105.32 41 106 C35.17928378 106.02464638 29.35859766 106.0428343 23.5378418 106.05493164 C21.55606559 106.05997267 19.57429311 106.06680538 17.5925293 106.07543945 C14.75047891 106.08751515 11.90847753 106.09323045 9.06640625 106.09765625 C7.72891075 106.10539818 7.72891075 106.10539818 6.36439514 106.11329651 C4.24259399 106.11349177 2.1208922 106.0621003 0 106 C-1.52734912 104.47265088 -1.12592135 103.11310427 -1.12698364 100.98292542 C-1.12980347 100.1177832 -1.13262329 99.25264099 -1.13552856 98.36128235 C-1.13350433 97.40489365 -1.1314801 96.44850494 -1.12939453 95.46313477 C-1.13114685 94.46158356 -1.13289917 93.46003235 -1.13470459 92.4281311 C-1.13912558 89.09920547 -1.13618402 85.77033247 -1.1328125 82.44140625 C-1.13348552 80.13834116 -1.13445553 77.83527615 -1.13571167 75.5322113 C-1.13718902 70.69749274 -1.13503309 65.8627926 -1.13037109 61.02807617 C-1.12467698 54.81905174 -1.12795058 48.61007055 -1.13394356 42.40104771 C-1.13755088 37.64254936 -1.13640973 32.88406132 -1.13381577 28.12556267 C-1.13314681 25.83573336 -1.13397384 23.54590313 -1.13629532 21.25607491 C-1.13882429 18.05944451 -1.1349776 14.86288487 -1.12939453 11.66625977 C-1.13141876 10.71189529 -1.13344299 9.75753082 -1.13552856 8.77424622 C-1.13270874 7.90628418 -1.12988892 7.03832214 -1.12698364 6.14405823 C-1.12660662 5.38764321 -1.12622959 4.6312282 -1.12584114 3.85189152 C-1 2 -1 2 0 0 Z " transform="translate(809,623)" style="fill: #BBBCBC;"/><path d="M0 0 C26.73 0 53.46 0 81 0 C81 0.33 81 0.66 81 1 C65.82 1 50.64 1 35 1 C33.34671867 7.36265885 33.34671867 7.36265885 32.40234375 13.671875 C32.28427368 14.90176147 32.28427368 14.90176147 32.16381836 16.15649414 C32.05179077 17.44027954 32.05179077 17.44027954 31.9375 18.75 C31.85443604 19.65161865 31.77137207 20.5532373 31.68579102 21.48217773 C31.03526944 28.84644019 30.62059871 36.21527616 30.34155273 43.60253906 C30.31005127 44.38467773 30.2785498 45.16681641 30.24609375 45.97265625 C30.22216553 46.65593994 30.1982373 47.33922363 30.17358398 48.04321289 C30 50 30 50 29 54 C48.14 54 67.28 54 87 54 C87.33 53.01 87.66 52.02 88 51 C88 52.32 88 53.64 88 55 C56.98 55 25.96 55 -6 55 C-4.84961331 36.59381295 -2.34517723 18.29238243 0 0 Z " transform="translate(822,1730)" style="fill: #BBBCBD;"/><path d="M0 0 C1.65 0 3.3 0 5 0 C5.34162681 3.91598818 5.67172425 7.83287182 6 11.75 C6.09539062 12.84183594 6.19078125 13.93367188 6.2890625 15.05859375 C6.89650024 22.39123498 7.11978269 29.64334659 7 37 C7.99 37 8.98 37 10 37 C9.9278125 35.75347656 9.855625 34.50695313 9.78125 33.22265625 C9.16687156 22.12660924 8.90419584 11.11328251 9 0 C18.9 0 28.8 0 39 0 C38.731875 3.17625 38.46375 6.3525 38.1875 9.625 C36.72443618 27.07789462 35.36980169 44.53959446 34 62 C24.43 62 14.86 62 5 62 C3.98864467 58.96593402 3.74176789 56.5448982 3.53515625 53.36328125 C3.4582959 52.23639893 3.38143555 51.1095166 3.30224609 49.94848633 C3.22312988 48.74861084 3.14401367 47.54873535 3.0625 46.3125 C2.53243662 38.6073244 1.95347098 30.96123036 0.875 23.3125 C-0.19699207 15.51543271 -0.18788832 7.84955638 0 0 Z " transform="translate(1069,1667)" style="fill: #F7F7F7;"/><path d="M0 0 C36.63 0 73.26 0 111 0 C111 5.28 111 10.56 111 16 C74.37 16 37.74 16 0 16 C0 10.72 0 5.44 0 0 Z " transform="translate(1032,1510)" style="fill: #FAFAFA;"/><path d="M0 0 C12.54 0 25.08 0 38 0 C38 12.87 38 25.74 38 39 C25.46 39 12.92 39 0 39 C0 26.13 0 13.26 0 0 Z " transform="translate(754,656)" style="fill: #E4E4E3;"/><path d="M0 0 C8.93962085 17.42912694 8.93962085 17.42912694 7.75 23.5625 C6.9921875 25.80859375 6.9921875 25.80859375 6 28 C5.47792969 29.28583984 5.47792969 29.28583984 4.9453125 30.59765625 C4.0255012 32.76961943 3.05045461 34.88889218 2 37 C-5.51089513 37.21729634 -12.85317822 36.38620528 -20.3125 35.5625 C-22.22385742 35.36043945 -22.22385742 35.36043945 -24.17382812 35.15429688 C-33.60886602 34.13037799 -33.60886602 34.13037799 -37 33 C-37 23.43 -37 13.86 -37 4 C-32.69541164 3.42673734 -28.39063992 2.85588382 -24.08496094 2.29101562 C-22.62221207 2.09839558 -21.15964295 1.9044052 -19.69726562 1.70898438 C-17.58770489 1.4273264 -15.47753357 1.15070443 -13.3671875 0.875 C-12.09987793 0.70742187 -10.83256836 0.53984375 -9.52685547 0.3671875 C-6.31692944 0.03299612 -3.22362753 -0.06941863 0 0 Z " transform="translate(1044,1573)" style="fill: #F8F8F8;"/><path d="M0 0 C27.72 0 55.44 0 84 0 C84 4.62 84 9.24 84 14 C56.28 14 28.56 14 0 14 C0 9.38 0 4.76 0 0 Z " transform="translate(1083,378)" style="fill: #030303;"/><path d="M0 0 C0.86236771 -0.00137466 1.72473541 -0.00274933 2.61323547 -0.00416565 C3.55622498 -0.00057037 4.49921448 0.0030249 5.47077942 0.00672913 C6.4660817 0.0065831 7.46138397 0.00643707 8.48684692 0.00628662 C11.78205024 0.0069842 15.07719728 0.01476941 18.37239075 0.02259827 C20.65496795 0.02446299 22.93754555 0.02588664 25.22012329 0.02688599 C31.23217369 0.03070684 37.24419998 0.04053348 43.25624084 0.05158997 C49.3893552 0.06181334 55.52247345 0.0663856 61.65559387 0.07142639 C73.69271384 0.0821561 85.72981592 0.09922738 97.766922 0.12025452 C97.809643 1.78637357 97.80756032 3.45408337 97.766922 5.12025452 C95.8540065 7.03317002 93.01652085 6.24463664 90.47091675 6.25259399 C89.56449936 6.25049423 88.65808197 6.24839447 87.72419739 6.24623108 C86.7745108 6.24809921 85.82482422 6.24996735 84.84635925 6.25189209 C82.77505834 6.25590751 80.70375297 6.25797197 78.6324482 6.25835419 C74.2239078 6.261761 69.81551603 6.28311993 65.40702724 6.30358505 C57.19258228 6.34162302 48.97829113 6.37287681 40.76374817 6.3707428 C35.05653115 6.36995356 29.34985127 6.39341779 23.64277458 6.43262482 C21.47122554 6.44306108 19.2996143 6.44462644 17.12805367 6.43697357 C14.07618373 6.42729804 11.02592248 6.44863912 7.97419739 6.47669983 C7.08599808 6.46650314 6.19779877 6.45630646 5.28268433 6.44580078 C-2.11264603 6.56690354 -8.54584078 8.86864072 -14.15072536 13.81134415 C-19.26161133 19.26374348 -19.81387309 26.57499315 -20.85905457 33.66859436 C-21.41387793 37.30536732 -22.06680029 40.92355328 -22.71012878 44.54554749 C-24.63268581 55.38977439 -26.44231931 66.25360519 -28.233078 77.12025452 C-29.88922458 77.50244219 -31.55764825 77.83420553 -33.233078 78.12025452 C-34.233078 77.12025452 -34.233078 77.12025452 -34.39616394 73.75892639 C-34.32445603 68.3977932 -33.47736908 63.18523712 -32.623703 57.90150452 C-32.45562134 56.84419128 -32.28753967 55.78687805 -32.11436462 54.69752502 C-31.75787706 52.47152121 -31.39797106 50.24606245 -31.03483582 48.02113342 C-30.48516071 44.63309174 -29.95635873 41.24220635 -29.4283905 37.85072327 C-29.07810333 35.67994417 -28.72658175 33.50936383 -28.373703 31.33900452 C-28.21935791 30.33357605 -28.06501282 29.32814758 -27.9059906 28.29225159 C-26.30204048 18.71462627 -22.97364349 11.26901016 -15.233078 5.12025452 C-10.40950399 2.1941894 -5.7095854 -0.00702286 0 0 Z " transform="translate(791.2330780029297,1812.8797454833984)" style="fill: #0A0A0A;"/><path d="M0 0 C4.34545632 2.01811455 7.20074267 4.17034606 9.8359375 8.28125 C11.28513291 12.62883623 11.35339626 16.73753677 10.8359375 21.28125 C9.0859375 24.65625 9.0859375 24.65625 6.8359375 27.28125 C6.2171875 28.02375 5.5984375 28.76625 4.9609375 29.53125 C1.07146848 32.73434214 -2.65735229 33.50828006 -7.6015625 33.28125 C-12.73975153 32.53608262 -15.88272929 30.22952086 -19.1640625 26.28125 C-22.14926507 21.08121971 -22.81352199 17.12638543 -22.1640625 11.28125 C-17.74178891 2.60679026 -9.87808225 -3.2808071 0 0 Z " transform="translate(868.1640625,659.71875)" style="fill: #CACACB;"/><path d="M0 0 C0 7.59 0 15.18 0 23 C-14.38016336 22.37021182 -28.66872759 21.33223922 -43 20 C-43 14.39 -43 8.78 -43 3 C-38.80529793 2.56713148 -34.61052748 2.13814502 -30.41455078 1.71826172 C-28.99278344 1.57489831 -27.57122396 1.42945527 -26.14990234 1.28173828 C-17.40460802 0.37449886 -8.80565306 -0.16562357 0 0 Z " transform="translate(966,1580)" style="fill: #F6F6F6;"/><path d="M0 0 C4.29 0 8.58 0 13 0 C13 20.46 13 40.92 13 62 C8.71 62 4.42 62 0 62 C0 41.54 0 21.08 0 0 Z " transform="translate(980,1560)" style="fill: #FCFCFC;"/><path d="M0 0 C16.83 0 33.66 0 51 0 C51 9 51 9 50 16 C33.83 16 17.66 16 1 16 C0.67 10.72 0.34 5.44 0 0 Z " transform="translate(685,705)" style="fill: #9C9D9E;"/><path d="M0 0 C17.49 0 34.98 0 53 0 C53 4.95 53 9.9 53 15 C35.51 15 18.02 15 0 15 C0 10.05 0 5.1 0 0 Z " transform="translate(685,681)" style="fill: #A7A8A8;"/><path d="M0 0 C17.49 0 34.98 0 53 0 C53 4.95 53 9.9 53 15 C35.51 15 18.02 15 0 15 C0 10.05 0 5.1 0 0 Z " transform="translate(685,657)" style="fill: #A2A2A3;"/><path d="M0 0 C0.66 1.65 1.32 3.3 2 5 C1.12859375 5.44988281 0.2571875 5.89976562 -0.640625 6.36328125 C-18.9629526 16.13398145 -34.04679963 31.59981474 -40.3125 51.8125 C-40.88911621 53.87109813 -41.45158827 55.93370935 -42 58 C-42.33845947 58.9703418 -42.67691895 59.94068359 -43.02563477 60.94042969 C-44.52833046 66.21628412 -44.35693354 71.61184275 -44.4140625 77.05859375 C-44.43342865 78.20288345 -44.4527948 79.34717316 -44.4727478 80.52613831 C-44.5322908 84.16318422 -44.57882812 87.80026221 -44.625 91.4375 C-44.663203 93.91082072 -44.70225608 96.38412846 -44.7421875 98.85742188 C-44.83797156 104.90483233 -44.9230925 110.95232161 -45 117 C-46.98 117 -48.96 117 -51 117 C-51.07665296 110.0990315 -51.12885065 103.19817455 -51.16479492 96.296875 C-51.17979438 93.95373431 -51.20020059 91.61062127 -51.22631836 89.26757812 C-51.26309285 85.88144058 -51.27981537 82.49567722 -51.29296875 79.109375 C-51.30845261 78.07762146 -51.32393646 77.04586792 -51.33988953 75.98284912 C-51.3415614 68.6035524 -50.06077929 62.07137017 -48 55 C-47.54367187 53.34677734 -47.54367187 53.34677734 -47.078125 51.66015625 C-43.07843818 39.11396881 -36.76813451 28.77741618 -28 19 C-27.44828125 18.36578125 -26.8965625 17.7315625 -26.328125 17.078125 C-20.59002841 10.88552571 -8.59741323 0 0 0 Z " transform="translate(1059,175)" style="fill: #131413;"/><path d="M0 0 C16.5 0 33 0 50 0 C50.495 7.425 50.495 7.425 51 15 C34.17 15 17.34 15 0 15 C0 10.05 0 5.1 0 0 Z " transform="translate(686,633)" style="fill: #A2A3A2;"/><path d="M0 0 C12.54 0 25.08 0 38 0 C38 5.94 38 11.88 38 18 C25.46 18 12.92 18 0 18 C0 12.06 0 6.12 0 0 Z " transform="translate(754,677)" style="fill: #BABCBD;"/><path d="M0 0 C15.18 0 30.36 0 46 0 C45 12 45 12 44 15 C29.81 15 15.62 15 1 15 C0.67 10.05 0.34 5.1 0 0 Z " transform="translate(688,730)" style="fill: #A1A2A3;"/><path d="M0 0 C14.85 0 29.7 0 45 0 C45.495 6.93 45.495 6.93 46 14 C30.49 14 14.98 14 -1 14 C-0.67 9.38 -0.34 4.76 0 0 Z " transform="translate(688,610)" style="fill: #A0A1A2;"/><path d="M0 0 C15.18 0 30.36 0 46 0 C46 1.98 46 3.96 46 6 C17.87283505 7.08137752 -10.25878905 7.30292628 -38.40350342 7.53222656 C-44.57957211 7.5833255 -50.75560404 7.63854017 -56.93164062 7.69335938 C-68.95439538 7.79949277 -80.97718264 7.90123123 -93 8 C-93 7.67 -93 7.34 -93 7 C-87.71956359 6.1197774 -82.65830293 5.86179442 -77.31079102 5.88647461 C-76.47096176 5.88632858 -75.63113251 5.88618256 -74.76585388 5.8860321 C-72.01184433 5.88672436 -69.25790387 5.89448437 -66.50390625 5.90234375 C-64.58577003 5.90421037 -62.66763333 5.90563312 -60.74949646 5.90663147 C-55.71732247 5.9104374 -50.68517765 5.92025117 -45.65301514 5.93133545 C-40.51151931 5.94159102 -35.37001874 5.94613796 -30.22851562 5.95117188 C-20.15233098 5.96187525 -10.07616792 5.97892845 0 6 C0 4.02 0 2.04 0 0 Z " transform="translate(1121,419)" style="fill: #1D1E1E;"/><path d="M0 0 C1.98 0 3.96 0 6 0 C6 15.18 6 30.36 6 46 C4.02 46 2.04 46 0 46 C0 30.82 0 15.64 0 0 Z " transform="translate(1008,312)" style="fill: #191919;"/><path d="M0 0 C2.475 0.495 2.475 0.495 5 1 C5 20.14 5 39.28 5 59 C3.68 58.67 2.36 58.34 1 58 C-0.11301242 38.66140922 -0.10788905 19.36193577 0 0 Z " transform="translate(1059,1545)" style="fill: #151515;"/><path d="M0 0 C15.18 0 30.36 0 46 0 C46 1.65 46 3.3 46 5 C30.82 5 15.64 5 0 5 C0 3.35 0 1.7 0 0 Z " transform="translate(1121,401)" style="fill: #080808;"/><path d="M0 0 C7.92 0 15.84 0 24 0 C24 1.98 24 3.96 24 6 C16.08 6 8.16 6 0 6 C0 4.02 0 2.04 0 0 Z " transform="translate(906,1813)" style="fill: #0D0D0D;"/><path d="M0 0 C1.32 0 2.64 0 4 0 C4 5.28 4 10.56 4 16 C2.68 16 1.36 16 0 16 C0 10.72 0 5.44 0 0 Z " transform="translate(1061,1616)" style="fill: #101111;"/><path d="M0 0 C10.23 0 20.46 0 31 0 C31 0.33 31 0.66 31 1 C29.02 1 27.04 1 25 1 C25 1.66 25 2.32 25 3 C16.75 2.34 8.5 1.68 0 1 C0 0.67 0 0.34 0 0 Z " transform="translate(1134,425)" style="fill: #C7C7C7;"/><path d="M0 0 C0.99 0 1.98 0 3 0 C3 1.98 3 3.96 3 6 C2.01 6 1.02 6 0 6 C0 4.02 0 2.04 0 0 Z " transform="translate(1077,1712)" style="fill: #0E1111;"/></svg>