<?xml version="1.0" encoding="UTF-8"?>
<!-- Generator: visioncortex VTracer -->
<svg id="svg" version="1.1" xmlns="http://www.w3.org/2000/svg" style="display: block;" viewBox="0 0 1024 1024"><path d="M0 0 C337.92 0 675.84 0 1024 0 C1024 337.92 1024 675.84 1024 1024 C686.08 1024 348.16 1024 0 1024 C0 686.08 0 348.16 0 0 Z " transform="translate(0,0)" style="fill: #FEFEFE;"/><path d="M0 0 C1.83438387 -0.00390068 3.66876469 -0.00954724 5.50313848 -0.0167709 C10.50462781 -0.03143316 15.50579933 -0.02139957 20.50727808 -0.00703418 C25.91634594 0.00412446 31.32537099 -0.00788308 36.73443604 -0.01687622 C47.31501925 -0.03077718 57.89548275 -0.02327586 68.47606022 -0.00820064 C80.80765815 0.00869773 93.13922658 0.00544439 105.47083252 0.00170528 C127.47866162 -0.00416748 149.48643343 0.0099757 171.49424744 0.03465271 C192.83118949 0.05857466 214.16803656 0.06565506 235.50498962 0.05516052 C258.76221067 0.04374193 282.01939636 0.04183267 305.27661699 0.05625862 C307.75821745 0.0577844 310.23981791 0.05930475 312.72141838 0.06081963 C313.94228855 0.06157744 315.16315873 0.06233525 316.42102497 0.06311603 C325.00925579 0.06785135 333.59747079 0.06601278 342.18570137 0.06175423 C352.65633015 0.05681908 363.12688669 0.06284984 373.59749896 0.08264852 C378.93594971 0.09249544 384.27429065 0.09765374 389.61274719 0.08975601 C394.50609957 0.08266506 399.39923103 0.08958324 404.29255443 0.10735964 C406.05613471 0.11138206 407.81973535 0.11044166 409.58330787 0.10384078 C442.18488859 -0.00767487 468.0484535 16.52106185 495.94468689 31.89060974 C503.54134242 36.0584006 511.22836111 40.04118933 518.93443298 44.00120544 C528.42559969 48.8785507 537.84622735 53.86044781 547.1905365 59.01512146 C554.35337949 62.95097327 561.60233717 66.70443641 568.87193298 70.43870544 C605.25254186 89.19349193 605.25254186 89.19349193 616.43443298 98.50120544 C617.06736267 98.98847107 617.70029236 99.47573669 618.35240173 99.97776794 C628.86892015 109.0317242 633.43951261 125.42722612 636.43443298 138.50120544 C636.43443298 139.82120544 636.43443298 141.14120544 636.43443298 142.50120544 C637.73235779 142.2350946 637.73235779 142.2350946 639.0565033 141.96360779 C649.40661618 139.86494854 659.78617492 137.96961348 670.18443298 136.12620544 C684.35142929 133.62003181 684.35142929 133.62003181 698.48521423 130.93479919 C731.18184012 124.50652 731.18184012 124.50652 743.57896423 131.75511169 C756.63761894 140.91864186 760.89217485 152.92754989 764.37193298 167.87620544 C764.63147263 168.97432053 764.63147263 168.97432053 764.89625549 170.09461975 C787.6163069 266.24299735 787.6163069 266.24299735 773.96177673 292.04808044 C768.19412715 301.31172222 759.24992246 306.64986815 748.83213806 309.47972107 C744.94127359 310.2859294 741.04171926 310.98093924 737.12193298 311.62620544 C735.69821354 311.87507505 734.27479466 312.12566975 732.85166931 312.37791443 C730.02030346 312.87650343 727.18749542 313.36460252 724.35240173 313.84153748 C720.96079098 314.41258261 717.57205053 314.99687714 714.18443298 315.59104919 C710.52542155 316.2320462 706.86519027 316.86518186 703.20396423 317.49339294 C685.48442593 320.52539296 685.48442593 320.52539296 667.86192322 324.06077576 C665.51423617 324.48672642 663.39051305 324.61599739 661.00865173 324.59886169 C660.21265564 324.59563904 659.41665955 324.59241638 658.59654236 324.58909607 C657.77992126 324.58071716 656.96330017 324.57233826 656.12193298 324.56370544 C655.28597595 324.55919373 654.45001892 324.55468201 653.58872986 324.55003357 C651.53726649 324.53831092 649.48584025 324.52037747 647.43443298 324.50120544 C647.26500183 325.03669006 647.09557068 325.57217468 646.92100525 326.12388611 C645.01881646 331.99683852 642.78751046 337.66626858 640.37193298 343.34495544 C639.98394028 344.26427353 639.59594757 345.18359161 639.19619751 346.13076782 C637.94612071 349.08922526 636.69073587 352.04538706 635.43443298 355.00120544 C634.79448898 356.5102092 634.79448898 356.5102092 634.14161682 358.04969788 C631.24882282 364.87097755 628.34453009 371.68729233 625.43443298 378.50120544 C625.11166382 379.25818726 624.78889465 380.01516907 624.4563446 380.79508972 C622.69185387 384.93228717 620.91350402 389.06313721 619.12193298 393.18870544 C618.72167908 394.12198669 618.32142517 395.05526794 617.90904236 396.01683044 C606.52703972 421.95001812 584.6803083 435.09899229 562.13511658 450.63352966 C558.32042959 453.27160194 554.53128212 455.94487107 550.74693298 458.62620544 C544.65623544 462.9372773 538.55000253 467.22548698 532.43443298 471.50120544 C526.25757243 475.82023509 520.08886284 480.15027152 513.93443298 484.50120544 C501.11092629 493.56335239 488.26170934 502.58744897 475.30357361 511.45628357 C471.18790749 514.27880988 467.10282288 517.14111981 463.03330994 520.0297699 C440.03927504 536.34870374 422.26160693 545.99779577 393.43743896 545.88215637 C391.54403451 545.88561889 389.65063207 545.89038742 387.7572338 545.89633811 C382.58812504 545.9087958 377.41918366 545.90270167 372.25007451 545.89337945 C366.66245302 545.88656792 361.07485951 545.8970805 355.48724365 545.90531921 C344.55528963 545.91863554 333.62339751 545.9157884 322.6914411 545.90708129 C313.80599431 545.90029792 304.92056483 545.89939085 296.0351162 545.90265274 C294.76907356 545.90311244 293.50303092 545.90357214 292.19862336 545.90404577 C289.62648187 545.90500497 287.05434039 545.90597761 284.48219892 545.90696354 C261.06995588 545.91526751 237.6577525 545.90666646 214.24551716 545.89093575 C192.88830504 545.87669494 171.53114659 545.87797842 150.17393494 545.89231873 C126.15498631 545.90839252 102.1360712 545.91469223 78.1171152 545.90548193 C75.55551096 545.90452631 72.99390672 545.90358319 70.43230247 545.90265274 C69.17201763 545.90218991 67.91173279 545.90172709 66.6132575 545.90125024 C57.73859187 545.8986616 48.86394529 545.90302852 39.98928261 545.9100914 C29.17416381 545.91850965 18.35911032 545.91621916 7.54399899 545.90024917 C2.02770155 545.89237165 -3.48848703 545.88926618 -9.00478363 545.89919662 C-14.05714812 545.90815432 -19.10930311 545.90319285 -24.16164867 545.88726397 C-25.98644539 545.8839208 -27.81125991 545.88559975 -29.63604512 545.89289133 C-46.17250093 545.95388559 -61.18146007 543.71671095 -73.87806702 532.00120544 C-82.58045111 522.48072821 -86.42526108 511.77564893 -88.06556702 499.18870544 C-88.34557556 497.27468933 -88.34557556 497.27468933 -88.63124084 495.32200623 C-89.05684563 492.4104429 -89.46615421 489.49713542 -89.86488342 486.58177185 C-90.66661282 480.73164125 -91.5135026 474.88818037 -92.35853577 469.04417419 C-93.73383082 459.51442036 -95.09031228 449.98217043 -96.4294281 440.44726562 C-97.14069412 435.40678943 -97.89469738 430.37768534 -98.71009827 425.35276794 C-100.40344285 414.41971701 -100.71371209 403.49221389 -100.70600891 392.44587708 C-100.70860011 391.07718722 -100.71161533 389.70849811 -100.71501231 388.33981001 C-100.72299586 384.6164935 -100.72486697 380.89319634 -100.72560978 377.16987228 C-100.72747537 373.13985438 -100.73502964 369.10984618 -100.741745 365.07983398 C-100.75526293 356.28882464 -100.76134158 347.49781989 -100.76575565 338.70680189 C-100.76852683 333.21249388 -100.7727655 327.7181876 -100.77725983 322.22388077 C-100.78943946 306.99335783 -100.79974424 291.76283628 -100.80313492 276.53230858 C-100.80335448 275.55975301 -100.80357405 274.58719744 -100.80380027 273.58517049 C-100.80401855 272.61039805 -100.80423683 271.63562562 -100.80446172 270.63131464 C-100.80490517 268.65630428 -100.80535174 266.68129392 -100.80580139 264.70628357 C-100.80602282 263.72662701 -100.80624425 262.74697046 -100.80647239 261.73762734 C-100.81042429 245.8479086 -100.8278961 229.9582356 -100.85116091 214.06853454 C-100.87488683 197.73147877 -100.88733718 181.39444596 -100.88850284 165.05737269 C-100.88941842 155.89380241 -100.8951421 146.73029191 -100.91332245 137.56673813 C-100.92873954 129.76908615 -100.93383406 121.97151247 -100.92558435 114.17384814 C-100.92168477 110.19876296 -100.9225738 106.22383542 -100.93664169 102.24876976 C-100.94942075 98.60452145 -100.94814836 94.96054861 -100.93605098 91.31630047 C-100.93318282 89.38545376 -100.94499875 87.45460212 -100.95747304 85.52379358 C-100.86095043 68.43217319 -95.02364843 56.00994132 -83.11878967 44.02903748 C-79.4820379 40.4517359 -75.73985844 36.99582336 -71.95228577 33.57933044 C-69.62589474 31.48051381 -67.34339586 29.34498128 -65.08509827 27.17308044 C-57.70205319 20.10069537 -50.25287226 13.93077122 -41.56556702 8.50120544 C-40.88494202 8.07323669 -40.20431702 7.64526794 -39.50306702 7.20433044 C-27.26884643 0.34894822 -13.60858609 -0.080916 0 0 Z " transform="translate(176.56556701660156,244.49879455566406)" style="fill: #85CEE9;"/><path d="M0 0 C1.83438387 -0.00390068 3.66876469 -0.00954724 5.50313848 -0.0167709 C10.50462781 -0.03143316 15.50579933 -0.02139957 20.50727808 -0.00703418 C25.91634594 0.00412446 31.32537099 -0.00788308 36.73443604 -0.01687622 C47.31501925 -0.03077718 57.89548275 -0.02327586 68.47606022 -0.00820064 C80.80765815 0.00869773 93.13922658 0.00544439 105.47083252 0.00170528 C127.47866162 -0.00416748 149.48643343 0.0099757 171.49424744 0.03465271 C192.83118949 0.05857466 214.16803656 0.06565506 235.50498962 0.05516052 C258.76221067 0.04374193 282.01939636 0.04183267 305.27661699 0.05625862 C307.75821745 0.0577844 310.23981791 0.05930475 312.72141838 0.06081963 C313.94228855 0.06157744 315.16315873 0.06233525 316.42102497 0.06311603 C325.00925579 0.06785135 333.59747079 0.06601278 342.18570137 0.06175423 C352.65633015 0.05681908 363.12688669 0.06284984 373.59749896 0.08264852 C378.93594971 0.09249544 384.27429065 0.09765374 389.61274719 0.08975601 C394.50609957 0.08266506 399.39923103 0.08958324 404.29255443 0.10735964 C406.05613471 0.11138206 407.81973535 0.11044166 409.58330787 0.10384078 C442.18488859 -0.00767487 468.0484535 16.52106185 495.94468689 31.89060974 C503.54134242 36.0584006 511.22836111 40.04118933 518.93443298 44.00120544 C528.42559969 48.8785507 537.84622735 53.86044781 547.1905365 59.01512146 C554.35337949 62.95097327 561.60233717 66.70443641 568.87193298 70.43870544 C605.25254186 89.19349193 605.25254186 89.19349193 616.43443298 98.50120544 C617.06736267 98.98847107 617.70029236 99.47573669 618.35240173 99.97776794 C628.86892015 109.0317242 633.43951261 125.42722612 636.43443298 138.50120544 C636.43443298 139.82120544 636.43443298 141.14120544 636.43443298 142.50120544 C637.73235779 142.2350946 637.73235779 142.2350946 639.0565033 141.96360779 C649.40661618 139.86494854 659.78617492 137.96961348 670.18443298 136.12620544 C684.35142929 133.62003181 684.35142929 133.62003181 698.48521423 130.93479919 C731.18184012 124.50652 731.18184012 124.50652 743.57896423 131.75511169 C756.63761894 140.91864186 760.89217485 152.92754989 764.37193298 167.87620544 C764.63147263 168.97432053 764.63147263 168.97432053 764.89625549 170.09461975 C787.6163069 266.24299735 787.6163069 266.24299735 773.96177673 292.04808044 C768.19412715 301.31172222 759.24992246 306.64986815 748.83213806 309.47972107 C744.94127359 310.2859294 741.04171926 310.98093924 737.12193298 311.62620544 C735.69821354 311.87507505 734.27479466 312.12566975 732.85166931 312.37791443 C730.02030346 312.87650343 727.18749542 313.36460252 724.35240173 313.84153748 C720.96079098 314.41258261 717.57205053 314.99687714 714.18443298 315.59104919 C710.52542155 316.2320462 706.86519027 316.86518186 703.20396423 317.49339294 C685.48442593 320.52539296 685.48442593 320.52539296 667.86192322 324.06077576 C665.51423617 324.48672642 663.39051305 324.61599739 661.00865173 324.59886169 C660.21265564 324.59563904 659.41665955 324.59241638 658.59654236 324.58909607 C657.77992126 324.58071716 656.96330017 324.57233826 656.12193298 324.56370544 C655.28597595 324.55919373 654.45001892 324.55468201 653.58872986 324.55003357 C651.53726649 324.53831092 649.48584025 324.52037747 647.43443298 324.50120544 C647.26500183 325.03669006 647.09557068 325.57217468 646.92100525 326.12388611 C645.01881646 331.99683852 642.78751046 337.66626858 640.37193298 343.34495544 C639.98394028 344.26427353 639.59594757 345.18359161 639.19619751 346.13076782 C637.94612071 349.08922526 636.69073587 352.04538706 635.43443298 355.00120544 C634.79448898 356.5102092 634.79448898 356.5102092 634.14161682 358.04969788 C631.24882282 364.87097755 628.34453009 371.68729233 625.43443298 378.50120544 C625.11166382 379.25818726 624.78889465 380.01516907 624.4563446 380.79508972 C622.69185387 384.93228717 620.91350402 389.06313721 619.12193298 393.18870544 C618.72167908 394.12198669 618.32142517 395.05526794 617.90904236 396.01683044 C606.52703972 421.95001812 584.6803083 435.09899229 562.13511658 450.63352966 C558.32042959 453.27160194 554.53128212 455.94487107 550.74693298 458.62620544 C544.65623544 462.9372773 538.55000253 467.22548698 532.43443298 471.50120544 C526.25757243 475.82023509 520.08886284 480.15027152 513.93443298 484.50120544 C501.11092629 493.56335239 488.26170934 502.58744897 475.30357361 511.45628357 C471.18790749 514.27880988 467.10282288 517.14111981 463.03330994 520.0297699 C440.03927504 536.34870374 422.26160693 545.99779577 393.43743896 545.88215637 C391.54403451 545.88561889 389.65063207 545.89038742 387.7572338 545.89633811 C382.58812504 545.9087958 377.41918366 545.90270167 372.25007451 545.89337945 C366.66245302 545.88656792 361.07485951 545.8970805 355.48724365 545.90531921 C344.55528963 545.91863554 333.62339751 545.9157884 322.6914411 545.90708129 C313.80599431 545.90029792 304.92056483 545.89939085 296.0351162 545.90265274 C294.76907356 545.90311244 293.50303092 545.90357214 292.19862336 545.90404577 C289.62648187 545.90500497 287.05434039 545.90597761 284.48219892 545.90696354 C261.06995588 545.91526751 237.6577525 545.90666646 214.24551716 545.89093575 C192.88830504 545.87669494 171.53114659 545.87797842 150.17393494 545.89231873 C126.15498631 545.90839252 102.1360712 545.91469223 78.1171152 545.90548193 C75.55551096 545.90452631 72.99390672 545.90358319 70.43230247 545.90265274 C69.17201763 545.90218991 67.91173279 545.90172709 66.6132575 545.90125024 C57.73859187 545.8986616 48.86394529 545.90302852 39.98928261 545.9100914 C29.17416381 545.91850965 18.35911032 545.91621916 7.54399899 545.90024917 C2.02770155 545.89237165 -3.48848703 545.88926618 -9.00478363 545.89919662 C-14.05714812 545.90815432 -19.10930311 545.90319285 -24.16164867 545.88726397 C-25.98644539 545.8839208 -27.81125991 545.88559975 -29.63604512 545.89289133 C-46.17250093 545.95388559 -61.18146007 543.71671095 -73.87806702 532.00120544 C-82.58045111 522.48072821 -86.42526108 511.77564893 -88.06556702 499.18870544 C-88.34557556 497.27468933 -88.34557556 497.27468933 -88.63124084 495.32200623 C-89.05684563 492.4104429 -89.46615421 489.49713542 -89.86488342 486.58177185 C-90.66661282 480.73164125 -91.5135026 474.88818037 -92.35853577 469.04417419 C-93.73383082 459.51442036 -95.09031228 449.98217043 -96.4294281 440.44726562 C-97.14069412 435.40678943 -97.89469738 430.37768534 -98.71009827 425.35276794 C-100.40344285 414.41971701 -100.71371209 403.49221389 -100.70600891 392.44587708 C-100.70860011 391.07718722 -100.71161533 389.70849811 -100.71501231 388.33981001 C-100.72299586 384.6164935 -100.72486697 380.89319634 -100.72560978 377.16987228 C-100.72747537 373.13985438 -100.73502964 369.10984618 -100.741745 365.07983398 C-100.75526293 356.28882464 -100.76134158 347.49781989 -100.76575565 338.70680189 C-100.76852683 333.21249388 -100.7727655 327.7181876 -100.77725983 322.22388077 C-100.78943946 306.99335783 -100.79974424 291.76283628 -100.80313492 276.53230858 C-100.80335448 275.55975301 -100.80357405 274.58719744 -100.80380027 273.58517049 C-100.80401855 272.61039805 -100.80423683 271.63562562 -100.80446172 270.63131464 C-100.80490517 268.65630428 -100.80535174 266.68129392 -100.80580139 264.70628357 C-100.80602282 263.72662701 -100.80624425 262.74697046 -100.80647239 261.73762734 C-100.81042429 245.8479086 -100.8278961 229.9582356 -100.85116091 214.06853454 C-100.87488683 197.73147877 -100.88733718 181.39444596 -100.88850284 165.05737269 C-100.88941842 155.89380241 -100.8951421 146.73029191 -100.91332245 137.56673813 C-100.92873954 129.76908615 -100.93383406 121.97151247 -100.92558435 114.17384814 C-100.92168477 110.19876296 -100.9225738 106.22383542 -100.93664169 102.24876976 C-100.94942075 98.60452145 -100.94814836 94.96054861 -100.93605098 91.31630047 C-100.93318282 89.38545376 -100.94499875 87.45460212 -100.95747304 85.52379358 C-100.86095043 68.43217319 -95.02364843 56.00994132 -83.11878967 44.02903748 C-79.4820379 40.4517359 -75.73985844 36.99582336 -71.95228577 33.57933044 C-69.62589474 31.48051381 -67.34339586 29.34498128 -65.08509827 27.17308044 C-57.70205319 20.10069537 -50.25287226 13.93077122 -41.56556702 8.50120544 C-40.88494202 8.07323669 -40.20431702 7.64526794 -39.50306702 7.20433044 C-27.26884643 0.34894822 -13.60858609 -0.080916 0 0 Z M-45.56556702 42.50120544 C-47.17057684 43.99001317 -48.78012202 45.4737932 -50.39051819 46.95677185 C-51.50610928 47.98537253 -52.61956241 49.01629689 -53.73085022 50.04954529 C-57.11494811 53.19238764 -60.56887231 56.23322489 -64.06556702 59.25120544 C-70.84629104 65.349454 -75.14009928 72.06345358 -75.75227225 81.32624209 C-75.8267662 84.87072267 -75.83679397 88.41036264 -75.82626343 91.95562744 C-75.82928613 93.33222733 -75.8331762 94.70882554 -75.83785599 96.08542079 C-75.84812965 99.85845393 -75.84595579 103.63139198 -75.8416754 107.40443289 C-75.839207 111.47748755 -75.8482238 115.55051939 -75.85571289 119.62356567 C-75.86845913 127.59966777 -75.87025364 135.57573621 -75.86791263 143.55184678 C-75.86612908 150.03615207 -75.86787989 156.52044714 -75.87213707 163.00475121 C-75.87273226 163.9278862 -75.87332745 164.8510212 -75.87394067 165.80212998 C-75.87515244 167.67753993 -75.87636657 169.55294988 -75.87758305 171.42835983 C-75.88845848 189.01460621 -75.88629619 206.60083342 -75.8801982 224.18708088 C-75.87503008 240.26862222 -75.88628173 256.35010297 -75.90529642 272.43163232 C-75.92467814 288.95042922 -75.93293017 305.46919747 -75.92917317 321.98800582 C-75.9272615 331.25949865 -75.92974529 340.53093993 -75.94388771 349.80242348 C-75.95580678 357.69614114 -75.95720055 365.5897755 -75.94509754 373.48349432 C-75.93921232 377.50904066 -75.93809948 381.53443469 -75.95009995 385.55997086 C-75.96097049 389.24943874 -75.95784165 392.93862736 -75.94383826 396.62808224 C-75.93994787 398.58579603 -75.95072894 400.54352227 -75.96213514 402.5012067 C-75.88732325 414.74102634 -73.01877118 425.04015821 -64.88978577 434.43870544 C-51.20263665 447.56898982 -34.66632357 448.80424681 -16.7396698 448.76190186 C-14.9246778 448.7649251 -13.10968708 448.76881545 -11.2946986 448.77349442 C-6.32374491 448.78376081 -1.35286346 448.78159606 3.61809611 448.77731383 C8.9856244 448.77484415 14.35313541 448.78386376 19.72065735 448.79135132 C30.22969736 448.80409346 40.73871182 448.80589262 51.24775825 448.80355106 C59.79051711 448.80176725 68.33326822 448.80351887 76.87602615 448.8077755 C78.70053521 448.80866828 78.70053521 448.80866828 80.56190304 448.8095791 C83.03297892 448.81079086 85.50405481 448.812005 87.97513069 448.81322148 C111.1430052 448.82409508 134.31086514 448.82193533 157.47874047 448.81583663 C178.66729001 448.81066722 199.85579359 448.82192389 221.04433404 448.84093485 C242.80875176 448.86031259 264.57314772 448.86856939 286.33757412 448.8648116 C298.55343776 448.86289951 310.76926227 448.86538791 322.98511887 448.87952614 C333.38418555 448.89144003 343.78318901 448.89284465 354.18225656 448.88073597 C359.48600167 448.8748475 364.78963113 448.87374711 370.09336853 448.88573837 C374.95288207 448.89659747 379.81218341 448.89349339 384.67168702 448.87947669 C386.42529112 448.87682986 388.17891186 448.87919583 389.93249963 448.88721255 C410.04678008 448.97275111 422.99778083 443.65435975 439.05723572 431.8681488 C444.99465737 427.51217573 451.02482197 423.31778222 457.12193298 419.18870544 C467.65431788 412.04785545 478.10728886 404.79806573 488.5433197 397.51731873 C493.3373116 394.17423605 498.13606124 390.83799715 502.93443298 387.50120544 C508.73303011 383.46851553 514.53079685 379.43465499 520.32505798 375.39573669 C529.17233329 369.23087996 538.0267813 363.07859109 546.93443298 357.00120544 C562.88485692 346.11814366 578.69797583 335.03514303 594.50865173 323.95042419 C597.90263313 321.57157958 601.30164933 319.20014611 604.70396423 316.83323669 C609.62661537 313.40681962 614.53466709 309.96024982 619.43443298 306.50120544 C620.08009216 306.04842224 620.72575134 305.59563904 621.39097595 305.12913513 C631.50539051 298.05436148 631.50539051 298.05436148 637.43443298 287.50120544 C638.79432693 272.17285604 636.50473669 257.45488182 633.43443298 242.50120544 C633.04558768 240.551012 632.65678063 238.60081075 632.26899719 236.65040588 C628.73301968 218.90514861 624.85713352 201.244936 620.82008362 183.60710144 C619.64058815 178.43920152 618.49428422 173.26432827 617.35630798 168.08714294 C617.1803862 167.28837738 617.00446442 166.48961182 616.82321167 165.66664124 C615.41771014 159.2843354 615.41771014 159.2843354 614.75453186 156.24320984 C613.0760523 148.54860452 611.33930763 140.87481616 609.36021423 133.25120544 C609.05382019 132.07042419 608.74742615 130.88964294 608.43174744 129.67308044 C604.8306787 118.22018326 595.95094478 112.7836759 585.76255798 107.39573669 C583.73982731 106.3618892 581.71364212 105.33477856 579.68443298 104.31370544 C577.4582458 103.17489031 575.23300176 102.03422979 573.00865173 100.89183044 C571.90183044 100.32399841 570.79500916 99.75616638 569.65464783 99.17112732 C564.89730573 96.70409018 560.19358759 94.14397164 555.49693298 91.56370544 C553.68839387 90.57141835 551.87979936 89.57923223 550.07115173 88.58714294 C549.15640076 88.08537537 548.24164978 87.58360779 547.29917908 87.06663513 C538.84295964 82.44576595 530.34614229 77.89920261 521.85679626 73.33958435 C518.95339553 71.77997474 516.05069341 70.21907385 513.14820862 68.65776062 C500.72675912 61.97782181 488.27970104 55.35346786 475.75865173 48.86155701 C469.04063328 45.36771431 462.38520347 41.76900721 455.74693298 38.12620544 C447.18956601 33.43310992 447.18956601 33.43310992 438.55943298 28.87620544 C437.73701111 28.45081482 436.91458923 28.02542419 436.06724548 27.58714294 C429.96760352 25.07126688 424.148307 24.20455818 417.59072304 24.24672985 C416.83991545 24.24352337 416.08910787 24.24031689 415.31554854 24.23701325 C412.80949433 24.22873765 410.30368063 24.23462892 407.79762268 24.24050903 C405.97880661 24.23748724 404.15999181 24.23359762 402.34117925 24.22891647 C397.35044421 24.21863139 392.35978096 24.2208196 387.36904001 24.22509706 C381.98379141 24.22756334 376.59856014 24.21855134 371.21331787 24.21105957 C360.66590597 24.19830791 350.11851952 24.19651946 339.5711012 24.19885983 C330.998243 24.2006426 322.42539253 24.19889423 313.85253525 24.19463539 C312.63257209 24.1940402 311.41260893 24.19344501 310.15567719 24.19283179 C307.67734977 24.19162004 305.19902236 24.19040591 302.72069494 24.18918941 C279.47706391 24.17831211 256.23344737 24.18047729 232.98981552 24.18657426 C211.72542271 24.19174377 190.4610757 24.18048739 169.19669195 24.16147604 C147.36228645 24.1421047 125.52790263 24.13384039 103.69348848 24.13759929 C91.43518147 24.13951238 79.17691344 24.13701325 66.91861343 24.12288475 C56.48320933 24.11097899 46.04786821 24.10955707 35.61246325 24.12167492 C30.28872733 24.12756917 24.96510668 24.12864784 19.6413784 24.11667252 C14.76585285 24.10583287 9.89053908 24.10889432 5.01502351 24.1229342 C3.2533199 24.1255864 1.4915998 24.1231982 -0.27008764 24.11519834 C-19.76361664 24.03283724 -31.37221132 29.06784129 -45.56556702 42.50120544 Z " transform="translate(176.56556701660156,244.49879455566406)" style="fill: #232E3B;"/><path d="M0 0 C0.71528707 -0.00380567 1.43057415 -0.00761134 2.16753659 -0.01153234 C4.55879601 -0.02181966 6.94981679 -0.01794728 9.34109211 -0.01409245 C11.07512449 -0.0185464 12.80915483 -0.02386096 14.54318219 -0.02996117 C19.30427767 -0.04413265 24.06530783 -0.04580462 28.82642138 -0.04536426 C33.96292222 -0.04701321 39.09939622 -0.06008117 44.23588276 -0.07155704 C55.46525431 -0.09439977 66.69460696 -0.10232681 77.92399859 -0.10738349 C84.936927 -0.11064122 91.94984992 -0.11716415 98.96277523 -0.12438488 C118.38358063 -0.14394952 137.80438094 -0.16035464 157.22519684 -0.16326141 C158.46779658 -0.16344898 159.71039633 -0.16363655 160.99065061 -0.16382981 C163.50964661 -0.16419606 166.02864262 -0.16455975 168.54763862 -0.16492092 C170.42326057 -0.16519514 170.42326057 -0.16519514 172.33677387 -0.16547489 C173.58871646 -0.16565544 174.84065904 -0.16583599 176.13053928 -0.16602201 C196.4172284 -0.16956378 216.70381138 -0.19658702 236.9904637 -0.23397278 C257.82365756 -0.27205822 278.65679875 -0.29141891 299.4900282 -0.29172093 C311.18506673 -0.29230542 322.87997863 -0.3007928 334.57498455 -0.32971859 C344.53314993 -0.35423552 354.49114247 -0.36151314 364.44932988 -0.34647106 C369.52833495 -0.33930365 374.60699876 -0.34015266 379.68596554 -0.36288166 C384.34033081 -0.38351063 388.9940933 -0.38083468 393.64845232 -0.36000682 C395.32745405 -0.35651944 397.00649963 -0.36138993 398.6854439 -0.37571125 C408.62988099 -0.45503419 416.61042249 0.55087952 425.59727192 5.26006222 C426.24652596 5.56966226 426.89578 5.8792623 427.56470841 6.19824415 C429.17329426 6.96678374 430.75750266 7.78576084 432.33945942 8.60771847 C434.07401386 9.50587276 434.07401386 9.50587276 435.84360981 10.42217159 C437.0533123 11.05535159 438.26286284 11.68882197 439.47227192 12.32256222 C440.75661765 12.99133202 442.04104277 13.65994936 443.3255434 14.32842159 C452.59351692 19.1627669 461.78579399 24.12887228 470.94492817 29.16631222 C477.46803555 32.74918114 484.03307609 36.25330396 490.59727192 39.76006222 C499.92582902 44.7461482 509.23475204 49.76606841 518.51353168 54.84429073 C524.16581685 57.93728495 529.83024103 61.00660421 535.50303364 64.06182003 C539.51874749 66.22845578 543.52706836 68.40848308 547.53330708 70.59258175 C549.61931424 71.72783505 551.70762782 72.85885827 553.79795551 73.98613644 C556.94738894 75.68823576 560.08571797 77.40936801 563.22227192 79.13506222 C564.1760976 79.64609493 565.12992329 80.15712765 566.11265278 80.6836462 C572.28440631 84.11215116 577.7471292 87.55875449 580.42393208 94.36064816 C581.11198605 96.79369072 581.62452045 99.21371541 582.09727192 101.69756222 C582.29538471 102.64437862 582.49349751 103.59119503 582.69761372 104.56670284 C584.65860866 114.10347482 586.39250303 123.68958835 588.14268208 133.2671423 C589.57288132 141.05216881 591.10687639 148.8076329 592.75742817 156.54912472 C592.94112461 157.41124569 593.12482105 158.27336666 593.31408405 159.16161251 C594.21831234 163.39202664 595.13262898 167.620048 596.057477 171.84599972 C596.39113984 173.39285631 596.72472131 174.93973045 597.05820942 176.48662472 C597.21415073 177.18526638 597.37009205 177.88390804 597.53075886 178.60372066 C598.37770269 182.55693163 598.75185887 186.21961457 598.59727192 190.26006222 C571.48063935 202.2632816 543.8156106 211.45100135 514.80332661 217.57842159 C512.03157752 218.16772432 509.27129646 218.79029355 506.51133442 219.43193722 C479.11246591 225.60293119 450.22349249 227.48086103 422.22227192 227.44756222 C421.28107502 227.44695797 420.33987812 227.44635372 419.3701601 227.44573116 C373.73886509 227.36672261 329.91556107 220.92075254 285.72227192 209.69756222 C283.27284721 209.08136223 280.82338364 208.46531673 278.37388325 207.84941769 C263.2929418 204.04145723 248.27428463 200.03673443 233.28477192 195.88506222 C200.64448093 186.85547352 167.99221535 179.68899228 134.34727192 175.51006222 C133.42091938 175.39428829 132.49456684 175.27851437 131.54014301 175.15923214 C115.18143137 173.26392766 98.73464888 173.02162628 82.28477192 173.01006222 C81.27936359 173.00905514 80.27395527 173.00804806 79.23808002 173.00701046 C62.497298 173.01828706 46.18039906 173.81764617 29.59727192 176.26006222 C28.5610268 176.40991573 27.52478168 176.55976925 26.4571352 176.71416378 C19.47489982 177.74816248 12.53237003 178.94832871 5.59727192 180.26006222 C4.59857075 180.44826534 3.59986958 180.63646847 2.57090473 180.83037472 C-9.33117491 183.10973884 -21.02173653 185.80125192 -32.630023 189.29277706 C-33.4341563 189.53463741 -34.2382896 189.77649776 -35.06679058 190.02568722 C-35.76240093 190.23999386 -36.45801128 190.4543005 -37.17470074 190.67510128 C-39.89333948 191.38887056 -42.62938523 191.81078192 -45.40272808 192.26006222 C-45.4728124 171.63268596 -45.52571345 151.00532933 -45.5581646 130.37785816 C-45.57363279 120.8001409 -45.59472142 111.22249762 -45.62904644 101.64482784 C-45.65895023 93.29682908 -45.67830343 84.9488839 -45.68499357 76.60083306 C-45.68890416 72.180686 -45.69809363 67.76069222 -45.71991825 63.34059429 C-45.74029886 59.1791851 -45.7465587 55.01799218 -45.74205112 50.85653782 C-45.74287562 49.33034178 -45.74883197 47.80413841 -45.76034451 46.27798557 C-45.77531379 44.19100762 -45.77166622 42.10484171 -45.76349163 40.0178442 C-45.76625701 38.85085428 -45.76902239 37.68386436 -45.77187157 36.48151112 C-45.0446928 30.13555266 -41.93641232 26.49150084 -37.40272808 22.26006222 C-36.12965768 20.97060035 -34.8590209 19.67873332 -33.59022808 18.38506222 C-23.47944418 8.29328355 -15.02365802 0.02308355 0 0 Z " transform="translate(178.4027280807495,298.7399377822876)" style="fill: #E9F6FC;"/><path d="M0 0 C1.12101908 -0.00307895 1.12101908 -0.00307895 2.264685 -0.0062201 C4.77696662 -0.01188895 7.2891934 -0.01043299 9.80148029 -0.00901413 C11.61770625 -0.01159783 13.43393163 -0.014611 15.25015622 -0.01801753 C20.24765024 -0.02609019 25.24512989 -0.02787725 30.24262965 -0.028615 C35.62997201 -0.03046508 41.01730691 -0.03801219 46.40464497 -0.04475021 C58.18770137 -0.05833586 69.97075438 -0.06435859 81.75381732 -0.06876087 C89.11011213 -0.07152285 96.46640563 -0.07576011 103.82269955 -0.08026505 C124.18704839 -0.09245791 144.55139618 -0.10275726 164.9157486 -0.10614014 C166.21927393 -0.1063597 167.52279927 -0.10657927 168.86582537 -0.10680549 C170.17248234 -0.10702377 171.47913931 -0.10724204 172.82539195 -0.10746694 C175.47320855 -0.1079104 178.12102515 -0.10835697 180.76884174 -0.10880661 C182.08225225 -0.10902804 183.39566275 -0.10924947 184.74887357 -0.10947761 C206.03285547 -0.11342598 227.31679852 -0.13088113 248.60076805 -0.15416613 C270.44863575 -0.17787528 292.29648627 -0.19034179 314.14436704 -0.19150805 C326.41278275 -0.19242505 338.68115387 -0.19818355 350.9495573 -0.21632767 C361.39600916 -0.23172272 371.84240264 -0.23685261 382.28886368 -0.22858956 C387.61865759 -0.224681 392.9483339 -0.22562283 398.27811337 -0.23964691 C403.15930479 -0.25237318 408.04029009 -0.25119942 412.92148117 -0.2390562 C414.68529535 -0.23709701 416.44912407 -0.24018789 418.21291783 -0.24890056 C430.18527212 -0.30428633 439.74670183 0.87720715 450.50980854 6.50252151 C451.12376484 6.82069336 451.73772114 7.1388652 452.37028217 7.46667862 C454.34326398 8.49221955 456.309383 9.53017042 458.27543354 10.56892776 C459.66284644 11.29391508 461.05054544 12.01835515 462.43851948 12.74226761 C471.13951236 17.2924677 479.77988198 21.94987546 488.3779726 26.6917305 C495.53220362 30.62655756 502.76734719 34.39218221 510.02543354 38.13142776 C520.07736444 43.31327273 530.03951784 48.63231231 539.95121479 54.07674026 C546.04071956 57.42123511 552.15674361 60.7157076 558.27543354 64.00642776 C559.89119282 64.8766658 559.89119282 64.8766658 561.5395937 65.76448441 C566.62211528 68.50055883 571.70744127 71.23105503 576.80219746 73.94429398 C578.55801239 74.87979824 580.31272276 75.81737463 582.06742573 76.75496292 C584.25496113 77.92359882 586.44428253 79.08890077 588.6357851 80.25008011 C602.64951057 87.74731076 612.4598256 93.05280817 617.48808002 108.61409378 C619.3990716 115.09365499 620.86807732 121.6663522 622.33793354 128.25642776 C622.68603009 129.79722848 623.03425873 131.33799936 623.38261127 132.87874222 C626.04903971 144.73496929 628.52827429 156.62719928 630.94389057 168.5367012 C632.94256525 178.38086227 635.04678404 188.19782614 637.21293354 198.00642776 C639.16719477 206.86974463 641.10719371 215.73390588 642.90043354 224.63142776 C643.13379414 225.77780716 643.13379414 225.77780716 643.37186909 226.94734573 C645.04171022 235.36624746 645.75031025 243.55602866 645.83793354 252.13142776 C645.86693745 253.07759964 645.89594135 254.02377151 645.92582417 254.99861526 C645.9914839 262.29189643 644.90170966 267.56424827 639.79398823 272.96077347 C635.09019441 277.24211645 629.87237548 280.80018624 624.58793354 284.31892776 C622.89971817 285.4584937 621.21223219 286.59914084 619.52543354 287.74080276 C618.68496479 288.3086348 617.84449604 288.87646683 616.97855854 289.46150589 C613.31732968 291.95382331 609.69997864 294.50605287 606.08793354 297.06892776 C604.68565152 298.06250447 603.28330693 299.05599288 601.88090229 300.04939651 C601.17240131 300.55132523 600.46390034 301.05325394 599.73392963 301.57039261 C580.77020534 314.97455502 561.71043971 328.25115161 542.5239687 341.33430862 C535.91040311 345.85117969 529.34912993 350.44062102 522.79423237 355.0420723 C517.72333902 358.59967276 512.63606161 362.13117484 507.52543354 365.63142776 C501.49826725 369.75974967 495.50606008 373.93598682 489.52543354 378.13142776 C482.98178941 382.72131171 476.42112152 387.28359362 469.82548237 391.79841995 C465.80528588 394.55380734 461.80133801 397.33129923 457.80668354 400.12361526 C456.79968403 400.82695999 455.79268452 401.53030472 454.75516987 402.25496292 C452.78751426 403.63031646 450.82111813 405.00747441 448.85624409 406.38679886 C430.78255837 419.01416243 417.89467995 424.44638637 395.80633259 424.38539505 C393.99077859 424.38770098 392.17522552 424.39087839 390.35967439 424.39484954 C385.38259671 424.40318804 380.40559587 424.39907652 375.42851794 424.3928771 C370.05624126 424.38834974 364.68397774 424.39533781 359.31170368 424.40083694 C348.79183167 424.40972971 338.27198821 424.40780939 327.75211508 424.40201166 C319.20168786 424.39749449 310.65126864 424.39688251 302.10084057 424.3990593 C300.27526211 424.39951899 300.27526211 424.39951899 298.41280327 424.39998798 C295.94035439 424.40062743 293.46790551 424.40127586 290.99545663 424.40193316 C267.81143122 424.40763618 244.62742164 424.40107913 221.44339883 424.39033243 C201.55349948 424.38139808 181.66362348 424.38294807 161.77372456 424.39216995 C138.67407438 424.40287501 115.57443806 424.40708567 92.47478575 424.40094543 C90.01113792 424.40030833 87.5474901 424.39967959 85.08384228 424.3990593 C83.87169577 424.39875074 82.65954926 424.39844219 81.41067104 424.39812429 C72.87172824 424.39639798 64.33279424 424.39931111 55.79385281 424.4040184 C45.3859308 424.40962989 34.97803896 424.40810515 24.5701204 424.39745691 C19.26057848 424.39220368 13.95108684 424.39013756 8.6415453 424.39675522 C3.77905135 424.40272398 -1.08334581 424.39942419 -5.94583101 424.38880011 C-7.70279327 424.38657002 -9.45976374 424.3876936 -11.21672069 424.39255169 C-28.25779161 424.43604875 -43.89031238 422.45221648 -56.79878521 410.06892776 C-66.01700379 399.41103402 -67.92746937 388.02883776 -67.86224651 374.32297134 C-67.86642615 372.94449269 -67.8719071 371.56601748 -67.87856632 370.18754858 C-67.89295709 366.42318375 -67.88879632 362.65903905 -67.88139951 358.8946625 C-67.87665431 354.82572123 -67.88918957 350.75682667 -67.89941692 346.68790054 C-67.91658349 338.72589774 -67.91744944 330.76397393 -67.91220402 322.80195744 C-67.90815731 316.32869309 -67.90961183 309.85545203 -67.91495228 303.3821888 C-67.9157007 302.45974899 -67.91644912 301.53730919 -67.91722022 300.58691667 C-67.91875175 298.71279705 -67.9202901 296.83867743 -67.92183519 294.96455782 C-67.93555233 277.40305714 -67.93012794 259.84160106 -67.91864998 242.28010141 C-67.9087171 226.22527232 -67.92166063 210.17055848 -67.94558417 194.11574716 C-67.96998475 177.61605441 -67.97958076 161.11641531 -67.97293144 144.61670488 C-67.96944153 135.35918382 -67.97165634 126.10175139 -67.98918247 116.844244 C-68.00391637 108.9641449 -68.0045243 101.08419685 -67.98711156 93.20410068 C-67.9786092 89.18647018 -67.97643316 85.16910938 -67.99176311 81.15149307 C-68.00564311 77.46818186 -68.00080519 73.78537056 -67.98152388 70.10208803 C-67.97600749 68.1502248 -67.99000769 66.19833591 -68.00487798 64.24652153 C-67.92289308 54.39602075 -66.32565845 45.18686773 -59.22456646 37.88142776 C-58.42792583 37.05642776 -57.63128521 36.23142776 -56.81050396 35.38142776 C-54.24146607 32.90690297 -51.62735126 30.534767 -48.89644146 28.24080276 C-46.212783 25.90342282 -43.64856567 23.46223862 -41.07319927 21.00691605 C-28.8960461 9.43530661 -17.46905534 -0.04469989 0 0 Z M-16.53706646 24.81892776 C-17.3504649 25.51244339 -18.16386333 26.20595901 -19.00191021 26.92049026 C-19.81788677 27.65009964 -20.63386333 28.37970901 -21.47456646 29.13142776 C-22.32148052 29.88166214 -23.16839458 30.63189651 -24.04097271 31.40486526 C-25.73314013 32.91877383 -27.4169271 34.44210741 -29.09175396 35.97517776 C-31.26120987 37.93835754 -33.48079565 39.81700922 -35.72456646 41.69392776 C-42.53261033 47.66300058 -47.84434457 54.72168175 -48.75435627 63.97706294 C-48.86396578 67.41736178 -48.87911094 70.8464665 -48.86224651 74.28850174 C-48.86763205 75.60726889 -48.87301759 76.92603605 -48.87856632 78.28476584 C-48.89298674 81.93016471 -48.88878696 85.57533684 -48.88139951 89.22074795 C-48.87666165 93.15814381 -48.88918318 97.09549106 -48.89941692 101.03287125 C-48.9165984 108.74081004 -48.91744626 116.44866728 -48.91220402 124.15662025 C-48.90815973 130.42303814 -48.90960896 136.68943195 -48.91495228 142.95584869 C-48.9157007 143.84831923 -48.91644912 144.74078976 -48.91722022 145.66030485 C-48.91875173 147.47346627 -48.92029008 149.28662769 -48.92183519 151.0997891 C-48.93555798 168.09708671 -48.93012419 185.09433827 -48.91864998 202.09163482 C-48.90871872 217.63317925 -48.9216568 233.1746046 -48.94558417 248.71613066 C-48.96998151 264.68351983 -48.97958142 280.65085355 -48.97293144 296.61826098 C-48.96944052 305.57899795 -48.97166287 314.53964336 -48.98918247 323.50036621 C-49.00391242 331.12875121 -49.00452959 338.75698017 -48.98711156 346.38536213 C-48.97860551 350.27526616 -48.97644211 354.16489155 -48.99176311 358.05478096 C-49.0056324 361.62031534 -49.00081894 365.18533298 -48.98152388 368.75083764 C-48.97600113 370.64189818 -48.99001683 372.53298517 -49.00487798 374.42399538 C-48.91779441 384.54038382 -46.74410926 392.86188497 -39.47456646 400.13142776 C-29.67305324 408.10940364 -17.89595119 407.56115638 -5.9321928 407.50564957 C-4.14806032 407.50839263 -2.36392945 407.51244683 -0.57980257 407.51769322 C4.30577217 407.52825261 9.19116322 407.52016887 14.07672989 407.50894272 C19.35217548 407.50008526 24.62759743 407.50854868 29.90304279 407.51480484 C40.23061875 407.52428565 50.55812476 407.51769935 60.88569552 407.5055419 C72.91401317 407.49191057 84.94231421 407.49356075 96.97063761 407.49567523 C118.43235803 407.49886404 139.89404524 407.48720336 161.35575581 407.46760941 C182.17900828 407.44860336 203.00222184 407.44152262 223.82548237 407.44710159 C246.50469569 407.45315984 269.18389191 407.45298164 291.86310381 407.44161576 C294.28150141 407.44040848 296.69989902 407.43920249 299.11829662 407.43799782 C300.90311565 407.43709251 300.90311565 407.43709251 302.72399162 407.43616891 C311.10762204 407.43229028 319.49124609 407.43268317 327.87487698 407.43458366 C338.09140018 407.4367061 348.30788932 407.43147777 358.52440292 407.41697011 C363.73661336 407.40972832 368.94877418 407.40564731 374.16098881 407.41021347 C378.93334073 407.41429259 383.70559026 407.40911661 388.47792666 407.39658739 C390.20321149 407.39366187 391.928506 407.39408891 393.65378834 407.39823047 C411.69241778 407.43759702 423.33300585 403.35366064 438.15043354 393.00642776 C439.11408833 392.34119095 440.07774311 391.67595413 441.07059956 390.99055862 C443.00572341 389.65417558 444.93911686 388.31528288 446.87064838 386.97371292 C449.77334875 384.95938728 452.68709976 382.96179547 455.6033144 380.96712112 C465.61773121 374.11072311 475.56541225 367.15718188 485.52445698 360.22078323 C488.48479725 358.15971977 491.44629535 356.10033234 494.40824604 354.04158401 C496.34316051 352.69655874 498.27805644 351.3515068 500.21293354 350.00642776 C501.16812885 349.34239944 502.12332417 348.67837112 503.10746479 347.99422073 C508.45628773 344.27357804 513.79616938 340.5406145 519.12821674 336.79597855 C526.88747216 331.34794154 534.68378212 325.96026586 542.52543354 320.63142776 C552.09641839 314.12715192 561.59147043 307.52093574 571.0576601 300.86531448 C574.3767324 298.53329515 577.70004314 296.20735978 581.02372456 293.88191605 C582.68340235 292.7206113 584.34274823 291.55883206 586.0017519 290.39656448 C590.30013566 287.3854538 594.60277628 284.38069593 598.91215229 281.38533401 C599.79967182 280.76722855 600.68719135 280.14912308 601.60160542 279.51228714 C603.27990664 278.34362713 604.95948939 277.1768042 606.64066792 276.01228714 C619.94270038 267.8126319 619.94270038 267.8126319 627.52543354 255.13142776 C628.26442249 246.35182583 626.61034933 238.0694928 624.83793354 229.50642776 C624.5936562 228.28697464 624.34937885 227.06752151 624.09769917 225.81111526 C623.56105059 223.13738263 623.02064795 220.46467067 622.47489643 217.79280472 C621.38064879 212.43024305 620.30305729 207.0643841 619.22855854 201.69783401 C619.01895496 200.65105988 618.80935139 199.60428574 618.59339619 198.52579117 C617.23623105 191.73171951 615.89639461 184.93437133 614.56804085 178.13461685 C613.4633734 172.48006702 612.35238082 166.82678142 611.23761749 161.17421341 C610.5222891 157.54494582 609.81075175 153.91500704 609.10673237 150.28352737 C608.40925915 146.68681906 607.70215988 143.09212081 606.98861599 139.49856758 C606.59658452 137.51148266 606.21434114 135.52247443 605.83242512 133.53342056 C603.62028724 122.46587862 601.14976704 111.50927361 591.4639101 104.6773262 C589.06485894 103.20328489 586.62822791 101.84377189 584.15043354 100.50642776 C583.235602 99.99845657 582.32077045 99.49048538 581.37821674 98.96712112 C578.43562623 97.33947976 575.481882 95.73374091 572.52543354 94.13142776 C570.56831486 93.06257742 568.61128352 91.99356714 566.65433979 90.92439651 C561.63889266 88.19272471 556.61243758 85.48192994 551.58256245 82.77693558 C546.51679564 80.05027304 541.45872218 77.30943088 536.40043354 74.56892776 C535.4026186 74.02873001 534.40480366 73.48853226 533.3767519 72.93196487 C527.72658345 69.87166773 522.08306288 66.79957451 516.44535542 63.7163887 C504.33217931 57.0926878 492.16892094 50.56416072 479.99281025 44.05714798 C475.66127458 41.74141343 471.33475389 39.41647413 467.00980854 37.08845901 C465.15289885 36.08997939 463.29588473 35.09169431 461.43882465 34.09349442 C459.72136115 33.16958334 458.0049657 32.24368771 456.28861713 31.31770706 C453.0420345 29.57364891 449.78723715 27.84684477 446.52543354 26.13142776 C445.93097431 25.81754105 445.33651508 25.50365433 444.72404194 25.18025589 C442.88936392 24.21656214 441.04836235 23.26612357 439.20512104 22.31892776 C437.57292622 21.4739473 437.57292622 21.4739473 435.90775776 20.61189651 C429.56561045 17.83589094 423.82394326 16.88172982 416.93439484 16.87415886 C416.21090083 16.87065278 415.48740682 16.86714671 414.74198875 16.86353439 C412.32883926 16.85426469 409.91593347 16.85913215 407.50277424 16.86400223 C405.75066727 16.86026374 403.99856197 16.85566143 402.24645931 16.85027158 C397.4400828 16.83805088 392.63377595 16.83830095 387.82738745 16.84066033 C382.64048259 16.84106873 377.45359998 16.83002722 372.26670551 16.8205452 C362.10798686 16.80393968 351.94929142 16.79843587 341.79056033 16.79732044 C333.53283234 16.79636982 325.275112 16.79225885 317.01738644 16.78591919 C293.60192046 16.76830857 270.18647281 16.75908012 246.77100017 16.76058014 C245.50894023 16.76066005 244.2468803 16.76073996 242.94657612 16.7608223 C241.68297427 16.76090406 240.41937242 16.76098582 239.1174796 16.76107006 C218.63619875 16.76188307 198.15499141 16.7427411 177.67373183 16.71454556 C156.64049939 16.68581873 135.60730281 16.67200514 114.57405025 16.67373312 C102.76673834 16.67439705 90.95950352 16.66890308 79.15220928 16.64737701 C69.09999924 16.62916798 59.04790124 16.62481571 48.99568184 16.63839586 C43.86823537 16.64492665 38.74100388 16.64503852 33.61357784 16.62768936 C28.91619966 16.61195891 24.21920694 16.6148221 19.52183817 16.63225763 C17.82606335 16.63532754 16.13025978 16.63169545 14.4345189 16.62053747 C3.16581655 16.55132304 -7.58712127 17.07097158 -16.53706646 24.81892776 Z " transform="translate(168.47456645965576,268.8685722351074)" style="fill: #EBF7FB;"/><path d="M0 0 C0.33 0.66 0.66 1.32 1 2 C0.00136612 4.73608822 -1.06875178 7.36632134 -2.234375 10.03125 C-2.58354477 10.84662231 -2.93271454 11.66199463 -3.29246521 12.5020752 C-4.43748211 15.17134482 -5.59341435 17.835725 -6.75 20.5 C-7.9321529 23.24177018 -9.11228862 25.98440318 -10.29240417 28.72705078 C-11.07998545 30.55658449 -11.86857198 32.38568579 -12.65815735 34.21435547 C-14.94206902 39.5100211 -17.18474325 44.81960781 -19.37109375 50.15625 C-19.85545898 51.33123047 -20.33982422 52.50621094 -20.83886719 53.71679688 C-21.70871418 55.83441135 -22.57065022 57.95530103 -23.42285156 60.08007812 C-27.63612607 70.26012867 -32.889189 76.49681586 -41.875 82.8125 C-42.71361572 83.41578125 -43.55223145 84.0190625 -44.41625977 84.640625 C-50.83089525 89.23473509 -57.32049335 93.7219846 -63.84375 98.16015625 C-68.56983614 101.3790597 -73.25471957 104.65603147 -77.9375 107.9375 C-78.78562256 108.53175781 -79.63374512 109.12601563 -80.50756836 109.73828125 C-86.53836346 113.96774498 -92.55761616 118.21339866 -98.57275391 122.46508789 C-106.51839247 128.07851211 -114.49210486 133.65173134 -122.46484375 139.2265625 C-124.9461592 140.96233633 -127.42640574 142.69962514 -129.90625 144.4375 C-141.70342545 152.70410814 -153.51660816 160.94749611 -165.35107422 169.16064453 C-167.0384259 170.33230421 -168.72503123 171.50503999 -170.41064453 172.67919922 C-197.43405365 191.50232053 -197.43405365 191.50232053 -210.16164398 191.37752342 C-210.94681823 191.38188374 -211.73199248 191.38624407 -212.54095989 191.39073652 C-215.16399974 191.40165843 -217.78651016 191.39128521 -220.4095459 191.38095093 C-222.3122845 191.3844087 -224.21502109 191.38917407 -226.11775351 191.39513266 C-231.34041392 191.40765584 -236.56290986 191.40146621 -241.78557086 191.39217401 C-247.42027574 191.38538929 -253.05495224 191.39586189 -258.68965149 191.40411377 C-269.72569601 191.41745944 -280.76167935 191.41456963 -291.79772627 191.40587585 C-300.76629427 191.399103 -309.7348451 191.39818086 -318.70341492 191.4014473 C-319.97946275 191.401907 -321.25551058 191.40236669 -322.57022652 191.40284032 C-325.1624254 191.40379949 -327.75462428 191.40477213 -330.34682316 191.4057581 C-353.96547604 191.41407048 -377.58408791 191.40544758 -401.2027339 191.38973031 C-422.76033657 191.37549366 -444.31788607 191.37676755 -465.87548828 191.39111328 C-490.0998233 191.40717977 -514.32412052 191.41349044 -538.54846239 191.40427649 C-541.13116995 191.40332083 -543.71387751 191.40237772 -546.29658508 191.4014473 C-548.20273893 191.40075306 -548.20273893 191.40075306 -550.14740095 191.40004479 C-559.10606162 191.39745361 -568.06470345 191.40182866 -577.02336121 191.40888596 C-587.93972096 191.41729635 -598.85601598 191.41503046 -609.77236831 191.39904372 C-615.34293421 191.39115486 -620.91339217 191.38807998 -626.48395729 191.39799118 C-631.58266427 191.4069257 -636.68116317 191.40202557 -641.77985126 191.38605852 C-643.62496224 191.38270548 -645.47009078 191.38441653 -647.31519049 191.39168589 C-649.82316224 191.4008094 -652.33042139 191.39145078 -654.83835602 191.37752342 C-655.55465638 191.38454692 -656.27095674 191.39157042 -657.00896317 191.39880675 C-662.99692331 191.33235093 -668.32789033 189.96270002 -673.20703125 186.37890625 C-681.31401023 177.20677675 -681.66338116 164.51129718 -683.125 152.8125 C-683.37830078 150.86053711 -683.37830078 150.86053711 -683.63671875 148.86914062 C-684.48938224 142.25260625 -685.28955012 135.63328206 -686 129 C-683.02262709 130.11651484 -680.39356156 131.34814059 -677.625 132.9375 C-665.86666494 138.80183644 -652.14460104 138.43754066 -639.34022522 138.39872742 C-637.49586386 138.40417752 -635.65150598 138.41093348 -633.80715364 138.41886932 C-628.77870377 138.4367807 -623.75040243 138.43635163 -618.72192824 138.43273985 C-613.28448933 138.43211317 -607.84709905 138.44876247 -602.40968323 138.46325684 C-593.00213823 138.48599632 -583.59463015 138.49791991 -574.1870594 138.50238609 C-560.5854923 138.50885915 -546.98399179 138.53181687 -533.38245159 138.55872939 C-511.31202463 138.60195417 -489.24160049 138.63194552 -467.17114258 138.65356445 C-445.73851133 138.67458706 -424.30590304 138.70183911 -402.87329102 138.73754883 C-401.88120912 138.73919804 -401.88120912 138.73919804 -400.86908516 138.74088058 C-393.56764382 138.75302592 -386.26620278 138.76534218 -378.96476185 138.77772844 C-323.97652825 138.87085252 -268.98828158 138.94247876 -214 139 C-213.99120064 139.83565239 -213.99120064 139.83565239 -213.98222351 140.68818665 C-213.91835586 146.47955461 -213.83395404 152.27036344 -213.73754883 158.0612793 C-213.70426678 160.22331375 -213.67624515 162.38543577 -213.65356445 164.54760742 C-213.62007892 167.65321218 -213.567766 170.75801198 -213.51171875 173.86328125 C-213.50213387 175.31653557 -213.50213387 175.31653557 -213.49235535 176.79914856 C-213.47256119 177.6998558 -213.45276703 178.60056305 -213.43237305 179.52856445 C-213.42126999 180.32132278 -213.41016693 181.11408112 -213.39872742 181.93086243 C-212.90053351 184.5161668 -212.0991081 185.44627678 -210 187 C-206.65807308 186.75546876 -205.39456443 186.39456443 -203 184 C-202.79348976 181.96591462 -202.79348976 181.96591462 -202.96679688 179.6171875 C-203.00502563 178.70864014 -203.04325439 177.80009277 -203.0826416 176.86401367 C-203.12755737 175.87763916 -203.17247314 174.89126465 -203.21875 173.875 C-203.26669187 171.78526442 -203.30949302 169.69540578 -203.34765625 167.60546875 C-203.41085955 164.30664842 -203.49893249 161.01994379 -203.67529297 157.72509766 C-204.58217555 139.88615215 -204.58217555 139.88615215 -200.25482178 135.04937744 C-195.9283641 131.77127587 -191.19715609 129.76518274 -186.13809204 127.88354492 C-183.13205674 126.64133122 -180.68649992 124.85795253 -178.125 122.875 C-173.59242729 119.43079582 -168.94654485 116.24445926 -164.1953125 113.109375 C-162.01624382 111.67087 -159.84429139 110.22544492 -157.6796875 108.765625 C-151.13682764 104.36135503 -144.53996188 100.06499364 -137.86352539 95.86523438 C-128.5807851 90.02127885 -119.61598532 83.95452497 -110.84814453 77.36962891 C-107.48221809 74.87519729 -104.05241558 72.47137463 -100.625 70.0625 C-99.91561279 69.56347168 -99.20622559 69.06444336 -98.4753418 68.55029297 C-97.03624573 67.53850752 -95.59687296 66.52711552 -94.15722656 65.51611328 C-90.60070593 63.01656675 -87.05065901 60.50786242 -83.5 58 C-82.08336492 56.99995526 -80.66669823 55.99995528 -79.25 55 C-78.54875 54.505 -77.8475 54.01 -77.125 53.5 C-75 52 -72.875 50.5 -70.75 49 C-70.04866943 48.50491943 -69.34733887 48.00983887 -68.62475586 47.49975586 C-67.20899321 46.50044184 -65.79314043 45.5012555 -64.37719727 44.50219727 C-60.82094662 41.99274455 -57.26632192 39.48104703 -53.71484375 36.96484375 C-39.62127203 26.98484534 -25.4037766 17.2173622 -11.00488281 7.68212891 C-9.72629395 6.83400635 -9.72629395 6.83400635 -8.421875 5.96875 C-7.66487305 5.46794922 -6.90787109 4.96714844 -6.12792969 4.45117188 C-4.03696644 3.02520979 -2.01223692 1.53454441 0 0 Z " transform="translate(794,574)" style="fill: #86CFEA;"/><path d="M0 0 C1.75327402 -0.00461449 3.50654416 -0.01097108 5.25980628 -0.01890898 C10.0556306 -0.03555039 14.85113504 -0.02737954 19.64696026 -0.0149641 C24.82772638 -0.00589452 30.00843843 -0.01989289 35.18919373 -0.03088379 C45.33015909 -0.04865397 55.47100592 -0.04483547 65.61197589 -0.03323323 C73.85627287 -0.02419229 82.10053667 -0.02297777 90.34483719 -0.02732849 C91.51912193 -0.02794142 92.69340667 -0.02855436 93.9032758 -0.02918586 C96.28898942 -0.03046479 98.67470304 -0.03176165 101.06041665 -0.03307623 C123.42287448 -0.04447789 145.78526668 -0.03137531 168.14771374 -0.00987476 C187.32316894 0.00799116 206.49852726 0.00489545 225.67398071 -0.0135498 C247.95442093 -0.03497185 270.23480363 -0.04337438 292.51525271 -0.03110075 C294.89270249 -0.02982659 297.27015228 -0.02856911 299.64760208 -0.02732849 C300.81727482 -0.02671139 301.98694756 -0.02609429 303.19206493 -0.02545848 C311.42255581 -0.02200925 319.65301012 -0.02782485 327.88349533 -0.0372467 C337.91948465 -0.04848308 347.95534888 -0.04539234 357.99132393 -0.02412373 C363.10890426 -0.01363471 368.22627627 -0.00945477 373.3438549 -0.02272034 C378.03444693 -0.03469485 382.72463878 -0.02799865 387.41519482 -0.00681013 C389.10619923 -0.00236537 390.79723789 -0.00456213 392.48822002 -0.01431328 C404.84494854 -0.08006742 415.89474289 1.48606922 426.89956665 7.58215332 C427.9561145 8.15844482 429.01266235 8.73473633 430.10122681 9.32849121 C431.20385864 9.94458252 432.30649048 10.56067383 433.4425354 11.19543457 C434.64670507 11.85621912 435.85164291 12.51560543 437.05728149 13.17370605 C438.95574977 14.21032808 440.8536372 15.24790035 442.74917603 16.28987122 C449.3706433 19.92891927 456.04572809 23.46454562 462.72488403 26.99624634 C466.10305527 28.78369522 469.47794084 30.57731956 472.85269165 32.37121582 C473.83862808 32.89530281 473.83862808 32.89530281 474.84448242 33.42997742 C490.38699948 41.69444236 505.87467756 50.02715489 521.16177368 58.75720215 C527.71858947 62.48171355 534.36033312 66.00040794 541.0675354 69.44543457 C549.37326021 73.73584219 557.57601618 78.1812753 565.6925354 82.82043457 C566.69792358 83.38302979 567.70331177 83.945625 568.73916626 84.52526855 C578.47249497 90.16245006 583.15953028 95.82545255 586.6300354 106.50793457 C588.04584434 112.25584538 589.1815541 118.0494219 590.3097229 123.85949707 C590.64756078 125.56232229 590.98621162 127.2649864 591.32562256 128.96749878 C592.21639772 133.44809073 593.09532518 137.93092882 593.97195435 142.41430664 C594.67120735 145.9803849 595.37870001 149.54480199 596.08671188 153.10914993 C599.74632138 171.53368955 603.32783025 189.97150707 606.73449707 208.4446106 C607.67825113 213.54481752 608.63025185 218.63212581 609.77481079 223.69152832 C611.47384795 231.27341497 611.8129306 238.71072986 607.6300354 245.50793457 C601.98089355 251.22069886 595.30105581 255.68520774 588.6925354 260.19543457 C586.63099936 261.61551675 584.56980356 263.036093 582.50894165 264.45715332 C581.50363403 265.14857422 580.49832642 265.83999512 579.46255493 266.55236816 C575.66401876 269.17487073 571.89431177 271.83660211 568.1300354 274.50793457 C551.75128287 286.10439475 535.23711486 297.50938868 518.6769104 308.84484863 C510.56857953 314.39538418 502.49954434 319.99515596 494.48013306 325.67346191 C479.90183936 335.98590133 465.21089165 346.1394561 450.48208618 356.23547363 C448.63135524 357.50702777 446.78448825 358.78400799 444.93862915 360.06262207 C436.71286519 365.75484648 428.43365766 371.36746245 420.1300354 376.94543457 C419.11489868 377.63210205 418.09976196 378.31876953 417.05386353 379.02624512 C402.6781712 388.6476499 391.31754781 390.80968674 374.21464539 390.76863098 C372.43208943 390.77165362 370.64953477 390.77554367 368.8669824 390.78022355 C363.98112036 390.79049764 359.09533176 390.78832322 354.20946372 390.78404295 C348.93534469 390.7815747 343.6612433 390.7905911 338.38713074 390.79808044 C328.05976913 390.8108263 317.73243352 390.8126213 307.40506537 390.81028018 C299.01100679 390.80849688 290.61695611 390.81024693 282.22289848 390.81450462 C280.43062436 390.81539741 280.43062436 390.81539741 278.60214267 390.81630823 C276.17478979 390.81751998 273.74743691 390.81873411 271.32008403 390.8199506 C248.55954109 390.83082553 225.79901296 390.82866376 203.03846919 390.82256576 C182.21709663 390.81739564 161.39577084 390.82865465 140.57440753 390.84766398 C119.19197524 390.86703584 97.80956509 390.87529958 76.42712396 390.87154073 C64.42369608 390.86962782 52.42030801 390.87212503 40.41688728 390.88625526 C30.1992639 390.89816165 19.98170485 390.8995822 9.76408059 390.8874651 C4.55172651 390.88157147 -0.66050986 390.88049047 -5.87285614 390.8924675 C-10.64657009 390.90330914 -15.42006778 390.90024334 -20.19377155 390.88620581 C-21.9184334 390.88355418 -23.64311211 390.88594005 -25.36775743 390.89394168 C-36.69828115 390.94285175 -47.32927109 390.84601613 -56.54574585 383.38684082 C-62.52240346 377.23101146 -65.48862056 370.47778941 -65.50418568 361.99926567 C-65.50864352 360.87233169 -65.51310136 359.74539772 -65.51769429 358.58431423 C-65.51750993 357.34601049 -65.51732557 356.10770675 -65.51713562 354.83187866 C-65.52081231 353.51652921 -65.524489 352.20117975 -65.5282771 350.84597123 C-65.53828985 347.19160489 -65.54201272 343.53725498 -65.54466641 339.88287687 C-65.54857161 335.94269838 -65.5581498 332.00253287 -65.56687927 328.06236267 C-65.58663756 318.54517775 -65.59670908 309.02799178 -65.60560706 299.51079148 C-65.609991 295.02820115 -65.61535754 290.54561201 -65.62059593 286.06302261 C-65.63760756 271.16055738 -65.65210156 256.25809288 -65.65934467 241.35561943 C-65.66125454 237.4887479 -65.66317488 233.62187639 -65.66513062 229.75500488 C-65.66561436 228.79392142 -65.6660981 227.83283796 -65.66659649 226.84263076 C-65.67489616 211.27497494 -65.7002323 195.70739597 -65.73271129 180.13977371 C-65.76578969 164.15444183 -65.78379414 148.16914899 -65.78698891 132.1837827 C-65.78915328 123.20955904 -65.79789127 114.23544746 -65.82345009 105.26125717 C-65.84516774 97.6181518 -65.85320227 89.97518572 -65.84348331 82.33205299 C-65.83894168 78.4340645 -65.8408166 74.53636337 -65.86024475 70.63841438 C-65.87789946 67.06533718 -65.87686051 63.49275646 -65.86134746 59.91967382 C-65.85785646 58.02443185 -65.87398055 56.12918454 -65.89095193 54.23401535 C-65.81220324 43.74830982 -63.44352627 35.90555202 -56.1199646 28.32043457 C-55.63181274 27.81197998 -55.14366089 27.30352539 -54.64071655 26.77966309 C-50.74183643 22.76545043 -46.71156856 19.03177067 -42.3699646 15.50793457 C-41.86594116 15.08093262 -41.36191772 14.65393066 -40.84262085 14.21398926 C-39.09405223 12.73295567 -37.32774339 11.27542213 -35.5574646 9.82043457 C-34.74088379 9.12421997 -34.74088379 9.12421997 -33.9078064 8.41394043 C-23.72854552 0.21410337 -12.48254236 -0.07177442 0 0 Z M-42.78549194 33.9967041 C-44.21244153 35.357693 -45.65919161 36.6978488 -47.10824585 38.03527832 C-51.42795804 42.75786522 -52.74574687 46.92781573 -52.73072815 53.26571655 C-52.73329142 53.92012793 -52.7358547 54.5745393 -52.73849565 55.24878132 C-52.74341216 57.42770665 -52.72697701 59.60592923 -52.71054077 61.78479004 C-52.70969403 63.35215743 -52.71017056 64.919526 -52.71186829 66.4868927 C-52.71272784 70.73237452 -52.69510856 74.97760126 -52.67414641 79.22302389 C-52.65537299 83.66328731 -52.65362865 88.10355678 -52.65007019 92.54385376 C-52.64075168 100.94791928 -52.61614052 109.35186752 -52.58602172 117.75588143 C-52.55247168 127.32535036 -52.53599018 136.89482494 -52.52093542 146.46433806 C-52.4895908 166.14560232 -52.43683406 185.82676105 -52.3699646 205.50793457 C-50.93022341 205.19151227 -49.49069388 204.87412685 -48.05125427 204.55633545 C-47.24959367 204.37969486 -46.44793306 204.20305428 -45.62197971 204.02106094 C-43.02941469 203.43033956 -40.48100664 202.73692694 -37.92855835 201.99230957 C-12.48847178 194.74943131 13.30226614 190.07483325 39.6300354 187.50793457 C40.48387817 187.41294678 41.33772095 187.31795898 42.21743774 187.22009277 C52.69949549 186.16664316 63.23181684 186.30905208 73.7550354 186.32043457 C74.78192474 186.32103882 75.80881409 186.32164307 76.86682129 186.32226562 C92.5411882 186.34731211 108.04762669 186.6587956 123.6300354 188.50793457 C125.3330481 188.70927002 125.3330481 188.70927002 127.07046509 188.91467285 C162.82495497 193.27650808 197.42976029 201.37503951 232.1769104 210.62512207 C233.21004333 210.90006248 233.21004333 210.90006248 234.26404762 211.18055725 C241.22086969 213.03269052 248.17606656 214.89060073 255.1262455 216.7675209 C278.95016702 223.19802734 302.88366821 229.42602998 327.1925354 233.75793457 C327.85884979 233.87800873 328.52516418 233.99808289 329.21166992 234.12179565 C356.99859968 239.09517822 385.06330743 240.7361218 413.2550354 240.75793457 C414.17669495 240.75894165 415.09835449 240.75994873 416.04794312 240.76098633 C474.65293641 240.71821355 538.8863576 230.21683361 591.6300354 203.50793457 C591.04689774 195.69886191 589.67805467 188.16379485 588.0831604 180.50402832 C587.83008118 179.26790298 587.57700195 178.03177765 587.31625366 176.75819397 C586.64442268 173.48082102 585.96837548 170.20437943 585.29006958 166.92834473 C584.3534277 162.39877915 583.42538165 157.86744124 582.49563599 153.3364563 C581.97193856 150.78776439 581.44663704 148.23940154 580.91970825 145.69137573 C579.65388402 139.56003341 578.41217381 133.42594985 577.22964478 127.2779541 C576.89884918 125.57156517 576.89884918 125.57156517 576.56137085 123.83070374 C576.15201845 121.70954359 575.74892261 119.58716188 575.35348511 117.46336365 C573.58329686 108.32336155 571.56551668 101.88824246 563.6300354 96.50793457 C559.3988748 93.99635064 555.05784097 91.71230358 550.6925354 89.44543457 C549.44183863 88.78718715 548.19168362 88.12790942 546.94204712 87.46765137 C544.39813196 86.12405747 541.85237919 84.78405018 539.30532837 83.44641113 C533.92999199 80.61780371 528.59200823 77.72060865 523.2550354 74.82043457 C521.7853833 74.02355225 521.7853833 74.02355225 520.28604126 73.21057129 C513.76925056 69.67565515 507.26133272 66.1246156 500.7550354 62.57043457 C490.61702563 57.03304302 480.44960606 51.5511526 470.27456665 46.08215332 C465.87268217 43.71608386 461.47440874 41.34351234 457.07925415 38.96496582 C446.04673829 32.99809795 434.99095826 27.07770906 423.8800354 21.25793457 C422.83839233 20.70871338 421.79674927 20.15949219 420.72354126 19.59362793 C419.74909058 19.08581787 418.77463989 18.57800781 417.7706604 18.05480957 C416.49497192 17.38723633 416.49497192 17.38723633 415.19351196 16.70617676 C409.79928394 14.18476046 405.30361719 13.25752241 399.3391819 13.25345898 C398.62385028 13.2502525 397.90851867 13.24704602 397.17151034 13.24374238 C394.77410945 13.23543986 392.37695821 13.2413675 389.97955322 13.24723816 C388.24353381 13.24421759 386.50751572 13.24032858 384.77149999 13.23564559 C380.00041553 13.22534465 375.22940604 13.22755275 370.45831537 13.23182619 C365.31301718 13.23428961 360.16773723 13.22528402 355.02244568 13.2177887 C344.94199439 13.20502895 334.86156973 13.2032496 324.78111173 13.20558896 C316.58862322 13.20737086 308.39614279 13.20562522 300.20365524 13.20136452 C299.03835088 13.20076933 297.87304652 13.20017414 296.67242991 13.19956091 C294.30522796 13.19834918 291.93802602 13.19713505 289.57082407 13.19591854 C267.36307387 13.18503807 245.15533884 13.18720788 222.94758777 13.19330338 C202.62582869 13.19847291 182.30411754 13.18721704 161.98236795 13.16820516 C141.12210591 13.14883891 120.26186656 13.14056864 99.40159547 13.14432842 C87.68770354 13.14624231 75.97385241 13.14373455 64.2599678 13.12961388 C54.28778524 13.11771456 44.31566858 13.1162789 34.34348513 13.12840404 C29.25493993 13.13430292 24.16651538 13.13536429 19.07797813 13.12340164 C14.41959019 13.11257744 9.76142412 13.11560488 5.1030467 13.12966333 C3.41803441 13.13231982 1.73300493 13.12991394 0.04800947 13.12192746 C-19.6817519 13.03490568 -28.95335642 20.78182412 -42.78549194 33.9967041 Z M-52.3699646 220.50793457 C-52.4400609 239.3099369 -52.49295582 258.1119127 -52.52540112 276.91401863 C-52.54086678 285.64426162 -52.56195054 294.3744234 -52.59628296 303.10461426 C-52.62619454 310.71428509 -52.64554179 318.32389711 -52.65223008 325.9336251 C-52.65613937 329.96253928 -52.66532041 333.99128519 -52.68715477 338.02014542 C-52.70754775 341.81385256 -52.71379276 345.60732243 -52.70928764 349.40107918 C-52.71011159 350.79182157 -52.71606064 352.18257206 -52.72758102 353.57326698 C-52.74256726 355.4760015 -52.7371167 357.37886392 -52.73072815 359.28164673 C-52.73349353 360.34539583 -52.73625891 361.40914494 -52.73910809 362.50512886 C-52.15781668 367.23365647 -50.43622833 370.49778998 -46.9949646 373.75793457 C-41.97396678 377.10526645 -38.08133535 377.75896231 -32.05715847 377.76799679 C-31.32729535 377.77180246 -30.59743223 377.77560813 -29.84545204 377.77952912 C-27.39256795 377.78985967 -24.93991464 377.78593605 -22.48701477 377.78208923 C-20.71346055 377.78654086 -18.93990831 377.79185466 -17.16635901 377.79795796 C-12.28672952 377.81215776 -7.40716367 377.81380087 -2.52751648 377.81336105 C2.7330831 377.81500754 7.99365634 377.82807104 13.25424194 377.83955383 C24.7605826 377.86241732 36.26690483 377.87032609 47.77326512 377.87538028 C54.95804764 377.87863613 62.1428248 377.885158 69.32760429 377.89238167 C89.22013839 377.9119504 109.11266749 377.92835266 129.00521183 377.9312582 C130.91523098 377.93153956 130.91523098 377.93153956 132.86383637 377.9318266 C135.44523839 377.93219285 138.02664041 377.93255654 140.60804243 377.93291771 C141.88945782 377.93310052 143.17087322 377.93328333 144.49111938 377.93347168 C145.77409912 377.93365223 147.05707885 377.93383278 148.37893676 377.9340188 C169.16367445 377.93755975 189.94830849 377.96457603 210.73301024 378.00196957 C232.07238621 378.0400537 253.41171075 378.05941569 274.75112146 378.05971771 C286.7323522 378.06030231 298.71345935 378.06879542 310.69465828 378.09771538 C320.8980762 378.12223076 331.10132546 378.12951109 341.30476487 378.11446785 C346.50931951 378.10729934 351.71354111 378.1081541 356.9180584 378.13087845 C361.68722485 378.15150205 366.45580293 378.14883635 371.22496324 378.1280036 C372.94574711 378.12451517 374.66657372 378.12939124 376.38730157 378.14370804 C391.47775658 378.26112192 401.8316939 374.3123824 414.1300354 365.57043457 C415.06927856 364.91655762 416.00852173 364.26268066 416.97622681 363.58898926 C419.86827388 361.57236478 422.74948925 359.54094112 425.6300354 357.50793457 C427.39752711 356.27120287 429.16573257 355.03549048 430.9347229 353.80090332 C434.28580005 351.46068697 437.63313306 349.11526878 440.97769165 346.76574707 C445.11547121 343.86278453 449.27292909 340.98993661 453.4425354 338.13293457 C463.87737359 330.98084726 474.24944482 323.73841387 484.6300354 316.50793457 C506.95172635 300.96002107 506.95172635 300.96002107 515.8175354 294.88293457 C524.27549239 289.08393897 532.67025205 283.19541717 541.06558228 277.30627441 C545.25176661 274.37068475 549.44101181 271.43947054 553.6300354 268.50793457 C558.71287642 264.95049546 563.795273 261.3924269 568.87612915 257.83215332 C570.17006592 256.92578125 570.17006592 256.92578125 571.49014282 256.00109863 C573.18726261 254.81213416 574.88404874 253.62269326 576.58047485 252.43273926 C580.28705898 249.83534904 583.99893683 247.24774492 587.7394104 244.69934082 C588.65702148 244.0724939 588.65702148 244.0724939 589.59317017 243.4329834 C591.19010204 242.34477256 592.79077028 241.26205025 594.39175415 240.17980957 C596.72038071 238.70138027 596.72038071 238.70138027 597.6300354 236.50793457 C598.24421645 229.59839772 596.3131847 223.17040056 594.6300354 216.50793457 C588.19803189 218.58969054 581.87504771 220.8963588 575.54776001 223.27624512 C542.12475185 235.81676072 507.9697903 244.43747357 472.6300354 249.44543457 C471.91154419 249.54730072 471.19305298 249.64916687 470.45278931 249.75411987 C456.89931062 251.64751707 443.48406516 252.66318507 429.79019165 252.67590332 C428.50680405 252.67923172 427.22341644 252.68256012 425.90113831 252.68598938 C423.19935261 252.69192368 420.49759861 252.69383545 417.79580688 252.6932373 C415.07633756 252.69315647 412.35703823 252.70004044 409.63760376 252.71374512 C393.1753226 252.79542075 376.99001228 252.38038751 360.6300354 250.50793457 C359.50395874 250.39280518 358.37788208 250.27767578 357.21768188 250.15905762 C321.88438024 246.51125671 286.61978191 238.74599816 252.61929321 228.53527832 C247.1521403 226.89388138 241.63611006 225.49581688 236.09524536 224.12927246 C231.04010717 222.87632181 226.00986247 221.54671652 220.98550415 220.17590332 C200.92766902 214.72506277 180.86599942 209.97477084 160.42251587 206.21008301 C157.0925395 205.59356363 153.76951328 204.94939948 150.44644165 204.29699707 C88.47210268 192.55975533 4.87944973 191.33654468 -52.3699646 220.50793457 Z " transform="translate(185.36996459960938,285.4920654296875)" style="fill: #222C39;"/><path d="M0 0 C2.87834038 2.60421272 4.21715842 4.77718264 5.625 8.375 C5.625 9.035 5.625 9.695 5.625 10.375 C-3.30410378 12.63726814 -12.28676114 14.27589696 -21.36181641 15.82104492 C-30.580655 17.39431977 -39.76217011 19.13629592 -48.94433594 20.90917969 C-54.03253687 21.88429895 -59.12807426 22.82061434 -64.22265625 23.76171875 C-66.63530848 24.23109471 -69.00164518 24.74171081 -71.375 25.375 C-71.54177282 28.79156024 -71.54177282 28.79156024 -71.375 32.375 C-69.62252091 34.57053547 -69.62252091 34.57053547 -67.48535156 34.4855957 C-58.52365257 33.58818555 -49.73361007 31.84168751 -40.90380859 30.10791016 C-36.22452768 29.18948514 -31.54179576 28.28897396 -26.859375 27.38671875 C-25.4900885 27.12222427 -25.4900885 27.12222427 -24.09313965 26.85238647 C-16.86498835 25.45952804 -9.62855246 24.12986698 -2.375 22.875 C-1.4581543 22.71539795 -0.54130859 22.5557959 0.40332031 22.39135742 C6.34763143 21.375 6.34763143 21.375 8.625 21.375 C15.2797756 47.27382893 21.78480708 74.47255106 21.625 101.375 C13.86727081 103.3994496 6.11891659 105.12618272 -1.7734375 106.53125 C-2.8108609 106.71965454 -3.8482843 106.90805908 -4.91714478 107.10217285 C-8.19409952 107.69685721 -11.47195682 108.28634755 -14.75 108.875 C-36.45898793 110.80030005 -36.45898793 110.80030005 -55.375 118.375 C-55.54177282 121.95843976 -55.54177282 121.95843976 -55.375 125.375 C-47.5800227 125.7852294 -40.21520271 124.2389935 -32.5859375 122.78515625 C-31.15454914 122.51786538 -29.72303838 122.25122924 -28.29141235 121.98521423 C-24.54103441 121.28662149 -20.79230402 120.57955887 -17.04388428 119.87054443 C-13.23589659 119.15166428 -9.42651671 118.44024682 -5.6171875 117.72851562 C-1.33092678 116.92752454 2.95519774 116.12589014 7.24014282 115.31788635 C9.15275406 114.95762611 9.15275406 114.95762611 11.10400391 114.59008789 C12.22126862 114.37912979 13.33853333 114.16817169 14.48965454 113.95082092 C17.52994967 113.39245644 20.57445132 112.87399233 23.625 112.375 C24.20495227 123.24373508 24.20495227 123.24373508 20.625 128.375 C16.3808487 132.4061873 13.30426701 134.14405874 7.48828125 135.46875 C6.45626335 135.707005 6.45626335 135.707005 5.40339661 135.95007324 C-3.39502727 137.92400983 -12.29636349 139.39074083 -21.1875 140.875 C-24.56982338 141.44321214 -27.95130721 142.01609825 -31.33203125 142.59375 C-32.57196335 142.80463257 -32.57196335 142.80463257 -33.83694458 143.01977539 C-40.64012097 144.19836073 -47.38716754 145.59726986 -54.11909485 147.1307373 C-58.24344678 148.04394521 -62.13013028 148.86539363 -66.375 148.375 C-68.46068046 145.24647931 -68.63503962 144.41488897 -68.76171875 140.8359375 C-68.80893066 139.88509277 -68.85614258 138.93424805 -68.90478516 137.95458984 C-68.95683105 136.8970752 -69.00887695 135.83956055 -69.0625 134.75 C-70.94656125 105.4279913 -77.60847825 76.36842693 -83.48046875 47.63671875 C-83.63304138 46.88837769 -83.78561401 46.14003662 -83.94281006 45.36901855 C-84.786471 41.23566695 -85.64003758 37.10458094 -86.50244141 32.97509766 C-86.87289346 31.17744431 -87.24317742 29.37975632 -87.61328125 27.58203125 C-87.78933395 26.75056076 -87.96538666 25.91909027 -88.14677429 25.06242371 C-89.02694719 20.7569827 -89.57584848 16.79767459 -89.375 12.375 C-74.98180398 9.53313784 -60.54461349 6.99805287 -46.0769043 4.56982422 C-37.90016726 3.19111251 -29.76244839 1.69682084 -21.64013672 0.02563477 C-6.29679548 -3.03179042 -6.29679548 -3.03179042 0 0 Z " transform="translate(908.375,396.625)" style="fill: #EA4C51;"/><path d="M0 0 C0.20254517 1.94888306 0.20254517 1.94888306 0.13525391 4.35791016 C0.10499619 5.70908432 0.10499619 5.70908432 0.0741272 7.08755493 C0.04193085 8.06155243 0.0097345 9.03554993 -0.0234375 10.0390625 C-0.04846344 11.03505463 -0.07348938 12.03104675 -0.09927368 13.05722046 C-0.18162239 16.24681895 -0.27815454 19.43581189 -0.375 22.625 C-0.43322434 24.78382921 -0.49052793 26.94268347 -0.546875 29.1015625 C-0.68722309 34.40137882 -0.83922633 39.70076612 -1 45 C-1.33 45 -1.66 45 -2 45 C-2 30.15 -2 15.3 -2 0 C-148.52 0 -295.04 0 -446 0 C-446 -0.33 -446 -0.66 -446 -1 C-389.47109829 -1.17315266 -332.9421748 -1.3358134 -276.41320265 -1.48431293 C-269.74633412 -1.50183558 -263.07946581 -1.51944319 -256.41259766 -1.53710938 C-255.74914902 -1.53886574 -255.08570038 -1.5406221 -254.40214724 -1.54243168 C-232.88130547 -1.59945046 -211.3604889 -1.66298207 -189.83967575 -1.72987579 C-167.10607113 -1.80050401 -144.37245607 -1.86374364 -121.63880908 -1.91914403 C-108.01299736 -1.95258946 -94.38722926 -1.99199891 -80.76145719 -2.03892837 C-71.4301886 -2.07050335 -62.09891925 -2.09476781 -52.76761545 -2.11317255 C-47.37607603 -2.12402599 -41.98459703 -2.13820864 -36.59309387 -2.16103554 C-31.66468721 -2.18183097 -26.73634897 -2.19352117 -21.80790101 -2.19772999 C-20.01782719 -2.20090894 -18.22775576 -2.20753323 -16.43770863 -2.21781154 C-14.01845124 -2.23121693 -11.59949442 -2.23247085 -9.18020821 -2.23047829 C-8.11959518 -2.24076585 -8.11959518 -2.24076585 -7.03755563 -2.25126123 C-2.2282916 -2.2282916 -2.2282916 -2.2282916 0 0 Z " transform="translate(582,713)" style="fill: #2B313E;"/><path d="M0 0 C0.33 0 0.66 0 1 0 C1 39.93 1 79.86 1 121 C3.97 120.505 3.97 120.505 7 120 C4.4345406 122.5654594 2.52313332 122.54046087 -1 123 C-1.02333829 107.25810329 -1.04098376 91.51621123 -1.05181217 75.77430153 C-1.05697315 68.46541389 -1.06401208 61.156537 -1.07543945 53.84765625 C-1.08539234 47.47882562 -1.09185487 41.11000276 -1.09408849 34.74116457 C-1.09539457 31.36748885 -1.09847394 27.99383538 -1.10573006 24.62016678 C-1.11294496 20.85825509 -1.11399075 17.09639011 -1.11352539 13.33447266 C-1.11712067 12.21022385 -1.12071594 11.08597504 -1.12442017 9.92765808 C-1.1230455 8.90679611 -1.12167084 7.88593414 -1.12025452 6.83413696 C-1.12117631 5.94368494 -1.1220981 5.05323292 -1.12304783 4.1357975 C-1 2 -1 2 0 0 Z " transform="translate(134,368)" style="fill: #F6FAFB;"/><path d="M0 0 C0.20254517 1.94888306 0.20254517 1.94888306 0.13525391 4.35791016 C0.11508209 5.25869293 0.09491028 6.15947571 0.0741272 7.08755493 C0.04193085 8.06155243 0.0097345 9.03554993 -0.0234375 10.0390625 C-0.04846344 11.03505463 -0.07348938 12.03104675 -0.09927368 13.05722046 C-0.18162239 16.24681895 -0.27815454 19.43581189 -0.375 22.625 C-0.43322434 24.78382921 -0.49052793 26.94268347 -0.546875 29.1015625 C-0.68722309 34.40137882 -0.83922633 39.70076612 -1 45 C-1.33 45 -1.66 45 -2 45 C-2 30.15 -2 15.3 -2 0 C-28.73 0 -55.46 0 -83 0 C-83 -0.33 -83 -0.66 -83 -1 C-72.47361887 -1.17679846 -61.94712867 -1.34276533 -51.42035866 -1.49477577 C-46.53273971 -1.56569799 -41.64523851 -1.64039793 -36.7578125 -1.72363281 C-32.04414249 -1.8037712 -27.33042011 -1.87411505 -22.61649704 -1.93757248 C-20.81505288 -1.96356325 -19.01365673 -1.99312657 -17.21232986 -2.02626419 C-14.69578458 -2.07195811 -12.17937051 -2.10512415 -9.66259766 -2.13525391 C-8.91237839 -2.1517952 -8.16215912 -2.16833649 -7.38920593 -2.18537903 C-2.22810432 -2.22810432 -2.22810432 -2.22810432 0 0 Z " transform="translate(582,713)" style="fill: #384859;"/><path d="M0 0 C0 1.32 0 2.64 0 4 C0.99 4.33 1.98 4.66 3 5 C1.27278316 6.27348212 -0.45686238 7.54367057 -2.1875 8.8125 C-3.63189453 9.87404297 -3.63189453 9.87404297 -5.10546875 10.95703125 C-7.69142333 12.78220567 -10.19102559 14.53972142 -13 16 C-13.66 15.67 -14.32 15.34 -15 15 C-11.04 12.36 -7.08 9.72 -3 7 C-3.66 6.67 -4.32 6.34 -5 6 C-5 4.35 -5 2.7 -5 1 C-2 0 -2 0 0 0 Z " transform="translate(628,682)" style="fill: #1E2430;"/><path d="M0 0 C3.04387155 1.01462385 6.08724665 2.02966386 9.125 3.0625 C11.87771296 4.02791751 11.87771296 4.02791751 14.3125 4.4375 C14.869375 4.623125 15.42625 4.80875 16 5 C16.33 5.99 16.66 6.98 17 8 C17.66 8.66 18.32 9.32 19 10 C14.2128572 9.42334609 10.74871176 7.35917004 6.6875 4.9375 C5.71973633 4.37192383 5.71973633 4.37192383 4.73242188 3.79492188 C3.15121848 2.86962507 1.5750854 1.93567319 0 1 C0 0.67 0 0.34 0 0 Z " transform="translate(731,372)" style="fill: #171D28;"/><path d="M0 0 C1 2 1 2 0 5 C-1.98536627 5.70905938 -3.98910922 6.36694179 -6 7 C-8.3981501 8.24224175 -10.68208596 9.60925157 -13 11 C-11.6390377 6.91711311 -9.52046678 6.11314183 -5.9375 3.8125 C-4.83277344 3.09707031 -3.72804688 2.38164063 -2.58984375 1.64453125 C-1.73519531 1.10183594 -0.88054688 0.55914063 0 0 Z M-4 6 C-4 9 -4 9 -4 9 Z " transform="translate(792,553)" style="fill: #171D2A;"/><path d="M0 0 C1.5 1.3125 1.5 1.3125 3 3 C4.31825013 3.69601639 5.65048732 4.36672458 7 5 C5.58622218 5.36552803 4.16879424 5.71695495 2.75 6.0625 C1.96109375 6.25972656 1.1721875 6.45695312 0.359375 6.66015625 C-2.10394822 7.01497267 -3.65604132 6.76877544 -6 6 C-4.35 5.67 -2.7 5.34 -1 5 C-1.99 4.34 -2.98 3.68 -4 3 C-4 2.34 -4 1.68 -4 1 C-2.1875 0.3125 -2.1875 0.3125 0 0 Z " transform="translate(880,392)" style="fill: #182B3B;"/><path d="M0 0 C4.29 0 8.58 0 13 0 C9.93089979 2.0460668 8.19311799 2.50913306 4.625 3.125 C3.22121094 3.37636719 3.22121094 3.37636719 1.7890625 3.6328125 C-0.84737023 3.97990588 -3.34496388 4.06758274 -6 4 C-3 2 -3 2 0 2 C0 1.34 0 0.68 0 0 Z " transform="translate(872,517)" style="fill: #122C3B;"/><path d="M0 0 C0 3 0 3 -2.4375 5.5625 C-3.283125 6.366875 -4.12875 7.17125 -5 8 C-5.33 8.66 -5.66 9.32 -6 10 C-7.65 9.67 -9.3 9.34 -11 9 C-7.56638098 5.36440339 -4.2026393 2.63886654 0 0 Z " transform="translate(769,569)" style="fill: #181F2B;"/><path d="M0 0 C0.33 0.66 0.66 1.32 1 2 C-3.75 5 -3.75 5 -6 5 C-6.33 6.32 -6.66 7.64 -7 9 C-9.31 9.33 -11.62 9.66 -14 10 C-11.16667533 6.95483798 -8.34499689 4.83131399 -4.75 2.75 C-3.85796875 2.22921875 -2.9659375 1.7084375 -2.046875 1.171875 C-1.03367187 0.59179688 -1.03367187 0.59179688 0 0 Z " transform="translate(664,665)" style="fill: #93E0F0;"/><path d="M0 0 C2.475 0.99 2.475 0.99 5 2 C5 2.99 5 3.98 5 5 C4.01 5.495 4.01 5.495 3 6 C3 8.31 3 10.62 3 13 C1.32889958 10.03821227 0.67317248 7.62928808 0.375 4.25 C0.30023438 3.45078125 0.22546875 2.6515625 0.1484375 1.828125 C0.09945312 1.22484375 0.05046875 0.6215625 0 0 Z " transform="translate(108,703)" style="fill: #90DDEA;"/><path d="M0 0 C4.95 0 9.9 0 15 0 C10.9566353 2.02168235 8.67870655 2.35927761 4.25 2.625 C3.07953125 2.69976562 1.9090625 2.77453125 0.703125 2.8515625 C-0.18890625 2.90054687 -1.0809375 2.94953125 -2 3 C-1.34 2.67 -0.68 2.34 0 2 C0 1.34 0 0.68 0 0 Z " transform="translate(847,401)" style="fill: #132B3C;"/><path d="M0 0 C0.66 0 1.32 0 2 0 C2 0.99 2 1.98 2 3 C3.093125 2.979375 4.18625 2.95875 5.3125 2.9375 C9 3 9 3 12 4 C12 4.66 12 5.32 12 6 C10.37419034 5.88601335 8.74932843 5.75844341 7.125 5.625 C6.22007813 5.55539062 5.31515625 5.48578125 4.3828125 5.4140625 C2 5 2 5 0 3 C0 2.01 0 1.02 0 0 Z " transform="translate(119,705)" style="fill: #1F2532;"/><path d="M0 0 C1.39211215 4.17633644 -0.0464421 5.78960515 -1.9375 9.6875 C-2.50339844 10.86699219 -3.06929687 12.04648437 -3.65234375 13.26171875 C-4.09707031 14.16535156 -4.54179688 15.06898438 -5 16 C-6.231394 12.30581799 -5.64432764 9.7943739 -5 6 C-4.01 6 -3.02 6 -2 6 C-1.34 4.02 -0.68 2.04 0 0 Z " transform="translate(798,627)" style="fill: #121924;"/><path d="M0 0 C0.99 0 1.98 0 3 0 C3 2.31 3 4.62 3 7 C2.34 7 1.68 7 1 7 C1 10.3 1 13.6 1 17 C0.67 17 0.34 17 0 17 C0 11.39 0 5.78 0 0 Z " transform="translate(953,505)" style="fill: #2F3946;"/><path d="M0 0 C1.09570312 0.19464844 2.19140625 0.38929688 3.3203125 0.58984375 C4.16335938 0.74582031 5.00640625 0.90179688 5.875 1.0625 C2.09864747 3.58006835 -0.68865558 3.70022451 -5.125 3.0625 C-7.125 1.5625 -7.125 1.5625 -8.125 0.0625 C-5.2144446 -1.3927777 -3.16650948 -0.57266661 0 0 Z " transform="translate(285.125,481.9375)" style="fill: #293745;"/><path d="M0 0 C0.66 0.33 1.32 0.66 2 1 C-0.63848309 4.61569905 -2.95293333 7.02835214 -7 9 C-7.99 9 -8.98 9 -10 9 C-8.89902432 7.87187697 -7.79408444 6.74762189 -6.6875 5.625 C-6.07261719 4.99851562 -5.45773438 4.37203125 -4.82421875 3.7265625 C-3 2 -3 2 0 0 Z " transform="translate(125,260)" style="fill: #151A26;"/><path d="M0 0 C2.97 0 5.94 0 9 0 C8 3 8 3 6 4 C5.01 5.485 5.01 5.485 4 7 C3.67 6.01 3.34 5.02 3 4 C2.01 3.34 1.02 2.68 0 2 C0 1.34 0 0.68 0 0 Z " transform="translate(586,691)" style="fill: #2C3745;"/><path d="M0 0 C0.33 0.66 0.66 1.32 1 2 C0.06421005 4.35981813 -0.93347808 6.69631264 -2 9 C-2.99 9 -3.98 9 -5 9 C-4.67 7.68 -4.34 6.36 -4 5 C-4.66 4.67 -5.32 4.34 -6 4 C-4.02 2.68 -2.04 1.36 0 0 Z " transform="translate(794,574)" style="fill: #92DEED;"/><path d="M0 0 C0.33 0.66 0.66 1.32 1 2 C1.99 1.67 2.98 1.34 4 1 C4 1.99 4 2.98 4 4 C3.34 4 2.68 4 2 4 C2.33 6.97 2.66 9.94 3 13 C0.89172945 9.83759418 0.66182535 8.49342531 0.375 4.8125 C0.30023437 3.91144531 0.22546875 3.01039063 0.1484375 2.08203125 C0.09945312 1.39496094 0.05046875 0.70789063 0 0 Z " transform="translate(802,448)" style="fill: #131824;"/><path d="M0 0 C1.670625 0.061875 1.670625 0.061875 3.375 0.125 C3.705 0.785 4.035 1.445 4.375 2.125 C1.25728073 3.72839848 -0.01511689 4.31474141 -3.4375 3.25 C-4.159375 2.87875 -4.88125 2.5075 -5.625 2.125 C-3.625 0.125 -3.625 0.125 0 0 Z " transform="translate(865.625,377.875)" style="fill: #212834;"/><path d="M0 0 C0.66 0.33 1.32 0.66 2 1 C1.360625 1.2475 0.72125 1.495 0.0625 1.75 C-2.19895007 2.79688294 -2.19895007 2.79688294 -2.5625 5.0625 C-2.706875 5.701875 -2.85125 6.34125 -3 7 C-3.99 7.33 -4.98 7.66 -6 8 C-6 6.68 -6 5.36 -6 4 C-3 1.75 -3 1.75 0 0 Z " transform="translate(717,605)" style="fill: #19202C;"/><path d="M0 0 C1.231394 3.69418201 0.64432764 6.2056261 0 10 C-0.66 10 -1.32 10 -2 10 C-2.33 10.66 -2.66 11.32 -3 12 C-3.34833144 7.12335991 -2.41685712 4.22949995 0 0 Z " transform="translate(81,305)" style="fill: #191F2B;"/><path d="M0 0 C1.98 0 3.96 0 6 0 C5.01 0.33 4.02 0.66 3 1 C2.67 3.64 2.34 6.28 2 9 C-0.29013653 5.5647952 -0.17842973 4.014669 0 0 Z " transform="translate(819,409)" style="fill: #F55354;"/><path d="M0 0 C1.2065625 0.0309375 1.2065625 0.0309375 2.4375 0.0625 C2.7675 1.3825 3.0975 2.7025 3.4375 4.0625 C1.4575 4.0625 -0.5225 4.0625 -2.5625 4.0625 C-2.8925 3.0725 -3.2225 2.0825 -3.5625 1.0625 C-2.5625 0.0625 -2.5625 0.0625 0 0 Z " transform="translate(591.5625,759.9375)" style="fill: #8DD9EE;"/><path d="M0 0 C2.94149514 0.0644123 5.17067353 1.05689118 8 2 C8 2.33 8 2.66 8 3 C2.06 3.495 2.06 3.495 -4 4 C-2.68 2.68 -1.36 1.36 0 0 Z " transform="translate(659,530)" style="fill: #263442;"/><path d="M0 0 C0.99 0.33 1.98 0.66 3 1 C2.0409375 1.556875 2.0409375 1.556875 1.0625 2.125 C-1.63858072 4.58052793 -1.68407005 6.44578805 -2 10 C-3.5625 8.1875 -3.5625 8.1875 -5 6 C-3.86525052 2.59575156 -3.03188696 1.78346291 0 0 Z " transform="translate(854,511)" style="fill: #F75153;"/><path d="M0 0 C0.99 0.33 1.98 0.66 3 1 C3.33 1.99 3.66 2.98 4 4 C3.01 5.485 3.01 5.485 2 7 C1.01 6.67 0.02 6.34 -1 6 C-1.6875 3.9375 -1.6875 3.9375 -2 2 C-1.34 2 -0.68 2 0 2 C0 1.34 0 0.68 0 0 Z " transform="translate(374,498)" style="fill: #80C7E2;"/><path d="M0 0 C0.33 0 0.66 0 1 0 C1.33 3.96 1.66 7.92 2 12 C1.34 12 0.68 12 0 12 C-0.33 12.99 -0.66 13.98 -1 15 C-0.67 10.05 -0.34 5.1 0 0 Z " transform="translate(927,472)" style="fill: #D84B4E;"/><path d="M0 0 C1.98362069 2.91708924 1.9876191 4.12380904 1.625 7.75 C1.41875 8.8225 1.2125 9.895 1 11 C-1 9 -1 9 -1.1875 5.5 C-1 2 -1 2 0 0 Z " transform="translate(767,426)" style="fill: #1D232F;"/><path d="M0 0 C0.66 0.33 1.32 0.66 2 1 C-0.31 2.65 -2.62 4.3 -5 6 C-6.32 5.34 -7.64 4.68 -9 4 C-7.6078125 3.566875 -7.6078125 3.566875 -6.1875 3.125 C-2.90208333 2.1125 -2.90208333 2.1125 0 0 Z " transform="translate(715,709)" style="fill: #141B25;"/><path d="M0 0 C0.66 0.33 1.32 0.66 2 1 C1.50351065 5.46840411 1.31012244 6.68987756 -2 10 C-1.34 6.7 -0.68 3.4 0 0 Z " transform="translate(821,569)" style="fill: #1A202C;"/><path d="M0 0 C3.63 0.33 7.26 0.66 11 1 C11 1.33 11 1.66 11 2 C7.37 2.33 3.74 2.66 0 3 C0 2.01 0 1.02 0 0 Z " transform="translate(515,530)" style="fill: #293544;"/><path d="M0 0 C2.01822917 0.06510417 4.03645833 0.13020833 6.0546875 0.1953125 C5.0646875 0.5253125 4.0746875 0.8553125 3.0546875 1.1953125 C3.0546875 2.1853125 3.0546875 3.1753125 3.0546875 4.1953125 C2.3946875 4.1953125 1.7346875 4.1953125 1.0546875 4.1953125 C1.0546875 3.5353125 1.0546875 2.8753125 1.0546875 2.1953125 C-0.5953125 2.1953125 -2.2453125 2.1953125 -3.9453125 2.1953125 C-1.9453125 0.1953125 -1.9453125 0.1953125 0 0 Z " transform="translate(875.9453125,507.8046875)" style="fill: #1C2A3A;"/><path d="M0 0 C1.5625 1.625 1.5625 1.625 3 4 C2.6875 7.25 2.6875 7.25 2 10 C1.01 9.67 0.02 9.34 -1 9 C-0.67 6.03 -0.34 3.06 0 0 Z " transform="translate(814,501)" style="fill: #2A3645;"/><path d="M0 0 C3 -0.3125 3 -0.3125 6 0 C6.66 0.66 7.32 1.32 8 2 C7 3 7 3 4.93359375 3.09765625 C4.10988281 3.08605469 3.28617188 3.07445312 2.4375 3.0625 C1.61121094 3.05347656 0.78492188 3.04445313 -0.06640625 3.03515625 C-0.70449219 3.02355469 -1.34257812 3.01195312 -2 3 C-1.34 2.01 -0.68 1.02 0 0 Z " transform="translate(225,472)" style="fill: #323E4A;"/><path d="M0 0 C-0.33 0.66 -0.66 1.32 -1 2 C-4.0625 2.625 -4.0625 2.625 -7 3 C-7.66 2.01 -8.32 1.02 -9 0 C-5.62182575 -0.84454356 -3.32534757 -1.10844919 0 0 Z " transform="translate(881,376)" style="fill: #313945;"/><path d="M0 0 C0.33 0.66 0.66 1.32 1 2 C-1.52956528 5.0916909 -4.22454612 5.90931332 -8 7 C-5.42215154 4.35247996 -3.08351902 2.05567935 0 0 Z " transform="translate(699,693)" style="fill: #151820;"/><path d="M0 0 C2.8125 -0.1875 2.8125 -0.1875 6 0 C6.99 0.99 7.98 1.98 9 3 C6.03 3 3.06 3 0 3 C0 2.01 0 1.02 0 0 Z " transform="translate(629,538)" style="fill: #81C7DF;"/><path d="M0 0 C-1.65 0.33 -3.3 0.66 -5 1 C-5 1.66 -5 2.32 -5 3 C-7.97 2.505 -7.97 2.505 -11 2 C-7.54930647 -0.30046235 -3.95022851 -1.97511426 0 0 Z " transform="translate(914,408)" style="fill: #132A3B;"/><path d="M0 0 C0.33 1.32 0.66 2.64 1 4 C1.66 4 2.32 4 3 4 C2.67 6.31 2.34 8.62 2 11 C-0.67927341 6.98108988 -0.15601248 4.75838077 0 0 Z " transform="translate(114,739)" style="fill: #94E7F5;"/></svg>