<?xml version="1.0" encoding="UTF-8" standalone="no"?>
<!DOCTYPE svg PUBLIC "-//W3C//DTD SVG 1.1//EN" "http://www.w3.org/Graphics/SVG/1.1/DTD/svg11.dtd">
<svg width="100%" height="100%" viewBox="0 0 24 24" version="1.1" xmlns="http://www.w3.org/2000/svg" xmlns:xlink="http://www.w3.org/1999/xlink" xml:space="preserve" xmlns:serif="http://www.serif.com/" style="fill-rule:evenodd;clip-rule:evenodd;stroke-linecap:round;stroke-linejoin:round;stroke-miterlimit:1.5;">
    <g transform="matrix(0.773348,-0.410892,0.3128,0.588728,-0.0696768,6.57525)">
        <rect x="7.5" y="3" width="9" height="3" style="fill:none;stroke:rgb(51,51,51);stroke-width:1.28px;"/>
    </g>
    <g transform="matrix(0.282742,-0.150225,0.1564,0.294364,7.2252,6.09652)">
        <rect x="7.5" y="3" width="9" height="3" style="fill:none;stroke:rgb(51,51,51);stroke-width:3.06px;"/>
    </g>
    <path d="M7,6L6,8" style="fill:none;stroke:rgb(51,51,51);stroke-width:1px;"/>
    <path d="M6,8L9,9" style="fill:none;stroke:rgb(51,51,51);stroke-width:1px;"/>
    <path d="M11.5,23L9,19" style="fill:none;stroke:rgb(51,51,51);stroke-width:1px;"/>
    <path d="M11.5,23L14,19" style="fill:none;stroke:rgb(51,51,51);stroke-width:1px;"/>
    <g transform="matrix(1,0,0,1.1,3.55271e-15,4.7)">
        <path d="M9,3L9,13" style="fill:none;stroke:rgb(51,51,51);stroke-width:0.95px;"/>
    </g>
    <path d="M9,8L14,8" style="fill:none;stroke:rgb(51,51,51);stroke-width:1px;"/>
    <g transform="matrix(1,0,0,0.846154,-1,5.46154)">
        <path d="M15,3L15,16" style="fill:none;stroke:rgb(51,51,51);stroke-width:1.08px;"/>
    </g>
    <g transform="matrix(1,0,0,1,3.55271e-15,2)">
        <path d="M9,9L12,9" style="fill:none;stroke:rgb(51,51,51);stroke-width:1px;"/>
    </g>
    <g transform="matrix(1,0,0,1,3.55271e-15,4)">
        <path d="M9,9L12,9" style="fill:none;stroke:rgb(51,51,51);stroke-width:1px;"/>
    </g>
    <g transform="matrix(1,0,0,1,3.55271e-15,4)">
        <path d="M9,9L12,9" style="fill:none;stroke:rgb(51,51,51);stroke-width:1px;"/>
    </g>
    <g transform="matrix(1,0,0,1,7.10543e-15,6)">
        <path d="M9,9L12,9" style="fill:none;stroke:rgb(51,51,51);stroke-width:1px;"/>
    </g>
</svg>
