<?xml version="1.0" encoding="UTF-8" standalone="no"?>
<!DOCTYPE svg PUBLIC "-//W3C//DTD SVG 1.1//EN" "http://www.w3.org/Graphics/SVG/1.1/DTD/svg11.dtd">
<svg width="100%" height="100%" viewBox="0 0 24 24" version="1.1" xmlns="http://www.w3.org/2000/svg" xmlns:xlink="http://www.w3.org/1999/xlink" xml:space="preserve" xmlns:serif="http://www.serif.com/" style="fill-rule:evenodd;clip-rule:evenodd;stroke-linecap:round;stroke-linejoin:round;stroke-miterlimit:1.5;">
    <rect x="7.5" y="3" width="9" height="3" style="fill:rgb(51,51,51);stroke:rgb(51,51,51);stroke-width:1px;"/>
    <g transform="matrix(1,0,0,1.3,0,2.1)">
        <path d="M9,3L9,13" style="fill:none;stroke:rgb(51,51,51);stroke-width:0.86px;"/>
    </g>
    <g transform="matrix(1,0,0,1,0,3)">
        <path d="M15,3L15,16" style="fill:none;stroke:rgb(51,51,51);stroke-width:1px;"/>
    </g>
    <g transform="matrix(1,0,0,1,0,3)">
        <path d="M9,16L12,18" style="fill:none;stroke:rgb(51,51,51);stroke-width:1px;"/>
    </g>
    <g transform="matrix(1,0,0,1,0,3)">
        <path d="M12,18L15,16" style="fill:none;stroke:rgb(51,51,51);stroke-width:1px;"/>
    </g>
    <path d="M9,9L12,9" style="fill:none;stroke:rgb(51,51,51);stroke-width:1px;"/>
    <g transform="matrix(1,0,0,1,0,2)">
        <path d="M9,9L12,9" style="fill:none;stroke:rgb(51,51,51);stroke-width:1px;"/>
    </g>
    <g transform="matrix(1,0,0,1,0,2)">
        <path d="M9,9L12,9" style="fill:none;stroke:rgb(51,51,51);stroke-width:1px;"/>
    </g>
    <g transform="matrix(1,0,0,1,3.55271e-15,4)">
        <path d="M9,9L12,9" style="fill:none;stroke:rgb(51,51,51);stroke-width:1px;"/>
    </g>
    <g transform="matrix(1,0,0,1,3.55271e-15,6)">
        <path d="M9,9L12,9" style="fill:none;stroke:rgb(51,51,51);stroke-width:1px;"/>
    </g>
</svg>
