<?xml version="1.0" encoding="UTF-8"?>
<!-- Generator: visioncortex VTracer -->
<svg id="svg" version="1.1" xmlns="http://www.w3.org/2000/svg" style="display: block;" viewBox="0 0 2048 2048"><path d="M0 0 C675.84 0 1351.68 0 2048 0 C2048 675.84 2048 1351.68 2048 2048 C1372.16 2048 696.32 2048 0 2048 C0 1372.16 0 696.32 0 0 Z " transform="translate(0,0)" style="fill: #FEFEFE;"/><path d="M0 0 C1.34756175 0.59370036 2.67996943 1.22237295 4 1.875 C4.8765625 2.28878906 5.753125 2.70257813 6.65625 3.12890625 C19.12592921 9.41513189 26.04593118 18.982947 32.203125 31.27734375 C33.27420674 34.76886021 33.36823713 38.13186714 33.375 41.75 C33.39949219 42.43191406 33.42398437 43.11382812 33.44921875 43.81640625 C33.49577921 51.96448734 29.39315953 56.80151637 23.9375 62.5625 C22.96208629 63.60272086 21.98683053 64.64308985 21.01171875 65.68359375 C20.51462402 66.20937012 20.0175293 66.73514648 19.50537109 67.27685547 C17.06237748 69.87040659 14.65683638 72.49794126 12.25 75.125 C11.40953125 76.03765625 10.5690625 76.9503125 9.703125 77.890625 C7.65138189 80.13630631 5.64995334 82.42143702 3.65625 84.71875 C-0.04015984 88.95668489 -3.87919796 93.04667354 -7.75 97.125 C-19.43532994 109.48725333 -19.43532994 109.48725333 -30.75 122.1875 C-33.45288034 125.30868325 -36.31339726 128.20949242 -39.2578125 131.1015625 C-41.04715827 132.92300415 -42.71288532 134.81214279 -44.375 136.75 C-47.67088134 140.57795187 -51.21015354 144.10264298 -54.8046875 147.6484375 C-57.44006743 150.32133174 -59.87766489 153.12868303 -62.3203125 155.9765625 C-64.49286935 158.43205699 -66.81843603 160.70628437 -69.15771484 163.00146484 C-70.930399 164.80421838 -72.5869598 166.66090002 -74.234375 168.578125 C-77.9637204 172.86726643 -81.83769759 177.00307593 -85.75 181.125 C-91.33716671 187.03613496 -96.88005431 192.98050046 -102.36328125 198.98828125 C-105.21100592 202.1060124 -108.07212825 205.21099911 -110.9375 208.3125 C-111.43741455 208.85366455 -111.9373291 209.3948291 -112.45239258 209.95239258 C-113.464312 211.04772896 -114.47627498 212.14302511 -115.48828125 213.23828125 C-116.98252338 214.85607829 -118.47580716 216.47475394 -119.96875 218.09375 C-120.95831967 219.16667927 -121.94790301 220.23959593 -122.9375 221.3125 C-123.42621582 221.84246582 -123.91493164 222.37243164 -124.41845703 222.91845703 C-127.07153722 225.79327687 -129.73090806 228.66201609 -132.3984375 231.5234375 C-139.01149796 238.5834351 -139.01149796 238.5834351 -145.4375 245.8125 C-148.71794001 249.61005371 -152.1357055 253.27253376 -155.5625 256.9375 C-156.16553955 257.58251465 -156.7685791 258.2275293 -157.38989258 258.89208984 C-160.45239004 262.16364112 -163.52154016 265.42875267 -166.59765625 268.6875 C-172.89105391 275.37043937 -179.01509166 282.1448655 -184.94262695 289.1550293 C-187.9658877 292.71641918 -191.08430381 296.07982478 -194.44140625 299.32421875 C-196.75566302 301.62687524 -198.85357098 304.10267806 -200.984375 306.57421875 C-204.30432561 310.3638523 -207.73749902 314.04970482 -211.15625 317.75 C-213.27065481 320.05341865 -215.33272251 322.39701563 -217.3828125 324.7578125 C-220.94973577 328.84956917 -224.64493964 332.80723532 -228.375 336.75 C-233.2522786 341.92837468 -238.08402068 347.1370911 -242.8203125 352.4453125 C-245.39825383 355.31893169 -248.01057464 358.15961485 -250.625 361 C-253.62193211 364.25878011 -256.59914873 367.52999925 -259.5 370.875 C-263.76238265 375.78843871 -268.18778584 380.55299519 -272.59033203 385.34033203 C-280.0059744 393.40598456 -280.0059744 393.40598456 -287.25 401.625 C-290.7316407 405.63717642 -294.36725662 409.50029426 -298 413.375 C-302.20019598 417.85524551 -306.36455142 422.34787965 -310.375 427 C-315.51430767 432.92997038 -320.83924419 438.70090827 -326.125 444.5 C-328.90812892 447.55631949 -331.66979803 450.62457248 -334.375 453.75 C-338.02264177 457.95083863 -341.8124982 462.01606074 -345.5949707 466.0949707 C-348.84850273 469.60964215 -352.0340121 473.17099939 -355.16796875 476.79296875 C-357.53249977 479.48016498 -359.95216715 482.11551549 -362.375 484.75 C-368.46659126 491.37446239 -374.52948443 498.02310215 -380.4375 504.8125 C-384.08937053 509.00664365 -387.84266184 513.10594292 -391.58984375 517.21484375 C-394.17308398 520.06603759 -396.70878932 522.95383337 -399.23046875 525.859375 C-401.25114956 528.16107764 -403.31312618 530.42264379 -405.375 532.6875 C-408.44746773 536.08583552 -411.38442622 539.55090523 -414.25 543.125 C-418.90658812 548.88446426 -423.92834177 554.25448699 -428.9921875 559.65234375 C-431.84546778 562.69637013 -434.61188009 565.80466877 -437.3359375 568.96484375 C-439.31540126 571.23704511 -441.3458317 573.45959872 -443.375 575.6875 C-446.48528851 579.12878205 -449.46478312 582.63821298 -452.375 586.25 C-455.57957471 590.2112104 -458.90811543 594.01826278 -462.375 597.75 C-469.35199245 605.27273321 -475.92997691 613.10821103 -482.41796875 621.0546875 C-487.75060064 627.58233764 -493.06330089 634.082269 -498.8125 640.25 C-502.96405731 644.70459069 -506.86774656 649.28675689 -510.6875 654.02734375 C-513.24866847 657.18121505 -515.86727297 660.28090937 -518.5 663.375 C-522.62625246 668.23004325 -526.68143957 673.13652331 -530.69921875 678.08203125 C-532.74669192 680.56750378 -534.83198612 683.01548433 -536.93286133 685.45581055 C-541.97404788 691.32663849 -546.70586249 697.36646286 -551.31005859 703.58520508 C-555.10457734 708.70628758 -559.00184945 713.73684711 -562.9375 718.75 C-595.40439771 760.33181695 -621.53414041 806.42489262 -640 855.875 C-640.30325195 856.68146973 -640.60650391 857.48793945 -640.91894531 858.31884766 C-641.61473727 860.17010787 -642.30773133 862.02241939 -643 863.875 C-641.79988281 863.32972656 -640.59976563 862.78445313 -639.36328125 862.22265625 C-637.6798543 861.46056894 -635.99624536 860.69888356 -634.3125 859.9375 C-633.40983398 859.52854492 -632.50716797 859.11958984 -631.57714844 858.69824219 C-627.02254771 856.64544221 -622.46011833 854.63136649 -617.83984375 852.73046875 C-586.54376516 839.8397733 -558.84231805 821.28358756 -532 800.875 C-531.26072266 800.31441895 -530.52144531 799.75383789 -529.75976562 799.17626953 C-524.82415467 795.42945782 -519.90869672 791.65696741 -515 787.875 C-513.83607768 786.98028636 -512.67202209 786.08574605 -511.5078125 785.19140625 C-509.37266621 783.55080797 -507.23875151 781.90865023 -505.10546875 780.265625 C-503.00543382 778.64899434 -500.90419656 777.03408886 -498.80078125 775.421875 C-482.04756873 762.57588844 -465.61528061 749.38445404 -449.53100586 735.70703125 C-446.21695929 732.89214765 -442.87195144 730.12017661 -439.5 727.375 C-433.81934873 722.74815071 -428.23114364 718.01742723 -422.6484375 713.2734375 C-421.03915996 711.90822101 -419.42652574 710.54709803 -417.8125 709.1875 C-408.07509888 700.98113679 -398.43481839 692.66264018 -388.875 684.25 C-385.02426271 680.87230587 -381.10800509 677.57277391 -377.19433594 674.26855469 C-367.60001559 666.1646142 -358.0901573 657.96331133 -348.60595703 649.73095703 C-344.41701603 646.09692878 -340.21373863 642.4802329 -336 638.875 C-322.25494214 627.13671192 -322.25494214 627.13671192 -308.75 615.125 C-305.43560714 612.11739392 -302.04340917 609.25070304 -298.5625 606.4375 C-293.78715598 602.57558325 -289.26332315 598.49825776 -284.74609375 594.33984375 C-282.08124834 591.94792703 -279.35168175 589.68245116 -276.5625 587.4375 C-272.56776014 584.21556899 -268.75445651 580.86844505 -265 577.375 C-260.38995664 573.08544887 -255.62217044 569.07089328 -250.71484375 565.12109375 C-247.89326505 562.7866941 -245.19409288 560.35509402 -242.5 557.875 C-238.94329756 554.60081577 -235.32838189 551.46857567 -231.5625 548.4375 C-227.56776014 545.21556899 -223.75445651 541.86844505 -220 538.375 C-215.39341882 534.08867036 -210.62873004 530.07748212 -205.7265625 526.12890625 C-201.87987291 522.94904967 -198.21844082 519.58183001 -194.54296875 516.20703125 C-188.48501233 510.65157813 -182.2099927 505.35962739 -175.92285156 500.06713867 C-172.51559097 497.18850599 -169.17316276 494.25405908 -165.875 491.25 C-162.49838782 488.17935915 -159.04739846 485.24670352 -155.5 482.375 C-150.97400672 478.71079669 -146.62436929 474.89741167 -142.31640625 470.98046875 C-137.87608701 466.94449561 -133.34362154 463.01747821 -128.77734375 459.125 C-122.23450898 453.54525027 -115.77556298 447.90575869 -109.43359375 442.09765625 C-103.2907149 436.48722597 -96.94609548 431.1079142 -90.62573242 425.69970703 C-86.23599591 421.94138289 -81.86385971 418.16332468 -77.5 414.375 C-72.6582696 410.17287319 -67.80645375 405.98306064 -62.9375 401.8125 C-62.36676758 401.32354248 -61.79603516 400.83458496 -61.20800781 400.33081055 C-58.26241294 397.80857209 -55.31406179 395.28960695 -52.36328125 392.7734375 C-47.12510827 388.30189516 -41.90702385 383.82327526 -36.8125 379.1875 C-33.47772886 376.15787132 -30.06712361 373.26891908 -26.5625 370.4375 C-21.72550024 366.52280952 -17.11732958 362.40760017 -12.53515625 358.19921875 C-7.94806222 353.99379356 -3.23193737 349.93934789 1.4765625 345.87109375 C7.97358691 340.25443391 14.44390163 334.61858172 20.80859375 328.8515625 C23.49468494 326.42881358 26.21990323 324.05348096 28.94921875 321.6796875 C31.26088797 319.64541859 33.5353143 317.5727769 35.8125 315.5 C40.18285684 311.55128555 44.70303079 307.8287279 49.28125 304.125 C52.77908151 301.23024289 56.11785404 298.17910461 59.47265625 295.12109375 C62.06962393 292.81312402 64.73404013 290.61944137 67.4375 288.4375 C72.27161863 284.52514127 76.8770699 280.41232721 81.45703125 276.20703125 C87.51498767 270.65157813 93.7900073 265.35962739 100.07714844 260.06713867 C103.48440903 257.18850599 106.82683724 254.25405908 110.125 251.25 C113.45874513 248.21736734 116.86566811 245.32751883 120.375 242.5 C125.52254549 238.33536631 130.38352388 233.92194859 135.23828125 229.42578125 C142.07806228 223.10841631 149.20417782 217.11086249 156.28125 211.0625 C158.72846203 208.9692872 161.16529289 206.86493639 163.59375 204.75 C186.01205704 185.27513707 186.01205704 185.27513707 195.0234375 185.41796875 C207.2982247 187.30268017 216.91781313 197.17446312 224.09765625 206.640625 C231.18097951 217.16785703 234.44105754 227.10692029 233 239.875 C230.73335157 249.82780211 219.41223537 257.82644542 212.015625 264.140625 C209.69885379 266.13412581 207.44580016 268.19054388 205.1875 270.25 C201.64839998 273.45152433 198.02896894 276.50646063 194.3125 279.5 C191.21408547 282.00473231 188.26703053 284.5089111 185.5 287.375 C182.79103326 290.18025702 179.91664461 292.62129532 176.875 295.0625 C171.34978953 299.50850842 166.17766602 304.25962784 160.99609375 309.09375 C158.06143494 311.8299604 155.05796386 314.47676122 152.0234375 317.1015625 C149.48498829 319.32638092 146.99358224 321.60003319 144.5 323.875 C141.40268033 326.70077384 138.2959585 329.50718779 135.125 332.25 C131.5142767 335.3852371 128.0061171 338.62405447 124.5 341.875 C120.36854657 345.70542822 116.20890451 349.48762565 111.94921875 353.17578125 C107.91905909 356.68904669 103.96793932 360.29183056 100 363.875 C94.71670028 368.64597975 89.42215589 373.39861592 84.05078125 378.0703125 C81.73911203 380.10458141 79.4646857 382.1772231 77.1875 384.25 C73.66989182 387.43259788 70.07252949 390.46617962 66.375 393.4375 C63.06614581 396.111462 59.96209117 398.82223257 57 401.875 C53.21724632 405.77331642 49.0981389 409.11679978 44.8671875 412.515625 C40.96423191 415.72732143 37.25699669 419.13255086 33.53515625 422.55078125 C28.97236291 426.73392769 24.28399653 430.76962873 19.59375 434.80859375 C12.50226696 440.9232683 5.50163425 447.10944374 -1.375 453.46484375 C-3.53614429 455.44910867 -5.71839708 457.3939006 -7.9375 459.3125 C-11.52958789 462.42464295 -15.01548282 465.64375835 -18.5 468.875 C-22.62872916 472.70294525 -26.7848622 476.48358603 -31.04296875 480.16796875 C-33.3855915 482.21133431 -35.69273422 484.29180859 -38 486.375 C-40.98062721 489.06483431 -43.97245233 491.73810364 -47 494.375 C-51.71702877 498.48582427 -56.35569709 502.6824226 -61 506.875 C-63.49687992 509.12296977 -65.99453151 511.37008007 -68.4921875 513.6171875 C-70.18592894 515.14208244 -71.87861169 516.66815402 -73.5703125 518.1953125 C-79.81438939 523.82834822 -86.11718046 529.38501272 -92.48046875 534.8828125 C-98.98066743 540.50143208 -105.45434128 546.13903808 -111.8203125 551.91015625 C-113.7983952 553.69326664 -115.798558 555.44514769 -117.8125 557.1875 C-122.03143491 560.85874356 -126.11940112 564.66743726 -130.21972656 568.46972656 C-133.73521176 571.72404977 -137.2957435 574.91200227 -140.921875 578.04296875 C-143.06847916 579.93536978 -145.16953956 581.87318661 -147.26806641 583.81860352 C-151.63441236 587.86537657 -156.03775085 591.77499088 -160.6875 595.5 C-165.04811676 599.00854222 -168.98472087 602.7549533 -172.890625 606.7578125 C-175.45574185 609.33242979 -178.15513372 611.70262977 -180.91015625 614.0703125 C-185.00098367 617.60295226 -188.98810228 621.25331725 -193 624.875 C-195.49687992 627.12296977 -197.99453151 629.37008007 -200.4921875 631.6171875 C-202.18592894 633.14208244 -203.87861169 634.66815402 -205.5703125 636.1953125 C-209.97590339 640.16977523 -214.40528272 644.11079301 -218.8828125 648.00390625 C-221.39018296 650.21982959 -223.84901589 652.48540908 -226.3125 654.75 C-230.01142507 658.13128885 -233.78072084 661.36159015 -237.6875 664.5 C-241.70142319 667.73611912 -245.32026081 671.14007431 -248.90234375 674.83984375 C-252.20527016 678.04435894 -255.8235418 680.84450885 -259.41015625 683.72265625 C-261.57825496 685.52449998 -263.54791816 687.34801814 -265.5 689.375 C-268.17041844 692.13989079 -270.99595992 694.53868565 -274 696.9375 C-279.46231479 701.32995452 -284.55647551 706.0488123 -289.65551758 710.85498047 C-293.36981916 714.35577271 -297.12050059 717.7863122 -300.9921875 721.11328125 C-303.11689845 722.97757043 -305.19100415 724.89242125 -307.26367188 726.81420898 C-311.6310925 730.86288501 -316.03613955 734.77370003 -320.6875 738.5 C-325.05103052 742.01088662 -328.98976045 745.76026689 -332.8984375 749.765625 C-335.41493825 752.29148077 -338.06532398 754.6087112 -340.76953125 756.9296875 C-343.5586588 759.36223658 -346.27915879 761.86680377 -349 764.375 C-352.93261507 767.99615098 -356.90214646 771.56459475 -360.94140625 775.06640625 C-363.4895665 777.3051125 -365.99410593 779.58910212 -368.5 781.875 C-372.29415849 785.33514728 -376.11967237 788.74979115 -379.99609375 792.1171875 C-382.22804087 794.07503585 -384.42620859 796.06749902 -386.625 798.0625 C-391.28464813 802.2705207 -396.04158697 806.35429717 -400.82006836 810.42578125 C-404.32576236 813.41934323 -407.77920027 816.4576419 -411.1875 819.5625 C-415.32696786 823.31893269 -419.61336266 826.85059262 -423.95703125 830.3671875 C-427.48091188 833.27133559 -430.9313436 836.25159111 -434.375 839.25 C-444.54364172 848.09397141 -454.77090562 856.78736463 -465.41015625 865.0625 C-467.83605762 866.95291591 -470.23689119 868.86976897 -472.62109375 870.8125 C-480.53174285 877.25034918 -488.64917843 883.25161872 -497.01953125 889.078125 C-500.36613415 891.41292749 -503.63252859 893.83429312 -506.875 896.3125 C-548.99526247 928.11643296 -596.11450479 953.90114009 -643.02574158 977.81521606 C-648.71297351 980.71833997 -654.36350456 983.68706194 -660 986.6875 C-677.32254418 995.875 -677.32254418 995.875 -681 995.875 C-681.226875 997.133125 -681.45375 998.39125 -681.6875 999.6875 C-682.86177697 1005.57542398 -684.41641709 1011.342679 -685.96923828 1017.13891602 C-687.81791955 1024.08121835 -689.50547655 1031.05467131 -691.12426758 1038.05395508 C-692.25153037 1042.88473473 -693.48041519 1047.67487345 -694.78515625 1052.4609375 C-697.76898793 1063.4858151 -700.28150187 1074.62847937 -702.875 1085.75 C-705.96858992 1098.98511604 -709.0678517 1112.21867707 -712.23046875 1125.4375 C-712.47252045 1126.45238495 -712.71457214 1127.4672699 -712.96395874 1128.51290894 C-714.36869036 1134.36702779 -715.85624697 1140.19120795 -717.4375 1146 C-719.52046689 1153.74728622 -721.30436987 1161.55107654 -723.04327393 1169.38174438 C-732.64654161 1212.60671572 -748.47889791 1251.15174299 -778 1284.875 C-778.74121094 1285.74511719 -779.48242188 1286.61523438 -780.24609375 1287.51171875 C-782.43864979 1290.02909791 -784.69780634 1292.45701553 -787 1294.875 C-787.61294922 1295.52049805 -788.22589844 1296.16599609 -788.85742188 1296.83105469 C-798.60075987 1307.02387565 -808.58819196 1316.24095589 -820.04638672 1324.46826172 C-821.87157049 1325.78252176 -823.67434222 1327.12197786 -825.47265625 1328.47265625 C-846.79468669 1344.32877641 -870.88776646 1357.22840141 -896 1365.875 C-897.35154165 1366.38201434 -898.70176806 1366.89254603 -900.05078125 1367.40625 C-903.39627095 1368.66855469 -906.76276333 1369.7802055 -910.1875 1370.8125 C-911.17105469 1371.11027344 -912.15460938 1371.40804688 -913.16796875 1371.71484375 C-913.74192383 1371.8857251 -914.31587891 1372.05660645 -914.90722656 1372.23266602 C-916.50897506 1372.72428994 -918.10345516 1373.23965214 -919.69433594 1373.76538086 C-928.21060305 1376.52201828 -936.76046897 1378.43086348 -945.53759766 1380.11254883 C-947.86745 1380.56104662 -950.19337434 1381.02690013 -952.51953125 1381.49414062 C-969.05077943 1384.74985749 -985.34205837 1385.06158325 -1002.14501953 1385.06030273 C-1005.38977796 1385.06251005 -1008.63420668 1385.08079315 -1011.87890625 1385.09960938 C-1013.96874886 1385.1025407 -1016.05859305 1385.10452724 -1018.1484375 1385.10546875 C-1019.58308853 1385.11624702 -1019.58308853 1385.11624702 -1021.04672241 1385.12724304 C-1031.18269052 1385.09304567 -1038.35341803 1383.67364417 -1046 1376.875 C-1046.68191406 1376.28589844 -1047.36382813 1375.69679688 -1048.06640625 1375.08984375 C-1054.70907212 1368.95136504 -1059.84192243 1362.50399269 -1060.4375 1353.21484375 C-1060.57799519 1348.08405797 -1060.35927212 1342.99281582 -1060 1337.875 C-1059.95311035 1337.16746582 -1059.9062207 1336.45993164 -1059.85791016 1335.73095703 C-1059.19282032 1327.01591251 -1057.48797056 1320.53641869 -1051.3828125 1314.1953125 C-1047.7729784 1312.19510934 -1044.31164905 1312.47505178 -1040.25 1312.4375 C-1023.62433986 1311.8958596 -1005.2021146 1307.86014428 -992.90234375 1295.97265625 C-990.45008222 1293.26862249 -988.25761348 1290.44947432 -986.19140625 1287.44140625 C-985 1285.875 -985 1285.875 -983 1284.875 C-980.96038294 1284.79984523 -978.92045281 1284.72896494 -976.87988281 1284.68701172 C-967.80754346 1284.45666644 -961.22104512 1283.72575823 -954.34765625 1277.33984375 C-950.64899663 1273.3588437 -948.02443461 1268.74264684 -945.39453125 1264.01171875 C-942.12611434 1259.00380825 -936.40578552 1258.66357548 -930.98046875 1257.46289062 C-924.63620673 1255.98019997 -920.14602716 1253.93361438 -916.3125 1248.375 C-914.17857445 1244.31037991 -912.75878698 1239.94376005 -911.40649414 1235.56176758 C-909.72367721 1230.53614687 -907.88060605 1228.38554955 -903 1225.875 C-900.4375 1224.96875 -900.4375 1224.96875 -898 1224.375 C-891.42207045 1222.53792058 -886.83437433 1219.62656149 -883 1213.875 C-881.46330725 1210.3163431 -880.93110794 1207.19579821 -880.6875 1203.375 C-880.28985748 1199.65952771 -879.49357116 1197.14826442 -876.859375 1194.328125 C-874.37933269 1192.38994068 -871.70391589 1190.99791299 -868.9375 1189.5 C-861.99754839 1185.66341741 -860.46396521 1182.26689562 -858 1174.875 C-857.78040245 1170.5562481 -857.87046775 1166.92366172 -859 1162.75 C-860.35307901 1157.72988076 -860.84461604 1154.41340779 -858.25 1149.6875 C-854.80215154 1145.37768942 -851.32278759 1143.50654751 -846.3125 1141.3125 C-834.70412041 1135.53655444 -828.77336915 1125.54032157 -824 1113.875 C-823.61183105 1112.93261475 -823.61183105 1112.93261475 -823.21582031 1111.97119141 C-813.32757555 1086.92473112 -811.39776787 1057.4778771 -809 1030.875 C-810.16789063 1031.22111328 -810.16789063 1031.22111328 -811.359375 1031.57421875 C-818.47577284 1033.64846835 -825.61283001 1035.54826903 -832.8125 1037.3125 C-840.62392396 1039.23314775 -848.34175889 1041.36512704 -856.0390625 1043.69921875 C-858.58928527 1044.4697406 -861.12829412 1045.16598111 -863.7109375 1045.83203125 C-876.88387374 1049.24885246 -889.83527389 1054.82993044 -897.1875 1066.75 C-898.96099656 1069.85712854 -900.52378655 1072.99382547 -902 1076.25 C-903.97334372 1080.18869819 -905.82373046 1082.12856001 -910 1083.875 C-912.64941887 1083.88847162 -915.17254671 1083.59517825 -917.80078125 1083.26171875 C-929.84401768 1081.67861085 -929.84401768 1081.67861085 -941.0625 1085.3125 C-944.76077866 1088.23914533 -947.24560291 1091.67377976 -949.61328125 1095.7265625 C-951.23374089 1098.23713377 -952.63405652 1100.02750674 -955 1101.875 C-958.1015625 1102.30859375 -958.1015625 1102.30859375 -961.625 1102.3125 C-968.3383443 1102.66142642 -973.79265057 1103.35940178 -979 1107.875 C-982.15304711 1112.50219901 -984.136617 1117.49582805 -986.0390625 1122.73828125 C-986.51472656 1124.04345703 -986.51472656 1124.04345703 -987 1125.375 C-987.37125 1126.53515625 -987.37125 1126.53515625 -987.75 1127.71875 C-990.90813001 1133.16652427 -997.17777516 1134.8088114 -1002.8125 1136.6875 C-1010.75475181 1139.52453777 -1017.97746916 1142.88603984 -1022.4375 1150.4375 C-1024.53869716 1155.27690885 -1024.95116019 1160.50012994 -1025.5078125 1165.703125 C-1026.27875635 1170.67142984 -1026.27875635 1170.67142984 -1028 1172.875 C-1030.53450197 1174.30754459 -1032.98556235 1175.55068859 -1035.625 1176.75 C-1047.32471925 1182.0711751 -1047.32471925 1182.0711751 -1055 1191.875 C-1055.43405653 1195.68328884 -1055.46638039 1199.48226586 -1055.5 1203.3125 C-1055.61173458 1215.99437498 -1055.61173458 1215.99437498 -1059 1220.875 C-1061.05078125 1222.7890625 -1061.05078125 1222.7890625 -1063.3125 1224.5 C-1076.04690475 1235.39153967 -1077.33654282 1253.31096795 -1078.72851562 1268.95898438 C-1079.38019879 1275.2483053 -1080.02572853 1279.85486762 -1084 1284.875 C-1086.3802971 1286.63207921 -1088.86767226 1287.85731051 -1091.5625 1289.0625 C-1092.27124268 1289.39709229 -1092.97998535 1289.73168457 -1093.71020508 1290.07641602 C-1103.4714501 1294.60956693 -1113.99233201 1299.42182916 -1125 1297.875 C-1139.66646905 1292.46357866 -1152.20925396 1276.45649208 -1159 1262.875 C-1160.87398087 1251.13413297 -1161.40229785 1239.43479041 -1161.375 1227.5625 C-1161.37512085 1226.74405609 -1161.3752417 1225.92561218 -1161.37536621 1225.08236694 C-1161.34336641 1209.72488323 -1159.8194024 1194.98963608 -1157 1179.875 C-1156.7195785 1178.23445588 -1156.43959218 1176.59383728 -1156.16015625 1174.953125 C-1147.62544267 1127.79051945 -1124.32998361 1082.63914776 -1094 1045.875 C-1093.47083984 1045.23014648 -1092.94167969 1044.58529297 -1092.39648438 1043.92089844 C-1068.68873287 1015.23835723 -1040.01961556 991.12311507 -1007 973.875 C-1006.31486328 973.51341797 -1005.62972656 973.15183594 -1004.92382812 972.77929688 C-977.27573681 958.38400966 -946.49351821 950.77038191 -916.23046875 944.05078125 C-902.30587142 940.94696606 -888.57151312 937.24065673 -874.87109375 933.2734375 C-870.84359036 932.10985021 -866.80430322 931.00466193 -862.75 929.9375 C-846.31624807 925.58006578 -829.99239759 920.97488135 -813.8125 915.75 C-813.17376953 915.54421326 -812.53503906 915.33842651 -811.87695312 915.12640381 C-808.78729569 914.12850265 -805.70651992 913.11231616 -802.6340332 912.0625 C-800.17673941 911.25952539 -797.68999299 910.54240624 -795.18432617 909.90625 C-788.21624472 907.98755211 -788.21624472 907.98755211 -782.95776367 903.29443359 C-781.26571917 899.96503694 -779.95309242 896.63851228 -778.6875 893.125 C-777.6417575 890.49301793 -776.55844195 887.87672773 -775.48046875 885.2578125 C-775.20592865 884.57657318 -774.93138855 883.89533386 -774.64852905 883.19345093 C-771.4074597 875.22253069 -767.48195256 867.62082183 -763.5 860 C-763.13611176 859.3003714 -762.77222351 858.6007428 -762.39730835 857.87991333 C-743.99093435 822.52854 -722.96411507 788.6224042 -700.84594727 755.48608398 C-699.06296136 752.81319164 -697.28620567 750.13623031 -695.50976562 747.45898438 C-685.30136308 732.1184364 -674.66081203 717.14862535 -663.33935547 702.60888672 C-661.8393429 700.66701846 -660.35812596 698.71165735 -658.87890625 696.75390625 C-652.94546509 688.91130712 -646.88886974 681.24459607 -640.48046875 673.78515625 C-638.2654468 671.18642971 -636.11867321 668.55234972 -634 665.875 C-626.7459586 656.74082951 -619.13849642 647.94085973 -611.2578125 639.34375 C-607.22677783 634.93611347 -603.31419543 630.43421492 -599.46484375 625.8671875 C-593.1124439 618.34775197 -586.5187196 611.1269355 -579.72851562 604.00024414 C-575.23774706 599.26209355 -571.07210383 594.40518691 -567.01171875 589.29296875 C-564.24996627 585.97350314 -561.20523062 582.99762122 -558.1171875 579.984375 C-555.53613131 577.412843 -553.16093643 574.70533048 -550.78515625 571.9453125 C-544.44085903 564.58759363 -537.79969572 557.50087626 -531.16064453 550.41064453 C-527.12505206 546.09560611 -523.14448809 541.73701543 -519.20703125 537.33203125 C-516.65814219 534.49441848 -514.08112775 531.68323505 -511.5 528.875 C-508.14701809 525.22577534 -504.81001591 521.56330344 -501.5 517.875 C-496.84005144 512.68438114 -492.12641725 507.54387157 -487.40722656 502.40722656 C-484.64706165 499.40188392 -481.89073287 496.39302198 -479.13427734 493.38427734 C-476.79538563 490.83177297 -474.45432659 488.28131434 -472.109375 485.734375 C-471.63048828 485.21359375 -471.15160156 484.6928125 -470.65820312 484.15625 C-469.34047349 482.72337894 -468.02183272 481.29134596 -466.703125 479.859375 C-464.64167471 477.60277615 -462.62946394 475.30732083 -460.625 473 C-457.09331117 468.9509178 -453.44080662 465.02881224 -449.75 461.125 C-445.30264421 456.4021443 -440.87292925 451.66689254 -436.5 446.875 C-432.20534194 442.17132688 -427.8619384 437.51631199 -423.5 432.875 C-415.65368657 424.52310987 -407.88429966 416.10931696 -400.25 407.5625 C-397.16165113 404.11695776 -393.97677494 400.82231701 -390.67578125 397.58203125 C-388.88946557 395.76240432 -387.22522165 393.87046083 -385.5625 391.9375 C-383.14382221 389.12923653 -380.64100317 386.47529407 -378 383.875 C-375.37959391 381.29490785 -372.89676588 378.66396393 -370.5 375.875 C-367.48237647 372.36358352 -364.26640919 369.12192598 -360.96875 365.875 C-359.06013545 363.93608998 -357.27289448 361.93800449 -355.5 359.875 C-352.55421205 356.44717403 -349.43824653 353.26365183 -346.1875 350.125 C-344.29467836 348.17809774 -342.51310243 346.19053052 -340.734375 344.140625 C-337.01666694 339.86070763 -333.15221043 335.73636777 -329.25 331.625 C-321.3078602 323.22090538 -313.45644476 314.74649572 -305.75 306.125 C-301.77125566 301.68991223 -297.7055373 297.34110541 -293.625 293 C-289.02139199 288.10183472 -284.42407608 283.19892511 -279.875 278.25 C-279.04742188 277.35023438 -278.21984375 276.45046875 -277.3671875 275.5234375 C-275.61401197 273.56196389 -273.96235615 271.58891831 -272.3203125 269.5390625 C-271.55460937 268.65992188 -270.78890625 267.78078125 -270 266.875 C-269.34 266.875 -268.68 266.875 -268 266.875 C-267.74605469 266.29234375 -267.49210937 265.7096875 -267.23046875 265.109375 C-265.86679667 262.63311967 -264.35774797 261.06979374 -262.3125 259.125 C-258.94949255 255.91700091 -255.91410728 252.50978358 -252.87182617 249.00292969 C-249.83214872 245.54736315 -246.66592817 242.21457668 -243.5 238.875 C-242.08579329 237.37774037 -240.67173428 235.88034121 -239.2578125 234.3828125 C-238.54786133 233.63161133 -237.83791016 232.88041016 -237.10644531 232.10644531 C-233.85469472 228.66173039 -230.61409052 225.20661601 -227.375 221.75 C-226.75818359 221.09193359 -226.14136719 220.43386719 -225.50585938 219.75585938 C-221.33167192 215.3007592 -217.16444306 210.83920788 -213 206.375 C-211.27079626 204.52201805 -209.54146756 202.66915291 -207.81201172 200.81640625 C-206.55559438 199.470269 -205.2994267 198.1238987 -204.04345703 196.77734375 C-202.05106419 194.64204892 -200.05695318 192.50837032 -198.0625 190.375 C-197.45986328 189.72853516 -196.85722656 189.08207031 -196.23632812 188.41601562 C-193.29766033 185.27557883 -190.32566287 182.1828279 -187.2734375 179.15234375 C-184.93005636 176.824993 -182.69184682 174.46506233 -180.5625 171.9375 C-178.14382221 169.12923653 -175.64100317 166.47529407 -173 163.875 C-170.37959391 161.29490785 -167.89676588 158.66396393 -165.5 155.875 C-162.48237647 152.36358352 -159.26640919 149.12192598 -155.96875 145.875 C-154.06013545 143.93608998 -152.27289448 141.93800449 -150.5 139.875 C-148.10323412 137.08603607 -145.62040609 134.45509215 -143 131.875 C-140.4207494 129.33527814 -137.97782611 126.75048686 -135.625 124 C-132.88378551 120.80817491 -129.99314112 117.83197023 -127 114.875 C-123.41441301 111.33267801 -120.05108338 107.69944339 -116.77734375 103.87109375 C-114.05022777 100.80833273 -111.10595363 97.97276507 -108.1875 95.09375 C-106.20279658 93.08069368 -104.33903084 91.02053597 -102.5 88.875 C-99.95308392 85.90359791 -97.28621141 83.1235599 -94.5 80.375 C-91.73439592 77.64670593 -89.08712969 74.88983166 -86.5625 71.9375 C-83.84380752 68.7646408 -80.97248325 65.81161618 -78 62.875 C-75.06881809 59.97908042 -72.23596826 57.07257429 -69.5625 53.9375 C-66.25788884 50.07040184 -62.67154696 46.51722155 -59.05371094 42.94824219 C-55.75974197 39.68151487 -52.68525658 36.29614792 -49.67578125 32.76953125 C-47.86022622 30.71698069 -45.95240464 28.79753994 -44 26.875 C-41.45848313 24.36749961 -39.0242665 21.82427204 -36.6875 19.125 C-35.45880519 17.70792406 -34.22957356 16.29131353 -33 14.875 C-32.58314941 14.39417969 -32.16629883 13.91335938 -31.73681641 13.41796875 C-30.33473085 11.81102818 -28.91858926 10.21737793 -27.5 8.625 C-27.06131592 8.11743164 -26.62263184 7.60986328 -26.1706543 7.08691406 C-18.96948294 -0.93175918 -10.35104449 -3.54953682 0 0 Z " transform="translate(1488,338.125)" style="fill: #080808;"/><path d="M0 0 C4.52494743 1.18597412 8.82250352 3.23342189 13 5.3125 C11.41060574 9.24464301 8.83657498 11.64270346 5.8125 14.5625 C1.995938 18.2956365 -1.65716518 22.09264289 -5.125 26.15234375 C-7.52934483 28.92234935 -10.01377773 31.61627441 -12.5 34.3125 C-15.48022202 37.54742907 -18.44315984 40.79075409 -21.3125 44.125 C-25.32487907 48.75615561 -29.54133134 53.19657439 -33.72998047 57.66748047 C-39.66601062 64.00928465 -45.51097764 70.42422657 -51.1875 77 C-55.29295907 81.7207972 -59.60039375 86.25325259 -63.87890625 90.81640625 C-67.40982888 94.58875948 -70.87597614 98.39863233 -74.25 102.3125 C-79.41588235 108.21636554 -84.79779476 113.93684936 -90.12890625 119.69140625 C-94.8542704 124.79403322 -99.5514239 129.90365836 -104.1015625 135.1640625 C-106.64855497 138.04646138 -109.26106824 140.86584931 -111.875 143.6875 C-118.15125429 150.46312371 -124.3732485 157.28316223 -130.4375 164.25 C-134.08937053 168.44414365 -137.84266184 172.54344292 -141.58984375 176.65234375 C-144.16993136 179.50005795 -146.70201856 182.38494018 -149.22265625 185.28515625 C-152.05432947 188.51513076 -154.94202507 191.69440656 -157.8203125 194.8828125 C-159.69145094 196.9685618 -161.53924831 199.07067628 -163.375 201.1875 C-166.82851561 205.15502724 -170.3900394 209.0209764 -173.95263672 212.89013672 C-176.50525763 215.66708682 -179.02968205 218.46213313 -181.5 221.3125 C-184.43844065 224.70300844 -187.46116302 228.01216982 -190.5 231.3125 C-194.14541449 235.27244975 -197.74121296 239.26734153 -201.26953125 243.33203125 C-206.46587685 249.27909043 -211.80522723 255.10108768 -217.125 260.9375 C-220.53486474 264.68362258 -223.89978972 268.46190512 -227.22265625 272.28515625 C-230.05432947 275.51513076 -232.94202507 278.69440656 -235.8203125 281.8828125 C-237.69145094 283.9685618 -239.53924831 286.07067628 -241.375 288.1875 C-244.82716078 292.15347076 -248.38750881 296.01767646 -251.94824219 299.88574219 C-255.10449707 303.32004292 -258.20207059 306.7967058 -261.2578125 310.3203125 C-263.31500399 312.67270635 -265.40596915 314.99284966 -267.5 317.3125 C-270.17048344 320.27119751 -272.82298058 323.24176472 -275.4375 326.25 C-278.24822525 329.47809512 -281.115799 332.64988443 -284 335.8125 C-289.01913521 341.32149075 -293.94120436 346.89973517 -298.78125 352.56640625 C-299.8124583 353.77347313 -300.84370948 354.98050337 -301.875 356.1875 C-302.65460083 357.10039795 -302.65460083 357.10039795 -303.44995117 358.03173828 C-306.47905595 361.56892957 -309.55156303 365.05651054 -312.6875 368.5 C-315.6791816 371.79192205 -318.52524423 375.15841307 -321.3125 378.625 C-325.725387 384.08121405 -330.44471028 389.19865451 -335.2265625 394.328125 C-339.54228951 398.95808998 -343.66304543 403.74666182 -347.7734375 408.55859375 C-348.8072254 409.7682858 -349.84108147 410.9779196 -350.875 412.1875 C-351.39489502 412.79625977 -351.91479004 413.40501953 -352.45043945 414.03222656 C-355.47931717 417.56931159 -358.55171743 421.05668008 -361.6875 424.5 C-364.69814479 427.8133308 -367.56565178 431.20191929 -370.375 434.6875 C-374.05701535 439.24190923 -377.92900357 443.54997565 -381.91577148 447.83374023 C-384.8868675 451.04513407 -387.69946588 454.33859763 -390.4375 457.75 C-393.80346464 461.93487553 -397.33177829 465.89562431 -401 469.8125 C-405.47915827 474.59566399 -409.68451422 479.52064948 -413.7890625 484.6328125 C-416.1093495 487.44503315 -418.53071134 490.13047263 -421 492.8125 C-424.29331699 496.39042463 -427.44651321 500.02789666 -430.5 503.8125 C-434.33719031 508.56845419 -438.39385101 513.06754801 -442.53125 517.5625 C-444.94378104 520.24987634 -447.2325621 523.00215444 -449.5 525.8125 C-452.55348679 529.59710334 -455.70668301 533.23457537 -459 536.8125 C-463.01974536 541.18420463 -466.79988195 545.69036886 -470.53125 550.30859375 C-473.40037224 553.79966179 -476.34644461 557.21628232 -479.3125 560.625 C-479.86365479 561.25857422 -480.41480957 561.89214844 -480.98266602 562.54492188 C-482.10178159 563.83098455 -483.22100376 565.11695448 -484.34033203 566.40283203 C-490.4607846 573.44522391 -496.56030337 580.50252801 -502.4375 587.75 C-506.53915271 592.80104068 -510.78591011 597.71378396 -515.05786133 602.62036133 C-519.97462776 608.27031093 -524.81900625 613.97824526 -529.64404297 619.70654297 C-531.04116533 621.36125505 -532.44367766 623.01125874 -533.84765625 624.66015625 C-539.34644293 631.12250215 -544.7471784 637.64773576 -550 644.3125 C-550.83841343 645.3685914 -551.67696317 646.42457459 -552.515625 647.48046875 C-561.8563305 659.27141729 -570.86157456 671.31280311 -579.71923828 683.4699707 C-582.23126782 686.91586842 -584.76927673 690.33871281 -587.34375 693.73828125 C-601.50188729 712.51444714 -613.11540782 732.49331718 -624 753.3125 C-624.5038623 754.26962891 -625.00772461 755.22675781 -625.52685547 756.21289062 C-637.31009508 778.71339503 -646.88693864 802.09091763 -655.5625 825.9375 C-655.8104834 826.61851776 -656.0584668 827.29953552 -656.31396484 828.00119019 C-659.46717169 836.69640093 -662.36679935 845.4441943 -665 854.3125 C-665.56110474 856.19219482 -665.56110474 856.19219482 -666.13354492 858.10986328 C-667.36877245 862.25812913 -668.59209347 866.40985292 -669.8125 870.5625 C-670.02932434 871.29973297 -670.24614868 872.03696594 -670.46954346 872.79653931 C-676.47677029 893.23746833 -682.27884539 913.73494965 -687.55078125 934.37890625 C-690.68976277 946.63681092 -693.97551628 958.81967468 -697.58300781 970.94824219 C-699.45122078 977.28070132 -701.07803626 983.62051158 -702.52563477 990.06030273 C-703.71160452 995.26515286 -705.12662733 1000.37705523 -706.625 1005.5 C-713.96086236 1030.70942756 -720.29564889 1056.21750822 -726.60058594 1081.70043945 C-726.99138942 1083.27819398 -727.38233691 1084.85591284 -727.7734375 1086.43359375 C-727.96207367 1087.195047 -728.15070984 1087.95650024 -728.34506226 1088.74102783 C-729.53472189 1093.51789425 -730.78800508 1098.27272064 -732.078125 1103.0234375 C-734.08188471 1110.46718109 -735.73675646 1117.96893448 -737.375 1125.5 C-747.76444457 1172.30724836 -768.25381417 1212.36920943 -800 1248.3125 C-800.46341797 1248.83908203 -800.92683594 1249.36566406 -801.40429688 1249.90820312 C-813.37855944 1263.42647212 -826.52847852 1275.51694412 -841 1286.3125 C-841.53882813 1286.71887695 -842.07765625 1287.12525391 -842.6328125 1287.54394531 C-879.03456059 1314.86723811 -923.08164642 1335.10707014 -968.08984375 1342.62109375 C-971.77505098 1343.08142445 -971.77505098 1343.08142445 -974 1344.3125 C-988.13334412 1347.2423984 -1002.2484543 1347.61692542 -1016.625 1347.625 C-1017.50191498 1347.62831329 -1018.37882996 1347.63162659 -1019.28231812 1347.63504028 C-1021.80563901 1347.64067342 -1024.3283025 1347.63033812 -1026.8515625 1347.61328125 C-1027.61427963 1347.61406677 -1028.37699677 1347.61485229 -1029.16282654 1347.61566162 C-1032.91934497 1347.56590888 -1035.81169161 1347.41106067 -1039 1345.3125 C-1039.05883728 1341.83340629 -1039.09387399 1338.35444326 -1039.125 1334.875 C-1039.14175781 1333.90111328 -1039.15851563 1332.92722656 -1039.17578125 1331.92382812 C-1039.21725154 1325.72401925 -1038.57599699 1320.31245705 -1037 1314.3125 C-1036.12601563 1314.28671875 -1035.25203125 1314.2609375 -1034.3515625 1314.234375 C-1015.91223491 1313.38392383 -997.01644335 1309.59067264 -982 1298.3125 C-980.700625 1297.4153125 -980.700625 1297.4153125 -979.375 1296.5 C-976.95427392 1294.49303822 -976.95427392 1294.49303822 -975.7421875 1292.1015625 C-974.02177266 1289.24621431 -972.65263036 1287.36168838 -970 1285.3125 C-966.3848201 1284.72635301 -963.0578306 1284.56956128 -959.41333008 1284.55078125 C-952.87662181 1284.48243096 -948.46605831 1282.98984819 -943 1279.3125 C-941.92685547 1278.6628125 -941.92685547 1278.6628125 -940.83203125 1278 C-935.06845017 1274.19365752 -932.23396634 1269.29636766 -929 1263.3125 C-927 1260.3125 -927 1260.3125 -924.53125 1259.79296875 C-923.5309375 1259.69628906 -922.530625 1259.59960938 -921.5 1259.5 C-911.66189946 1258.04076021 -904.98440136 1253.23831293 -898.6875 1245.671875 C-894.45861985 1239.75927405 -892.53399951 1233.34333109 -891 1226.3125 C-889.39125 1226.003125 -889.39125 1226.003125 -887.75 1225.6875 C-878.85548794 1223.42430565 -869.82901248 1219.4303748 -865 1211.3125 C-862.47485677 1206.39296529 -860.9030265 1202.11174612 -860.875 1196.5625 C-860.7265625 1194.34375 -860.7265625 1194.34375 -860 1192.3125 C-857.63368951 1190.37722748 -855.21450519 1189.04407097 -852.50390625 1187.63671875 C-845.67930837 1184.02745404 -840.02278783 1176.14237976 -837.49609375 1168.890625 C-836.06452162 1161.45095879 -836.2297436 1152.66477455 -838 1145.3125 C-837.0821875 1144.74402344 -836.164375 1144.17554688 -835.21875 1143.58984375 C-813.25381686 1129.85314889 -803.85339723 1112.01775583 -797.8125 1087.0625 C-793.74700171 1068.50207966 -791.23517465 1049.86219978 -789.42041016 1030.95977783 C-788.80504909 1024.58149322 -788.15437904 1018.20681637 -787.50390625 1011.83203125 C-787.37597687 1010.57634338 -787.24804749 1009.32065552 -787.11624146 1008.0269165 C-783.00751609 967.99437925 -777.56315176 927.860114 -761.07373047 890.74414062 C-759.79792447 887.85486646 -758.55863457 884.95074045 -757.31640625 882.046875 C-751.37152248 868.27593979 -744.87036977 855.03149668 -737.49121094 841.97753906 C-735.98713085 839.28950071 -734.52298918 836.58331443 -733.0703125 833.8671875 C-722.7782878 814.64149375 -711.2854435 796.17838334 -699.57568359 777.79150391 C-697.86353086 775.09779476 -696.15995367 772.39877179 -694.45703125 769.69921875 C-688.1705241 759.75000598 -681.79123622 749.9259008 -675 740.3125 C-673.5822241 738.25076234 -672.1655948 736.18823582 -670.75 734.125 C-660.88622604 719.89445112 -650.59917512 706.00246208 -640 692.3125 C-639.34515625 691.46429687 -638.6903125 690.61609375 -638.015625 689.7421875 C-636.3506045 687.59351819 -634.6756952 685.45285303 -633 683.3125 C-632.17437448 682.24877916 -631.34886358 681.18496936 -630.5234375 680.12109375 C-625.4749273 673.63325184 -620.3299389 667.25396532 -614.98974609 661.00366211 C-612.06755888 657.58329163 -609.20472384 654.12285308 -606.375 650.625 C-602.80357231 646.2337962 -599.06883787 642.03140062 -595.25390625 637.8515625 C-592.89440487 635.19354535 -590.66275885 632.45857706 -588.4375 629.6875 C-585.763538 626.37864581 -583.05276743 623.27459117 -580 620.3125 C-577.06825239 617.46681151 -574.48237622 614.5090548 -571.9375 611.3125 C-567.39956628 605.65389396 -562.4911011 600.39906759 -557.49194336 595.14648438 C-553.20470086 590.63610768 -549.07599864 586.01404854 -545 581.3125 C-539.31485284 574.89900658 -533.49919412 568.61150775 -527.65551758 562.34301758 C-524.91039303 559.39207903 -522.19184437 556.43036472 -519.5625 553.375 C-516.25806274 549.53890823 -512.7827429 545.87268905 -509.3125 542.1875 C-504.65156809 537.23506644 -500.13288298 532.19993365 -495.75 527 C-491.46414554 521.91805974 -486.97151891 517.17100348 -482.21484375 512.51953125 C-479.70118894 510.01474295 -477.40075133 507.38472149 -475.09375 504.69140625 C-472.21302163 501.41833987 -469.23129278 498.24387154 -466.25 495.0625 C-458.66898362 486.96845232 -451.13939279 478.83256531 -443.75 470.5625 C-439.13155018 465.4143355 -434.39348555 460.38174062 -429.65600586 455.34350586 C-424.9531684 450.33904585 -420.29652711 445.2963099 -415.6640625 440.2265625 C-405.59192702 429.20924128 -395.40245511 418.301386 -385.20898438 407.39648438 C-383.43067132 405.49378659 -381.65269677 403.59077359 -379.875 401.6875 C-379.29105469 401.06230469 -378.70710938 400.43710937 -378.10546875 399.79296875 C-374.43036448 395.85476977 -370.77252581 391.9012353 -367.125 387.9375 C-361.77601829 382.12605989 -356.36300452 376.37619159 -350.94213867 370.63183594 C-346.24037213 365.64478859 -341.583339 360.61923037 -336.9519043 355.56689453 C-334.46913412 352.86832456 -331.94699823 350.23779052 -329.3125 347.6875 C-326.56984349 345.00417981 -324.20297155 342.12589554 -321.8125 339.125 C-317.96022443 334.33105707 -313.84022228 329.99036634 -309.42504883 325.72387695 C-306.03302106 322.4289459 -302.91316288 318.96635234 -299.82080078 315.3894043 C-296.19819311 311.25726116 -292.38404209 307.30142691 -288.60546875 303.3125 C-285.51198088 300.03327476 -282.46666261 296.72921752 -279.51171875 293.32421875 C-275.88833129 289.15137068 -272.11595567 285.13344349 -268.3125 281.125 C-263.43249283 275.96098318 -258.56366926 270.7884698 -253.75 265.5625 C-253.27449707 265.04647217 -252.79899414 264.53044434 -252.30908203 263.9987793 C-250.34971091 261.87049687 -248.39240659 259.74033474 -246.43701172 257.60839844 C-241.24211217 251.94498914 -236.05897019 246.29665917 -230.5703125 240.9140625 C-228.82086777 239.12980294 -227.19284418 237.26853876 -225.5625 235.375 C-223.14382221 232.56673653 -220.64100317 229.91279407 -218 227.3125 C-215.40017817 224.75259866 -212.93731602 222.1447046 -210.5625 219.375 C-207.28989507 215.56565804 -203.76899563 212.06428891 -200.1953125 208.5390625 C-197.55993257 205.86616826 -195.12233511 203.05881697 -192.6796875 200.2109375 C-190.50743528 197.75578731 -188.18222536 195.48185697 -185.84326172 193.18701172 C-184.0652207 191.37882643 -182.40295598 189.51629523 -180.75 187.59375 C-177.10252846 183.39935031 -173.32369989 179.3460051 -169.5 175.3125 C-168.0897155 173.81913152 -166.67956245 172.3256389 -165.26953125 170.83203125 C-164.56006348 170.08131348 -163.8505957 169.3305957 -163.11962891 168.55712891 C-159.80236235 165.04423456 -156.4934114 161.52357932 -153.1875 158 C-152.25828735 157.01 -152.25828735 157.01 -151.31030273 156 C-147.5298527 151.96537246 -143.78457948 147.90096452 -140.0625 143.8125 C-136.41630764 139.81519282 -132.67635242 135.95765643 -128.8203125 132.1640625 C-127.00368752 130.31625082 -125.31044038 128.40515366 -123.625 126.4375 C-120.88378551 123.24567491 -117.99314112 120.26947023 -115 117.3125 C-111.41441301 113.77017801 -108.05108338 110.13694339 -104.77734375 106.30859375 C-102.12305044 103.32761819 -99.27011363 100.55962517 -96.40625 97.78125 C-94.42398435 95.74749693 -92.5704392 93.68105696 -90.71875 91.53125 C-86.38278265 86.53394284 -81.68141982 81.94255163 -76.9609375 77.3125 C-72.99943175 73.39688041 -69.25593281 69.37628991 -65.62109375 65.15625 C-63.35753739 62.58179553 -60.95297773 60.2077606 -58.5 57.8125 C-54.7569411 54.12539306 -51.21743886 50.33726643 -47.80859375 46.33984375 C-44.8259411 42.9964383 -41.59643308 39.9017363 -38.41015625 36.75390625 C-35.73145468 34.04047273 -33.25391882 31.20472977 -30.77734375 28.30859375 C-28.05022777 25.24583273 -25.10595363 22.41026507 -22.1875 19.53125 C-20.20279658 17.51819368 -18.33903084 15.45803597 -16.5 13.3125 C-15.33352407 11.9789998 -14.16684508 10.6456772 -13 9.3125 C-12.28972656 8.47589844 -11.57945313 7.63929688 -10.84765625 6.77734375 C-4.37382664 -0.38260114 -4.37382664 -0.38260114 0 0 Z " transform="translate(1480,349.6875)" style="fill: #FDFDFC;"/><path d="M0 0 C2.89187287 0.93802154 5.25899248 2.15540462 7.86328125 3.72265625 C8.7346875 4.23570312 9.60609375 4.74875 10.50390625 5.27734375 C12.61328125 6.84765625 12.61328125 6.84765625 13.61328125 9.84765625 C9.31611637 14.2039177 4.8841209 18.40704336 0.42578125 22.59765625 C-0.71250122 23.66826294 -0.71250122 23.66826294 -1.8737793 24.76049805 C-6.53347674 29.13359797 -11.22942132 33.4587239 -16 37.7109375 C-18.81723624 40.23307862 -21.60313318 42.78854632 -24.38671875 45.34765625 C-28.83722387 49.43698549 -33.31750132 53.49134865 -37.81640625 57.52734375 C-40.73100268 60.1584536 -43.62214728 62.81414219 -46.51171875 65.47265625 C-49.70541219 68.41065445 -52.91067205 71.32815399 -56.19921875 74.16015625 C-60.80473695 78.15160536 -65.22404473 82.34186377 -69.67138672 86.50732422 C-76.443518 92.84701209 -83.25172905 99.14538867 -90.26171875 105.22265625 C-93.75038766 108.25042378 -97.1317317 111.38744319 -100.51171875 114.53515625 C-105.00298763 118.71308079 -109.57830173 122.76169527 -114.26171875 126.72265625 C-120.07202094 131.64069699 -125.65645987 136.76579501 -131.19824219 141.98339844 C-134.83790105 145.4090721 -138.52023913 148.75825206 -142.30859375 152.01953125 C-145.75418003 155.05061091 -149.10359965 158.18592077 -152.46923828 161.30517578 C-155.75227166 164.34551308 -159.05365378 167.36201174 -162.38671875 170.34765625 C-166.25334651 173.81255645 -170.07677365 177.32078935 -173.88671875 180.84765625 C-180.62245504 187.08000661 -187.402002 193.25974491 -194.32421875 199.28515625 C-198.43629105 202.86556667 -202.45935011 206.54066809 -206.48046875 210.22265625 C-208.71426253 212.24027644 -210.96588711 214.22589671 -213.23828125 216.19921875 C-217.3393278 219.77771572 -221.3082854 223.48260743 -225.26171875 227.22265625 C-232.46096167 234.00155413 -239.72875285 240.67956574 -247.19921875 247.16015625 C-251.3655223 250.78778621 -255.40943972 254.54336873 -259.46142578 258.29736328 C-264.39281027 262.8633543 -269.37994964 267.36447084 -274.38671875 271.84765625 C-279.61058549 276.5391544 -284.82315553 281.24211792 -290.01171875 285.97265625 C-293.76462602 289.38869667 -297.55126301 292.75808952 -301.37890625 296.08984375 C-307.68615094 301.61175058 -313.86218033 307.27654002 -320.01171875 312.97265625 C-324.10461894 316.76307882 -328.22877205 320.50308865 -332.4453125 324.15625 C-339.09522041 329.94983174 -345.57635152 335.93379114 -352.06762695 341.90356445 C-354.78921369 344.40108745 -357.53090871 346.86820798 -360.32421875 349.28515625 C-363.91630664 352.3972992 -367.40220157 355.6164146 -370.88671875 358.84765625 C-375.0249028 362.68436759 -379.19336634 366.47043362 -383.45703125 370.16796875 C-390.06437283 375.91929847 -396.49234619 381.86201262 -402.88671875 387.84765625 C-409.88879171 394.40215601 -416.95260743 400.87575058 -424.19921875 407.16015625 C-428.41815366 410.83139981 -432.50611987 414.64009351 -436.60644531 418.44238281 C-440.11848993 421.69352104 -443.67655833 424.87734841 -447.296875 428.0078125 C-450.03042394 430.41435746 -452.70787532 432.88067069 -455.38671875 435.34765625 C-458.6652698 438.36692121 -461.95252832 441.36967763 -465.32421875 444.28515625 C-469.50937429 447.91112608 -473.55431964 451.68409474 -477.61352539 455.44946289 C-480.4602043 458.08524618 -483.32027029 460.69223989 -486.26171875 463.22265625 C-490.23743714 466.65700022 -494.05505242 470.25468236 -497.88671875 473.84765625 C-502.32094062 478.00538054 -506.76793995 482.12370022 -511.37890625 486.0859375 C-513.5031414 487.94980919 -515.57681615 489.86418487 -517.64892578 491.78564453 C-521.89684791 495.72316731 -526.17119855 499.54178296 -530.69921875 503.16015625 C-536.7376797 508.01717919 -542.31987625 513.31974428 -547.95703125 518.62890625 C-552.15480797 522.58081642 -556.4696238 526.37111398 -560.86425781 530.10205078 C-568.00693887 536.16806222 -575.04740634 542.30502451 -581.90625 548.69140625 C-585.36309855 551.90985145 -588.8671232 555.05710497 -592.4375 558.1484375 C-594.73356112 560.15001383 -596.99850916 562.18401319 -599.26171875 564.22265625 C-600.10605469 564.98320313 -600.95039062 565.74375 -601.8203125 566.52734375 C-603.50369623 568.04930712 -605.1835171 569.57522251 -606.859375 571.10546875 C-611.02760385 574.89716979 -615.24122077 578.57096095 -619.63671875 582.09765625 C-624.06606889 585.67617077 -628.24352406 589.44784825 -632.38671875 593.34765625 C-637.31272544 597.97990108 -642.3408504 602.38291085 -647.62109375 606.61328125 C-650.69481089 609.09656685 -653.69656765 611.65447524 -656.69921875 614.22265625 C-661.13486438 618.00602041 -665.6529544 621.65272355 -670.26171875 625.22265625 C-677.24769378 630.64624778 -683.90289029 636.41361233 -690.55175781 642.2421875 C-706.86422866 656.51451431 -723.53207411 670.22807257 -740.99023438 683.08203125 C-743.16452542 684.68395391 -745.33074785 686.29618136 -747.49609375 687.91015625 C-780.03068556 711.9677297 -814.5381248 733.40260783 -850.71875 751.51123047 C-852.42922447 752.36803293 -854.13540579 753.23349277 -855.8359375 754.10986328 C-861.17026433 756.84765625 -861.17026433 756.84765625 -863.38671875 756.84765625 C-862.6115839 750.02050704 -860.92883441 743.44235764 -859.26171875 736.78515625 C-858.95258545 735.54741455 -858.64345215 734.30967285 -858.32495117 733.03442383 C-856.11940894 724.36338056 -853.61053012 715.84071847 -850.81323242 707.34399414 C-848.68131393 700.86556376 -846.85433645 694.36430671 -845.2109375 687.74609375 C-844.45444231 685.0858121 -843.89068403 683.15098547 -842.38671875 680.84765625 C-839.96679687 679.51074219 -839.96679687 679.51074219 -836.91796875 678.33203125 C-835.79817627 677.88964111 -834.67838379 677.44725098 -833.5246582 676.99145508 C-832.32413818 676.53150146 -831.12361816 676.07154785 -829.88671875 675.59765625 C-827.41064233 674.61925006 -824.93538192 673.63877629 -822.4609375 672.65625 C-821.24841309 672.17784668 -820.03588867 671.69944336 -818.78662109 671.20654297 C-806.6734838 666.36511527 -794.8862367 660.80380538 -783.29394531 654.83007812 C-782.04528044 654.18688465 -780.79469065 653.54741119 -779.54199219 652.91210938 C-757.79590217 641.86981138 -737.53343465 627.89862164 -718.38671875 612.84765625 C-715.53503766 610.61529731 -712.68024059 608.38695836 -709.82421875 606.16015625 C-709.07277588 605.57363281 -708.32133301 604.98710938 -707.54711914 604.3828125 C-701.73484589 599.86045978 -695.85366238 595.43621767 -689.94921875 591.03515625 C-682.93883629 585.80617144 -676.10488332 580.44798977 -669.38671875 574.84765625 C-667.827559 573.59349234 -666.26498498 572.34356249 -664.69921875 571.09765625 C-654.42122795 562.88829434 -644.21032768 554.62038793 -634.25708008 546.01879883 C-630.2285686 542.54490818 -626.11547106 539.20053922 -621.94140625 535.90234375 C-618.32819828 532.99630798 -614.80450138 529.98870043 -611.27319336 526.98413086 C-607.84080911 524.06748564 -604.38070135 521.19064937 -600.88671875 518.34765625 C-594.64820619 513.26475817 -588.51204008 508.065845 -582.38671875 502.84765625 C-581.79922852 502.3479834 -581.21173828 501.84831055 -580.60644531 501.33349609 C-574.74176541 496.34265033 -568.89592327 491.34307571 -563.19921875 486.16015625 C-559.9072967 483.16847465 -556.54080568 480.32241202 -553.07421875 477.53515625 C-548.852755 474.12345141 -544.84577808 470.55467997 -540.88671875 466.84765625 C-536.08468746 462.35132457 -531.14159937 458.12329067 -526.01171875 454 C-522.47078744 451.0966471 -519.09043793 448.0329823 -515.703125 444.953125 C-511.26280576 440.91715186 -506.73034029 436.99013446 -502.1640625 433.09765625 C-496.60549396 428.35686302 -491.07733901 423.60679408 -485.69921875 418.66015625 C-481.38876207 414.70733571 -476.93871327 410.9911063 -472.390625 407.31640625 C-467.58126363 403.36384918 -462.90562979 399.25929071 -458.2109375 395.171875 C-454.6190393 392.04473593 -451.00647524 388.94246859 -447.38671875 385.84765625 C-442.5374196 381.6992297 -437.70596211 377.53095821 -432.88671875 373.34765625 C-428.06747269 369.16435194 -423.23572988 364.99642199 -418.38671875 360.84765625 C-408.36049915 352.26451845 -398.34857854 343.66962182 -388.5625 334.8125 C-384.1461975 330.82434891 -379.65358634 326.92695407 -375.12890625 323.0625 C-373.92315199 322.03258146 -372.71742352 321.00263272 -371.51171875 319.97265625 C-370.90320068 319.45300293 -370.29468262 318.93334961 -369.66772461 318.39794922 C-366.13048017 315.36873092 -362.64279298 312.29617042 -359.19921875 309.16015625 C-355.03411246 305.3810842 -350.72407936 301.82154259 -346.35546875 298.28125 C-340.61191676 293.57304883 -335.00754827 288.70107167 -329.38671875 283.84765625 C-328.75121094 283.29996582 -328.11570312 282.75227539 -327.4609375 282.18798828 C-321.3022862 276.8793913 -315.15127671 271.56976198 -309.13671875 266.09765625 C-305.90798253 263.16581532 -302.6041199 260.38507714 -299.19921875 257.66015625 C-293.86852498 253.35488589 -288.91795643 248.71436388 -283.94360352 244.01000977 C-279.45734416 239.78895927 -274.82055461 235.84342697 -270.0078125 231.99609375 C-266.18600843 228.86346747 -262.56875872 225.52106319 -258.9296875 222.1796875 C-252.98463491 216.72777291 -246.83263818 211.52541003 -240.66772461 206.32543945 C-232.47497359 199.40359261 -224.38295777 192.36238219 -216.32421875 185.28515625 C-213.35712826 182.68006373 -210.35952613 180.11228708 -207.35693359 177.54833984 C-206.7480127 177.02836426 -206.1390918 176.50838867 -205.51171875 175.97265625 C-204.90279785 175.45268066 -204.29387695 174.93270508 -203.66650391 174.39697266 C-200.12972287 171.36801767 -196.64240658 168.29581853 -193.19921875 165.16015625 C-189.9072967 162.16847465 -186.54080568 159.32241202 -183.07421875 156.53515625 C-177.6180047 152.12226925 -172.50056424 147.40294597 -167.37109375 142.62109375 C-160.93779193 136.62442325 -154.20324292 130.96862842 -147.52197266 125.25219727 C-144.44009184 122.61419002 -141.36806038 119.96709739 -138.32421875 117.28515625 C-134.92904311 114.29711088 -131.47190378 111.38479647 -128.01171875 108.47265625 C-123.13666203 104.3659051 -118.35858417 100.16969283 -113.63671875 95.88671875 C-107.64916114 90.46049466 -101.49096054 85.24316131 -95.30981445 80.04003906 C-91.90250441 77.16128818 -88.55996633 74.22679258 -85.26171875 71.22265625 C-81.92797362 68.19002359 -78.52105064 65.30017508 -75.01171875 62.47265625 C-70.45891368 58.79193778 -66.15254464 54.92116977 -61.86987305 50.9362793 C-57.75910918 47.13380611 -53.46405352 43.60502326 -49.1015625 40.09375 C-46.2799838 37.75935035 -43.58081163 35.32775027 -40.88671875 32.84765625 C-36.49993208 28.81454262 -31.98158576 25.01385252 -27.34765625 21.26953125 C-23.92271077 18.46812466 -20.55707042 15.60381451 -17.19921875 12.72265625 C-16.30251465 11.95779907 -16.30251465 11.95779907 -15.38769531 11.17749023 C-11.51365339 7.86110815 -7.75691803 4.4500015 -4.1328125 0.859375 C-2.38671875 -0.15234375 -2.38671875 -0.15234375 0 0 Z " transform="translate(1681.38671875,537.15234375)" style="fill: #FCFCFC;"/><path d="M0 0 C3.33772993 1.40155759 5.01749057 2.9509686 7.125 5.875 C7.62257813 6.55304688 8.12015625 7.23109375 8.6328125 7.9296875 C11.75451971 12.65684413 12.75967109 16.32721584 12.609375 22.0234375 C11.39384812 27.96081879 7.07369769 31.76283955 3 36 C1.81434001 37.274122 0.63087242 38.55028655 -0.55078125 39.828125 C-3.11302488 42.58830452 -5.69031928 45.3331417 -8.28125 48.06640625 C-17.60479542 57.90713197 -26.76400015 67.92843128 -35.625 78.1875 C-38.34149335 81.31084143 -41.20341976 84.22768526 -44.15673828 87.12573242 C-45.93487404 88.93377855 -47.59706611 90.79623046 -49.25 92.71875 C-52.89747094 96.913149 -56.67628746 100.96650772 -60.5 105 C-61.91159192 106.49466552 -63.32304695 107.98946032 -64.734375 109.484375 C-65.44400391 110.23525391 -66.15363281 110.98613281 -66.88476562 111.75976562 C-78.5208666 124.08350322 -90.0507843 136.50268875 -101.5 149 C-110.62519193 158.95934624 -119.80077471 168.86564269 -129.06811523 178.69311523 C-134.60745801 184.57166905 -140.09803626 190.49313135 -145.56445312 196.43945312 C-148.03924564 199.12973777 -150.51998979 201.81452616 -153 204.5 C-154.00002702 205.58330839 -155.00002706 206.66664169 -156 207.75 C-162 214.25 -162 214.25 -163.50024414 215.87524414 C-164.49945738 216.95773871 -165.49864362 218.04025821 -166.49780273 219.12280273 C-169.00961835 221.84417508 -171.52191333 224.56510195 -174.03515625 227.28515625 C-177.02530516 230.52171692 -180.01336666 233.7601951 -183 237 C-183.48919922 237.53044922 -183.97839844 238.06089844 -184.48242188 238.60742188 C-190.97628514 245.63919518 -190.97628514 245.63919518 -197.3125 252.8125 C-201.46168447 257.61253693 -205.84237581 262.20197345 -210.20239258 266.80981445 C-210.79173584 267.435896 -211.3810791 268.06197754 -211.98828125 268.70703125 C-212.51977783 269.2688208 -213.05127441 269.83061035 -213.59887695 270.40942383 C-215.2012489 272.15697566 -215.2012489 272.15697566 -217 275 C-217.66 275 -218.32 275 -219 275 C-219.21527344 275.53367187 -219.43054687 276.06734375 -219.65234375 276.6171875 C-221.4972779 279.87924498 -223.99756677 282.42663783 -226.5625 285.125 C-227.65153299 286.28730026 -228.74007017 287.45006527 -229.828125 288.61328125 C-230.36630859 289.18643066 -230.90449219 289.75958008 -231.45898438 290.35009766 C-233.60399161 292.64666909 -235.71131433 294.97583663 -237.8125 297.3125 C-238.45832031 298.03050781 -239.10414063 298.74851562 -239.76953125 299.48828125 C-241.03983842 300.91876725 -242.30633182 302.35271524 -243.56079102 303.79711914 C-247.70815007 308.57154634 -251.96736521 313.21790548 -256.3125 317.8125 C-263.45074573 325.39512269 -270.55098328 333.00615776 -277.375 340.875 C-280.97776968 345.02158397 -284.71317858 349.04112004 -288.44555664 353.07055664 C-294.15628522 359.23936026 -299.80667433 365.45962422 -305.3125 371.8125 C-308.9830673 376.03065776 -312.79114687 380.1177707 -316.5925293 384.2175293 C-319.86526955 387.753198 -323.07453374 391.33250974 -326.2265625 394.9765625 C-329.2990734 398.48220269 -332.45988651 401.90798371 -335.6015625 405.3515625 C-337.55237143 407.50571307 -339.47393612 409.67718469 -341.375 411.875 C-345.02331715 416.07661643 -348.81379024 420.14268975 -352.59716797 424.22216797 C-355.83478459 427.71936174 -359.00070471 431.26530811 -362.1171875 434.87109375 C-364.57170348 437.64642821 -367.10052807 440.3510451 -369.625 443.0625 C-374.68005244 448.49505834 -379.56862948 454.05458814 -384.37158203 459.71118164 C-387.0123212 462.79938174 -389.71410234 465.75285918 -392.609375 468.60546875 C-395.4429049 471.39802349 -397.97602849 474.3059871 -400.4375 477.4375 C-403.7847166 481.59736851 -407.28105389 485.39447154 -411.10546875 489.11328125 C-413.58986131 491.58742889 -415.86592786 494.21098681 -418.15234375 496.8671875 C-420.2371655 499.27376821 -422.36521533 501.63764945 -424.5 504 C-429.31014801 509.33562637 -434.05980237 514.71586881 -438.71484375 520.1875 C-443.61574205 525.94264653 -448.54178271 531.64910476 -453.6875 537.1875 C-457.07524373 540.83413376 -460.31897796 544.55617401 -463.4375 548.4375 C-466.80347058 552.62238292 -470.33183266 556.58306527 -474 560.5 C-478.53734262 565.34660926 -482.81733652 570.33202649 -486.98046875 575.5078125 C-489.88719165 579.09483225 -492.93590782 582.54750176 -496 586 C-500.60332518 591.20961679 -505.11880283 596.48935877 -509.6027832 601.80175781 C-513.03114515 605.8613093 -516.47764298 609.90476291 -519.9375 613.9375 C-520.43523926 614.51765869 -520.93297852 615.09781738 -521.44580078 615.69555664 C-523.47019737 618.05430813 -525.49536671 620.41239554 -527.52050781 622.77050781 C-530.53113691 626.27677745 -533.5391224 629.7852804 -536.54296875 633.29736328 C-537.50045694 634.41625113 -538.45876601 635.53443713 -539.41796875 636.65185547 C-545.01121713 643.17143665 -550.4558719 649.7775482 -555.73242188 656.55639648 C-559.28115679 661.10964423 -562.90900961 665.5930314 -566.5625 670.0625 C-576.27024926 681.97243076 -585.43744075 694.2213745 -594.36962891 706.72119141 C-595.93231331 708.90539269 -597.50281309 711.08378791 -599.07421875 713.26171875 C-611.85444456 731.05836517 -622.84462294 749.58967047 -633 769 C-633.37576172 769.71687988 -633.75152344 770.43375977 -634.13867188 771.17236328 C-636.11280807 774.96574486 -638.01310674 778.78991604 -639.86572266 782.64404297 C-640.70043669 784.37779038 -641.54231511 786.10809303 -642.38818359 787.83642578 C-649.33825519 802.08484897 -655.51772563 816.44177845 -661 831.3125 C-661.26726898 832.03740631 -661.53453796 832.76231262 -661.80990601 833.50918579 C-666.64586573 846.68514989 -671.33868962 859.90808551 -674.875 873.5 C-676.89496938 881.10015956 -679.08882418 888.62034378 -681.4375 896.125 C-684.50792461 905.98904797 -687.08533691 915.94312373 -689.51538086 925.98291016 C-690.88213346 931.61576257 -692.32155845 937.20644534 -693.9375 942.7734375 C-696.26693427 950.82123033 -698.2971613 958.9317718 -700.3125 967.0625 C-700.73833473 968.77281367 -701.164283 970.48309907 -701.59033203 972.19335938 C-706.04283646 990.09083485 -710.43361653 1008.00366401 -714.82580376 1025.91602135 C-717.98991905 1038.81830577 -721.16711105 1051.71688458 -724.41796875 1064.59765625 C-724.68521759 1065.65688797 -724.95246643 1066.71611969 -725.22781372 1067.80744934 C-725.48972504 1068.84544174 -725.75163635 1069.88343414 -726.02148438 1070.95288086 C-730.20561494 1087.53675399 -734.23833428 1104.10095703 -737.703125 1120.8515625 C-739.87251005 1131.29464837 -742.42102047 1141.65162988 -745 1152 C-745.28206299 1153.13429443 -745.28206299 1153.13429443 -745.56982422 1154.29150391 C-747.92923372 1163.69147998 -750.83263459 1172.84839092 -754 1182 C-754.33 1182 -754.66 1182 -755 1182 C-755.5129806 1179.25188964 -756.01040871 1176.50229698 -756.5 1173.75 C-756.64308594 1172.99203125 -756.78617188 1172.2340625 -756.93359375 1171.453125 C-758.94436279 1159.96301619 -757.94290855 1150.07842978 -754.875 1138.875 C-754.21923168 1136.37295116 -753.56562819 1133.87033405 -752.9140625 1131.3671875 C-752.42341309 1129.49885254 -752.42341309 1129.49885254 -751.92285156 1127.59277344 C-750.59362241 1122.41792259 -749.41829347 1117.2130735 -748.25 1112 C-745.7120355 1100.82780567 -742.98907723 1089.70391414 -740.22155762 1078.58666992 C-739.75003363 1076.6921183 -739.27968663 1074.79727325 -738.81066895 1072.90209961 C-736.09924448 1061.95762668 -733.21610869 1051.08470435 -730.08023071 1040.25392151 C-728.19819523 1033.74434713 -726.46957968 1027.21130738 -724.875 1020.625 C-724.37188603 1018.58443991 -723.86798272 1016.54407428 -723.36328125 1014.50390625 C-723.12818848 1013.5514502 -722.8930957 1012.59899414 -722.65087891 1011.61767578 C-720.73525879 1003.91352017 -718.64293724 996.25917051 -716.48046875 988.62109375 C-713.13698073 976.80171412 -709.92076623 964.96151406 -706.875 953.0625 C-703.55772446 940.11298687 -700.12805078 927.21432179 -696.3515625 914.390625 C-695.75508759 912.36461888 -695.15873615 910.3385764 -694.5625 908.3125 C-694.1137854 906.78906982 -694.1137854 906.78906982 -693.65600586 905.23486328 C-691.63881802 898.33329667 -689.77754142 891.40424839 -688 884.4375 C-685.02407143 872.84150481 -681.60055407 861.41593443 -678 850 C-677.61263672 848.76556152 -677.22527344 847.53112305 -676.82617188 846.25927734 C-672.28681047 831.81574254 -667.74299383 817.40068343 -661.97216797 803.39208984 C-660.85938207 800.65399937 -659.7913182 797.90013667 -658.72265625 795.14453125 C-642.60543198 754.03393022 -621.83620245 714.94037688 -594.921875 679.8515625 C-592.27104154 676.38826113 -589.73087128 672.85381979 -587.20141602 669.30126953 C-581.45016457 661.22570032 -575.4344874 653.45423035 -569.125 645.80859375 C-566.14235361 642.19323697 -563.25090227 638.51295806 -560.375 634.8125 C-555.92793822 629.10785427 -551.30635845 623.57384068 -546.609375 618.07421875 C-544.23730965 615.29266912 -541.92507288 612.46651339 -539.625 609.625 C-535.50063491 604.55792289 -531.23546381 599.62433709 -526.94677734 594.69677734 C-519.98388787 586.69361958 -513.10885834 578.62364972 -506.4375 570.375 C-502.61447399 565.67288245 -498.57552731 561.21189443 -494.47265625 556.75390625 C-491.25290481 553.16792716 -488.24094824 549.43298508 -485.21484375 545.68359375 C-482.33401493 542.19306571 -479.29065597 538.86725932 -476.2421875 535.5234375 C-473.95484096 532.94917642 -471.78451729 530.30710511 -469.625 527.625 C-465.94428153 523.07219493 -462.07351352 518.76582589 -458.08862305 514.4831543 C-454.28614986 510.37239043 -450.75736701 506.07733477 -447.24609375 501.71484375 C-444.9116941 498.89326505 -442.48009402 496.19409288 -440 493.5 C-436.70668301 489.92207537 -433.55348679 486.28460334 -430.5 482.5 C-426.61012866 477.6823325 -422.51549488 473.09892848 -418.328125 468.5390625 C-414.20245281 464.0395878 -410.21394527 459.42655145 -406.25390625 454.78125 C-405.2319362 453.58319225 -404.20979569 452.3852799 -403.1875 451.1875 C-402.41176636 450.27846924 -402.41176636 450.27846924 -401.62036133 449.35107422 C-398.4152347 445.60967738 -395.14806271 441.93901522 -391.8125 438.3125 C-388.60354956 434.81740111 -385.53934163 431.2571616 -382.5625 427.5625 C-378.90428985 423.02683557 -375.05257035 418.7429883 -371.08618164 414.48071289 C-368.09573 411.24806025 -365.26220993 407.93303234 -362.5 404.5 C-358.38463942 399.38898766 -354.01013624 394.57697774 -349.5546875 389.765625 C-344.90959924 384.73699734 -340.46396233 379.55584656 -336.05371094 374.32080078 C-331.46729954 368.87698438 -326.81532642 363.51477876 -322.03125 358.2421875 C-317.97845417 353.76852441 -314.03247947 349.20242299 -310.09765625 344.625 C-304.20968492 337.78632019 -298.25346845 331.03602137 -292.10546875 324.4296875 C-288.90472207 320.98931273 -285.77478235 317.50138301 -282.69921875 313.94921875 C-279.18593962 309.91904339 -275.58253666 305.96853388 -272 302 C-270.49971321 300.33359149 -268.99971128 298.66692647 -267.5 297 C-265.2282871 294.47499507 -262.95564586 291.95086696 -260.6796875 289.4296875 C-256.68756274 285.0045187 -252.72674108 280.55662865 -248.8125 276.0625 C-245.9673071 272.8248667 -243.07146164 269.6331371 -240.18359375 266.43359375 C-238.29151315 264.32488854 -236.42094242 262.20080199 -234.5625 260.0625 C-230.90821138 255.86557919 -227.15255027 251.7634724 -223.40234375 247.65234375 C-221.43058156 245.47539004 -219.48634663 243.28161326 -217.5625 241.0625 C-214.13299081 237.11410526 -210.59123177 233.27142542 -207.04931641 229.42431641 C-203.91468711 226.01383111 -200.84266155 222.55832184 -197.80859375 219.05859375 C-194.7222052 215.54557698 -191.55371222 212.10700182 -188.40234375 208.65234375 C-186.43058156 206.47539004 -184.48634663 204.28161326 -182.5625 202.0625 C-179.17595159 198.16597725 -175.68662005 194.36647172 -172.19213867 190.56713867 C-168.49682863 186.54802258 -164.83413236 182.50089035 -161.1875 178.4375 C-158.92137684 175.91239133 -156.64809385 173.39383372 -154.375 170.875 C-151.72814662 167.93506943 -149.09901752 164.98228278 -146.5 162 C-140.14814611 154.71576389 -133.62863487 147.58372344 -127.09130859 140.46630859 C-122.69342754 135.67463336 -118.34223647 130.84206225 -114 126 C-108.68335741 120.07136978 -103.33233263 114.17738616 -97.94140625 108.31640625 C-95.46439877 105.61737009 -93.01879359 102.89800842 -90.625 100.125 C-86.78380498 95.68999705 -82.76230955 91.42487832 -78.76049805 87.13549805 C-75.39151883 83.51793584 -72.09306487 79.85598336 -68.86328125 76.11328125 C-65.81950528 72.66111605 -62.67711054 69.30024047 -59.54931641 65.92431641 C-54.98374585 60.99315747 -50.48335573 56.00600558 -46 51 C-44.50043381 49.332943 -43.00042947 47.66628005 -41.5 46 C-40.7575 45.175 -40.015 44.35 -39.25 43.5 C-23.5 26 -23.5 26 -21.24609375 23.49609375 C-19.758538 21.84296657 -18.27155097 20.18932744 -16.78515625 18.53515625 C-11.21276224 12.33599033 -5.61232097 6.163008 0 0 Z " transform="translate(1496,360)" style="fill: #FAFAF9;"/><path d="M0 0 C1.859375 0.1015625 1.859375 0.1015625 4 1 C8.41608421 7.05692283 11.1531747 13.96011367 10.6171875 21.49609375 C9.44093548 26.26810354 6.55503079 28.76109519 3 32 C1.88218754 33.07090884 0.76647972 34.14401678 -0.34765625 35.21875 C-6.77473999 41.36421941 -13.38003586 47.25997146 -20.21411133 52.94750977 C-24.77071999 56.75531737 -29.13123107 60.75144642 -33.47485352 64.79907227 C-36.89798947 67.98868227 -40.37145543 71.10026484 -43.91015625 74.16015625 C-46.64370638 76.56670226 -49.32110702 79.03306703 -52 81.5 C-55.95857261 85.14419551 -59.95176903 88.73913842 -64.015625 92.265625 C-68.05373262 95.79499465 -72.01974189 99.40570631 -76 103 C-85.4921875 111.57173295 -85.4921875 111.57173295 -89.875 115.375 C-92.72291486 117.85045114 -95.50762432 120.38570706 -98.27514648 122.95068359 C-103.5454503 127.83347737 -108.95004669 132.44697052 -114.55078125 136.953125 C-116.66408538 138.71926753 -118.58941991 140.52134698 -120.5 142.5 C-123.20896674 145.30525702 -126.08335539 147.74629532 -129.125 150.1875 C-134.64876333 154.63234394 -139.81960572 159.38218412 -145 164.21484375 C-147.95876022 166.97346339 -150.98395085 169.64611326 -154.04296875 172.29296875 C-156.3855915 174.33633431 -158.69273422 176.41680859 -161 178.5 C-166.37585117 183.34721225 -171.80721237 188.12321693 -177.3046875 192.83203125 C-184.63867215 199.12914221 -191.81420452 205.55445657 -198.85449219 212.17871094 C-202.54523281 215.65016087 -206.2733592 219.05645033 -210.11328125 222.36328125 C-212.43658787 224.37873772 -214.71748465 226.43848462 -217 228.5 C-222.3110608 233.28800179 -227.66131351 238.02187651 -233.1171875 242.64453125 C-239.94753307 248.44208981 -246.62237982 254.36122114 -253.16162109 260.48583984 C-256.7417835 263.83849689 -260.36484154 267.12264099 -264.078125 270.328125 C-266.41105074 272.35758073 -268.70511245 274.427647 -271 276.5 C-273.93678465 279.15113994 -276.88602542 281.78290171 -279.875 284.375 C-283.1819178 287.25201848 -286.40701454 290.21198698 -289.625 293.1875 C-294.570682 297.7545652 -299.64430037 302.14940981 -304.77441406 306.50732422 C-309.23532542 310.31033139 -313.57718769 314.22519278 -317.88061523 318.20483398 C-321.18519221 321.26038648 -324.54103527 324.24347548 -327.94140625 327.19140625 C-330.4895665 329.4301125 -332.99410593 331.71410212 -335.5 334 C-339.28662998 337.45328153 -343.1047632 340.86099051 -346.97265625 344.22265625 C-349.33489173 346.29359487 -351.66795853 348.39512848 -354 350.5 C-356.95869751 353.17048344 -359.92926472 355.82298058 -362.9375 358.4375 C-367.13303221 362.09057956 -371.23373553 365.84505549 -375.34375 369.59375 C-378.16722669 372.15148771 -381.03056002 374.65769969 -383.90625 377.15625 C-387.4281247 380.25760235 -390.88077022 383.43513333 -394.34765625 386.59765625 C-396.52460996 388.56941844 -398.71838674 390.51365337 -400.9375 392.4375 C-404.88667367 395.86768576 -408.73022305 399.41003518 -412.57788086 402.95288086 C-415.96462619 406.06599299 -419.39906249 409.11252082 -422.875 412.125 C-425.61823418 414.54550075 -428.30884568 417.02200642 -431 419.5 C-434.91325978 423.10329861 -438.86434452 426.65175157 -442.88671875 430.1328125 C-445.04451865 432.03933441 -447.15914729 433.98887378 -449.27075195 435.94628906 C-454.54204266 440.83110193 -459.94843052 445.44567021 -465.55078125 449.953125 C-468.25987698 452.21718586 -470.67939146 454.64782959 -473.125 457.1875 C-476.34239572 460.2976492 -479.89056873 463.00980528 -483.375 465.8125 C-485.55323399 467.62769499 -487.53681463 469.4613075 -489.5 471.5 C-492.18967565 474.28505422 -495.03968272 476.70498616 -498.0625 479.125 C-503.89576739 483.81732528 -509.32758394 488.88009477 -514.78515625 494 C-517.77774333 496.80517254 -520.8396056 499.51614046 -523.9453125 502.1953125 C-526.66924787 504.58781847 -529.33339986 507.04409419 -532 509.5 C-535.95990052 513.14546673 -539.95484295 516.74121419 -544.01953125 520.26953125 C-548.97580058 524.60015711 -553.85245763 529.02363855 -558.6953125 533.48046875 C-563.21536721 537.63351047 -567.76846169 541.66476936 -572.5625 545.5 C-577.19198491 549.22985451 -581.31416232 553.2713474 -585.4609375 557.5234375 C-588.91422541 560.8917214 -592.64712939 563.84434699 -596.4140625 566.8515625 C-598.75931703 568.80003681 -600.88093171 570.81173765 -603 573 C-606.76210588 576.87680423 -610.85822333 580.19483191 -615.06640625 583.57421875 C-618.20082808 586.16606423 -621.20344736 588.8633144 -624.1875 591.625 C-624.95296143 592.33342041 -624.95296143 592.33342041 -625.73388672 593.05615234 C-626.23033691 593.51586426 -626.72678711 593.97557617 -627.23828125 594.44921875 C-630.76488278 597.70646175 -634.36118786 600.86922445 -638 604 C-638.49193848 604.42361816 -638.98387695 604.84723633 -639.49072266 605.28369141 C-651.54635394 615.65929377 -663.63231851 625.9967282 -676 636 C-676.54849609 636.44424316 -677.09699219 636.88848633 -677.66210938 637.34619141 C-712.34574115 665.39912887 -748.81155331 690.6576975 -787.22167969 713.35742188 C-789.64374883 714.7893798 -792.06120224 716.22864459 -794.4765625 717.671875 C-802.84970488 722.65853312 -811.3186595 727.47221472 -819.8125 732.25 C-820.83859375 732.82886963 -821.8646875 733.40773926 -822.921875 734.00415039 C-828.96874853 737.38897929 -835.08336429 740.56898236 -841.29614258 743.63769531 C-844.75670694 745.38125731 -848.09468577 747.29349096 -851.4375 749.25 C-862.50743359 755.60462996 -874.11482352 761.33255263 -886 766 C-885.60233483 763.74656406 -885.18111033 761.49727724 -884.75 759.25 C-884.51796875 757.99703125 -884.2859375 756.7440625 -884.046875 755.453125 C-882.51839046 750.41140734 -880.20887829 748.67181363 -875.63793945 746.1315918 C-874.30017692 745.47963219 -872.95834423 744.83598048 -871.61328125 744.19921875 C-870.11488851 743.47026559 -868.61668661 742.74092002 -867.11865234 742.01123047 C-866.3346405 741.63270935 -865.55062866 741.25418823 -864.74285889 740.86419678 C-849.69839494 733.5801811 -835.2311656 725.78159324 -821.05664062 716.90478516 C-817.74593201 714.84167425 -814.41433003 712.81441913 -811.078125 710.79296875 C-809.32543023 709.72762368 -807.57324148 708.66145323 -805.8213501 707.5947876 C-804.19411283 706.60455754 -802.56559025 705.61644057 -800.93701172 704.62841797 C-794.92242711 700.93697268 -789.16062442 697.0301707 -783.48779297 692.83276367 C-780.21729067 690.42337596 -776.86541625 688.14856195 -773.5 685.875 C-759.07901753 676.02439195 -745.17782489 665.56583602 -731.72802734 654.42822266 C-729.26845822 652.39537731 -726.78911185 650.38702377 -724.3125 648.375 C-716.97284053 642.36086112 -709.72610119 636.23327168 -702.5546875 630.01953125 C-696.21767059 624.53550596 -689.80118373 619.21480319 -683.18212891 614.07421875 C-677.52620992 609.66725585 -672.06728603 605.04685572 -666.62207031 600.38378906 C-664.97047188 598.97480955 -663.31088983 597.5758387 -661.6484375 596.1796875 C-655.81359227 591.27661353 -650.08319821 586.29435721 -644.4453125 581.1640625 C-641.9380149 578.94514418 -639.36207124 576.84422621 -636.75 574.75 C-630.98765665 570.0910841 -625.61507994 565.06672284 -620.21484375 560 C-617.21882639 557.19161201 -614.15418724 554.47690116 -611.04296875 551.796875 C-608.90772635 549.91884153 -606.82046095 547.99293685 -604.73535156 546.05957031 C-600.46701975 542.10362114 -596.1698656 538.26624726 -591.625 534.625 C-586.59116659 530.57762386 -581.90409485 526.2368019 -577.20727539 521.81054688 C-572.75618512 517.63944948 -568.14159771 513.78948871 -563.37890625 509.9765625 C-560.68753389 507.7403812 -558.2950441 505.32554939 -555.87109375 502.80859375 C-553.55193412 500.56690083 -551.07791798 498.58104529 -548.5625 496.5625 C-545.18695379 493.84828529 -542.01254873 491.11152364 -539 488 C-535.14552992 484.01889436 -530.91772427 480.62616495 -526.6015625 477.16015625 C-523.76791454 474.8072924 -521.21093617 472.30303171 -518.65234375 469.66015625 C-516.33631742 467.33317944 -513.85302088 465.22449076 -511.3671875 463.08203125 C-508.36278158 460.43954221 -505.43247611 457.72178686 -502.5 455 C-498.41447834 451.21098474 -494.29605949 447.47827463 -490.08203125 443.83203125 C-486.86430666 441.00067509 -483.71867933 438.09102542 -480.56445312 435.18945312 C-476.56937363 431.51599009 -472.54344742 427.87847048 -468.50390625 424.25390625 C-465.78392109 421.80549527 -463.07904439 419.34099921 -460.375 416.875 C-457.29690434 414.07242619 -454.2069813 411.29032125 -451.0625 408.5625 C-447.16364027 405.17392048 -443.36152318 401.6828247 -439.56054688 398.18554688 C-436.412692 395.2904683 -433.24787622 392.41638992 -430.0625 389.5625 C-426.13172982 386.03683334 -422.24787673 382.46387316 -418.375 378.875 C-414.33065436 375.12859752 -410.25130361 371.43954902 -406.08203125 367.83203125 C-403.39483502 365.46750023 -400.75948451 363.04783285 -398.125 360.625 C-391.58724309 354.61313964 -385.03915409 348.61333504 -378.3125 342.8125 C-374.28198498 339.30734743 -370.39621442 335.65264155 -366.5 332 C-362.01973679 327.79982162 -357.5271214 323.63544948 -352.875 319.625 C-346.94502962 314.48569233 -341.17409173 309.16075581 -335.375 303.875 C-332.29690434 301.07242619 -329.2069813 298.29032125 -326.0625 295.5625 C-322.11332633 292.13231424 -318.26977695 288.58996482 -314.42211914 285.04711914 C-311.03537381 281.93400701 -307.60093751 278.88747918 -304.125 275.875 C-300.84491419 272.98080664 -297.63731943 270.00781108 -294.41967773 267.04467773 C-291.66526572 264.51259884 -288.89257501 262.00964732 -286.0625 259.5625 C-281.87890143 255.93787911 -277.8356539 252.16614933 -273.77758789 248.40258789 C-270.88635872 245.72598962 -267.98110596 243.07688821 -265 240.5 C-260.88639854 236.94182153 -256.90904725 233.2415788 -252.92016602 229.54516602 C-248.8255749 225.75348353 -244.69158422 222.00904537 -240.53515625 218.28515625 C-236.68093459 214.81101192 -232.86869815 211.29162461 -229.0546875 207.7734375 C-226.77880629 205.68911343 -224.46311888 203.65605069 -222.1328125 201.6328125 C-217.99148028 198.02204241 -213.98842178 194.27809485 -210 190.5 C-205.34392182 186.08945719 -200.63788745 181.76370532 -195.79492188 177.55859375 C-189.18478671 171.81878106 -182.75971664 165.86783715 -176.31689453 159.94189453 C-173.6177239 157.46469231 -170.8981828 155.01894413 -168.125 152.625 C-164.33197532 149.339828 -160.6686672 145.92238981 -157 142.5 C-152.72062563 138.50820139 -148.41935289 134.56209682 -143.98828125 130.73828125 C-141.45947072 128.52743511 -138.98127436 126.26403557 -136.5 124 C-133.38092989 121.15475772 -130.25244609 118.3280042 -127.0625 115.5625 C-123.11254739 112.13163767 -119.268129 108.58869729 -115.41992188 105.04492188 C-112.6654424 102.51274592 -109.89266213 100.00972265 -107.0625 97.5625 C-102.93011239 93.97995191 -98.9290721 90.26032872 -94.91821289 86.54321289 C-91.63497817 83.50258406 -88.33332232 80.48587504 -85 77.5 C-81.13337485 74.03510214 -77.30984141 70.52697616 -73.5 67 C-69.69015859 63.47302384 -65.86662515 59.96489786 -62 56.5 C-57.05135091 52.06383237 -52.17165228 47.55566166 -47.29296875 43.04296875 C-42.70581031 38.80068919 -38.09661739 34.58252305 -33.48828125 30.36328125 C-31.98100655 28.9826018 -30.47472835 27.60084325 -28.96875 26.21875 C-10.09261191 8.89665319 -10.09261191 8.89665319 -2.4609375 2.27734375 C-1.61953273 1.54167701 -0.79030613 0.79030613 0 0 Z " transform="translate(1697,552)" style="fill: #FBFBFA;"/><path d="M0 0 C-0.4125 0.41507813 -0.825 0.83015625 -1.25 1.2578125 C-13.97101335 14.83067943 -22.63635694 33.93475152 -22.19140625 52.65234375 C-21.69986355 58.68126545 -19.74793732 63.6290316 -17 69 C-17 69.99 -17 70.98 -17 72 C-17.99257813 72.24234375 -18.98515625 72.4846875 -20.0078125 72.734375 C-27.81437533 74.65478365 -35.55999027 76.70197352 -43.28125 78.9453125 C-47.44433052 80.12601811 -51.62477832 81.22334229 -55.8125 82.3125 C-58.29125747 82.96385418 -60.7693432 83.61768642 -63.24707031 84.27294922 C-65.17546051 84.78223851 -67.1045592 85.28884916 -69.03417969 85.79345703 C-94.47989306 92.47481683 -94.47989306 92.47481683 -116.546875 106.27734375 C-119 108 -119 108 -123 108 C-124.56626418 105.74201993 -125.84331107 103.59992082 -127.125 101.1875 C-132.98326555 90.85471473 -139.74900923 81.77009805 -151 77 C-151.64839844 76.68417969 -152.29679688 76.36835937 -152.96484375 76.04296875 C-165.04561598 70.96487064 -178.88835466 73.57931919 -190.65625 78.11328125 C-207.44690739 85.13287366 -222.26711913 97.15805924 -235.40234375 109.55078125 C-237.57698629 111.6011585 -239.78671537 113.56443367 -242.0625 115.5 C-250.06330315 122.47165419 -257.21748027 130.02765729 -263.82421875 138.32421875 C-265.94496574 140.93231873 -268.15871428 143.40465261 -270.4375 145.875 C-301.09161255 179.61581139 -324.70482612 222.53022946 -338 266 C-338.22284668 266.72509766 -338.44569336 267.45019531 -338.67529297 268.19726562 C-343.6077716 284.47698202 -346.62717938 301.17170636 -349 318 C-349.33 318 -349.66 318 -350 318 C-350.62876359 275.3279113 -350.62876359 275.3279113 -347 257 C-346.82839355 256.07944824 -346.65678711 255.15889648 -346.47998047 254.21044922 C-343.14296962 236.48761143 -337.82579223 219.67381104 -331 203 C-330.505 201.78957031 -330.01 200.57914063 -329.5 199.33203125 C-318.92066776 174.50917098 -305.72599975 150.16155893 -287.625 129.9765625 C-285.41378209 127.46919934 -283.36554771 124.92012367 -281.3125 122.28515625 C-276.90525213 116.74302138 -272.03843204 111.77840915 -267 106.8125 C-266.14921875 105.96236328 -265.2984375 105.11222656 -264.421875 104.23632812 C-220.42146616 60.53960309 -167.6206317 42.63804943 -108.63363647 28.80033875 C-100.80491198 26.96103601 -92.99145729 25.06681962 -85.1875 23.125 C-84.12370117 22.86332031 -83.05990234 22.60164063 -81.96386719 22.33203125 C-75.63730936 20.74988469 -69.41786093 18.92951877 -63.19458008 16.98193359 C-58.24334141 15.46004732 -53.24646201 14.11423147 -48.25 12.75 C-37.13182162 9.67873158 -26.14458711 6.26417077 -15.17578125 2.69921875 C-14.26650879 2.40450684 -13.35723633 2.10979492 -12.42041016 1.80615234 C-10.44665963 1.1487664 -8.49149184 0.4358009 -6.54296875 -0.29296875 C-3.87077708 -1.03592834 -2.56092688 -0.98497188 0 0 Z " transform="translate(690,1264)" style="fill: #FCFCFC;"/><path d="M0 0 C8.48644508 5.94346851 18.45779785 17.63519129 21.6796875 27.6328125 C21.29296875 30.3828125 21.29296875 30.3828125 20.6796875 32.6328125 C20.1434375 32.560625 19.6071875 32.4884375 19.0546875 32.4140625 C3.45388612 30.56659918 -9.92337093 30.34868678 -23.2578125 39.8828125 C-26.39877598 42.44962137 -28.03433404 44.80211209 -29.8828125 48.3828125 C-31.95399997 51.82318833 -32.95371559 52.52744093 -36.89453125 53.66015625 C-38.99449697 54.02761265 -41.0956332 54.32370671 -43.20849609 54.60693359 C-51.84369091 55.81263239 -58.70586839 59.89547957 -64.3203125 66.6328125 C-67.54386207 70.94055893 -69.31446207 74.36388101 -70.1328125 79.6953125 C-70.80859375 82.25 -70.80859375 82.25 -72.3203125 84.6328125 C-76.80063835 87.23025403 -81.48461708 88.97485967 -86.3125 90.81494141 C-96.51223227 94.9697448 -105.32398258 102.35453048 -109.6953125 112.5703125 C-110.63346975 115.05599081 -111.28964307 117.33367673 -111.56103516 119.98071289 C-112.38774086 126.71416181 -112.38774086 126.71416181 -115.03759766 129.32446289 C-117.28312729 130.77087989 -119.55782798 131.99824439 -121.9453125 133.1953125 C-131.37494915 138.44276332 -138.73272632 143.8901332 -142.61328125 154.359375 C-143.4143653 158.06826139 -143.62587412 161.64086853 -143.84082031 165.42211914 C-144.55579738 177.56314061 -144.55579738 177.56314061 -147.16015625 181.20703125 C-148.700259 182.3785624 -150.27371116 183.50734503 -151.875 184.59375 C-162.17737356 193.18454712 -166.43235208 212.43101394 -168.08984375 225.1640625 C-170.00706601 239.32350969 -170.00706601 239.32350969 -173.921875 243.2265625 C-177.05692366 244.84567624 -179.8906414 245.82709831 -183.3203125 246.6328125 C-184.61195313 247.00986328 -184.61195313 247.00986328 -185.9296875 247.39453125 C-189.80917942 248.41647795 -193.31390965 248.65672148 -197.3203125 248.6328125 C-199.37942668 175.64865433 -155.00135002 104.19491174 -107.5703125 52.10546875 C-105.97549441 50.35283012 -104.3933938 48.58858065 -102.8203125 46.81640625 C-98.50598543 41.98251845 -94.18074464 37.44789368 -89.21484375 33.28515625 C-87.30653733 31.62079828 -85.61408695 29.85424933 -83.8828125 28.0078125 C-71.36123705 15.3634765 -54.96556393 4.03234606 -38.3203125 -2.3671875 C-37.66675781 -2.66367188 -37.01320313 -2.96015625 -36.33984375 -3.265625 C-24.57783511 -8.07635274 -10.74479691 -6.33110929 0 0 Z " transform="translate(542.3203125,1347.3671875)" style="fill: #FCFCFC;"/><path d="M0 0 C0.33 0 0.66 0 1 0 C1.6480612 3.52042699 2.29304487 7.04141124 2.9375 10.5625 C3.11990234 11.55314453 3.30230469 12.54378906 3.49023438 13.56445312 C3.84552728 15.50887428 4.18971111 17.45536136 4.5222168 19.40380859 C4.99452237 22.17184133 4.99452237 22.17184133 5.953125 25.51171875 C6.0285798 31.12681333 3.3930227 35.36292353 0.8125 40.25 C0.26730713 41.30687012 -0.27788574 42.36374023 -0.83959961 43.45263672 C-8.81555273 58.67122735 -17.95129796 72.84276704 -29 86 C-29.53834473 86.64517578 -30.07668945 87.29035156 -30.63134766 87.95507812 C-32.32743832 89.97889461 -34.03543758 91.99181599 -35.75 94 C-36.26876709 94.61133789 -36.78753418 95.22267578 -37.32202148 95.85253906 C-40.49464082 99.51034697 -43.82472991 102.6920253 -47.59082031 105.73828125 C-49.13666639 106.9666292 -49.13666639 106.9666292 -50 109 C-50.66 109 -51.32 109 -52 109 C-52 109.66 -52 110.32 -52 111 C-53.52837269 112.39599396 -55.12650099 113.71587649 -56.75 115 C-57.76835938 115.81082031 -58.78671875 116.62164063 -59.8359375 117.45703125 C-60.36670898 117.87936035 -60.89748047 118.30168945 -61.44433594 118.73681641 C-62.87754263 119.90056585 -64.2729001 121.11052135 -65.6640625 122.32421875 C-79.59517937 134.46878029 -95.59588814 144.53088337 -112 153 C-112.80501953 153.41813965 -113.61003906 153.8362793 -114.43945312 154.26708984 C-138.48258231 166.608329 -163.53656257 175.5470465 -190 181 C-190.76441406 181.16435547 -191.52882813 181.32871094 -192.31640625 181.49804688 C-193.01636719 181.64822266 -193.71632813 181.79839844 -194.4375 181.953125 C-195.02144531 182.07848633 -195.60539063 182.20384766 -196.20703125 182.33300781 C-212.9309606 185.54972756 -229.61106509 186.32878085 -246.61157227 186.26074219 C-249.85386192 186.24986119 -253.09561593 186.26079042 -256.33789062 186.2734375 C-258.41927204 186.27211832 -260.50065313 186.26956094 -262.58203125 186.265625 C-263.54140091 186.26967346 -264.50077057 186.27372192 -265.48921204 186.27789307 C-273.78317401 186.21974491 -278.91159802 184.65351613 -285 179 C-285 178.67 -285 178.34 -285 178 C-284.15107178 177.98018066 -283.30214355 177.96036133 -282.42749023 177.93994141 C-253.77816502 177.24028171 -226.85047429 175.07765484 -199 168 C-197.59089355 167.64446045 -197.59089355 167.64446045 -196.15332031 167.28173828 C-179.9175346 163.07653768 -164.43256259 156.48185849 -149 150 C-148.15308594 149.64711914 -147.30617188 149.29423828 -146.43359375 148.93066406 C-119.08384632 137.37184862 -94.00180657 119.7423396 -72 100 C-71.17725586 99.26982666 -71.17725586 99.26982666 -70.33789062 98.52490234 C-58.05615486 87.60020479 -47.27254066 75.75402144 -37.30712891 62.69238281 C-36.0662548 61.08578226 -34.78986203 59.50679993 -33.51171875 57.9296875 C-19.5863838 40.56188538 -9.02760052 20.27790572 0 0 Z " transform="translate(733,1524)" style="fill: #F9F9F9;"/><path d="M0 0 C0.6084375 0.41378906 1.216875 0.82757812 1.84375 1.25390625 C2.5346875 1.67800781 3.225625 2.10210938 3.9375 2.5390625 C9.35265045 6.16600095 12.71240723 10.58627338 15.84375 16.25390625 C16.18535156 16.86878906 16.52695312 17.48367188 16.87890625 18.1171875 C20.7427452 26.50980512 19.89356504 37.4061162 16.87890625 45.9453125 C12.26852467 56.2273333 5.74600742 61.80545366 -4.53125 66.12890625 C-14.1409744 69.56095068 -22.67887102 69.05296972 -32.15625 65.25390625 C-42.38661798 59.80656746 -47.84669105 51.93258309 -51.46484375 41.078125 C-53.68827623 31.99596861 -52.23455253 23.0940503 -47.90234375 14.875 C-43.40030802 7.62512775 -37.13738307 1.15205937 -29.10546875 -2.0859375 C-20.11431428 -4.09852704 -8.2028659 -4.67107641 0 0 Z " transform="translate(767.15625,1244.74609375)" style="fill: #080808;"/><path d="M0 0 C-0.1409349 2.43787385 -0.28754542 4.87517853 -0.4375 7.3125 C-0.47681641 8.00279297 -0.51613281 8.69308594 -0.55664062 9.40429688 C-0.74927415 12.47161535 -1.02322717 15.06968152 -2 18 C-3.98681641 18.82788086 -3.98681641 18.82788086 -6.6015625 19.46484375 C-8.03665161 19.82521729 -8.03665161 19.82521729 -9.50073242 20.19287109 C-11.04724487 20.5614624 -11.04724487 20.5614624 -12.625 20.9375 C-14.75916209 21.46986165 -16.89327679 22.00241337 -19.02734375 22.53515625 C-20.06487793 22.7892627 -21.10241211 23.04336914 -22.17138672 23.30517578 C-27.34968129 24.57717874 -32.49957433 25.94787497 -37.64257812 27.35595703 C-39.46062947 27.85264504 -41.27987344 28.34496904 -43.09960938 28.83544922 C-76.49309153 37.13899715 -76.49309153 37.13899715 -102 59 C-104.17511852 62.92488053 -106.14193049 66.91633076 -108 71 C-110.95913579 67.39438634 -113.65175544 63.68580902 -116.25 59.8125 C-116.95640625 58.76707031 -117.6628125 57.72164062 -118.390625 56.64453125 C-120 54 -120 54 -120 52 C-119.46375 51.484375 -118.9275 50.96875 -118.375 50.4375 C-116.23344838 48.23959176 -114.94831696 46.34686691 -113.375 43.75 C-102.44368789 27.10707732 -80.62263847 21.77152295 -62.5 17.0625 C-61.15855814 16.70957191 -59.81725088 16.35613181 -58.47607422 16.00219727 C-52.87571652 14.52648406 -47.27067332 13.06895824 -41.6640625 11.6171875 C-32.71464066 9.29474456 -23.81622664 6.83126915 -14.9375 4.25 C-13.88256348 3.94376709 -12.82762695 3.63753418 -11.74072266 3.32202148 C-10.76280762 3.03528564 -9.78489258 2.7485498 -8.77734375 2.453125 C-7.90327881 2.19692383 -7.02921387 1.94072266 -6.12866211 1.67675781 C-0.8546176 0 -0.8546176 0 0 0 Z " transform="translate(683,1337)" style="fill: #F9F9F9;"/><path d="M0 0 C8.09925797 0.33410879 15.50788149 0.76410446 23 4 C23.99386719 4.39832031 23.99386719 4.39832031 25.0078125 4.8046875 C30.81065357 7.37614256 35.91971806 11.12263972 40 16 C40.61656307 20.22786105 38.71448966 22.69686556 36.4375 26.125 C32.18055865 31.35352561 28.35552964 33.55311872 21.65625 34.4453125 C15.85967375 34.73018697 11.19469086 34.80542203 6.375 31.3125 C1.19402726 26.59648635 -2.61845143 22.00378245 -3.30078125 14.84375 C-3.30464844 13.7403125 -3.30851563 12.636875 -3.3125 11.5 C-3.32925781 10.3965625 -3.34601562 9.293125 -3.36328125 8.15625 C-2.96567355 4.70176593 -1.98922952 2.81326392 0 0 Z " transform="translate(732,1265)" style="fill: #FBFBFB;"/><path d="M0 0 C5.58490476 4.44512827 9.79211991 9.24454091 14 15 C12.948125 15.9590625 12.948125 15.9590625 11.875 16.9375 C-2.60327455 31.70126165 -6.0025993 54.24353167 -8 74 C-9.11153413 72.92432181 -10.2111855 71.8353095 -11.2734375 70.7109375 C-13.05635771 68.88089954 -13.05635771 68.88089954 -15.4765625 67.0390625 C-18.36588555 64.48144421 -20.24763173 62.452686 -22 59 C-21.76382664 53.78271584 -20.3278033 49.23869999 -18.70507812 44.30273438 C-17.77089433 41.25175738 -17.14680605 38.17247412 -16.5222168 35.04589844 C-13.84147998 21.65787451 -10.16577101 9.60100595 0 0 Z " transform="translate(403,1536)" style="fill: #F9F9F8;"/><path d="M0 0 C1.80068015 2.42649031 3.47836549 4.84739297 5.125 7.375 C5.59292969 8.07367187 6.06085938 8.77234375 6.54296875 9.4921875 C10 14.73316782 10 14.73316782 10 17 C8.94941406 17.42410156 7.89882813 17.84820313 6.81640625 18.28515625 C-5.78180812 23.49614032 -17.21856972 29.65921835 -23.3125 42.5 C-24.90413693 46.35030842 -25.64752546 49.85842416 -26 54 C-30.34748309 49.80709409 -34.16762777 45.36434135 -37 40 C-36.5 37.0625 -36.5 37.0625 -35 34 C-34.85347582 32.21129913 -34.75392454 30.41846255 -34.6875 28.625 C-34.1013062 21.30254522 -31.2064813 16.90503097 -25.8671875 12.0390625 C-21.98981928 8.78689574 -17.85509451 6.72483239 -13.25 4.6875 C-12.49589844 4.34138672 -11.74179687 3.99527344 -10.96484375 3.63867188 C-2.97820724 0 -2.97820724 0 0 0 Z " transform="translate(476,1443)" style="fill: #F9F9F9;"/><path d="M0 0 C1.80791016 -0.00386719 1.80791016 -0.00386719 3.65234375 -0.0078125 C4.77769531 0.03601562 5.90304687 0.07984375 7.0625 0.125 C8.36960937 0.16173828 8.36960937 0.16173828 9.703125 0.19921875 C13.42108524 1.65808725 14.91413446 4.77046452 16.875 8.0625 C17.48504883 9.03219727 17.48504883 9.03219727 18.10742188 10.02148438 C21.0625 14.80424107 21.0625 14.80424107 21.0625 17.125 C20.16789063 17.16238281 19.27328125 17.19976563 18.3515625 17.23828125 C6.81752916 17.8653982 -2.9541142 19.3783327 -11.9375 27.125 C-13.69065192 29.20851032 -15.25103963 31.31141072 -16.74609375 33.5859375 C-17.13925781 34.09382813 -17.53242187 34.60171875 -17.9375 35.125 C-18.5975 35.125 -19.2575 35.125 -19.9375 35.125 C-21.61184706 32.92723361 -23.12911335 30.75184704 -24.625 28.4375 C-25.05361328 27.81166016 -25.48222656 27.18582031 -25.92382812 26.54101562 C-27.72413851 23.77242236 -28.94926952 21.79782419 -28.890625 18.4453125 C-25.4648684 10.10556079 -18.93832997 4.87748307 -10.9375 1.125 C-7.32986575 -0.12786043 -3.79486102 -0.00810002 0 0 Z " transform="translate(546.9375,1389.875)" style="fill: #FAFAF9;"/><path d="M0 0 C2.01171875 2.046875 2.01171875 2.046875 3.6875 4.75 C4.24824219 5.63171875 4.80898438 6.5134375 5.38671875 7.421875 C5.91910156 8.27265625 6.45148437 9.1234375 7 10 C7.56332031 10.72703125 8.12664063 11.4540625 8.70703125 12.203125 C10 14 10 14 10 16 C9.32195313 16.08636719 8.64390625 16.17273437 7.9453125 16.26171875 C-2.44893448 17.83093332 -11.51040716 21.39135644 -18 30 C-19.88413411 33.24712474 -21.46844409 36.57550981 -23 40 C-23.66030564 41.33649492 -24.32479239 42.67097144 -25 44 C-34.81452679 31.30966638 -34.81452679 31.30966638 -35.20703125 26.421875 C-34.40738689 24.0361957 -33.3186746 22.14331055 -32 20 C-31.57332031 18.99839844 -31.14664062 17.99679687 -30.70703125 16.96484375 C-28.22843628 11.25088391 -25.99995446 6.80574576 -20.34375 3.890625 C-13.97935636 1.47215542 -6.85298247 -0.88817645 0 0 Z " transform="translate(514,1412)" style="fill: #F8F8F8;"/><path d="M0 0 C0.66 0.33 1.32 0.66 2 1 C1.84442627 1.55010742 1.68885254 2.10021484 1.52856445 2.66699219 C-4.45817315 24.08303553 -8.69802873 45.8735896 -11 68 C-14.465 68.495 -14.465 68.495 -18 69 C-23.75164346 59.24274771 -23.87322477 45.90704305 -21.15234375 35.0859375 C-16.72978333 21.8032645 -9.1938025 10.42815562 0 0 Z " transform="translate(695,1264)" style="fill: #F9F9F8;"/><path d="M0 0 C1.46386719 1.37695312 1.46386719 1.37695312 2.796875 3.28125 C3.28027344 3.95800781 3.76367188 4.63476562 4.26171875 5.33203125 C4.75285156 6.04746094 5.24398438 6.76289062 5.75 7.5 C6.25660156 8.21542969 6.76320313 8.93085937 7.28515625 9.66796875 C8.53527582 11.43700587 9.76920247 13.21746565 11 15 C7.98712161 17.33391988 4.86445964 19.36962023 1.625 21.375 C-1.62672717 23.41274903 -4.64691415 25.43365644 -7.5 28 C-8.325 28.66 -9.15 29.32 -10 30 C-13.86787617 28.71070794 -15.35337958 26.34061004 -17.6875 23.1875 C-18.10322266 22.65318359 -18.51894531 22.11886719 -18.94726562 21.56835938 C-21.36721844 18.33778197 -22 17.17650955 -22 13 C-16.54859903 7.38103548 -8.06936718 0 0 0 Z " transform="translate(437,1486)" style="fill: #F9F9F9;"/><path d="M0 0 C3.47781111 3.40355179 6.7444899 6.89917978 9.875 10.625 C10.67679687 11.56601563 11.47859375 12.50703125 12.3046875 13.4765625 C12.86414063 14.30929687 13.42359375 15.14203125 14 16 C13 19 13 19 10.015625 20.5703125 C8.76511691 21.09978295 7.50961798 21.61758304 6.25 22.125 C5.62867188 22.38925781 5.00734375 22.65351562 4.3671875 22.92578125 C2.59604816 23.66188768 0.79818338 24.33267417 -1 25 C-1.85851562 25.3403125 -2.71703125 25.680625 -3.6015625 26.03125 C-6 26 -6 26 -8.7890625 23.6484375 C-9.75115766 22.57206031 -10.69601687 21.48008158 -11.625 20.375 C-12.34042969 19.57255859 -12.34042969 19.57255859 -13.0703125 18.75390625 C-15.76105896 15.68197071 -18.01323223 12.58684919 -20 9 C-19.46632813 8.84144531 -18.93265625 8.68289063 -18.3828125 8.51953125 C-8.47062405 5.57648479 -8.47062405 5.57648479 0 0 Z " transform="translate(378,1597)" style="fill: #F8F8F8;"/><path d="M0 0 C1.72972659 1.62489468 3.3656298 3.28130112 5 5 C5.98806641 5.98226563 5.98806641 5.98226563 6.99609375 6.984375 C9.05682891 9.24997857 10.65176037 11.24586575 12 14 C11.7785541 16.60660277 10.98051467 18.54703355 9.98046875 20.9609375 C8.67345889 25.01214734 8.49806206 28.89208425 8.3125 33.125 C8.27705078 33.89650391 8.24160156 34.66800781 8.20507812 35.46289062 C8.12701336 37.30820873 8.06210186 39.15407574 8 41 C6.85173137 39.85173137 5.70788047 38.69882307 4.58203125 37.52856445 C3.00474963 35.94121477 3.00474963 35.94121477 1.07421875 34.55541992 C-1.08032068 32.81457149 -2.55628262 31.37372264 -4 29 C-4.45020489 24.63976561 -3.75953706 20.60909687 -3 16.3125 C-2.83371094 15.18521484 -2.66742188 14.05792969 -2.49609375 12.89648438 C-1.83888666 8.54701538 -1.12857277 4.25419032 0 0 Z " transform="translate(411,1505)" style="fill: #F4F4F4;"/><path d="M0 0 C5.94640513 2.70186175 10.00443184 7.28334263 12.94921875 13.0390625 C13.57421875 15.3515625 13.57421875 15.3515625 13.57421875 19.3515625 C10.90171584 18.22088819 9.19198787 17.00662244 7.01171875 15.0390625 C-1.06454994 8.2114937 -11.27691039 6.17391449 -21.42578125 4.3515625 C-15.45170651 -1.82164807 -8.33404472 -2.22778007 0 0 Z " transform="translate(759.42578125,1255.6484375)" style="fill: #EEEEEE;"/><path d="M0 0 C3.39792055 0.56738862 4.83096984 1.5243223 7.015625 4.16015625 C7.54414063 4.78857422 8.07265625 5.41699219 8.6171875 6.06445312 C9.15601563 6.72380859 9.69484375 7.38316406 10.25 8.0625 C10.80429687 8.72572266 11.35859375 9.38894531 11.9296875 10.07226562 C13.29473642 11.7079708 14.64847909 13.35309951 16 15 C11.08347108 15 8.39965635 11.30044459 5 8 C0 2.70095694 0 2.70095694 0 0 Z " transform="translate(350,1606)" style="fill: #CFCFCE;"/><path d="M0 0 C0.66 0.33 1.32 0.66 2 1 C1.34 3.31 0.68 5.62 0 8 C-0.66 7.34 -1.32 6.68 -2 6 C-3.65 7.32 -5.3 8.64 -7 10 C-5.33248852 6.05860922 -2.77289351 3.2107188 0 0 Z " transform="translate(695,1264)" style="fill: #C4C4C4;"/></svg>