<?xml version="1.0" encoding="UTF-8"?>
<!-- Generator: visioncortex VTracer -->
<svg id="svg" version="1.1" xmlns="http://www.w3.org/2000/svg" style="display: block;" viewBox="0 0 2048 2048"><path d="M0 0 C675.84 0 1351.68 0 2048 0 C2048 675.84 2048 1351.68 2048 2048 C1372.16 2048 696.32 2048 0 2048 C0 1372.16 0 696.32 0 0 Z " transform="translate(0,0)" style="fill: #FEFEFE;"/><path d="M0 0 C1.17669878 -0.00307895 1.17669878 -0.00307895 2.37716925 -0.0062201 C4.99771616 -0.01186066 7.61821002 -0.01043651 10.2387619 -0.00901413 C12.13992164 -0.01159946 14.04108084 -0.01461309 15.94223928 -0.01801753 C21.16080449 -0.02607113 26.37935593 -0.02787619 31.59792662 -0.028615 C37.22868689 -0.03046842 42.85944007 -0.03801722 48.49019623 -0.04475021 C60.80032059 -0.05832255 73.11044169 -0.06435658 85.42057228 -0.06876087 C93.11010685 -0.07152523 100.79964017 -0.07576295 108.48917389 -0.08026505 C129.78781573 -0.09245643 151.08645624 -0.10279126 172.38510132 -0.10614014 C173.76159671 -0.10636177 175.1380921 -0.10658355 176.51458749 -0.10680549 C177.89433883 -0.10702613 179.27409016 -0.10724661 180.6538415 -0.10746694 C183.42169094 -0.10790948 186.18954039 -0.1083566 188.95738983 -0.10880661 C189.64365192 -0.108916 190.32991401 -0.10902539 191.03697192 -0.1091381 C213.27952205 -0.11276719 235.52203955 -0.12868267 257.76457719 -0.15199697 C281.30032384 -0.17662153 304.83604524 -0.19030749 328.37180662 -0.19150805 C341.19369257 -0.1924239 354.01553581 -0.19815356 366.83740997 -0.21632767 C377.75682642 -0.23175085 388.67618695 -0.23683602 399.59561223 -0.22858956 C405.16312473 -0.2246909 410.73052468 -0.22557437 416.29802322 -0.23964691 C421.40330685 -0.25243271 426.5083939 -0.25114738 431.61367744 -0.2390562 C433.45220531 -0.23710729 435.29074733 -0.24014001 437.12925535 -0.24890056 C451.60360334 -0.31345738 465.88814726 0.46726437 479.15758514 6.88142776 C479.90757782 7.22995804 480.6575705 7.57848831 481.43029022 7.93758011 C487.55986173 10.84950625 493.34958811 14.13644036 498.84508514 18.13142776 C499.47285858 18.58775589 500.10063202 19.04408401 500.74742889 19.51424026 C509.29899724 26.30119927 515.65643806 35.63730757 520.84508514 45.13142776 C521.46576874 46.2335762 521.46576874 46.2335762 522.09899139 47.35799026 C524.17521949 51.2210767 525.04499896 53.66412283 524.84508514 58.13142776 C526.13801483 58.09662308 527.43094452 58.06181839 528.76305389 58.02595901 C547.12055575 57.67381492 563.81900473 60.1901324 577.84508514 73.13142776 C580.25914764 76.07674026 580.25914764 76.07674026 582.47008514 79.25642776 C583.20485077 80.29025589 583.93961639 81.32408401 584.69664764 82.38924026 C590.86892246 92.51011748 591.42169734 102.4108712 591.34679413 113.91878128 C591.35058412 115.58889088 591.35608974 117.25899732 591.36316681 118.92909622 C591.377049 123.43530641 591.36600335 127.94113168 591.3494556 132.44732022 C591.3355331 137.17917838 591.34207325 141.91101582 591.34558868 146.64288712 C591.34828487 154.58566311 591.33486528 162.52828747 591.31163788 170.47102737 C591.28502273 179.63527853 591.28328619 188.79927644 591.29502624 197.96355301 C591.30582927 206.80502005 591.29959775 215.64639608 591.28547096 224.48785591 C591.27973397 228.23920676 591.27977574 231.9904905 591.28453636 235.74184227 C591.28933129 240.16364772 591.27910095 244.5851781 591.25758171 249.0069313 C591.25204813 250.62335088 591.25151677 252.23979708 591.25653458 253.85621834 C591.27961637 262.36245289 591.02496541 270.10174988 587.84508514 278.13142776 C587.3326828 279.52361526 587.3326828 279.52361526 586.80992889 280.94392776 C581.49432934 292.26231464 572.35454843 299.93221778 560.79039764 304.27986526 C554.15652654 306.56684772 548.1589255 308.2667959 541.10680389 308.22908401 C540.04010468 308.22586136 538.97340546 308.2226387 537.87438202 308.21931839 C536.77158905 308.21093948 535.66879608 308.20256058 534.53258514 308.19392776 C533.41045624 308.18941605 532.28832733 308.18490433 531.13219452 308.18025589 C528.36977005 308.16850089 525.60745516 308.15206853 522.84508514 308.13142776 C522.65897675 308.72963333 522.47286835 309.3278389 522.2811203 309.94417191 C518.21359185 322.64201292 509.7790491 332.38227913 499.34508514 340.56892776 C479.48248931 356.41468064 470.12022406 381.56182093 467.28258514 406.19002151 C463.63355792 444.22813927 476.28001805 482.87126908 485.81212616 519.33430862 C488.23027278 528.61319788 490.50708069 537.9092986 492.63024139 547.26033401 C496.16799085 562.8041048 500.12019813 578.23860454 504.06466293 593.68289948 C505.07169148 597.62921701 506.07492979 601.57649738 507.07823944 605.52376175 C507.47937291 607.10175065 507.88051119 608.67973833 508.28165436 610.25772476 C508.47842962 611.03179987 508.67520489 611.80587498 508.87794304 612.60340691 C509.46512934 614.91271862 510.05266027 617.22194236 510.64032745 619.53113174 C513.49492999 630.74815613 516.34525978 641.96621284 519.15758514 653.19392776 C519.33309906 653.89438217 519.50861298 654.59483658 519.6894455 655.31651688 C521.90474926 664.17445639 523.99593294 673.05349871 525.96544647 681.96931839 C528.0224475 691.1647022 530.41899541 700.273209 532.81603241 709.38460159 C534.95361861 717.54133683 536.95193609 725.72101368 538.889534 733.92717361 C541.03402223 742.9850241 543.30373717 752.00993098 545.58086395 761.03517532 C549.62514371 777.07897419 553.57759516 793.13255083 557.20104218 809.27742386 C557.88317951 812.30023865 558.57953472 815.31953465 559.27867889 818.33845901 C559.73836852 820.3319361 560.1980062 822.32542516 560.65758514 824.31892776 C560.96865204 825.65673294 560.96865204 825.65673294 561.28600311 827.02156448 C566.06628899 847.90556446 565.95789296 870.46540058 556.84508514 890.13142776 C556.36297577 891.21037308 555.88086639 892.28931839 555.38414764 893.40095901 C544.76208549 916.01647632 526.96296478 933.10315016 503.54430389 941.91267776 C497.20147524 944.00239534 490.57049189 946.13142776 483.84508514 946.13142776 C483.72286591 947.00307571 483.60064667 947.87472366 483.47472382 948.77278519 C482.44457318 954.26785396 480.23145957 959.26983814 478.15758514 964.44392776 C477.52433319 966.07878128 477.52433319 966.07878128 476.87828827 967.74666214 C470.032791 984.91719301 470.032791 984.91719301 462.22008514 989.56892776 C461.48531952 990.0213887 460.75055389 990.47384964 459.99352264 990.94002151 C453.19580628 994.70966423 447.52543707 995.17883734 439.84508514 995.13142776 C442.19928167 1006.25902748 445.55332202 1016.06535234 450.84508514 1026.13142776 C451.19764374 1026.80770218 451.55020233 1027.48397659 451.91344452 1028.18074417 C456.47843469 1036.84816577 461.3367428 1044.75614406 467.84508514 1052.13142776 C468.90856171 1053.37472855 468.90856171 1053.37472855 469.99352264 1054.64314651 C491.39075198 1079.15611276 521.42998848 1095.31018705 553.84508514 1099.13142776 C558.1836408 1099.38525299 562.50014873 1099.41238931 566.84508514 1099.38142776 C567.93047577 1099.38916214 569.01586639 1099.39689651 570.13414764 1099.40486526 C577.55794524 1099.38714737 584.56992284 1098.58433919 591.84508514 1097.13142776 C592.54375702 1096.9960762 593.24242889 1096.86072464 593.96227264 1096.72127151 C615.13327865 1092.38880826 635.38211512 1083.21200138 651.84508514 1069.13142776 C652.65332733 1068.44435745 653.46156952 1067.75728714 654.29430389 1067.04939651 C679.05927205 1045.39427122 694.5854594 1013.66388354 698.84508514 981.13142776 C699.09142141 977.32567311 699.11057819 973.53973663 699.08991241 969.7269783 C699.09217699 968.64476143 699.09444156 967.56254457 699.09677476 966.44753325 C699.10203126 962.85561234 699.09327132 959.2638672 699.0845871 955.67195511 C699.08570115 953.08186157 699.08776078 950.4917683 699.09069061 947.90167618 C699.09589232 942.33778968 699.09443812 936.7739381 699.08891487 931.21005249 C699.08065058 922.38902612 699.09198268 913.56807361 699.10611725 904.74705887 C699.1107176 901.71890467 699.11516816 898.69075026 699.11955547 895.66259575 C699.12065361 894.90592328 699.12175176 894.14925081 699.12288317 893.36964887 C699.135036 884.77299213 699.1426019 876.17633302 699.14855194 867.57966995 C699.1491 866.7947819 699.14964806 866.00989384 699.15021273 865.2012213 C699.15865034 852.51605061 699.15534368 839.83090122 699.14939759 827.14573042 C699.14375 814.07093548 699.15746249 800.99624629 699.18695039 787.92148364 C699.20434646 779.88706264 699.20629702 771.85295015 699.18730523 763.81853129 C699.17416036 757.63287551 699.18743338 751.44751601 699.20973206 745.26189232 C699.21472087 742.75076579 699.21144904 740.23960469 699.19859886 737.72850609 C698.97340175 690.29171084 715.06679186 646.59949751 748.44225311 612.49959183 C778.96026927 582.12247141 820.94679064 564.79117528 863.90758514 564.75642776 C865.19116913 564.7546553 866.47475311 564.75288284 867.79723358 564.75105667 C875.97953232 564.84748107 883.79976147 565.66780556 891.84508514 567.13142776 C893.16367523 567.35814163 893.16367523 567.35814163 894.5089035 567.58943558 C905.38845813 569.49786721 915.58744803 571.96961796 925.84508514 576.13142776 C926.94594452 576.54908401 928.04680389 576.96674026 929.18102264 577.39705276 C968.0748129 592.88336742 998.65156903 625.50462555 1015.84508514 663.13142776 C1025.20338198 685.12104207 1028.97929032 706.1430881 1029.03795624 729.91682816 C1029.04586872 731.71796192 1029.05413836 733.51909414 1029.06273651 735.32022476 C1029.08880239 741.2064961 1029.10423872 747.09277404 1029.11852264 752.97908401 C1029.12388681 755.01115739 1029.12926433 757.04323073 1029.134655 759.07530403 C1029.15625218 767.52618833 1029.17499039 775.97707081 1029.18627739 784.42797565 C1029.20253517 796.51729217 1029.2357936 808.60628841 1029.29267824 820.69548422 C1029.33137882 829.2112192 1029.35090964 837.72686846 1029.35619795 846.24268907 C1029.35984833 851.32348045 1029.37183866 856.40392897 1029.40430069 861.48462486 C1029.43438697 866.26102223 1029.44069116 871.03686921 1029.42891693 875.81334114 C1029.42869631 877.56285912 1029.43699164 879.31240275 1029.45457077 881.06183243 C1029.61713096 898.17417381 1029.61713096 898.17417381 1023.84508514 904.13142776 C1018.89738879 909.14191541 1014.0790398 911.41192943 1007.03258514 911.56892776 C1001.05403334 911.46597607 997.31420594 910.07031389 992.84508514 906.13142776 C987.63907433 900.64401096 985.47179779 895.40694173 985.45981598 887.86043167 C985.45458028 887.15056138 985.44934459 886.44069109 985.44395024 885.70930958 C985.43003544 883.34202775 985.43727829 880.9752949 985.44445038 878.60799026 C985.43870505 876.9056996 985.43162113 875.203413 985.4233017 873.50113297 C985.40820166 869.83927512 985.40241327 866.17756295 985.40382957 862.51567459 C985.40586727 856.71441466 985.38626626 850.91334949 985.36365509 845.11214066 C985.32268419 833.8319805 985.30408978 822.55183566 985.28748322 811.27161789 C985.26513318 796.94284299 985.23136174 782.61411349 985.18028408 768.28541183 C985.16047282 762.53059286 985.15078972 756.77587549 985.14933193 751.02102375 C985.14656022 747.4224656 985.13568297 743.82396248 985.12282181 740.22542763 C985.11858109 738.57037434 985.11765539 736.91530828 985.12049675 735.260252 C985.1740717 699.97482841 973.77595909 668.46241787 948.84508514 643.13142776 C922.8117287 617.85074958 890.62786797 609.34173985 855.16930389 609.81892776 C830.52421491 610.57520207 806.69094494 621.56642616 787.84508514 637.13142776 C786.85895233 637.94095901 785.87281952 638.75049026 784.85680389 639.58455276 C762.0467733 659.34732894 746.94429147 688.96943317 744.61613488 719.0938549 C744.25027869 726.87474505 744.29229772 734.658363 744.31505585 742.44588089 C744.30794218 745.03031811 744.29907188 747.614751 744.28859711 750.19917679 C744.26886029 755.72314305 744.26321481 761.24697157 744.26753426 766.77096939 C744.27367938 774.77037715 744.25663307 782.76961181 744.23412433 790.76898426 C744.19806378 803.77065438 744.1787836 816.77229006 744.17101288 829.77400589 C744.16344085 842.35995958 744.15031661 854.94588151 744.12804413 867.53181839 C744.12667343 868.30834591 744.12530273 869.08487344 744.1238905 869.8849321 C744.10874506 878.37330716 744.09200181 886.86167846 744.07406902 895.35004807 C744.07249705 896.09712653 744.07092508 896.844205 744.06930548 897.61392221 C744.05629892 903.79200645 744.05629892 903.79200645 744.05028787 906.57589287 C744.03155085 915.29082854 744.0176185 924.00574153 744.0124922 932.72069639 C744.0088537 938.83047819 744.0008599 944.94024668 743.99142075 951.05002213 C743.98847126 953.54768608 743.98722251 956.04535272 743.98783302 958.54301834 C743.98850462 961.9621992 743.98312133 965.381322 743.97638702 968.80049515 C743.9781374 969.77910901 743.97988777 970.75772286 743.98169118 971.76599169 C743.83619476 1016.81202309 723.77920516 1059.09905497 692.84508514 1091.13142776 C692.03555389 1091.99252151 691.22602264 1092.85361526 690.39196014 1093.74080276 C667.89400642 1117.10964502 636.40601775 1133.47724284 604.84508514 1140.13142776 C603.5894577 1140.39729691 602.33383026 1140.66316605 601.0401535 1140.93709183 C590.18230309 1143.09965654 579.64772134 1143.65285817 568.59508514 1143.56892776 C567.74102081 1143.56588638 566.88695648 1143.562845 566.00701141 1143.55971146 C552.88581669 1143.49074127 540.54806138 1142.61310118 527.84508514 1139.13142776 C526.06005332 1138.67911351 524.27489229 1138.22730896 522.48961639 1137.77595901 C492.62931121 1129.9649873 466.96871066 1114.51451351 444.84508514 1093.13142776 C443.91051483 1092.24841995 442.97594452 1091.36541214 442.01305389 1090.45564651 C419.08171552 1068.29403139 395.88897571 1030.36036352 394.72008514 997.63142776 C394.76133514 996.80642776 394.80258514 995.98142776 394.84508514 995.13142776 C394.29159393 995.15237503 393.73810272 995.1733223 393.16783905 995.19490433 C372.15436919 995.88587795 372.15436919 995.88587795 364.84508514 991.13142776 C364.08324921 990.64158401 363.32141327 990.15174026 362.53649139 989.64705276 C350.28867761 980.31145102 345.47430759 962.16375829 340.84508514 948.13142776 C340.84508514 947.47142776 340.84508514 946.81142776 340.84508514 946.13142776 C340.25195526 946.14713821 339.65882538 946.16284866 339.04772186 946.17903519 C313.55399427 946.76370844 292.6161603 942.05281043 273.48180389 923.98299026 C261.63791183 911.17404033 253.40208154 893.05340524 253.53258514 875.50642776 C253.5367746 874.72662552 253.54096405 873.94682327 253.54528046 873.14339066 C253.74904796 862.52905477 255.90515949 852.58327107 260.84508514 843.13142776 C261.19184296 842.40697464 261.53860077 841.68252151 261.89586639 840.93611526 C265.80662925 833.22210194 271.58431994 827.17164535 277.84899139 821.28767776 C287.07020628 812.56381282 294.54416373 803.26578304 295.04821014 790.01424026 C295.06935512 788.42836676 295.08481989 786.84240901 295.09508514 785.25642776 C295.11571014 784.49845901 295.13633514 783.74049026 295.15758514 782.95955276 C295.24283701 769.95864362 291.19466778 757.11326751 287.90758514 744.63142776 C287.56931671 743.33334908 287.23142581 742.03517195 286.89391327 740.73689651 C283.61335591 728.14196654 280.2521623 715.56768476 276.84508514 703.00642776 C276.49317108 701.6973848 276.49317108 701.6973848 276.13414764 700.36189651 C274.80810043 695.47833556 273.38985166 690.63884744 271.87242889 685.81111526 C269.77690506 679.06263259 268.06972788 672.24742184 266.40758514 665.38142776 C264.32701062 656.91234406 262.16151864 648.50635487 259.62096405 640.16414261 C258.00725207 634.81747448 256.62036423 629.42827493 255.28258514 624.00642776 C255.07142059 623.15121536 254.86025604 622.29600296 254.64269257 621.41487503 C254.23146848 619.74735575 253.82041199 618.07979513 253.40953827 616.41218948 C249.72139579 601.50966915 245.24791294 586.83475771 240.84508514 572.13142776 C229.97187242 572.64487313 219.23332857 573.58876833 208.43144989 574.91859818 C166.77371091 579.96270126 166.77371091 579.96270126 157.69274139 573.05720901 C150.2114367 565.25957008 148.14859479 558.36648595 148.35680389 547.81502151 C148.83843501 540.40096025 152.36140551 534.56168868 155.84508514 528.13142776 C161.37287096 516.14562254 162.38547438 503.76739346 162.28258514 490.69392776 C162.27954376 490.01755264 162.27650238 489.34117752 162.27336884 488.64430618 C162.2040761 478.19958075 161.34544991 469.0050982 157.84508514 459.13142776 C157.44791989 457.8500891 157.05482724 456.56748239 156.66539764 455.28377151 C151.0561375 437.50177213 142.37500809 420.08221913 132.40758514 404.35017776 C130.45256426 401.25323337 128.84824129 398.09765351 127.28258514 394.78767776 C122.46348559 385.07808861 122.46348559 385.07808861 113.9295578 378.91463089 C107.06670802 377.16311541 100.12562748 376.68608508 93.07115936 376.33064651 C88.73689839 376.06299426 84.54857901 375.34682496 80.28258514 374.56892776 C70.74616093 373.0019097 61.14981254 371.96575783 51.54821014 370.88924026 C44.8295564 370.13550729 38.11748647 369.33426942 31.40758514 368.50642776 C30.38898407 368.3833223 29.370383 368.26021683 28.32091522 368.13338089 C27.38143036 368.01672073 26.4419455 367.90006058 25.47399139 367.77986526 C24.64971649 367.67851273 23.82544159 367.57716019 22.97618866 367.47273636 C20.84508514 367.13142776 20.84508514 367.13142776 17.84508514 366.13142776 C14.9283683 365.78572129 12.01794728 365.47588048 9.09508514 365.19392776 C-27.21682717 361.50253204 -27.21682717 361.50253204 -43.15491486 353.13142776 C-44.01729767 352.69056839 -44.87968048 352.24970901 -45.76819611 351.79549026 C-54.01782516 347.24306339 -63.00533261 340.1263724 -68.15491486 332.13142776 C-68.15491486 331.47142776 -68.15491486 330.81142776 -68.15491486 330.13142776 C-68.93556557 330.76785957 -68.93556557 330.76785957 -69.731987 331.41714859 C-77.92755546 337.26015212 -85.89435379 336.99354239 -95.51819611 336.89314651 C-97.19912234 336.89465245 -98.88004783 336.89809106 -100.56096649 336.90335464 C-104.07205162 336.90766852 -107.58221277 336.89098851 -111.09314728 336.85872269 C-115.55821637 336.81903544 -120.02154535 336.82822034 -124.48666859 336.85295773 C-127.95554705 336.8672539 -131.42403056 336.85696392 -134.89288139 336.83944511 C-136.53724152 336.83365862 -138.18164321 336.83480237 -139.82599068 336.84346962 C-156.58689325 336.90238977 -169.16567941 332.4894319 -181.62757111 320.81502151 C-187.30129501 314.91396978 -190.97441854 308.64433092 -194.15491486 301.13142776 C-194.49522736 300.3360762 -194.83553986 299.54072464 -195.18616486 298.72127151 C-197.31265233 293.1392419 -197.42840897 288.05006651 -197.15491486 282.13142776 C-197.93161026 282.14552185 -198.70830566 282.15961594 -199.50853729 282.17413712 C-207.78323288 282.25806648 -215.86766743 281.74706425 -224.09632111 280.91658401 C-225.45793969 280.78410449 -226.81962118 280.65227025 -228.18135834 280.52101517 C-231.12890251 280.23597195 -234.07607672 279.94744922 -237.02301788 279.65623856 C-244.46483848 278.92165516 -251.90880931 278.20929847 -259.35266113 277.49564552 C-261.13682387 277.32456635 -262.92096771 277.15329013 -264.70509338 276.98182487 C-285.61833411 274.97270479 -306.54244539 273.08896705 -327.46840668 271.21775818 C-336.95909716 270.36888254 -346.44957075 269.51758207 -355.94007111 268.66658401 C-357.03662899 268.56829111 -358.13318687 268.46999821 -359.26297379 268.36872673 C-389.78788271 265.63198272 -420.30897214 262.85314459 -450.83021641 260.07589293 C-453.63449724 259.82072948 -456.43878162 259.56560498 -459.24306679 259.31048912 C-460.61522821 259.18565515 -461.98738881 259.06081212 -463.35954857 258.93595988 C-466.73986171 258.62839154 -470.12018591 258.32094589 -473.50053406 258.01376247 C-480.06788511 257.4168069 -486.63501709 256.81758003 -493.20172882 256.21362686 C-504.81368009 255.14772395 -516.42601872 254.09868225 -528.04651737 253.12971497 C-533.14764741 252.70351656 -538.24782384 252.26647123 -543.34797478 251.82873154 C-545.73671276 251.62698458 -548.1259263 251.43077857 -550.51561165 251.24058151 C-553.80126014 250.97887556 -557.08480258 250.69822783 -560.3685379 250.41365433 C-561.79444905 250.30798267 -561.79444905 250.30798267 -563.24916649 250.20017624 C-572.12917538 249.39538776 -580.56210009 246.78215926 -587.19788361 240.59236526 C-594.59296357 231.29316291 -598.2983131 220.88173844 -598.31604767 209.10335159 C-598.32101257 208.30913803 -598.32597748 207.51492447 -598.33109283 206.69664383 C-598.34565938 204.07723996 -598.35250811 201.45789669 -598.35803986 198.83845901 C-598.36379689 197.00868098 -598.36955454 195.17890294 -598.37531281 193.34912491 C-598.38580787 189.51345414 -598.39165996 185.67780423 -598.39514923 181.84212112 C-598.40062351 176.94770815 -598.42463506 172.05357481 -598.45312119 167.15924931 C-598.4718266 163.37836296 -598.47695741 159.59754284 -598.47848511 155.81661415 C-598.48149555 154.01344847 -598.4894692 152.21028349 -598.50267029 150.40716362 C-598.60387531 135.51811873 -597.32469924 123.85973587 -586.96741486 112.38142776 C-582.96287419 108.5265073 -578.37160464 106.82776395 -573.15491486 105.13142776 C-571.66991486 104.63642776 -571.66991486 104.63642776 -570.15491486 104.13142776 C-567.64540692 103.87982632 -565.14974505 103.67247419 -562.63465118 103.50056839 C-561.86964735 103.44498764 -561.10464352 103.38940689 -560.31645775 103.33214188 C-558.64914141 103.21126593 -556.98170262 103.09207017 -555.3141613 102.97433853 C-550.762569 102.65248422 -546.21197045 102.31707854 -541.66126251 101.98299026 C-540.71205649 101.91358482 -539.76285048 101.84417938 -538.78488064 101.77267075 C-528.76217849 101.03638304 -518.745559 100.2292967 -508.72913361 99.41267776 C-506.91599696 99.26540892 -505.10285607 99.11819244 -503.289711 98.97102737 C-495.98360565 98.37752867 -488.67768594 97.78177424 -481.37195587 97.18367386 C-475.90788719 96.73662964 -470.44361714 96.29212232 -464.97913361 95.85017776 C-464.08139725 95.77756226 -463.18366089 95.70494675 -462.2587204 95.63013077 C-447.52043564 94.44236682 -432.77502572 93.38933396 -418.02343178 92.38203812 C-403.42486152 91.38342401 -388.84781122 90.23156023 -374.2718277 88.939991 C-355.55699523 87.28625293 -336.84251723 85.76001299 -318.09241486 84.56892776 C-302.28800176 83.56482774 -286.50211353 82.40985369 -270.71741486 81.13142776 C-269.14646057 81.00446014 -269.14646057 81.00446014 -267.54376984 80.87492752 C-258.50604118 80.14366266 -249.46899157 79.40418432 -240.43225861 78.66072464 C-236.00902871 78.2969964 -231.58548858 77.93727547 -227.16172028 77.58015823 C-224.80376611 77.38844842 -222.4462693 77.19171473 -220.08875275 76.99470901 C-212.43023431 76.36875423 -204.84143079 75.94623531 -197.15491486 76.13142776 C-197.23741486 74.89392776 -197.31991486 73.65642776 -197.40491486 72.38142776 C-197.34385776 59.39661955 -190.11743937 48.14836739 -181.59241486 38.88142776 C-172.77019382 30.39696404 -160.64315241 24.83665139 -148.38050079 24.82503128 C-147.24748283 24.81254601 -147.24748283 24.81254601 -146.09157562 24.7998085 C-143.60742708 24.77581773 -141.12354178 24.76694917 -138.63928986 24.76033401 C-136.9006213 24.75135823 -135.1619535 24.74223622 -133.42328644 24.73297501 C-129.78188964 24.7165113 -126.14058448 24.70878988 -122.49915314 24.70589066 C-117.85450199 24.70051455 -113.21072369 24.66285556 -108.56631851 24.61714649 C-104.97499267 24.5872631 -101.383874 24.58016464 -97.79243469 24.57916451 C-96.08134979 24.5749833 -94.37026306 24.56263421 -92.65930176 24.54164696 C-83.2213207 24.43510474 -75.22923406 24.54707375 -67.15491486 30.13142776 C-66.863909 29.51428909 -66.57290314 28.89715042 -66.27307892 28.26131058 C-61.44765816 19.06983226 -50.02795646 13.74120914 -41.15491486 9.13142776 C-40.38534454 8.72021683 -39.61577423 8.30900589 -38.82288361 7.88533401 C-27.0489301 2.09966279 -12.99051246 -0.03212096 0 0 Z " transform="translate(814.154914855957,486.8685722351074)" style="fill: #040404;"/><path d="M0 0 C0.78521519 -0.00265183 1.57043039 -0.00530365 2.37943998 -0.00803584 C5.02660877 -0.01573236 7.67373121 -0.01628815 10.32091045 -0.01688576 C12.23170536 -0.02090017 14.14249942 -0.02533836 16.05329245 -0.03016531 C21.31702705 -0.04213943 26.58075248 -0.04778123 31.84449804 -0.05234647 C37.51689371 -0.05829952 43.18927841 -0.06991026 48.86166668 -0.08063698 C62.56875468 -0.10516996 76.27584632 -0.11979058 89.98294953 -0.13269705 C93.85461428 -0.13640868 97.72627867 -0.14038195 101.59794307 -0.14444971 C125.64008816 -0.16968876 149.68223297 -0.19175815 173.72438812 -0.20417786 C179.29454138 -0.20709909 184.86469462 -0.21006663 190.43484783 -0.21308327 C191.47286121 -0.21363963 191.47286121 -0.21363963 192.53184456 -0.21420723 C214.95364557 -0.22635481 237.37536794 -0.25728544 259.79713204 -0.29900479 C283.51097957 -0.3430476 307.22477048 -0.36871708 330.9386608 -0.37409842 C343.86177374 -0.37751073 356.78476268 -0.38924463 369.7078371 -0.42220116 C380.71596894 -0.45022803 391.72395134 -0.4611894 402.73211608 -0.4500057 C408.3461353 -0.44482564 413.95984174 -0.44766372 419.57381535 -0.47247124 C424.72064233 -0.49502397 429.86693294 -0.49417689 435.01376971 -0.47526737 C436.86855549 -0.47247579 438.72337811 -0.47801861 440.57810483 -0.4930803 C459.80349198 -0.63956638 476.69035296 4.12177375 491.00247478 17.73076439 C501.35992793 28.63707403 506.43825793 41.71096908 506.43480206 56.66118431 C506.43847874 57.51791363 506.44215543 58.37464294 506.44594353 59.25733376 C506.45695417 62.12738965 506.4608198 64.99740931 506.46463299 67.86748314 C506.47089972 69.92592038 506.47754671 71.98435649 506.48454571 74.04279137 C506.50556726 80.80335772 506.51594778 87.56392425 506.52591228 94.32451439 C506.52996085 96.65487746 506.5340778 98.98524042 506.53826237 101.31560326 C506.55731152 112.26717155 506.57154194 123.21873312 506.57987434 134.17031479 C506.58963965 146.79566703 506.61594203 159.42084362 506.65637523 172.046134 C506.68658098 181.81451151 506.70134753 191.5828388 506.70465535 201.35126209 C506.70700113 207.1805908 506.71590007 213.0097318 506.74111652 218.83901024 C506.76447958 224.32855687 506.76859735 229.8177933 506.75835514 235.30737686 C506.75786164 237.31440262 506.76412689 239.32144407 506.77791119 241.32842255 C506.84938276 252.35807653 506.46971754 261.77962804 502.28763103 272.13701439 C501.81841228 273.34099876 501.34919353 274.54498314 500.86575603 275.78545189 C500.42747478 276.68521751 499.98919353 277.58498314 499.53763103 278.51201439 C499.10966228 279.42724876 498.68169353 280.34248314 498.24075603 281.28545189 C493.56370152 288.11395147 487.10813811 292.10090425 479.78763103 295.63701439 C462.98253114 304.13893303 446.84731586 314.1712964 432.28763103 326.13701439 C431.41106853 326.81248314 430.53450603 327.48795189 429.63138103 328.18388939 C402.33181674 349.54178381 380.71935649 379.07320261 376.28763103 414.13701439 C374.17346791 432.15257541 379.59234998 449.64954599 383.78128338 467.02275658 C384.78000878 471.19294074 385.73306526 475.37362275 386.69119549 479.55327415 C387.40937577 482.6853179 388.13517521 485.81552562 388.86184978 488.94560814 C391.9983992 502.51295794 394.97980346 516.11618656 397.93997478 529.72295189 C398.51397158 532.36102108 399.08816758 534.99904677 399.66263103 537.63701439 C399.80840588 538.30648094 399.95418072 538.97594749 400.10437298 539.66570091 C402.34925818 549.9634297 404.67291544 560.24120966 407.03763103 570.51201439 C410.26428298 584.53612902 413.38963747 598.58119746 416.47513103 612.63701439 C416.70174419 613.66908012 416.92835735 614.70114586 417.16183758 615.76448631 C418.60981804 622.36053738 420.05607395 628.956966 421.50204754 635.55345726 C423.62646006 645.24428411 425.752089 654.93484015 427.88252831 664.62434387 C428.58385215 667.81436842 429.28424655 671.00459236 429.98327923 674.19511986 C432.94732395 687.72361924 435.98384687 701.22685058 439.22415447 714.69194603 C440.54317242 720.17961689 441.77091862 725.68563826 442.97513103 731.19951439 C445.53395909 742.79186015 448.12967087 754.37570791 450.74969769 765.95436668 C451.18580394 767.88358927 451.62087136 769.81304704 452.05481243 771.7427578 C462.12184287 816.49459689 478.6012473 846.44217603 518.07205486 871.49687767 C519.47510574 872.38033292 520.88102068 873.25923751 522.28763103 874.13701439 C519.29022212 881.78381327 509.29443992 886.68482123 502.12909031 889.95904255 C491.14122563 894.51423547 480.97304159 895.7216337 469.20120525 895.63872337 C467.64227087 895.64251736 466.08333989 895.64802621 464.52441692 895.65509605 C460.33434458 895.66892512 456.14468864 895.65797139 451.95463991 895.64138484 C447.5453811 895.62741484 443.13614356 895.63400771 438.72687054 895.63751793 C431.32827415 895.64021012 423.92984092 895.62682823 416.53128338 895.60356712 C408.00490955 895.57694396 399.47880794 895.57522028 390.95240676 895.58695549 C382.71161603 895.59777167 374.47092276 895.59151743 366.23013973 895.57740021 C362.74001132 895.5716756 359.24995507 895.57169504 355.75982571 895.57646561 C351.64411601 895.58127323 347.52870066 895.57097887 343.41304684 895.54951096 C341.91195703 895.54399478 340.41083863 895.54342958 338.90974712 895.54846382 C321.9886892 895.59805416 308.10903218 892.37157799 295.55716228 880.55107689 C291.54109972 876.27925819 288.15044815 871.72546574 286.28763103 866.13701439 C286.94505291 865.86888939 287.60247478 865.60076439 288.27981853 865.32451439 C312.0006617 855.55332696 334.74734103 845.36145618 353.28763103 827.13701439 C354.03399822 826.40353783 354.78036541 825.67006126 355.54934978 824.91435814 C375.80836351 803.73608724 384.73655363 775.81703903 384.78763103 747.01201439 C384.7896452 746.21778069 384.79165936 745.42354698 384.79373455 744.60524559 C384.770947 731.23448124 383.1091328 719.14474979 379.23343182 706.30058861 C378.19398527 702.82378213 377.23366182 699.33071376 376.28372478 695.82842064 C374.92735542 690.83213718 373.55392744 685.84134634 372.15872478 680.85576439 C369.09388274 669.8839655 366.23883689 658.86084374 363.41653728 647.82451439 C362.72838574 645.13684736 362.03943972 642.44938486 361.35013103 639.76201439 C361.17692333 639.08610252 361.00371563 638.41019066 360.82525921 637.71379662 C358.74545661 629.60982597 356.58678774 621.53924551 354.22513103 613.51201439 C351.42112351 603.96749388 349.11990536 594.31878194 346.82034588 584.64214134 C345.10166449 577.4347831 343.29319651 570.275937 341.26736736 563.14946556 C336.10746808 544.9956442 331.39438085 526.71871602 326.86233807 508.39946556 C324.65669853 499.51991901 322.31237976 490.68354821 319.91238689 481.85478783 C317.81480682 474.12951106 315.78482269 466.38881662 313.78763103 458.63701439 C310.62816786 446.39697408 307.40515971 434.17584569 304.06350994 421.98418236 C303.36895056 419.43542479 302.69177556 416.88275203 302.01809978 414.32842064 C296.20997341 392.83281232 285.13638044 375.55686411 270.28763103 359.13701439 C269.5979826 358.37388939 268.90833416 357.61076439 268.19778728 356.82451439 C241.42173635 328.74645675 201.02407022 314.01756449 164.03763103 305.95830345 C161.36751836 305.37352096 158.70186441 304.77759218 156.03763103 304.16728783 C133.13016549 298.93533678 110.49275846 295.63611963 87.07699871 293.73343468 C80.78916092 293.21154034 74.55327804 292.46162505 68.29617596 291.64580345 C64.03138883 291.0939974 59.75892234 290.62791104 55.48294353 290.17217064 C53.98806732 290.01204396 52.49319429 289.85188753 50.99832439 289.69170189 C50.24904675 289.61145775 49.4997691 289.53121361 48.72778606 289.44853783 C27.34784996 287.14886238 27.34784996 287.14886238 17.29300213 285.27739525 C9.42724165 283.87366241 1.47661642 283.12368191 -6.46236897 282.26201439 C-22.66652657 280.501328 -38.67051697 278.02294445 -54.71236897 275.13701439 C-56.81924632 269.94269019 -56.99751576 265.44753195 -56.97306538 259.94090843 C-56.97689092 259.02403826 -56.98071647 258.10716809 -56.98465794 257.16251397 C-56.99496368 254.09503625 -56.99100034 251.02774657 -56.98702717 247.96025658 C-56.99137505 245.7588744 -56.99655845 243.55749375 -57.00251484 241.35611534 C-57.01590968 235.37870006 -57.01648282 229.401348 -57.01395154 223.42392063 C-57.01288189 218.43153253 -57.01776519 213.43915722 -57.02255696 208.44677186 C-57.03428892 195.9920049 -57.03342617 183.53726608 -57.02700015 171.0824981 C-57.02183478 160.28080019 -57.03307705 149.47919256 -57.05209837 138.6775125 C-57.07150091 127.57376613 -57.07943731 116.47005644 -57.07597512 105.36629224 C-57.07416356 99.13749812 -57.07678564 92.90878664 -57.09068966 86.68000603 C-57.10328176 80.81949492 -57.10131064 74.9591641 -57.08827877 69.0986557 C-57.08591625 66.95169895 -57.08863599 64.80472946 -57.09690189 62.65778732 C-57.10739873 59.71866893 -57.09924491 56.7801522 -57.08659077 53.84105492 C-57.09396505 52.99881268 -57.10133934 52.15657045 -57.10893708 51.28880572 C-56.9890567 37.9812842 -51.06859769 26.40621412 -42.02486897 16.82451439 C-33.1668415 8.48833446 -23.38400474 4.15218696 -11.71236897 1.13701439 C-10.87395866 0.87127524 -10.87395866 0.87127524 -10.01861078 0.60016763 C-6.68826368 -0.06865255 -3.38234225 -0.00554041 0 0 Z " transform="translate(811.7123689651489,512.8629856109619)" style="fill: #D6DCDD;"/><path d="M0 0 C0 51.15 0 102.3 0 155 C-16.06729774 155 -16.06729774 155 -23.45703125 154.1953125 C-24.27981064 154.11190613 -25.10259003 154.02849976 -25.95030212 153.94256592 C-27.68401014 153.7662542 -29.41741616 153.58694846 -31.1505127 153.40472412 C-35.69393249 152.92729731 -40.239651 152.47269247 -44.78515625 152.015625 C-46.121194 151.88043961 -46.121194 151.88043961 -47.48422241 151.74252319 C-55.43054888 150.94352195 -63.38181804 150.26965247 -71.34692383 149.68408203 C-77.4269261 149.23097861 -83.49340081 148.67422199 -89.56176758 148.08862305 C-99.48294581 147.13773744 -109.40752447 146.22918553 -119.33418083 145.33753777 C-123.16965197 144.9927847 -127.00495438 144.64617068 -130.84027195 144.29971409 C-137.92780545 143.65950862 -145.01541079 143.02011865 -152.10327148 142.38354492 C-157.08783485 141.93580082 -162.07219529 141.48585566 -167.05642891 141.03445625 C-168.94096104 140.86419931 -170.82556708 140.69475823 -172.71024895 140.52616692 C-175.33168395 140.29158401 -177.95285078 140.05419317 -180.57397461 139.81616211 C-181.342276 139.74809357 -182.11057739 139.68002502 -182.90216064 139.6098938 C-186.97458229 139.23687609 -190.9706365 138.68882971 -195 138 C-196.65848326 137.83262083 -198.31943589 137.68807176 -199.98193359 137.56689453 C-200.92507416 137.49657013 -201.86821472 137.42624573 -202.8399353 137.35379028 C-203.84924103 137.28086761 -204.85854675 137.20794495 -205.8984375 137.1328125 C-208.09376354 136.96762774 -210.28907556 136.80225662 -212.484375 136.63671875 C-215.89924511 136.3822033 -219.3142198 136.12943244 -222.72949219 135.88037109 C-235.69341455 134.93044492 -248.5733439 133.76301944 -261.46270752 132.07206726 C-270.66437141 130.87634943 -279.87226524 130.10564276 -289.125 129.4375 C-291.45915581 129.26745406 -293.7930888 129.0953966 -296.12667847 128.91773987 C-297.54685659 128.80969307 -298.96734347 128.70556272 -300.38821411 128.60704041 C-307.34320366 128.07953831 -314.03717635 126.99468909 -321 126 C-331.23 125.34 -341.46 124.68 -352 124 C-352 91.99 -352 59.98 -352 27 C-343.255 26.34 -334.51 25.68 -325.5 25 C-304.52188186 23.41491559 -283.54507198 21.81374716 -262.56966782 20.19313049 C-259.05851035 19.92186856 -255.54733874 19.65079036 -252.03616333 19.37976074 C-241.53608187 18.56914395 -231.03605154 17.75789809 -220.53628445 16.94321823 C-216.10533359 16.59973562 -211.67428431 16.25753512 -207.24321175 15.91562653 C-205.17801678 15.75598946 -203.11286381 15.59580806 -201.0477581 15.43502045 C-190.82287819 14.63912073 -180.60311279 13.85132199 -170.35826778 13.35819626 C-166.81211148 13.1732083 -163.46720116 12.75259153 -160 12 C-157.22135672 11.74042813 -154.45101798 11.51211473 -151.66796875 11.31640625 C-150.85200226 11.25670151 -150.03603577 11.19699677 -149.19534302 11.13548279 C-146.52628369 10.94127291 -143.85690899 10.7518379 -141.1875 10.5625 C-139.32640563 10.42787782 -137.46532174 10.29311077 -135.60424805 10.15820312 C-124.51100219 9.36005011 -113.41517186 8.65129737 -102.3125 8 C-91.11227515 7.33574545 -79.97726035 6.35942661 -68.8203125 5.18017578 C-56.33426008 3.8800918 -43.82647043 2.93324863 -31.30834961 2.00219727 C-30.51290237 1.94300613 -29.71745514 1.883815 -28.89790344 1.8228302 C-27.35129822 1.70791643 -25.80465789 1.59347421 -24.25798035 1.47953796 C-19.31327013 1.11148488 -14.37824702 0.68246027 -9.44604492 0.17041016 C-6.30446567 -0.04845623 -3.14919398 0 0 0 Z " transform="translate(617,588)" style="fill: #D7DCDD;"/><path d="M0 0 C2.12991187 -0.00378765 4.25982127 -0.00929136 6.38972473 -0.01637268 C12.15013153 -0.03028708 17.91023829 -0.0191852 23.67062831 -0.00266147 C29.71349086 0.01123487 35.75633681 0.00472367 41.79920959 0.00120544 C51.94626676 -0.00149326 62.09320541 0.01194906 72.24023438 0.03515625 C83.95150818 0.06175657 95.6625838 0.06351402 107.37387747 0.05176789 C118.66396095 0.04096698 129.95397314 0.0471958 141.24405098 0.06132317 C146.03761047 0.06706362 150.83111744 0.06701557 155.62467766 0.06225777 C161.27598786 0.05746519 166.92708268 0.06768391 172.57835197 0.08921242 C174.64544956 0.09474972 176.71256798 0.09527389 178.7796669 0.09025955 C195.10167707 0.05564816 210.38210049 0.78933698 222.97680664 12.39233398 C233.45386225 23.70755405 235.40558138 35.56877115 235.36352539 50.49389648 C235.36809952 51.93059533 235.3734087 53.367292 235.37940979 54.8039856 C235.38829307 57.80113669 235.38597355 60.79802066 235.37597656 63.79516602 C235.36450164 67.6032144 235.38469919 71.41033334 235.4138937 75.21825981 C235.4323947 78.18174936 235.43193577 81.14502192 235.42625618 84.10855484 C235.42610461 85.51093981 235.43201042 86.91334108 235.44454765 88.31567001 C235.54240402 101.05354625 233.60088911 111.82542312 224.92993164 121.50170898 C224.41688477 122.11788086 223.90383789 122.73405273 223.37524414 123.36889648 C216.72319637 130.78481577 206.62840686 134.83545139 196.76375043 135.68917918 C194.40375226 135.76326953 192.05101329 135.77799654 189.68986511 135.76913452 C188.34368157 135.77593119 188.34368157 135.77593119 186.9703024 135.78286517 C183.98047391 135.79546678 180.99082857 135.79389154 178.00097656 135.79223633 C175.85018176 135.79822419 173.69938909 135.80503034 171.54859924 135.81259155 C165.7179303 135.83023176 159.88732009 135.83494609 154.05662704 135.83622313 C150.41081049 135.83764632 146.76500879 135.84191912 143.11919594 135.84721756 C130.39162882 135.86571082 117.66410355 135.87388899 104.93652344 135.87231445 C93.08610658 135.87111303 81.23587186 135.89221739 69.38550109 135.92380178 C59.19925622 135.94998015 49.01307078 135.9606811 38.82679254 135.95940363 C32.74831091 135.95889449 26.66999122 135.96455155 20.5915432 135.98575974 C14.87295613 136.00516841 9.15468507 136.00524837 3.43608665 135.99072647 C1.34275855 135.98864061 -0.75058947 135.9933259 -2.84388351 136.00544739 C-16.02205797 136.07678773 -27.13440142 135.8336457 -38.07006836 127.50170898 C-38.89506836 126.92420898 -39.72006836 126.34670898 -40.57006836 125.75170898 C-47.74356389 119.295563 -52.14666955 110.94955947 -54.07006836 101.50170898 C-54.17734176 99.26310388 -54.2287541 97.02161662 -54.24707031 94.78051758 C-54.25364151 94.11324646 -54.26021271 93.44597534 -54.26698303 92.75848389 C-54.28664987 90.55570343 -54.29836644 88.3529911 -54.30834961 86.15014648 C-54.31242514 85.39401691 -54.31650066 84.63788734 -54.32069969 83.85884476 C-54.34153658 79.85324632 -54.35584614 75.84768186 -54.36523438 71.84204102 C-54.37626807 67.72657299 -54.41063901 63.61165021 -54.45040607 59.49637413 C-54.47669156 56.3133959 -54.48493691 53.13054499 -54.48851585 49.9474678 C-54.49335445 48.4317623 -54.50488967 46.91606142 -54.52355385 45.4004631 C-54.68519305 31.39981538 -51.99245893 21.69829342 -42.07006836 11.50170898 C-29.23007758 0.36519957 -16.1980202 -0.08218584 0 0 Z " transform="translate(1037.070068359375,596.498291015625)" style="fill: #3F4752;"/><path d="M0 0 C0 3.43773436 -1.11711951 5.62329457 -2.54077148 8.69995117 C-20.91923213 48.74686936 -16.8554592 91.88074368 -5.9765625 133.21484375 C-4.28733475 139.70987978 -2.79165415 146.24117395 -1.3046875 152.78515625 C1.02309243 162.98761268 3.50759511 173.14197733 6.09375 183.28125 C6.27222095 183.98122667 6.45069191 184.68120335 6.63457108 185.40239143 C7.91900827 190.43596419 9.20890345 195.46813188 10.5 200.5 C11.97244368 206.23864319 13.4424342 211.97789928 14.90625 217.71875 C15.08388948 218.41504831 15.26152897 219.11134663 15.44455147 219.82874489 C18.11306296 230.30681238 20.61439044 240.81486365 23.00926208 251.35929871 C24.84100736 259.40134999 26.8675282 267.36202803 29.0625 275.3125 C31.81431522 285.32683786 34.31116576 295.3754538 36.69458008 305.48266602 C38.84675747 314.60560375 41.08473624 323.70779053 43.3125 332.8125 C43.54955658 333.78256989 43.78661316 334.75263977 44.03085327 335.75210571 C47.08320141 348.24121279 50.17282637 360.72008635 53.3125 373.1875 C55.8742253 383.36252976 58.3128551 393.55792494 60.64404297 403.78808594 C62.83225421 413.35657679 65.12001597 422.89964105 67.4375 432.4375 C67.62924805 433.22680908 67.82099609 434.01611816 68.01855469 434.8293457 C70.83040808 446.38378712 73.73529622 457.90990445 76.79272461 469.40209961 C79.49345926 479.62022369 81.39206853 489.0768464 81.375 499.6875 C81.37338867 500.73752197 81.37177734 501.78754395 81.37011719 502.86938477 C81.18213066 514.86274061 78.29289671 525.22517455 73 536 C68.2541905 534.63378211 64.3452287 532.57586552 60.25 529.875 C59.63946777 529.47684082 59.02893555 529.07868164 58.39990234 528.66845703 C52.99736303 525.09464396 47.95014362 521.17722646 43 517 C42.32710937 516.47277344 41.65421875 515.94554687 40.9609375 515.40234375 C22.49096924 500.42768821 14.79714145 478.37467249 10.05029297 455.88934326 C9.61044913 453.80608177 9.16350851 451.72444505 8.71484375 449.64306641 C8.09981013 446.78852671 7.48698803 443.93352823 6.87597656 441.078125 C5.60979994 435.17138156 4.30938647 429.27230061 3 423.375 C2.75838135 422.28582275 2.5167627 421.19664551 2.26782227 420.07446289 C0.14165729 410.54001852 -2.09267275 401.03188448 -4.32861328 391.52270508 C-6.58302874 381.89126601 -8.71477469 372.23600759 -10.80648804 362.56817627 C-13.01203204 352.3854444 -15.32318653 342.23104574 -17.69076538 332.08483887 C-21.47537186 315.86090726 -25.06858017 299.60149492 -28.5625 283.3125 C-28.79572968 282.22521606 -29.02895935 281.13793213 -29.26925659 280.0177002 C-29.50129791 278.93581421 -29.73333923 277.85392822 -29.97241211 276.73925781 C-30.43469341 274.58397587 -30.89701396 272.42870234 -31.359375 270.2734375 C-31.58476456 269.22273071 -31.81015411 268.17202393 -32.04237366 267.08947754 C-34.09554407 257.53059864 -36.18871144 247.98092363 -38.3125 238.4375 C-38.47549591 237.70486938 -38.63849182 236.97223877 -38.806427 236.21740723 C-41.05473975 226.12473678 -43.37162782 216.04890251 -45.71875 205.97875977 C-47.8447627 196.79753982 -49.83350672 187.58873073 -51.8125 178.375 C-54.56348619 165.57388731 -57.35775221 152.78332421 -60.22250366 140.00714111 C-60.61079136 138.27487949 -60.99820523 136.54242173 -61.38467407 134.80975342 C-61.92693369 132.38036625 -62.4721096 129.95166643 -63.01953125 127.5234375 C-63.19019104 126.76565002 -63.36085083 126.00786255 -63.53668213 125.22711182 C-64.48271257 121.08399247 -65.54161772 117.00252815 -66.734375 112.921875 C-68.06076149 108.18316087 -68.50466554 103.78548875 -68.4375 98.875 C-68.42920166 98.06442139 -68.42090332 97.25384277 -68.41235352 96.41870117 C-67.67185272 69.34167016 -53.419894 46.85266684 -35 28 C-34.23558594 27.17371094 -33.47117187 26.34742188 -32.68359375 25.49609375 C-23.17933598 15.47722304 -11.81096235 7.10995369 0 0 Z " transform="translate(1271,838)" style="fill: #D7DDDD;"/><path d="M0 0 C8.20703636 0.64055813 16.38456417 1.43466242 24.5625 2.375 C25.58923828 2.4884375 26.61597656 2.601875 27.67382812 2.71875 C34.00789402 3.44440776 40.28870878 4.3550929 46.578125 5.38671875 C59.39649133 7.46812769 72.29215609 8.9246436 85.1875 10.4375 C87.82015038 10.74991319 90.45280012 11.06233187 93.08544922 11.37475586 C107.11256338 13.0282127 121.14094943 14.54125688 135.20516968 15.83834839 C153.37349035 17.52130042 171.13905563 20.27438989 189 24 C190.18287598 24.24508301 191.36575195 24.49016602 192.58447266 24.74267578 C232.59998368 33.16966395 269.86215655 46.68544245 300 75 C300.60070313 75.53625 301.20140625 76.0725 301.8203125 76.625 C318.40711413 92.05458291 326.13328046 112.74920653 332 134 C332.40629639 135.44777832 332.40629639 135.44777832 332.82080078 136.92480469 C336.55442405 150.23049052 340.04778529 163.5940643 343.1796875 177.0546875 C345.19920299 185.71292425 347.30648575 194.27157413 349.91381836 202.77319336 C352.21712047 210.44409869 354.08495967 218.22555419 356 226 C358.34699399 235.52097004 360.79552784 244.96374229 363.65234375 254.34765625 C365.6299266 261.01639343 367.32769909 267.76491965 369.0625 274.5 C369.23859802 275.18351532 369.41469604 275.86703064 369.59613037 276.57125854 C371.334452 283.33348428 373.06783699 290.09587524 374.61547852 296.90478516 C374.86769165 298.0037915 374.86769165 298.0037915 375.125 299.125 C375.39666992 300.31125977 375.66833984 301.49751953 375.94824219 302.71972656 C377.06141891 307.38371426 378.41353954 311.96989316 379.76171875 316.5703125 C383.03682338 327.89188207 385.88737178 339.30336495 388.6875 350.75 C389.62466585 354.57918361 390.56679101 358.40710036 391.51171875 362.234375 C391.71802414 363.08449158 391.92432953 363.93460815 392.1368866 364.81048584 C393.32737701 369.63124746 394.70815623 374.32777538 396.33776855 379.01904297 C397.35166528 382.05194915 398.07535097 385.13983695 398.8125 388.25 C400.13118664 393.70911425 401.58592431 399.10935283 403.16821289 404.49804688 C404.48313306 408.98822175 405.74561902 413.49259636 407 418 C407.24991699 418.88461914 407.49983398 419.76923828 407.75732422 420.68066406 C415.30307751 447.9610808 414.40340872 477.91868797 400.375 503.125 C385.12195492 529.18625176 359.87445876 543.16409007 333.125 555 C332.44050781 555.30317139 331.75601562 555.60634277 331.05078125 555.91870117 C326.24881837 558 326.24881837 558 324 558 C323.28015641 545.70933724 326.24294396 535.6523885 334 526 C336.39558436 523.4970764 338.88165002 521.09257075 341.375 518.6875 C357.01195991 503.55489629 364.62465832 485.69674257 365.28295898 463.79760742 C365.40387284 454.90494313 364.15215586 446.64589023 362 438 C361.59974609 436.39125 361.59974609 436.39125 361.19140625 434.75 C360.16840499 430.82167515 359.08719211 426.91088205 358 423 C357.36807937 420.71105071 356.73661076 418.42197661 356.10546875 416.1328125 C355.04734795 412.29572579 353.988847 408.45875139 352.92749023 404.62255859 C351.21344358 398.42250856 349.5127333 392.22063406 347.875 386 C346.61455773 381.21805892 345.27360593 376.46556208 343.89501953 371.71679688 C341.41935602 363.18305759 339.11764249 354.62989536 337 346 C335.20393569 338.68235729 333.30812625 331.41776362 331.1875 324.1875 C328.39458817 314.66100539 325.94178879 305.05832224 323.5 295.4375 C320.93196935 285.32120868 318.28425292 275.27177553 315.17016602 265.30712891 C312.61356603 257.00105501 310.6030623 248.56215851 308.5324707 240.12451172 C307.00599605 233.93345767 305.43002467 227.78444205 303.5625 221.6875 C301.1215599 213.71245721 299.06512047 205.64110843 297 197.5625 C294.69986265 188.56876411 292.38878595 179.58353134 289.86108398 170.65039062 C288.34099739 165.26977667 286.89872506 159.87067181 285.46728516 154.46582031 C277.8442755 125.79211425 269.46774174 98.02961117 248.15234375 76.35546875 C246 74 246 74 245 71 C243.68232003 70.30290479 242.34608299 69.64053323 241 69 C239.65721769 67.82541013 238.34720023 66.61284935 237.0625 65.375 C216.19085191 46.51548792 188.13087248 38.88128948 161 35 C159.42739374 34.77240261 157.85480366 34.54469335 156.28222656 34.31689453 C136.96237521 31.52880425 117.62140808 28.91514473 98.25488281 26.47314453 C87.83163206 25.14431142 77.4440655 23.60943982 67.05432129 22.04421997 C58.78018551 20.79997059 50.52077205 19.6557579 42.1875 18.875 C26.10672439 17.30344571 11.41433426 13.20747531 0 1 C0 0.67 0 0.34 0 0 Z " transform="translate(770,806)" style="fill: #D7DDDD;"/><path d="M0 0 C0 86.13 0 172.26 0 261 C-69.52353896 261 -69.52353896 261 -79.20703125 252.0703125 C-85.19342106 245.15792339 -87.1478045 237.46679325 -87.16062927 228.55775452 C-87.16571709 227.68569427 -87.17080491 226.81363403 -87.17604691 225.91514772 C-87.19179287 222.98127522 -87.20030224 220.04742738 -87.20874023 217.11352539 C-87.21827722 215.01435184 -87.22816831 212.91517986 -87.23838806 210.81600952 C-87.26979976 203.9099108 -87.29004707 197.00379994 -87.30859375 190.09765625 C-87.31353973 188.33482902 -87.31353973 188.33482902 -87.31858563 186.53638911 C-87.34937454 175.45020206 -87.37608032 164.36401231 -87.39300442 153.27779484 C-87.41489659 139.10347462 -87.45683064 124.92953393 -87.52644199 110.75536543 C-87.5737338 100.78662454 -87.59794518 90.81798583 -87.6052013 80.84913629 C-87.61015088 74.89730369 -87.62516592 68.94589862 -87.6649456 62.99418831 C-87.70191488 57.38884278 -87.71018755 51.78416712 -87.69693947 46.17872238 C-87.69699325 44.12772245 -87.70722132 42.07669207 -87.7286911 40.02580452 C-87.8492017 27.8578167 -87.76784198 17.75224985 -79.34110165 8.09980869 C-58.69595642 -11.14630232 -23.46843335 0 0 0 Z " transform="translate(729,537)" style="fill: #414B57;"/><path d="M0 0 C0.78521519 -0.00265183 1.57043039 -0.00530365 2.37943998 -0.00803584 C5.02660877 -0.01573236 7.67373121 -0.01628815 10.32091045 -0.01688576 C12.23170536 -0.02090017 14.14249942 -0.02533836 16.05329245 -0.03016531 C21.31702705 -0.04213943 26.58075248 -0.04778123 31.84449804 -0.05234647 C37.51689371 -0.05829952 43.18927841 -0.06991026 48.86166668 -0.08063698 C62.56875468 -0.10516996 76.27584632 -0.11979058 89.98294953 -0.13269705 C93.85461428 -0.13640868 97.72627867 -0.14038195 101.59794307 -0.14444971 C125.64008816 -0.16968876 149.68223297 -0.19175815 173.72438812 -0.20417786 C179.29454138 -0.20709909 184.86469462 -0.21006663 190.43484783 -0.21308327 C191.47286121 -0.21363963 191.47286121 -0.21363963 192.53184456 -0.21420723 C214.95364557 -0.22635481 237.37536794 -0.25728544 259.79713204 -0.29900479 C283.51097957 -0.3430476 307.22477048 -0.36871708 330.9386608 -0.37409842 C343.86177374 -0.37751073 356.78476268 -0.38924463 369.7078371 -0.42220116 C380.71596894 -0.45022803 391.72395134 -0.4611894 402.73211608 -0.4500057 C408.3461353 -0.44482564 413.95984174 -0.44766372 419.57381535 -0.47247124 C424.72064233 -0.49502397 429.86693294 -0.49417689 435.01376971 -0.47526737 C436.86855549 -0.47247579 438.72337811 -0.47801861 440.57810483 -0.4930803 C459.80349198 -0.63956638 476.69035296 4.12177375 491.00247478 17.73076439 C494.66636802 21.58881265 497.63203167 25.52678606 500.28763103 30.13701439 C500.79552166 30.99810814 501.30341228 31.85920189 501.82669353 32.74638939 C507.28918453 44.03757189 505.73230974 56.91724364 505.28763103 69.13701439 C503.36985827 66.77093111 501.48129132 64.40968037 499.71731853 61.92607689 C491.19140243 50.05834442 477.76652329 43.29269832 463.5548811 40.55646038 C456.14249317 39.60486612 448.6343113 39.84822519 441.17337322 39.8561306 C439.21828859 39.85095792 437.26320607 39.8449301 435.30812645 39.8381238 C429.94971269 39.82204048 424.59135259 39.81840783 419.23291755 39.81692886 C413.44808606 39.81321786 407.66328209 39.79811826 401.87846661 39.78465843 C389.23569523 39.75753144 376.59293658 39.74544865 363.95014095 39.73663712 C356.05119083 39.73110577 348.15224558 39.7226299 340.25329876 39.71362877 C318.36953822 39.68924902 296.4857817 39.66857833 274.60200787 39.66187859 C273.1881331 39.66143533 271.77425834 39.66099176 270.36038357 39.66054788 C268.94319061 39.66010661 267.52599766 39.65966564 266.1088047 39.65922499 C263.26590697 39.65833991 260.42300923 39.65744567 257.5801115 39.65654564 C256.87524375 39.65632686 256.170376 39.65610808 255.44414862 39.65588266 C232.5983771 39.64862441 209.75273263 39.61679178 186.90700975 39.57016491 C162.72639095 39.52090424 138.54584471 39.49352996 114.36517429 39.49114275 C101.19443968 39.48931174 88.02387147 39.47787007 74.85318279 39.44150352 C63.63701839 39.41064211 52.42107184 39.40049553 41.20487303 39.41697973 C35.48710701 39.42477176 29.76977931 39.42303739 24.05206776 39.39486504 C18.80717133 39.36925973 13.56303969 39.37189155 8.31814337 39.39604646 C6.4311823 39.39993866 4.54416585 39.39390499 2.65728235 39.37635773 C-16.09887124 39.21312032 -33.52333881 43.38011509 -47.58736897 56.57451439 C-50.48532864 59.63966404 -52.67391501 62.98050699 -54.76705647 66.63310814 C-55.23498615 67.37754173 -55.23498615 67.37754173 -55.71236897 68.13701439 C-56.04236897 68.13701439 -56.37236897 68.13701439 -56.71236897 68.13701439 C-56.80065958 64.34549856 -56.85318842 60.55425274 -56.89986897 56.76201439 C-56.92500568 55.70111595 -56.9501424 54.64021751 -56.97604084 53.54717064 C-57.10905097 39.09340324 -51.97799491 27.36970731 -42.02486897 16.82451439 C-33.1668415 8.48833446 -23.38400474 4.15218696 -11.71236897 1.13701439 C-10.87395866 0.87127524 -10.87395866 0.87127524 -10.01861078 0.60016763 C-6.68826368 -0.06865255 -3.38234225 -0.00554041 0 0 Z " transform="translate(811.7123689651489,512.8629856109619)" style="fill: #FCFCFC;"/><path d="M0 0 C0 51.15 0 102.3 0 155 C-16.06729774 155 -16.06729774 155 -23.45703125 154.1953125 C-24.27981064 154.11190613 -25.10259003 154.02849976 -25.95030212 153.94256592 C-27.68401014 153.7662542 -29.41741616 153.58694846 -31.1505127 153.40472412 C-35.69393249 152.92729731 -40.239651 152.47269247 -44.78515625 152.015625 C-46.121194 151.88043961 -46.121194 151.88043961 -47.48422241 151.74252319 C-55.43054888 150.94352195 -63.38181804 150.26965247 -71.34692383 149.68408203 C-77.4269261 149.23097861 -83.49340081 148.67422199 -89.56176758 148.08862305 C-99.48294581 147.13773744 -109.40752447 146.22918553 -119.33418083 145.33753777 C-123.16965197 144.9927847 -127.00495438 144.64617068 -130.84027195 144.29971409 C-137.92780545 143.65950862 -145.01541079 143.02011865 -152.10327148 142.38354492 C-157.08783485 141.93580082 -162.07219529 141.48585566 -167.05642891 141.03445625 C-168.94096104 140.86419931 -170.82556708 140.69475823 -172.71024895 140.52616692 C-175.33168395 140.29158401 -177.95285078 140.05419317 -180.57397461 139.81616211 C-181.342276 139.74809357 -182.11057739 139.68002502 -182.90216064 139.6098938 C-186.97458229 139.23687609 -190.9706365 138.68882971 -195 138 C-196.65848326 137.83262083 -198.31943589 137.68807176 -199.98193359 137.56689453 C-200.92507416 137.49657013 -201.86821472 137.42624573 -202.8399353 137.35379028 C-203.84924103 137.28086761 -204.85854675 137.20794495 -205.8984375 137.1328125 C-208.09376354 136.96762774 -210.28907556 136.80225662 -212.484375 136.63671875 C-215.89924511 136.3822033 -219.3142198 136.12943244 -222.72949219 135.88037109 C-235.69341455 134.93044492 -248.5733439 133.76301944 -261.46270752 132.07206726 C-270.66437141 130.87634943 -279.87226524 130.10564276 -289.125 129.4375 C-291.45915581 129.26745406 -293.7930888 129.0953966 -296.12667847 128.91773987 C-297.54685659 128.80969307 -298.96734347 128.70556272 -300.38821411 128.60704041 C-307.34320366 128.07953831 -314.03717635 126.99468909 -321 126 C-331.23 125.34 -341.46 124.68 -352 124 C-352 101.23 -352 78.46 -352 55 C-351.67 55 -351.34 55 -351 55 C-351 67.87 -351 80.74 -351 94 C-345.39 94 -339.78 94 -334 94 C-330.36114049 94.15361371 -326.75074683 94.3305112 -323.12109375 94.5859375 C-322.18916199 94.64710251 -321.25723022 94.70826752 -320.29705811 94.77128601 C-317.343458 94.96683677 -314.39050026 95.17060898 -311.4375 95.375 C-309.37086857 95.51387296 -307.30421799 95.65246124 -305.23754883 95.79077148 C-294.32252383 96.52803017 -283.41650964 97.32905789 -272.51953125 98.30029297 C-263.44870612 99.09185082 -254.36237538 99.59916222 -245.27325439 100.12527466 C-235.84657896 100.67327494 -226.44670012 101.35552276 -217.04460144 102.23571777 C-209.62347334 102.90686228 -202.19822663 103.37021746 -194.75887299 103.78697205 C-181.61050711 104.52599005 -168.46794292 105.34135338 -155.328125 106.21875 C-154.54702803 106.27089661 -153.76593105 106.32304321 -152.96116447 106.37677002 C-148.18964062 106.69579515 -143.41825629 107.01686961 -138.64691162 107.33856201 C-134.64357957 107.60819643 -130.64014566 107.87630957 -126.63671875 108.14453125 C-121.90811691 108.4614293 -117.17952873 108.77852566 -112.45100403 109.09657288 C-104.0478275 109.66178038 -95.64443756 110.22351615 -87.24073792 110.78089905 C-72.48779113 111.75999941 -57.73718783 112.77023231 -42.98803711 113.80493164 C-39.24666458 114.06711351 -35.50517009 114.32750928 -31.76367188 114.58789062 C-29.33853412 114.75770471 -26.91340362 114.92762257 -24.48828125 115.09765625 C-23.3923616 115.17371597 -22.29644196 115.2497757 -21.16731262 115.32814026 C-20.12379135 115.40169235 -19.08027008 115.47524445 -18.00512695 115.55102539 C-17.10744095 115.61383194 -16.20975494 115.67663849 -15.28486633 115.74134827 C-10.51954627 116.11657154 -5.76043909 116.56723281 -1 117 C-1 83.01 -1 49.02 -1 14 C-3.31 14.33 -5.62 14.66 -8 15 C-10.31581975 15.18099627 -12.63388534 15.33481226 -14.953125 15.46484375 C-15.61165466 15.50307755 -16.27018433 15.54131134 -16.94866943 15.58070374 C-19.04896443 15.70242489 -21.14944437 15.82036955 -23.25 15.9375 C-33.22341654 16.49917625 -43.18389164 17.15294609 -53.14453125 17.91015625 C-64.40286738 18.76145268 -75.66548967 19.5106108 -86.93359375 20.21875 C-88.17780657 20.29697841 -88.17780657 20.29697841 -89.447155 20.37678719 C-95.44380686 20.75327914 -101.44064136 21.12681886 -107.4375 21.5 C-114.26963202 21.92548006 -121.10168996 22.35211971 -127.93359375 22.78125 C-128.76346235 22.83336514 -129.59333096 22.88548027 -130.44834709 22.93917465 C-143.10863903 23.73607733 -155.76188316 24.60544662 -168.41381836 25.52636719 C-175.22338554 26.02043893 -182.03514505 26.47826677 -188.84765625 26.9296875 C-212.72157922 28.51557555 -236.58698987 30.15356412 -260.4375 32.0625 C-322.87599211 37.05314324 -322.87599211 37.05314324 -352 38 C-352 34.37 -352 30.74 -352 27 C-349.81793945 26.83564453 -349.81793945 26.83564453 -347.59179688 26.66796875 C-340.93620921 26.16636565 -334.28070183 25.66370151 -327.62522507 25.16062927 C-326.2123978 25.05384462 -324.79956873 24.94708383 -323.38673782 24.84034729 C-303.11303573 23.30863533 -282.84073605 21.75932826 -262.56966782 20.19313049 C-259.05851035 19.92186856 -255.54733874 19.65079036 -252.03616333 19.37976074 C-241.53608187 18.56914395 -231.03605154 17.75789809 -220.53628445 16.94321823 C-216.10533359 16.59973562 -211.67428431 16.25753512 -207.24321175 15.91562653 C-205.17801678 15.75598946 -203.11286381 15.59580806 -201.0477581 15.43502045 C-190.82287819 14.63912073 -180.60311279 13.85132199 -170.35826778 13.35819626 C-166.81211148 13.1732083 -163.46720116 12.75259153 -160 12 C-157.22135672 11.74042813 -154.45101798 11.51211473 -151.66796875 11.31640625 C-150.85200226 11.25670151 -150.03603577 11.19699677 -149.19534302 11.13548279 C-146.52628369 10.94127291 -143.85690899 10.7518379 -141.1875 10.5625 C-139.32640563 10.42787782 -137.46532174 10.29311077 -135.60424805 10.15820312 C-124.51100219 9.36005011 -113.41517186 8.65129737 -102.3125 8 C-91.11227515 7.33574545 -79.97726035 6.35942661 -68.8203125 5.18017578 C-56.33426008 3.8800918 -43.82647043 2.93324863 -31.30834961 2.00219727 C-30.51290237 1.94300613 -29.71745514 1.883815 -28.89790344 1.8228302 C-27.35129822 1.70791643 -25.80465789 1.59347421 -24.25798035 1.47953796 C-19.31327013 1.11148488 -14.37824702 0.68246027 -9.44604492 0.17041016 C-6.30446567 -0.04845623 -3.14919398 0 0 0 Z " transform="translate(617,588)" style="fill: #B0B8BB;"/><path d="M0 0 C2.12991187 -0.00378765 4.25982127 -0.00929136 6.38972473 -0.01637268 C12.15013153 -0.03028708 17.91023829 -0.0191852 23.67062831 -0.00266147 C29.71349086 0.01123487 35.75633681 0.00472367 41.79920959 0.00120544 C51.94626676 -0.00149326 62.09320541 0.01194906 72.24023438 0.03515625 C83.95150818 0.06175657 95.6625838 0.06351402 107.37387747 0.05176789 C118.66396095 0.04096698 129.95397314 0.0471958 141.24405098 0.06132317 C146.03761047 0.06706362 150.83111744 0.06701557 155.62467766 0.06225777 C161.27598786 0.05746519 166.92708268 0.06768391 172.57835197 0.08921242 C174.64544956 0.09474972 176.71256798 0.09527389 178.7796669 0.09025955 C195.10167707 0.05564816 210.38210049 0.78933698 222.97680664 12.39233398 C233.45386225 23.70755405 235.40558138 35.56877115 235.36352539 50.49389648 C235.36809952 51.93059533 235.3734087 53.367292 235.37940979 54.8039856 C235.38829307 57.80113669 235.38597355 60.79802066 235.37597656 63.79516602 C235.36450164 67.6032144 235.38469919 71.41033334 235.4138937 75.21825981 C235.4323947 78.18174936 235.43193577 81.14502192 235.42625618 84.10855484 C235.42610461 85.51093981 235.43201042 86.91334108 235.44454765 88.31567001 C235.54240402 101.05354625 233.60088911 111.82542312 224.92993164 121.50170898 C224.41688477 122.11788086 223.90383789 122.73405273 223.37524414 123.36889648 C216.72319637 130.78481577 206.62840686 134.83545139 196.76375043 135.68917918 C194.40375226 135.76326953 192.05101329 135.77799654 189.68986511 135.76913452 C188.34368157 135.77593119 188.34368157 135.77593119 186.9703024 135.78286517 C183.98047391 135.79546678 180.99082857 135.79389154 178.00097656 135.79223633 C175.85018176 135.79822419 173.69938909 135.80503034 171.54859924 135.81259155 C165.7179303 135.83023176 159.88732009 135.83494609 154.05662704 135.83622313 C150.41081049 135.83764632 146.76500879 135.84191912 143.11919594 135.84721756 C130.39162882 135.86571082 117.66410355 135.87388899 104.93652344 135.87231445 C93.08610658 135.87111303 81.23587186 135.89221739 69.38550109 135.92380178 C59.19925622 135.94998015 49.01307078 135.9606811 38.82679254 135.95940363 C32.74831091 135.95889449 26.66999122 135.96455155 20.5915432 135.98575974 C14.87295613 136.00516841 9.15468507 136.00524837 3.43608665 135.99072647 C1.34275855 135.98864061 -0.75058947 135.9933259 -2.84388351 136.00544739 C-16.02205797 136.07678773 -27.13440142 135.8336457 -38.07006836 127.50170898 C-38.89506836 126.92420898 -39.72006836 126.34670898 -40.57006836 125.75170898 C-47.74356389 119.295563 -52.14666955 110.94955947 -54.07006836 101.50170898 C-54.17734176 99.26310388 -54.2287541 97.02161662 -54.24707031 94.78051758 C-54.25364151 94.11324646 -54.26021271 93.44597534 -54.26698303 92.75848389 C-54.28664987 90.55570343 -54.29836644 88.3529911 -54.30834961 86.15014648 C-54.31242514 85.39401691 -54.31650066 84.63788734 -54.32069969 83.85884476 C-54.34153658 79.85324632 -54.35584614 75.84768186 -54.36523438 71.84204102 C-54.37626807 67.72657299 -54.41063901 63.61165021 -54.45040607 59.49637413 C-54.47669156 56.3133959 -54.48493691 53.13054499 -54.48851585 49.9474678 C-54.49335445 48.4317623 -54.50488967 46.91606142 -54.52355385 45.4004631 C-54.68519305 31.39981538 -51.99245893 21.69829342 -42.07006836 11.50170898 C-29.23007758 0.36519957 -16.1980202 -0.08218584 0 0 Z M-33.91381836 28.65795898 C-36.61196848 32.96041459 -37.32500849 36.66385441 -37.3605957 41.7097168 C-37.37335541 42.94159729 -37.38611511 44.17347778 -37.39926147 45.44268799 C-37.40232003 46.78006838 -37.40454731 48.11745089 -37.40600586 49.45483398 C-37.41244044 50.83860408 -37.41916928 52.22237283 -37.42617798 53.60614014 C-37.43813407 56.50446726 -37.4418607 59.40267536 -37.44067383 62.30102539 C-37.44047111 65.99401822 -37.46773047 69.68623742 -37.50221825 73.37904739 C-37.52458827 76.23774639 -37.52850826 79.09626246 -37.52745438 81.95503998 C-37.53092733 83.97173272 -37.55253147 85.98836836 -37.57455444 88.00494385 C-37.53067321 96.87987022 -35.98073675 102.75839754 -31.38256836 110.25170898 C-25.33258872 116.13817566 -19.04699781 118.24954888 -10.75444031 118.14335632 C-9.41415881 118.1561146 -9.41415881 118.1561146 -8.04680091 118.16913062 C-5.07587476 118.19127789 -2.1062157 118.17800019 0.86474609 118.16455078 C3.00422049 118.17296992 5.14368747 118.18349767 7.28314209 118.19596863 C13.07881659 118.22298223 18.87405996 118.21832429 24.66976953 118.20626807 C29.51550857 118.19912628 34.36116841 118.20764342 39.20690125 118.21617347 C50.64354082 118.23611551 62.07997132 118.23056902 73.51660156 118.20849609 C85.29727479 118.18614481 97.07739968 118.20371866 108.85802108 118.24154538 C118.98828493 118.27282497 129.11837943 118.28068109 139.24868554 118.26959163 C145.29202509 118.26311751 151.3350485 118.2650449 157.37835121 118.28891563 C163.06429491 118.3102317 168.74946814 118.30210578 174.43536377 118.27182198 C176.51536206 118.26551624 178.59542072 118.26930265 180.67537498 118.28423309 C196.76262339 118.50230808 196.76262339 118.50230808 210.92993164 111.50170898 C215.75771282 105.88420186 218.03293726 101.06758336 218.12280273 93.62841797 C218.13886566 92.41963486 218.15492859 91.21085175 218.17147827 89.96543884 C218.21603415 84.42211139 218.2574523 78.87891344 218.2800293 73.33544922 C218.29332263 70.41683285 218.32108965 67.49892331 218.36206055 64.58056641 C218.41171034 61.04325995 218.43619 57.5065902 218.44325638 53.96895027 C218.45313352 51.98268597 218.48730297 49.99658952 218.52206421 48.01060486 C218.50181729 39.26654557 217.15239766 32.45781368 211.37240601 25.67356873 C204.74395785 19.37063273 196.55039671 18.04899504 187.71473694 18.1072998 C186.83205546 18.1012087 185.94937399 18.0951176 185.03994459 18.08884192 C182.10608573 18.07230035 179.17266509 18.07697501 176.23876953 18.08178711 C174.12561089 18.07444173 172.01245625 18.06585413 169.89930725 18.05612183 C164.1761751 18.03394863 158.45318711 18.03097299 152.7300179 18.03286934 C147.94623907 18.03298921 143.16249059 18.02441829 138.37872022 18.01609182 C127.09083836 17.9968735 115.80303045 17.99396851 104.51513672 18.00073242 C92.88218636 18.00737492 81.24955294 17.98449658 69.61666685 17.94741869 C59.61639331 17.91670465 49.61622164 17.90536344 39.61590189 17.9092555 C33.64865879 17.91132091 27.68166248 17.9058753 21.71446419 17.88136292 C16.10249857 17.85906993 10.49104797 17.86099529 4.87907982 17.88129044 C2.82403283 17.88469571 0.76895099 17.8796323 -1.28604889 17.86530685 C-14.31390689 17.78078169 -25.08185757 17.77205383 -33.91381836 28.65795898 Z " transform="translate(1037.070068359375,596.498291015625)" style="fill: #050606;"/><path d="M0 0 C21.06451613 0 21.06451613 0 30.95703125 8.37890625 C37.54690091 16.83359563 37.57858816 26.23175527 37.51757812 36.49633789 C37.523008 38.03984739 37.53013549 39.58335169 37.53881836 41.12684631 C37.5569505 45.29214579 37.55002679 49.45704602 37.53730202 53.62235188 C37.52712343 57.99567639 37.53658095 62.36896836 37.54284668 66.74229431 C37.55010824 74.08322237 37.54057388 81.42398906 37.52148438 88.76489258 C37.49971034 97.23562482 37.50677679 105.70597198 37.52879 114.17669493 C37.54697696 121.46873 37.54948649 128.76064955 37.53903532 136.05269998 C37.5328195 140.39957292 37.53191199 144.74626518 37.54518127 149.0931263 C37.55678763 153.18011199 37.54862752 157.26660392 37.52560425 161.35353661 C37.52034291 162.84782214 37.52178654 164.34214967 37.53065491 165.83641815 C37.58275499 175.51138956 37.05993309 183.33107695 30.5 190.875 C29.675 191.57625 28.85 192.2775 28 193 C27.1028125 193.804375 27.1028125 193.804375 26.1875 194.625 C17.23924088 200.24962002 11.5182156 199 0 199 C0 133.33 0 67.66 0 0 Z " transform="translate(1343,571)" style="fill: #404854;"/><path d="M0 0 C0 5.94 0 11.88 0 18 C-14.19959761 18.99250932 -28.39927787 19.9838277 -42.59905434 20.97377491 C-49.19823684 21.43386228 -55.79739215 21.89433193 -62.39648438 22.35571289 C-92.58381727 24.46599406 -122.7729563 26.53242601 -152.97123241 28.47999001 C-162.66522986 29.10591959 -172.35807887 29.74889817 -182.05078125 30.39453125 C-182.91230553 30.45189327 -183.7738298 30.50925529 -184.66146088 30.56835556 C-190.87851882 30.98239836 -197.09551634 31.39734363 -203.3125 31.8125 C-205.20735671 31.93899625 -207.10221348 32.0654916 -208.99707031 32.19198608 C-219.92328224 32.92148652 -230.84942967 33.65194825 -241.77553749 34.3830061 C-249.06174687 34.87047909 -256.34800503 35.35721875 -263.63427734 35.84375 C-272.95272922 36.46604395 -282.27108696 37.08972929 -291.58934116 37.71497631 C-296.50967355 38.04511281 -301.43003837 38.3747443 -306.35049438 38.70303345 C-310.9517973 39.01006672 -315.55299154 39.31868052 -320.15410805 39.62849426 C-321.83587192 39.74147145 -323.51767294 39.8538972 -325.19951439 39.9657135 C-327.50746487 40.11924901 -329.81529203 40.27446125 -332.12304688 40.4309082 C-332.82433118 40.47821138 -333.52561548 40.52551456 -334.24815083 40.57425117 C-338.18251776 40.84769882 -342.09783339 41.20397627 -346.01757812 41.63745117 C-347.33177734 41.75709229 -348.64597656 41.8767334 -350 42 C-351.8855253 40.1144747 -351.13246689 37.42231169 -351.13671875 34.91796875 C-351.13285156 34.12003906 -351.12898438 33.32210937 -351.125 32.5 C-351.12886719 31.70207031 -351.13273437 30.90414062 -351.13671875 30.08203125 C-351.12660767 24.12660767 -351.12660767 24.12660767 -350 23 C-347.99499827 22.7977179 -345.98331975 22.66139517 -343.97119141 22.55053711 C-342.67474701 22.47613907 -341.37830261 22.40174103 -340.04257202 22.3250885 C-339.34178905 22.2869359 -338.64100609 22.2487833 -337.91898727 22.20947456 C-334.14496875 22.00354325 -330.37188385 21.78148257 -326.59863281 21.56201172 C-325.80869871 21.51649076 -325.01876461 21.47096979 -324.20489311 21.4240694 C-315.78699578 20.93645236 -307.37389719 20.38209994 -298.9609375 19.81640625 C-298.20873114 19.76595909 -297.45652477 19.71551193 -296.68152428 19.66353607 C-292.04148363 19.35217167 -287.40158789 19.0387026 -282.76176071 18.7241745 C-280.32672492 18.55922994 -277.89165299 18.39482765 -275.45657349 18.23052979 C-256.8808105 16.97631979 -238.31016531 15.6893116 -219.7515564 14.19952393 C-204.08675691 12.94644567 -188.40449452 12.0019914 -172.71655273 11.08935547 C-162.81121035 10.50867835 -152.91837263 9.85559417 -143.02734375 9.06640625 C-131.95967867 8.18822136 -120.88576492 7.46368876 -109.8046875 6.78125 C-108.95851931 6.72906374 -108.11235111 6.67687748 -107.24054146 6.62310982 C-100.23303599 6.19154797 -93.22527107 5.76426133 -86.21740723 5.33856201 C-80.12131862 4.96822316 -74.02537463 4.59564344 -67.9296875 4.21875 C-67.09329428 4.16705029 -66.25690105 4.11535057 -65.39516258 4.0620842 C-53.52664963 3.32447475 -41.67577274 2.46792992 -29.83081055 1.41064453 C-19.90226293 0.53393965 -9.96701178 0 0 0 Z " transform="translate(616,602)" style="fill: #FDFDFB;"/><path d="M0 0 C8.20703636 0.64055813 16.38456417 1.43466242 24.5625 2.375 C25.58923828 2.4884375 26.61597656 2.601875 27.67382812 2.71875 C34.00789402 3.44440776 40.28870878 4.3550929 46.578125 5.38671875 C59.39649133 7.46812769 72.29215609 8.9246436 85.1875 10.4375 C87.82015038 10.74991319 90.45280012 11.06233187 93.08544922 11.37475586 C107.11256338 13.0282127 121.14094943 14.54125688 135.20516968 15.83834839 C153.37349035 17.52130042 171.13905563 20.27438989 189 24 C190.18287598 24.24508301 191.36575195 24.49016602 192.58447266 24.74267578 C223.85091425 31.32717081 258.54515416 40.72622897 284 61 C284.375 64.5625 284.375 64.5625 284 68 C284.32797889 69.33466053 284.66194743 70.66785536 285 72 C285.12311743 73.80104697 285.20051263 75.60548164 285.24609375 77.41015625 C285.27767578 78.47411621 285.30925781 79.53807617 285.34179688 80.63427734 C285.37337891 81.76559082 285.40496094 82.8969043 285.4375 84.0625 C285.71038024 92.36569077 286.10707936 100.61363578 287 108.875 C287.08306396 109.64593994 287.16612793 110.41687988 287.25170898 111.21118164 C287.69991053 115.11574027 287.69991053 115.11574027 288.50318909 118.95812988 C289.02195218 121.09022245 289.26261511 123.11716018 289.44897461 125.30273438 C289.5225267 126.14461304 289.5960788 126.9864917 289.67185974 127.85388184 C289.74791946 128.75803833 289.82397919 129.66219482 289.90234375 130.59375 C290.07219745 132.53125598 290.24212164 134.46875578 290.41210938 136.40625 C290.67466177 139.44257684 290.9357084 142.4790238 291.19506836 145.515625 C292.39486605 160.17387032 292.39486605 160.17387032 294.62280273 174.70214844 C295.19217543 178.17071528 295.13484977 181.49390588 295 185 C292.73502987 181.6025448 291.84590434 178.32698252 290.8125 174.4375 C290.60036865 173.65882568 290.3882373 172.88015137 290.16967773 172.07788086 C288.86902456 167.28904918 287.59966066 162.49194074 286.328125 157.6953125 C278.43029495 127.95711442 270.30379028 98.87973065 248.15234375 76.35546875 C246 74 246 74 245 71 C243.68232003 70.30290479 242.34608299 69.64053323 241 69 C239.65721769 67.82541013 238.34720023 66.61284935 237.0625 65.375 C216.19085191 46.51548792 188.13087248 38.88128948 161 35 C159.42739374 34.77240261 157.85480366 34.54469335 156.28222656 34.31689453 C136.96237521 31.52880425 117.62140808 28.91514473 98.25488281 26.47314453 C87.83163206 25.14431142 77.4440655 23.60943982 67.05432129 22.04421997 C58.78018551 20.79997059 50.52077205 19.6557579 42.1875 18.875 C26.10672439 17.30344571 11.41433426 13.20747531 0 1 C0 0.67 0 0.34 0 0 Z " transform="translate(770,806)" style="fill: #B4BABD;"/><path d="M0 0 C27.43640838 12.29179271 44.180145 33.62702206 55.06030273 61.30419922 C56.74222894 66.12930424 57.82291247 71.08149453 58.9375 76.0625 C60.61601248 83.30956242 62.32896047 90.50852213 64.5 97.625 C67.3504553 106.99094537 69.76984494 116.46006615 72.20751953 125.94042969 C73.03167882 129.12230407 73.87129321 132.29977692 74.71484375 135.4765625 C74.99271729 136.5269873 75.27059082 137.57741211 75.55688477 138.65966797 C76.0924846 140.68283201 76.63063543 142.70532284 77.17163086 144.72705078 C77.41147705 145.63696777 77.65132324 146.54688477 77.8984375 147.484375 C78.11161621 148.28584961 78.32479492 149.08732422 78.54443359 149.91308594 C79 152 79 152 79 155 C74.18466458 155.67788891 69.36897614 156.3531989 64.55297852 157.02636719 C62.92300222 157.2545415 61.29311557 157.48335739 59.66333008 157.71289062 C51.03246663 158.92797977 42.39834461 160.11051252 33.74609375 161.1640625 C33.06764908 161.24933197 32.38920441 161.33460144 31.69020081 161.42245483 C27.43847798 161.92694538 23.27933051 162.07413395 19 162 C20.07200825 158.29669877 21.48089191 155.05696771 23.3125 151.6875 C25.65263553 147.10415763 27.23776648 142.48156951 28.6875 137.5625 C28.88964111 136.88340576 29.09178223 136.20431152 29.30004883 135.50463867 C32.23221741 125.19263005 33.32856441 115.37121107 33.26074219 104.63964844 C33.25005042 102.63445551 33.26068449 100.63016544 33.2734375 98.625 C33.25081219 87.15396566 31.93927669 76.21192123 28.75 65.1875 C28.53021484 64.42236084 28.31042969 63.65722168 28.08398438 62.86889648 C24.32603747 50.0720287 19.29410692 38.21654719 13.5625 26.1875 C13.02496094 25.05449463 12.48742187 23.92148926 11.93359375 22.75415039 C8.77865273 16.24565567 5.3358853 10.14333483 1.30053711 4.13793945 C0 2 0 2 0 0 Z " transform="translate(969,877)" style="fill: #424953;"/><path d="M0 0 C0 4.29 0 8.58 0 13 C-4.65633882 13.71536139 -9.25028569 14.20117234 -13.953125 14.46484375 C-14.61165466 14.50307755 -15.27018433 14.54131134 -15.94866943 14.58070374 C-18.04896443 14.70242489 -20.14944437 14.82036955 -22.25 14.9375 C-32.22341654 15.49917625 -42.18389164 16.15294609 -52.14453125 16.91015625 C-63.40286738 17.76145268 -74.66548967 18.5106108 -85.93359375 19.21875 C-87.17780657 19.29697841 -87.17780657 19.29697841 -88.447155 19.37678719 C-94.44380686 19.75327914 -100.44064136 20.12681886 -106.4375 20.5 C-113.26963202 20.92548006 -120.10168996 21.35211971 -126.93359375 21.78125 C-127.76346235 21.83336514 -128.59333096 21.88548027 -129.44834709 21.93917465 C-142.10863903 22.73607733 -154.76188316 23.60544662 -167.41381836 24.52636719 C-174.22338554 25.02043893 -181.03514505 25.47826677 -187.84765625 25.9296875 C-211.72157922 27.51557555 -235.58698987 29.15356412 -259.4375 31.0625 C-321.87599211 36.05314324 -321.87599211 36.05314324 -351 37 C-351 33.37 -351 29.74 -351 26 C-348.81793945 25.83564453 -348.81793945 25.83564453 -346.59179688 25.66796875 C-339.93620921 25.16636565 -333.28070183 24.66370151 -326.62522507 24.16062927 C-325.2123978 24.05384462 -323.79956873 23.94708383 -322.38673782 23.84034729 C-302.11303573 22.30863533 -281.84073605 20.75932826 -261.56966782 19.19313049 C-258.05851035 18.92186856 -254.54733874 18.65079036 -251.03616333 18.37976074 C-240.53608187 17.56914395 -230.03605154 16.75789809 -219.53628445 15.94321823 C-215.10533359 15.59973562 -210.67428431 15.25753512 -206.24321175 14.91562653 C-204.17801678 14.75598946 -202.11286381 14.59580806 -200.0477581 14.43502045 C-189.82287819 13.63912073 -179.60311279 12.85132199 -169.35826778 12.35819626 C-165.81211148 12.1732083 -162.46720116 11.75259153 -159 11 C-156.22135672 10.74042813 -153.45101798 10.51211473 -150.66796875 10.31640625 C-149.85200226 10.25670151 -149.03603577 10.19699677 -148.19534302 10.13548279 C-145.52628369 9.94127291 -142.85690899 9.7518379 -140.1875 9.5625 C-138.32640563 9.42787782 -136.46532174 9.29311077 -134.60424805 9.15820312 C-123.51100219 8.36005011 -112.41517186 7.65129737 -101.3125 7 C-90.10779163 6.33547954 -78.96948833 5.3511554 -67.80712891 4.18237305 C-57.96172067 3.16457158 -48.10971383 2.29462007 -38.2427063 1.5151062 C-36.57265297 1.38268513 -34.90278059 1.2479564 -33.23312378 1.11062622 C-22.1305224 0.20146197 -11.13920037 -0.16787408 0 0 Z " transform="translate(616,589)" style="fill: #D5DADB;"/><path d="M0 0 C0.33 0 0.66 0 1 0 C1 73.92 1 147.84 1 224 C-68.52353896 224 -68.52353896 224 -78.20703125 215.0703125 C-83.82160916 208.58724868 -86.15528062 201.14007219 -86.12025452 192.72981262 C-86.12110894 191.98404282 -86.12196337 191.23827301 -86.12284368 190.46990412 C-86.12449443 187.96404272 -86.11898371 185.45824785 -86.11352539 182.95239258 C-86.11324341 181.15886944 -86.11340147 179.36534619 -86.1139679 177.57182312 C-86.11425543 172.69611314 -86.10836579 167.82042764 -86.10139394 162.94472337 C-86.09515309 157.85179661 -86.09455602 152.75886932 -86.09336853 147.66593933 C-86.09025738 138.01872432 -86.08204688 128.37152061 -86.07201904 118.72431058 C-86.06085122 107.74258932 -86.05534576 96.76086754 -86.05032361 85.77914202 C-86.0398641 63.18608841 -86.02226882 40.59304484 -86 18 C-85.67 18 -85.34 18 -85 18 C-85.00037703 18.74930251 -85.00075405 19.49860502 -85.0011425 20.27061367 C-85.00826771 38.52486657 -84.98228931 56.77879969 -84.9197216 75.0329504 C-84.89025746 83.86065269 -84.8718902 92.68811473 -84.87988281 101.51586914 C-84.88682292 109.21252026 -84.87270136 116.90879937 -84.83356392 124.60535914 C-84.81357931 128.67863294 -84.8039552 132.75132303 -84.81957626 136.82462883 C-84.83396621 140.66384367 -84.82005557 144.50194646 -84.78504753 148.34101868 C-84.77712187 149.74498073 -84.77926754 151.14904412 -84.79260826 152.55296516 C-84.86909444 161.35075692 -84.03406157 167.34770463 -78 174 C-75.82862205 176.12853845 -75.82862205 176.12853845 -73.5625 177.4375 C-72.51255859 178.11619141 -72.51255859 178.11619141 -71.44140625 178.80859375 C-50.00315712 189.27045933 -23.851649 182.61529598 0 183 C0 122.61 0 62.22 0 0 Z " transform="translate(728,574)" style="fill: #2D353E;"/><path d="M0 0 C1.95145683 0.00022659 1.95145683 0.00022659 3.94233704 0.00045776 C5.35242874 0.01066954 6.76251886 0.02110151 8.17260742 0.03173828 C9.62277532 0.0354712 11.07294574 0.03831685 12.52311707 0.04031372 C16.32895951 0.04792829 20.13464787 0.06755789 23.94042969 0.08972168 C28.51262986 0.11383616 33.08488173 0.12297147 37.65712738 0.1346283 C44.59338395 0.15398374 51.52930282 0.19232118 58.46557617 0.22705078 C58.46557617 12.10705078 58.46557617 23.98705078 58.46557617 36.22705078 C54.41791992 36.25283203 50.37026367 36.27861328 46.19995117 36.30517578 C42.94010982 36.33692748 39.68036223 36.37258188 36.42059326 36.4108429 C32.99741773 36.44996562 29.57449355 36.4824664 26.15112305 36.49804688 C22.20874051 36.51631162 18.26704688 36.56636285 14.32495117 36.61767578 C13.1182074 36.61890442 11.91146362 36.62013306 10.66815186 36.62139893 C-0.71747393 36.81489152 -11.08375877 39.22809165 -19.53442383 47.22705078 C-21.23145976 49.07262378 -22.84618012 50.94375761 -24.40551758 52.90673828 C-24.77805664 53.34244141 -25.1505957 53.77814453 -25.53442383 54.22705078 C-25.86442383 54.22705078 -26.19442383 54.22705078 -26.53442383 54.22705078 C-26.58425222 49.95867435 -26.62034398 45.69045678 -26.64428711 41.421875 C-26.65427968 39.97295172 -26.66787836 38.52404827 -26.68530273 37.07519531 C-26.82073074 25.51601637 -26.87253676 16.11723055 -18.53442383 7.22705078 C-12.84736643 2.27906032 -7.62724028 -0.02962035 0 0 Z " transform="translate(669.534423828125,536.77294921875)" style="fill: #989DA3;"/><path d="M0 0 C29.37 0 58.74 0 89 0 C87.22685787 5.31942639 85.52959623 10.37126788 83.375 15.5 C82.94960937 16.5209375 82.52421875 17.541875 82.0859375 18.59375 C81 21 81 21 80 22 C77.79132169 22.09432985 75.57958479 22.11742431 73.36889648 22.11352539 C72.67624695 22.11367142 71.98359741 22.11381744 71.2699585 22.1139679 C68.97030554 22.11326874 66.67073263 22.10547628 64.37109375 22.09765625 C62.78068588 22.09579208 61.19027743 22.09436817 59.59986877 22.09336853 C55.4060407 22.08954329 51.21224705 22.07971295 47.01843262 22.06866455 C42.74211086 22.05845057 38.46578356 22.05387094 34.18945312 22.04882812 C25.79295292 22.03809069 17.39648074 22.02101419 9 22 C8.36397056 20.73101959 7.72829782 19.46186039 7.09277344 18.19262695 C6.73874451 17.48588333 6.38471558 16.77913971 6.0199585 16.05097961 C4.72494497 13.44690665 3.47305361 10.82612493 2.25 8.1875 C1.82203125 7.27355469 1.3940625 6.35960937 0.953125 5.41796875 C0 3 0 3 0 0 Z " transform="translate(1182,1433)" style="fill: #3F474E;"/><path d="M0 0 C0.33 0 0.66 0 1 0 C1 43.23 1 86.46 1 131 C19.6697449 130.49194437 19.6697449 130.49194437 33.68811417 120.91732407 C36.25151126 117.17091351 35.8283563 112.98437225 35.77294922 108.58837891 C35.78357895 107.55362427 35.79420868 106.51886963 35.80516052 105.45275879 C35.83319304 102.04353073 35.81915612 98.63585291 35.8046875 95.2265625 C35.81593821 92.85857797 35.8298191 90.49060459 35.84622192 88.12265015 C35.88227787 81.89844307 35.88263098 75.67472702 35.87554932 69.45043945 C35.87463681 63.09577638 35.90748926 56.74129772 35.9375 50.38671875 C35.99137936 37.92442774 36.00754192 25.4623946 36 13 C36.33 13 36.66 13 37 13 C37.09357769 30.18557118 37.16404483 47.37106247 37.20724869 64.55683041 C37.22784514 72.53707857 37.25590961 80.51716812 37.30175781 88.49731445 C37.3417153 95.45548426 37.36745401 102.41353915 37.37635398 109.37182051 C37.38155374 113.0538157 37.39371335 116.73548224 37.42292023 120.41737175 C37.45531516 124.5348231 37.45595372 128.65170862 37.45410156 132.76928711 C37.47567322 134.58622322 37.47567322 134.58622322 37.49768066 136.43986511 C37.45629267 144.95624119 36.17256876 151.35154592 30.5 157.875 C29.675 158.57625 28.85 159.2775 28 160 C27.1028125 160.804375 27.1028125 160.804375 26.1875 161.625 C17.23924088 167.24962002 11.5182156 166 0 166 C0 111.22 0 56.44 0 0 Z " transform="translate(1343,604)" style="fill: #2C343C;"/><path d="M0 0 C21.28742515 0 21.28742515 0 31.0546875 8.76953125 C35.12812296 13.44007673 36.37741364 17.57460863 36.29296875 23.7109375 C36.2784668 25.57685547 36.2784668 25.57685547 36.26367188 27.48046875 C36.23853516 28.76566406 36.21339844 30.05085937 36.1875 31.375 C36.16719727 33.33759766 36.16719727 33.33759766 36.14648438 35.33984375 C36.1112237 38.56031844 36.06193633 41.77994606 36 45 C35.54399414 44.59950439 35.08798828 44.19900879 34.61816406 43.78637695 C23.3771665 34.01346434 14.6898809 33.3103496 0 33 C0 22.11 0 11.22 0 0 Z " transform="translate(1343,571)" style="fill: #9BA0A5;"/><path d="M0 0 C0 29.7 0 59.4 0 90 C-6.28251248 83.71748752 -6.11555512 81.28803481 -6.16113281 72.82641602 C-6.16858017 71.77176147 -6.16858017 71.77176147 -6.17617798 70.69580078 C-6.19072166 68.38182581 -6.19758742 66.06791932 -6.203125 63.75390625 C-6.20888152 62.13874816 -6.21463918 60.52359008 -6.22039795 58.90843201 C-6.2308848 55.5267607 -6.23674305 52.145113 -6.24023438 48.76342773 C-6.24572366 44.43807486 -6.26977056 40.11303603 -6.29820633 35.78778172 C-6.31685904 32.45313104 -6.32203964 29.11855578 -6.32357025 25.78385735 C-6.3265898 24.18950617 -6.33459474 22.59515611 -6.34775543 21.0008564 C-6.36487663 18.76798878 -6.36292167 16.53588577 -6.35644531 14.30297852 C-6.36191376 12.40032982 -6.36191376 12.40032982 -6.36749268 10.45924377 C-5.94862206 6.51637449 -4.84176739 0 0 0 Z " transform="translate(248,618)" style="fill: #E2E3E4;"/></svg>