<?xml version="1.0" encoding="UTF-8" standalone="no"?><!DOCTYPE svg PUBLIC "-//W3C//DTD SVG 1.1//EN" "http://www.w3.org/Graphics/SVG/1.1/DTD/svg11.dtd"><svg width="100%" height="100%" viewBox="0 0 4267 4267" version="1.1" xmlns="http://www.w3.org/2000/svg" xmlns:xlink="http://www.w3.org/1999/xlink" xml:space="preserve" xmlns:serif="http://www.serif.com/" style="fill-rule:evenodd;clip-rule:evenodd;stroke-linejoin:round;stroke-miterlimit:2;"><path d="M2454.17,975c6.195,0.452 12.391,0.903 18.587,1.353c187.683,13.84 378.391,33.789 560.579,81.98c8.018,2.017 16.037,4.034 24.06,6.028c5.49,1.364 10.978,2.736 16.464,4.115c15.388,3.87 30.793,7.646 46.228,11.325c44.202,10.634 87.157,23.248 130.082,38.217c11.522,3.972 23.129,7.673 34.729,11.409c20.953,6.975 41.222,15.183 61.523,23.861c10.671,4.519 21.405,8.72 32.227,12.858c24.627,9.803 48.074,21.918 71.659,33.958c8.343,4.222 16.724,8.359 25.118,12.477c31.292,15.38 61.732,31.283 91.244,49.919c3.421,2.068 6.842,4.136 10.368,6.266c118.64,72.942 216.337,168.559 289.371,286.963c1.869,3.019 3.738,6.038 5.663,9.148c9.345,15.466 16.709,30.106 22.885,47.102c4.482,10.381 6.887,15.803 16.664,21.625c9.206,2.924 18.194,4.824 27.705,6.5c6.787,1.558 13.564,3.164 20.329,4.818c4.988,1.216 4.988,1.216 10.077,2.458c59.934,16.64 112.316,66.379 142.771,119.287c26.504,50.539 37.984,99.956 38.304,156.703c0.034,3.42 0.068,6.84 0.103,10.364c0.103,11.227 0.172,22.454 0.232,33.681c0.034,5.813 0.034,5.813 0.068,11.743c0.111,20.538 0.191,41.076 0.252,61.613c0.055,16.843 0.171,33.684 0.342,50.525c0.207,20.491 0.308,40.979 0.338,61.47c0.027,7.73 0.09,15.46 0.191,23.19c1.069,86.775 -17.724,175.816 -80.195,240.483c-40.018,35.556 -85.488,62.789 -139.323,70.019c-8.424,1.336 -8.424,1.336 -16.145,5.209c-4.228,7.505 -4.228,7.505 -6.446,16.764c-1.002,3.392 -2.004,6.784 -3.037,10.278c-0.996,3.451 -1.991,6.902 -3.017,10.458c-47.337,140.86 -122.07,276.129 -223.568,385.302c-8.503,9.169 -16.73,18.489 -24.87,27.979c-28.316,32.399 -59.359,60.227 -93.229,86.719c-2.428,1.913 -4.857,3.827 -7.359,5.798c-72.936,57.164 -149.293,99.139 -234.308,135.868c-4.914,2.186 -9.829,4.372 -14.892,6.625c-190.615,79.656 -436.434,72.587 -626.254,-4.021c-84.877,-35.775 -158.357,-85.563 -225.52,-148.437c-2.08,-1.915 -4.159,-3.831 -6.301,-5.804c-36.388,-33.743 -65.233,-70.268 -92.721,-111.524c-4.306,-6.421 -8.754,-12.748 -13.234,-19.049c-13.034,-18.456 -21.971,-36.667 -29.59,-57.959c-3.775,-10.105 -3.775,-10.105 -10.059,-19.596c-7.748,-13.339 -12.133,-26.595 -16.845,-41.276c-0.896,-2.76 -1.792,-5.52 -2.715,-8.364c-2.587,-7.97 -5.145,-15.949 -7.702,-23.928c-2.331,-7.122 -4.672,-14.241 -7.031,-21.354c-0.876,-2.675 -1.751,-5.35 -2.653,-8.106c-2.792,-8.285 -2.792,-8.285 -6.736,-17.058c-5.207,-13.94 -8.181,-27.654 -11.168,-42.235c-0.602,-2.938 -1.205,-5.875 -1.826,-8.902c-1.943,-9.544 -3.847,-19.094 -5.742,-28.647c-0.651,-3.262 -1.302,-6.524 -1.973,-9.884c-12.911,-65.025 -24.199,-130.273 -26.612,-196.644c-1.106,-29.505 -3.828,-52.703 -23.759,-75.503c-21.736,-18.566 -42.231,-19.542 -70.426,-18.474c-19.299,2.702 -29.584,7.855 -42.074,22.64c-17.103,30.239 -19.947,61.989 -22.311,96.081c-1.041,14.791 -2.327,29.561 -3.617,44.333c-0.255,2.951 -0.511,5.902 -0.774,8.942c-3.795,42.295 -10.941,83.999 -19.131,125.644c-0.627,3.221 -1.254,6.442 -1.901,9.76c-31.36,156.56 -107.026,297.991 -218.933,411.074c-3.571,3.673 -7.143,7.347 -10.823,11.132c-67.411,65.381 -157.742,116.169 -247.04,144.334c-8.452,2.753 -16.606,5.919 -24.852,9.231c-196.33,74.412 -439.82,41.02 -626.247,-42.564c-56.244,-25.9 -108.702,-55.086 -157.704,-92.967c-4.939,-3.698 -4.939,-3.698 -9.978,-7.47c-9.319,-7.069 -18.441,-14.324 -27.522,-21.696c-4.098,-3.325 -8.197,-6.65 -12.419,-10.075c-49.504,-40.732 -94.089,-85.036 -133.415,-135.759c-3.509,-4.476 -7.02,-8.952 -10.53,-13.427c-50.989,-65.333 -93.001,-133.969 -131.136,-207.406c-2.229,-4.141 -4.458,-8.282 -6.755,-12.549c-16.996,-32.358 -29.029,-65.844 -40.603,-100.417c-2.277,-6.78 -4.626,-13.535 -6.988,-20.286c-4.523,-13.017 -8.154,-23.698 -8.154,-37.581c-4.238,-0.613 -4.238,-0.613 -8.562,-1.237c-48.003,-7.713 -84.993,-25.141 -124.772,-52.93c-2.658,-1.826 -5.317,-3.652 -8.056,-5.534c-57.447,-44.047 -84.754,-120.369 -94.987,-189.258c-3.489,-29.121 -2.811,-58.53 -2.637,-87.809c0.002,-7.342 -0,-14.683 -0.006,-22.025c0,-15.264 0.043,-30.527 0.119,-45.79c0.095,-19.415 0.097,-38.828 0.069,-58.242c-0.014,-15.118 0.013,-30.236 0.054,-45.354c0.016,-7.154 0.021,-14.308 0.015,-21.462c-0.015,-91.987 13.353,-181.869 79.388,-251.089c35.56,-33.012 87.354,-73.51 138.537,-73.423c9.503,-0.033 16.16,-0.611 25.004,-4.181c10.565,-12.573 16.994,-26.875 23.959,-41.666c4.273,-8.422 8.581,-16.826 12.923,-25.212c3.249,-6.289 3.249,-6.289 6.563,-12.705c26.005,-47.934 60.864,-89.376 98.222,-128.75c4.378,-5.176 8.724,-10.381 13.021,-15.625c13.577,-16.018 29.332,-29.163 45.312,-42.708c5.124,-4.599 10.245,-9.2 15.365,-13.802c116.826,-101.325 261.357,-173.451 407.243,-222.738c12.153,-4.184 23.901,-8.71 35.726,-13.721c41.882,-17.108 86.666,-28.126 130.563,-38.683c17.005,-4.107 33.85,-8.573 50.67,-13.384c88.312,-24.801 178.166,-38.382 268.767,-51.839c4.814,-0.717 4.814,-0.717 9.725,-1.448c50.802,-7.542 101.432,-14.947 152.707,-18.33c13.08,-1.098 25.906,-2.917 38.87,-4.962c43.84,-6.412 87.834,-9.822 132.031,-12.76c2.843,-0.192 5.685,-0.383 8.614,-0.58c213.704,-14.21 431.937,-15.53 645.553,0.58Z" style="fill:#e2f6fd;fill-rule:nonzero;"/><path d="M2454.17,975c6.195,0.452 12.391,0.903 18.587,1.353c187.683,13.84 378.391,33.789 560.579,81.98c8.018,2.017 16.037,4.034 24.06,6.028c5.49,1.364 10.978,2.736 16.464,4.115c15.388,3.87 30.793,7.646 46.228,11.325c44.202,10.634 87.157,23.248 130.082,38.217c11.522,3.972 23.129,7.673 34.729,11.409c20.953,6.975 41.222,15.183 61.523,23.861c10.671,4.519 21.405,8.72 32.227,12.858c24.627,9.803 48.074,21.918 71.659,33.958c8.343,4.222 16.724,8.359 25.118,12.477c31.292,15.38 61.732,31.283 91.244,49.919c3.421,2.068 6.842,4.136 10.368,6.266c118.64,72.942 216.337,168.559 289.371,286.963c1.869,3.019 3.738,6.038 5.663,9.148c9.345,15.466 16.709,30.106 22.885,47.102c4.482,10.381 6.887,15.803 16.664,21.625c9.206,2.924 18.194,4.824 27.705,6.5c6.787,1.558 13.564,3.164 20.329,4.818c4.988,1.216 4.988,1.216 10.077,2.458c59.934,16.64 112.316,66.379 142.771,119.287c26.504,50.539 37.984,99.956 38.304,156.703c0.034,3.42 0.068,6.84 0.103,10.364c0.103,11.227 0.172,22.454 0.232,33.681c0.034,5.813 0.034,5.813 0.068,11.743c0.111,20.538 0.191,41.076 0.252,61.613c0.055,16.843 0.171,33.684 0.342,50.525c0.207,20.491 0.308,40.979 0.338,61.47c0.027,7.73 0.09,15.46 0.191,23.19c1.069,86.775 -17.724,175.816 -80.195,240.483c-40.018,35.556 -85.488,62.789 -139.323,70.019c-8.424,1.336 -8.424,1.336 -16.145,5.209c-4.228,7.505 -4.228,7.505 -6.446,16.764c-1.002,3.392 -2.004,6.784 -3.037,10.278c-0.996,3.451 -1.991,6.902 -3.017,10.458c-47.337,140.86 -122.07,276.129 -223.568,385.302c-8.503,9.169 -16.73,18.489 -24.87,27.979c-28.316,32.399 -59.359,60.227 -93.229,86.719c-2.428,1.913 -4.857,3.827 -7.359,5.798c-72.936,57.164 -149.293,99.139 -234.308,135.868c-4.914,2.186 -9.829,4.372 -14.892,6.625c-190.615,79.656 -436.434,72.587 -626.254,-4.021c-84.877,-35.775 -158.357,-85.563 -225.52,-148.437c-2.08,-1.915 -4.159,-3.831 -6.301,-5.804c-36.388,-33.743 -65.233,-70.268 -92.721,-111.524c-4.306,-6.421 -8.754,-12.748 -13.234,-19.049c-13.034,-18.456 -21.971,-36.667 -29.59,-57.959c-3.775,-10.105 -3.775,-10.105 -10.059,-19.596c-7.748,-13.339 -12.133,-26.595 -16.845,-41.276c-0.896,-2.76 -1.792,-5.52 -2.715,-8.364c-2.587,-7.97 -5.145,-15.949 -7.702,-23.928c-2.331,-7.122 -4.672,-14.241 -7.031,-21.354c-0.876,-2.675 -1.751,-5.35 -2.653,-8.106c-2.792,-8.285 -2.792,-8.285 -6.736,-17.058c-5.207,-13.94 -8.181,-27.654 -11.168,-42.235c-0.602,-2.938 -1.205,-5.875 -1.826,-8.902c-1.943,-9.544 -3.847,-19.094 -5.742,-28.647c-0.651,-3.262 -1.302,-6.524 -1.973,-9.884c-12.911,-65.025 -24.199,-130.273 -26.612,-196.644c-1.106,-29.505 -3.828,-52.703 -23.759,-75.503c-21.736,-18.566 -42.231,-19.542 -70.426,-18.474c-19.299,2.702 -29.584,7.855 -42.074,22.64c-17.103,30.239 -19.947,61.989 -22.311,96.081c-1.041,14.791 -2.327,29.561 -3.617,44.333c-0.255,2.951 -0.511,5.902 -0.774,8.942c-3.795,42.295 -10.941,83.999 -19.131,125.644c-0.627,3.221 -1.254,6.442 -1.901,9.76c-31.36,156.56 -107.026,297.991 -218.933,411.074c-3.571,3.673 -7.143,7.347 -10.823,11.132c-67.411,65.381 -157.742,116.169 -247.04,144.334c-8.452,2.753 -16.606,5.919 -24.852,9.231c-196.33,74.412 -439.82,41.02 -626.247,-42.564c-56.244,-25.9 -108.702,-55.086 -157.704,-92.967c-4.939,-3.698 -4.939,-3.698 -9.978,-7.47c-9.319,-7.069 -18.441,-14.324 -27.522,-21.696c-4.098,-3.325 -8.197,-6.65 -12.419,-10.075c-49.504,-40.732 -94.089,-85.036 -133.415,-135.759c-3.509,-4.476 -7.02,-8.952 -10.53,-13.427c-50.989,-65.333 -93.001,-133.969 -131.136,-207.406c-2.229,-4.141 -4.458,-8.282 -6.755,-12.549c-16.996,-32.358 -29.029,-65.844 -40.603,-100.417c-2.277,-6.78 -4.626,-13.535 -6.988,-20.286c-4.523,-13.017 -8.154,-23.698 -8.154,-37.581c-4.238,-0.613 -4.238,-0.613 -8.562,-1.237c-48.003,-7.713 -84.993,-25.141 -124.772,-52.93c-2.658,-1.826 -5.317,-3.652 -8.056,-5.534c-57.447,-44.047 -84.754,-120.369 -94.987,-189.258c-3.489,-29.121 -2.811,-58.53 -2.637,-87.809c0.002,-7.342 -0,-14.683 -0.006,-22.025c0,-15.264 0.043,-30.527 0.119,-45.79c0.095,-19.415 0.097,-38.828 0.069,-58.242c-0.014,-15.118 0.013,-30.236 0.054,-45.354c0.016,-7.154 0.021,-14.308 0.015,-21.462c-0.015,-91.987 13.353,-181.869 79.388,-251.089c35.56,-33.012 87.354,-73.51 138.537,-73.423c9.503,-0.033 16.16,-0.611 25.004,-4.181c10.565,-12.573 16.994,-26.875 23.959,-41.666c4.273,-8.422 8.581,-16.826 12.923,-25.212c3.249,-6.289 3.249,-6.289 6.563,-12.705c26.005,-47.934 60.864,-89.376 98.222,-128.75c4.378,-5.176 8.724,-10.381 13.021,-15.625c13.577,-16.018 29.332,-29.163 45.312,-42.708c5.124,-4.599 10.245,-9.2 15.365,-13.802c116.826,-101.325 261.357,-173.451 407.243,-222.738c12.153,-4.184 23.901,-8.71 35.726,-13.721c41.882,-17.108 86.666,-28.126 130.563,-38.683c17.005,-4.107 33.85,-8.573 50.67,-13.384c88.312,-24.801 178.166,-38.382 268.767,-51.839c4.814,-0.717 4.814,-0.717 9.725,-1.448c50.802,-7.542 101.432,-14.947 152.707,-18.33c13.08,-1.098 25.906,-2.917 38.87,-4.962c43.84,-6.412 87.834,-9.822 132.031,-12.76c2.843,-0.192 5.685,-0.383 8.614,-0.58c213.704,-14.21 431.937,-15.53 645.553,0.58Zm-603.5,308.154c-3.103,0.179 -6.205,0.358 -9.402,0.543c-37.522,2.115 -37.522,2.115 -74.598,7.97c-11.131,1.118 -22.233,2.119 -33.382,2.994c-3.202,0.262 -6.403,0.524 -9.701,0.793c-10.204,0.833 -20.41,1.648 -30.615,2.463c-69.745,3.944 -69.745,3.944 -138.542,14.583c-19.263,4.128 -38.321,5.958 -57.959,7.308c-8.88,0.073 -8.88,0.073 -13.135,5.192c-7.514,1.39 -15.072,2.551 -22.64,3.613c-4.686,0.682 -9.372,1.365 -14.2,2.067c-9.84,1.401 -19.682,2.79 -29.525,4.167c-25.586,3.744 -49.72,8.548 -74.334,16.475c-13.742,4.203 -27.414,6.466 -41.592,8.834c-52.239,8.842 -52.239,8.842 -101.27,27.637c-10.174,4.862 -19.321,5.865 -30.501,7.259c-30.199,4.646 -57.459,15.034 -85.938,25.781c-12.461,4.288 -24.973,8.408 -37.5,12.5c-6.187,2.063 -6.187,2.063 -12.5,4.167l0,8.333c-5.414,0.645 -5.414,0.645 -10.937,1.302c-14.758,3.007 -25.909,8.162 -39.063,15.365l0,8.333c-3.867,0.516 -7.734,1.032 -11.718,1.563c-13.862,1.835 -13.862,1.835 -25.782,10.937c-9.423,2.637 -9.423,2.637 -19.531,4.688c-5.051,1.047 -5.051,1.047 -10.205,2.116c-2.562,0.505 -5.124,1.009 -7.764,1.53l0,8.333c-11.051,4.48 -22.015,8.727 -33.333,12.5l-0,8.333c-3.781,1.203 -7.563,2.407 -11.458,3.646c-10.717,3.71 -20.265,7.667 -30.209,13.021l0,8.333c-5.027,1.676 -5.027,1.676 -10.156,3.386c-5.285,2.449 -5.285,2.449 -10.677,4.948c-2.063,6.187 -2.063,6.187 -4.167,12.5c-3.061,0.381 -6.123,0.762 -9.277,1.155c-32.444,8.454 -57.348,44.86 -78.223,69.678c-5.199,5.911 -10.407,11.814 -15.625,17.708c-19.327,19.665 -19.327,19.665 -26.041,44.792l-8.334,-0c-1.659,3.319 -3.319,6.639 -5.029,10.059c-19.971,39.941 -19.971,39.941 -26.872,52.571c-5.861,12.95 -7.603,22.738 -8.463,36.849c-0.274,4.028 -0.548,8.057 -0.83,12.207c-0.156,3.019 -0.312,6.037 -0.472,9.147l-8.334,0c-17.807,73.839 -22.197,146.127 -21.614,221.875c0.037,7.975 0.073,15.95 0.109,23.925c0.736,136.141 0.736,136.141 26.99,269.272c2.803,9.769 4.974,19.506 7.015,29.46c3.236,15.127 8.003,29.036 13.672,43.408c4.596,12.114 7.828,24.592 11.328,37.06c8.377,26.946 18.437,53.078 29.167,79.167l8.333,0c0.344,2.836 0.688,5.672 1.042,8.594c3.388,13.268 8.688,22.693 15.739,34.293c4.053,7.113 4.053,7.113 8.219,18.832c3.301,9.854 3.301,9.854 12.761,13.021c2.664,1.461 5.328,2.921 8.073,4.427c3.125,13.021 3.125,13.021 4.166,25c4.125,1.375 8.25,2.75 12.5,4.166c4.948,12.761 4.948,12.761 8.334,25l8.333,0c1.426,4.367 1.426,4.367 2.881,8.822c6.587,14.51 15.669,25.617 26.025,37.532c2.015,2.348 4.031,4.695 6.107,7.113c27.359,31.475 56.452,63.264 89.987,88.2l8.333,0l0,8.333c12.797,12.305 24.306,14.694 41.667,16.667l-0,8.333c5.5,1.375 11,2.75 16.667,4.167l-0,8.333c16.386,12.876 29.255,18.858 50,20.834l-0,8.333c23.377,9.69 46.387,18.333 70.833,25c5.559,1.986 11.114,3.984 16.667,5.99c113.156,36.841 249.95,26.232 362.5,-10.157c1.375,-2.75 2.75,-5.5 4.166,-8.333c9.642,-3.045 19.368,-5.839 29.167,-8.333l0,-8.334c5.07,-1.031 10.141,-2.062 15.365,-3.125c16.357,-4.017 26.116,-10.639 38.802,-21.875c4.125,-1.375 8.25,-2.75 12.5,-4.166l-0,-8.334c4.125,-1.375 8.25,-2.75 12.5,-4.166c10.041,-10.981 10.041,-10.981 12.5,-25c4.125,-1.375 8.25,-2.75 12.5,-4.167l-0,-8.333c6.875,-2.75 13.75,-5.5 20.833,-8.334l0,-8.333l8.333,0c1.375,-5.5 2.75,-11 4.167,-16.667l8.333,0c5.518,-9.175 10.976,-18.377 16.407,-27.604c1.555,-2.573 3.109,-5.145 4.711,-7.796c9.343,-15.991 14.562,-29.15 16.382,-47.933l12.5,0c2.805,-9.367 5.577,-18.744 8.334,-28.125c1.547,-5.221 3.093,-10.441 4.687,-15.82c4.328,-14.607 4.328,-14.607 3.646,-31.055l8.333,0c8.111,-13.872 10.112,-25.888 11.735,-41.797c0.517,-4.978 1.034,-9.956 1.566,-15.085c0.509,-5.291 1.018,-10.583 1.543,-16.035c0.539,-5.385 1.078,-10.771 1.633,-16.319c4.246,-43.824 7.038,-87.6 8.523,-131.597l8.334,-0c1.375,-26.125 2.75,-52.25 4.166,-79.167l8.334,-0c0.505,-2.718 1.009,-5.436 1.53,-8.236c3.853,-20.098 8.514,-39.037 15.136,-58.431l0,-12.5l8.334,0c13.225,-23.169 24.879,-45.47 33.333,-70.833l8.333,-0c9.993,-10.987 9.993,-10.987 12.5,-25c2.578,-1.203 5.157,-2.406 7.813,-3.646c9.409,-4.426 9.409,-4.426 17.187,-13.021l0,-12.5c6.875,-2.75 13.75,-5.5 20.834,-8.333l-0,-8.333c2.664,-0.43 5.328,-0.86 8.073,-1.302c4.253,-1.418 4.253,-1.418 8.593,-2.865c1.375,-4.125 2.75,-8.25 4.167,-12.5c3.013,-0.478 6.026,-0.956 9.131,-1.449c12.133,-2.818 21.308,-7.035 32.275,-12.874c15.103,-7.811 29.701,-14.265 46.094,-19.01l-0,-8.334c4.812,-0.515 9.625,-1.031 14.583,-1.562c11.888,-1.274 22.441,-3.61 34.05,-6.771c16.909,-4.261 32.984,-5.469 50.456,-5.892c4.368,-0.121 4.368,-0.121 8.825,-0.244c9.167,-0.247 18.334,-0.442 27.503,-0.635c6.271,-0.159 12.543,-0.322 18.815,-0.488c15.255,-0.397 30.511,-0.748 45.768,-1.074l-0,8.333c4.238,0.612 4.238,0.612 8.561,1.237c39.045,6.273 72.4,20.443 108.073,36.963c8.274,3.428 16.301,5.695 25.033,7.633l-0,8.334l8.333,-0l-0,8.333c7.146,6.618 7.146,6.618 16.146,13.021c2.997,2.245 5.994,4.49 9.082,6.803c7.673,5.923 7.673,5.923 16.439,5.176l-0,8.333c8.305,5.597 16.641,11.15 25,16.667c2.75,4.125 5.5,8.25 8.333,12.5l8.333,0l0,12.5l8.334,0c1.074,3.534 2.148,7.068 3.255,10.71c5.385,15.155 12.181,28.705 19.661,42.936c10.691,20.724 18.774,40.007 22.917,63.021l8.333,-0c0.95,8.545 1.899,17.09 2.849,25.634c0.563,7.747 0.563,7.747 5.485,11.866c0.898,6.953 1.546,13.94 2.083,20.931c0.344,4.254 0.687,8.507 1.042,12.89c0.343,4.48 0.687,8.959 1.041,13.574c0.681,8.802 1.374,17.602 2.084,26.4c0.3,3.923 0.601,7.846 0.911,11.888c0.885,10.716 0.885,10.716 5.339,22.65c0.737,8.056 1.311,16.127 1.79,24.202c7.3,101.786 26.769,203.472 85.71,288.298c18.607,27.198 18.607,27.198 20.833,41.667l8.333,-0c4.167,8.333 8.334,16.666 12.5,25l8.334,-0c0.945,2.406 1.89,4.812 2.864,7.291c6.921,11.864 15.116,18.211 26.302,26.042l8.334,-0l-0,8.333c7.158,5.694 7.158,5.694 16.145,10.938c2.998,1.858 5.995,3.717 9.083,5.631c7.808,4.911 7.808,4.911 16.438,4.265l0,8.333c12.109,5.236 19.984,8.333 33.334,8.333l-0,8.334c29.032,15.977 58.272,24.722 90.364,32.291c3.71,0.877 7.42,1.753 11.242,2.656c103.561,23.539 213.234,12.744 315.06,-14.114l0,-8.333c4.383,0.172 8.766,0.343 13.282,0.52c14.802,-0.485 23.588,-2.487 36.718,-8.854l0,-8.333c3.438,-1.117 6.875,-2.234 10.417,-3.385c16.121,-5.47 32,-11.411 47.917,-17.448l-0,-8.334l8.333,0l-0,-8.333c5.93,-1.934 5.93,-1.934 11.979,-3.906c12.441,-3.902 12.441,-3.902 21.354,-8.594l0,-8.333c2.235,-1.032 4.469,-2.063 6.771,-3.125c19.462,-10.243 37.088,-21.84 51.563,-38.542l-0,-8.333l12.5,-0c10.331,-9.286 10.331,-9.286 20.833,-20.834c3.867,-3.695 7.734,-7.39 11.719,-11.198c10.069,-8.433 10.069,-8.433 9.114,-17.968l8.334,-0c5.933,-7.147 11.526,-14.579 16.927,-22.136c2.97,-4.109 5.94,-8.218 9,-12.451c7.904,-10.952 7.904,-10.952 11.573,-23.747l8.333,0c6.334,-9.392 6.334,-9.392 12.5,-20.833c2.32,-3.609 4.641,-7.219 7.031,-10.938c6.477,-9.834 6.477,-9.834 5.469,-22.395l8.333,-0c1.816,-3.825 3.631,-7.649 5.502,-11.589c22.454,-46.514 22.454,-46.514 37.207,-64.713c16.852,-20.999 26.592,-46.484 23.958,-73.698l8.333,-0c15.619,-46.957 28.993,-92.849 37.5,-141.667c1.136,-5.793 1.136,-5.793 2.295,-11.702c16.299,-83.734 19.38,-168.074 19.54,-253.137c0.04,-12.934 0.17,-25.865 0.301,-38.799c0.352,-66.836 -5.041,-131.596 -22.136,-196.362l-8.333,-0c-0.773,-4.813 -1.547,-9.625 -2.344,-14.583c-6.818,-31.465 -21.795,-60.469 -35.156,-89.584l-8.333,0c-1.032,-3.609 -2.063,-7.218 -3.125,-10.937c-8.447,-22.806 -21.258,-38.986 -38.542,-55.729c-3.867,-5.028 -3.867,-5.028 -7.813,-10.157c-10.386,-12.524 -20.904,-21.657 -33.854,-31.51l-8.333,-0c-0.945,-2.406 -1.891,-4.813 -2.865,-7.292c-8.837,-15.15 -20.574,-23.946 -36.979,-29.948c-10.156,-4.427 -10.156,-4.427 -17.269,-14.095c-11.374,-13.292 -23.829,-19.993 -39.241,-27.571c-5.647,-2.877 -11.29,-5.763 -16.927,-8.659c-2.734,-1.399 -5.468,-2.798 -8.285,-4.24c-9.972,-5.285 -19.444,-11.24 -28.955,-17.31c-36.45,-22.255 -78.454,-34.022 -118.538,-48.112c-13.856,-5.118 -27.308,-10.809 -40.837,-16.731c-19.348,-8.274 -35.804,-12.332 -56.771,-13.542l0,-8.333c-2.541,-0.714 -5.083,-1.428 -7.701,-2.163c-11.586,-3.26 -23.166,-6.538 -34.747,-9.817c-3.998,-1.122 -7.997,-2.245 -12.117,-3.401c-3.881,-1.101 -7.761,-2.202 -11.76,-3.337c-3.556,-1.004 -7.113,-2.007 -10.777,-3.041c-10.398,-3.241 -10.398,-3.241 -21.132,-7.616c-14.481,-5.677 -29.432,-7.44 -44.734,-9.688c-30.646,-4.77 -60.28,-11.301 -90.202,-19.417c-17.498,-4.457 -35.202,-7.265 -53.019,-10.131c-14.523,-2.337 -29.019,-4.804 -43.514,-7.301c-5.084,-0.875 -10.168,-1.751 -15.406,-2.653c-5.137,-0.886 -10.275,-1.772 -15.568,-2.685c-5.153,-0.887 -10.307,-1.773 -15.617,-2.686c-5.078,-0.875 -10.156,-1.751 -15.389,-2.653c-7.448,-1.281 -7.448,-1.281 -15.048,-2.589c-12.543,-2.214 -25.036,-4.606 -37.54,-7.03c-24.613,-4.508 -49.281,-6.433 -74.218,-8.219c-8.763,-0.644 -17.525,-1.3 -26.286,-1.97c-5.716,-0.411 -5.716,-0.411 -11.547,-0.831c-10.344,-1.106 -10.344,-1.106 -18.135,-3.157c-9.418,-2.244 -18.24,-3.113 -27.899,-3.736c-5.752,-0.375 -5.752,-0.375 -11.62,-0.757c-6.327,-0.378 -6.327,-0.378 -12.781,-0.764c-4.528,-0.272 -9.056,-0.545 -13.72,-0.825c-123.609,-7.18 -246.951,-9.813 -370.758,-9.831c-11.764,-0.004 -23.528,-0.024 -35.292,-0.046c-78.822,-0.114 -157.434,0.767 -236.139,5.331Z" style="fill:#a7daed;fill-rule:nonzero;"/><path d="M2454.17,975c6.195,0.452 12.391,0.903 18.587,1.353c187.683,13.84 378.391,33.789 560.579,81.98c8.018,2.017 16.037,4.034 24.06,6.028c5.49,1.364 10.978,2.736 16.464,4.115c15.388,3.87 30.793,7.646 46.228,11.325c44.202,10.634 87.157,23.248 130.082,38.217c11.522,3.972 23.129,7.673 34.729,11.409c20.953,6.975 41.222,15.183 61.523,23.861c10.671,4.519 21.405,8.72 32.227,12.858c24.627,9.803 48.074,21.918 71.659,33.958c8.343,4.222 16.724,8.359 25.118,12.477c31.292,15.38 61.732,31.283 91.244,49.919c3.421,2.068 6.842,4.136 10.368,6.266c118.64,72.942 216.337,168.559 289.371,286.963c1.869,3.019 3.738,6.038 5.663,9.148c9.345,15.466 16.709,30.106 22.885,47.102c4.482,10.381 6.887,15.803 16.664,21.625c9.206,2.924 18.194,4.824 27.705,6.5c6.787,1.558 13.564,3.164 20.329,4.818c4.988,1.216 4.988,1.216 10.077,2.458c59.934,16.64 112.316,66.379 142.771,119.287c26.504,50.539 37.984,99.956 38.304,156.703c0.034,3.42 0.068,6.84 0.103,10.364c0.103,11.227 0.172,22.454 0.232,33.681c0.034,5.813 0.034,5.813 0.068,11.743c0.111,20.538 0.191,41.076 0.252,61.613c0.055,16.843 0.171,33.684 0.342,50.525c0.207,20.491 0.308,40.979 0.338,61.47c0.027,7.73 0.09,15.46 0.191,23.19c1.069,86.775 -17.724,175.816 -80.195,240.483c-40.018,35.556 -85.488,62.789 -139.323,70.019c-8.424,1.336 -8.424,1.336 -16.145,5.209c-4.228,7.505 -4.228,7.505 -6.446,16.764c-1.002,3.392 -2.004,6.784 -3.037,10.278c-0.996,3.451 -1.991,6.902 -3.017,10.458c-47.337,140.86 -122.07,276.129 -223.568,385.302c-8.503,9.169 -16.73,18.489 -24.87,27.979c-28.316,32.399 -59.359,60.227 -93.229,86.719c-2.428,1.913 -4.857,3.827 -7.359,5.798c-72.936,57.164 -149.293,99.139 -234.308,135.868c-4.914,2.186 -9.829,4.372 -14.892,6.625c-190.615,79.656 -436.434,72.587 -626.254,-4.021c-84.877,-35.775 -158.357,-85.563 -225.52,-148.437c-2.08,-1.915 -4.159,-3.831 -6.301,-5.804c-36.388,-33.743 -65.233,-70.268 -92.721,-111.524c-4.306,-6.421 -8.754,-12.748 -13.234,-19.049c-13.034,-18.456 -21.971,-36.667 -29.59,-57.959c-3.775,-10.105 -3.775,-10.105 -10.059,-19.596c-7.748,-13.339 -12.133,-26.595 -16.845,-41.276c-0.896,-2.76 -1.792,-5.52 -2.715,-8.364c-2.587,-7.97 -5.145,-15.949 -7.702,-23.928c-2.331,-7.122 -4.672,-14.241 -7.031,-21.354c-0.876,-2.675 -1.751,-5.35 -2.653,-8.106c-2.792,-8.285 -2.792,-8.285 -6.736,-17.058c-5.207,-13.94 -8.181,-27.654 -11.168,-42.235c-0.602,-2.938 -1.205,-5.875 -1.826,-8.902c-1.943,-9.544 -3.847,-19.094 -5.742,-28.647c-0.651,-3.262 -1.302,-6.524 -1.973,-9.884c-12.911,-65.025 -24.199,-130.273 -26.612,-196.644c-1.106,-29.505 -3.828,-52.703 -23.759,-75.503c-21.736,-18.566 -42.231,-19.542 -70.426,-18.474c-19.299,2.702 -29.584,7.855 -42.074,22.64c-17.103,30.239 -19.947,61.989 -22.311,96.081c-1.041,14.791 -2.327,29.561 -3.617,44.333c-0.255,2.951 -0.511,5.902 -0.774,8.942c-3.795,42.295 -10.941,83.999 -19.131,125.644c-0.627,3.221 -1.254,6.442 -1.901,9.76c-31.36,156.56 -107.026,297.991 -218.933,411.074c-3.571,3.673 -7.143,7.347 -10.823,11.132c-67.411,65.381 -157.742,116.169 -247.04,144.334c-8.452,2.753 -16.606,5.919 -24.852,9.231c-196.33,74.412 -439.82,41.02 -626.247,-42.564c-56.244,-25.9 -108.702,-55.086 -157.704,-92.967c-4.939,-3.698 -4.939,-3.698 -9.978,-7.47c-9.319,-7.069 -18.441,-14.324 -27.522,-21.696c-4.098,-3.325 -8.197,-6.65 -12.419,-10.075c-49.504,-40.732 -94.089,-85.036 -133.415,-135.759c-3.509,-4.476 -7.02,-8.952 -10.53,-13.427c-50.989,-65.333 -93.001,-133.969 -131.136,-207.406c-2.229,-4.141 -4.458,-8.282 -6.755,-12.549c-16.996,-32.358 -29.029,-65.844 -40.603,-100.417c-2.277,-6.78 -4.626,-13.535 -6.988,-20.286c-4.523,-13.017 -8.154,-23.698 -8.154,-37.581c-4.238,-0.613 -4.238,-0.613 -8.562,-1.237c-48.003,-7.713 -84.993,-25.141 -124.772,-52.93c-2.658,-1.826 -5.317,-3.652 -8.056,-5.534c-57.447,-44.047 -84.754,-120.369 -94.987,-189.258c-3.489,-29.121 -2.811,-58.53 -2.637,-87.809c0.002,-7.342 -0,-14.683 -0.006,-22.025c0,-15.264 0.043,-30.527 0.119,-45.79c0.095,-19.415 0.097,-38.828 0.069,-58.242c-0.014,-15.118 0.013,-30.236 0.054,-45.354c0.016,-7.154 0.021,-14.308 0.015,-21.462c-0.015,-91.987 13.353,-181.869 79.388,-251.089c35.56,-33.012 87.354,-73.51 138.537,-73.423c9.503,-0.033 16.16,-0.611 25.004,-4.181c10.565,-12.573 16.994,-26.875 23.959,-41.666c4.273,-8.422 8.581,-16.826 12.923,-25.212c3.249,-6.289 3.249,-6.289 6.563,-12.705c26.005,-47.934 60.864,-89.376 98.222,-128.75c4.378,-5.176 8.724,-10.381 13.021,-15.625c13.577,-16.018 29.332,-29.163 45.312,-42.708c5.124,-4.599 10.245,-9.2 15.365,-13.802c116.826,-101.325 261.357,-173.451 407.243,-222.738c12.153,-4.184 23.901,-8.71 35.726,-13.721c41.882,-17.108 86.666,-28.126 130.563,-38.683c17.005,-4.107 33.85,-8.573 50.67,-13.384c88.312,-24.801 178.166,-38.382 268.767,-51.839c4.814,-0.717 4.814,-0.717 9.725,-1.448c50.802,-7.542 101.432,-14.947 152.707,-18.33c13.08,-1.098 25.906,-2.917 38.87,-4.962c43.84,-6.412 87.834,-9.822 132.031,-12.76c2.843,-0.192 5.685,-0.383 8.614,-0.58c213.704,-14.21 431.937,-15.53 645.553,0.58Zm-676.746,124.297c-9.209,0.602 -18.418,1.18 -27.629,1.747c-65.101,4.24 -129.724,12.983 -194.323,21.873c-9.815,1.341 -19.63,2.68 -29.445,4.018c-6.379,0.871 -12.757,1.746 -19.135,2.624c-15.41,2.119 -30.823,4.184 -46.255,6.134c-2.908,0.372 -5.816,0.744 -8.812,1.127c-7.918,1.008 -15.838,1.996 -23.759,2.983c-11.005,0.661 -11.005,0.661 -15.563,6.03c-6.305,1.386 -12.66,2.549 -19.027,3.614c-3.967,0.673 -7.935,1.346 -12.023,2.04c-6.415,1.069 -6.415,1.069 -12.96,2.159c-8.844,1.517 -17.687,3.036 -26.53,4.557c-14.512,2.476 -29.028,4.911 -43.555,7.292c-34.225,5.903 -66.715,14.461 -99.846,24.768c-24.535,7.629 -49.176,14.366 -74.08,20.674c-23.643,6.043 -46.122,12.733 -68.555,22.478c-20.873,8.45 -42.673,14.391 -64.257,20.752l-0,8.333c-2.284,0.423 -4.568,0.847 -6.922,1.283c-23.88,4.81 -44.955,12.238 -67.037,22.415c-3.214,1.453 -6.428,2.906 -9.739,4.403c-28.362,12.992 -55.816,27.381 -82.969,42.732l-0,8.334c-3.438,0.257 -6.875,0.515 -10.417,0.781c-18.881,4.383 -31.994,13.527 -47.916,24.219c-6.945,4.166 -13.889,8.333 -20.834,12.5c-4.125,2.75 -8.25,5.5 -12.5,8.333l0,8.333c-3.657,1.01 -7.315,2.02 -11.084,3.06c-15.08,5.715 -24.348,12.55 -36.572,22.982c-3.932,3.335 -7.863,6.671 -11.914,10.107c-3.717,3.196 -7.434,6.392 -11.263,9.685c-3.115,2.551 -6.23,5.102 -9.44,7.731c-6.747,5.554 -13.267,11.383 -19.727,17.269l0,8.333c-3.351,1.289 -3.351,1.289 -6.771,2.604c-13.728,7.948 -24.869,18.43 -34.895,30.729l-0,8.334c-8.25,4.125 -8.25,4.125 -16.667,8.333l-0,8.333l-8.333,0c-6.022,7.232 -11.703,14.749 -17.188,22.396c-3.018,4.157 -6.037,8.315 -9.147,12.598c-7.752,9.856 -7.752,9.856 -6.999,19.173l-8.333,-0c-2.148,4.383 -4.297,8.766 -6.51,13.281c-10.431,21.05 -21.991,41.456 -33.529,61.914c-6.978,12.551 -6.978,12.551 -5.794,28.972l-8.334,-0c-2.062,4.297 -8.57,17.854 -9.765,20.345c-3.556,11.472 -3.14,21.887 -2.735,33.821c-5.373,0.306 -5.373,0.306 -10.856,0.619c-55.037,3.481 -100.114,6.698 -147.477,36.881l-0,8.334l-8.333,-0c-49.491,53.167 -51.361,114.057 -51.547,182.975c-0.037,7.254 -0.075,14.508 -0.114,21.762c-0.068,15.165 -0.1,30.328 -0.112,45.493c-0.023,19.247 -0.18,38.49 -0.37,57.736c-0.125,14.979 -0.154,29.957 -0.158,44.937c-0.018,7.086 -0.069,14.171 -0.157,21.256c-0.706,61.733 5.189,120.334 50.065,167.035c26.166,21.481 49.823,33.083 83.122,39.274c3.46,0.689 6.921,1.378 10.487,2.088c24.092,4.555 46.737,6.553 71.284,4.944c0.343,4.211 0.687,8.422 1.041,12.76c3.523,28.33 12.076,55.661 19.792,83.073c1.085,4.001 2.17,8.003 3.288,12.126c5.456,19.396 12.315,36.391 21.777,54.15c7.567,16.094 11.969,33.263 16.602,50.391l8.333,-0c0.945,4.039 1.891,8.078 2.865,12.239c5.707,19.878 15.779,36.744 26.302,54.427c2.989,5.044 2.989,5.044 6.038,10.189c4.143,6.937 8.31,13.86 12.5,20.768c4.496,7.453 8.93,14.943 13.314,22.461c3.311,5.656 3.311,5.656 6.689,11.426c1.998,3.443 3.996,6.886 6.055,10.433c4.822,8.623 4.822,8.623 13.737,12.223c2.778,6.945 5.556,13.889 8.333,20.834c2.75,1.375 5.5,2.75 8.334,4.166c1.761,3.003 3.523,6.005 5.338,9.099c8.489,13.91 18.924,25.235 30.078,36.995c21.674,23.024 21.674,23.024 30.078,34.619c1.762,2.24 3.524,4.48 5.339,6.787l8.333,0c1.032,2.407 2.063,4.813 3.125,7.292c5.971,10.747 12.643,17.963 21.875,26.042l8.334,-0l-0,8.333c6.301,5.543 12.861,10.793 19.531,15.885c15.414,11.984 29.163,24.476 42.969,38.282c13.486,9.712 13.486,9.712 29.166,12.5l0,8.333c19.695,15.592 39.933,26.719 62.5,37.5c7.903,3.986 15.802,7.979 23.698,11.979c40.029,19.939 78.882,38.862 122.136,50.521c5.591,1.682 11.179,3.376 16.764,5.078c6.304,1.869 12.608,3.735 18.913,5.599c2.821,0.876 5.641,1.752 8.548,2.654c58.341,16.82 120.25,17.545 180.514,17.398c3.521,-0.002 7.042,-0.004 10.67,-0.007c89.099,-0.262 172.698,-10.835 256.257,-43.222l0,-8.333c2.944,-0.5 5.887,-0.999 8.92,-1.514c32.677,-7.276 62.622,-22.479 89.778,-41.748c15.131,-10.581 30.996,-19.988 46.761,-29.59c2.874,-2.084 5.747,-4.168 8.708,-6.315l0,-8.333c2.492,-1.118 4.984,-2.235 7.552,-3.386c9.108,-4.944 15.004,-9.514 21.615,-17.448l-0,-8.333l8.333,0l0,-12.5c3.48,-0.387 3.48,-0.387 7.031,-0.781c35.714,-12.548 59.868,-62.095 77.865,-92.969c2.381,-4.07 4.762,-8.139 7.215,-12.332c35.622,-58.652 35.622,-58.652 56.278,-123.378c2.076,-10.361 6.476,-19.385 10.854,-28.953c31.82,-80.634 38.858,-175.532 46.925,-261.298c7.226,-73.408 25.898,-137.259 84.197,-185.497c49.295,-34.236 108.961,-34.038 166.455,-26.009c46.582,10.378 86.956,34.621 114.795,73.665c29.675,47.322 35.59,100.468 40.625,155.001c4.678,50.337 11.797,99.767 21.093,149.426c0.524,2.844 1.047,5.689 1.586,8.62c5.56,30.003 11.958,57.902 23.414,86.172c1.868,7.588 3.56,15.226 4.948,22.916c0.991,5.35 0.991,5.35 2.002,10.808c0.457,2.621 0.913,5.242 1.384,7.942l8.333,0c-0.258,2.922 -0.516,5.844 -0.781,8.854c0.963,14.773 6.375,23.996 13.281,36.98c2.865,9.895 2.865,9.895 4.167,16.666l8.333,0c1.031,3.438 2.063,6.875 3.125,10.417c7.708,21.583 17.497,41.35 30.208,60.417l8.334,-0c1.522,4.471 1.522,4.471 3.076,9.033c5.951,13.359 13.301,22.751 22.705,33.935c3.357,3.997 6.714,7.993 10.172,12.11c3.261,3.824 6.521,7.648 9.88,11.588c2.616,3.137 5.231,6.274 7.926,9.506c13.761,16.225 28.045,30.392 44.646,43.717c5.761,5.111 5.761,5.111 9.928,13.444c4.125,1.375 8.25,2.75 12.5,4.167c1.375,2.75 2.75,5.5 4.167,8.333l16.666,-0c1.375,4.125 2.75,8.25 4.167,12.5c6.875,1.375 13.75,2.75 20.833,4.167l0,8.333c19.005,15.607 41.737,24.81 64.502,33.447c13.192,5.093 25.985,10.919 38.819,16.846c22.331,9.423 45.816,15.903 69.075,22.624c2.906,0.886 5.812,1.772 8.806,2.685c56.944,16.313 115.511,17.494 174.267,17.106c5.049,-0.015 5.049,-0.015 10.199,-0.03c59.504,-0.211 118.568,-0.506 175.999,-17.678c14.028,-3.619 28.115,-7.006 42.196,-10.417c16.79,-4.129 33.149,-8.879 49.471,-14.583l-0,-8.333c3.609,-0.516 7.218,-1.032 10.937,-1.563c13.626,-2.523 26.032,-6.283 39.063,-10.937l-0,-8.334c8.25,-1.375 16.5,-2.75 25,-4.166l-0,-8.334c2.415,-0.51 4.831,-1.02 7.32,-1.545c9.586,-2.689 16.935,-6.294 25.557,-11.231c2.954,-1.679 5.908,-3.357 8.952,-5.087c3.04,-1.753 6.08,-3.507 9.212,-5.314c3.105,-1.77 6.209,-3.539 9.408,-5.363c7.638,-4.357 15.262,-8.74 22.884,-13.126l0,-8.334c3.008,-1.031 6.016,-2.062 9.115,-3.125c12.762,-5.672 21.774,-13.082 32.552,-21.875c4.125,-1.375 8.25,-2.75 12.5,-4.166c4.898,-4.758 9.772,-9.545 14.485,-14.486c7.419,-7.419 15.287,-14.131 23.275,-20.931c12.621,-10.886 22.925,-22.146 33.073,-35.417c2.75,-1.375 5.5,-2.75 8.333,-4.166l0,-8.334l8.334,0c5.552,-6.202 10.8,-12.679 15.885,-19.271c2.965,-3.791 5.93,-7.583 8.984,-11.49c4.19,-5.398 4.19,-5.398 8.464,-10.905c10.346,-13.038 19.307,-23.983 33.333,-33.334l0,-8.333l8.334,-0c1.079,-3.002 2.159,-6.005 3.271,-9.098c5.286,-12.254 11.606,-22.006 19.385,-32.829c2.487,-3.486 4.974,-6.972 7.536,-10.563c4.676,-6.405 9.422,-12.758 14.258,-19.043c5.965,-7.524 5.965,-7.524 9.196,-17.009c4.26,-10.415 9.046,-18.702 15.104,-28.125c7.854,-12.26 13.451,-23.921 18.75,-37.5c3.105,-5.22 6.234,-10.426 9.375,-15.625c12.084,-21.245 19.557,-43.628 27.417,-66.665c8.346,-24.413 17.252,-48.467 29.907,-71.03c5.584,-12.399 8.096,-24.792 10.905,-38.086c1.627,-7.533 1.627,-7.533 3.288,-15.218c3.029,-15.228 3.029,-15.228 2.441,-35.042l54.167,-0l-0,-8.334c4.64,0.344 9.281,0.688 14.062,1.042c41.759,-0.147 81.467,-25.737 110.156,-54.427c24.523,-35.732 35.412,-74.52 35.259,-117.704c0.022,-3.176 0.043,-6.352 0.065,-9.624c0.057,-10.4 0.054,-20.8 0.044,-31.201c0.016,-7.306 0.035,-14.612 0.054,-21.918c0.031,-15.284 0.03,-30.567 0.008,-45.851c-0.024,-19.463 0.047,-38.924 0.143,-58.387c0.062,-15.085 0.065,-30.171 0.052,-45.256c0.003,-7.169 0.024,-14.338 0.066,-21.507c0.341,-65.803 -6.579,-125.102 -52.406,-176.14c-29.533,-25.689 -69.554,-36.03 -107.503,-40.381c-4.286,-0.54 -4.286,-0.54 -8.659,-1.09c-16.651,-2.002 -32.911,-2.922 -49.675,-2.556c0.172,-2.975 0.344,-5.951 0.521,-9.017c-1.685,-38.229 -28.799,-76.848 -46.907,-109.961c-7.043,-12.995 -13.752,-26.096 -20.28,-39.355l-8.334,-0c-1.117,-2.385 -2.234,-4.77 -3.385,-7.227c-5.12,-9.768 -10.886,-18.29 -17.448,-27.148c-2.148,-2.943 -4.297,-5.887 -6.51,-8.919c-1.977,-2.213 -3.954,-4.426 -5.99,-6.706l-8.333,-0c-0.946,-2.256 -1.891,-4.512 -2.865,-6.836c-7.189,-12.924 -16.356,-22.86 -26.302,-33.789c-1.88,-2.111 -3.76,-4.222 -5.697,-6.396c-4.86,-5.335 -9.981,-10.429 -15.136,-15.479l-8.334,0c-1.031,-2.492 -2.062,-4.984 -3.125,-7.552c-5.961,-10.432 -11.746,-15.284 -21.875,-21.615l-8.333,0l0,-8.333c-6.878,-4.275 -13.832,-8.43 -20.833,-12.5c-4.251,-4.081 -8.423,-8.246 -12.5,-12.5c-11.12,-9.906 -11.12,-9.906 -25,-12.5l-0,-8.333c-25.492,-14.351 -25.492,-14.351 -51.563,-27.605c-10.937,-5.729 -10.937,-5.729 -16.956,-11.841c-10.856,-10.7 -24.918,-16.24 -38.513,-22.794c-5.745,-2.816 -11.49,-5.631 -17.236,-8.447c-4.317,-2.097 -4.317,-2.097 -8.722,-4.236c-8.554,-4.184 -17.057,-8.461 -25.555,-12.756c-66.839,-33.473 -136.345,-59.542 -208.467,-78.973c-3.565,-0.972 -7.131,-1.943 -10.804,-2.945c-4.764,-1.267 -4.764,-1.267 -9.624,-2.559c-8.394,-2.844 -8.394,-2.844 -20.894,-11.178c-7.386,-2.236 -14.856,-4.201 -22.363,-5.989c-4.377,-1.064 -8.755,-2.127 -13.265,-3.223c-4.571,-1.085 -9.142,-2.17 -13.851,-3.288c-9.02,-2.156 -18.037,-4.326 -27.051,-6.51c-6.001,-1.426 -6.001,-1.426 -12.123,-2.881c-11.347,-3.109 -11.347,-3.109 -21.982,-7.38c-10.114,-4.029 -19.488,-6.36 -30.169,-8.375c-3.655,-0.706 -7.31,-1.413 -11.076,-2.14c-3.762,-0.707 -7.524,-1.413 -11.401,-2.141c-7.527,-1.427 -15.052,-2.864 -22.575,-4.313c-3.315,-0.623 -6.63,-1.247 -10.045,-1.889c-8.265,-1.871 -8.265,-1.871 -16.599,-6.037c-11.972,-1.889 -23.926,-3.602 -35.937,-5.209c-25.971,-3.528 -51.85,-7.253 -77.653,-11.865c-188.295,-32.959 -382.974,-46.171 -573.91,-49.593c-4.462,-0.081 -8.924,-0.163 -13.521,-0.247c-147.852,-2.542 -294.856,2.359 -442.391,12.044Z" style="fill:#fbfbfb;fill-rule:nonzero;"/><path d="M450,1750c0.9,18.901 -2.365,32.206 -8.333,50c-22.077,106.137 -18.834,215.228 -16.851,322.964c0.16,9.041 0.29,18.082 0.398,27.123c0.894,64.896 9.191,128.173 19.156,192.209c1.363,11.055 1.738,21.582 1.463,32.704c-55.034,2.228 -106.647,-0.317 -150,-37.5c-2.959,-2.514 -5.919,-5.027 -8.968,-7.617c-35.654,-34.791 -46.607,-85.567 -47.762,-133.924c-0.157,-13.436 -0.053,-26.859 0.09,-40.295c0.007,-7.258 0.007,-14.517 -0.001,-21.775c0.007,-15.086 0.084,-30.169 0.216,-45.254c0.166,-19.2 0.184,-38.398 0.153,-57.599c-0.013,-14.943 0.038,-29.885 0.108,-44.827c0.029,-7.076 0.043,-14.152 0.039,-21.228c0.049,-63.94 6.095,-124.288 51.959,-173.314l8.333,-0l0,-8.334c48.177,-30.702 93.8,-35.156 150,-33.333Z" style="fill:#6db5cd;fill-rule:nonzero;"/><path d="M3812.5,1750c50.614,-1.428 91.233,4.22 137.5,25c2.847,1.235 5.693,2.471 8.626,3.743c33.065,18.875 50.57,57.582 60.467,92.62c8.408,34.662 7.796,69.083 7.714,104.532c0.019,7.272 0.041,14.545 0.066,21.817c0.037,15.167 0.027,30.333 -0.014,45.5c-0.048,19.294 0.036,38.585 0.158,57.879c0.076,14.997 0.075,29.993 0.051,44.989c-0.001,7.108 0.024,14.215 0.076,21.323c0.325,51.431 -1.909,103.137 -35.477,145.097c-2.235,3.438 -4.469,6.875 -6.771,10.417c-30.174,31.762 -74.877,49.871 -118.229,52.083c-16.675,0.288 -33.325,0.208 -50,0c0.502,-3.218 1.003,-6.437 1.52,-9.752c19.109,-115.426 19.109,-115.426 27.646,-231.915c0.086,-4.653 0.171,-9.306 0.259,-14.101c1.787,-116.361 -2.555,-233.245 -31.297,-346.592c-2.295,-10.14 -2.295,-10.14 -2.295,-22.64Z" style="fill:#6cb5cd;fill-rule:nonzero;"/><path d="M2266.67,1091.67c43.476,-0.323 86.78,0.227 130.208,2.604c3.032,0.165 6.064,0.33 9.188,0.501c155.421,8.794 311.119,24.36 464.181,52.959c11.688,2.026 23.267,3.587 35.062,4.808c14.37,1.506 23.235,4.519 36.361,9.961c13.822,3.145 27.723,5.788 41.666,8.333l0,4.167c-25.007,0.909 -46.634,-2.06 -70.833,-8.333l0,-8.334c-4.326,0.145 -4.326,0.145 -8.74,0.293c-35.379,0.653 -68.866,-3.287 -103.76,-8.626l0,-8.333c-3.932,-0.204 -7.863,-0.409 -11.914,-0.619c-8.024,-0.467 -8.024,-0.467 -16.211,-0.944c-5.221,-0.29 -10.441,-0.58 -15.82,-0.879c-14.16,-1.067 -27.889,-3.266 -41.862,-5.778c-29.27,-5.07 -58.525,-6.946 -88.151,-8.707c-90.211,-5.575 -90.211,-5.575 -96.875,-12.24c-6.995,-0.78 -14.02,-1.288 -21.047,-1.687c-6.741,-0.395 -6.741,-0.395 -13.617,-0.798c-4.9,-0.265 -9.8,-0.53 -14.848,-0.803c-7.517,-0.422 -7.517,-0.422 -15.186,-0.853c-10.641,-0.591 -21.283,-1.171 -31.925,-1.743c-16.243,-0.878 -32.483,-1.808 -48.722,-2.742c-10.33,-0.568 -20.66,-1.132 -30.99,-1.693c-7.274,-0.423 -7.274,-0.423 -14.694,-0.854c-23.148,-1.201 -44.522,-1.643 -67.305,2.84c-1.375,-4.125 -2.75,-8.25 -4.166,-12.5Z" style="fill:#b8dae6;fill-rule:nonzero;"/><path d="M3995.83,1825c26.398,30.169 29.796,69.681 29.772,108.173c0.021,4.842 0.021,4.842 0.043,9.782c0.039,10.606 0.047,21.211 0.052,31.817c0.013,7.398 0.027,14.796 0.042,22.193c0.025,15.474 0.033,30.947 0.03,46.421c-0,19.83 0.057,39.66 0.128,59.49c0.047,15.263 0.055,30.526 0.053,45.789c0.005,7.313 0.023,14.626 0.055,21.938c0.041,10.213 0.029,20.424 0.004,30.636c0.024,3.018 0.047,6.035 0.071,9.145c-0.096,15.284 -0.991,26.624 -9.416,39.616c-4.764,-15.165 -4.641,-29.344 -4.574,-45.172c0.006,-2.835 0.012,-5.67 0.019,-8.59c0.015,-6.148 0.041,-12.295 0.075,-18.443c0.053,-9.783 0.08,-19.567 0.1,-29.351c0.056,-24.336 0.156,-48.672 0.256,-73.008c0.083,-20.521 0.148,-41.042 0.19,-61.563c0.027,-9.539 0.079,-19.079 0.132,-28.618c1.288,-73.418 1.288,-73.418 -17.032,-143.588l0,-16.667Z" style="fill:#8ec1cd;fill-rule:nonzero;"/><path d="M1500,3062.5c4.125,4.125 4.125,4.125 8.333,8.333c-32.071,11.461 -63.483,20.689 -97.135,26.042c-4.444,0.708 -8.888,1.415 -13.466,2.144c-69.481,9.639 -140.274,6.55 -210.232,5.148c1.375,-2.75 2.75,-5.5 4.167,-8.334c6.43,0.033 6.43,0.033 12.99,0.066c15.981,0.076 31.962,0.124 47.943,0.163c6.903,0.021 13.805,0.049 20.707,0.086c9.95,0.05 19.9,0.074 29.851,0.092c4.591,0.032 4.591,0.032 9.275,0.065c17.165,0.002 33.215,-1.452 50.067,-4.638c6.766,-0.259 13.542,-0.363 20.312,-0.261c3.255,0.038 6.51,0.075 9.864,0.114c2.417,0.049 4.834,0.097 7.324,0.147l-0,-8.334c14.502,-6.848 22.27,-9.571 37.5,-4.166c3.094,0.773 14.187,3.547 16.667,4.166l-0,-8.333c15.125,-4.125 30.25,-8.25 45.833,-12.5Z" style="fill:#b6dae6;fill-rule:nonzero;"/><path d="M258.333,1841.67c-0.884,3.317 -1.769,6.635 -2.681,10.053c-10.272,42.283 -11.591,81.994 -11.332,125.282c0.002,7.28 -0,14.56 -0.007,21.841c0.001,15.152 0.044,30.303 0.12,45.455c0.094,19.304 0.096,38.606 0.068,57.91c-0.014,14.996 0.014,29.991 0.055,44.988c0.016,7.114 0.021,14.228 0.014,21.342c-0.006,37.575 0.732,73.863 9.597,110.629c-4.125,2.062 -4.125,2.062 -8.334,4.166c-10.804,-16.205 -9.671,-33.453 -9.794,-52.203c-0.055,-3.579 -0.11,-7.158 -0.167,-10.846c-0.171,-11.829 -0.283,-23.657 -0.39,-35.486c-0.099,-8.23 -0.201,-16.461 -0.305,-24.691c-0.208,-17.254 -0.386,-34.507 -0.544,-51.761c-0.204,-22.092 -0.484,-44.181 -0.786,-66.271c-0.224,-17 -0.407,-34 -0.578,-51.001c-0.087,-8.144 -0.187,-16.287 -0.3,-24.43c-0.152,-11.399 -0.249,-22.796 -0.331,-34.196c-0.056,-3.351 -0.112,-6.703 -0.17,-10.156c-0.07,-18.955 2.423,-33.5 9.199,-51.459l-0,-11.458c-0,-12.695 3.602,-17.708 16.666,-17.708Z" style="fill:#e7fcfe;fill-rule:nonzero;"/><path d="M820.833,1341.67c-2.343,7.552 -2.343,7.552 -8.333,16.666c-9.629,4.377 -19.358,8.542 -29.167,12.5c-2.148,2.149 -4.297,4.297 -6.51,6.511c-5.99,5.989 -5.99,5.989 -18.75,10.156c-13.415,3.181 -13.415,3.181 -20.573,16.667l-16.667,-0c-1.117,2.492 -2.234,4.984 -3.385,7.552c-9.351,17.225 -23.923,26.416 -39.86,37.109c-7.923,5.697 -7.923,5.697 -15.088,17.839c-2.75,-1.375 -5.5,-2.75 -8.333,-4.167c-4.125,-1.375 -8.25,-2.75 -12.5,-4.167c8.395,-7.322 16.818,-14.607 25.26,-21.875c2.339,-2.046 4.678,-4.092 7.088,-6.201c40.161,-34.424 40.161,-34.424 59.318,-34.424l0,-8.333c16.181,-15.169 34.387,-23.927 54.167,-33.333c4.641,-2.407 9.281,-4.813 14.063,-7.292c10.937,-5.208 10.937,-5.208 19.27,-5.208Z" style="fill:#badce9;fill-rule:nonzero;"/><path d="M3995.83,1820.83l8.334,0l-0,8.334l8.333,-0c10.723,21.542 18.302,37.977 16.667,62.5c0.669,3.724 1.339,7.448 2.029,11.286c2.373,15.226 2.465,29.447 2.228,44.856c-0.06,4.516 -0.06,4.516 -0.121,9.124c-0.137,9.875 -0.305,19.749 -0.474,29.623c-0.102,6.877 -0.201,13.754 -0.298,20.632c-0.261,18.042 -0.549,36.085 -0.843,54.127c-0.295,18.434 -0.565,36.868 -0.837,55.303c-0.536,36.128 -1.101,72.255 -1.684,108.382l-4.167,-0c-0.024,-3.961 -0.049,-7.921 -0.074,-12.002c-0.24,-37.511 -0.543,-75.021 -0.908,-112.532c-0.186,-19.279 -0.349,-38.559 -0.461,-57.839c-0.11,-18.642 -0.278,-37.283 -0.487,-55.924c-0.069,-7.076 -0.117,-14.152 -0.143,-21.228c-0.21,-51.403 -4.603,-97.519 -27.094,-144.642Z" style="fill:#edfefe;fill-rule:nonzero;"/><path d="M120.833,1854.17l4.167,-0c0.811,7.462 1.585,14.928 2.344,22.395c0.435,4.158 0.87,8.315 1.318,12.598c0.505,10.84 0.505,10.84 -3.662,19.173c-0.509,10.295 -0.773,20.48 -0.856,30.78c-0.041,3.171 -0.082,6.343 -0.125,9.61c-0.131,10.506 -0.234,21.012 -0.337,31.518c-0.086,7.275 -0.174,14.549 -0.263,21.824c-0.23,19.166 -0.436,38.332 -0.637,57.498c-0.209,19.55 -0.441,39.1 -0.671,58.65c-0.448,38.373 -0.871,76.747 -1.278,115.12l-4.166,0c-0.097,-43.285 -0.171,-86.569 -0.216,-129.854c-0.022,-20.103 -0.051,-40.205 -0.099,-60.307c-0.045,-19.425 -0.07,-38.849 -0.081,-58.274c-0.007,-7.385 -0.022,-14.77 -0.045,-22.156c-0.107,-36.475 -0.065,-72.328 4.607,-108.575Z" style="fill:#9f9f9f;fill-rule:nonzero;"/><path d="M1952.6,1272.66c2.944,0.218 5.887,0.435 8.919,0.659c7.272,0.541 14.541,1.11 21.81,1.685l0,4.167c-3.61,0.221 -3.61,0.221 -7.294,0.446c-25.078,1.538 -50.154,3.096 -75.23,4.665c-9.356,0.583 -18.712,1.161 -28.068,1.734c-13.457,0.824 -26.913,1.667 -40.368,2.513c-4.176,0.252 -8.352,0.504 -12.655,0.764c-3.919,0.25 -7.838,0.5 -11.876,0.757c-3.433,0.213 -6.865,0.426 -10.402,0.645c-10.461,1.027 -20.486,3.019 -30.773,5.142c-5.985,0.261 -11.98,0.362 -17.969,0.261c-7.606,-0.129 -7.606,-0.129 -15.365,-0.261l0,-4.166c16.749,-6.112 31.764,-9.652 49.528,-10.97c6.901,-0.524 6.901,-0.524 13.941,-1.058c7.126,-0.492 7.126,-0.492 14.396,-0.993c4.67,-0.36 9.34,-0.72 14.152,-1.091c26.167,-1.913 52.025,-2.859 78.26,-2.276c16.692,-0.524 31.276,-4.045 48.994,-2.623Z" style="fill:#add5e5;fill-rule:nonzero;"/><path d="M2341.67,2379.17l4.166,-0c2.015,15.622 4.004,31.248 5.99,46.875c0.561,4.35 1.122,8.701 1.701,13.183c3.391,26.797 6.054,53.515 7.887,80.465c0.077,9.328 0.077,9.328 5.256,13.643c0.98,9.791 1.724,19.607 2.343,29.427c0.35,5.377 0.699,10.753 1.058,16.293c0.253,4.162 0.505,8.325 0.765,12.614c-2.75,-1.375 -5.5,-2.75 -8.333,-4.167c-3.441,-12.204 -6.194,-24.034 -8.594,-36.458c-0.734,-3.78 -1.469,-7.559 -2.225,-11.454c-9.321,-52.95 -9.362,-106.793 -10.014,-160.421Z" style="fill:#b3d9e4;fill-rule:nonzero;"/><path d="M845.833,2970.83c10.157,3.386 10.157,3.386 20.834,8.334c1.375,4.125 2.75,8.25 4.166,12.5c8.314,4.122 8.314,4.122 18.23,6.771c3.297,0.999 6.595,1.998 9.993,3.027c3.062,0.891 6.123,1.783 9.277,2.702c4.125,1.375 8.25,2.75 12.5,4.166l0,8.334l16.667,-0l-0,8.333l12.5,-0l-0,8.333c4.254,0.645 4.254,0.645 8.594,1.302c14.861,3.479 27.499,9.093 41.406,15.365l-0,8.333c-32.974,-10.412 -64.323,-22.842 -94.271,-40.169c-15.163,-8.679 -30.71,-16.642 -46.208,-24.707c-9.521,-5.957 -9.521,-5.957 -17.854,-18.457c1.375,-1.375 2.75,-2.75 4.166,-4.167Z" style="fill:#bddee9;fill-rule:nonzero;"/><path d="M1708.33,2937.5l8.334,0c-5.355,11.946 -10.714,20.734 -20.834,29.167l-8.333,-0c-1.375,4.125 -2.75,8.25 -4.167,12.5c-9.212,5.832 -18.251,11.069 -27.864,16.146c-20.562,10.94 -37.959,22.582 -55.469,38.02c-2.75,-1.375 -5.5,-2.75 -8.333,-4.166c6.177,-16.962 15.125,-21.414 30.989,-29.167c16.444,-8.058 25.039,-14.436 35.677,-29.167c11.198,-1.041 11.198,-1.041 20.834,0c0.945,-2.578 1.89,-5.156 2.864,-7.812c7.049,-11.413 13.771,-13.23 26.302,-17.188l0,-8.333Z" style="fill:#b7dce7;fill-rule:nonzero;"/><path d="M3958.33,2329.17c4.125,1.375 8.25,2.75 12.5,4.166c-45.063,39.431 -96.107,43.52 -154.166,41.667c1.375,-13.75 2.75,-27.5 4.166,-41.667l4.167,0l0,33.334c26.72,-1.697 52.299,-5.903 78.385,-11.719c3.037,-0.638 6.074,-1.276 9.204,-1.933c19.344,-4.493 30.243,-11.019 45.744,-23.848Z" style="fill:#81b5c5;fill-rule:nonzero;"/><path d="M1728.38,1103.91c3.293,0.038 6.585,0.075 9.978,0.114c3.698,0.073 3.698,0.073 7.47,0.147c-1.375,4.125 -2.75,8.25 -4.166,12.5c-3.717,0.252 -7.434,0.505 -11.263,0.765c-7.316,0.523 -7.316,0.523 -14.779,1.058c-7.251,0.507 -7.251,0.507 -14.648,1.025c-12.732,0.892 -12.732,0.892 -21.875,3.499c-11.832,2.842 -23.203,2.698 -35.352,2.767c-4.684,0.059 -9.367,0.118 -14.193,0.179c-12.617,-0.94 -18.711,-3.377 -29.557,-9.293c2.542,-0.231 5.083,-0.462 7.702,-0.699c11.583,-1.058 23.164,-2.133 34.746,-3.208c3.999,-0.362 7.997,-0.725 12.117,-1.098c5.821,-0.544 5.821,-0.544 11.76,-1.099c3.557,-0.327 7.113,-0.654 10.778,-0.992c47.991,-5.714 47.991,-5.714 51.282,-5.665Z" style="fill:#b7dce8;fill-rule:nonzero;"/><path d="M1033.33,1250c-8.25,1.375 -16.5,2.75 -25,4.167c-1.375,4.125 -2.75,8.25 -4.166,12.5c-9.554,3.369 -9.554,3.369 -21.615,5.989c-19.576,4.825 -32.802,11.238 -49.219,23.177c-5.153,2.38 -10.365,4.637 -15.625,6.771c-13.617,4.762 -13.617,4.762 -21.875,14.063c-10.937,0.521 -10.937,0.521 -20.833,-0c4.167,-12.5 4.167,-12.5 12.695,-17.546c85.04,-36.621 85.04,-36.621 103.972,-36.621l-0,-8.333c26.19,-10.119 26.19,-10.119 41.666,-4.167Z" style="fill:#bddee9;fill-rule:nonzero;"/><path d="M1816.67,2800c2.75,1.375 5.5,2.75 8.333,4.167c-53.911,94.264 -53.911,94.264 -91.667,120.833c1.763,-20.561 10.672,-27.563 25,-41.667c21.368,-26.526 40.896,-54.083 58.334,-83.333Z" style="fill:#b2d9e3;fill-rule:nonzero;"/><path d="M450,1750l0,25c-2.062,-6.187 -2.062,-6.187 -4.167,-12.5c-41.467,-1.832 -81.144,0.991 -119.791,17.35c-3.094,1.15 -6.188,2.299 -9.375,3.483c-2.75,-1.375 -5.5,-2.75 -8.334,-4.166c43.398,-29.381 90.596,-30.823 141.667,-29.167Z" style="fill:#7bb5c8;fill-rule:nonzero;"/><path d="M1758.33,2300l4.167,0c-3.023,88.255 -3.023,88.255 -10.238,121.777c-3.098,15.829 -5.009,31.748 -6.949,47.754c-0.365,3.004 -0.73,6.008 -1.106,9.104c-0.857,7.12 -1.7,14.242 -2.54,21.365l-4.167,0c0.584,-14.671 1.2,-29.341 1.823,-44.01c0.164,-4.128 0.328,-8.256 0.496,-12.509c0.938,-21.714 2.435,-42.871 6.014,-64.314l8.334,-0c-0.049,-3.97 -0.097,-7.939 -0.147,-12.028c-0.037,-5.226 -0.075,-10.452 -0.114,-15.837c-0.048,-5.172 -0.096,-10.345 -0.146,-15.674c0.345,-12.554 1.622,-23.473 4.573,-35.628Z" style="fill:#c2e8f6;fill-rule:nonzero;"/><path d="M2554.17,2945.83l20.833,0l0,8.334l8.333,-0l0,16.666l16.667,0l0,8.334c10.313,4.125 10.313,4.125 20.833,8.333l0,8.333c5.93,0.387 5.93,0.387 11.98,0.782c4.296,1.117 8.593,2.234 13.02,3.385c5.73,10.677 5.73,10.677 8.334,20.833c-6.875,-2.75 -13.75,-5.5 -20.834,-8.333l0,-8.333c-8.25,-2.75 -16.5,-5.5 -25,-8.334l0,-8.333l-16.666,-0c-1.375,-2.75 -2.75,-5.5 -4.167,-8.333c-4.125,-1.375 -8.25,-2.75 -12.5,-4.167c-5.778,-6.787 -5.778,-6.787 -11.198,-14.844c-1.821,-2.669 -3.642,-5.339 -5.517,-8.089c-1.359,-2.057 -2.718,-4.114 -4.118,-6.234Z" style="fill:#bddde8;fill-rule:nonzero;"/><path d="M2366.67,2600l8.333,0c1.058,4.125 2.116,8.25 3.206,12.5c8.694,34.606 8.694,34.606 20.492,68.229c6.379,17.618 8.387,34.015 9.635,52.604c-2.75,-1.375 -5.5,-2.75 -8.333,-4.166l0,-20.834l-8.333,0c-1.107,-4.522 -2.213,-9.045 -3.353,-13.704c-1.486,-6.022 -2.973,-12.044 -4.46,-18.066c-0.725,-2.971 -1.45,-5.941 -2.197,-9.001c-3.329,-13.438 -6.844,-26.435 -11.377,-39.535c-3.613,-11.36 -3.613,-11.36 -3.613,-28.027Z" style="fill:#bddee9;fill-rule:nonzero;"/><path d="M2983.33,1175c29.807,-2.773 55.302,7.437 83.334,16.667c10.149,3.146 20.305,6.271 30.468,9.375c7.9,2.43 15.799,4.861 23.698,7.291l0,8.334c-12.855,-2.074 -24.543,-5.441 -36.718,-9.896c-21.317,-7.43 -43.117,-10.996 -65.378,-14.362c-15.452,-2.558 -25.897,-4.347 -35.404,-17.409Z" style="fill:#b8dae5;fill-rule:nonzero;"/><path d="M795.833,1566.67c1.375,2.75 2.75,5.5 4.167,8.333l-8.333,-0c-0.86,2.32 -1.719,4.641 -2.605,7.031c-5.597,9.415 -10.11,13.802 -18.489,20.573c-12.274,8.526 -12.274,8.526 -16.406,18.229l-12.5,0c-1.467,3.449 -1.467,3.449 -2.963,6.966c-6.739,12.173 -15.223,21.35 -24.642,31.576c-3.405,3.717 -6.81,7.434 -10.319,11.263c-2.61,2.814 -5.22,5.629 -7.91,8.529c0,-15.08 2.579,-16.842 12.5,-27.605c2.675,-2.927 5.35,-5.854 8.106,-8.87c2.825,-3.088 5.65,-6.177 8.561,-9.359c3.98,-4.697 3.98,-4.697 8.04,-9.489c18.919,-22.223 39.118,-40.134 62.793,-57.177Z" style="fill:#cceffb;fill-rule:nonzero;"/><path d="M545.833,1562.5c1.375,2.75 2.75,5.5 4.167,8.333c-4.036,9.082 -4.036,9.082 -10.417,20.313c-2.298,4.055 -4.597,8.11 -6.966,12.288c-3.77,6.55 -3.77,6.55 -7.617,13.233c-2.6,4.667 -5.199,9.335 -7.878,14.144c-3.835,6.791 -3.835,6.791 -7.747,13.72c-2.385,4.227 -4.77,8.454 -7.227,12.809c-2.084,3.078 -4.168,6.156 -6.315,9.327l-8.333,-0c5.659,-21.503 16.04,-38.571 27.751,-57.211c6.12,-9.611 6.12,-9.611 9.749,-21.956l8.333,-0c1.289,-3.352 2.578,-6.703 3.907,-10.156c4.427,-10.677 4.427,-10.677 8.593,-14.844Z" style="fill:#badce7;fill-rule:nonzero;"/><path d="M1895.83,2595.83c9.661,28.982 -8.733,64.836 -20.833,91.667c-3.094,9.664 -5.73,19.354 -8.333,29.167l-4.167,-0c2.254,-27.953 7.877,-52.589 16.667,-79.167c1.138,-3.572 2.277,-7.144 3.45,-10.824c8.421,-26.048 8.421,-26.048 13.216,-30.843Z" style="fill:#b3d9e2;fill-rule:nonzero;"/><path d="M529.167,2600l8.333,0c1.805,4.555 3.609,9.109 5.469,13.802c4.006,9.521 6.545,14.897 14.062,22.135c5.469,5.73 5.469,5.73 6.25,16.928c-0.258,3.179 -0.515,6.359 -0.781,9.635c4.125,1.375 8.25,2.75 12.5,4.167l0,16.666l8.333,0c13.428,21.566 13.428,21.566 16.667,29.167c-1.375,4.125 -2.75,8.25 -4.167,12.5c-28.86,-38.071 -52.438,-79.191 -66.666,-125Z" style="fill:#b9dae4;fill-rule:nonzero;"/><path d="M3808.33,1737.5c15.106,0.577 30.209,1.196 45.313,1.823c6.453,0.246 6.453,0.246 13.037,0.496c4.109,0.175 8.218,0.349 12.451,0.529c3.797,0.153 7.593,0.306 11.505,0.463c9.361,0.856 9.361,0.856 17.694,5.022l0,8.334c5.5,2.75 11,5.5 16.667,8.333c-3.147,-0.553 -6.295,-1.106 -9.538,-1.676c-20.904,-3.367 -41.875,-6.172 -62.858,-9.001c-4.259,-0.577 -8.518,-1.155 -12.907,-1.75c-10.454,-1.416 -20.909,-2.83 -31.364,-4.24l0,-8.333Z" style="fill:#e5fafd;fill-rule:nonzero;"/><path d="M3491.67,1366.67c17.948,6.526 33.59,15.347 50,25l-0,8.333c2.406,1.203 13.479,6.74 16.666,8.333c2.922,1.203 5.844,2.407 8.855,3.646c9.563,5.738 12.065,11.154 16.145,21.354c-14.062,-3.125 -14.062,-3.125 -29.166,-8.333c-2.849,-5.519 -5.624,-11.078 -8.334,-16.667c-14.395,-7.211 -14.395,-7.211 -29.166,-12.5c-2.75,-1.375 -5.5,-2.75 -8.334,-4.166c1.375,-2.75 2.75,-5.5 4.167,-8.334l-16.667,0c-1.375,-5.5 -2.75,-11 -4.166,-16.666Z" style="fill:#b3d9e3;fill-rule:nonzero;"/><path d="M2922.1,3093.08c28.851,3.597 57.71,4.215 86.751,5.094c5.632,0.181 11.263,0.362 16.895,0.545c13.639,0.439 27.278,0.864 40.918,1.278l-0,4.167c-21.498,0.103 -42.996,0.178 -64.494,0.229c-7.307,0.02 -14.613,0.049 -21.92,0.085c-10.529,0.051 -21.058,0.074 -31.588,0.093c-3.243,0.021 -6.486,0.043 -9.827,0.065c-17.59,0.002 -34.008,-1.156 -51.338,-4.639c12.715,-7.502 20.069,-9.081 34.603,-6.917Z" style="fill:#b7d8e4;fill-rule:nonzero;"/><path d="M3916.67,2370.83c-3.916,0.758 -3.916,0.758 -7.91,1.53c-3.406,0.699 -6.811,1.397 -10.319,2.116c-3.384,0.677 -6.768,1.354 -10.254,2.051c-9.795,2.081 -9.795,2.081 -17.351,10.97c-10.84,0.814 -10.84,0.814 -23.437,0.521c-6.268,-0.113 -6.268,-0.113 -12.663,-0.228c-3.212,-0.097 -6.424,-0.193 -9.733,-0.293c-0.806,2.358 -1.611,4.716 -2.441,7.145c-1.628,4.584 -1.628,4.584 -3.288,9.261c-1.064,3.046 -2.127,6.091 -3.223,9.229c-3.548,7.698 -3.548,7.698 -11.881,11.865c2.75,-15.125 5.5,-30.25 8.333,-45.833l54.167,-0l-0,-8.334c33.482,-5.022 33.482,-5.022 50,0Z" style="fill:#dff7fa;fill-rule:nonzero;"/><path d="M325,2354.17c41.716,2.866 41.716,2.866 60.677,8.854c18.979,4.831 36.912,4.011 55.99,-0.521c1.375,-2.75 2.75,-5.5 4.166,-8.333l0,20.833c-38.892,1.574 -75.297,-0.061 -112.5,-12.5c-2.75,-2.75 -5.5,-5.5 -8.333,-8.333Z" style="fill:#8bbbca;fill-rule:nonzero;"/><path d="M1100,1220.83c-4.25,11.593 -6.795,15.877 -17.969,21.615c-10.643,3.218 -21.138,5.373 -32.031,7.552c-5.414,2.32 -5.414,2.32 -10.938,4.688c-9.895,3.645 -9.895,3.645 -22.395,-0.521c5.5,-1.375 11,-2.75 16.666,-4.167l0,-8.333c3.561,-1.155 7.122,-2.31 10.791,-3.5c4.603,-1.509 9.206,-3.018 13.949,-4.573c4.592,-1.499 9.184,-2.997 13.916,-4.541c23.008,-8.22 23.008,-8.22 28.011,-8.22Z" style="fill:#acd9e3;fill-rule:nonzero;"/><path d="M604.167,2170.83l4.166,0c9.069,43.758 13.059,84.377 12.5,129.167l-4.166,0c-8.209,-43.534 -14.621,-84.714 -12.5,-129.167Z" style="fill:#c8eef8;fill-rule:nonzero;"/><path d="M2766.67,3066.67c25.107,3.308 49.88,7.951 74.739,12.76c6.063,1.164 6.063,1.164 12.248,2.352c9.894,1.901 19.787,3.808 29.679,5.721l0,4.167c-24.059,0.572 -46.378,-1.269 -70.052,-5.469c-4.685,-0.737 -4.685,-0.737 -9.464,-1.489c-27.797,-4.844 -27.797,-4.844 -37.15,-18.042Z" style="fill:#b2d9e5;fill-rule:nonzero;"/><path d="M254.167,1854.17c2.75,2.75 5.5,5.5 8.333,8.333c-0.755,12.208 -1.94,23.862 -3.646,35.937c-0.435,3.341 -0.87,6.682 -1.318,10.124c-1.082,8.263 -2.221,16.519 -3.369,24.772l-8.334,0c-0.226,-9.287 -0.387,-18.575 -0.52,-27.864c-0.146,-7.759 -0.146,-7.759 -0.293,-15.674c0.77,-14.013 3.073,-23.122 9.147,-35.628Z" style="fill:#7cb3c3;fill-rule:nonzero;"/><path d="M479.167,2466.67l8.333,-0c3.612,10.748 7.161,21.511 10.677,32.291c1.029,3.04 2.057,6.08 3.117,9.213c0.953,2.954 1.907,5.908 2.889,8.951c1.342,4.059 1.342,4.059 2.711,8.199c1.69,9.406 0.16,15.657 -2.727,24.679c-14.255,-26.642 -26.881,-52.303 -25,-83.333Z" style="fill:#b7dce7;fill-rule:nonzero;"/><path d="M1766.67,1095.83l-0,8.334c-3.728,0.252 -7.455,0.505 -11.296,0.765c-29.627,2.053 -59.178,4.37 -88.704,7.568c1.375,-4.125 2.75,-8.25 4.166,-12.5c65.604,-4.784 65.604,-4.784 95.834,-4.167Z" style="fill:#ebfcfe;fill-rule:nonzero;"/><path d="M1916.67,2500l4.166,0c0.225,10.852 0.391,21.699 0.521,32.552c0.07,3.075 0.14,6.15 0.212,9.318c0.145,16.099 0.076,23.584 -9.066,37.297c-1.604,6.898 -3.033,13.842 -4.167,20.833l-8.333,-0c4.998,-33.446 10.406,-66.766 16.667,-100Z" style="fill:#e0f5fb;fill-rule:nonzero;"/><path d="M409.635,1745.57c6.679,0.056 6.679,0.056 13.493,0.114c3.368,0.048 6.736,0.097 10.205,0.146l0,4.167c-2.498,0.313 -4.995,0.626 -7.569,0.949c-11.459,1.462 -22.908,2.991 -34.358,4.52c-3.929,0.491 -7.858,0.983 -11.906,1.489c-23.021,3.128 -41.985,7.719 -62.833,18.042c3.043,-8.024 3.043,-8.024 8.333,-16.667c8.285,-3.304 8.285,-3.304 17.969,-4.948c3.163,-0.574 6.327,-1.149 9.586,-1.741c3.282,-0.543 6.564,-1.085 9.945,-1.644c3.298,-0.752 6.596,-1.504 9.993,-2.279c12.566,-2.188 24.396,-2.288 37.142,-2.148Z" style="fill:#d4f3f8;fill-rule:nonzero;"/><path d="M1854.17,2741.67l4.166,-0c0.782,9.635 0.782,9.635 0,20.833c-2.876,2.804 -2.876,2.804 -5.81,5.664c-8.321,8.503 -10.69,16.192 -14.502,27.409c-6.703,17.797 -13.015,27.572 -29.688,37.76c7.356,-20.167 17.481,-38.681 27.604,-57.552c1.751,-3.284 3.502,-6.569 5.306,-9.953c4.299,-8.059 8.607,-16.112 12.924,-24.161Z" style="fill:#e0f5f9;fill-rule:nonzero;"/><path d="M2633.33,1104.17l0,4.166c22,2.75 44,5.5 66.667,8.334l0,4.166c-44.86,1.642 -88.809,-3.405 -133.333,-8.333l-0,-4.167c7.203,-0.706 14.409,-1.398 21.614,-2.083c4.012,-0.387 8.025,-0.773 12.158,-1.172c11.027,-0.833 21.843,-1.073 32.894,-0.911Z" style="fill:#e3f4fb;fill-rule:nonzero;"/><path d="M270.833,2279.17l0,20.833l16.667,0c1.203,3.094 2.406,6.188 3.646,9.375c3.95,9.656 8.223,18.872 13.021,28.125l8.333,0c-1.375,2.75 -2.75,5.5 -4.167,8.333c-46.354,-37.89 -46.354,-37.89 -50,-62.5c8.334,-4.166 8.334,-4.166 12.5,-4.166Z" style="fill:#85bac6;fill-rule:nonzero;"/><path d="M625,1475c2.75,1.375 5.5,2.75 8.333,4.167c-8.841,16.752 -18.307,26.139 -33.333,37.5c-5.631,5.479 -11.213,11.011 -16.667,16.666c-2.75,-2.75 -5.5,-5.5 -8.333,-8.333c2.578,-1.031 5.156,-2.062 7.813,-3.125c9.259,-4.366 9.259,-4.366 12.5,-12.5c7.133,-14.267 18.194,-23.381 29.687,-34.375Z" style="fill:#b6dbe7;fill-rule:nonzero;"/><path d="M929.167,1491.67c-2.578,0.343 -5.157,0.687 -7.813,1.041c-9.582,2.214 -9.582,2.214 -12.76,11.198c-6.093,11.827 -12.961,12.728 -25.261,16.927c-4.125,2.75 -8.25,5.5 -12.5,8.334l-12.5,-0l0,8.333c-8.25,2.75 -16.5,5.5 -25,8.333l0,-8.333c5.372,-2.798 10.756,-5.571 16.146,-8.333c2.997,-1.547 5.994,-3.094 9.082,-4.688c8.106,-3.646 8.106,-3.646 16.439,-3.646l0,-8.333c23.958,-12.5 23.958,-12.5 33.333,-12.5l0,-8.333c12.5,-4.167 12.5,-4.167 20.834,-0Z" style="fill:#c6ebf9;fill-rule:nonzero;"/><path d="M1784.47,1282.52c4.807,0.026 9.614,0.053 14.567,0.081c4.957,0.07 9.915,0.14 15.023,0.212c5.054,0.037 10.108,0.075 15.315,0.113c12.431,0.098 24.859,0.235 37.289,0.407l-0,4.167c-8.21,0.379 -8.21,0.379 -16.586,0.765c-7.232,0.352 -14.464,0.704 -21.696,1.058c-5.402,0.246 -5.402,0.246 -10.913,0.496c-17.385,0.866 -33.762,2.309 -50.805,6.014c-5.985,0.261 -11.98,0.362 -17.969,0.261c-7.606,-0.129 -7.606,-0.129 -15.365,-0.261l0,-4.166c17.723,-6.713 32.221,-9.335 51.14,-9.147Z" style="fill:#b9dbe7;fill-rule:nonzero;"/><path d="M120.833,1854.17l4.167,-0c0.811,7.462 1.585,14.928 2.344,22.395c0.435,4.158 0.87,8.315 1.318,12.598c0.505,10.84 0.505,10.84 -3.662,19.173c-0.634,6.941 -1.038,13.903 -1.318,20.866c-0.175,4.109 -0.349,8.218 -0.529,12.451c-0.164,4.303 -0.328,8.605 -0.497,13.037c-0.18,4.335 -0.36,8.669 -0.545,13.135c-0.443,10.726 -0.868,21.451 -1.278,32.178l-4.166,0c-0.123,-16.493 -0.196,-32.986 -0.261,-49.479c-0.035,-4.619 -0.07,-9.238 -0.106,-13.998c-0.081,-27.733 1.08,-54.831 4.533,-82.356Z" style="fill:#a9a9a9;fill-rule:nonzero;"/><path d="M3779.17,2458.33c2.75,2.75 5.5,5.5 8.333,8.334c-1.149,22.984 -5.606,37.981 -16.667,58.333c-2.915,8.286 -5.736,16.609 -8.333,25c-4.548,-13.582 -3.8,-20.841 1.302,-34.115c6.852,-18.921 11.404,-37.844 15.365,-57.552Z" style="fill:#b2dae3;fill-rule:nonzero;"/><path d="M2883.33,1341.67l33.334,-0l-0,8.333l45.833,0l0,8.333l16.667,0l-0,8.334c-32.385,-5.419 -64.072,-12.519 -95.834,-20.834l0,-4.166Z" style="fill:#b5dded;fill-rule:nonzero;"/><path d="M3208.33,3075c-10.914,10.914 -18.457,10.614 -33.593,12.76c-15.776,1.043 -15.776,1.043 -28.907,8.073c-9.72,0.171 -19.446,0.177 -29.166,0c24.278,-23.222 60.208,-21.832 91.666,-20.833Z" style="fill:#b7dae5;fill-rule:nonzero;"/><path d="M1950,2283.33c2.75,1.375 5.5,2.75 8.333,4.167c-1.106,2.777 -2.213,5.554 -3.353,8.415c-10.542,27.511 -17.364,54.118 -21.647,83.252l-4.166,-0c-1.984,-34.538 1.266,-66.483 20.833,-95.834Z" style="fill:#b2dbe5;fill-rule:nonzero;"/><path d="M2441.67,2800l12.5,0c1.031,4.469 2.062,8.938 3.125,13.542c5.37,16.11 10.087,20.884 21.875,32.291c3.125,11.459 3.125,11.459 4.166,20.834c-5.731,-5.374 -11.282,-10.946 -16.666,-16.667l-0,-8.333l-8.334,-0c-12.304,-12.797 -14.693,-24.306 -16.666,-41.667Z" style="fill:#bedee8;fill-rule:nonzero;"/><path d="M429.167,1845.83l4.166,0c-2.097,29.278 -4.341,58.415 -8.333,87.5c-6.51,-6.25 -6.51,-6.25 -12.5,-16.666c0.132,-11.56 2.068,-21.887 4.167,-33.334l4.166,0c2.75,-12.375 5.5,-24.75 8.334,-37.5Z" style="fill:#7abbcf;fill-rule:nonzero;"/><path d="M2875,1150c7.208,0.48 14.412,1.011 21.615,1.563c4.012,0.29 8.024,0.58 12.158,0.878c12.227,1.749 21.547,5.319 32.894,10.059c7.339,1.736 14.721,3.304 22.135,4.688c5.519,1.047 5.519,1.047 11.149,2.115c2.766,0.505 5.532,1.01 8.382,1.53l0,4.167c-25.007,0.909 -46.634,-2.06 -70.833,-8.333l0,-8.334l-33.333,0c-1.375,-2.75 -2.75,-5.5 -4.167,-8.333Z" style="fill:#c4e2ec;fill-rule:nonzero;"/><path d="M2550,1100l0,8.333c-57.75,-4.125 -57.75,-4.125 -116.667,-8.333l0,-4.167c40.248,-5.64 76.867,-1.944 116.667,4.167Z" style="fill:#e3f9fb;fill-rule:nonzero;"/><path d="M483.333,1666.67c4.125,1.375 8.25,2.75 12.5,4.166c-3.727,12.615 -6.85,23.042 -14.843,33.594c-7.078,9.54 -8.539,17.26 -10.157,28.906l-12.5,0c3.279,-14.209 7.797,-27.87 12.5,-41.666l8.334,-0c1.375,-8.25 2.75,-16.5 4.166,-25Z" style="fill:#bcdde7;fill-rule:nonzero;"/><path d="M787.5,2933.33c9.625,1.375 19.25,2.75 29.167,4.167c1.375,4.125 2.75,8.25 4.166,12.5c8.334,5.037 8.334,5.037 16.667,8.333c-1.375,4.125 -2.75,8.25 -4.167,12.5c-7.661,-4.651 -15.295,-9.347 -22.916,-14.062c-4.254,-2.611 -8.508,-5.221 -12.891,-7.91c-3.309,-2.374 -6.617,-4.748 -10.026,-7.194l-0,-8.334Z" style="fill:#bbdce7;fill-rule:nonzero;"/><path d="M2100,2183.33l100,0l0,12.5c-33,-2.75 -66,-5.5 -100,-8.333l0,-4.167Z" style="fill:#c6e0eb;fill-rule:nonzero;"/><path d="M3258.33,3045.83l25,0c-1.375,2.75 -2.75,5.5 -4.166,8.334l-12.5,-0l-0,8.333c-43.224,15.12 -43.224,15.12 -66.667,8.333l0,-4.166c28.875,-4.125 28.875,-4.125 58.333,-8.334l0,-12.5Z" style="fill:#b7dce7;fill-rule:nonzero;"/><path d="M845.833,2970.83c10.157,3.386 10.157,3.386 20.834,8.334c1.375,4.125 2.75,8.25 4.166,12.5c7.637,4.688 27.778,13.889 33.334,16.666c-4.125,2.063 -4.125,2.063 -8.334,4.167c-10.547,-4.622 -10.547,-4.622 -22.916,-11.458c-4.082,-2.213 -8.164,-4.426 -12.37,-6.706c-10.547,-6.836 -10.547,-6.836 -18.88,-19.336c1.375,-1.375 2.75,-2.75 4.166,-4.167Z" style="fill:#c2e1ea;fill-rule:nonzero;"/><path d="M3441.67,2962.5c1.375,4.125 2.75,8.25 4.166,12.5c-12.755,10.933 -15.549,12.5 -33.333,12.5l0,8.333c-8.25,1.375 -16.5,2.75 -25,4.167c10.54,-12.882 21.769,-16.289 37.5,-20.833l0,-8.334c5.5,-2.75 11,-5.5 16.667,-8.333Z" style="fill:#e5f8fd;fill-rule:nonzero;"/><path d="M2025,2208.33c2.75,1.375 5.5,2.75 8.333,4.167c-16.666,16.667 -33.333,33.333 -50,50c-2.75,-1.375 -5.5,-2.75 -8.333,-4.167c15.326,-18.859 30.879,-34.976 50,-50Z" style="fill:#e2f8fa;fill-rule:nonzero;"/><path d="M3448.7,2949.22c4.769,0.386 4.769,0.386 9.635,0.781c-10.533,11.661 -17.517,18.574 -33.333,20.833l0,8.334c-8.25,2.75 -16.5,5.5 -25,8.333c5.269,-15.808 10.904,-16.945 25,-25c2.063,-2.32 4.125,-4.641 6.25,-7.031c6.25,-5.469 6.25,-5.469 17.448,-6.25Z" style="fill:#b5d9e4;fill-rule:nonzero;"/><path d="M3808.33,2383.33c5.723,18.327 1.013,33.021 -3.906,51.042c-1.22,4.657 -1.22,4.657 -2.466,9.408c-2.007,7.637 -4.063,15.262 -6.128,22.884l-4.166,-0c0.988,-8.899 1.981,-17.797 2.994,-26.693c0.771,-7.11 1.468,-14.229 2.084,-21.354c0.301,-3.309 0.601,-6.617 0.911,-10.026c0.253,-3.046 0.505,-6.091 0.765,-9.229c1.579,-7.698 1.579,-7.698 9.912,-16.032Z" style="fill:#b8dfe9;fill-rule:nonzero;"/><path d="M4012.5,2266.67l4.167,-0c1.905,23.819 -1.989,35.36 -16.667,54.166c-5.5,-1.375 -11,-2.75 -16.667,-4.166c1.875,-1.66 3.749,-3.32 5.681,-5.03c7.778,-8.52 11.476,-16.394 15.934,-27.002c1.434,-3.367 2.868,-6.735 4.346,-10.205c1.587,-3.843 1.587,-3.843 3.206,-7.763Z" style="fill:#daf3f5;fill-rule:nonzero;"/><path d="M3775,2508.33c5.725,11.451 3.384,18.448 1.302,30.99c-0.926,6.05 -0.926,6.05 -1.872,12.223c-4.227,12.874 -8.837,16.589 -20.263,23.454c2.526,-24.002 11.485,-44.667 20.833,-66.667Z" style="fill:#e0f4f9;fill-rule:nonzero;"/><path d="M1925,2400l4.167,0c-4.015,70.387 -4.015,70.387 -8.334,100l-4.166,0c-6.768,-35.071 0.369,-65.851 8.333,-100Z" style="fill:#bddde8;fill-rule:nonzero;"/><path d="M4020.83,2233.33l8.334,0c0.336,8.157 0.579,16.318 0.781,24.479c0.217,6.816 0.217,6.816 0.439,13.77c-0.402,3.878 -0.805,7.756 -1.22,11.751c-6.188,4.125 -6.188,4.125 -12.5,8.334c-0.114,-6.597 -0.194,-13.195 -0.261,-19.792c-0.048,-3.674 -0.096,-7.348 -0.146,-11.133c0.372,-9.833 1.785,-18.013 4.573,-27.409Z" style="fill:#e9fbfd;fill-rule:nonzero;"/><path d="M2208.33,2195.83c5.995,0.365 11.984,0.816 17.969,1.302c3.336,0.242 6.671,0.484 10.108,0.733c11.076,2.506 14.567,6.24 21.923,14.632c2.75,1.375 5.5,2.75 8.334,4.167l-0,12.5c-21.117,-7.679 -42.314,-17.314 -58.334,-33.334Z" style="fill:#b7dbe7;fill-rule:nonzero;"/><path d="M3641.67,1812.5l4.166,0c9.524,35.119 9.524,35.119 8.334,54.167l-16.667,-0c-0.319,-18.818 -0.426,-35.796 4.167,-54.167Z" style="fill:#cdedfb;fill-rule:nonzero;"/><path d="M1775,2875l0,12.5c-6.752,5.788 -13.738,11.306 -20.833,16.667c-7.022,6.866 -13.988,13.791 -20.834,20.833c2.012,-18.101 6.895,-25.884 20.834,-37.5c6.832,-4.348 13.754,-8.567 20.833,-12.5Z" style="fill:#bcdce8;fill-rule:nonzero;"/><path d="M1204.17,1179.17c10.937,1.562 10.937,1.562 20.833,4.166c-15.27,8.692 -31.558,12.822 -48.438,17.188c-2.835,0.757 -5.671,1.514 -8.593,2.295c-20.992,5.517 -20.992,5.517 -30.469,5.517l0,-8.333c4.114,-0.806 8.229,-1.611 12.467,-2.441c5.339,-1.085 10.678,-2.17 16.179,-3.288c5.317,-1.064 10.635,-2.127 16.113,-3.223c13.821,-2.391 13.821,-2.391 21.908,-11.881Z" style="fill:#e7fbfc;fill-rule:nonzero;"/><path d="M3241.67,3075c-30.607,14.366 -58.094,17.256 -91.667,16.667l0,-4.167c3.319,-0.505 6.639,-1.01 10.059,-1.53c27.63,-4.307 27.63,-4.307 54.524,-11.751c11.171,-3.631 16.261,-3.382 27.084,0.781Z" style="fill:#e0f6fa;fill-rule:nonzero;"/><path d="M3966.67,2333.33c2.75,1.375 5.5,2.75 8.333,4.167c-15.566,23.599 -15.566,23.599 -30.566,27.588c-9.3,0.953 -18.421,1.538 -27.767,1.579c10.878,-8.612 22.243,-16.38 33.854,-23.959c2.847,-1.869 5.693,-3.738 8.626,-5.664c3.722,-1.837 3.722,-1.837 7.52,-3.711Z" style="fill:#d8f1f6;fill-rule:nonzero;"/><path d="M3233.33,1245.83c35.715,7.738 35.715,7.738 50,20.834c-35.714,1.19 -35.714,1.19 -50,-8.334l0,-12.5Z" style="fill:#b6dbe5;fill-rule:nonzero;"/><path d="M600,2725c10.156,2.604 10.156,2.604 20.833,8.333c3.386,13.021 3.386,13.021 4.167,25l8.333,0c-1.375,4.125 -2.75,8.25 -4.166,12.5c-9.366,-8.551 -12.51,-12.527 -16.667,-25c-2.148,-2.148 -4.297,-4.297 -6.51,-6.51c-5.99,-5.99 -5.99,-5.99 -5.99,-14.323Z" style="fill:#bcdde8;fill-rule:nonzero;"/><path d="M3720.83,2612.5c5.872,17.615 -0.216,25.432 -8.333,41.667c-7.031,8.073 -7.031,8.073 -12.5,12.5c1.875,-23.44 7.018,-35.896 20.833,-54.167Z" style="fill:#afd6e1;fill-rule:nonzero;"/><path d="M683.333,1683.33c1.375,4.125 2.75,8.25 4.167,12.5c-4.125,2.063 -4.125,2.063 -8.333,4.167c1.375,-5.5 2.75,-11 4.166,-16.667Zm-12.5,16.667c2.75,1.375 5.5,2.75 8.334,4.167c-1.771,5.399 -3.606,10.777 -5.469,16.146c-1.015,2.997 -2.03,5.994 -3.076,9.082c-3.955,8.105 -3.955,8.105 -16.455,16.438c2.529,-17.198 8.492,-30.55 16.666,-45.833Z" style="fill:#cdf1fc;fill-rule:nonzero;"/><path d="M216.667,1691.67c2.75,1.375 5.5,2.75 8.333,4.166c-11.458,16.146 -11.458,16.146 -20.833,20.834c-1.375,4.125 -2.75,8.25 -4.167,12.5c-8.073,4.687 -20.792,10.395 -25,12.5c6.155,-14.384 14.325,-23.54 25.521,-34.375c3.018,-2.944 6.037,-5.887 9.147,-8.92c2.31,-2.212 4.619,-4.425 6.999,-6.705Z" style="fill:#dadada;fill-rule:nonzero;"/><path d="M3329.17,1475c9.94,2.399 19.445,5.093 29.166,8.333l0,8.334l12.5,-0c2.75,5.5 5.5,11 8.334,16.666c-17.949,-6.526 -33.591,-15.347 -50,-25l-0,-8.333Z" style="fill:#b4d9e4;fill-rule:nonzero;"/><path d="M3687.5,2670.83c4.125,1.375 8.25,2.75 12.5,4.167c-8.49,17.828 -17.983,33.803 -29.167,50c-4.687,-15.625 -4.687,-15.625 0,-25l8.334,0c2.75,-9.625 5.5,-19.25 8.333,-29.167Z" style="fill:#b2dce4;fill-rule:nonzero;"/><path d="M3883.33,1741.67c12.375,2.062 12.375,2.062 25,4.166l0,8.334c5.5,2.75 11,5.5 16.667,8.333c-5.156,-0.902 -5.156,-0.902 -10.417,-1.823c-15.945,-2.563 -31.884,-4.575 -47.916,-6.51c5.5,-1.375 11,-2.75 16.666,-4.167l0,-8.333Z" style="fill:#dbf2f7;fill-rule:nonzero;"/><path d="M1683.33,2675c6.137,19.091 2.067,29.035 -6.51,46.875c-1.977,3.781 -3.953,7.563 -5.99,11.458l-8.333,0l0,8.334c-2.75,-1.375 -5.5,-2.75 -8.333,-4.167c2.634,-5.197 2.634,-5.197 5.322,-10.498c2.283,-4.528 4.565,-9.056 6.917,-13.721c2.272,-4.495 4.544,-8.991 6.885,-13.623c6.12,-12 6.12,-12 10.042,-24.658Z" style="fill:#b8e0ef;fill-rule:nonzero;"/><path d="M2329.17,2295.83c9.567,48.007 9.567,48.007 8.333,70.834c-8.632,-12.949 -11.769,-22.79 -15.625,-37.761c-1.182,-4.431 -2.363,-8.862 -3.581,-13.427c-0.537,-3.733 -1.074,-7.466 -1.627,-11.312c8.333,-8.334 8.333,-8.334 12.5,-8.334Z" style="fill:#b5dce5;fill-rule:nonzero;"/><path d="M291.667,1795.83c4.166,8.334 4.166,8.334 -0,20.834c-5.99,7.031 -5.99,7.031 -12.5,12.5l-8.334,-0c-1.375,5.5 -2.75,11 -4.166,16.666c-2.75,-1.375 -5.5,-2.75 -8.334,-4.166c3.19,-5.309 6.408,-10.601 9.636,-15.886c1.788,-2.948 3.577,-5.897 5.42,-8.935c5.465,-8.053 11.169,-14.405 18.278,-21.013Z" style="fill:#83b0bf;fill-rule:nonzero;"/><path d="M716.667,1404.17c-0,12.5 -0,12.5 -7.292,20.833c-17.654,15.693 -17.654,15.693 -26.042,20.833c-4.125,-1.375 -8.25,-2.75 -12.5,-4.166c4.666,-4.192 9.358,-8.353 14.063,-12.5c2.61,-2.321 5.221,-4.641 7.91,-7.032c7.194,-5.468 7.194,-5.468 15.527,-5.468l0,-8.334c2.75,-1.375 5.5,-2.75 8.334,-4.166Z" style="fill:#afd7e4;fill-rule:nonzero;"/><path d="M3504.17,2908.33c-6.011,14.025 -13.886,22.961 -25,33.334c-4.125,-1.375 -8.25,-2.75 -12.5,-4.167c3.86,-4.897 7.777,-9.75 11.718,-14.583c2.176,-2.707 4.351,-5.414 6.592,-8.203c6.69,-6.381 6.69,-6.381 19.19,-6.381Z" style="fill:#b5dce6;fill-rule:nonzero;"/><path d="M3875,1754.17c22.585,-1.694 37.792,4 58.333,12.5l0,4.166c-6.601,-0.365 -13.198,-0.816 -19.791,-1.302c-5.511,-0.362 -5.511,-0.362 -11.133,-0.732c-12.088,-2.399 -18.21,-6.616 -27.409,-14.632Z" style="fill:#81b6c4;fill-rule:nonzero;"/><path d="M3725,1575c4.125,2.063 4.125,2.063 8.333,4.167l0,8.333l8.334,0c12.5,23.958 12.5,23.958 12.5,33.333l-8.334,0c-1.375,2.75 -2.75,5.5 -4.166,8.334l-0,-25l-8.334,-0c-2.75,-9.625 -5.5,-19.25 -8.333,-29.167Z" style="fill:#bbdfe7;fill-rule:nonzero;"/><path d="M3366.67,1300c20.927,4.924 33.728,10.208 50,25c-14.456,-1.909 -27.808,-3.714 -41.667,-8.333c-4.948,-8.594 -4.948,-8.594 -8.333,-16.667Z" style="fill:#badae4;fill-rule:nonzero;"/><path d="M1495.83,3079.17c-16.807,11.555 -27.005,18.385 -47.656,15.625c-4.898,-1.032 -9.797,-2.063 -14.844,-3.125l0,-4.167c8.846,-2.205 17.702,-4.367 26.563,-6.51c4.93,-1.209 9.861,-2.417 14.941,-3.663c12.663,-2.327 12.663,-2.327 20.996,1.84Z" style="fill:#ebfcfe;fill-rule:nonzero;"/><path d="M708.333,2866.67c11,8.25 22,16.5 33.334,25c-1.375,2.75 -2.75,5.5 -4.167,8.333c-8.25,-2.75 -16.5,-5.5 -25,-8.333l0,-8.334l-8.333,0c1.375,-5.5 2.75,-11 4.166,-16.666Z" style="fill:#e9fafd;fill-rule:nonzero;"/><path d="M3958.33,2329.17c4.125,1.375 8.25,2.75 12.5,4.166c-19.75,16.459 -32.101,26.458 -58.333,25c9.126,-6.083 18.065,-11.589 27.604,-16.927c13.003,-6.651 13.003,-6.651 18.229,-12.239Z" style="fill:#7bafc1;fill-rule:nonzero;"/><path d="M1825,2150c2.75,1.375 5.5,2.75 8.333,4.167c-4.125,6.187 -4.125,6.187 -8.333,12.5c-1.289,4.984 -2.578,9.968 -3.906,15.104c-1.461,4.64 -2.922,9.281 -4.427,14.062c-4.125,1.375 -8.25,2.75 -12.5,4.167c1.886,-5.997 3.801,-11.985 5.729,-17.969c1.595,-5.003 1.595,-5.003 3.222,-10.107c3.549,-9.424 3.549,-9.424 11.882,-21.924Z" style="fill:#b8dfee;fill-rule:nonzero;"/><path d="M900,3004.17c10.313,2.062 10.313,2.062 20.833,4.166l0,8.334l16.667,-0l0,8.333c4.125,1.375 8.25,2.75 12.5,4.167c-18.572,-1.093 -27.147,-2.405 -41.406,-14.844c-2.836,-3.352 -5.672,-6.703 -8.594,-10.156Z" style="fill:#b4dae5;fill-rule:nonzero;"/><path d="M1850,2741.67c0,14.798 -4.142,22.865 -10.417,36.198c-2.9,6.211 -2.9,6.211 -5.859,12.548c-1.504,3.164 -3.008,6.328 -4.557,9.587c-3.524,-10.01 -4.702,-15.101 -1.221,-25.293c1.52,-2.825 3.04,-5.65 4.606,-8.561c1.488,-2.847 2.976,-5.694 4.509,-8.626c4.606,-7.52 4.606,-7.52 12.939,-15.853Z" style="fill:#b4dae3;fill-rule:nonzero;"/><path d="M3662.5,2725c0,14.955 -2.768,17.119 -12.5,27.865c-2.32,2.594 -4.641,5.188 -7.031,7.861c-1.805,1.96 -3.61,3.921 -5.469,5.941c-2.75,-1.375 -5.5,-2.75 -8.333,-4.167c16.666,-32.143 16.666,-32.143 33.333,-37.5Z" style="fill:#b4dae5;fill-rule:nonzero;"/><path d="M3758.33,2550c-8.333,35.714 -8.333,35.714 -16.666,50c-5.439,-10.878 -3.262,-15.648 -0.521,-27.344c0.763,-3.357 1.525,-6.714 2.311,-10.172c3.567,-12.484 3.567,-12.484 14.876,-12.484Z" style="fill:#b6dde7;fill-rule:nonzero;"/><path d="M462.5,1466.67c1.375,2.75 2.75,5.5 4.167,8.333c-7.423,19.382 -14.661,28.416 -33.334,37.5c6.192,-19.138 16.043,-30.982 29.167,-45.833Z" style="fill:#e5e5e5;fill-rule:nonzero;"/><path d="M700,2854.17c5.5,1.375 11,2.75 16.667,4.166l-0,8.334l12.5,-0c4.125,8.25 8.25,16.5 12.5,25c-14.008,-6.004 -23.299,-13.532 -33.334,-25l0,-8.334c-2.75,-1.375 -5.5,-2.75 -8.333,-4.166Z" style="fill:#b9dce9;fill-rule:nonzero;"/><path d="M3583.33,2816.67l8.334,-0c-5.468,16.403 -12.163,25.946 -25,37.5c-2.75,-1.375 -5.5,-2.75 -8.334,-4.167c3.96,-5.579 7.961,-11.129 11.979,-16.667c2.224,-3.093 4.448,-6.187 6.739,-9.375c2.073,-2.406 4.146,-4.812 6.282,-7.291Z" style="fill:#b0d8e2;fill-rule:nonzero;"/><path d="M3970.83,1795.83c14.163,4.721 16.886,8.855 25,20.834c-1.375,2.75 -2.75,5.5 -4.166,8.333c-6.875,-1.375 -13.75,-2.75 -20.834,-4.167l0,-25Z" style="fill:#87bac8;fill-rule:nonzero;"/><path d="M3366.67,1512.5c23.077,2.564 23.077,2.564 32.812,10.677c2.32,2.965 2.32,2.965 4.688,5.99c-12.968,-0 -24.757,-1.901 -37.5,-4.167l-0,-12.5Z" style="fill:#effcfd;fill-rule:nonzero;"/><path d="M1283.33,1370.83c-5.5,1.375 -11,2.75 -16.666,4.167l-0,8.333c-11,-1.375 -22,-2.75 -33.334,-4.166c17.093,-11.395 30.266,-14.912 50,-8.334Z" style="fill:#caeffb;fill-rule:nonzero;"/><path d="M2754.17,3066.67c15.412,3.699 30.606,8.107 45.833,12.5c-12.5,8.333 -12.5,8.333 -25.26,7.812c-12.24,-3.646 -12.24,-3.646 -17.969,-12.239c-0.86,-2.664 -1.719,-5.329 -2.604,-8.073Z" style="fill:#e6f8fb;fill-rule:nonzero;"/><path d="M770.833,2658.33c18.453,21.429 18.453,21.429 20.834,37.5c-12.5,-4.166 -12.5,-4.166 -20.834,-16.666c-0.52,-11.198 -0.52,-11.198 0,-20.834Z" style="fill:#b6dce8;fill-rule:nonzero;"/><path d="M1912.5,2579.17l4.167,-0c2.36,20.059 -4.894,30.012 -16.667,45.833c-4.687,-15.625 -4.687,-15.625 0,-25l8.333,0c1.375,-6.875 2.75,-13.75 4.167,-20.833Z" style="fill:#ebfbfd;fill-rule:nonzero;"/><path d="M3995.83,1820.83l8.334,0l-0,8.334l8.333,-0c2.75,9.625 5.5,19.25 8.333,29.166c-2.75,2.75 -5.5,5.5 -8.333,8.334c-5.5,-15.125 -11,-30.25 -16.667,-45.834Z" style="fill:#dcf7fb;fill-rule:nonzero;"/><path d="M362.5,1762.5c-6.657,3.609 -13.347,7.157 -20.052,10.677c-3.722,1.982 -7.444,3.964 -11.279,6.006c-10.336,4.15 -10.336,4.15 -22.836,-0.016c5.865,-3.622 11.777,-7.166 17.709,-10.677c3.287,-1.982 6.574,-3.964 9.961,-6.006c11.116,-4.693 15.435,-4.221 26.497,0.016Z" style="fill:#8dbec8;fill-rule:nonzero;"/><path d="M400,1754.17c-10.396,10.396 -15.305,9.831 -29.688,10.937c-3.791,0.312 -7.583,0.623 -11.49,0.944c-4.367,0.306 -4.367,0.306 -8.822,0.619c17.386,-14.919 27.786,-13.611 50,-12.5Z" style="fill:#79afbe;fill-rule:nonzero;"/><path d="M358.333,1754.17c-13.023,11.019 -25.366,16.017 -41.666,20.833c9.899,-21.92 18.277,-21.342 41.666,-20.833Z" style="fill:#dff8fa;fill-rule:nonzero;"/><path d="M3287.5,1266.67c19.202,3 36.135,9.637 54.167,16.666l-0,4.167c-23.478,2.291 -34.958,-4.373 -54.167,-16.667l0,-4.166Z" style="fill:#b8dce5;fill-rule:nonzero;"/><path d="M3125,1212.5c6.986,1.164 13.927,2.597 20.833,4.167c5.801,1.16 17.735,3.547 20.834,4.166c-1.375,2.75 -2.75,5.5 -4.167,8.334c-15.495,-2.113 -28.061,-4.651 -41.667,-12.5c1.375,-1.375 2.75,-2.75 4.167,-4.167Z" style="fill:#afd9e4;fill-rule:nonzero;"/><path d="M3695.83,2675c2.75,5.5 5.5,11 8.334,16.667c-5.336,7.114 -10.907,14.057 -16.667,20.833l-8.333,0c1.203,-2.32 2.406,-4.641 3.646,-7.031c4.859,-9.99 8.995,-20.119 13.02,-30.469Z" style="fill:#e7f7fb;fill-rule:nonzero;"/><path d="M2345.83,2500c8.784,17.568 9.071,26.658 8.334,45.833l-12.5,0c1.375,-15.125 2.75,-30.25 4.166,-45.833Z" style="fill:#e6f9fa;fill-rule:nonzero;"/><path d="M645.833,2420.83c10.243,15.364 12.552,27.904 16.667,45.834c-4.125,-1.375 -8.25,-2.75 -12.5,-4.167c-1.375,-13.75 -2.75,-27.5 -4.167,-41.667Z" style="fill:#add8e1;fill-rule:nonzero;"/><path d="M3954.17,1766.67c7.812,2.604 7.812,2.604 16.666,8.333c5.209,13.021 5.209,13.021 8.334,25c-4.125,-2.75 -8.25,-5.5 -12.5,-8.333l-0,-8.334c-5.5,-1.375 -11,-2.75 -16.667,-4.166c1.375,-4.125 2.75,-8.25 4.167,-12.5Z" style="fill:#def3f9;fill-rule:nonzero;"/><path d="M1166.67,1383.33c11,1.375 22,2.75 33.333,4.167c-12.526,12.526 -24.266,10.816 -41.667,12.5c2.75,-5.5 5.5,-11 8.334,-16.667Z" style="fill:#b9e2ef;fill-rule:nonzero;"/><path d="M641.667,2787.5c25,12.5 25,12.5 29.687,25.26c1.203,4.039 2.406,8.079 3.646,12.24c-15.129,-11.04 -24.577,-20.909 -33.333,-37.5Z" style="fill:#c0e1e9;fill-rule:nonzero;"/><path d="M3820.83,2333.33l4.167,0l0,33.334c6.875,1.375 13.75,2.75 20.833,4.166l0,4.167l-29.166,0c1.375,-13.75 2.75,-27.5 4.166,-41.667Z" style="fill:#7cbccd;fill-rule:nonzero;"/><path d="M304.167,2341.67c13.75,6.875 27.5,13.75 41.666,20.833c-21.414,5.354 -26.576,0.925 -45.833,-8.333c1.375,-4.125 2.75,-8.25 4.167,-12.5Z" style="fill:#e5f9fc;fill-rule:nonzero;"/><path d="M3991.67,2300c-2.109,9.036 -4.166,16.665 -8.334,25l-12.5,0c5,-25 5,-25 20.834,-25Z" style="fill:#7ab4c0;fill-rule:nonzero;"/><path d="M2300,2275c14.342,11.083 16.646,24.595 20.833,41.667l-8.333,-0c-1.375,-6.875 -2.75,-13.75 -4.167,-20.834l-8.333,0l0,-20.833Z" style="fill:#e4f9fc;fill-rule:nonzero;"/><path d="M3387.5,3000c-16.5,8.25 -16.5,8.25 -33.333,16.667c1.375,-5.5 2.75,-11 4.166,-16.667c12.543,-3.893 16.111,-4.352 29.167,0Z" style="fill:#b5dae9;fill-rule:nonzero;"/><path d="M1604.17,2791.67c2.75,1.375 5.5,2.75 8.333,4.166c-5.806,14.03 -12.412,20.775 -25,29.167c-2.75,-1.375 -5.5,-2.75 -8.333,-4.167c8.25,-9.625 16.5,-19.25 25,-29.166Z" style="fill:#bee6f3;fill-rule:nonzero;"/><path d="M2987.5,1366.67c6.08,0.475 12.156,1.007 18.229,1.562c5.076,0.435 5.076,0.435 10.254,0.879c9.017,1.725 9.017,1.725 17.35,10.059c-6.072,0.337 -12.15,0.58 -18.229,0.781c-3.384,0.145 -6.767,0.29 -10.254,0.439c-2.975,-0.402 -5.951,-0.805 -9.017,-1.22c-2.75,-4.125 -5.5,-8.25 -8.333,-12.5Z" style="fill:#c8ecf9;fill-rule:nonzero;"/><path d="M1100,1220.83c-1.375,4.125 -2.75,8.25 -4.167,12.5c-13.75,1.375 -27.5,2.75 -41.666,4.167c15.302,-10.202 27.277,-16.667 45.833,-16.667Z" style="fill:#bfdde8;fill-rule:nonzero;"/><path d="M2495.83,2883.33c7.813,0.521 7.813,0.521 16.667,4.167c5.208,12.76 5.208,12.76 8.333,25c-20.312,-15.104 -20.312,-15.104 -25,-29.167Z" style="fill:#bbd9e8;fill-rule:nonzero;"/><path d="M2416.67,2754.17l8.333,-0l0,8.333l8.333,0l0,20.833c-2.75,-1.375 -5.5,-2.75 -8.333,-4.166l0,-8.334l-8.333,0l-0,-16.666Z" style="fill:#c1e0ea;fill-rule:nonzero;"/><path d="M2545.83,2600c10.69,10.689 10.586,18.654 12.5,33.333l-12.5,0l0,-33.333Z" style="fill:#b8dbea;fill-rule:nonzero;"/><path d="M3795.83,1708.33c8.74,9.832 12.371,14.776 13.282,28.125c-0.387,4.641 -0.387,4.641 -0.782,9.375l-8.333,0c-1.375,-12.375 -2.75,-24.75 -4.167,-37.5Z" style="fill:#c3dbe6;fill-rule:nonzero;"/><path d="M3583.33,1675c16.667,19.271 16.667,19.271 16.667,33.333l-8.333,0c-4.125,-9.625 -8.25,-19.25 -12.5,-29.166c1.375,-1.375 2.75,-2.75 4.166,-4.167Z" style="fill:#bbdae4;fill-rule:nonzero;"/></svg>