<?xml version="1.0" encoding="UTF-8"?>
<!-- Generator: visioncortex VTracer -->
<svg id="svg" version="1.1" xmlns="http://www.w3.org/2000/svg" style="display: block;" viewBox="0 0 2048 2048"><path d="M0 0 C675.84 0 1351.68 0 2048 0 C2048 675.84 2048 1351.68 2048 2048 C1372.16 2048 696.32 2048 0 2048 C0 1372.16 0 696.32 0 0 Z " transform="translate(0,0)" style="fill: #FEFEFE;"/><path d="M0 0 C1.33580135 -0.00418467 2.67159813 -0.0101186 4.00738499 -0.01761746 C7.65123466 -0.03307223 11.29465559 -0.02393908 14.93849761 -0.01050565 C18.91288827 -0.00030261 22.88721631 -0.01342062 26.86159796 -0.02347898 C33.8183725 -0.03789024 40.77502276 -0.03750943 47.73180294 -0.02729034 C58.07685378 -0.01213552 68.42180013 -0.01990824 78.76685031 -0.03212357 C97.24476089 -0.05317051 115.7226161 -0.05136742 134.20053193 -0.03980792 C150.37032115 -0.02974212 166.54009008 -0.02712057 182.70988178 -0.0318985 C184.31931597 -0.03235681 184.31931597 -0.03235681 185.96126398 -0.03282438 C190.31683056 -0.03406975 194.67239714 -0.03534335 199.02796371 -0.03666343 C239.87784487 -0.04889664 280.72769079 -0.03780985 321.57756652 -0.01627585 C357.86503829 0.00270762 394.15245391 0.0010066 430.43992519 -0.01811981 C471.21703386 -0.03954083 511.9941114 -0.04803039 552.77122492 -0.03567076 C557.11850384 -0.0343879 561.46578278 -0.03313654 565.81306171 -0.0318985 C566.88345898 -0.03158219 567.95385625 -0.03126588 569.0566898 -0.03093999 C585.21645197 -0.02639126 601.37619161 -0.031709 617.53595066 -0.04181671 C635.910654 -0.05325259 654.28529335 -0.0503968 672.65998871 -0.02869374 C682.9420169 -0.01694965 693.22390652 -0.01618031 703.50593112 -0.03127843 C710.37574981 -0.04025312 717.24545749 -0.03465646 724.11525974 -0.01725936 C728.02814821 -0.00775338 731.94076155 -0.00447131 735.85364128 -0.01888329 C739.41926181 -0.03188208 742.98436524 -0.02620531 746.54994867 -0.00616065 C748.42396994 -0.0002853 750.29802215 -0.01383612 752.17199621 -0.02837777 C767.722695 0.1084688 780.75661294 5.69419912 792.09300137 16.24945831 C805.55950972 30.69216337 805.75337033 46.14631852 805.44456387 64.75336456 C805.42446533 66.86662886 805.4062205 68.97991164 805.38987637 71.09320831 C805.34615348 76.23038964 805.27731112 81.36666968 805.19456387 86.50336456 C802.55456387 86.50336456 799.91456387 86.50336456 797.19456387 86.50336456 C797.19456387 90.46336456 797.19456387 94.42336456 797.19456387 98.50336456 C799.50456387 98.50336456 801.81456387 98.50336456 804.19456387 98.50336456 C804.22755297 139.81496844 804.25918456 181.1265733 804.28977871 222.43817902 C804.2903775 223.24656687 804.29097628 224.05495472 804.29159321 224.88783917 C804.35571128 311.49992521 804.4110514 398.11201158 804.4486227 484.72411346 C804.44945941 486.64779683 804.45029612 488.57148019 804.45113283 490.49516355 C804.46866859 530.87295246 804.48496892 571.25074179 804.49984193 611.62853176 C804.50731436 631.91135069 804.5150242 652.19416952 804.52295851 672.47698827 C804.52415401 675.53659279 804.52534272 678.59619732 804.52653115 681.65580185 C804.54489307 728.77461306 804.56834973 775.89341497 804.60655117 823.01221466 C804.60778326 824.53209155 804.60778326 824.53209155 804.60904024 826.08267303 C804.62231462 842.41949266 804.63601622 858.75631193 804.64977451 875.09313116 C804.68939161 922.1428658 804.72585459 969.1925933 804.74140263 1016.24234295 C804.74172384 1017.20969636 804.74204505 1018.17704977 804.74237599 1019.17371692 C804.74937025 1040.40846458 804.75473953 1061.64321233 804.75856976 1082.87796079 C804.76013951 1091.42185445 804.76194323 1099.96574805 804.76382732 1108.50964165 C804.76402789 1109.44473887 804.76422845 1110.3798361 804.76443509 1111.34326961 C804.77101579 1141.48203843 804.79664906 1171.62075418 804.83225712 1201.75950158 C804.86803371 1232.11461132 804.88516264 1262.46966954 804.87630779 1292.82480091 C804.87508928 1297.01801006 804.874085 1301.21121924 804.87320995 1305.40442848 C804.87303067 1306.22642872 804.87285139 1307.04842895 804.87266667 1307.89533828 C804.8703813 1320.9198728 804.88830237 1333.94429842 804.91462304 1346.96880325 C804.94008023 1359.77099377 804.9442131 1372.5730429 804.92555475 1385.37524677 C804.91615976 1392.22586391 804.91620594 1399.07614903 804.94386296 1405.92672626 C804.96809326 1412.15582317 804.96483227 1418.38426999 804.93940372 1424.61335659 C804.93510923 1426.85585997 804.94093197 1429.09841072 804.95797534 1431.34085345 C805.1219905 1454.376679 805.1219905 1454.376679 796.05291655 1463.70661374 C790.46596346 1468.94398136 786.93223524 1470.62077224 779.19456387 1470.50336456 C779.20344631 1471.0663324 779.21232876 1471.62930023 779.22148037 1472.2093277 C779.31014456 1478.08181327 779.37037696 1483.95410792 779.41429043 1489.82709503 C779.43437493 1492.0172778 779.46164804 1494.20740715 779.49632168 1496.39740753 C779.54497796 1499.55004832 779.56756464 1502.7019786 779.58518887 1505.85492706 C779.61615658 1507.31776627 779.61615658 1507.31776627 779.6477499 1508.81015778 C779.64964071 1514.57101274 779.11769768 1517.97022313 775.19456387 1522.50336456 C770.68299853 1526.36311734 767.09171794 1527.04420954 761.31956387 1526.75336456 C760.63120449 1526.73531769 759.94284512 1526.71727081 759.23362637 1526.69867706 C757.55332577 1526.65200205 755.87375224 1526.58027395 754.19456387 1526.50336456 C754.22936855 1527.15563019 754.26417324 1527.80789581 754.30003262 1528.47992706 C754.46909992 1533.93838575 754.40389014 1537.85537479 751.19456387 1542.50336456 C747.84859521 1545.8363845 745.49145254 1546.96223276 740.74148464 1547.03437042 C740.04730938 1547.02470245 739.35313412 1547.01503448 738.63792324 1547.00507355 C737.89419964 1547.01047653 737.15047604 1547.01587952 736.38421535 1547.02144623 C733.93517192 1547.03391453 731.4873085 1547.01745625 729.03831387 1546.99945831 C727.33107854 1546.99961335 725.62384286 1547.00110305 723.91660976 1547.0038681 C720.34227302 1547.00525124 716.76833795 1546.99270858 713.19407558 1546.9699173 C708.61745107 1546.94153276 704.04149379 1546.94427105 699.46481991 1546.95700741 C695.94057952 1546.96396964 692.41649276 1546.95616911 688.892272 1546.94375038 C687.20501196 1546.93924116 685.5177354 1546.93889445 683.8304739 1546.94281578 C681.47037481 1546.94573339 679.11118814 1546.92919576 676.75120449 1546.9074173 C676.05702923 1546.91191895 675.36285397 1546.91642059 674.64764309 1546.92105865 C670.32568055 1546.85495058 667.5761797 1546.23167559 664.19456387 1543.50336456 C661.19456387 1538.50336456 661.19456387 1538.50336456 661.19456387 1526.50336456 C472.10456387 1526.50336456 283.01456387 1526.50336456 88.19456387 1526.50336456 C88.19456387 1530.46336456 88.19456387 1534.42336456 88.19456387 1538.50336456 C86.18192759 1542.67239684 84.50425058 1544.88839948 80.19456387 1546.50336456 C77.68237796 1546.7081077 75.27966637 1546.80736247 72.76731777 1546.80976105 C72.02534649 1546.81808456 71.28337521 1546.82640808 70.51891994 1546.83498383 C68.06960181 1546.85905085 65.62055015 1546.86785166 63.17112637 1546.87445831 C61.46485725 1546.88342695 59.75858894 1546.89254883 58.05232143 1546.90181732 C54.47634375 1546.91830074 50.90045963 1546.92600628 47.32444668 1546.92890167 C42.74884163 1546.93428581 38.17411927 1546.97196925 33.59876347 1547.01764584 C30.07450579 1547.04743106 26.55046035 1547.05462553 23.02608776 1547.05562782 C21.33960711 1547.059827 19.65312564 1547.07224927 17.96676922 1547.09314537 C15.60405749 1547.12009278 13.24338747 1547.11522626 10.88059902 1547.1027298 C10.18844799 1547.11756409 9.49629696 1547.13239838 8.78317165 1547.14768219 C3.22482315 1547.06423617 0.98422893 1545.26326298 -2.80543613 1541.50336456 C-5.05083327 1538.29565437 -5.02234556 1535.61356036 -4.93043613 1531.75336456 C-4.91238926 1530.76852081 -4.89434238 1529.78367706 -4.87574863 1528.76898956 C-4.85254551 1528.02133331 -4.82934238 1527.27367706 -4.80543613 1526.50336456 C-5.7348502 1526.54977081 -6.66426426 1526.59617706 -7.62184238 1526.64398956 C-20.34346953 1527.01542393 -20.34346953 1527.01542393 -25.80543613 1522.50336456 C-30.46413474 1517.13646777 -30.33915222 1512.61420091 -30.19606113 1505.85492706 C-30.19040134 1504.84239868 -30.18474155 1503.8298703 -30.17891026 1502.78665924 C-30.15659868 1499.5667378 -30.10641086 1496.34794716 -30.05543613 1493.12836456 C-30.03536444 1490.9395786 -30.01711484 1488.75077512 -30.00074863 1486.56195831 C-29.95675118 1481.20871079 -29.88989131 1475.85611848 -29.80543613 1470.50336456 C-31.07757969 1470.52084747 -32.34972324 1470.53833038 -33.6604166 1470.55634308 C-39.6443987 1470.6385802 -43.24604673 1467.93301533 -47.50074863 1463.89398956 C-53.88657175 1456.89846474 -56.41069465 1450.25713397 -56.30223012 1440.84071302 C-56.30734246 1439.89162259 -56.31245481 1438.94253216 -56.31772207 1437.96468142 C-56.32999351 1434.7776145 -56.31371474 1431.59133761 -56.29762745 1428.40429688 C-56.30058591 1426.08923147 -56.30530016 1423.77416776 -56.31161344 1421.45910907 C-56.32262299 1415.74031207 -56.31496191 1410.0217494 -56.29960107 1404.30296742 C-56.28214705 1397.40529489 -56.28812834 1390.50769163 -56.29483517 1383.61000734 C-56.3066988 1370.71936566 -56.29960726 1357.82879641 -56.28225803 1344.93816376 C-56.26475179 1331.87335123 -56.25596698 1318.80857614 -56.25786686 1305.74375153 C-56.25798163 1304.91888197 -56.2580964 1304.09401242 -56.25821464 1303.24414682 C-56.25884014 1299.03821036 -56.25960793 1294.83227394 -56.26042599 1290.62633752 C-56.2660576 1260.1750893 -56.25232704 1229.72387441 -56.22835636 1199.27263641 C-56.20467206 1169.11318039 -56.18925712 1138.95373864 -56.18494511 1108.79427338 C-56.18480746 1107.85787375 -56.18466981 1106.92147413 -56.18452799 1105.95669876 C-56.18327521 1097.40421665 -56.18212444 1088.85173452 -56.18109609 1080.29925237 C-56.17853841 1059.03808879 -56.17470105 1037.77692554 -56.16999531 1016.51576233 C-56.16978204 1015.54754185 -56.16956877 1014.57932137 -56.16934904 1013.58176088 C-56.15886122 966.47554527 -56.13363027 919.36933909 -56.10719395 872.26313019 C-56.09802736 855.91482297 -56.08892593 839.56651572 -56.08009434 823.21820831 C-56.07954654 822.20429412 -56.07899874 821.19037993 -56.07843435 820.14574107 C-56.05306121 773.01741908 -56.03815669 725.88909547 -56.02595516 678.76076843 C-56.0251629 675.70141792 -56.02436613 672.64206741 -56.02356844 669.5827169 C-56.01828935 649.30835721 -56.01319074 629.03399746 -56.008213 608.75963769 C-55.99830682 568.41818763 -55.98734008 528.07673788 -55.97564481 487.73528829 C-55.97508785 485.81409371 -55.97453164 483.89289913 -55.97397616 481.97170454 C-55.94896166 395.47639385 -55.91160921 308.98109007 -55.8689127 222.48578644 C-55.86851296 221.67582382 -55.86811321 220.8658612 -55.86770136 220.03135426 C-55.84769924 179.52202397 -55.82699316 139.01269406 -55.80543613 98.50336456 C-53.82543613 98.50336456 -51.84543613 98.50336456 -49.80543613 98.50336456 C-49.80543613 94.87336456 -49.80543613 91.24336456 -49.80543613 87.50336456 C-52.11543613 87.50336456 -54.42543613 87.50336456 -56.80543613 87.50336456 C-56.88014979 81.43853126 -56.93430269 75.3739718 -56.97023106 69.30878448 C-56.98522471 67.24981767 -57.00562647 65.19088229 -57.03175449 63.13202667 C-57.25406497 45.15103264 -56.12937627 29.00768089 -43.05543613 15.12836456 C-30.52164971 3.74711022 -16.71066721 -0.12992335 0 0 Z " transform="translate(647.8054361343384,250.49663543701172)" style="fill: #FEFEFE;"/><path d="M0 0 C1.33580135 -0.00418467 2.67159813 -0.0101186 4.00738499 -0.01761746 C7.65123466 -0.03307223 11.29465559 -0.02393908 14.93849761 -0.01050565 C18.91288827 -0.00030261 22.88721631 -0.01342062 26.86159796 -0.02347898 C33.8183725 -0.03789024 40.77502276 -0.03750943 47.73180294 -0.02729034 C58.07685378 -0.01213552 68.42180013 -0.01990824 78.76685031 -0.03212357 C97.24476089 -0.05317051 115.7226161 -0.05136742 134.20053193 -0.03980792 C150.37032115 -0.02974212 166.54009008 -0.02712057 182.70988178 -0.0318985 C184.31931597 -0.03235681 184.31931597 -0.03235681 185.96126398 -0.03282438 C190.31683056 -0.03406975 194.67239714 -0.03534335 199.02796371 -0.03666343 C239.87784487 -0.04889664 280.72769079 -0.03780985 321.57756652 -0.01627585 C357.86503829 0.00270762 394.15245391 0.0010066 430.43992519 -0.01811981 C471.21703386 -0.03954083 511.9941114 -0.04803039 552.77122492 -0.03567076 C557.11850384 -0.0343879 561.46578278 -0.03313654 565.81306171 -0.0318985 C566.88345898 -0.03158219 567.95385625 -0.03126588 569.0566898 -0.03093999 C585.21645197 -0.02639126 601.37619161 -0.031709 617.53595066 -0.04181671 C635.910654 -0.05325259 654.28529335 -0.0503968 672.65998871 -0.02869374 C682.9420169 -0.01694965 693.22390652 -0.01618031 703.50593112 -0.03127843 C710.37574981 -0.04025312 717.24545749 -0.03465646 724.11525974 -0.01725936 C728.02814821 -0.00775338 731.94076155 -0.00447131 735.85364128 -0.01888329 C739.41926181 -0.03188208 742.98436524 -0.02620531 746.54994867 -0.00616065 C748.42396994 -0.0002853 750.29802215 -0.01383612 752.17199621 -0.02837777 C767.722695 0.1084688 780.75661294 5.69419912 792.09300137 16.24945831 C805.55950972 30.69216337 805.75337033 46.14631852 805.44456387 64.75336456 C805.42446533 66.86662886 805.4062205 68.97991164 805.38987637 71.09320831 C805.34615348 76.23038964 805.27731112 81.36666968 805.19456387 86.50336456 C802.55456387 86.50336456 799.91456387 86.50336456 797.19456387 86.50336456 C797.19456387 90.46336456 797.19456387 94.42336456 797.19456387 98.50336456 C799.50456387 98.50336456 801.81456387 98.50336456 804.19456387 98.50336456 C804.22755297 139.81496844 804.25918456 181.1265733 804.28977871 222.43817902 C804.2903775 223.24656687 804.29097628 224.05495472 804.29159321 224.88783917 C804.35571128 311.49992521 804.4110514 398.11201158 804.4486227 484.72411346 C804.44945941 486.64779683 804.45029612 488.57148019 804.45113283 490.49516355 C804.46866859 530.87295246 804.48496892 571.25074179 804.49984193 611.62853176 C804.50731436 631.91135069 804.5150242 652.19416952 804.52295851 672.47698827 C804.52415401 675.53659279 804.52534272 678.59619732 804.52653115 681.65580185 C804.54489307 728.77461306 804.56834973 775.89341497 804.60655117 823.01221466 C804.60778326 824.53209155 804.60778326 824.53209155 804.60904024 826.08267303 C804.62231462 842.41949266 804.63601622 858.75631193 804.64977451 875.09313116 C804.68939161 922.1428658 804.72585459 969.1925933 804.74140263 1016.24234295 C804.74172384 1017.20969636 804.74204505 1018.17704977 804.74237599 1019.17371692 C804.74937025 1040.40846458 804.75473953 1061.64321233 804.75856976 1082.87796079 C804.76013951 1091.42185445 804.76194323 1099.96574805 804.76382732 1108.50964165 C804.76402789 1109.44473887 804.76422845 1110.3798361 804.76443509 1111.34326961 C804.77101579 1141.48203843 804.79664906 1171.62075418 804.83225712 1201.75950158 C804.86803371 1232.11461132 804.88516264 1262.46966954 804.87630779 1292.82480091 C804.87508928 1297.01801006 804.874085 1301.21121924 804.87320995 1305.40442848 C804.87303067 1306.22642872 804.87285139 1307.04842895 804.87266667 1307.89533828 C804.8703813 1320.9198728 804.88830237 1333.94429842 804.91462304 1346.96880325 C804.94008023 1359.77099377 804.9442131 1372.5730429 804.92555475 1385.37524677 C804.91615976 1392.22586391 804.91620594 1399.07614903 804.94386296 1405.92672626 C804.96809326 1412.15582317 804.96483227 1418.38426999 804.93940372 1424.61335659 C804.93510923 1426.85585997 804.94093197 1429.09841072 804.95797534 1431.34085345 C805.1219905 1454.376679 805.1219905 1454.376679 796.05291655 1463.70661374 C790.46596346 1468.94398136 786.93223524 1470.62077224 779.19456387 1470.50336456 C779.20344631 1471.0663324 779.21232876 1471.62930023 779.22148037 1472.2093277 C779.31014456 1478.08181327 779.37037696 1483.95410792 779.41429043 1489.82709503 C779.43437493 1492.0172778 779.46164804 1494.20740715 779.49632168 1496.39740753 C779.54497796 1499.55004832 779.56756464 1502.7019786 779.58518887 1505.85492706 C779.61615658 1507.31776627 779.61615658 1507.31776627 779.6477499 1508.81015778 C779.64964071 1514.57101274 779.11769768 1517.97022313 775.19456387 1522.50336456 C770.68299853 1526.36311734 767.09171794 1527.04420954 761.31956387 1526.75336456 C760.63120449 1526.73531769 759.94284512 1526.71727081 759.23362637 1526.69867706 C757.55332577 1526.65200205 755.87375224 1526.58027395 754.19456387 1526.50336456 C754.22936855 1527.15563019 754.26417324 1527.80789581 754.30003262 1528.47992706 C754.46909992 1533.93838575 754.40389014 1537.85537479 751.19456387 1542.50336456 C747.84859521 1545.8363845 745.49145254 1546.96223276 740.74148464 1547.03437042 C740.04730938 1547.02470245 739.35313412 1547.01503448 738.63792324 1547.00507355 C737.89419964 1547.01047653 737.15047604 1547.01587952 736.38421535 1547.02144623 C733.93517192 1547.03391453 731.4873085 1547.01745625 729.03831387 1546.99945831 C727.33107854 1546.99961335 725.62384286 1547.00110305 723.91660976 1547.0038681 C720.34227302 1547.00525124 716.76833795 1546.99270858 713.19407558 1546.9699173 C708.61745107 1546.94153276 704.04149379 1546.94427105 699.46481991 1546.95700741 C695.94057952 1546.96396964 692.41649276 1546.95616911 688.892272 1546.94375038 C687.20501196 1546.93924116 685.5177354 1546.93889445 683.8304739 1546.94281578 C681.47037481 1546.94573339 679.11118814 1546.92919576 676.75120449 1546.9074173 C676.05702923 1546.91191895 675.36285397 1546.91642059 674.64764309 1546.92105865 C670.32568055 1546.85495058 667.5761797 1546.23167559 664.19456387 1543.50336456 C661.19456387 1538.50336456 661.19456387 1538.50336456 661.19456387 1526.50336456 C472.10456387 1526.50336456 283.01456387 1526.50336456 88.19456387 1526.50336456 C88.19456387 1530.46336456 88.19456387 1534.42336456 88.19456387 1538.50336456 C86.18192759 1542.67239684 84.50425058 1544.88839948 80.19456387 1546.50336456 C77.68237796 1546.7081077 75.27966637 1546.80736247 72.76731777 1546.80976105 C72.02534649 1546.81808456 71.28337521 1546.82640808 70.51891994 1546.83498383 C68.06960181 1546.85905085 65.62055015 1546.86785166 63.17112637 1546.87445831 C61.46485725 1546.88342695 59.75858894 1546.89254883 58.05232143 1546.90181732 C54.47634375 1546.91830074 50.90045963 1546.92600628 47.32444668 1546.92890167 C42.74884163 1546.93428581 38.17411927 1546.97196925 33.59876347 1547.01764584 C30.07450579 1547.04743106 26.55046035 1547.05462553 23.02608776 1547.05562782 C21.33960711 1547.059827 19.65312564 1547.07224927 17.96676922 1547.09314537 C15.60405749 1547.12009278 13.24338747 1547.11522626 10.88059902 1547.1027298 C10.18844799 1547.11756409 9.49629696 1547.13239838 8.78317165 1547.14768219 C3.22482315 1547.06423617 0.98422893 1545.26326298 -2.80543613 1541.50336456 C-5.05083327 1538.29565437 -5.02234556 1535.61356036 -4.93043613 1531.75336456 C-4.91238926 1530.76852081 -4.89434238 1529.78367706 -4.87574863 1528.76898956 C-4.85254551 1528.02133331 -4.82934238 1527.27367706 -4.80543613 1526.50336456 C-5.7348502 1526.54977081 -6.66426426 1526.59617706 -7.62184238 1526.64398956 C-20.34346953 1527.01542393 -20.34346953 1527.01542393 -25.80543613 1522.50336456 C-30.46413474 1517.13646777 -30.33915222 1512.61420091 -30.19606113 1505.85492706 C-30.19040134 1504.84239868 -30.18474155 1503.8298703 -30.17891026 1502.78665924 C-30.15659868 1499.5667378 -30.10641086 1496.34794716 -30.05543613 1493.12836456 C-30.03536444 1490.9395786 -30.01711484 1488.75077512 -30.00074863 1486.56195831 C-29.95675118 1481.20871079 -29.88989131 1475.85611848 -29.80543613 1470.50336456 C-31.07757969 1470.52084747 -32.34972324 1470.53833038 -33.6604166 1470.55634308 C-39.6443987 1470.6385802 -43.24604673 1467.93301533 -47.50074863 1463.89398956 C-53.88657175 1456.89846474 -56.41069465 1450.25713397 -56.30223012 1440.84071302 C-56.30734246 1439.89162259 -56.31245481 1438.94253216 -56.31772207 1437.96468142 C-56.32999351 1434.7776145 -56.31371474 1431.59133761 -56.29762745 1428.40429688 C-56.30058591 1426.08923147 -56.30530016 1423.77416776 -56.31161344 1421.45910907 C-56.32262299 1415.74031207 -56.31496191 1410.0217494 -56.29960107 1404.30296742 C-56.28214705 1397.40529489 -56.28812834 1390.50769163 -56.29483517 1383.61000734 C-56.3066988 1370.71936566 -56.29960726 1357.82879641 -56.28225803 1344.93816376 C-56.26475179 1331.87335123 -56.25596698 1318.80857614 -56.25786686 1305.74375153 C-56.25798163 1304.91888197 -56.2580964 1304.09401242 -56.25821464 1303.24414682 C-56.25884014 1299.03821036 -56.25960793 1294.83227394 -56.26042599 1290.62633752 C-56.2660576 1260.1750893 -56.25232704 1229.72387441 -56.22835636 1199.27263641 C-56.20467206 1169.11318039 -56.18925712 1138.95373864 -56.18494511 1108.79427338 C-56.18480746 1107.85787375 -56.18466981 1106.92147413 -56.18452799 1105.95669876 C-56.18327521 1097.40421665 -56.18212444 1088.85173452 -56.18109609 1080.29925237 C-56.17853841 1059.03808879 -56.17470105 1037.77692554 -56.16999531 1016.51576233 C-56.16978204 1015.54754185 -56.16956877 1014.57932137 -56.16934904 1013.58176088 C-56.15886122 966.47554527 -56.13363027 919.36933909 -56.10719395 872.26313019 C-56.09802736 855.91482297 -56.08892593 839.56651572 -56.08009434 823.21820831 C-56.07954654 822.20429412 -56.07899874 821.19037993 -56.07843435 820.14574107 C-56.05306121 773.01741908 -56.03815669 725.88909547 -56.02595516 678.76076843 C-56.0251629 675.70141792 -56.02436613 672.64206741 -56.02356844 669.5827169 C-56.01828935 649.30835721 -56.01319074 629.03399746 -56.008213 608.75963769 C-55.99830682 568.41818763 -55.98734008 528.07673788 -55.97564481 487.73528829 C-55.97508785 485.81409371 -55.97453164 483.89289913 -55.97397616 481.97170454 C-55.94896166 395.47639385 -55.91160921 308.98109007 -55.8689127 222.48578644 C-55.86851296 221.67582382 -55.86811321 220.8658612 -55.86770136 220.03135426 C-55.84769924 179.52202397 -55.82699316 139.01269406 -55.80543613 98.50336456 C-53.82543613 98.50336456 -51.84543613 98.50336456 -49.80543613 98.50336456 C-49.80543613 94.87336456 -49.80543613 91.24336456 -49.80543613 87.50336456 C-52.11543613 87.50336456 -54.42543613 87.50336456 -56.80543613 87.50336456 C-56.88014979 81.43853126 -56.93430269 75.3739718 -56.97023106 69.30878448 C-56.98522471 67.24981767 -57.00562647 65.19088229 -57.03175449 63.13202667 C-57.25406497 45.15103264 -56.12937627 29.00768089 -43.05543613 15.12836456 C-30.52164971 3.74711022 -16.71066721 -0.12992335 0 0 Z M-48.80543613 104.50336456 C-48.92024991 337.70386762 -48.92024991 337.70386762 -48.99809599 570.90437603 C-48.99853349 572.71332848 -48.99897117 574.52228093 -48.99940902 576.33123338 C-48.99962852 577.23825952 -48.99984803 578.14528565 -49.00007419 579.07979743 C-49.00784047 611.12539425 -49.01586805 643.170991 -49.02435316 675.21658764 C-49.02516073 678.27522385 -49.02596145 681.33386007 -49.02676049 684.39249629 C-49.03902388 731.23723543 -49.05463429 778.0819704 -49.08009434 824.92670441 C-49.08064193 825.93436188 -49.08118953 826.94201936 -49.08175372 827.98021191 C-49.09060339 844.22700558 -49.09973775 860.47379909 -49.1089099 876.72059258 C-49.13531879 923.50686788 -49.15962832 970.29313999 -49.16999531 1017.079422 C-49.17031652 1018.52210182 -49.17031652 1018.52210182 -49.17064422 1019.99392669 C-49.17530689 1041.10566552 -49.17888648 1062.21740439 -49.18144007 1083.32914358 C-49.18248658 1091.82333888 -49.18368906 1100.31753416 -49.18494511 1108.81172943 C-49.18507882 1109.74139164 -49.18521252 1110.67105386 -49.18535028 1111.62888765 C-49.18973856 1141.6003654 -49.2068313 1171.57181943 -49.23056497 1201.5432876 C-49.25440787 1231.72595835 -49.26583757 1261.90860607 -49.25993209 1292.09128648 C-49.25911973 1296.25917866 -49.25845021 1300.42707085 -49.25786686 1304.59496307 C-49.25774734 1305.4120117 -49.25762782 1306.22906034 -49.25750467 1307.07086802 C-49.25598016 1320.02514999 -49.26793665 1332.97938336 -49.28547558 1345.93365208 C-49.3024328 1358.66184907 -49.30521293 1371.38998287 -49.29276339 1384.11818581 C-49.28649314 1390.93119132 -49.28709499 1397.74402419 -49.30496886 1404.55701441 C-49.32108933 1410.74840544 -49.31898022 1416.93950544 -49.30199604 1423.13089171 C-49.29912646 1425.36315152 -49.30304167 1427.59543236 -49.31437711 1429.82766524 C-49.32875563 1432.84947134 -49.31860296 1435.87023606 -49.30223012 1438.89200926 C-49.31226563 1439.75797465 -49.32230114 1440.62394004 -49.33264075 1441.51614681 C-49.25470311 1448.22287513 -47.48476921 1453.52444361 -42.95387363 1458.56195831 C-42.36863926 1459.01699738 -41.78340488 1459.47203644 -41.18043613 1459.94086456 C-40.2948502 1460.65049347 -40.2948502 1460.65049347 -39.39137363 1461.37445831 C-36.24649527 1463.613054 -34.14876735 1463.62938899 -30.32120454 1463.63216573 C-28.55873446 1463.63707402 -28.55873446 1463.63707402 -26.76065892 1463.64208147 C-25.45584516 1463.64059785 -24.15103139 1463.63911422 -22.80667782 1463.63758564 C-21.41172707 1463.63953718 -20.01677687 1463.64192548 -18.62182754 1463.64471361 C-14.75796063 1463.6511416 -10.89411444 1463.65127301 -7.0302432 1463.6504362 C-2.83815269 1463.65060515 1.35393027 1463.65650509 5.54601705 1463.66167706 C13.87431583 1463.67102329 22.20260929 1463.6749285 30.53091266 1463.67719603 C40.50088839 1463.68015285 50.47085702 1463.68884718 60.44082903 1463.69761031 C84.54215478 1463.71847697 108.64348177 1463.72892794 132.74481444 1463.73773992 C144.14091504 1463.7419432 155.53701511 1463.74716561 166.93311527 1463.75242445 C205.92414148 1463.77031642 244.91516784 1463.78531363 283.90619755 1463.79274464 C286.35510994 1463.7932194 288.80402233 1463.79369529 291.25293472 1463.7941723 C292.46740613 1463.79440867 293.68187754 1463.79464505 294.93315112 1463.79488859 C301.08653219 1463.79608982 307.23991326 1463.79730526 313.39329433 1463.79853058 C314.61446381 1463.79877073 315.83563329 1463.79901088 317.0938079 1463.79925831 C356.69901802 1463.8071536 396.30419821 1463.83058926 435.90939525 1463.86308652 C477.75767766 1463.89736177 519.60594256 1463.91709364 561.45423925 1463.92038888 C566.0456733 1463.92080643 570.63710734 1463.921286 575.22854137 1463.92181206 C576.92441844 1463.92199684 576.92441844 1463.92199684 578.65455564 1463.92218537 C596.87203183 1463.92452027 615.08947334 1463.94019644 633.30693715 1463.9606539 C651.60879181 1463.98088051 669.91060469 1463.98640423 688.21246846 1463.97688327 C699.09315221 1463.97165595 709.97369717 1463.9776037 720.85436103 1463.99941794 C728.1172557 1464.01288185 735.38005439 1464.01188822 742.64294993 1463.99901598 C746.78466616 1463.99208987 750.92611624 1463.9915498 755.06780918 1464.00857607 C758.83533725 1464.02393837 762.60238431 1464.02090356 766.36989785 1464.00316579 C768.36400329 1463.99852771 770.35812485 1464.01353374 772.35217315 1464.02932557 C780.99197151 1463.96220095 786.63079722 1462.98793639 793.00706387 1456.75336456 C797.61839055 1449.90225064 798.63729325 1443.96196716 798.56715935 1435.91124535 C798.57099361 1434.96979362 798.57482787 1434.02834189 798.57877832 1433.05836132 C798.58798066 1429.89744918 798.57577301 1426.73698523 798.56370735 1423.57608795 C798.56592622 1421.27978347 798.56946193 1418.98347994 798.57419685 1416.68717927 C798.58342359 1410.34865409 798.57386231 1404.01027274 798.56136244 1397.67175825 C798.55065914 1391.49660326 798.55707305 1385.32145317 798.56161314 1379.14629443 C798.57051067 1366.36061198 798.56519242 1353.57497062 798.55218029 1340.78929329 C798.53905046 1327.8309132 798.53246202 1314.87255435 798.53388691 1301.9141674 C798.53397299 1301.0960072 798.53405906 1300.277847 798.53414775 1299.43489406 C798.53461687 1295.26316552 798.53519271 1291.09143699 798.53580626 1286.91970847 C798.54002993 1256.7163946 798.52973217 1226.51309963 798.51175404 1196.30979156 C798.49399072 1166.39595191 798.48242958 1136.48212035 798.47919559 1106.56827545 C798.47909236 1105.63949671 798.47898912 1104.71071796 798.47888276 1103.7537944 C798.47794317 1095.2709147 798.4770801 1086.78803499 798.47630884 1078.30515527 C798.47439057 1057.21703484 798.47151256 1036.12891459 798.46798325 1015.04079437 C798.46782329 1014.0804549 798.46766334 1013.12011543 798.46749854 1012.13067476 C798.45963271 965.40805919 798.44070951 918.68544898 798.42088223 871.96283722 C798.41400729 855.74768833 798.40718121 839.53253943 798.40055752 823.31739044 C798.40014667 822.31173447 798.39973582 821.30607849 798.39931253 820.2699481 C798.3802847 773.53045179 798.36913727 726.79095459 798.35995906 680.05145543 C798.35935735 676.9936125 798.35875045 673.93576957 798.35814185 670.87792663 C798.3518017 639.01101122 798.34584043 607.14409574 798.34004353 575.27718022 C798.33987789 574.36675411 798.33971225 573.456328 798.33954158 572.51831322 C798.33924043 570.86175914 798.3389397 569.20520506 798.33863962 567.54865099 C798.3105995 413.20021216 798.25011153 258.85180055 798.19456387 104.50336456 C518.68456387 104.50336456 239.17456387 104.50336456 -48.80543613 104.50336456 Z " transform="translate(647.8054361343384,250.49663543701172)" style="fill: #3B3B3B;"/><path d="M0 0 C279.51 0 559.02 0 847 0 C847.16160591 336.74630767 847.16160591 336.74630767 847.19265985 465.31091273 C847.19309736 467.11571597 847.19353504 468.9205192 847.19397289 470.72532244 C847.19419239 471.63026811 847.19441189 472.53521378 847.19463805 473.46758204 C847.20240431 505.43958914 847.21043189 537.41159616 847.21891702 569.38360307 C847.2197246 572.43520778 847.22052531 575.48681249 847.22132435 578.5384172 C847.23358738 625.27406835 847.24919709 672.00971532 847.2746582 718.74536133 C847.2752058 719.75063023 847.27575339 720.75589912 847.27631758 721.79163072 C847.28516722 737.99985579 847.2943016 754.20808071 847.30347376 770.41630561 C847.32988353 817.0929659 847.35419275 863.769623 847.36455917 910.44629002 C847.36477331 911.40587523 847.36498745 912.36546044 847.36520808 913.35412399 C847.36987081 934.41782268 847.37345038 955.48152142 847.37600393 976.54522047 C847.37705044 985.02015821 847.37825292 993.49509593 847.37950897 1001.97003365 C847.37964268 1002.8975867 847.37977639 1003.82513975 847.37991415 1004.78080046 C847.38430203 1034.68154247 847.40139342 1064.5822607 847.42512883 1094.48299311 C847.44897457 1124.59580088 847.46040065 1154.70858558 847.45449595 1184.82140303 C847.4536836 1188.98016706 847.45301408 1193.1389311 847.45243073 1197.29769516 C847.4523112 1198.11295044 847.45219168 1198.92820571 847.45206854 1199.76816569 C847.45054435 1212.69115943 847.46249768 1225.61410443 847.48003945 1238.53708488 C847.4970016 1251.23625264 847.49977308 1263.93535705 847.48732725 1276.63453078 C847.48105944 1283.43129369 847.48164961 1290.22788359 847.49953273 1297.02463114 C847.51566457 1303.20245464 847.5135329 1309.37998658 847.4965599 1315.55780537 C847.49369261 1317.78403229 847.49759619 1320.01028034 847.50894098 1322.2364802 C847.52334189 1325.25257178 847.51314982 1328.26762325 847.49679399 1331.28368229 C847.50682949 1332.14516104 847.516865 1333.00663979 847.52720462 1333.89422397 C847.44259734 1341.18016894 845.06575793 1346.6800319 841.25 1352.8125 C834.14193165 1359.72312201 826.66577451 1359.57309036 817.26295471 1359.50895119 C815.86100482 1359.51373469 814.45906 1359.52026752 813.05712545 1359.52838439 C809.20169242 1359.54562067 805.34664892 1359.53797353 801.49120991 1359.52627294 C797.2979387 1359.51793355 793.10473867 1359.53273548 788.91148472 1359.54457796 C781.56126964 1359.56211335 774.21116601 1359.56472219 766.86093521 1359.55757141 C755.93100022 1359.54696606 745.00117329 1359.5591391 734.07125005 1359.57573728 C713.4165647 1359.60624049 692.76192833 1359.60962512 672.10722518 1359.60469122 C656.1606803 1359.60102813 640.21415151 1359.60453929 624.26760864 1359.61314011 C621.97785936 1359.6143449 619.68811007 1359.61554729 617.39836079 1359.61674731 C613.94808928 1359.61856178 610.49781777 1359.62037911 607.04754627 1359.62221201 C574.9635561 1359.63907437 542.87957199 1359.64774009 510.795578 1359.63939857 C508.98080328 1359.63892945 508.98080328 1359.63892945 507.12936644 1359.63845084 C500.99713942 1359.63683924 494.86491243 1359.63514769 488.73268545 1359.63342424 C487.5147691 1359.63308206 486.29685275 1359.63273989 485.04202984 1359.63238734 C482.57910744 1359.63169403 480.11618503 1359.63099697 477.65326263 1359.63029617 C439.31926111 1359.61957871 400.98535156 1359.63544986 362.65136719 1359.67236328 C319.59966701 1359.71377087 276.54802382 1359.73525509 233.4963026 1359.72721231 C228.9083322 1359.72642159 224.32036178 1359.7256985 219.73239136 1359.72501755 C218.0378328 1359.72474535 218.0378328 1359.72474535 216.30904073 1359.72446766 C199.23653097 1359.72213328 182.16407866 1359.73545057 165.09158325 1359.75664139 C145.68268593 1359.78070738 126.27391537 1359.78390717 106.86501622 1359.75906105 C95.9975764 1359.74577276 85.1304394 1359.74913709 74.2630236 1359.77623808 C67.00915653 1359.79267301 59.75551733 1359.787403 52.50166894 1359.76428755 C48.36513129 1359.75172036 44.22918639 1359.74871042 40.092682 1359.77201422 C36.32980837 1359.79301865 32.56803217 1359.78643657 28.80521806 1359.75780516 C26.81373488 1359.74976966 24.82219941 1359.77117583 22.83082807 1359.79375929 C16.07204606 1359.71124868 11.71673031 1359.12534478 6.50509411 1354.65236273 C4.07077815 1351.97985678 2.56649047 1349.25830017 1 1346 C0.67 1345.34 0.34 1344.68 0 1344 C-0.09760081 1341.03687014 -0.13263741 1338.09724842 -0.1241985 1335.13383567 C-0.12547658 1334.19796918 -0.12675467 1333.26210269 -0.12807148 1332.2978766 C-0.13116659 1329.11995381 -0.12705176 1325.94207948 -0.12304783 1322.76415825 C-0.12378663 1320.46973189 -0.12496431 1318.17530564 -0.12654433 1315.8808797 C-0.12930752 1310.19004037 -0.12737003 1304.49921569 -0.12354124 1298.8083773 C-0.11919271 1291.94917307 -0.12067004 1285.08997325 -0.12234976 1278.2307683 C-0.1253212 1265.41018894 -0.12353616 1252.58961413 -0.11920547 1239.76903534 C-0.11483361 1226.7694379 -0.11263217 1213.7698428 -0.11310768 1200.7702446 C-0.11313637 1199.95042673 -0.11316507 1199.13060885 -0.11319463 1198.28594801 C-0.11335099 1194.10599573 -0.11354294 1189.92604344 -0.11374746 1185.74609116 C-0.1151565 1155.45913305 -0.11171882 1125.17217704 -0.10573006 1094.88521957 C-0.09981169 1064.88268905 -0.09595579 1034.88015943 -0.09487724 1004.87762833 C-0.09484283 1003.94656469 -0.09480842 1003.01550105 -0.09477296 1002.05622336 C-0.09445977 993.55264522 -0.09417208 985.04906709 -0.09391499 976.54548894 C-0.09327552 955.40462468 -0.09231615 934.26376044 -0.09113979 913.12289619 C-0.09108648 912.16008745 -0.09103316 911.19727871 -0.09097823 910.20529394 C-0.08835542 863.34698599 -0.08204733 816.48867863 -0.07543945 769.63037109 C-0.07314783 753.36535645 -0.07087249 737.1003418 -0.06866455 720.83532715 C-0.0685276 719.82659724 -0.06839065 718.81786733 -0.06824955 717.77856985 C-0.06190855 670.90819589 -0.05819165 624.03782184 -0.05513173 577.16744757 C-0.05493116 574.10154874 -0.05472886 571.03564991 -0.05452599 567.96975107 C-0.05241265 536.01944344 -0.05042555 504.0691358 -0.04849322 472.11882815 C-0.04843801 471.20603301 -0.04838279 470.29323788 -0.04832591 469.35278229 C-0.04822552 467.69191917 -0.04812528 466.03105606 -0.04802525 464.37019294 C-0.03867612 309.58012752 -0.01851408 154.79006511 0 0 Z M29 1 C29 440.89 29 880.78 29 1334 C56.78592375 1334.01125123 56.78592375 1334.01125123 84.51577759 1333.20236206 C90.13225929 1332.95469452 95.74966465 1332.73043308 101.3671875 1332.5078125 C102.500923 1332.4627507 103.63465851 1332.4176889 104.80274963 1332.3712616 C118.50758785 1331.84212222 132.2177443 1331.57332604 145.93041992 1331.34204102 C146.8279599 1331.32573639 147.72549988 1331.30943176 148.65023804 1331.29263306 C150.27577284 1331.26340199 151.90136346 1331.2369959 153.52700806 1331.21469116 C158.57191803 1331.12353399 163.5947688 1330.84838131 168.62890625 1330.51586914 C175.96390752 1330.03437585 183.29437644 1329.74897382 190.64313316 1329.55444336 C192.77997469 1329.49786165 194.91669582 1329.43776227 197.05342102 1329.37695312 C201.59803197 1329.24825601 206.14275887 1329.12399923 210.6875 1329 C216.67065049 1328.83605614 222.65373607 1328.66996355 228.63671875 1328.5 C229.3639212 1328.47939577 230.09112366 1328.45879154 230.84036255 1328.43756294 C239.96132037 1328.17674671 249.07367835 1327.84260668 258.18641663 1327.37046814 C269.47724211 1326.7992641 280.77949634 1326.52159163 292.07919312 1326.18432617 C311.66087194 1325.5970649 331.23233912 1324.97928973 350.78564453 1323.74145508 C352.14224552 1323.65564965 353.49885358 1323.56995586 354.85546875 1323.484375 C355.85335419 1323.42125374 355.85335419 1323.42125374 356.87139893 1323.3568573 C361.82504607 1323.05180858 366.7790183 1322.83113205 371.73828125 1322.640625 C406.067379 1321.29527615 440.30436414 1318.61401215 474.5606842 1316.06692505 C484.05990145 1315.36110018 493.55981675 1314.66963632 503.0625 1314.01171875 C504.05015854 1313.94304092 505.03781708 1313.8743631 506.05540466 1313.80360413 C512.99077433 1313.32207942 512.99077433 1313.32207942 516.43972778 1313.09011841 C525.21584651 1312.49936464 533.94112089 1311.71653505 542.67897034 1310.71096802 C548.44545597 1310.0489703 554.21118536 1309.54943006 560 1309.125 C570.25844871 1308.31887534 580.46968447 1307.20365044 590.6875 1306 C591.40429932 1305.91623108 592.12109863 1305.83246216 592.85961914 1305.74615479 C600.97395588 1304.79392419 609.05758053 1303.72549634 617.12817383 1302.44677734 C619.60366737 1302.06165848 622.07778625 1301.71329112 624.5625 1301.39453125 C635.60009674 1299.96370865 646.54007713 1298.06499273 657.47827148 1296.02182007 C659.09473718 1295.71990622 660.71159064 1295.42005981 662.32885742 1295.12246704 C672.41571562 1293.25981613 682.17713655 1290.98292946 692 1288 C694.06230607 1287.41598141 696.12478079 1286.83255771 698.1875 1286.25 C721.52072703 1278.93702519 743.94178781 1267.52588898 757 1246 C757.65613281 1244.94039062 758.31226563 1243.88078125 758.98828125 1242.7890625 C765.5927351 1231.85067913 770.23278431 1220.19750935 774 1208 C774.23203125 1207.28457031 774.4640625 1206.56914063 774.703125 1205.83203125 C778.53585745 1193.66106704 781.07876906 1181.12432692 783.34765625 1168.58203125 C783.8854045 1165.62924596 784.45771652 1162.68952903 785.0625 1159.75 C786.80487598 1151.05263992 788.11993673 1142.48277039 788.70703125 1133.62719727 C789.00017188 1129.99787194 789.4335919 1126.41427812 789.91015625 1122.8046875 C791.01376167 1114.20182082 791.88703728 1105.58341717 792.69506836 1096.94824219 C792.92756632 1094.48043905 793.16956411 1092.01370737 793.41210938 1089.546875 C796.91679766 1052.90645077 798.58902838 1016.06731518 800.34469223 979.31012344 C800.50318634 975.99587087 800.66322531 972.68169519 800.82339478 969.36752319 C802.60297283 932.40750914 803.96484737 895.44304645 805.01171875 858.45532227 C805.11540679 854.81004478 805.21963296 851.16478309 805.32421875 847.51953125 C805.34952038 846.63219048 805.37482201 845.7448497 805.40089035 844.83061981 C805.80240517 830.90074289 806.37294219 816.98300124 807.01953125 803.0625 C807.86045926 784.95516819 808.46062927 766.85366476 808.89111328 748.7322998 C809.08112759 740.7469864 809.28893566 732.76212518 809.5 724.77734375 C809.52071564 723.99162617 809.54143127 723.20590858 809.56277466 722.39638138 C809.90977743 709.34086838 810.40101576 696.29647923 811 683.25 C811.90630037 663.21425666 812.4903956 643.17400592 813 623.125 C813.02047771 622.32013783 813.04095543 621.51527565 813.06205368 620.68602371 C813.61612862 598.81413975 814.09315853 576.94082137 814.53515625 555.06640625 C814.55735607 553.96929573 814.57955589 552.87218521 814.60242844 551.74182892 C814.82168138 540.88777981 815.03775292 530.03368142 815.24383736 519.17937374 C815.93955707 482.6209237 815.93955707 482.6209237 816.65589905 466.69696045 C817.28295799 452.30731345 817.36120252 437.89984623 817.55224609 423.49926758 C817.89644862 398.10248922 817.89644862 398.10248922 818.47265625 385.80078125 C818.98120858 374.84425206 819.23694208 363.88707931 819.46484375 352.921875 C819.48386938 352.00821922 819.50289501 351.09456345 819.52249718 350.15322113 C819.62184251 345.35538226 819.71934127 340.55750776 819.81594849 335.75961304 C820.02326632 325.47629913 820.23993886 315.19318464 820.4609375 304.91015625 C820.48302591 303.88184 820.50511433 302.85352375 820.52787209 301.7940464 C820.9359846 282.92164911 821.46926779 264.05485364 822.0625 245.1875 C822.76992496 222.65586322 823.24992079 200.12864873 823.55252075 177.587677 C823.82674377 157.42182286 824.35734005 137.28373041 825 117.125 C826.10173364 78.42660602 826.52208489 39.71112387 827 1 C563.66 1 300.32 1 29 1 Z " transform="translate(599,355)" style="fill: #DEE2E5;"/><path d="M0 0 C1.30743637 -0.00290688 2.61487274 -0.00581376 3.9619284 -0.00880873 C7.5868881 -0.0165828 11.21174099 -0.01194431 14.83669891 -0.00525283 C18.78197711 -0.00017438 22.72723908 -0.00670127 26.67251498 -0.01173949 C33.58584034 -0.01896184 40.49913447 -0.01874436 47.41246128 -0.01364517 C57.69284139 -0.00608308 67.97319514 -0.00994621 78.25357507 -0.01606179 C96.61414608 -0.02659738 114.97470317 -0.02567882 133.3352755 -0.01990396 C149.403446 -0.01487488 165.4716114 -0.0135585 181.53978252 -0.01594925 C182.60519964 -0.01610202 183.67061676 -0.01625479 184.76831924 -0.01641219 C189.09309443 -0.01703486 193.41786963 -0.01767166 197.74264482 -0.01833172 C238.32194894 -0.02445128 278.9012442 -0.01890039 319.48054696 -0.00813792 C355.53891117 0.00135277 391.59726126 0.00050478 427.65562534 -0.00905991 C468.15871906 -0.01976765 508.66180495 -0.02401662 549.16489989 -0.01783538 C553.48215202 -0.01719394 557.79940416 -0.01656826 562.1166563 -0.01594925 C563.71120601 -0.01571202 563.71120601 -0.01571202 565.33796884 -0.01546999 C581.3959992 -0.01319435 597.45402391 -0.01585691 613.51205349 -0.02090836 C631.77019888 -0.02662323 650.02832816 -0.02520501 668.28647154 -0.01434687 C678.50685948 -0.00846941 688.72721257 -0.008098 698.94759962 -0.01563922 C705.77267061 -0.02012007 712.59771363 -0.01733992 719.42278047 -0.00862968 C723.31260724 -0.00386773 727.2023647 -0.0022546 731.0921893 -0.00944164 C735.28298846 -0.01710586 739.47361768 -0.00930724 743.66441345 0 C744.87091668 -0.00468233 746.0774199 -0.00936466 747.32048383 -0.01418889 C761.19354646 0.04761648 772.26109251 2.66258522 782.6451273 12.37668228 C799.78618882 30.56405636 795.8951273 46.69830005 795.8951273 73.25168228 C516.0551273 73.25168228 236.2151273 73.25168228 -52.1048727 73.25168228 C-52.1048727 27.37508654 -52.1048727 27.37508654 -41.1048727 15.25168228 C-40.58151333 14.62519791 -40.05815395 13.99871353 -39.5189352 13.35324478 C-29.09184405 1.705421 -14.71669823 -0.05700359 0 0 Z " transform="translate(650.1048727035522,257.74831771850586)" style="fill: #FBFBFB;"/><path d="M0 0 C262.35 0 524.7 0 795 0 C795 42 795 42 791 47 C788.4305146 48.2847427 786.60894075 48.12760631 783.7303254 48.1311025 C782.03980658 48.13677947 782.03980658 48.13677947 780.31513587 48.14257112 C778.43845052 48.14120323 778.43845052 48.14120323 776.52385235 48.1398077 C775.18597806 48.14236558 773.84810455 48.14535912 772.51023212 48.14875141 C768.80486308 48.15684961 765.09951286 48.15865048 761.39413603 48.15947436 C757.37390066 48.16143785 753.35367562 48.16911095 749.33344632 48.17604691 C741.3468439 48.18888899 733.36024473 48.19625309 725.37363437 48.20194569 C715.81276865 48.20899261 706.25191266 48.2217509 696.69105314 48.23449489 C672.48195064 48.2663774 648.27284168 48.28618472 624.0637252 48.30378041 C617.5098188 48.30854611 610.95591259 48.31355511 604.40200639 48.31858563 C563.7453671 48.34962689 523.08872619 48.37625395 482.43207836 48.39300442 C473.00899948 48.39694187 463.58592062 48.40095367 454.1628418 48.4050293 C452.40673614 48.4057818 452.40673614 48.4057818 450.6151536 48.4065495 C412.638018 48.42297577 374.66094674 48.46144308 336.6838428 48.5123164 C297.66465838 48.56449068 258.64550824 48.59731204 219.62628823 48.60458195 C214.11992628 48.60561062 208.6135644 48.60684695 203.10720253 48.60820198 C202.02344267 48.60846002 200.93968281 48.60871806 199.82308174 48.60898391 C182.35257584 48.6136865 164.8821545 48.63865273 147.4116803 48.67095341 C129.86488495 48.70292324 112.3181852 48.71298603 94.77136417 48.70052146 C84.33655517 48.69376443 73.9020736 48.70383373 63.46731551 48.73764846 C56.50546579 48.75856941 49.54383916 48.7578848 42.58198321 48.73931505 C38.60964104 48.72934416 34.63792502 48.72905078 30.66564109 48.75497787 C27.05521027 48.77835672 23.4459079 48.77436203 19.8355065 48.74808118 C17.9181938 48.74130821 16.00084721 48.76412886 14.08367088 48.78797796 C12.94914778 48.77423798 11.81462468 48.76049799 10.64572209 48.74634165 C9.668639 48.74705379 8.69155591 48.74776593 7.68486423 48.74849966 C5 48 5 48 0 42 C0 28.14 0 14.28 0 0 Z " transform="translate(625,1722)" style="fill: #FBFCFC;"/><path d="M0 0 C1.03672852 -0.00233643 2.07345703 -0.00467285 3.14160156 -0.00708008 C8.69512432 0.01763286 14.24768461 0.05860825 19.80078125 0.1328125 C20.63625488 0.14006348 21.47172852 0.14731445 22.33251953 0.15478516 C33.08129846 0.2941343 43.4836821 1.91293906 52.36328125 8.4453125 C59.83182334 16.6798589 59.95097812 25.81282287 60.11526489 36.4506073 C60.13594992 37.60155856 60.15663496 38.75250983 60.17794681 39.9383384 C60.23304809 43.14059515 60.28326349 46.3428745 60.32997021 49.54526366 C60.36020809 51.61021702 60.39182051 53.67514617 60.42359376 55.74007642 C61.01014681 94.45084391 60.9220314 133.16458911 60.86015099 171.87864307 C60.85384738 175.90732295 60.84817811 179.93600362 60.84250208 183.96468443 C60.81725384 201.81479852 60.78873777 219.6649045 60.75082207 237.51499653 C60.74172907 241.81574307 60.73265715 246.11648965 60.72363281 250.41723633 C60.72138825 251.48551409 60.71914368 252.55379186 60.7168311 253.65444168 C60.68071878 271.11623906 60.66569093 288.57799171 60.65887533 306.03982256 C60.65148053 324.09725529 60.62539235 342.15458511 60.58092701 360.21196526 C60.55654892 370.30088788 60.54028518 380.38967722 60.54519272 390.47863197 C60.54930388 399.02250696 60.53654654 407.56614448 60.50163154 416.1099529 C60.48437097 420.4599943 60.47511166 424.80965891 60.48764229 429.15972519 C60.49892983 433.14321327 60.48707316 437.1259508 60.4571308 441.10933616 C60.45034576 442.54569554 60.4518866 443.9821249 60.46283077 445.41845862 C60.52753669 454.68832208 59.71058881 462.52948272 53.39363658 469.73871976 C44.44220021 477.85918463 33.19932659 477.31394327 21.92578125 477.3203125 C20.79269531 477.33255859 19.65960937 477.34480469 18.4921875 477.35742188 C7.13766201 477.37715743 -3.33016872 475.46330056 -13.07421875 469.3203125 C-18.10238677 464.14425719 -19.79813464 459.42863807 -19.70537663 452.31285954 C-19.71148998 451.55247636 -19.71760334 450.79209318 -19.72390196 450.00866809 C-19.73948746 447.46380015 -19.72664215 444.91988719 -19.71388245 442.37501526 C-19.71920824 440.530884 -19.72627412 438.68675707 -19.7349295 436.84263843 C-19.75357928 431.7773021 -19.74724375 426.71225768 -19.73677647 421.64690912 C-19.72979113 416.18327106 -19.74577735 410.71969337 -19.7587738 405.256073 C-19.78043014 394.55342689 -19.78028271 383.85088704 -19.77214826 373.14822621 C-19.76585167 364.45041466 -19.76698217 355.75263414 -19.77342033 347.05482292 C-19.77432199 345.81749466 -19.77522364 344.5801664 -19.77615262 343.30534334 C-19.7780038 340.79182092 -19.77986636 338.27829851 -19.78174018 335.7647761 C-19.79785145 312.85967472 -19.79063837 289.95461994 -19.77418704 267.04952371 C-19.75933909 246.14323756 -19.76811958 225.23708205 -19.79614258 204.33081055 C-19.82756968 180.8400479 -19.84247285 157.3493457 -19.83234257 133.85855907 C-19.83132 131.35391201 -19.83032539 128.84926493 -19.82935905 126.34461784 C-19.82888266 125.11225117 -19.82840627 123.87988449 -19.82791545 122.61017336 C-19.82574998 113.92251537 -19.83556251 105.23491815 -19.85013008 96.54727364 C-19.86763475 85.96023238 -19.86756277 75.37336868 -19.84477843 64.78633446 C-19.8336194 59.38380007 -19.83051155 53.98157873 -19.84907913 48.57905769 C-19.86585673 43.63376325 -19.85956953 38.68905556 -19.83486234 33.74379932 C-19.82996974 31.95451322 -19.83352004 30.16518003 -19.84634978 28.37593324 C-19.9538036 12.22523818 -19.9538036 12.22523818 -15.57605976 6.49208778 C-10.86831718 1.84440654 -6.49200893 0.00787524 0 0 Z " transform="translate(1331.19921875,611.8671875)" style="fill: #DEE1E3;"/><path d="M0 0 C0.98935547 -0.01611328 1.97871094 -0.03222656 2.99804688 -0.04882812 C12.19609531 -0.05501377 12.19609531 -0.05501377 16.0625 3.3125 C19.341015 6.66421016 20.52048116 8.97426535 20.59231523 13.69925126 C20.57783946 14.73825054 20.57783946 14.73825054 20.56307125 15.79823971 C20.56858542 16.54678415 20.57409958 17.29532858 20.57978085 18.06655619 C20.5934123 20.58319169 20.57845978 23.09884569 20.56370544 25.61546326 C20.56759702 27.43454377 20.57323631 29.25362124 20.58047634 31.0726915 C20.59526975 36.07801287 20.58502667 41.08302088 20.57073963 46.0883323 C20.5596557 51.48379022 20.57156391 56.87920326 20.58058167 62.2746582 C20.59453402 72.84724307 20.58694307 83.41970871 20.57190608 93.99228793 C20.55506794 106.29855072 20.5582535 118.60478363 20.56200016 130.91105438 C20.56788247 152.86593864 20.55369298 174.8207656 20.52905273 196.77563477 C20.50513381 218.09012221 20.49804687 239.40449403 20.50854492 260.71899414 C20.5199493 283.91527055 20.5218899 307.11151151 20.50744683 330.30778748 C20.50592095 332.78041303 20.50440059 335.25303858 20.50288582 337.72566414 C20.502128 338.94231756 20.50137019 340.15897097 20.50058941 341.41249267 C20.49584264 349.99484846 20.49770083 358.57718844 20.50195122 367.15954399 C20.50687344 377.6163709 20.50091343 388.07312535 20.48105692 398.52993565 C20.47117213 403.86732584 20.46609261 409.2046056 20.47394943 414.54200172 C20.48099106 419.42546643 20.47423716 424.30870799 20.4563458 429.19214321 C20.45229142 430.96126355 20.4533177 432.73040414 20.45986467 434.49951702 C20.46799046 436.90025271 20.45773279 439.30023208 20.44281673 441.70091915 C20.44955439 442.39124417 20.45629204 443.08156919 20.46323386 443.79281315 C20.39019867 449.85188264 18.5259854 453.68240241 14.5234375 458.140625 C10.34738288 461.35059666 5.76773356 461.14535895 0.6875 461.0625 C-0.2519043 461.05653809 -1.19130859 461.05057617 -2.15917969 461.04443359 C-7.38127469 460.85864928 -11.1083547 460.50861988 -15.1875 456.9375 C-18.8100836 452.74565327 -19.08310244 449.5634114 -19.07172108 444.16466904 C-19.07407331 443.41620938 -19.07642554 442.66774973 -19.07884905 441.89660949 C-19.08556106 439.36251623 -19.08508017 436.82847398 -19.08467102 434.29437256 C-19.08796828 432.46963524 -19.09169355 430.64489866 -19.0958125 428.82016301 C-19.10585633 423.7853671 -19.10955311 418.75058311 -19.11220181 413.71577859 C-19.1160978 408.2936936 -19.12567659 402.87161812 -19.13441467 397.44953918 C-19.15419879 384.3453005 -19.16424763 371.24106102 -19.17314246 358.13681114 C-19.17752206 351.97112278 -19.18288971 345.80543529 -19.18813133 339.63974762 C-19.20514534 319.15284274 -19.21964065 298.66593841 -19.22688007 278.17902756 C-19.22879008 272.85974883 -19.23070874 267.54047011 -19.23266602 262.22119141 C-19.23290617 261.56032642 -19.23314632 260.89946143 -19.23339374 260.21857024 C-19.24104266 239.45411963 -19.2627157 218.68972048 -19.29418945 197.92529297 C-19.32951528 174.60928857 -19.3511318 151.29332147 -19.35452431 127.97728944 C-19.35669258 115.62733903 -19.36548739 103.27746991 -19.39098549 90.92754364 C-19.41264547 80.41209013 -19.42076612 69.89673765 -19.41101871 59.38126436 C-19.40646038 54.01347185 -19.408449 48.64588802 -19.42778015 43.27812386 C-19.44531539 38.36674763 -19.4444929 33.45573379 -19.42888286 28.54435423 C-19.42649207 26.76504145 -19.43090594 24.9857042 -19.44271151 23.20642897 C-19.45774409 20.79174071 -19.44821893 18.37835085 -19.43248463 15.96369553 C-19.44270683 15.26930427 -19.45292904 14.57491302 -19.46346101 13.85947961 C-19.39303769 8.9237746 -17.99816061 6.12953917 -14.9375 2.3125 C-10.51219289 -0.78783813 -5.19034274 -0.01684083 0 0 Z " transform="translate(1337.9375,618.6875)" style="fill: #FBFBFB;"/><path d="M0 0 C262.35 0 524.7 0 795 0 C795 13.86 795 27.72 795 42 C794.67 42 794.34 42 794 42 C794 35.4 794 28.8 794 22 C531.98 22 269.96 22 0 22 C0 14.74 0 7.48 0 0 Z " transform="translate(625,1722)" style="fill: #E1E4E7;"/><path d="M0 0 C10.02024455 0.4453442 18.22254725 6.32118568 24.92578125 13.43359375 C39.88614616 31.94387576 36 45.48960817 36 72 C-243.84 72 -523.68 72 -812 72 C-812 59.79 -812 47.58 -812 35 C-811.67 35 -811.34 35 -811 35 C-811 39.95 -811 44.9 -811 50 C-792.76961119 54.48415091 -775.33521698 55.72865577 -756.62852636 55.62993505 C-752.75734081 55.61520883 -748.88623567 55.63004918 -745.01505238 55.64082003 C-738.25642478 55.65568092 -731.49800615 55.65230211 -724.7393837 55.63640213 C-714.68902512 55.61282399 -704.63882167 55.61822995 -694.58844871 55.62911103 C-676.63356655 55.64763119 -658.67878412 55.63804176 -640.72391014 55.61663339 C-625.01642867 55.59803797 -609.3089806 55.58965783 -593.60148811 55.59120178 C-592.55745043 55.59129346 -591.51341276 55.59138513 -590.43773757 55.59147959 C-586.19918814 55.59187277 -581.96063871 55.59232241 -577.72208929 55.59285098 C-538.01406529 55.59771521 -498.30610054 55.57510349 -458.59809494 55.53889475 C-423.34264675 55.50688347 -388.08724911 55.49485523 -352.83178711 55.50097656 C-350.56658093 55.50136341 -348.30137475 55.50174987 -346.03616857 55.50213593 C-344.91627482 55.50232728 -343.79638108 55.50251862 -342.64255116 55.50271577 C-337.00479331 55.50367015 -331.36703547 55.50458452 -325.72927761 55.50545502 C-324.61695615 55.50562881 -323.5046347 55.5058026 -322.35860653 55.50598167 C-292.86492514 55.51033839 -263.37124918 55.50031971 -233.87757164 55.48561716 C-232.82822859 55.48509702 -231.77888554 55.48457688 -230.69774421 55.48404097 C-229.65035191 55.48352163 -228.6029596 55.48300229 -227.52382814 55.4824672 C-226.47839116 55.48194946 -225.43295419 55.48143172 -224.35583731 55.48089829 C-222.25051337 55.47985021 -220.14518943 55.47879 -218.0398655 55.47771757 C-203.37789222 55.47034414 -188.71592666 55.46824742 -174.05395176 55.46971158 C-155.16389011 55.47155861 -136.27387605 55.46346626 -117.38382994 55.43807012 C-107.40011975 55.42492621 -97.41648549 55.41988205 -87.43276853 55.42670866 C-80.75835808 55.43042919 -74.08401674 55.42317664 -67.40962474 55.40711627 C-63.61103529 55.3982707 -59.81260165 55.3940044 -56.01400905 55.40304345 C-27.66803745 56.34793316 -27.66803745 56.34793316 -2 46 C5.24803496 37.42127113 6.68147206 27.90355291 6 17 C5.26042675 10.93549934 3.58741522 6.90280081 0 2 C0 1.34 0 0.68 0 0 Z " transform="translate(1410,259)" style="fill: #DFE1E4;"/><path d="M0 0 C1.09505859 -0.04576172 2.19011719 -0.09152344 3.31835938 -0.13867188 C11.1585839 -0.24607221 16.9660549 1.14167891 22.9375 6.4375 C28.27933525 12.0791587 27.4521139 18.27759132 27.328125 25.7109375 C27.32246521 26.98981842 27.31680542 28.26869934 27.31097412 29.58633423 C27.29241848 32.97005142 27.25654526 36.35267092 27.2121582 39.73608398 C27.17108167 43.19505375 27.15293687 46.65413736 27.1328125 50.11328125 C27.08876253 56.88832204 27.02186154 63.6628477 26.9375 70.4375 C28.01902344 70.40914062 29.10054687 70.38078125 30.21484375 70.3515625 C34.71236176 70.45538768 37.63259207 71.45778896 40.9375 74.4375 C47.61952145 83.47699867 48.16183331 90.51443082 48.25 101.5 C48.27900391 102.67755859 48.30800781 103.85511719 48.33789062 105.06835938 C48.4032041 114.14693205 47.32006514 122.2938577 41.4375 129.5 C35.89318123 133.79684705 34.9023221 133.4375 26.9375 133.4375 C26.9375 200.0975 26.9375 266.7575 26.9375 335.4375 C29.2475 335.4375 31.5575 335.4375 33.9375 335.4375 C40.24775942 338.7188349 44.74485475 343.62243916 46.9375 350.4375 C47.3030784 354.66846072 47.26691888 358.89200063 47.25317383 363.13769531 C47.25003039 365.16787266 47.27344085 367.19656668 47.29882812 369.2265625 C47.30674103 385.21063398 47.30674103 385.21063398 42.21875 391.59375 C41.6309375 392.0371875 41.043125 392.480625 40.4375 392.9375 C39.8496875 393.4015625 39.261875 393.865625 38.65625 394.34375 C34.83622454 396.77467529 31.33130833 396.52040204 26.9375 396.4375 C26.95082367 397.21931137 26.96414734 398.00112274 26.97787476 398.80662537 C27.09853308 406.20596176 27.18966565 413.60481538 27.24837303 421.00488186 C27.27957123 424.80861614 27.32182752 428.61153173 27.39013672 432.41479492 C27.45574878 436.09126284 27.49129243 439.76694778 27.50676346 443.44395638 C27.51777576 444.84055965 27.53927999 446.23712426 27.57188034 447.63339043 C27.74860231 455.52237592 27.49024929 461.27441126 22.63223267 467.69276428 C17.06108617 473.42828734 11.25625343 474.69227395 3.48486328 474.91577148 C-5.26855713 474.98694401 -12.20742627 474.52709238 -19.8125 469.6875 C-24.24021925 465.25978075 -26.49747336 461.01692053 -26.59616944 454.72805169 C-26.58709062 454.03158516 -26.57801181 453.33511862 -26.56865788 452.61754704 C-26.57477123 451.85716386 -26.58088459 451.09678068 -26.58718321 450.31335559 C-26.60276871 447.76848765 -26.5899234 445.22457469 -26.5771637 442.67970276 C-26.58248949 440.8355715 -26.58955537 438.99144457 -26.59821075 437.14732593 C-26.61686053 432.0819896 -26.610525 427.01694518 -26.60005772 421.95159662 C-26.59307238 416.48795856 -26.6090586 411.02438087 -26.62205505 405.5607605 C-26.64371139 394.85811439 -26.64356396 384.15557454 -26.63542951 373.45291371 C-26.62913292 364.75510216 -26.63026342 356.05732164 -26.63670158 347.35951042 C-26.63760324 346.12218216 -26.63850489 344.8848539 -26.63943387 343.61003084 C-26.64128505 341.09650842 -26.64314761 338.58298601 -26.64502143 336.0694636 C-26.6611327 313.16436222 -26.65391962 290.25930744 -26.63746829 267.35421121 C-26.62262034 246.44792506 -26.63140083 225.54176955 -26.65942383 204.63549805 C-26.69085093 181.1447354 -26.7057541 157.6540332 -26.69562382 134.16324657 C-26.69460125 131.65859951 -26.69360664 129.15395243 -26.6926403 126.64930534 C-26.69216391 125.41693867 -26.69168752 124.18457199 -26.6911967 122.91486086 C-26.68903123 114.22720287 -26.69884376 105.53960565 -26.71341133 96.85196114 C-26.730916 86.26491988 -26.73084402 75.67805618 -26.70805968 65.09102196 C-26.69690065 59.68848757 -26.6937928 54.28626623 -26.71236038 48.88374519 C-26.72913798 43.93845075 -26.72285078 38.99374306 -26.69814359 34.04848682 C-26.69325099 32.25920072 -26.69680129 30.46986753 -26.70963103 28.68062074 C-26.81708485 12.52992568 -26.81708485 12.52992568 -22.43934101 6.79677528 C-15.63167272 0.07595917 -8.9932208 0.14980092 0 0 Z M-17.0625 11.4375 C-19.4886757 15.0235818 -19.34763381 18.6454674 -19.32814884 22.82584 C-19.33255371 23.57600814 -19.33695857 24.32617629 -19.34149691 25.09907681 C-19.35386373 27.62700553 -19.35194038 30.15472275 -19.35011292 32.68267822 C-19.3559948 34.50771834 -19.36273341 36.33275586 -19.37025779 38.15778995 C-19.38836377 43.18421276 -19.39385565 48.21058314 -19.39724457 53.23703456 C-19.40299461 58.65368228 -19.42011941 64.07029618 -19.43559265 69.48692322 C-19.47036983 82.57253237 -19.48593347 95.65813879 -19.49971595 108.74378407 C-19.50667404 114.90323467 -19.51583142 121.06268191 -19.52482414 127.22212982 C-19.55402915 147.69195165 -19.57882371 168.16177017 -19.58944798 188.63161087 C-19.59013867 189.94210967 -19.59082936 191.25260848 -19.59154099 192.60281937 C-19.592233 193.91648525 -19.59292502 195.23015114 -19.593638 196.58362508 C-19.59505001 199.24569146 -19.59647082 201.90775784 -19.59790039 204.56982422 C-19.59824993 205.22986191 -19.59859947 205.88989961 -19.59895961 206.56993845 C-19.61084308 228.63891989 -19.65335347 250.70770923 -19.71084059 272.77661541 C-19.76758856 294.73970684 -19.7980958 316.70270872 -19.80246013 338.66587424 C-19.80554474 351.00139733 -19.820093 363.33667446 -19.86374092 375.67212677 C-19.90079979 386.17508979 -19.91404587 396.67774027 -19.89603604 407.18075928 C-19.88756942 412.54087401 -19.89049238 417.9003502 -19.92385483 423.2603817 C-19.95412585 428.16709794 -19.95211654 433.07270117 -19.92436682 437.97942254 C-19.92001758 439.75468131 -19.92751658 441.53001676 -19.94803984 443.30516222 C-20.34031384 454.11158261 -20.34031384 454.11158261 -15.63404751 463.48456955 C-10.6710191 468.06209394 -6.38972089 467.74726037 0.125 467.875 C1.05892578 467.92076172 1.99285156 467.96652344 2.95507812 468.01367188 C8.89140855 468.10975604 12.2190948 467.31383864 16.59106445 463.22290039 C19.93562777 458.78794273 20.22788052 454.33971176 20.20035553 448.9545536 C20.2044608 448.20630876 20.20856606 447.45806392 20.21279573 446.68714499 C20.22413372 444.17178595 20.22122159 441.65664599 20.21838379 439.14126587 C20.22355117 437.32289992 20.22957751 435.50453624 20.23639059 433.6861757 C20.25253581 428.68288125 20.25611001 423.67964417 20.25758553 418.67632675 C20.26128565 413.28289499 20.27637966 407.88949304 20.28985596 402.49607849 C20.31702555 390.70083033 20.32907199 378.90559577 20.33787727 367.11032152 C20.34340063 359.74801755 20.35187496 352.38571884 20.36088562 345.02341843 C20.38526945 324.64619845 20.40586961 304.26898268 20.4126358 283.89174843 C20.41307494 282.5874684 20.41351407 281.28318838 20.41396651 279.93938472 C20.41440306 278.63196137 20.41483962 277.32453803 20.4152894 275.97749579 C20.41617634 273.32809615 20.41706947 270.67869651 20.41796875 268.02929688 C20.41841161 266.71509944 20.41885447 265.40090201 20.41931075 264.04688041 C20.42721062 242.74141075 20.46213113 221.43612785 20.50868779 200.1307071 C20.55608201 178.2658996 20.58103794 156.40116073 20.58337164 134.53630102 C20.58520682 122.25618699 20.59675364 109.9762511 20.63301086 97.69618607 C20.66376841 87.24191377 20.67408014 76.78787465 20.65753466 66.33356573 C20.64970615 60.99793595 20.65165513 55.66277609 20.67964935 50.32720375 C20.70503579 45.44411203 20.70281493 40.56184551 20.67846793 35.67875569 C20.67453786 33.91095137 20.68078532 32.1430895 20.69815665 30.37536617 C21.17235347 20.02034431 21.17235347 20.02034431 17.07906342 10.90311241 C11.6721877 6.6596011 6.72337682 7.18897909 0.125 7.125 C-0.86048828 7.09599609 -1.84597656 7.06699219 -2.86132812 7.03710938 C-8.74695381 6.98572379 -12.52618257 7.26642552 -17.0625 11.4375 Z " transform="translate(1338.0625,611.5625)" style="fill: #383838;"/><path d="M0 0 C275.55 0 551.1 0 835 0 C835 3.3 835 6.6 835 10 C559.45 10 283.9 10 0 10 C0 6.7 0 3.4 0 0 Z " transform="translate(604,338)" style="fill: #DCDEDE;"/><path d="M0 0 C3.56234428 -0.08741124 7.12441108 -0.14052896 10.6875 -0.1875 C11.69490234 -0.21263672 12.70230469 -0.23777344 13.74023438 -0.26367188 C23.191237 -0.35724616 23.191237 -0.35724616 27 3 C30.27733896 6.35283196 31.4579763 8.661446 31.52981523 13.38675126 C31.51533946 14.42575054 31.51533946 14.42575054 31.50057125 15.48573971 C31.50608542 16.23428415 31.51159958 16.98282858 31.51728085 17.75405619 C31.5309123 20.27069169 31.51595978 22.78634569 31.50120544 25.30296326 C31.50509702 27.12204377 31.51073631 28.94112124 31.51797634 30.7601915 C31.53276975 35.76551287 31.52252667 40.77052088 31.50823963 45.7758323 C31.4971557 51.17129022 31.50906391 56.56670326 31.51808167 61.9621582 C31.53203402 72.53474307 31.52444307 83.10720871 31.50940608 93.67978793 C31.49256794 105.98605072 31.4957535 118.29228363 31.49950016 130.59855438 C31.50538247 152.55343864 31.49119298 174.5082656 31.46655273 196.46313477 C31.44263381 217.77762221 31.43554687 239.09199403 31.44604492 260.40649414 C31.4574493 283.60277055 31.4593899 306.79901151 31.44494683 329.99528748 C31.44342095 332.46791303 31.44190059 334.94053858 31.44038582 337.41316414 C31.439628 338.62981756 31.43887019 339.84647097 31.43808941 341.09999267 C31.43334264 349.68234846 31.43520083 358.26468844 31.43945122 366.84704399 C31.44437344 377.3038709 31.43841343 387.76062535 31.41855692 398.21743565 C31.40867213 403.55482584 31.40359261 408.8921056 31.41144943 414.22950172 C31.41849106 419.11296643 31.41173716 423.99620799 31.3938458 428.87964321 C31.38979142 430.64876355 31.3908177 432.41790414 31.39736467 434.18701702 C31.40549046 436.58775271 31.39523279 438.98773208 31.38031673 441.38841915 C31.38705439 442.07874417 31.39379204 442.76906919 31.40073386 443.48031315 C31.32770183 449.53912062 29.46026863 453.36872919 25.46484375 457.83203125 C21.26433306 461.06309362 16.66256989 460.76970155 11.5625 460.6875 C10.64662109 460.71521484 9.73074219 460.74292969 8.78710938 460.77148438 C2.74120374 460.74978335 -0.48628806 459.61956788 -4.84008789 455.38598633 C-6 454 -6 454 -6 453 C-5.13117188 452.96261719 -4.26234375 452.92523437 -3.3671875 452.88671875 C6.81664554 452.33901748 6.81664554 452.33901748 15.1875 446.9375 C19.78057711 439.49354745 21.12104641 430.52471489 21.13701439 421.91307449 C21.13966622 421.20763819 21.14231804 420.50220188 21.14505023 419.77538872 C21.15272489 417.40568595 21.15330169 415.03603516 21.15390015 412.6663208 C21.15791595 410.9525018 21.16235437 409.23868374 21.1671797 407.52486682 C21.17913742 402.81048506 21.18479177 398.09611354 21.18936086 393.38171959 C21.19531979 388.29909978 21.20692872 383.21649218 21.21765137 378.13388062 C21.24216567 365.85847541 21.25679954 353.58306616 21.26971143 341.30764401 C21.27342358 337.84112753 21.27739677 334.37461144 21.2814641 330.90809536 C21.3066969 309.38428712 21.32875124 287.86047824 21.34119225 266.33665848 C21.34412196 261.35204313 21.34708362 256.3674278 21.35009766 251.3828125 C21.35084371 250.14390506 21.35158976 248.90499761 21.35235842 247.62854752 C21.36501761 227.54987104 21.39824928 207.47128301 21.43989949 187.39264789 C21.48230294 166.78214937 21.5058853 146.17169616 21.51111281 125.56115413 C21.51452833 113.98745838 21.52630055 102.41390095 21.55921555 90.84024811 C21.58719507 80.98589315 21.59822446 71.13170486 21.58702008 61.27731326 C21.58182846 56.24931873 21.58475323 51.22167336 21.60948563 46.1937294 C21.63194534 41.58940896 21.63126375 36.98568921 21.61228175 32.38135847 C21.60947719 30.71715139 21.61510567 29.05290385 21.63009469 27.38876191 C21.70634614 18.37048009 21.33910615 11.6188874 16 4 C15.67 3.01 15.34 2.02 15 1 C10.05 1 5.1 1 0 1 C0 0.67 0 0.34 0 0 Z " transform="translate(1327,619)" style="fill: #DFE0E2;"/><path d="M0 0 C1.66611905 -0.042721 3.33382885 -0.04063832 5 0 C6.63710095 1.63710095 6.12603702 3.48932117 6.12698364 5.74821472 C6.1298063 6.78398431 6.13262896 7.81975389 6.13553715 8.88691044 C6.13249655 10.61774451 6.13249655 10.61774451 6.12939453 12.38354492 C6.13112136 13.60132598 6.13284819 14.81910704 6.13462734 16.07379055 C6.13826361 19.48365045 6.13727512 22.89345212 6.13421178 26.30330896 C6.13232191 29.24379167 6.13398533 32.1842681 6.13566166 35.12475061 C6.14072128 44.08144159 6.13586582 53.03811217 6.12877274 61.99480057 C6.12473954 67.19460271 6.12290875 72.39440439 6.12130737 77.59420776 C6.08705187 176.28679234 5.60989341 274.98094276 4 472 C3.34 472 2.68 472 2 472 C1.99576806 471.15658837 1.99153612 470.31317675 1.98717594 469.44420719 C1.86062377 444.26571364 1.72980608 419.08724356 1.59614182 393.90878677 C1.57368283 389.67687157 1.55134193 385.44495576 1.52910233 381.2130394 C1.46783155 369.5641885 1.4053977 357.91534518 1.34045321 346.26651412 C1.3122005 341.19640287 1.28439216 336.1262904 1.25792122 331.05616951 C1.14664889 309.82456401 0.98944249 288.59458675 0.72802734 267.36425781 C0.24034413 227.6638189 -0.06939308 187.96857187 -0.06277013 148.26498485 C-0.06240053 143.89394319 -0.06368066 139.52290257 -0.06494361 135.15186113 C-0.07777944 90.10123868 -0.04561386 45.05059742 0 0 Z " transform="translate(709,513)" style="fill: #3F4042;"/><path d="M0 0 C25.74 0 51.48 0 78 0 C78 11 78 11 76 13 C72.96362305 13.25396729 72.96362305 13.25396729 69.01171875 13.25878906 C68.29287506 13.2622937 67.57403137 13.26579834 66.83340454 13.26940918 C64.45133884 13.27822965 62.06956885 13.27237636 59.6875 13.265625 C58.03605085 13.26697156 56.38460209 13.26891202 54.7331543 13.27142334 C51.26965567 13.27437503 47.8062601 13.27007557 44.34277344 13.26074219 C39.89704689 13.24934758 35.4515618 13.25590682 31.00584412 13.26788712 C27.59499279 13.27510454 24.18419898 13.27281834 20.77334595 13.26763153 C19.13383964 13.26629471 17.49432815 13.2679439 15.85482788 13.27259064 C13.56583774 13.277654 11.27724192 13.26994862 8.98828125 13.25878906 C7.03208862 13.25640228 7.03208862 13.25640228 5.03637695 13.25396729 C2 13 2 13 0 11 C0 7.37 0 3.74 0 0 Z " transform="translate(1316,1777)" style="fill: #DEE1E2;"/><path d="M0 0 C26.07 0 52.14 0 79 0 C79 3.63 79 7.26 79 11 C76.04516435 12.47741782 73.05117948 12.13873544 69.81225586 12.12939453 C69.07229874 12.13114685 68.33234161 12.13289917 67.56996155 12.13470459 C65.11823193 12.13911457 62.66657413 12.13618841 60.21484375 12.1328125 C58.51615892 12.13348571 56.81747418 12.13445588 55.11878967 12.13571167 C51.556967 12.13718743 47.99516938 12.13503773 44.43334961 12.13037109 C39.85755136 12.12466955 35.2818117 12.12795627 30.70601559 12.13394356 C27.19828343 12.13754877 23.69056528 12.13641085 20.18283272 12.13381577 C18.49505163 12.13314661 16.80726929 12.13397453 15.11948967 12.13629532 C12.7657418 12.13882166 10.41209027 12.13498174 8.05834961 12.12939453 C7.00247147 12.13243088 7.00247147 12.13243088 5.92526245 12.13552856 C1.11426364 12.11426364 1.11426364 12.11426364 0 11 C0 7.37 0 3.74 0 0 Z " transform="translate(650,1777)" style="fill: #D7D9DB;"/><path d="M0 0 C5.52805661 1.10561132 8.94984592 2.94774101 12.15478516 7.71923828 C13.99989079 12.6981455 13.37176843 18.37931703 13.37060547 23.64404297 C13.37497269 25.86113658 13.41129628 28.07622783 13.44921875 30.29296875 C13.45508894 31.71353491 13.45905698 33.13411046 13.4609375 34.5546875 C13.46915527 35.83843262 13.47737305 37.12217773 13.48583984 38.44482422 C12.91633129 42.61225315 11.63218068 44.7576512 9 48 C5.63025406 49.85336027 3.92893511 50 0 50 C0 33.5 0 17 0 0 Z " transform="translate(1365,688)" style="fill: #DCDDDE;"/><path d="M0 0 C7 1 7 1 8.7421875 2.33984375 C13.40864101 8.92115232 13.21703112 13.21210432 13.24023438 21.21142578 C13.24989756 23.22861641 13.2809003 25.24476916 13.3125 27.26171875 C13.31765625 28.54175781 13.3228125 29.82179688 13.328125 31.140625 C13.3374707 32.31141602 13.34681641 33.48220703 13.35644531 34.68847656 C12.79134365 39.93850328 11.15505222 43.066128 7.0625 46.375 C4 48 4 48 0 48 C0 32.16 0 16.32 0 0 Z " transform="translate(1365,954)" style="fill: #DFE0E1;"/><path d="M0 0 C25.41 0 50.82 0 77 0 C76.67 1.65 76.34 3.3 76 5 C50.92 5 25.84 5 0 5 C0 3.35 0 1.7 0 0 Z " transform="translate(651,1784)" style="fill: #F7F7F8;"/></svg>