<?xml version="1.0" encoding="UTF-8" standalone="no"?>
<!DOCTYPE svg PUBLIC "-//W3C//DTD SVG 1.1//EN" "http://www.w3.org/Graphics/SVG/1.1/DTD/svg11.dtd">
<svg width="100%" height="100%" viewBox="0 0 1024 1024" version="1.1" xmlns="http://www.w3.org/2000/svg" xmlns:xlink="http://www.w3.org/1999/xlink" xml:space="preserve" xmlns:serif="http://www.serif.com/" style="fill-rule:evenodd;clip-rule:evenodd;stroke-linejoin:round;stroke-miterlimit:2;">
    <g transform="matrix(1,0,0,1,614,129)">
        <path d="M0,0C2.908,1.171 2.908,1.171 5.781,2.824C6.859,3.434 7.936,4.044 9.046,4.672C10.186,5.337 11.326,6.002 12.5,6.688C13.705,7.376 14.911,8.064 16.118,8.75C18.575,10.148 21.027,11.555 23.475,12.969C27.614,15.358 31.778,17.703 35.944,20.046C38.748,21.624 41.549,23.209 44.348,24.797C49.288,27.598 54.233,30.389 59.18,33.178C62.974,35.319 66.764,37.466 70.554,39.615C72.713,40.837 74.875,42.052 77.039,43.266C78.119,43.879 79.2,44.493 80.313,45.125C81.196,45.623 82.079,46.12 82.988,46.633C85,48 85,48 87,51C87.524,55.838 86.476,58.687 84.113,62.879C83.2,64.508 83.2,64.508 82.268,66.17C81.622,67.289 80.977,68.409 80.313,69.563C79.687,70.686 79.061,71.809 78.416,72.967C75.393,78.294 72.688,82.952 68,87C61.449,87.951 58.551,86.364 53,83C52.639,83.647 52.277,84.295 51.905,84.962C44.242,98.686 36.53,112.38 28.71,126.016C25.586,131.468 22.47,136.925 19.353,142.381C17.595,145.459 15.837,148.536 14.078,151.613C13.484,152.653 11.435,156.239 11,157C11.752,157.124 12.505,157.248 13.28,157.375C15.822,157.959 17.357,158.597 19.516,159.996C20.127,160.39 20.738,160.784 21.367,161.189C21.989,161.601 22.61,162.013 23.25,162.438C23.887,162.845 24.524,163.253 25.18,163.674C29.864,166.729 29.864,166.729 31,169C31.603,174.387 29.826,177.991 27.25,182.563C26.857,183.282 26.465,184.001 26.061,184.743C22.112,191.93 18.017,199.04 13.899,206.131C13.16,207.408 13.16,207.408 12.406,208.711C11.966,209.467 11.526,210.223 11.072,211.001C9.87,213.106 9.87,213.106 9,216C9.534,216.147 10.067,216.294 10.617,216.445C26.425,221.204 37.769,231.74 45.66,246C48.629,251.953 50.283,257.153 51.188,263.75C52.198,269.605 53.53,272.221 58.188,275.938C60.121,277.298 62.058,278.652 64,280C69.435,284.917 74.26,290.422 79,296C80.125,297.292 80.125,297.292 81.273,298.609C106.391,327.926 123.579,363.401 132,401C132.198,401.844 132.395,402.687 132.599,403.557C135.963,418.481 136.372,433.207 136.375,448.438C136.377,449.37 136.379,450.303 136.381,451.265C136.365,517.518 109.549,575.306 63.188,621.938C59.596,625.498 55.98,628.88 52,632C54.033,638.533 56.531,644.736 59.344,650.969C59.754,651.889 60.164,652.809 60.587,653.758C61.888,656.674 63.193,659.587 64.5,662.5C66.224,666.342 67.942,670.186 69.656,674.031C70.047,674.897 70.438,675.763 70.84,676.655C73.229,682.014 75.257,687.398 77,693C77.873,693.121 78.745,693.242 79.645,693.367C93.702,696.018 107.029,704.631 115.285,716.203C119.742,722.79 123.621,729.362 126,737C126.335,738.015 126.335,738.015 126.676,739.051C128.061,744.054 128.291,749.144 128.438,754.313C128.489,755.354 128.489,755.354 128.542,756.417C128.571,759.941 128.374,761.609 125.904,764.192C122.319,766.424 120.184,766.501 115.977,766.503C115.279,766.509 114.58,766.515 113.861,766.521C111.514,766.536 109.169,766.522 106.822,766.508C105.126,766.513 103.429,766.519 101.732,766.527C97.065,766.544 92.398,766.535 87.731,766.523C82.7,766.514 77.668,766.528 72.637,766.539C62.779,766.557 52.921,766.553 43.063,766.541C35.054,766.532 27.044,766.531 19.035,766.535C17.896,766.536 16.757,766.536 15.584,766.537C13.27,766.538 10.957,766.54 8.644,766.541C-13.061,766.552 -34.765,766.539 -56.469,766.518C-75.104,766.5 -93.739,766.503 -112.375,766.521C-134.001,766.543 -155.628,766.551 -177.254,766.539C-179.559,766.538 -181.864,766.537 -184.168,766.535C-185.302,766.535 -186.436,766.534 -187.605,766.533C-195.608,766.53 -203.611,766.536 -211.614,766.545C-221.363,766.556 -231.111,766.553 -240.859,766.532C-245.836,766.522 -250.812,766.517 -255.789,766.531C-260.341,766.543 -264.892,766.536 -269.443,766.515C-271.094,766.51 -272.745,766.513 -274.395,766.522C-276.632,766.534 -278.867,766.522 -281.103,766.503C-282.347,766.503 -283.592,766.502 -284.874,766.501C-288.587,765.906 -289.773,764.979 -292,762C-292.502,759.258 -292.502,759.258 -292.496,756.125C-292.497,754.974 -292.497,753.823 -292.498,752.637C-292.478,751.437 -292.458,750.236 -292.438,749C-292.445,747.831 -292.452,746.662 -292.459,745.457C-292.346,729.835 -288.316,716.736 -277.441,705.324C-265.93,694.365 -253.48,691.365 -237.856,691.546C-236.495,691.547 -235.133,691.546 -233.772,691.544C-230.119,691.543 -226.468,691.566 -222.816,691.594C-218.983,691.62 -215.15,691.622 -211.317,691.627C-204.078,691.639 -196.84,691.672 -189.601,691.712C-181.352,691.757 -173.103,691.779 -164.853,691.799C-147.902,691.84 -130.951,691.911 -114,692C-113.934,691.245 -113.868,690.49 -113.8,689.711C-113.711,688.721 -113.623,687.73 -113.533,686.709C-113.446,685.727 -113.359,684.745 -113.27,683.733C-112.972,680.712 -112.503,677.773 -111.906,674.797C-111.574,673.112 -111.574,673.112 -111.235,671.393C-110.992,670.191 -110.75,668.989 -110.5,667.75C-110.107,665.762 -109.714,663.775 -109.322,661.787C-109.035,660.33 -108.747,658.874 -108.459,657.419C-106.508,647.553 -104.629,637.673 -102.742,627.794C-101.949,623.643 -101.155,619.491 -100.36,615.34C-99.573,611.226 -98.787,607.113 -98,603C-105.26,602.67 -112.52,602.34 -120,602C-120.99,604.475 -120.99,604.475 -122,607C-124.583,609.583 -125.594,609.255 -129.187,609.267C-130.286,609.276 -131.385,609.284 -132.518,609.293C-133.729,609.292 -134.941,609.291 -136.189,609.291C-138.096,609.301 -138.096,609.301 -140.042,609.311C-143.536,609.329 -147.03,609.333 -150.524,609.335C-153.439,609.336 -156.354,609.344 -159.269,609.351C-166.146,609.367 -173.023,609.372 -179.9,609.371C-186.998,609.369 -194.094,609.391 -201.191,609.422C-207.282,609.448 -213.372,609.459 -219.462,609.458C-223.1,609.457 -226.739,609.463 -230.378,609.484C-234.436,609.507 -238.494,609.498 -242.552,609.486C-243.76,609.497 -244.967,609.508 -246.211,609.52C-247.868,609.507 -247.868,609.507 -249.559,609.494C-250.519,609.496 -251.479,609.497 -252.468,609.498C-255.744,608.854 -256.938,607.57 -259,605C-259.515,602.762 -259.515,602.762 -259.533,600.295C-259.549,599.367 -259.565,598.439 -259.581,597.484C-259.576,596.489 -259.572,595.494 -259.566,594.469C-259.573,593.441 -259.579,592.413 -259.585,591.353C-259.592,589.181 -259.589,587.009 -259.576,584.837C-259.563,581.512 -259.597,578.189 -259.635,574.863C-259.636,572.753 -259.634,570.642 -259.629,568.531C-259.642,567.536 -259.655,566.542 -259.669,565.516C-259.65,564.125 -259.65,564.125 -259.631,562.705C-259.63,561.891 -259.629,561.077 -259.628,560.238C-259,558 -259,558 -257.196,555.74C-252.316,553.083 -247.706,553.43 -242.233,553.454C-241.042,553.444 -239.852,553.433 -238.625,553.423C-235.369,553.398 -232.114,553.392 -228.858,553.392C-225.452,553.389 -222.046,553.364 -218.64,553.341C-212.194,553.3 -205.749,553.28 -199.303,553.267C-191.963,553.251 -184.624,553.212 -177.284,553.172C-162.189,553.09 -147.095,553.035 -132,553C-133.605,551.551 -135.211,550.102 -136.817,548.654C-137.711,547.847 -138.606,547.04 -139.527,546.209C-142.903,543.194 -146.391,540.352 -149.943,537.55C-153,535 -153,535 -155.801,532.187C-162.911,525.138 -168.357,522.609 -178.361,522.612C-179.914,522.648 -181.466,522.685 -183.018,522.723C-184.688,522.723 -186.358,522.718 -188.029,522.708C-191.599,522.698 -195.166,522.722 -198.736,522.774C-204.379,522.856 -210.022,522.861 -215.666,522.856C-224.586,522.858 -233.505,522.912 -242.425,522.989C-258.422,523.124 -274.419,523.174 -290.417,523.198C-296.028,523.209 -301.639,523.244 -307.25,523.299C-310.733,523.33 -314.215,523.346 -317.697,523.358C-319.313,523.367 -320.929,523.383 -322.544,523.406C-324.747,523.437 -326.949,523.444 -329.153,523.445C-330.386,523.456 -331.619,523.466 -332.889,523.477C-336.595,522.909 -337.758,521.946 -340,519C-340.515,516.838 -340.515,516.838 -340.533,514.479C-340.549,513.591 -340.565,512.703 -340.581,511.788C-340.576,510.837 -340.572,509.886 -340.566,508.906C-340.573,507.923 -340.579,506.939 -340.585,505.925C-340.592,503.848 -340.589,501.77 -340.576,499.692C-340.563,496.511 -340.597,493.333 -340.635,490.152C-340.636,488.133 -340.634,486.113 -340.629,484.094C-340.642,483.143 -340.655,482.191 -340.669,481.212C-340.657,480.324 -340.644,479.436 -340.631,478.521C-340.63,477.743 -340.629,476.965 -340.628,476.162C-339.63,472.727 -338.05,471.85 -335,470C-331.447,469.402 -327.93,469.456 -324.334,469.485C-323.247,469.478 -322.16,469.471 -321.04,469.464C-317.391,469.446 -313.743,469.456 -310.094,469.467C-307.48,469.459 -304.867,469.451 -302.254,469.44C-295.889,469.419 -289.524,469.419 -283.159,469.427C-277.986,469.433 -272.813,469.432 -267.64,469.426C-266.904,469.425 -266.168,469.424 -265.409,469.423C-263.914,469.421 -262.418,469.419 -260.923,469.417C-246.899,469.401 -232.876,469.41 -218.852,469.426C-206.019,469.441 -193.187,469.427 -180.355,469.398C-167.18,469.368 -154.005,469.357 -140.83,469.367C-139.34,469.368 -137.85,469.369 -136.36,469.37C-135.627,469.37 -134.894,469.371 -134.139,469.371C-128.972,469.373 -123.805,469.364 -118.638,469.349C-111.684,469.33 -104.731,469.337 -97.777,469.361C-95.221,469.366 -92.666,469.363 -90.111,469.35C-86.629,469.334 -83.148,469.349 -79.666,469.372C-78.649,469.36 -77.632,469.348 -76.584,469.336C-71.863,469.399 -69.714,469.452 -65.873,472.402C-63.95,475.07 -63.37,476.208 -63.353,479.436C-63.337,480.28 -63.322,481.124 -63.305,481.994C-63.32,483.343 -63.32,483.343 -63.336,484.719C-63.331,485.654 -63.326,486.59 -63.321,487.554C-63.318,489.527 -63.327,491.501 -63.348,493.474C-63.375,496.491 -63.348,499.503 -63.316,502.52C-63.32,504.44 -63.326,506.361 -63.336,508.281C-63.326,509.18 -63.316,510.079 -63.305,511.006C-63.387,515.372 -63.591,517.43 -66.197,521.063C-69.286,523.198 -70.808,523.645 -74.52,523.707C-75.541,523.736 -76.563,523.765 -77.615,523.795C-78.67,523.801 -79.725,523.807 -80.813,523.813C-82.424,523.85 -82.424,523.85 -84.068,523.889C-86.713,523.947 -89.355,523.984 -92,524C-91.345,524.534 -90.69,525.067 -90.016,525.617C-82.973,531.367 -75.976,537.169 -69,543C-68.117,542.529 -67.234,542.059 -66.324,541.574C-50.145,533.098 -32.954,529.578 -15,535C-9.591,536.944 -4.167,538.998 0.563,542.313C2.917,544.285 2.917,544.285 6,544C7.874,541.981 9.529,539.999 11.188,537.813C11.675,537.178 12.163,536.543 12.665,535.888C20.669,525.306 26.676,514.103 32,502C32.777,500.302 32.777,500.302 33.57,498.57C35.135,494.663 36.149,490.847 37.063,486.75C37.223,486.063 37.383,485.376 37.549,484.668C38.057,482.45 38.529,480.226 39,478C39.183,477.217 39.366,476.433 39.555,475.626C41.259,467.634 41.338,459.748 41.316,451.613C41.313,449.268 41.336,446.923 41.361,444.578C41.519,407.032 22.81,374.166 -3,348C-9.617,341.383 -14.377,338.331 -23.738,337.434C-35.034,335.932 -45.137,328.77 -54,322C-54.401,323.31 -54.401,323.31 -54.81,324.646C-55.965,327.901 -57.342,330.67 -59.047,333.668C-59.645,334.727 -60.243,335.786 -60.859,336.877C-61.483,337.969 -62.107,339.062 -62.75,340.188C-63.975,342.347 -65.199,344.507 -66.422,346.668C-67.017,347.716 -67.612,348.765 -68.225,349.845C-70.865,354.537 -73.439,359.264 -76,364C-75.229,364.3 -74.459,364.601 -73.665,364.91C-70.853,366.06 -68.356,367.44 -65.75,369C-64.879,369.516 -64.007,370.031 -63.109,370.563C-61,372 -61,372 -60,374C-59.603,379.3 -60.349,382.52 -62.887,387.16C-63.8,388.845 -63.8,388.845 -64.732,390.564C-65.215,391.427 -65.215,391.427 -65.707,392.307C-66.682,394.053 -67.633,395.813 -68.584,397.572C-76.59,412.168 -76.59,412.168 -82.305,414.141C-87.174,413.955 -90.054,412.282 -94.125,409.75C-94.815,409.341 -95.504,408.933 -96.215,408.512C-98.154,407.358 -100.078,406.182 -102,405C-103.666,403.999 -105.333,402.999 -107,402C-107.131,402.587 -107.261,403.174 -107.396,403.779C-108.342,407.255 -110.076,410.331 -111.75,413.5C-112.085,414.164 -112.42,414.828 -112.766,415.512C-114.929,419.617 -116.974,422.464 -121,425C-126.577,425.107 -130.451,422.872 -135.082,420.059C-136.927,418.839 -136.927,418.839 -139,419C-140.148,420.568 -140.148,420.568 -141.207,422.613C-141.629,423.367 -142.051,424.12 -142.486,424.896C-143.363,426.493 -144.235,428.092 -145.104,429.693C-149.328,437.203 -149.328,437.203 -154,439C-158.221,439.414 -160.511,438.462 -164.105,436.289C-165.081,435.708 -166.056,435.128 -167.06,434.529C-168.608,433.587 -168.608,433.587 -170.188,432.625C-172.348,431.334 -174.509,430.045 -176.672,428.758C-178.276,427.799 -178.276,427.799 -179.912,426.821C-184.205,424.289 -188.563,421.886 -192.938,419.5C-207.476,411.524 -207.476,411.524 -211,408C-211.664,401.169 -210.082,397.358 -206.5,391.625C-203.337,387.098 -203.337,387.098 -202,382C-204.653,380.251 -207.356,378.67 -210.115,377.098C-216.411,373.398 -216.411,373.398 -218,370C-218.008,363.609 -215.073,358.914 -211.938,353.563C-211.465,352.736 -210.993,351.909 -210.506,351.057C-209.347,349.032 -208.178,347.013 -207,345C-207.678,344.75 -208.356,344.5 -209.055,344.242C-212.551,342.768 -215.829,340.992 -219.125,339.125C-219.745,338.786 -220.365,338.447 -221.004,338.098C-227.249,334.565 -227.249,334.565 -229,331C-229.767,325.201 -228.12,321.656 -225,316.938C-224.173,315.63 -223.347,314.321 -222.523,313.012C-222.103,312.351 -221.682,311.69 -221.249,311.009C-218.578,306.712 -216.181,302.252 -213.727,297.828C-210.983,293.335 -210.983,293.335 -209,292C-203.454,291.1 -199.775,293.333 -195.125,296C-194.437,296.382 -193.748,296.763 -193.039,297.156C-191.353,298.093 -189.676,299.045 -188,300C-187.679,298.828 -187.679,298.828 -187.352,297.633C-185.529,292.734 -182.982,288.395 -180.375,283.875C-179.804,282.874 -179.233,281.874 -178.644,280.843C-176.768,277.559 -174.884,274.279 -173,271C-170.708,267.003 -168.418,263.005 -166.13,259.006C-165.457,257.831 -164.784,256.655 -164.111,255.479C-158.471,245.63 -152.933,235.728 -147.436,225.798C-142.949,217.694 -138.41,209.621 -133.843,201.561C-129.873,194.553 -125.931,187.53 -122,180.5C-112.806,164.064 -103.558,147.658 -94.187,131.322C-91.962,127.443 -89.747,123.559 -87.578,119.648C-87.212,118.994 -86.847,118.339 -86.47,117.664C-85.515,115.952 -84.568,114.236 -83.621,112.52C-82,110 -82,110 -79,108C-73.587,108.253 -69.893,109.865 -65.25,112.563C-60.894,115.261 -60.894,115.261 -56,116C-55.68,115.399 -55.359,114.797 -55.029,114.178C-48.332,101.642 -41.464,89.237 -34.265,76.984C-30.001,69.726 -25.786,62.442 -21.625,55.125C-21.059,54.137 -20.493,53.15 -19.91,52.133C-19.396,51.225 -18.881,50.318 -18.352,49.383C-17.896,48.582 -17.441,47.782 -16.971,46.958C-15.852,45.066 -15.852,45.066 -16,43C-17.727,41.744 -17.727,41.744 -19.875,40.563C-22.911,38.827 -23.991,38.013 -26,35C-26.474,30.38 -25.691,27.742 -23.297,23.813C-22.728,22.866 -22.16,21.92 -21.574,20.945C-20.972,19.973 -20.37,19.001 -19.75,18C-19.163,17.028 -18.577,16.056 -17.973,15.055C-16.336,12.356 -14.677,9.674 -13,7C-12.589,6.344 -12.179,5.688 -11.756,5.012C-8.393,-0.216 -6.181,-0.395 0,0Z" style="fill:rgb(6,7,6);fill-rule:nonzero;"/>
    </g>
    <g transform="matrix(1,0,0,1,664,420)">
        <path d="M0,0C9.659,3.985 17.841,15.924 24,24C24.739,24.965 24.739,24.965 25.493,25.949C36.011,39.799 44.362,54.278 51.875,69.938C52.232,70.682 52.59,71.426 52.958,72.193C57.283,81.433 60.444,90.947 63,100.813C63.235,101.676 63.469,102.539 63.711,103.428C68.196,120.583 70.645,137.273 70.412,155.007C70.375,157.896 70.371,160.783 70.371,163.672C70.147,224.145 44.384,276.225 2.5,318.688C1.9,319.3 1.3,319.913 0.682,320.545C0.117,321.111 -0.449,321.678 -1.031,322.262C-1.532,322.767 -2.033,323.272 -2.549,323.792C-4,325 -4,325 -7,326C-7.755,324.316 -7.755,324.316 -8.525,322.598C-10.432,318.346 -12.341,314.095 -14.251,309.844C-15.07,308.02 -15.888,306.196 -16.706,304.372C-17.896,301.718 -19.088,299.064 -20.281,296.41C-20.869,295.1 -20.869,295.1 -21.469,293.763C-23.392,289.495 -25.347,285.248 -27.379,281.031C-27.752,280.254 -28.126,279.476 -28.511,278.676C-29.213,277.222 -29.922,275.771 -30.639,274.324C-32.302,270.882 -33,268.906 -33,265C-31.379,262.673 -29.748,260.543 -27.938,258.375C-26.915,257.107 -25.894,255.837 -24.875,254.566C-24.377,253.95 -23.88,253.334 -23.367,252.7C-9.248,235.146 -0.455,214.25 4.448,192.431C4.797,190.894 5.17,189.362 5.575,187.838C7.741,178.931 7.396,169.734 7.375,160.625C7.374,159.729 7.374,158.833 7.373,157.91C7.337,144.877 6.839,132.543 3,120C2.786,119.253 2.571,118.506 2.351,117.736C-5.452,90.78 -20.265,66.887 -40,47C-40.66,46.67 -41.32,46.34 -42,46L-42,44C-41.238,43.709 -40.476,43.417 -39.691,43.117C-32.878,40.412 -26.866,37.403 -21,33C-19.774,32.087 -19.774,32.087 -18.523,31.156C-9.667,23.589 -2.417,11.428 0,0Z" style="fill:rgb(253,253,253);fill-rule:nonzero;"/>
    </g>
    <g transform="matrix(1,0,0,1,541,256)">
        <path d="M0,0C7.04,3.43 13.888,7.117 20.688,11C22.725,12.158 24.763,13.315 26.801,14.473C27.832,15.059 28.862,15.646 29.924,16.25C33.798,18.454 37.677,20.65 41.557,22.844C43.435,23.906 45.312,24.969 47.189,26.033C52.398,28.982 57.621,31.9 62.863,34.789C64.002,35.419 65.14,36.049 66.313,36.698C68.515,37.915 70.721,39.126 72.929,40.332C73.926,40.884 74.922,41.435 75.949,42.004C76.829,42.487 77.709,42.97 78.616,43.467C81.104,45.067 82.992,46.839 85,49C82.976,52.663 80.949,56.325 78.921,59.986C78.234,61.227 77.547,62.468 76.861,63.71C75.212,66.696 73.554,69.676 71.876,72.647C70.685,74.776 69.522,76.921 68.397,79.086C64.803,85.741 64.803,85.741 60.844,87.02C59.74,86.951 58.637,86.883 57.5,86.813C42.159,86.845 29.186,94.453 18.25,104.723C7.609,115.493 0.749,130.093 0.482,145.297C0.491,146.728 0.491,146.728 0.5,148.188C0.504,149.688 0.504,149.688 0.509,151.218C0.714,160.714 2.452,169.57 7.73,177.648C9,180 9,180 8.691,181.929C7.524,185.427 5.622,188.553 3.813,191.75C3.168,192.9 3.168,192.9 2.51,194.074C-3.122,204.073 -8.944,213.963 -14.76,223.855C-15.546,225.215 -16.298,226.595 -17,228C-20.451,226.68 -23.682,225.178 -26.93,223.418C-28.351,222.649 -28.351,222.649 -29.802,221.864C-31.323,221.034 -31.323,221.034 -32.875,220.188C-33.94,219.609 -35.005,219.03 -36.102,218.433C-44.146,214.046 -52.135,209.568 -60.101,205.04C-69.075,199.942 -78.098,194.932 -87.13,189.936C-88.214,189.336 -89.298,188.736 -90.414,188.117C-91.852,187.322 -91.852,187.322 -93.319,186.511C-95.908,185.052 -98.459,183.542 -101,182C-100.409,178.109 -99.241,175.263 -97.297,171.852C-96.736,170.859 -96.174,169.865 -95.596,168.842C-94.682,167.25 -94.682,167.25 -93.75,165.625C-93.12,164.513 -92.489,163.401 -91.84,162.255C-89.899,158.834 -87.949,155.417 -86,152C-83.85,148.21 -81.706,144.418 -79.563,140.625C-78.773,139.231 -78.773,139.231 -77.968,137.809C-73.773,130.394 -69.631,122.951 -65.5,115.5C-60.324,106.163 -55.107,96.851 -49.844,87.563C-45.874,80.554 -41.931,73.53 -38,66.5C-28.868,50.177 -19.665,33.895 -10.396,17.649C-9.679,16.392 -8.961,15.134 -8.245,13.876C-7.244,12.12 -6.241,10.365 -5.238,8.609C-4.661,7.598 -4.084,6.587 -3.49,5.546C-2.387,3.661 -1.212,1.817 0,0Z" style="fill:rgb(253,253,253);fill-rule:nonzero;"/>
    </g>
    <g transform="matrix(1,0,0,1,579.625,677.75)">
        <path d="M0,0C0.865,-0.021 1.73,-0.041 2.621,-0.063C14.28,-0.132 24.478,4.501 33.063,12.375C41.267,21.388 45.766,33.222 50.51,44.277C52.455,48.809 54.426,53.33 56.395,57.852C57.005,59.255 57.005,59.255 57.627,60.688C62.085,70.922 66.694,81.087 71.313,91.25C72.894,94.735 74.475,98.221 76.055,101.707C76.428,102.531 76.802,103.355 77.187,104.204C80.464,111.437 83.72,118.678 86.938,125.938C87.372,126.91 87.807,127.883 88.256,128.885C88.647,129.772 89.038,130.66 89.441,131.574C89.771,132.318 90.1,133.061 90.44,133.827C91.624,136.896 92.471,140.087 93.375,143.25L-63.625,143.25C-62.456,135.064 -61.294,126.997 -59.707,118.902C-59.529,117.979 -59.351,117.055 -59.168,116.104C-58.594,113.131 -58.016,110.159 -57.438,107.188C-56.625,102.994 -55.814,98.8 -55.004,94.605C-54.802,93.56 -54.599,92.515 -54.391,91.439C-53.115,84.835 -51.87,78.227 -50.652,71.613C-40.907,18.705 -40.907,18.705 -24.625,7.25C-16.145,2.413 -9.668,0.056 0,0Z" style="fill:rgb(252,252,252);fill-rule:nonzero;"/>
    </g>
    <g transform="matrix(1,0,0,1,367.667,836.74)">
        <path d="M0,0C1.705,-0.011 1.705,-0.011 3.445,-0.021C4.69,-0.019 5.934,-0.017 7.216,-0.014C8.555,-0.019 9.894,-0.024 11.233,-0.03C14.912,-0.044 18.59,-0.046 22.269,-0.045C26.237,-0.047 30.205,-0.06 34.173,-0.072C42.851,-0.094 51.529,-0.102 60.207,-0.107C65.629,-0.111 71.051,-0.117 76.473,-0.124C91.493,-0.144 106.513,-0.16 121.533,-0.163C122.495,-0.163 123.456,-0.164 124.446,-0.164C126.395,-0.164 128.343,-0.165 130.292,-0.165C131.259,-0.165 132.226,-0.165 133.223,-0.165C134.676,-0.166 134.676,-0.166 136.158,-0.166C151.836,-0.17 167.514,-0.197 183.192,-0.234C199.299,-0.272 215.406,-0.291 231.514,-0.292C240.553,-0.292 249.592,-0.301 258.631,-0.33C266.332,-0.354 274.032,-0.361 281.733,-0.346C285.657,-0.339 289.582,-0.34 293.507,-0.363C297.109,-0.384 300.711,-0.381 304.313,-0.36C306.214,-0.355 308.115,-0.374 310.016,-0.395C324.237,-0.258 335.402,4.517 345.481,14.358C353.39,22.693 357.333,30.801 357.333,42.26L-29.667,42.26C-29.667,27.447 -29.033,17.689 -18.667,7.26C-13.008,2.859 -7.251,0.014 0,0Z" style="fill:rgb(254,254,254);fill-rule:nonzero;"/>
    </g>
    <g transform="matrix(1,0,0,1,631.812,366.25)">
        <path d="M0,0C9.04,7.697 16.462,16.634 18.188,28.75C19.231,45.045 16.923,57.672 6.527,70.855C-1.455,79.403 -11.896,84.428 -23.504,85.066C-39.711,85.608 -50.298,82.109 -62.59,71.168C-72.437,60.85 -75.224,47.941 -75.023,34.242C-74.599,21.565 -68.294,11.382 -59.23,2.789C-42.394,-11.409 -18.042,-13.141 0,0Z" style="fill:rgb(253,253,253);fill-rule:nonzero;"/>
    </g>
    <g transform="matrix(1,0,0,1,290,615)">
        <rect x="0" y="0" width="244" height="21" style="fill:rgb(253,253,253);fill-rule:nonzero;"/>
    </g>
    <g transform="matrix(1,0,0,1,613,181)">
        <path d="M0,0C5.888,1.61 10.828,4.577 16.063,7.625C16.988,8.159 17.914,8.693 18.868,9.243C25.993,13.37 33.027,17.623 40,22C36.146,29.935 32.007,37.607 27.5,45.188C22.427,53.793 17.476,62.455 12.625,71.188C7.949,79.596 3.155,87.877 -2,96C-2.663,95.638 -3.326,95.276 -4.009,94.903C-8.893,92.236 -13.78,89.576 -18.676,86.93C-20.555,85.911 -22.434,84.893 -24.313,83.875C-25.262,83.363 -26.211,82.851 -27.189,82.324C-31.95,79.74 -36.561,77.108 -41,74C-39.759,69.989 -38.296,66.443 -36.234,62.789C-35.681,61.804 -35.128,60.818 -34.558,59.803C-33.961,58.754 -33.365,57.706 -32.75,56.625C-32.13,55.527 -31.511,54.428 -30.872,53.297C-25.994,44.679 -21.014,36.122 -16,27.582C-11.869,20.535 -7.852,13.432 -3.931,6.266C-1.095,1.095 -1.095,1.095 0,0Z" style="fill:rgb(252,252,252);fill-rule:nonzero;"/>
    </g>
    <g transform="matrix(1,0,0,1,593.438,696.438)">
        <path d="M0,0C8.226,4.69 14.46,11.681 17.25,20.813C18.355,30.533 17.503,38.861 11.797,47.117C7.656,52.09 3.595,55.264 -2.438,57.563C-3.366,57.975 -4.294,58.388 -5.25,58.813C-14.163,60.91 -22.311,59.731 -30.438,55.563C-37.065,51.204 -41.502,45.293 -44.043,37.77C-45.62,28.948 -45.665,19.498 -40.984,11.676C-31.39,-1.432 -15.244,-7.039 0,0Z" style="fill:rgb(7,7,7);fill-rule:nonzero;"/>
    </g>
    <g transform="matrix(1,0,0,1,370,699)">
        <rect x="0" y="0" width="108" height="23" style="fill:rgb(251,251,251);fill-rule:nonzero;"/>
    </g>
    <g transform="matrix(1,0,0,1,411,440)">
        <path d="M0,0C3.869,1.453 7.409,3.237 11.023,5.238C11.597,5.555 12.171,5.872 12.762,6.198C14.635,7.233 16.505,8.273 18.375,9.313C19.688,10.04 21.001,10.767 22.314,11.494C31.035,16.328 39.726,21.215 48.398,26.136C55.702,30.277 63.033,34.366 70.375,38.438C81.418,44.563 92.452,50.701 103.457,56.895C106.836,58.795 110.225,60.671 113.637,62.512C114.637,63.059 114.637,63.059 115.657,63.617C117.34,64.537 119.029,65.445 120.719,66.352C123,68 123,68 124.059,69.82C123.967,73.227 122.337,75.386 120.563,78.25C119.904,79.328 119.245,80.405 118.566,81.516C118.049,82.335 117.533,83.155 117,84C113.484,82.678 110.33,81.123 107.105,79.199C106.162,78.641 105.219,78.083 104.248,77.508C103.238,76.907 102.228,76.306 101.188,75.688C92.853,70.775 84.463,66.01 75.938,61.438C67.181,56.739 58.499,51.928 49.86,47.018C42.391,42.776 34.889,38.598 27.375,34.438C15.859,28.058 4.408,21.571 -7,15C-5.793,11.109 -4.407,7.655 -2.375,4.125C-1.929,3.344 -1.483,2.563 -1.023,1.758C-0.686,1.178 -0.348,0.598 0,0Z" style="fill:rgb(250,250,249);fill-rule:nonzero;"/>
    </g>
    <g transform="matrix(1,0,0,1,421,483)">
        <path d="M0,0C4.004,1.238 7.534,2.696 11.176,4.766C12.156,5.319 13.136,5.872 14.146,6.442C15.191,7.039 16.236,7.635 17.313,8.25C19.558,9.521 21.805,10.792 24.051,12.063C25.212,12.721 26.373,13.38 27.534,14.039C31.955,16.54 36.392,19.011 40.829,21.483C51.642,27.509 62.371,33.655 73,40C72.268,41.654 71.513,43.298 70.75,44.938C70.332,45.854 69.915,46.771 69.484,47.715C68,50 68,50 66.25,50.813C63.005,51.083 61.323,49.88 58.512,48.273C57.424,47.66 56.337,47.047 55.217,46.415C54.04,45.735 52.864,45.055 51.688,44.375C50.471,43.683 49.255,42.993 48.037,42.304C45.551,40.894 43.07,39.478 40.591,38.056C37.327,36.184 34.051,34.334 30.77,32.492C18.787,25.763 6.876,18.915 -5,12C-4.213,7.201 -2.505,4.121 0,0Z" style="fill:rgb(248,248,248);fill-rule:nonzero;"/>
    </g>
    <g transform="matrix(1,0,0,1,613,148)">
        <path d="M0,0C6.016,1.632 11.082,4.72 16.438,7.813C18.499,8.991 20.56,10.169 22.621,11.348C23.675,11.952 24.73,12.557 25.816,13.18C29.89,15.509 33.982,17.807 38.074,20.105C42.725,22.72 47.365,25.355 52,28C52.807,28.46 53.613,28.92 54.444,29.394C56.595,30.626 58.736,31.872 60.875,33.125C61.494,33.479 62.112,33.833 62.75,34.198C66.884,36.652 66.884,36.652 68,40C67.004,42.262 67.004,42.262 65.563,44.688C64.853,45.9 64.853,45.9 64.129,47.137C63.756,47.752 63.384,48.366 63,49C57.319,47.425 52.608,44.644 47.563,41.688C45.681,40.598 43.8,39.51 41.918,38.422C40.945,37.858 39.972,37.294 38.97,36.713C34.125,33.919 29.249,31.18 24.375,28.438C14.204,22.703 4.09,16.875 -6,11C-5.19,9.353 -4.377,7.707 -3.563,6.063C-3.11,5.146 -2.658,4.229 -2.191,3.285C-1,1 -1,1 0,0Z" style="fill:rgb(249,249,247);fill-rule:nonzero;"/>
    </g>
    <g transform="matrix(1,0,0,1,473,652)">
        <path d="M0,0C21.885,-2.005 21.885,-2.005 28.708,3.477C30.767,5.428 32.73,7.438 34.631,9.542C36.727,11.774 39.098,13.609 41.5,15.5C47.741,20.579 53.871,25.787 60,31C58.693,34.439 57.19,37.613 55.375,40.813C54.929,41.603 54.483,42.393 54.023,43.207C53.686,43.799 53.348,44.39 53,45C44.4,41.158 37.334,33.461 30.487,27.093C26.36,23.274 22.049,19.725 17.672,16.195C11.483,11.11 5.632,5.692 0,0Z" style="fill:rgb(248,248,248);fill-rule:nonzero;"/>
    </g>
    <g transform="matrix(1,0,0,1,584,710)">
        <path d="M0,0C4.168,1.313 7.072,3.652 9.438,7.313C11.578,11.667 11.785,15.391 10.375,20.078C8.375,24.899 5.971,27.367 1.148,29.375C-3.859,30.832 -7.577,30.752 -12.313,28.25C-16.345,24.874 -18.574,22.084 -19.309,16.766C-19.559,11.886 -19.428,8.818 -16.188,5C-11.146,-0.178 -7.013,-0.842 0,0Z" style="fill:rgb(249,249,249);fill-rule:nonzero;"/>
    </g>
    <g transform="matrix(1,0,0,1,427,520)">
        <path d="M0,0C4.303,1.311 8.036,2.976 11.949,5.188C13.044,5.804 14.139,6.42 15.268,7.055C16.396,7.697 17.525,8.339 18.688,9C19.828,9.642 20.968,10.284 22.143,10.945C30.479,15.653 30.479,15.653 34,18C32.665,21.594 31.04,24.755 29,28C24.549,27.4 21.312,25.711 17.422,23.508C16.81,23.161 16.198,22.815 15.567,22.457C14.281,21.726 12.997,20.992 11.715,20.253C9.749,19.124 7.773,18.013 5.797,16.902C4.546,16.189 3.296,15.474 2.047,14.758C0.911,14.11 -0.225,13.461 -1.396,12.793C-4,11 -4,11 -5,8C-4.004,5.957 -4.004,5.957 -2.563,3.813C-2.089,3.097 -1.616,2.382 -1.129,1.645C-0.756,1.102 -0.384,0.559 0,0Z" style="fill:rgb(247,247,247);fill-rule:nonzero;"/>
    </g>
    <g transform="matrix(1,0,0,1,494,705)">
        <path d="M0,0C14.96,-1.224 14.96,-1.224 19.91,1.746C25,6.928 25,6.928 25,9L0,9L0,0Z" style="fill:rgb(236,235,236);fill-rule:nonzero;"/>
    </g>
</svg>
