<?xml version="1.0" encoding="UTF-8" standalone="no"?>
<!DOCTYPE svg PUBLIC "-//W3C//DTD SVG 1.1//EN" "http://www.w3.org/Graphics/SVG/1.1/DTD/svg11.dtd">
<svg width="100%" height="100%" viewBox="0 0 24 24" version="1.1" xmlns="http://www.w3.org/2000/svg" xmlns:xlink="http://www.w3.org/1999/xlink" xml:space="preserve" xmlns:serif="http://www.serif.com/" style="fill-rule:evenodd;clip-rule:evenodd;stroke-linecap:round;stroke-linejoin:round;stroke-miterlimit:1.5;">
    <g transform="matrix(0.507768,-0.861494,0.861494,0.507768,-0.9485,15.788)">
        <rect x="8" y="6" width="11" height="3" style="fill:white;stroke:rgb(51,51,51);stroke-width:0.5px;"/>
    </g>
    <g transform="matrix(0.138482,-0.234953,0.287165,0.169256,4.78995,15.899)">
        <rect x="8" y="6" width="11" height="3" style="fill:white;stroke:rgb(51,51,51);stroke-width:1.64px;"/>
    </g>
    <g transform="matrix(0.0923215,-0.156635,0.574329,0.338512,10.1143,1.94209)">
        <rect x="8" y="6" width="11" height="3" style="fill:white;stroke:rgb(51,51,51);stroke-width:1.02px;"/>
    </g>
    <g transform="matrix(1,0,0,1,-2,-4.21285)">
        <ellipse cx="17.5" cy="13.634" rx="2.5" ry="2.366" style="fill:white;stroke:rgb(51,51,51);stroke-width:0.5px;"/>
    </g>
    <g transform="matrix(0.28,0,0,0.295851,9.17092,13.3875)">
        <ellipse cx="17.5" cy="13.634" rx="2.5" ry="2.366" style="fill:white;stroke:rgb(51,51,51);stroke-width:1.74px;"/>
    </g>
    <g transform="matrix(1,0,0,1,-3.42908,3.78715)">
        <path d="M15,13.634C15,12.328 16.12,11.268 17.5,11.268C18.88,11.268 20,12.328 20,13.634" style="fill:none;stroke:rgb(51,51,51);stroke-width:0.5px;"/>
    </g>
    <g transform="matrix(1,0,0,1,1,1.0029)">
        <path d="M10.571,16.418L10.571,22" style="fill:none;stroke:rgb(51,51,51);stroke-width:0.5px;"/>
    </g>
    <g transform="matrix(1,0,0,1,1,1.0029)">
        <path d="M15.571,16.418L20,22" style="fill:none;stroke:rgb(51,51,51);stroke-width:0.5px;"/>
    </g>
    <g transform="matrix(1,0,0,1,1,1.0029)">
        <path d="M2,22L21,22" style="fill:none;stroke:rgb(51,51,51);stroke-width:0.5px;"/>
    </g>
    <g transform="matrix(1.05668,0,0,1,1.33206,3.0029)">
        <path d="M15.372,7.719C15.501,8.121 15.571,8.552 15.571,9C15.571,10.52 14.767,11.843 13.584,12.52" style="fill:none;stroke:rgb(51,51,51);stroke-width:0.49px;"/>
    </g>
    <g transform="matrix(1.32084,0,0,1.25,-1.78129,0.752903)">
        <path d="M15.007,6.899C15.364,7.51 15.571,8.23 15.571,9C15.571,10.427 14.862,11.68 13.797,12.388" style="fill:none;stroke:rgb(51,51,51);stroke-width:0.39px;"/>
    </g>
    <g transform="matrix(1,0,0,1,1,4.0029)">
        <rect x="3" y="16" width="7.571" height="1" style="fill:none;stroke:rgb(51,51,51);stroke-width:0.5px;"/>
    </g>
    <g transform="matrix(0.471662,0,0,2,4.58501,-13.9971)">
        <rect x="3" y="16" width="7.571" height="1" style="fill:none;stroke:rgb(51,51,51);stroke-width:0.34px;"/>
    </g>
</svg>
