<svg version="1.1" id="Layer_1" xmlns="http://www.w3.org/2000/svg" xmlns:xlink="http://www.w3.org/1999/xlink" x="0px" y="0px"
	 width="100%" viewBox="0 0 1024 1024" enable-background="new 0 0 1024 1024" xml:space="preserve">
<path fill="#000000" opacity="1.000000" stroke="none" 
	d="
M576.046875,563.317749 
	C574.051086,570.848145 569.729126,575.433105 562.268250,576.511292 
	C558.935425,576.992920 557.670410,578.765198 558.042542,581.964722 
	C558.061707,582.128967 558.024841,582.299683 558.043701,582.463989 
	C560.043701,599.936768 556.554016,616.263916 547.283447,631.178772 
	C539.332886,643.969971 538.929565,658.225037 538.332397,672.538818 
	C537.076233,702.645691 535.702637,732.747742 534.440430,762.854370 
	C533.666321,781.317322 533.033264,799.786072 532.286926,818.250244 
	C532.017944,824.903198 531.799805,831.567932 531.206970,838.195862 
	C530.396240,847.258911 521.846863,855.029358 513.005127,855.098999 
	C503.654327,855.172668 495.275330,847.596619 494.715179,837.993347 
	C493.561737,818.217957 492.585663,798.430725 491.727020,778.640076 
	C490.088989,740.885010 488.058777,703.134766 487.304810,665.360229 
	C487.035187,651.852234 484.006348,639.793823 477.452301,628.358643 
	C469.882568,615.151428 465.962311,601.178955 467.845551,585.863525 
	C468.524872,580.338806 467.772858,576.631104 460.713104,575.665955 
	C454.149506,574.768555 450.003601,568.199524 449.704163,561.287537 
	C449.574432,558.293335 449.659790,555.289551 449.659821,552.290100 
	C449.661560,454.639862 449.659149,356.989624 449.681091,259.339386 
	C449.682495,253.121597 449.047302,247.030151 446.564178,241.273239 
	C440.914978,228.175995 425.775848,225.039490 415.183777,234.729095 
	C411.570862,238.034134 408.954468,242.096817 406.488312,246.260361 
	C405.201172,248.433350 403.776337,250.484207 401.738190,251.994186 
	C397.965088,254.789505 393.830322,255.555481 389.534241,253.433029 
	C385.024628,251.205078 383.843445,247.058670 384.225952,242.480698 
	C386.419281,216.232224 404.806854,188.804703 441.101624,189.049484 
	C449.932953,189.109039 458.767731,188.912537 467.595764,189.089706 
	C471.414185,189.166351 472.970581,187.902832 472.951630,183.938354 
	C472.839600,160.443085 472.893250,136.947021 472.900330,113.451218 
	C472.901062,111.021271 472.763245,108.993233 469.708405,108.090187 
	C466.588654,107.167961 465.756592,104.302711 465.751251,101.261635 
	C465.738922,94.262901 465.624908,87.261856 465.764709,80.265999 
	C465.920105,72.488953 471.140167,66.892143 478.994019,66.822456 
	C501.488220,66.622864 523.986816,66.619858 546.480835,66.837418 
	C554.917480,66.919022 559.989807,72.410889 560.197632,80.898918 
	C560.360901,87.560669 560.221069,94.229378 560.272461,100.894547 
	C560.296265,103.977081 559.408691,106.771347 556.438110,107.856644 
	C553.387756,108.971046 553.070557,110.998665 553.074036,113.687218 
	C553.103455,136.683167 553.149902,159.679810 552.981384,182.674713 
	C552.948059,187.222687 554.101257,189.622589 559.127075,189.127792 
	C561.242432,188.919540 563.440002,189.396942 565.585693,189.674637 
	C571.782349,190.476639 575.781433,194.704910 576.278198,200.964661 
	C576.383301,202.290298 576.326782,203.629593 576.326721,204.962601 
	C576.324463,322.442810 576.321106,439.923035 576.308899,557.403259 
	C576.308716,559.233521 576.197693,561.063721 576.046875,563.317749 
M460.277496,369.662323 
	C458.746918,370.899231 459.030823,372.653564 459.029785,374.281769 
	C459.003967,415.106537 459.035706,455.931396 458.925598,496.755920 
	C458.914795,500.766449 460.486938,501.998444 464.269440,501.884583 
	C469.926788,501.714294 475.601013,501.777161 481.256409,502.016571 
	C483.964539,502.131226 486.193146,503.552917 486.113098,506.653107 
	C486.034729,509.687897 483.889893,511.037140 481.110748,511.166351 
	C477.618805,511.328735 474.114136,511.196808 470.615662,511.243225 
	C457.258331,511.420380 459.321747,509.421753 458.985016,522.956604 
	C458.876953,527.299622 460.261719,528.766296 464.669647,528.714355 
	C482.830200,528.500549 500.994507,528.597290 519.157410,528.588196 
	C533.154419,528.581238 547.151550,528.570007 561.148499,528.598816 
	C564.548523,528.605835 566.881897,527.924194 566.849609,523.645996 
	C566.718567,506.317261 566.748169,488.986511 566.866760,471.657471 
	C566.890808,468.141510 565.472412,466.896790 562.113220,467.008575 
	C559.124817,467.107971 556.103882,467.052673 553.136780,466.716980 
	C550.580750,466.427795 548.691101,464.942841 548.941101,462.077911 
	C549.178284,459.360016 551.241028,458.672760 553.622803,458.648315 
	C556.621887,458.617523 559.624451,458.496765 562.619446,458.596069 
	C565.885010,458.704346 566.950256,457.229767 566.898499,454.050385 
	C566.845398,450.786926 565.182373,450.125519 562.448669,450.237183 
	C560.623474,450.311737 558.763123,450.329071 556.965210,450.060059 
	C554.800537,449.736206 553.212402,448.414246 553.121643,446.110626 
	C553.026672,443.699493 554.731812,442.488922 556.860229,442.154816 
	C558.819397,441.847229 560.848633,441.805145 562.835632,441.895874 
	C566.400269,442.058655 566.842590,439.940247 566.867493,437.092194 
	C566.892761,434.207794 566.426941,432.128540 562.841614,432.349915 
	C560.686035,432.483032 558.508423,432.389435 556.347595,432.270935 
	C554.051880,432.145050 552.484375,430.926086 552.443359,428.561249 
	C552.402710,426.220062 553.855774,424.874237 556.178894,424.698578 
	C558.002502,424.560638 559.849426,424.501923 561.671631,424.623657 
	C565.124939,424.854401 566.856018,423.762390 566.909790,419.887482 
	C566.964355,415.955414 565.228882,414.930389 561.763794,415.195953 
	C560.114441,415.322388 558.416260,415.263702 556.781372,415.016479 
	C554.618530,414.689362 552.981689,413.481201 552.965149,411.108459 
	C552.949036,408.786316 554.466980,407.356232 556.622253,407.013947 
	C558.742737,406.677155 560.940735,406.674286 563.096741,406.750641 
	C566.438599,406.869110 566.803406,404.864929 566.824890,402.223328 
	C566.846802,399.526917 565.883728,398.203613 563.041931,398.280090 
	C559.545959,398.374237 556.043701,398.294128 552.545410,398.224854 
	C549.635986,398.167236 546.926331,397.343292 546.997437,393.897064 
	C547.069214,390.417694 549.907227,389.845825 552.755249,389.800140 
	C556.253845,389.744019 559.754883,389.678619 563.252014,389.752258 
	C566.263916,389.815674 566.804321,388.071350 566.807739,385.572296 
	C566.811157,383.095886 566.361755,381.281677 563.304504,381.366852 
	C560.977051,381.431702 558.628479,381.428101 556.317444,381.186127 
	C554.224609,380.966919 553.066162,379.481201 552.996948,377.432404 
	C552.934143,375.572510 553.992493,374.141022 555.802490,373.781677 
	C558.073425,373.330872 560.417664,373.057495 562.730347,373.056427 
	C565.764099,373.055084 566.813599,371.695740 566.794922,368.769501 
	C566.775696,365.769073 565.172607,365.131989 562.650146,365.175171 
	C560.657043,365.209351 558.624817,365.254028 556.674561,364.918488 
	C554.291443,364.508453 552.741333,362.955902 552.938110,360.391113 
	C553.118835,358.035645 554.756042,356.924042 557.003052,356.780060 
	C558.829834,356.662994 560.675598,356.577942 562.497437,356.703583 
	C565.783936,356.930237 566.842651,355.452881 566.836304,352.262695 
	C566.829163,348.707031 564.789673,348.718109 562.235291,348.812714 
	C560.249573,348.886322 558.237488,348.755219 556.263611,348.505371 
	C554.017273,348.221069 552.586182,346.938568 552.613220,344.524445 
	C552.639648,342.167511 553.992737,340.774414 556.235962,340.455750 
	C558.369812,340.152618 560.545410,340.005859 562.700562,340.025299 
	C565.653015,340.051941 566.870605,338.801880 566.834351,335.803802 
	C566.797607,332.766571 565.136353,332.194031 562.641968,332.284485 
	C560.978455,332.344818 559.309998,332.278564 557.643982,332.252075 
	C554.940979,332.209106 553.029907,331.003632 552.939453,328.182709 
	C552.846069,325.268005 554.960754,324.168091 557.502808,323.908386 
	C559.320068,323.722778 561.164734,323.742523 562.995728,323.768799 
	C565.338623,323.802368 566.830139,323.109528 566.789551,320.382477 
	C566.750061,317.725250 565.285828,316.946045 562.957092,316.916321 
	C559.294006,316.869568 555.627380,316.852051 551.970459,316.663055 
	C549.197693,316.519745 546.980652,315.347198 547.078796,312.176117 
	C547.170898,309.200226 549.547058,308.354553 551.969910,308.188232 
	C555.621155,307.937622 559.294128,307.940979 562.957581,307.948883 
	C565.679993,307.954773 566.812256,306.769653 566.827942,304.009247 
	C566.844360,301.120728 565.504211,300.185211 562.841492,300.278412 
	C560.849365,300.348145 558.825989,300.353271 556.858643,300.082001 
	C554.643616,299.776611 553.193542,298.309570 553.116211,296.047424 
	C553.035095,293.676880 554.684753,292.431793 556.806274,292.005615 
	C558.257263,291.714203 559.788330,291.820740 561.283569,291.749725 
	C563.854431,291.627655 566.801697,292.395630 566.861633,288.081726 
	C566.918579,283.976410 564.311829,284.099396 561.534546,284.068359 
	C560.039612,284.051697 558.518738,284.053711 557.058105,283.784271 
	C554.647156,283.339569 553.068115,281.820038 553.264771,279.297699 
	C553.442871,277.012451 555.059204,275.821381 557.356445,275.714203 
	C559.020142,275.636566 560.689819,275.562378 562.352478,275.617340 
	C565.072205,275.707153 566.846558,274.995148 566.827515,271.760010 
	C566.808960,268.615173 564.912659,268.341461 562.525330,268.367249 
	C559.026611,268.405060 555.526917,268.340912 552.027771,268.352112 
	C549.452332,268.360352 547.204956,267.698578 546.959961,264.743591 
	C546.699219,261.597107 548.848694,260.262604 551.614380,260.016876 
	C554.262634,259.781616 556.940186,259.855927 559.605164,259.831818 
	C566.830933,259.766418 566.839050,259.774323 566.838867,252.781677 
	C566.838440,237.118225 566.832764,221.454788 566.822144,205.791336 
	C566.817505,198.884476 566.315796,198.358673 559.472046,198.358490 
	C532.144348,198.357742 504.816650,198.360550 477.489044,198.405273 
	C474.457733,198.410233 471.426910,198.691559 467.397095,198.895172 
	C479.522949,207.592926 490.509521,215.993210 502.016327,223.607300 
	C519.994629,235.503571 527.133911,252.581650 527.350830,273.359131 
	C527.670837,304.011841 526.931274,334.669281 527.771545,365.321716 
	C527.841553,367.876923 528.460693,369.657074 530.301025,371.418304 
	C535.868530,376.746674 538.435242,383.263977 538.397522,391.100281 
	C538.248291,422.093201 538.360413,453.087311 538.320557,484.080933 
	C538.301453,498.936127 526.929810,510.400604 512.533447,510.218445 
	C498.315002,510.038513 487.685394,499.061676 487.670166,484.411011 
	C487.637787,453.250732 487.634003,422.090393 487.676025,390.930145 
	C487.697235,375.199860 497.685120,364.995117 513.538940,364.758850 
	C517.511414,364.699646 518.730103,363.325500 518.716675,359.493317 
	C518.614258,330.332977 518.980896,301.167114 518.525024,272.013580 
	C518.292969,257.174347 513.622925,243.705231 500.911743,234.521332 
	C485.518616,223.399750 469.945831,212.526642 454.436798,201.565826 
	C452.250214,200.020508 449.940918,198.415497 447.174591,198.529373 
	C441.191101,198.775681 435.117523,198.748032 429.260864,199.818146 
	C408.073090,203.689575 395.889374,223.129593 393.416809,240.598816 
	C393.199707,242.132797 392.750763,243.971771 394.534180,245.197113 
	C396.999115,245.055603 397.546356,242.855682 398.611908,241.282288 
	C400.478546,238.526047 402.088226,235.587082 404.060425,232.912582 
	C411.801392,222.415009 424.268036,217.672012 436.147491,220.816910 
	C448.105316,223.982605 454.229279,232.670883 457.161743,244.016800 
	C459.093933,251.492615 458.673157,259.228333 458.914825,266.859833 
	C459.031128,270.533447 460.282837,271.892029 463.947418,271.757843 
	C469.438293,271.556763 474.943054,271.727386 480.441864,271.752747 
	C490.128143,271.797424 491.892029,273.435242 491.928253,283.006958 
	C492.023529,308.168182 492.052979,333.329742 492.057129,358.491150 
	C492.058441,366.538116 489.828857,368.739197 481.579224,368.964966 
	C474.754028,369.151733 467.925507,369.216309 460.277496,369.662323 
M498.317200,712.373840 
	C499.294769,733.497986 500.315186,754.620300 501.230408,775.747131 
	C501.641754,785.242737 499.660309,784.810364 510.493744,784.804321 
	C524.474792,784.796509 524.235229,784.785583 524.848328,770.580383 
	C526.291260,737.146423 528.489868,703.736450 529.357483,670.290161 
	C529.766846,654.508240 531.438232,639.466797 539.591003,625.690063 
	C547.106323,612.990540 550.152283,599.425964 548.805786,584.635742 
	C548.078369,576.646606 548.585205,576.402100 540.212463,576.448853 
	C526.218018,576.527222 512.224609,576.768127 498.230499,576.912048 
	C492.731445,576.968628 487.231171,576.915466 481.732300,576.980713 
	C479.717865,577.004639 477.321136,577.003784 477.435455,579.884033 
	C477.929840,592.339661 475.058685,605.078125 482.302765,616.882629 
	C486.629456,623.933105 489.479095,631.894653 492.933411,639.473694 
	C494.244812,642.351013 495.338959,645.273254 495.478027,648.541870 
	C496.369568,669.499084 497.352570,690.452332 498.317200,712.373840 
M496.508728,188.988861 
	C510.496674,189.004166 524.485657,188.929718 538.471863,189.093185 
	C542.321350,189.138168 543.743713,187.858719 543.721436,183.904587 
	C543.588867,160.425507 543.585571,136.944855 543.729126,113.465889 
	C543.753662,109.450676 542.264832,108.323494 538.446167,108.358055 
	C521.962585,108.507256 505.476776,108.387367 488.992035,108.441284 
	C482.812622,108.461494 482.354492,109.017960 482.348724,115.435585 
	C482.330688,135.584946 482.329987,155.734314 482.320984,175.883682 
	C482.315186,188.933258 482.313965,188.933258 496.508728,188.988861 
M474.555054,567.678284 
	C502.206512,567.669128 529.857971,567.679382 557.509460,567.637390 
	C564.635193,567.626587 566.719360,565.495361 566.779053,558.406189 
	C566.822510,553.242615 566.545837,548.061707 566.885132,542.919739 
	C567.181396,538.427673 565.435181,537.268982 561.131409,537.297668 
	C534.646912,537.474365 508.160706,537.400330 481.675079,537.409973 
	C475.678345,537.412170 469.677734,537.545837 463.686310,537.368591 
	C460.210022,537.265747 458.864929,538.612305 459.032318,542.054321 
	C459.210083,545.709961 459.060455,549.381531 459.055176,553.046143 
	C459.034668,567.259521 459.430603,567.658203 474.555054,567.678284 
M528.913635,392.600861 
	C528.911682,391.434601 528.955811,390.266113 528.900269,389.102417 
	C528.558533,381.941071 523.458679,375.647522 516.944092,374.315308 
	C508.852203,372.660522 501.300781,376.140167 498.321564,383.358795 
	C496.463623,387.860565 495.182098,393.296600 498.491486,397.049866 
	C500.534332,399.366699 501.237366,401.190521 501.234711,403.812042 
	C501.213531,424.639984 501.174622,445.467957 501.148712,466.295898 
	C501.146851,467.794678 501.146576,469.297607 501.251190,470.791199 
	C501.351471,472.223328 501.878906,473.483551 503.582123,473.468231 
	C504.995148,473.455536 505.460327,472.355286 505.780640,471.149811 
	C507.127197,466.081512 507.362671,460.879456 506.734528,455.762146 
	C505.876343,448.770599 505.718323,441.757812 506.211731,434.809875 
	C506.852844,425.781982 505.975250,416.856842 505.616272,407.888458 
	C505.498657,404.949799 505.597778,402.002472 505.597778,398.820007 
	C511.476410,398.862366 515.797363,401.690033 520.538696,402.963776 
	C527.821106,404.920258 528.850037,404.282867 528.886047,397.050903 
	C528.891846,395.884521 528.897217,394.718140 528.913635,392.600861 
M460.323975,292.164673 
	C466.598602,293.122742 472.909760,292.541138 479.201721,292.536346 
	C483.795685,292.532837 482.465363,288.845276 482.629395,286.268433 
	C482.790283,283.741180 482.974182,281.057983 479.129120,281.108063 
	C474.977020,281.162140 470.823486,281.098816 466.670624,281.109009 
	C458.789093,281.128387 458.448059,281.486145 459.068024,289.237610 
	C459.132416,290.042511 459.465607,290.825928 460.323975,292.164673 
M469.527130,359.680420 
	C472.349640,359.680389 475.186951,359.496552 477.991211,359.722626 
	C482.394928,360.077576 482.771881,357.505768 482.714630,354.102783 
	C482.660675,350.894226 482.798492,348.058289 478.200165,348.294128 
	C473.563965,348.531952 468.896057,348.510712 464.259430,348.269135 
	C460.368896,348.066467 459.110870,349.543488 458.998810,353.433044 
	C458.866028,358.040497 460.063019,360.442047 465.073792,359.700623 
	C466.210907,359.532379 467.394531,359.678070 469.527130,359.680420 
M495.728821,76.816910 
	C492.725128,76.656410 488.263550,74.149811 487.606110,78.982475 
	C486.725220,85.457336 487.388000,92.142212 487.388000,99.161621 
	C489.954987,99.161621 491.764099,99.084885 493.563843,99.181778 
	C495.636871,99.293396 496.736481,98.493050 496.682922,96.342514 
	C496.525909,90.036217 497.250305,83.712181 495.728821,76.816910 
M507.069672,829.608276 
	C507.559235,833.050781 506.314606,836.762573 508.531433,840.263062 
	C510.803467,834.574341 510.119873,797.253662 507.066681,794.658691 
	C506.054077,805.971130 506.049011,817.307251 507.069672,829.608276 
M482.414734,321.978516 
	C482.601898,320.016785 483.281616,317.447144 480.334045,317.335938 
	C474.024414,317.097809 467.696228,317.247681 461.378723,317.382965 
	C459.434052,317.424622 459.118988,319.029999 459.144592,320.650421 
	C459.167999,322.132721 459.697754,323.507599 461.311707,323.471619 
	C468.217682,323.317566 475.191803,324.748627 482.414734,321.978516 
M462.081848,301.409851 
	C459.648804,301.450714 459.029297,302.912842 459.167053,305.045227 
	C459.311127,307.276337 460.782135,307.671326 462.605682,307.670258 
	C468.067596,307.667053 473.529633,307.657806 478.991425,307.684204 
	C481.393616,307.695831 482.723206,306.782990 482.613708,304.155273 
	C482.505524,301.559448 480.815063,301.355347 478.853638,301.361633 
	C473.557037,301.378571 468.260376,301.378479 462.081848,301.409851 
M480.663208,338.721313 
	C483.169891,337.986725 482.785187,335.957825 482.441132,334.219482 
	C482.052979,332.258240 480.199738,332.501984 478.762756,332.482941 
	C473.602142,332.414612 468.440094,332.415680 463.278961,332.450928 
	C461.287720,332.464508 459.168182,332.267029 459.128479,335.358063 
	C459.088684,338.458923 460.930145,338.857300 463.353241,338.839844 
	C468.847443,338.800201 474.342072,338.819031 480.663208,338.721313 
M501.374146,482.423035 
	C502.018799,484.407288 503.192566,485.344513 505.020508,483.799713 
	C506.062073,482.919525 505.812042,481.553741 504.905701,480.669525 
	C503.180939,478.986786 501.970673,479.567871 501.374146,482.423035 
z"/>
<path fill="#000000" opacity="1.000000" stroke="none" 
	d="
M497.504395,886.549072 
	C500.895599,880.777222 504.188843,875.369751 508.166931,870.435547 
	C511.142456,866.744751 515.288269,866.406189 517.827576,870.195435 
	C529.321716,887.347168 540.802124,904.600342 545.573242,925.110657 
	C550.734985,947.300354 537.945068,965.609253 515.536133,968.637939 
	C500.924438,970.612793 485.276703,959.883057 480.802002,945.041809 
	C478.205872,936.431152 478.660156,928.044373 481.436157,919.577454 
	C485.252045,907.938843 491.149200,897.342529 497.504395,886.549072 
M496.396912,931.893127 
	C497.844696,933.005737 499.223053,932.558350 499.440247,930.979553 
	C500.714752,921.714233 504.893341,913.591125 509.089478,905.452026 
	C509.820740,904.033569 510.152649,902.426086 508.292999,901.640442 
	C506.732910,900.981323 505.857483,902.208069 505.186859,903.421326 
	C501.965790,909.249268 498.783051,915.113220 497.078369,921.597107 
	C496.249786,924.748596 494.669922,927.886780 496.396912,931.893127 
M500.881592,946.567932 
	C503.164825,946.900818 504.050079,945.907532 503.152618,943.807678 
	C502.510925,942.306152 501.258331,940.545288 499.490662,941.843872 
	C497.430634,943.357422 499.055450,944.943481 500.881592,946.567932 
z"/>
</svg>