<?xml version="1.0" encoding="UTF-8"?>
<!-- Generator: visioncortex VTracer -->
<svg id="svg" version="1.1" xmlns="http://www.w3.org/2000/svg" style="display: block;" viewBox="0 0 1024 1024"><path d="M0 0 C337.92 0 675.84 0 1024 0 C1024 337.92 1024 675.84 1024 1024 C686.08 1024 348.16 1024 0 1024 C0 686.08 0 348.16 0 0 Z " transform="translate(0,0)" style="fill: #FEFEFE;"/><path d="M0 0 C1.29380217 -0.00445784 2.58760434 -0.00891569 3.92061263 -0.01350862 C5.34936894 -0.01341933 6.77812524 -0.0132295 8.20688152 -0.01294994 C9.73024596 -0.01625128 11.25360953 -0.01997741 12.776972 -0.02409142 C16.96058068 -0.03408923 21.14417502 -0.03782465 25.32779396 -0.04048073 C29.84135442 -0.04439047 34.3549036 -0.05396845 38.86845684 -0.0626936 C49.76861628 -0.08244075 60.66877663 -0.09252273 71.56894949 -0.10142139 C76.70662959 -0.1058078 81.84430866 -0.11117375 86.98198795 -0.11641026 C104.06942849 -0.133422 121.1568684 -0.14791454 138.2443161 -0.155159 C142.67696223 -0.15706878 147.10960834 -0.15898913 151.54225445 -0.16094494 C152.64392024 -0.16142868 153.74558604 -0.16191242 154.88063564 -0.16241082 C172.71318152 -0.17070501 190.54566018 -0.19603187 208.37817673 -0.22852562 C226.70160118 -0.2616406 245.02499154 -0.27961183 263.34844607 -0.28280324 C273.63015581 -0.28496439 283.91176757 -0.29365505 294.19344807 -0.31926441 C302.95289902 -0.34103224 311.71222821 -0.34899207 320.47170315 -0.33929763 C324.9356085 -0.33477029 329.39926293 -0.33654718 333.86313343 -0.35605907 C337.96137886 -0.37381687 342.05919267 -0.37259224 346.15744349 -0.35716178 C347.62862545 -0.35480465 349.09983831 -0.35900909 350.57097337 -0.37099043 C365.31098831 -0.48345992 379.41508299 2.08671407 392.51515484 9.13422108 C393.73718609 9.76070545 393.73718609 9.76070545 394.98390484 10.39984608 C419.66330385 23.9891354 428.9048254 48.81418854 438.45265484 73.69672108 C439.20648688 75.64556947 439.96104194 77.59413836 440.71632671 79.5424242 C441.84524057 82.45546503 442.97265032 85.36903045 444.09459209 88.28476429 C446.06560657 93.40654297 448.05861474 98.51833319 450.08595562 103.6181078 C450.50365719 104.67223362 450.92135876 105.72635944 451.35171795 106.81242847 C452.15563241 108.83824822 452.9636009 110.86246512 453.77612591 112.88484669 C454.13545712 113.79205967 454.49478832 114.69927265 454.86500835 115.63397694 C455.34406376 116.83201199 455.34406376 116.83201199 455.83279705 118.05424976 C456.51515484 120.13422108 456.51515484 120.13422108 456.51515484 123.13422108 C457.06751812 123.10803699 457.6198814 123.08185291 458.18898296 123.05487537 C476.91997801 122.28864266 491.87516891 124.57848815 506.71827984 136.97406483 C517.85938281 147.37101016 524.93955671 162.21585134 525.67628765 177.47064686 C525.71391755 180.70463058 525.746266 183.93812671 525.75538921 187.17230701 C525.7650319 189.23294915 525.79607773 191.2925649 525.82765484 193.35297108 C525.94640196 208.03122022 523.11254023 221.33299362 512.89015484 232.38422108 C505.32787775 239.43847571 496.03127703 244.92736005 485.57765484 245.25922108 C484.56702984 245.21797108 483.55640484 245.17672108 482.51515484 245.13422108 C482.53690777 246.01696705 482.53690777 246.01696705 482.55910015 246.91754627 C482.67724002 255.9362594 481.96473854 264.87062837 481.26515484 273.85297108 C481.12999658 275.62646626 480.99515865 277.39998589 480.86061382 279.17352772 C480.49437194 283.98485642 480.1225393 288.79573819 479.7494688 293.60654163 C479.51332188 296.65790564 479.27884725 299.7093936 479.04493999 302.76093006 C476.4613549 336.46374636 473.753818 370.15614158 471.00911236 403.84616566 C468.54634514 434.08147974 466.17407433 464.32237697 463.89015484 494.57172108 C463.74516398 496.4911553 463.60016482 498.4105889 463.45515728 500.33002186 C463.38378111 501.27484865 463.31240494 502.21967545 463.23886585 503.19313335 C462.8831607 507.90136922 462.52735346 512.60959736 462.17140484 517.31781483 C462.06721548 518.6962538 462.06721548 518.6962538 461.96092129 520.10254002 C460.47267222 539.78254773 458.94424992 559.4593085 457.39015484 579.13422108 C457.29780497 580.30353168 457.29780497 580.30353168 457.20358944 581.49646473 C454.899164 610.65656312 452.48226946 639.80668641 450.03370953 668.95502186 C449.39249861 676.59170034 448.75367065 684.22855644 448.12831402 691.8665514 C448.01246476 693.27966679 447.89602295 694.69273374 447.77894878 696.10574818 C447.06094153 704.78834083 446.41579807 713.47379945 445.82977581 722.16635609 C445.50113612 727.03094604 445.16275332 731.89484633 444.82475567 736.75879383 C444.66263069 739.13746784 444.50561702 741.51649689 444.35423565 743.89587879 C442.48494281 773.26973371 436.56005048 799.08150077 414.51515484 820.13422108 C400.96788001 831.59395436 382.61156189 839.24096777 364.80607986 839.26844215 C364.15362688 839.27079438 363.50117389 839.27314661 362.8289496 839.27557012 C360.64544138 839.28222034 358.46199322 839.28180311 356.27847576 839.2813921 C354.69593877 839.28469321 353.11340261 839.2884193 351.53086752 839.29253358 C347.18377562 839.30253366 342.83669753 839.30626716 338.48959577 839.30892289 C333.80020302 839.31283187 329.11082115 839.32240982 324.42143536 839.33113575 C313.09710768 839.35088369 301.77277914 839.36096439 290.44843856 839.36986354 C285.11225731 839.3742493 279.77607705 839.37961538 274.43989658 839.38485241 C256.69534956 839.40186325 238.95080316 839.4163566 221.20624924 839.42360115 C216.6030817 839.42551097 211.99991416 839.42743131 207.39674664 839.42938709 C206.25268761 839.42987083 205.10862859 839.43035457 203.92990112 839.43085297 C185.40408701 839.43915021 166.87833754 839.46448262 148.35255165 839.49696777 C129.32174913 839.53006572 110.29097943 839.5480524 91.26014799 839.55124539 C80.57943935 839.55340798 69.89882496 839.5621199 59.21814442 839.58770657 C50.12047381 839.60945096 41.02292034 839.61744561 31.9252267 839.60773978 C27.28739985 839.60320589 22.64981453 839.60502813 18.01202106 839.62450123 C13.75721611 839.64221113 9.50282746 839.64107231 5.2480176 839.62560394 C3.71765245 839.62323967 2.18725786 839.62748934 0.65693749 839.63943259 C-22.98587345 839.81236 -43.66684991 831.1382389 -60.88718891 814.88422108 C-83.53007396 790.91340743 -84.20412514 760.32307624 -86.4291811 729.26382923 C-86.96269231 721.82267894 -87.51113043 714.3826258 -88.06297016 706.94281483 C-88.12018742 706.17101698 -88.17740467 705.39921913 -88.23635578 704.60403347 C-89.53870502 687.08363847 -91.00241346 669.57764299 -92.48484516 652.07172108 C-94.47107863 628.60023841 -96.3571567 605.1243267 -98.10984516 581.63422108 C-99.44888158 563.68968982 -100.82272803 545.75055779 -102.35984516 527.82172108 C-103.71995032 511.94986647 -104.95661166 496.0702025 -106.14890766 480.18500233 C-106.22355118 479.19074427 -106.29819469 478.19648621 -106.37510014 477.17209911 C-107.13307429 467.06827619 -107.88692694 456.96415364 -108.63450527 446.8595562 C-110.3710371 423.40329145 -112.22225671 399.9599031 -114.19476414 376.5223074 C-114.27888931 375.5225104 -114.36301449 374.52271339 -114.44968891 373.49261951 C-114.53426727 372.48744974 -114.61884563 371.48227997 -114.70598698 370.44665051 C-116.1620154 353.10696252 -117.55684518 335.76222328 -118.94210529 318.41675663 C-119.3869992 312.8460712 -119.83422862 307.27559357 -120.28660297 301.70551014 C-120.73704805 296.15867313 -121.18201609 290.61142166 -121.6231432 285.0638361 C-121.78869216 282.99310248 -121.95609473 280.92251604 -122.12553883 278.85209751 C-123.0189494 267.91823876 -123.75527117 257.11302109 -123.48484516 246.13422108 C-124.12905415 246.11955799 -124.77326313 246.10489491 -125.4369936 246.08978748 C-136.52216432 245.7011234 -145.46036985 240.07602426 -153.29734516 232.54047108 C-164.37466736 220.35541666 -166.16233501 205.90514267 -166.00632954 190.15009022 C-165.984844 187.57158186 -166.00625181 184.99584953 -166.03172016 182.4174242 C-166.06012998 166.2306372 -162.14108291 151.9525354 -150.73484516 139.82172108 C-138.39412918 128.34031994 -124.07025533 123.05825534 -107.48484516 122.50922108 C-106.51933735 122.4705492 -105.55382954 122.43187733 -104.55906391 122.39203358 C-102.20117076 122.29865167 -99.8432676 122.21287779 -97.48484516 122.13422108 C-97.28376652 121.60757862 -97.08268787 121.08093616 -96.87551594 120.53833485 C-91.84298925 107.35959625 -86.79828265 94.18557721 -81.7416811 81.01605701 C-80.37971592 77.46845726 -79.02018966 73.9199603 -77.66550922 70.36957264 C-76.2191016 66.57902088 -74.75962004 62.79367978 -73.29734516 59.00922108 C-72.90184467 57.96669178 -72.50634418 56.92416248 -72.09885883 55.85004139 C-64.01980176 35.08555202 -51.22441758 16.74238457 -30.48484516 7.13422108 C-20.51864086 3.21884717 -10.79803481 0.0173131 0 0 Z " transform="translate(332.484845161438,90.86577892303467)" style="fill: #D85733;"/><path d="M0 0 C1.29380217 -0.00445784 2.58760434 -0.00891569 3.92061263 -0.01350862 C5.34936894 -0.01341933 6.77812524 -0.0132295 8.20688152 -0.01294994 C9.73024596 -0.01625128 11.25360953 -0.01997741 12.776972 -0.02409142 C16.96058068 -0.03408923 21.14417502 -0.03782465 25.32779396 -0.04048073 C29.84135442 -0.04439047 34.3549036 -0.05396845 38.86845684 -0.0626936 C49.76861628 -0.08244075 60.66877663 -0.09252273 71.56894949 -0.10142139 C76.70662959 -0.1058078 81.84430866 -0.11117375 86.98198795 -0.11641026 C104.06942849 -0.133422 121.1568684 -0.14791454 138.2443161 -0.155159 C142.67696223 -0.15706878 147.10960834 -0.15898913 151.54225445 -0.16094494 C152.64392024 -0.16142868 153.74558604 -0.16191242 154.88063564 -0.16241082 C172.71318152 -0.17070501 190.54566018 -0.19603187 208.37817673 -0.22852562 C226.70160118 -0.2616406 245.02499154 -0.27961183 263.34844607 -0.28280324 C273.63015581 -0.28496439 283.91176757 -0.29365505 294.19344807 -0.31926441 C302.95289902 -0.34103224 311.71222821 -0.34899207 320.47170315 -0.33929763 C324.9356085 -0.33477029 329.39926293 -0.33654718 333.86313343 -0.35605907 C337.96137886 -0.37381687 342.05919267 -0.37259224 346.15744349 -0.35716178 C347.62862545 -0.35480465 349.09983831 -0.35900909 350.57097337 -0.37099043 C365.31098831 -0.48345992 379.41508299 2.08671407 392.51515484 9.13422108 C393.73718609 9.76070545 393.73718609 9.76070545 394.98390484 10.39984608 C419.66330385 23.9891354 428.9048254 48.81418854 438.45265484 73.69672108 C439.20648688 75.64556947 439.96104194 77.59413836 440.71632671 79.5424242 C441.84524057 82.45546503 442.97265032 85.36903045 444.09459209 88.28476429 C446.06560657 93.40654297 448.05861474 98.51833319 450.08595562 103.6181078 C450.50365719 104.67223362 450.92135876 105.72635944 451.35171795 106.81242847 C452.15563241 108.83824822 452.9636009 110.86246512 453.77612591 112.88484669 C454.13545712 113.79205967 454.49478832 114.69927265 454.86500835 115.63397694 C455.34406376 116.83201199 455.34406376 116.83201199 455.83279705 118.05424976 C456.51515484 120.13422108 456.51515484 120.13422108 456.51515484 123.13422108 C457.06751812 123.10803699 457.6198814 123.08185291 458.18898296 123.05487537 C476.91997801 122.28864266 491.87516891 124.57848815 506.71827984 136.97406483 C517.85938281 147.37101016 524.93955671 162.21585134 525.67628765 177.47064686 C525.71391755 180.70463058 525.746266 183.93812671 525.75538921 187.17230701 C525.7650319 189.23294915 525.79607773 191.2925649 525.82765484 193.35297108 C525.94640196 208.03122022 523.11254023 221.33299362 512.89015484 232.38422108 C505.32787775 239.43847571 496.03127703 244.92736005 485.57765484 245.25922108 C484.56702984 245.21797108 483.55640484 245.17672108 482.51515484 245.13422108 C482.53690777 246.01696705 482.53690777 246.01696705 482.55910015 246.91754627 C482.67724002 255.9362594 481.96473854 264.87062837 481.26515484 273.85297108 C481.12999658 275.62646626 480.99515865 277.39998589 480.86061382 279.17352772 C480.49437194 283.98485642 480.1225393 288.79573819 479.7494688 293.60654163 C479.51332188 296.65790564 479.27884725 299.7093936 479.04493999 302.76093006 C476.4613549 336.46374636 473.753818 370.15614158 471.00911236 403.84616566 C468.54634514 434.08147974 466.17407433 464.32237697 463.89015484 494.57172108 C463.74516398 496.4911553 463.60016482 498.4105889 463.45515728 500.33002186 C463.38378111 501.27484865 463.31240494 502.21967545 463.23886585 503.19313335 C462.8831607 507.90136922 462.52735346 512.60959736 462.17140484 517.31781483 C462.06721548 518.6962538 462.06721548 518.6962538 461.96092129 520.10254002 C460.47267222 539.78254773 458.94424992 559.4593085 457.39015484 579.13422108 C457.29780497 580.30353168 457.29780497 580.30353168 457.20358944 581.49646473 C454.899164 610.65656312 452.48226946 639.80668641 450.03370953 668.95502186 C449.39249861 676.59170034 448.75367065 684.22855644 448.12831402 691.8665514 C448.01246476 693.27966679 447.89602295 694.69273374 447.77894878 696.10574818 C447.06094153 704.78834083 446.41579807 713.47379945 445.82977581 722.16635609 C445.50113612 727.03094604 445.16275332 731.89484633 444.82475567 736.75879383 C444.66263069 739.13746784 444.50561702 741.51649689 444.35423565 743.89587879 C442.48494281 773.26973371 436.56005048 799.08150077 414.51515484 820.13422108 C400.96788001 831.59395436 382.61156189 839.24096777 364.80607986 839.26844215 C364.15362688 839.27079438 363.50117389 839.27314661 362.8289496 839.27557012 C360.64544138 839.28222034 358.46199322 839.28180311 356.27847576 839.2813921 C354.69593877 839.28469321 353.11340261 839.2884193 351.53086752 839.29253358 C347.18377562 839.30253366 342.83669753 839.30626716 338.48959577 839.30892289 C333.80020302 839.31283187 329.11082115 839.32240982 324.42143536 839.33113575 C313.09710768 839.35088369 301.77277914 839.36096439 290.44843856 839.36986354 C285.11225731 839.3742493 279.77607705 839.37961538 274.43989658 839.38485241 C256.69534956 839.40186325 238.95080316 839.4163566 221.20624924 839.42360115 C216.6030817 839.42551097 211.99991416 839.42743131 207.39674664 839.42938709 C206.25268761 839.42987083 205.10862859 839.43035457 203.92990112 839.43085297 C185.40408701 839.43915021 166.87833754 839.46448262 148.35255165 839.49696777 C129.32174913 839.53006572 110.29097943 839.5480524 91.26014799 839.55124539 C80.57943935 839.55340798 69.89882496 839.5621199 59.21814442 839.58770657 C50.12047381 839.60945096 41.02292034 839.61744561 31.9252267 839.60773978 C27.28739985 839.60320589 22.64981453 839.60502813 18.01202106 839.62450123 C13.75721611 839.64221113 9.50282746 839.64107231 5.2480176 839.62560394 C3.71765245 839.62323967 2.18725786 839.62748934 0.65693749 839.63943259 C-22.98587345 839.81236 -43.66684991 831.1382389 -60.88718891 814.88422108 C-83.53007396 790.91340743 -84.20412514 760.32307624 -86.4291811 729.26382923 C-86.96269231 721.82267894 -87.51113043 714.3826258 -88.06297016 706.94281483 C-88.12018742 706.17101698 -88.17740467 705.39921913 -88.23635578 704.60403347 C-89.53870502 687.08363847 -91.00241346 669.57764299 -92.48484516 652.07172108 C-94.47107863 628.60023841 -96.3571567 605.1243267 -98.10984516 581.63422108 C-99.44888158 563.68968982 -100.82272803 545.75055779 -102.35984516 527.82172108 C-103.71995032 511.94986647 -104.95661166 496.0702025 -106.14890766 480.18500233 C-106.22355118 479.19074427 -106.29819469 478.19648621 -106.37510014 477.17209911 C-107.13307429 467.06827619 -107.88692694 456.96415364 -108.63450527 446.8595562 C-110.3710371 423.40329145 -112.22225671 399.9599031 -114.19476414 376.5223074 C-114.27888931 375.5225104 -114.36301449 374.52271339 -114.44968891 373.49261951 C-114.53426727 372.48744974 -114.61884563 371.48227997 -114.70598698 370.44665051 C-116.1620154 353.10696252 -117.55684518 335.76222328 -118.94210529 318.41675663 C-119.3869992 312.8460712 -119.83422862 307.27559357 -120.28660297 301.70551014 C-120.73704805 296.15867313 -121.18201609 290.61142166 -121.6231432 285.0638361 C-121.78869216 282.99310248 -121.95609473 280.92251604 -122.12553883 278.85209751 C-123.0189494 267.91823876 -123.75527117 257.11302109 -123.48484516 246.13422108 C-124.12905415 246.11955799 -124.77326313 246.10489491 -125.4369936 246.08978748 C-136.52216432 245.7011234 -145.46036985 240.07602426 -153.29734516 232.54047108 C-164.37466736 220.35541666 -166.16233501 205.90514267 -166.00632954 190.15009022 C-165.984844 187.57158186 -166.00625181 184.99584953 -166.03172016 182.4174242 C-166.06012998 166.2306372 -162.14108291 151.9525354 -150.73484516 139.82172108 C-138.39412918 128.34031994 -124.07025533 123.05825534 -107.48484516 122.50922108 C-106.51933735 122.4705492 -105.55382954 122.43187733 -104.55906391 122.39203358 C-102.20117076 122.29865167 -99.8432676 122.21287779 -97.48484516 122.13422108 C-97.28376652 121.60757862 -97.08268787 121.08093616 -96.87551594 120.53833485 C-91.84298925 107.35959625 -86.79828265 94.18557721 -81.7416811 81.01605701 C-80.37971592 77.46845726 -79.02018966 73.9199603 -77.66550922 70.36957264 C-76.2191016 66.57902088 -74.75962004 62.79367978 -73.29734516 59.00922108 C-72.90184467 57.96669178 -72.50634418 56.92416248 -72.09885883 55.85004139 C-64.01980176 35.08555202 -51.22441758 16.74238457 -30.48484516 7.13422108 C-20.51864086 3.21884717 -10.79803481 0.0173131 0 0 Z M-103.48484516 245.13422108 C-102.80091511 261.06301702 -102.80091511 261.06301702 -101.54661274 276.9174242 C-101.36934679 278.76571273 -101.19316922 280.6141059 -101.01795673 282.46259022 C-100.88481256 283.85823704 -100.88481256 283.85823704 -100.74897861 285.28207874 C-100.29712608 290.16123255 -99.90330255 295.04489673 -99.51096821 299.92914295 C-99.42962257 300.9402268 -99.34827694 301.95131065 -99.26446629 302.99303341 C-99.00759935 306.19627466 -98.75206962 309.39962099 -98.49656391 312.60297108 C-98.31123495 314.91530664 -98.12579722 317.22763349 -97.94025898 319.53995228 C-97.45035183 325.64888801 -96.96181942 331.7579329 -96.47357273 337.86700153 C-95.96766998 344.19393482 -95.46048495 350.52076528 -94.95335102 356.84759998 C-94.35036931 364.37082629 -93.74744669 371.89405726 -93.14507771 379.41733265 C-92.05179837 393.07071526 -90.95566178 406.72385854 -89.85203266 420.37640858 C-89.79332556 421.1028532 -89.73461845 421.82929783 -89.67413235 422.57775593 C-89.20286842 428.40888 -88.73129625 434.23997901 -88.25861835 440.07098866 C-86.96026103 456.08906971 -85.70774307 472.11020769 -84.48484516 488.13422108 C-81.37737395 528.7830484 -78.22449049 569.42828125 -75.04734516 610.07172108 C-74.95003857 611.31650982 -74.85273197 612.56129856 -74.75247669 613.84380817 C-72.00136796 649.02765442 -69.21680056 684.20849181 -66.3366518 719.38202381 C-66.28070599 720.06618649 -66.22476017 720.75034918 -66.16711903 721.45524406 C-65.90012138 724.72005742 -65.63208235 727.98477774 -65.36213398 731.24934864 C-64.86128057 737.34180536 -64.38607492 743.4345044 -63.95969868 749.53265858 C-63.87521976 750.71552952 -63.79074085 751.89840046 -63.70370197 753.11711597 C-63.54831218 755.31510989 -63.39904915 757.51355057 -63.2575655 759.71248341 C-61.99449633 777.45016987 -55.28684875 792.41907102 -42.30906391 804.72406483 C-28.36502309 816.62375112 -11.941675 819.44056514 5.83339214 819.40837574 C7.38822101 819.41283308 8.94304761 819.41814875 10.49787092 819.42424446 C14.7545289 819.43837564 19.01111368 819.44008868 23.26779175 819.43964756 C27.86515393 819.44130011 32.46248634 819.45437487 37.05983257 819.46584034 C47.10557483 819.48865652 57.15129592 819.49660745 67.19706059 819.50166678 C73.47534149 819.50492802 79.75361628 819.51145312 86.03189373 819.51866817 C103.43085056 819.53823043 120.82980172 819.55463659 138.22877026 819.55754471 C139.89776687 819.55782606 139.89776687 819.55782606 141.60048059 819.5581131 C143.85591443 819.55847934 146.11134828 819.55884304 148.36678213 819.55920421 C150.04607623 819.55947843 150.04607623 819.55947843 151.75929546 819.55975819 C153.44065085 819.56002901 153.44065085 819.56002901 155.15597302 819.5603053 C173.30844236 819.56384506 191.46079294 819.59085677 209.61322111 819.62825608 C228.27122922 819.66638787 246.92917847 819.68570255 265.58722639 819.68600422 C276.05446781 819.68658772 286.52156756 819.69501059 296.98877239 819.72400188 C305.90371487 819.74858108 314.81846403 819.7557547 323.73343128 819.74075436 C328.27638916 819.73361192 332.81896578 819.73432694 337.3618803 819.75716496 C341.53225579 819.77792798 345.70196113 819.77499542 349.87233073 819.75429011 C351.36966761 819.75082798 352.86705459 819.75556371 354.36432594 819.76999455 C372.81503892 819.93616098 390.44722714 814.72116225 404.09327984 801.81390858 C415.37222708 789.33429921 421.14791539 773.96190461 422.37452984 757.30609608 C422.47885326 756.00350346 422.47885326 756.00350346 422.58528423 754.67459583 C422.81830893 751.74493736 423.04165427 748.81462038 423.26515484 745.88422108 C423.43250045 743.75640505 423.60049086 741.62863966 423.76906109 739.5009203 C424.14579808 734.73085641 424.51831676 729.96048515 424.88820171 725.18988514 C425.50982367 717.18308624 426.14328555 709.17724846 426.77868557 701.17153263 C428.70459702 676.90518792 430.62560423 652.63841132 432.50734234 628.36859608 C432.80127431 624.58211134 433.09552362 620.79565147 433.39015484 617.00922108 C433.4626646 616.07723896 433.53517437 615.14525684 433.6098814 614.18503284 C435.33708258 592.03961269 437.16384784 569.90225429 438.97725201 547.7637682 C442.15560291 508.9615776 445.28295277 470.15809097 448.17003155 431.3329668 C450.35478445 401.96707239 452.65443051 372.61143023 455.01515484 343.25922108 C455.09124729 342.31265896 455.16733974 341.36609684 455.24573803 340.39085102 C456.74725719 321.71774718 458.2493065 303.04479703 459.85499859 284.38031483 C460.00051662 282.68811817 460.00051662 282.68811817 460.14897442 280.96173573 C460.57575009 276.0155437 461.0078076 271.06989291 461.44874859 266.12494373 C461.52347897 265.27303959 461.59820934 264.42113544 461.67520428 263.54341602 C461.80852941 262.02389898 461.94444739 260.50460519 462.08398724 258.98564625 C462.49094737 254.31456121 462.51515484 249.86418646 462.51515484 245.13422108 C275.73515484 245.13422108 88.95515484 245.13422108 -103.48484516 245.13422108 Z " transform="translate(332.484845161438,90.86577892303467)" style="fill: #212121;"/><path d="M0 0 C1.18191065 -0.00384115 2.36382131 -0.00768229 3.58154744 -0.01163983 C4.88638343 -0.01077335 6.19121942 -0.00990687 7.53559589 -0.00901413 C8.93079168 -0.01159716 10.32598672 -0.01461015 11.72118074 -0.01801753 C15.56409501 -0.02609818 19.40699062 -0.0278777 23.24991238 -0.028615 C27.39116075 -0.03046373 31.5323994 -0.0380102 35.67364216 -0.04475021 C44.73362874 -0.05834211 53.7936109 -0.06435972 62.85360599 -0.06876087 C68.50965103 -0.07152212 74.16569436 -0.07575928 79.82173824 -0.08026505 C95.47820618 -0.09245934 111.13467274 -0.10275801 126.79114532 -0.10614014 C127.79354768 -0.1063597 128.79595003 -0.10657927 129.82872822 -0.10680549 C131.33595731 -0.10713291 131.33595731 -0.10713291 132.87363547 -0.10746694 C134.90982544 -0.1079104 136.94601542 -0.10835697 138.98220539 -0.10880661 C139.99222881 -0.10902804 141.00225223 -0.10924947 142.04288242 -0.10947761 C158.40731948 -0.11342525 174.77171199 -0.13087751 191.13613185 -0.15416613 C207.93277155 -0.17787709 224.72938891 -0.19034189 241.52604562 -0.19150805 C250.9585057 -0.19242501 260.39090776 -0.19818249 269.82335186 -0.21632767 C277.85592329 -0.23172527 285.88841879 -0.23685117 293.92100217 -0.22858956 C298.01918558 -0.22468171 302.11721606 -0.22561916 306.21538067 -0.23964691 C309.96904352 -0.25237788 313.7224384 -0.2511955 317.47610084 -0.2390562 C319.473266 -0.23617185 321.47043576 -0.24804114 323.46756428 -0.26047826 C331.17221444 -0.21798906 337.6119815 0.05702131 343.79641438 5.13142776 C346.16843976 8.16762025 346.48405979 10.70572904 346.48589802 14.43198013 C346.49013342 15.76180499 346.49013342 15.76180499 346.49445438 17.11849499 C346.49242638 18.09673009 346.49039837 19.07496519 346.48830891 20.08284378 C346.49002724 21.12558991 346.49174557 22.16833605 346.49351597 23.24268055 C346.49790571 26.79024666 346.49485494 30.33776707 346.49172688 33.88533401 C346.49291791 36.46849459 346.49444363 39.05165502 346.49627399 41.63481522 C346.5003853 49.56305418 346.49387975 57.4912727 346.4860487 65.4195075 C346.4832131 68.4412365 346.48105268 71.46296584 346.47887611 74.48469537 C346.46454 94.0216559 346.43282973 113.55856585 346.39336872 133.09549046 C346.37244638 143.53288156 346.35413667 153.97027022 346.33999348 164.40767288 C346.30418892 190.62157781 346.25455564 216.83535928 346.17179775 243.04916286 C346.1342997 255.0179225 346.10318613 266.98662152 346.0884676 278.95543289 C346.07566087 289.26932841 346.04891526 299.58307351 346.00450194 309.89688325 C345.98193679 315.23123128 345.96597636 320.56539544 345.96699619 325.89979553 C345.96773534 330.82811436 345.95003929 335.7560123 345.91773868 340.6842221 C345.90923339 342.47811525 345.90750609 344.2720555 345.91311383 346.06596005 C345.91973636 348.50656889 345.90188958 350.94582316 345.87789631 353.38629532 C345.88953688 354.44143296 345.88953688 354.44143296 345.90141261 355.51788652 C345.81459844 360.49672377 344.55236395 363.34501374 341.35891438 367.13142776 C337.60250628 369.85392614 335.00015913 370.5079587 330.39085293 370.51733112 C329.1869265 370.52700446 327.98300007 370.5366778 326.74259102 370.54664427 C325.42344386 370.54199846 324.10429669 370.53735266 322.74517536 370.53256607 C321.32691207 370.5381713 319.90865341 370.54507378 318.4904021 370.55316204 C314.59301859 370.57152443 310.69582804 370.57111437 306.79841113 370.56757891 C302.59515987 370.5669671 298.39197073 370.58352107 294.18874836 370.59775162 C285.95402657 370.62267706 277.71936919 370.63091638 269.48461284 370.63258875 C262.79189505 370.63401388 256.09919853 370.64017633 249.40648746 370.64969063 C230.43536728 370.67611134 211.46429802 370.6899485 192.49315931 370.68769921 C190.95886871 370.6875194 190.95886871 370.6875194 189.39358234 370.68733597 C188.36947454 370.68721333 187.34536674 370.68709068 186.29022537 370.68696433 C169.68914457 370.6857447 153.08826782 370.71445909 136.48724605 370.75675107 C119.44532237 370.79982407 102.40349825 370.82056266 85.36151874 370.81796974 C75.79212349 370.81697323 66.22294219 370.82524047 56.65359592 370.85750389 C48.50678554 370.88479499 40.3602861 370.89136477 32.21344985 370.87097562 C28.05648319 370.86116755 23.90011336 370.8610524 19.74320316 370.88703537 C15.93696716 370.91058187 12.13180278 370.90638999 8.32559346 370.88018297 C6.29793867 370.87338147 4.27025108 370.89610448 2.24272454 370.91990191 C-4.26036613 370.84570122 -8.63902862 370.581992 -13.40205967 365.90613312 C-16.29900162 361.75672981 -16.89168638 358.07598032 -16.89835453 353.08248615 C-16.90480342 351.86052605 -16.91125232 350.63856594 -16.91789663 349.37957674 C-16.91495447 348.02676417 -16.91181905 346.67395201 -16.90851116 345.32114029 C-16.91224788 343.88154342 -16.91684949 342.44194857 -16.92224181 341.00235695 C-16.93448428 337.04606485 -16.93420989 333.08985724 -16.93185306 329.13355052 C-16.93144521 324.86694017 -16.94248085 320.60035702 -16.95196819 316.33375931 C-16.96858533 307.97505076 -16.97407804 299.61637043 -16.97519295 291.25764675 C-16.97614296 284.46481118 -16.98025089 277.67198492 -16.9865942 270.8791523 C-17.00420752 251.62628488 -17.01343277 232.37343976 -17.01193325 213.12056423 C-17.01185334 212.08250613 -17.01177343 211.04444803 -17.01169109 209.97493362 C-17.01160933 208.93561044 -17.01152757 207.89628725 -17.01144333 206.82546943 C-17.01063011 189.9748011 -17.02977669 173.12422209 -17.05796783 156.2735796 C-17.0866764 138.97741616 -17.10050928 121.6812963 -17.09878027 104.38510841 C-17.09811574 94.67215353 -17.10363613 84.95929232 -17.12513638 75.24635887 C-17.14332138 66.97806861 -17.14771752 58.70991448 -17.13411753 50.44161291 C-17.12757466 46.2221093 -17.12751804 42.00286709 -17.14482403 37.78338814 C-17.1605016 33.92128053 -17.15774609 30.05964273 -17.14025576 26.19754695 C-17.13717411 24.79988486 -17.14086203 23.40218816 -17.15197591 22.00456686 C-17.24813602 9.05513102 -17.24813602 9.05513102 -12.64108562 4.13142776 C-8.60612226 0.58555087 -5.27552384 0.00641976 0 0 Z " transform="translate(347.6410856246948,411.8685722351074)" style="fill: #FCF9F4;"/><path d="M0 0 C1.569084 -0.00461595 3.13816366 -0.01097351 4.70723438 -0.01890898 C8.99386198 -0.03553022 13.28013109 -0.02738897 17.56675959 -0.0149641 C22.19942753 -0.00588627 26.83203531 -0.01989686 31.46469116 -0.03088379 C40.53015502 -0.04864448 49.59548619 -0.04483995 58.66095519 -0.03323323 C66.03046108 -0.02418953 73.39992985 -0.02297896 80.7694397 -0.02732849 C82.34439609 -0.02824789 82.34439609 -0.02824789 83.95116979 -0.02918586 C86.08434988 -0.0304648 88.21752996 -0.03176165 90.35071003 -0.03307623 C110.3405676 -0.04447485 130.33035171 -0.03137958 150.32019722 -0.00987476 C167.46211812 0.00799556 184.60393066 0.00489125 201.74584961 -0.0135498 C221.66552736 -0.03496918 241.58514079 -0.04337628 261.50482845 -0.03110075 C263.63003984 -0.02982659 265.75525124 -0.02856911 267.88046265 -0.02732849 C268.92603185 -0.02671139 269.97160105 -0.02609429 271.04885417 -0.02545848 C278.40714777 -0.02200879 285.76540048 -0.02782572 293.12368774 -0.0372467 C302.09437776 -0.04847991 311.06492782 -0.04539881 320.03560185 -0.02412373 C324.61017129 -0.01363114 329.1845076 -0.00946088 333.75907516 -0.02272034 C337.95119935 -0.03468726 342.14287553 -0.0280113 346.33495939 -0.00681013 C347.84692488 -0.00236221 349.35892864 -0.0045694 350.87086928 -0.01431328 C367.34602314 -0.11229912 380.35165944 5.26190953 392.49682617 16.54309082 C398.49911563 22.99426944 401.84672068 30.42208207 405.02416992 38.51574707 C405.36828415 39.38456009 405.71239838 40.25337311 406.06694031 41.14851379 C409.69306114 50.35357426 413.16362272 59.61651273 416.59960938 68.8939209 C417.65144714 71.73321478 418.70766808 74.57085123 419.7644043 77.4083252 C420.44760081 79.24742364 421.13055272 81.08661297 421.81323242 82.92590332 C422.1226326 83.75728317 422.43203278 84.58866302 422.75080872 85.44523621 C423.04509262 86.24089493 423.33937653 87.03655365 423.64257812 87.85632324 C424.02274834 88.88169441 424.02274834 88.88169441 424.41059875 89.92778015 C425.77162057 93.76836326 427.03644587 97.64241868 428.32495117 101.50793457 C261.01495117 101.50793457 93.70495117 101.50793457 -78.67504883 101.50793457 C-77.93171622 97.79127155 -77.12944162 94.74183991 -75.83666992 91.23718262 C-75.27005142 89.69353279 -75.27005142 89.69353279 -74.69198608 88.11869812 C-74.28163116 87.01351334 -73.87127625 85.90832855 -73.44848633 84.76965332 C-73.02258209 83.61608841 -72.59667786 82.4625235 -72.15786743 81.27400208 C-71.25352774 78.82809037 -70.34725791 76.38289157 -69.43920898 73.93835449 C-68.07016405 70.24963255 -66.71008538 66.55769511 -65.35083008 62.86535645 C-51.86920375 26.38990275 -51.86920375 26.38990275 -44.67504883 18.50793457 C-44.16586914 17.92012207 -43.65668945 17.33230957 -43.13208008 16.72668457 C-31.24658768 3.85308711 -16.94471437 -0.10920219 0 0 Z " transform="translate(337.675048828125,112.4920654296875)" style="fill: #FECE57;"/><path d="M0 0 C0.93209293 -0.00170885 1.86418587 -0.0034177 2.82452404 -0.00517833 C5.94300062 -0.00846855 9.06126131 0.00252286 12.17971802 0.01345825 C14.41702774 0.01402247 16.65433783 0.01370561 18.89164734 0.01257324 C24.96344487 0.01199913 31.03516347 0.02376301 37.10694265 0.03772116 C43.45306594 0.0502187 49.79919101 0.05139825 56.14532471 0.05377197 C66.79629036 0.05928306 77.44722482 0.07177781 88.09817505 0.08963013 C99.0672491 0.1079965 110.03631528 0.1221493 121.00540161 0.13064575 C121.68187327 0.1311712 122.35834492 0.13169665 123.05531572 0.13223802 C126.44907604 0.13484815 129.84283641 0.13737555 133.23659682 0.13986182 C161.37797637 0.16058521 189.51932391 0.19595176 217.66067505 0.24050903 C217.68254883 1.46399048 217.68254883 1.46399048 217.7048645 2.71218872 C217.76667883 5.79897326 217.84095983 8.88516122 217.92312622 11.97146606 C217.97191915 13.93984428 218.00690943 15.90854938 218.04153442 17.87722778 C218.39734429 30.62169024 219.96443404 41.50280203 228.66067505 51.24050903 C235.7796295 57.8559618 242.82976278 60.69614369 252.43484497 60.66043091 C253.70956665 60.67313522 253.70956665 60.67313522 255.01004028 60.68609619 C257.80389617 60.70938633 260.59719839 60.71048993 263.3911438 60.70925903 C265.34779578 60.71636762 267.30444569 60.72406763 269.26109314 60.73233032 C273.35894564 60.74575846 277.45660557 60.74735236 281.55447388 60.7414856 C286.77845623 60.73560433 292.00150447 60.76612382 297.22530651 60.80660248 C301.26709376 60.83259461 305.30865989 60.83534624 309.35051918 60.83171082 C311.27484793 60.83339265 313.19918794 60.84294394 315.12343407 60.8608551 C327.56422959 60.96388172 338.72655223 60.70075659 348.59817505 52.05300903 C358.36527905 41.04715037 358.9385436 27.65986878 359.28567505 13.61550903 C359.32434692 12.32515747 359.3630188 11.03480591 359.40286255 9.70535278 C359.49633847 6.55054034 359.58209818 3.39572176 359.66067505 0.24050903 C388.55329864 0.14920273 417.44590517 0.07844151 446.33864471 0.03624772 C449.7518966 0.03124506 453.1651482 0.02606775 456.57839966 0.02078247 C457.25789903 0.01973323 457.93739841 0.01868399 458.63748867 0.01760295 C469.63101463 0.0002112 480.62445668 -0.03131967 491.61793291 -0.06810215 C502.90340241 -0.10554588 514.18883009 -0.12743477 525.47436482 -0.13584495 C531.81113829 -0.14105822 538.14772161 -0.15330554 544.48443413 -0.18241119 C550.4507524 -0.20959312 556.41680249 -0.2179302 562.3831768 -0.21192169 C564.57087665 -0.21302067 566.75858561 -0.22095776 568.94623184 -0.23631287 C571.93868926 -0.25628384 574.93014084 -0.25140386 577.92262268 -0.24050903 C578.78354332 -0.2521604 579.64446396 -0.26381176 580.5314731 -0.2758162 C589.82259354 -0.18470277 597.96869347 3.85847186 604.66067505 10.24050903 C610.48500376 17.4337487 612.9630574 24.05907115 613.0317688 33.34988403 C613.04079727 34.11673523 613.04982574 34.88358643 613.05912781 35.67367554 C613.07357563 37.29064059 613.08250338 38.90766338 613.08621216 40.52468872 C613.09807581 42.97005404 613.14728156 45.41286506 613.19778442 47.85769653 C613.29813981 57.46342967 612.9584501 65.72978421 605.91751099 73.05374146 C598.13729129 79.55321429 588.82966503 80.69110752 579.02244473 80.62082577 C577.99382494 80.62548569 576.96520516 80.63014561 575.90541509 80.63494673 C572.46631767 80.64687637 569.0276168 80.63750888 565.58851624 80.62818909 C563.09491806 80.63236286 560.60132177 80.63784061 558.10772902 80.6445089 C552.69011334 80.65595654 547.27261781 80.65809514 541.85499573 80.65195847 C533.79880134 80.64285744 525.74268689 80.65090734 517.68649863 80.66224971 C503.29736821 80.68190865 488.90827382 80.6842656 474.51913318 80.67905451 C461.92755628 80.67449666 449.33599364 80.67509737 436.74441719 80.68089485 C435.05515983 80.68165172 433.36590248 80.6824077 431.67664512 80.6831628 C429.1310827 80.68430799 426.58552028 80.68545787 424.03995787 80.68662204 C400.37670684 80.69732569 376.71346057 80.70205354 353.05020809 80.69415188 C352.15834762 80.69385471 351.26648715 80.69355753 350.3476006 80.69325135 C343.10511637 80.69080243 335.86263219 80.68819084 328.62014802 80.68556722 C300.36239423 80.67546219 272.10469985 80.6838256 243.84695435 80.70706177 C212.09685237 80.73312746 180.34678615 80.74598439 148.59667307 80.73887402 C145.21215443 80.73815795 141.82763579 80.73748357 138.44311714 80.73683357 C137.60976606 80.73666376 136.77641498 80.73649395 135.91781084 80.736319 C123.3335038 80.7340152 110.74922994 80.74199672 98.16493034 80.75512505 C83.85676091 80.77002517 69.54866932 80.77089419 55.24050158 80.75305413 C47.23274346 80.74348096 39.22516686 80.74494671 31.2174208 80.76228882 C25.24081813 80.77399384 19.26444048 80.76482399 13.28784353 80.74746645 C10.8680799 80.74368632 8.44829441 80.7466859 6.02855014 80.7570781 C2.74305253 80.77018732 -0.54148006 80.75871769 -3.82693577 80.74108028 C-5.24072034 80.75555605 -5.24072034 80.75555605 -6.68306622 80.77032426 C-15.42039534 80.67381875 -22.3870621 77.80584219 -28.8354187 71.88113403 C-35.87567243 64.20085724 -35.57608049 55.53227538 -35.63449097 45.650177 C-35.65159676 43.64229376 -35.69547655 41.6346965 -35.73971558 39.62722778 C-35.81369203 28.18932975 -33.76297177 19.14693591 -26.33151245 10.24832153 C-18.65441209 2.51100862 -10.66082914 -0.07173584 0 0 Z " transform="translate(223.33932495117188,235.75949096679688)" style="fill: #FDCE57;"/><path d="M0 0 C1.21477652 -0.00445784 2.42955303 -0.00891569 3.68114096 -0.01350862 C5.02588881 -0.01341933 6.37063666 -0.01322949 7.71538448 -0.01294994 C9.14657899 -0.01625062 10.57777256 -0.01997662 12.00896496 -0.02409142 C15.94224995 -0.03409631 19.87551968 -0.03782578 23.8088156 -0.04048073 C28.0509939 -0.04438827 32.29316017 -0.05396628 36.53533077 -0.0626936 C46.78033198 -0.08244517 57.02533416 -0.09252249 67.27034965 -0.10142139 C72.09686641 -0.10580637 76.92338207 -0.11117263 81.74989796 -0.11641026 C97.79761083 -0.13342112 113.84532302 -0.14791489 129.89304352 -0.155159 C134.05639363 -0.15706884 138.21974374 -0.15898918 142.38309383 -0.16094494 C143.41785254 -0.16142868 144.45261125 -0.16191242 145.51872628 -0.16241082 C162.27803892 -0.17070967 179.03728015 -0.19604479 195.79656161 -0.22852562 C213.00912816 -0.26161256 230.22165845 -0.27960923 247.43425697 -0.28280324 C257.09598974 -0.2849668 266.75761836 -0.293693 276.41932011 -0.31926441 C284.64827222 -0.34099372 292.87709489 -0.34901085 301.10607243 -0.33929763 C305.30202214 -0.33475941 309.4977049 -0.33661114 313.69361782 -0.35605907 C317.54122735 -0.37373803 321.38837612 -0.37265513 325.23599087 -0.35716178 C327.27385699 -0.35367783 329.3117282 -0.36977655 331.34952646 -0.38676625 C342.68337329 -0.30789189 353.72427702 1.81963187 361.98343563 10.13422108 C370.24463147 20.10787437 371.43014089 29.87597665 371.36438656 42.51250172 C371.36784731 43.96507559 371.37261467 45.41764682 371.37856829 46.87021261 C371.39105085 50.84399844 371.38492047 54.81756714 371.37560964 58.79135358 C371.36880814 63.08387501 371.37930587 67.37635971 371.3875494 71.66887379 C371.40087752 80.07117725 371.398013 88.47340025 371.38931148 96.87570684 C371.38253127 103.70607709 371.38161967 110.5364248 371.38488293 117.36679745 C371.38534263 118.33961797 371.38580233 119.31243848 371.38627595 120.31473841 C371.38723515 122.2911313 371.38820779 124.26752418 371.38919373 126.24391706 C371.39774504 144.76966275 371.38791778 163.29536388 371.37179263 181.82110227 C371.3583918 197.70861927 371.36071611 213.5960705 371.37454891 229.48358631 C371.39061293 247.94232486 371.39691887 266.40102436 371.38771212 284.85976893 C371.3867565 286.82912226 371.38581338 288.7984756 371.38488293 290.76782894 C371.3844201 291.73673374 371.38395727 292.70563855 371.38348042 293.7039041 C371.38089284 300.52362663 371.38525657 307.34332434 371.39232159 314.16304302 C371.400746 322.47759109 371.39843674 330.79205422 371.38247935 339.10659259 C371.37460899 343.34682446 371.37148391 347.58691484 371.38142681 351.82714558 C371.39039999 355.71267988 371.38539795 359.59794222 371.36949416 363.48345203 C371.36615739 364.8850986 371.36781544 366.2867684 371.37512152 367.6883999 C371.43867788 380.90020034 369.35108124 391.26918167 360.13187313 401.11078358 C352.59204051 408.16998941 344.2926208 411.2533165 334.02096081 411.26564884 C332.81826778 411.26948999 331.61557475 411.27333113 330.37643647 411.27728868 C328.39976208 411.27598895 328.39976208 411.27598895 326.38315487 411.27466297 C324.96632168 411.27724754 323.54948922 411.28026095 322.13265777 411.28366637 C318.23918498 411.29172882 314.34573063 411.29352552 310.45225048 411.29426384 C306.2530763 411.29611569 302.05391166 411.30366367 297.854743 411.31039906 C288.67291075 411.32397723 279.49108287 411.33000621 270.30924225 411.33440971 C264.57578915 411.33717284 258.84233773 411.3414103 253.10888577 411.34591389 C237.23359057 411.35810556 221.35829672 411.36840528 205.48299694 411.37178898 C204.46707833 411.37200854 203.45115973 411.37222811 202.40445571 411.37245433 C201.38611323 411.37267261 200.36777076 411.37289089 199.31856942 411.37311578 C197.25503524 411.37355924 195.19150106 411.37400581 193.12796688 411.37445545 C192.1043837 411.37467688 191.08080052 411.37489831 190.02619967 411.37512645 C173.43947045 411.37907471 156.85278515 411.39653003 140.2660729 411.41981497 C123.23545251 411.44353007 106.20485416 411.45599089 89.17421699 411.4571569 C79.61264608 411.45807353 70.05113243 411.46382305 60.48957729 411.48197651 C52.34802177 411.49737957 44.20654119 411.50249671 36.06497386 411.49423841 C31.9119712 411.49033273 27.75911944 411.49125749 23.60613537 411.50529575 C19.80130622 411.51803942 15.99674131 411.51683318 12.1919125 411.50470504 C10.16973392 411.50182496 8.14755074 411.51368024 6.12540841 411.5261271 C-6.22061351 411.45906194 -15.54162036 408.35717184 -24.70406437 399.94672108 C-34.37047894 389.79477883 -35.31563875 377.41092513 -35.27053165 364.09724903 C-35.27283823 362.66957628 -35.27601607 361.24190472 -35.27998614 359.81423563 C-35.28831586 355.90470889 -35.28421717 351.99528012 -35.27801371 348.08575308 C-35.27348271 343.86413488 -35.28047622 339.64253334 -35.28597355 335.42091846 C-35.2948625 327.15585572 -35.29294768 318.89082932 -35.28714827 310.62576515 C-35.28262953 303.90739889 -35.2820198 297.18904281 -35.2841959 290.47067547 C-35.28450237 289.5140829 -35.28480883 288.55749034 -35.28512459 287.57191012 C-35.28576404 285.62853197 -35.28641247 283.68515383 -35.28706977 281.74177568 C-35.29277168 263.5222395 -35.2862175 245.30272344 -35.27546903 227.08319055 C-35.26653508 211.45574077 -35.26808455 195.82832071 -35.27730656 180.20087147 C-35.2880141 162.04759511 -35.29222086 143.89433641 -35.28608203 125.74105734 C-35.28544494 123.80456571 -35.2848162 121.86807408 -35.2841959 119.93158245 C-35.28388735 118.97882661 -35.2835788 118.02607077 -35.2832609 117.04444354 C-35.2815353 110.33597764 -35.28444617 103.62752296 -35.28915501 96.9190588 C-35.29476927 88.74098499 -35.29323596 80.56294956 -35.28259352 72.38488013 C-35.27734395 68.21366423 -35.27526787 64.04251229 -35.28189182 59.87129688 C-35.28786826 56.04997712 -35.28454828 52.22878037 -35.27393672 48.40747171 C-35.27065809 46.37649892 -35.27715854 44.34551754 -35.28405118 42.3145538 C-35.22830642 29.29363426 -33.12275822 18.85917309 -24.14547062 9.02875233 C-17.0426629 2.70790509 -9.36692711 0.01597483 0 0 Z M-10.32906437 25.69672108 C-12.89730182 29.40639739 -13.14268608 31.31815648 -13.14799213 35.8140192 C-13.15183328 37.03000616 -13.15567442 38.24599312 -13.15963197 39.49882817 C-13.15885163 40.86046717 -13.15797283 42.22210612 -13.15700626 43.583745 C-13.15958845 45.0207511 -13.1626012 46.45775647 -13.16600966 47.89476085 C-13.17410025 51.85781132 -13.17587038 55.8208437 -13.17660713 59.78390145 C-13.17845414 64.05260122 -13.18599971 68.32129153 -13.19274235 72.58998585 C-13.20634114 81.93088018 -13.21235289 91.27177022 -13.21675301 100.61267281 C-13.21951301 106.44240441 -13.22374993 112.27213434 -13.22825718 118.10186481 C-13.24045222 134.23439524 -13.25075084 150.36692433 -13.25413227 166.49945927 C-13.25435184 167.53257598 -13.2545714 168.56569269 -13.25479762 169.63011597 C-13.2550159 170.66574386 -13.25523418 171.70137176 -13.25545907 172.76838231 C-13.25590254 174.86705383 -13.2563491 176.96572534 -13.25679874 179.06439686 C-13.25702017 180.10541655 -13.2572416 181.14643624 -13.25746974 182.21900198 C-13.26141818 199.08924218 -13.27887255 215.95943919 -13.30215827 232.82966271 C-13.32585811 250.13928668 -13.33833351 267.44888897 -13.33950019 284.75852942 C-13.34041776 294.48157492 -13.34619057 304.20456416 -13.3643198 313.92759418 C-13.3797024 322.20691559 -13.38485218 330.48616337 -13.3765817 338.76549634 C-13.37266855 342.99101504 -13.37363704 347.2163854 -13.38763905 351.44188595 C-13.40033838 355.30959098 -13.39921558 359.17703559 -13.38704833 363.04474005 C-13.38508441 364.44451105 -13.38820175 365.84430025 -13.3968927 367.24404564 C-13.4079569 369.14635311 -13.39872276 371.04874621 -13.38850117 372.95105839 C-13.38909826 374.00787508 -13.38969534 375.06469178 -13.39031053 376.15353322 C-12.78673196 380.96717282 -10.72932323 384.26627187 -7.68785954 387.96995926 C-2.73720728 391.74473166 3.80877233 390.81557443 9.72415829 390.76241016 C11.1440009 390.76745683 12.56383715 390.7746866 13.98365879 390.78390831 C17.88087475 390.80284093 21.77746339 390.79059158 25.67466354 390.77318537 C29.87924484 390.75981962 34.08373386 390.7752456 38.28830624 390.78700733 C46.52329537 390.80539424 54.75804735 390.79686463 62.99302912 390.77891911 C69.68526256 390.76489808 76.37743159 390.76099924 83.06967831 390.76436138 C84.0218573 390.76483882 84.97403629 390.76531627 85.95506918 390.76580818 C87.88935361 390.7668345 89.82363802 390.76788986 91.75792241 390.76897394 C108.865042 390.77754313 125.97204704 390.76085891 143.07913876 390.73114491 C159.68205229 390.70230699 176.2848008 390.69522368 192.88773251 390.71063709 C210.96371048 390.72739501 229.03961008 390.73143763 247.1155901 390.71392673 C249.04279104 390.71208233 250.96999199 390.7102476 252.89719296 390.70842266 C254.31955255 390.70705453 254.31955255 390.70705453 255.77064669 390.70565875 C262.45546103 390.70005081 269.14023713 390.70336294 275.8250494 390.70996761 C283.97073627 390.71769607 292.11626063 390.71096582 300.26191473 390.68579257 C304.41862784 390.67328617 308.57508781 390.66716474 312.73181057 390.67833424 C316.53654352 390.68836493 320.34077133 390.67994249 324.14544272 390.65675306 C326.17474517 390.64913977 328.20409188 390.66115834 330.23336887 390.67385679 C338.96405055 390.69553445 338.96405055 390.69553445 345.98343563 386.13422108 C349.22485338 382.15104887 349.41618498 378.46674274 349.38216305 373.50934315 C349.39213435 372.36608823 349.39213435 372.36608823 349.40230709 371.19973725 C349.42096706 368.64195548 349.41832992 366.08464136 349.41580868 363.5267992 C349.42482513 361.68325015 349.4351432 359.83970709 349.44665813 357.99617195 C349.47438125 352.94870914 349.48350682 347.90135872 349.48949599 342.85382962 C349.49905082 337.46992885 349.52562326 332.08610984 349.55010128 326.70226002 C349.59469253 316.28399454 349.62328317 305.86574571 349.64587742 295.4474116 C349.66433716 287.06114349 349.68855783 278.67491074 349.71695614 270.28867054 C349.72096467 269.10316142 349.7249732 267.91765231 349.72910321 266.69621867 C349.73723371 264.29849438 349.74537654 261.90077013 349.75353169 259.50304592 C349.82620603 237.93513645 349.88157637 216.36721551 349.92803121 194.79923522 C349.96422552 178.08691972 350.01382674 161.37471045 350.07639992 144.66247392 C350.13018783 130.27362676 350.1742603 115.88479526 350.2032299 101.49587536 C350.2063432 99.95719241 350.20946388 98.41850947 350.21259212 96.87982655 C350.21411213 96.12743596 350.21563213 95.37504537 350.21719819 94.59985507 C350.22849 89.33100988 350.24672696 84.06221542 350.26770687 78.79340076 C350.29525062 71.82624103 350.30716095 64.85921089 350.30769825 57.89199734 C350.31023653 55.38908613 350.31785141 52.88617396 350.33100224 50.38329601 C350.34784967 47.02626358 350.34636057 43.66974409 350.33988094 40.31268787 C350.34909919 39.34164364 350.35831743 38.3705994 350.36781502 37.37012959 C350.3369265 32.44081898 350.1612003 29.1564788 346.98343563 25.13422108 C346.57093563 24.57734608 346.15843563 24.02047108 345.73343563 23.44672108 C339.4664215 18.74646048 330.69445198 19.85197305 323.31227779 19.87352467 C321.91220317 19.8705021 320.5121302 19.86661209 319.11206013 19.8619321 C315.27429716 19.85165726 311.43662766 19.85383258 307.59885705 19.85811269 C303.45634876 19.86058078 299.31386293 19.85156484 295.17136288 19.8440752 C287.06024355 19.83132946 278.94915733 19.82953428 270.83802968 19.83187547 C264.24642461 19.83365857 257.6548296 19.83190916 251.06322575 19.82765102 C250.12505905 19.82705583 249.18689236 19.82646065 248.22029637 19.82584742 C246.3144385 19.82463568 244.40858062 19.82342154 242.50272275 19.82220504 C224.63284633 19.81133043 206.76298878 19.8134919 188.8931113 19.81958989 C172.54050728 19.82476159 156.18796278 19.8134968 139.83537053 19.79449167 C123.04539006 19.77512768 106.25543777 19.76685457 89.46544605 19.77061492 C80.0387031 19.77252882 70.61201084 19.77002085 61.18527699 19.75590038 C53.16225514 19.74400411 45.13931522 19.74256211 37.11629229 19.75469055 C33.02238337 19.76059098 28.92862443 19.76164656 24.83472538 19.74968815 C21.08748799 19.73886938 17.34052652 19.7418846 13.59330226 19.75594983 C11.59485428 19.75986745 9.59639423 19.7490172 7.59797472 19.73765296 C5.81522397 19.74846277 5.81522397 19.74846277 3.99645805 19.75949097 C2.97272935 19.75943595 1.94900064 19.75938094 0.89424986 19.75932425 C-3.89358651 20.37597118 -7.11406389 22.13415298 -10.32906437 25.69672108 Z " transform="translate(344.01656436920166,391.86577892303467)" style="fill: #222122;"/><path d="M0 0 C5.94295335 3.3955689 10.46484337 8.17601727 15.265625 13 C16.14023376 13.87269531 17.01484253 14.74539063 17.91595459 15.64453125 C19.75730169 17.48452107 21.59614035 19.32702419 23.43261719 21.171875 C25.31455169 23.06098499 27.19882378 24.9471871 29.08886719 26.828125 C31.81983866 29.54675632 34.54381027 32.27220437 37.265625 35 C38.11143127 35.84175781 38.95723755 36.68351562 39.82867432 37.55078125 C40.60998718 38.33839844 41.39130005 39.12601562 42.19628906 39.9375 C43.22837494 40.97197266 43.22837494 40.97197266 44.28131104 42.02734375 C46.81545652 44.93595492 47.90402194 47.09780621 48.3125 50.9375 C47.95328773 54.45778025 47.16379476 56.21797817 45 59 C41.57234748 61.57073939 38.16028704 61.43037452 34 61 C28.76029271 58.02491196 24.80683505 54.04532953 20.625 49.75 C19.98433594 49.1003125 19.34367188 48.450625 18.68359375 47.78125 C17.11770636 46.19199115 15.55671491 44.59823583 14 43 C7.63409696 48.24458586 1.86429388 54.02097322 -3.9375 59.875 C-4.91708237 60.85960919 -5.89689837 61.843986 -6.87695312 62.828125 C-9.25360252 65.21648203 -11.62787356 67.60715212 -14 70 C-12.35333941 74.27238166 -9.13947497 77.09544742 -5.93359375 80.2265625 C-5.33950211 80.81545258 -4.74541046 81.40434265 -4.13331604 82.01107788 C-2.23940726 83.88720808 -0.33893569 85.75650105 1.5625 87.625 C3.46661442 89.50150464 5.36925439 91.37944576 7.26902771 93.26034546 C8.45042549 94.42947724 9.63448601 95.59592558 10.82142639 96.75942993 C15.89963389 101.77553347 15.89963389 101.77553347 16.3125 106.8125 C16.28232024 110.13227327 16.0060988 110.99044521 14.125 113.9375 C10.88406137 117.0831169 8.60374729 117.34648913 4.0859375 117.28125 C-1.41726571 116.53924507 -5.90598914 111.50915217 -10 108 C-13.24995678 111.24809625 -16.49581177 114.5001889 -19.73692322 117.7571106 C-21.12256218 119.14925278 -21.12256218 119.14925278 -22.53619385 120.56951904 C-23.02801903 121.06367058 -23.51984421 121.55782211 -24.02657318 122.06694794 C-35.3857507 133.47935344 -46.75367817 144.88301087 -58.126441 156.28187752 C-64.69669492 162.8676203 -71.26408786 169.45617048 -77.82495117 176.05126953 C-83.55940369 181.81562938 -89.29911604 187.57469055 -95.04519564 193.32746112 C-98.08298752 196.36915916 -101.11809477 199.41343021 -104.14689445 202.46408463 C-106.99433432 205.33190897 -109.84876011 208.19258989 -112.70866203 211.04798508 C-113.755337 212.09548399 -114.79945217 213.14554808 -115.84076309 214.19837952 C-117.2655526 215.63815342 -118.70060088 217.06775348 -120.13609314 218.49685669 C-120.93524611 219.29877504 -121.73439909 220.1006934 -122.55776882 220.92691231 C-127.51130842 225.1317239 -132.02204662 226.65969111 -138.40234375 226.49609375 C-142.26811496 225.75781865 -144.90124964 223.86878717 -147.9921875 221.5078125 C-149.92945959 220.05297392 -151.8258632 219.05054018 -154 218 C-154.52843506 218.55461914 -155.05687012 219.10923828 -155.60131836 219.68066406 C-158.03311492 222.21722228 -160.48493747 224.7335211 -162.9375 227.25 C-163.76830078 228.12269531 -164.59910156 228.99539063 -165.45507812 229.89453125 C-166.28330078 230.73886719 -167.11152344 231.58320312 -167.96484375 232.453125 C-169.08814087 233.61569824 -169.08814087 233.61569824 -170.23413086 234.80175781 C-172.71826932 236.77608765 -174.40225892 237.64661081 -177.28564453 238.78344727 C-182.79869581 241.09743391 -186.36758348 244.74810107 -190.46484375 249.01171875 C-191.22422745 249.78054886 -191.98361115 250.54937897 -192.76600647 251.34150696 C-195.16868828 253.77854839 -197.55351868 256.23217519 -199.9375 258.6875 C-202.34994149 261.14989548 -204.76590998 263.60875553 -207.18397522 266.06562805 C-208.68269273 267.59077482 -210.17748329 269.11979233 -211.66795349 270.65299988 C-212.33947952 271.3407399 -213.01100555 272.02847992 -213.70288086 272.73706055 C-214.29306503 273.34454636 -214.88324921 273.95203217 -215.49131775 274.57792664 C-217.84936533 276.80060583 -219.0673734 277.00748593 -222.375 277.375 C-226 277 -226 277 -228.5 274.875 C-230 272 -230 272 -230.10131836 269.34301758 C-228.40236876 264.18590899 -224.77460527 261.29920244 -220.87890625 257.63671875 C-219.20485652 256.01129591 -217.5310355 254.3856375 -215.85742188 252.75976562 C-213.21185696 250.21975818 -210.56074877 247.68583336 -207.90405273 245.1574707 C-205.33892035 242.707341 -202.79584628 240.2358687 -200.25390625 237.76171875 C-199.45803604 237.01766281 -198.66216583 236.27360687 -197.84217834 235.50700378 C-193.45678193 231.2207303 -191.09128453 228.09391172 -190.32432556 221.92584229 C-189.80832039 218.86180818 -188.13420562 217.23100536 -186 215.0625 C-185.20722656 214.24136719 -184.41445313 213.42023438 -183.59765625 212.57421875 C-182.31181641 211.29998047 -182.31181641 211.29998047 -181 210 C-180.06025766 209.04910539 -179.12146883 208.0972676 -178.18359375 207.14453125 C-175.80524521 204.74588386 -173.41102844 202.36572728 -171 200 C-171.40992188 199.46890625 -171.81984375 198.9378125 -172.2421875 198.390625 C-172.78101563 197.68421875 -173.31984375 196.9778125 -173.875 196.25 C-174.40867187 195.55390625 -174.94234375 194.8578125 -175.4921875 194.140625 C-177.92939485 190.68054825 -179.29814418 188.0231835 -179.375 183.75 C-179.40335937 183.04359375 -179.43171875 182.3371875 -179.4609375 181.609375 C-177.79032262 172.15199586 -170.6926928 166.14640596 -164.17285156 159.71875 C-163.05811545 158.60514363 -161.94426226 157.49065285 -160.83122253 156.37535095 C-157.82184879 153.36483409 -154.80034219 150.3667718 -151.77643681 147.37086105 C-148.61288017 144.23238516 -145.46071974 141.0825049 -142.30731201 137.93383789 C-136.34076406 131.97970011 -130.36409736 126.03582858 -124.3836906 120.09561443 C-117.57290992 113.32961241 -110.77354425 106.55218817 -103.97509432 99.7737999 C-89.99602421 85.83648974 -76.00274339 71.9135229 -62 58 C-63.49589444 54.84812633 -65.02154157 52.78334055 -67.5625 50.375 C-70.88057578 47.21558481 -71.9020905 45.979095 -72.375 41.25 C-72.32278535 38.06490637 -71.8375542 36.13536028 -69.9375 33.5625 C-66.3155055 30.40288777 -64.8077222 29.67948519 -60 30 C-52.5044926 33.74452804 -46.80593218 39.8618538 -41.0625 45.8125 C-39.38881676 47.52939146 -37.7131386 49.24434123 -36.03515625 50.95703125 C-34.94279663 52.08588745 -34.94279663 52.08588745 -33.82836914 53.23754883 C-32.11025395 55.06935724 -32.11025395 55.06935724 -30 56 C-29.78682129 55.46084961 -29.57364258 54.92169922 -29.35400391 54.36621094 C-27.50501173 51.13497542 -24.97204371 48.72601307 -22.3359375 46.140625 C-21.78386627 45.59138367 -21.23179504 45.04214233 -20.66299438 44.47625732 C-18.90498185 42.72940707 -17.1401311 40.98965399 -15.375 39.25 C-14.1792292 38.06426409 -12.98391135 36.8780712 -11.7890625 35.69140625 C-8.86459747 32.78894915 -5.93398126 29.8928359 -3 27 C-3.40629639 26.52731689 -3.81259277 26.05463379 -4.23120117 25.56762695 C-5.03521362 24.63116333 -5.03521362 24.63116333 -5.85546875 23.67578125 C-6.38551514 23.05872314 -6.91556152 22.44166504 -7.46166992 21.8059082 C-13.85178495 14.30429245 -13.85178495 14.30429245 -14.3125 10.25 C-13.92220973 6.19098115 -12.50412622 4.16698316 -10 1 C-6.83350487 -0.58324757 -3.42541806 -0.64374236 0 0 Z " transform="translate(604,443)" style="fill: #202121;"/><path d="M0 0 C1.15495863 -0.00445668 1.15495863 -0.00445668 2.33324975 -0.0090034 C4.92727073 -0.01771246 7.52124568 -0.01920051 10.11528015 -0.02069092 C11.96950886 -0.02531754 13.82373662 -0.03034199 15.67796326 -0.03573608 C20.72553986 -0.04887734 25.77310316 -0.05530843 30.82069421 -0.05974674 C33.97227359 -0.06267477 37.12384932 -0.06677906 40.27542686 -0.07125092 C50.13028647 -0.08493057 59.98513773 -0.09459486 69.84000617 -0.09845281 C81.22650052 -0.10293447 92.61287487 -0.12048544 103.99933273 -0.1494534 C112.79343612 -0.17105166 121.58750572 -0.1811561 130.38163537 -0.18249393 C135.63727594 -0.18354331 140.8928038 -0.18947944 146.14841652 -0.20731354 C151.09205151 -0.22376208 156.03548867 -0.22596539 160.97914124 -0.21717453 C162.79440019 -0.21640242 164.60966964 -0.2207697 166.42490196 -0.23063278 C168.90183186 -0.24330263 171.37805584 -0.23750279 173.85498047 -0.22705078 C174.57444125 -0.23510719 175.29390203 -0.24316359 176.03516465 -0.25146413 C180.40243431 -0.20832167 183.15515298 0.44676706 186.6179657 3.14044189 C189.297023 7.15902784 189.31407264 10.41685911 188.6179657 15.14044189 C186.82402902 18.01074058 185.63533294 19.63175828 182.6179657 21.14044189 C180.12291067 21.24243714 177.65551025 21.28382998 175.16000366 21.28088379 C173.99279438 21.28534047 173.99279438 21.28534047 172.80200511 21.28988719 C170.18034517 21.29859658 167.55873078 21.30008432 164.9370575 21.30157471 C163.06312461 21.30620131 161.18919267 21.31122575 159.31526184 21.31661987 C154.21396793 21.32976134 149.1126872 21.33619226 144.011379 21.34063053 C140.82629769 21.34355852 137.64122001 21.3476628 134.45614052 21.3521347 C124.49662946 21.3658144 114.53712666 21.37547867 104.57760686 21.3793366 C93.06999197 21.3838183 81.56249581 21.40136945 70.05491704 21.43033719 C61.16739618 21.45193502 52.27990877 21.46203987 43.39236194 21.46337771 C38.0808305 21.46442713 32.7694106 21.47036388 27.45790672 21.48819733 C22.46174271 21.50464512 17.46577445 21.50684954 12.46959305 21.49805832 C10.63498346 21.49728617 8.8003635 21.501654 6.96578026 21.51151657 C4.46257844 21.52418516 1.96007525 21.51838724 -0.54312134 21.50793457 C-1.27036402 21.51599097 -1.99760669 21.52404738 -2.74688703 21.53234792 C-7.13083267 21.48948833 -9.88259386 20.81003724 -13.3820343 18.14044189 C-15.88948689 14.50947197 -15.56866585 11.48766118 -14.9992218 7.26544189 C-14.05871444 4.02723933 -12.21775953 2.80037861 -9.3820343 1.14044189 C-6.37966162 -0.36074445 -3.29292943 -0.00392929 0 0 Z " transform="translate(442.3820343017578,729.8595581054688)" style="fill: #1F2020;"/><path d="M0 0 C32.34 0 64.68 0 98 0 C98 31.84782609 98 31.84782609 94.5625 35.546875 C89.56302264 39.39647257 86.89208047 40.15367177 80.70800781 40.17700195 C79.95657501 40.18357315 79.20514221 40.19014435 78.43093872 40.19691467 C75.93833317 40.21666223 73.44578795 40.22831443 70.953125 40.23828125 C70.10190819 40.24235678 69.25069138 40.2464323 68.37368011 40.25063133 C63.86696108 40.27149985 59.36027255 40.28579728 54.85351562 40.29516602 C50.20178598 40.30622272 45.55053571 40.34061161 40.89897537 40.38033772 C37.31983562 40.40650591 33.74080995 40.4148581 30.16158295 40.41844749 C28.44719969 40.42331418 26.73282155 40.43493055 25.0185318 40.45348549 C22.61516074 40.47787848 20.21302771 40.47691195 17.80957031 40.4699707 C16.75260452 40.48918579 16.75260452 40.48918579 15.67428589 40.50878906 C9.79690404 40.4471088 6.51417278 38.16739033 2.1875 34.4375 C-4.61949746 26.19745045 0 1.71650304 0 0 Z " transform="translate(463,236)" style="fill: #FECF57;"/><path d="M0 0 C3.52344644 1.6586188 5.79901878 3.56657308 8.546875 6.3515625 C9.39121094 7.20234375 10.23554688 8.053125 11.10546875 8.9296875 C11.97816406 9.81914063 12.85085938 10.70859375 13.75 11.625 C14.63816406 12.5221875 15.52632812 13.419375 16.44140625 14.34375 C18.63216969 16.55807004 20.81812763 18.77692435 23 21 C21.42476254 24.85308766 18.82252556 27.44743914 15.90771484 30.31933594 C15.39048355 30.83685928 14.87325226 31.35438263 14.34034729 31.8875885 C12.63524329 33.59130289 10.92317232 35.28782978 9.2109375 36.984375 C8.025087 38.16649407 6.83967826 39.34905645 5.6546936 40.53204346 C2.53882362 43.64028728 -0.58300634 46.74247737 -3.70611572 49.84344482 C-6.89363619 53.01048502 -10.0754832 56.18321387 -13.2578125 59.35546875 C-19.49966976 65.57589403 -25.74783485 71.78993537 -32 78 C-32.48034195 77.58817474 -32.9606839 77.17634949 -33.45558167 76.75204468 C-34.40098061 75.94158188 -34.40098061 75.94158188 -35.36547852 75.11474609 C-35.99019547 74.57917084 -36.61491241 74.04359558 -37.25856018 73.49179077 C-38.55519594 72.38103791 -39.85336988 71.27208014 -41.15234375 70.1640625 C-45.99413643 65.98973796 -50.5341512 61.57274411 -55 57 C-53.42476254 53.14691234 -50.82252556 50.55256086 -47.90771484 47.68066406 C-47.39048355 47.16314072 -46.87325226 46.64561737 -46.34034729 46.1124115 C-44.63524329 44.40869711 -42.92317232 42.71217022 -41.2109375 41.015625 C-40.025087 39.83350593 -38.83967826 38.65094355 -37.6546936 37.46795654 C-34.53882362 34.35971272 -31.41699366 31.25752263 -28.29388428 28.15655518 C-25.10636381 24.98951498 -21.9245168 21.81678613 -18.7421875 18.64453125 C-12.50033024 12.42410597 -6.25216515 6.21006463 0 0 Z " transform="translate(501,570)" style="fill: #FCFAF4;"/><path d="M0 0 C4.08557959 1.89068763 7.06732763 4.62165255 10.3125 7.6875 C10.88701904 8.22407227 11.46153809 8.76064453 12.0534668 9.31347656 C16.12041476 13.12699453 20.1030374 17.01241036 24 21 C19.43852453 26.47313966 14.59258679 31.53954809 9.5390625 36.55859375 C8.74849457 37.34774673 7.95792664 38.13689972 7.1434021 38.94996643 C4.63962374 41.44818661 2.13237525 43.94289044 -0.375 46.4375 C-2.08226248 48.13974208 -3.78929609 49.84221373 -5.49609375 51.54492188 C-9.66141898 55.69927363 -13.82959219 59.85075081 -18 64 C-21.52344644 62.3413812 -23.79901878 60.43342692 -26.546875 57.6484375 C-27.39121094 56.79765625 -28.23554687 55.946875 -29.10546875 55.0703125 C-29.97816406 54.18085937 -30.85085938 53.29140625 -31.75 52.375 C-33.08224609 51.02921875 -33.08224609 51.02921875 -34.44140625 49.65625 C-36.63216969 47.44192996 -38.81812763 45.22307565 -41 43 C-39.55419034 39.68386118 -37.75170208 37.50814272 -35.19287109 34.96582031 C-34.41221283 34.18531311 -33.63155457 33.40480591 -32.82723999 32.60064697 C-31.98448517 31.76821472 -31.14173035 30.93578247 -30.2734375 30.078125 C-29.41062164 29.21813904 -28.54780579 28.35815308 -27.65884399 27.47210693 C-24.90221971 24.7266769 -22.13872201 21.9882831 -19.375 19.25 C-17.50475143 17.38978217 -15.63495411 15.52911054 -13.765625 13.66796875 C-9.1823064 9.10670055 -4.59332522 4.55118989 0 0 Z " transform="translate(557,514)" style="fill: #FCF9F4;"/><path d="M0 0 C1 2 1 2 0 5 C88.44 5 176.88 5 268 5 C268 5.33 268 5.66 268 6 C179.23 6 90.46 6 -1 6 C-1 6.66 -1 7.32 -1 8 C164 7.67 329 7.34 499 7 C499.33 7.99 499.66 8.98 500 10 C334.01 10 168.02 10 -3 10 C-1 1 -1 1 0 0 Z " transform="translate(264,203)" style="fill: #FDD246;"/><path d="M0 0 C0.33 0 0.66 0 1 0 C1 114.51 1 229.02 1 347 C0.34 347 -0.32 347 -1 347 C-1.33 347.66 -1.66 348.32 -2 349 C-2.19780616 139.3042647 -2.19780616 139.3042647 -1.59428024 73.89052582 C-1.56279101 70.46911965 -1.53279703 67.04770267 -1.50296021 63.62628174 C-1.31365451 42.402557 -1.08962016 21.20013118 0 0 Z " transform="translate(695,424)" style="fill: #2C2C2B;"/><path d="M0 0 C32.34 0 64.68 0 98 0 C98 29 98 29 96 31 C96 22.09 96 13.18 96 4 C64.98 4 33.96 4 2 4 C2 13.24 2 22.48 2 32 C-5.55718937 24.44281063 0 10.68747969 0 0 Z " transform="translate(463,236)" style="fill: #F9D864;"/><path d="M0 0 C74.58 0.33 149.16 0.66 226 1 C226 1.66 226 2.32 226 3 C149.77 3.33 73.54 3.66 -5 4 C-2 2 -2 2 0 2 C0 1.34 0 0.68 0 0 Z " transform="translate(214,236)" style="fill: #FACC40;"/><path d="M0 0 C0 0.99 0 1.98 0 3 C-3.75045505 5.50030336 -6.6782758 5.28157016 -11.01977539 5.25878906 C-11.83630081 5.2622937 -12.65282623 5.26579834 -13.49409485 5.26940918 C-16.19536823 5.27821802 -18.89638016 5.2723809 -21.59765625 5.265625 C-23.47187856 5.26697176 -25.34610054 5.26891239 -27.22032166 5.27142334 C-31.14862392 5.27437334 -35.07683525 5.27008043 -39.00512695 5.26074219 C-44.04830938 5.24933987 -49.09127913 5.25591284 -54.13445377 5.26788712 C-58.00424309 5.27510234 -61.87398169 5.27281948 -65.74377251 5.26763153 C-67.60377464 5.26629451 -69.46378134 5.26794459 -71.32377815 5.27259064 C-73.91918323 5.2776512 -76.5142401 5.26995274 -79.10961914 5.25878906 C-79.88317749 5.26283752 -80.65673584 5.26688599 -81.45373535 5.27105713 C-86.77146986 5.22853014 -86.77146986 5.22853014 -89 3 C-87.93955475 2.99191315 -86.8791095 2.98382629 -85.78652954 2.97549438 C-75.80949802 2.89812463 -65.83260442 2.81040888 -55.85575294 2.71247292 C-50.72612861 2.66245388 -45.59652544 2.6161245 -40.46679688 2.578125 C-35.51949844 2.54134284 -30.5723747 2.49500251 -25.62522507 2.44193649 C-23.73455229 2.42335484 -21.84384202 2.40826093 -19.95311356 2.39665604 C-17.31182076 2.37985784 -14.67093136 2.3508391 -12.02978516 2.31884766 C-10.84835182 2.31560738 -10.84835182 2.31560738 -9.64305115 2.31230164 C-5.63738376 2.25001729 -3.31610836 0 0 0 Z " transform="translate(558,296)" style="fill: #FCCC44;"/><path d="M0 0 C0.33 0 0.66 0 1 0 C1.17396232 10.70707053 0.66403803 21.21557576 -0.2421875 31.87890625 C-0.37242271 33.46382069 -0.50214107 35.04877767 -0.63137817 36.6337738 C-0.97040284 40.77338391 -1.31683041 44.91234163 -1.66479492 49.0512085 C-2.01193525 53.1984468 -2.35113136 57.3463345 -2.69140625 61.49414062 C-4.04972738 78.0032462 -5.45448431 94.50720555 -7 111 C-7.33 111 -7.66 111 -8 111 C-8 101.1 -8 91.2 -8 81 C-7.67 81 -7.34 81 -7 81 C-3.03597044 45.27270528 -3.03597044 45.27270528 -2.07348633 9.42602539 C-2.16779103 5.74277889 -2.0535096 3.12839352 0 0 Z " transform="translate(773,592)" style="fill: #DB6847;"/><path d="M0 0 C0.33 0 0.66 0 1 0 C1.55023674 17.36302589 0.96710505 35.54701131 -5 52 C-6 49 -6 49 -6 47 C-6.66 47 -7.32 47 -8 47 C-8 44.69 -8 42.38 -8 40 C-7.34 40 -6.68 40 -6 40 C-6.03480469 39.2265625 -6.06960938 38.453125 -6.10546875 37.65625 C-6.27943033 30.96287095 -5.81063067 26.08969979 -3 20 C-2.67 20 -2.34 20 -2 20 C-1.34 13.4 -0.68 6.8 0 0 Z " transform="translate(755,819)" style="fill: #D95F3D;"/><path d="M0 0 C0.99 0.33 1.98 0.66 3 1 C3 12.88 3 24.76 3 37 C1.515 37.495 1.515 37.495 0 38 C0 25.46 0 12.92 0 0 Z " transform="translate(833,260)" style="fill: #FADB5D;"/><path d="M0 0 C2.84041191 2.84041191 2.2584198 4.75808962 2.265625 8.73046875 C2.26753845 9.39911453 2.2694519 10.06776031 2.27142334 10.75666809 C2.27278553 12.17477799 2.2690867 13.59290033 2.26074219 15.01098633 C2.25012628 17.16191402 2.26059188 19.31199043 2.2734375 21.46289062 C2.27211427 22.84375182 2.2695485 24.22461249 2.265625 25.60546875 C2.26336914 26.85481201 2.26111328 28.10415527 2.25878906 29.39135742 C1.98165216 33.25584845 1.18804857 36.32996814 0 40 C-1.29200938 36.06046197 -1.143991 32.0847563 -1.1328125 27.98828125 C-1.13376923 27.21945114 -1.13472595 26.45062103 -1.13571167 25.65849304 C-1.13639056 24.03884804 -1.13455663 22.41920028 -1.13037109 20.79956055 C-1.1249967 18.31097378 -1.13033714 15.8225657 -1.13671875 13.33398438 C-1.13605835 11.76041627 -1.13477797 10.18684827 -1.1328125 8.61328125 C-1.13483673 7.86540848 -1.13686096 7.11753571 -1.13894653 6.34700012 C-1.11496623 1.11496623 -1.11496623 1.11496623 0 0 Z " transform="translate(856,263)" style="fill: #2C2E2D;"/><path d="M0 0 C0.33 0 0.66 0 1 0 C1.09117619 6.75716864 1.11613581 13.45339591 0.5 20.1875 C-0.25688115 28.77970013 -0.08189262 37.38307639 0 46 C-0.33 46 -0.66 46 -1 46 C-1.33 47.65 -1.66 49.3 -2 51 C-2.33 51 -2.66 51 -3 51 C-3.23835261 40.00929651 -2.91861732 29.1504294 -2.0625 18.1875 C-1.97564941 17.0732666 -1.88879883 15.9590332 -1.79931641 14.81103516 C-1.3881539 9.82160474 -0.86874116 4.93377697 0 0 Z " transform="translate(784,472)" style="fill: #2F1612;"/><path d="M0 0 C0.33 0 0.66 0 1 0 C1.07487239 4.6589823 1.12893832 9.31760455 1.16479492 13.97705078 C1.17976271 15.55784211 1.20014437 17.13859278 1.22631836 18.71923828 C1.57718453 40.47294061 1.57718453 40.47294061 -5 48.4375 C-5.7425 49.36369141 -5.7425 49.36369141 -6.5 50.30859375 C-7.94453925 51.93746223 -9.44007861 53.48186222 -11 55 C-11.66 54.67 -12.32 54.34 -13 54 C-12.319375 53.236875 -11.63875 52.47375 -10.9375 51.6875 C-10.298125 50.800625 -9.65875 49.91375 -9 49 C-9.495 47.515 -9.495 47.515 -10 46 C-9.236875 46 -8.47375 46 -7.6875 46 C-4.94592367 45.30127886 -4.94592367 45.30127886 -4.03515625 43.36328125 C-1.56349976 36.90746205 -0.88280805 30.51993531 -0.68359375 23.6328125 C-0.66281265 22.95322479 -0.64203156 22.27363708 -0.62062073 21.57345581 C-0.5557637 19.42406334 -0.49654059 17.2745593 -0.4375 15.125 C-0.39425388 13.6588431 -0.35063775 12.19269706 -0.30664062 10.7265625 C-0.20014896 7.15115725 -0.09870591 3.57562963 0 0 Z " transform="translate(581,235)" style="fill: #0F0D0C;"/><path d="M0 0 C0.33 0 0.66 0 1 0 C1.33 3.63 1.66 7.26 2 11 C2.33 11 2.66 11 3 11 C4.17402193 18.33763707 4.09377123 25.58165418 4 33 C3.34 33 2.68 33 2 33 C0.57966558 21.92900046 -0.2964981 11.16809528 0 0 Z " transform="translate(253,629)" style="fill: #DF613D;"/><path d="M0 0 C0.33 0 0.66 0 1 0 C1.45732994 4.1247864 1.90239764 8.25066722 2.33666992 12.37792969 C2.48573659 13.77867294 2.63801519 15.17907856 2.79370117 16.57910156 C4.38189226 30.898355 4.38189226 30.898355 3 38 C1.51831055 36.99682617 1.51831055 36.99682617 0 35 C-0.26156261 32.27093638 -0.34921131 29.7753901 -0.29296875 27.05078125 C-0.28872391 26.27816452 -0.28447906 25.50554779 -0.28010559 24.70951843 C-0.26332183 22.24349008 -0.22567147 19.77828104 -0.1875 17.3125 C-0.17245271 15.63998577 -0.15876438 13.96745872 -0.14648438 12.29492188 C-0.11341946 8.19629922 -0.06164028 4.09828849 0 0 Z " transform="translate(237,449)" style="fill: #231714;"/><path d="M0 0 C0.33 0 0.66 0 1 0 C1 9.24 1 18.48 1 28 C0.67 28 0.34 28 0 28 C-0.33 29.65 -0.66 31.3 -1 33 C-1.33 33 -1.66 33 -2 33 C-2.02893932 29.37501666 -2.04677792 25.75006287 -2.0625 22.125 C-2.07087891 21.09246094 -2.07925781 20.05992187 -2.08789062 18.99609375 C-2.09111328 18.00996094 -2.09433594 17.02382813 -2.09765625 16.0078125 C-2.10289307 15.09660645 -2.10812988 14.18540039 -2.11352539 13.24658203 C-2 11 -2 11 -1 9 C-0.77532169 7.46331135 -0.59203195 5.92031946 -0.4375 4.375 C-0.35371094 3.55773437 -0.26992188 2.74046875 -0.18359375 1.8984375 C-0.12300781 1.27195312 -0.06242188 0.64546875 0 0 Z " transform="translate(765,679)" style="fill: #DD512A;"/><path d="M0 0 C0.33 0 0.66 0 1 0 C1 7.26 1 14.52 1 22 C0.34 22.33 -0.32 22.66 -1 23 C-3.18011743 15.221341 -1.80704149 7.72832924 0 0 Z " transform="translate(774,617)" style="fill: #122025;"/><path d="M0 0 C0.33 0 0.66 0 1 0 C1.04241723 2.33294775 1.04092937 4.66702567 1 7 C0.67 7.33 0.34 7.66 0 8 C-0.15858842 10.14386657 -0.25129298 12.29266838 -0.31640625 14.44140625 C-0.35830078 15.74658203 -0.40019531 17.05175781 -0.44335938 18.39648438 C-0.48317608 19.7851533 -0.52288825 21.17382522 -0.5625 22.5625 C-0.60567989 23.95509183 -0.649294 25.34767028 -0.69335938 26.74023438 C-0.79985876 30.16004801 -0.90186923 33.57993763 -1 37 C-1.33 37 -1.66 37 -2 37 C-2.04958948 32.53427636 -2.085809 28.06870039 -2.10986328 23.6027832 C-2.11989545 22.08485114 -2.13352438 20.56693827 -2.15087891 19.04907227 C-2.17525035 16.8620936 -2.18651095 14.67537136 -2.1953125 12.48828125 C-2.20578613 11.17384033 -2.21625977 9.85939941 -2.22705078 8.50512695 C-2.01205976 5.18617411 -1.44225823 2.96685993 0 0 Z " transform="translate(192,257)" style="fill: #F7C54B;"/><path d="M0 0 C3.95262502 1.97631251 4.75917978 7.90162753 6.1875 11.875 C6.56841797 12.89464844 6.94933594 13.91429687 7.34179688 14.96484375 C7.69693359 15.94324219 8.05207031 16.92164063 8.41796875 17.9296875 C8.74563232 18.82929199 9.0732959 19.72889648 9.41088867 20.65576172 C10 23 10 23 9 26 C8.67 24.68 8.34 23.36 8 22 C7.34 22 6.68 22 6 22 C5.81824219 21.20335937 5.63648438 20.40671875 5.44921875 19.5859375 C4.11982411 13.98202779 2.68800833 9.12001586 0 4 C0 2.68 0 1.36 0 0 Z " transform="translate(747,166)" style="fill: #EDDA78;"/><path d="M0 0 C0.33 0 0.66 0 1 0 C1.24867947 2.60364409 1.47457902 5.20589894 1.6875 7.8125 C1.79674805 8.91948242 1.79674805 8.91948242 1.90820312 10.04882812 C2.33135078 15.54974762 2.33135078 15.54974762 0.51953125 18.01171875 C-0.23263672 18.50091797 -0.23263672 18.50091797 -1 19 C-1.02697137 16.39576408 -1.04682489 13.79180756 -1.0625 11.1875 C-1.07087891 10.44951172 -1.07925781 9.71152344 -1.08789062 8.95117188 C-1.10259828 5.70077932 -1.03531702 3.10595105 0 0 Z " transform="translate(784,437)" style="fill: #E1532C;"/><path d="M0 0 C0 0.33 0 0.66 0 1 C-4.455 1.495 -4.455 1.495 -9 2 C-9 2.66 -9 3.32 -9 4 C-8.01 4.33 -7.02 4.66 -6 5 C-7.65 5.33 -9.3 5.66 -11 6 C-11 5.34 -11 4.68 -11 4 C-12.98 4.66 -14.96 5.32 -17 6 C-12.81923021 1.12243525 -6.24558534 -2.08186178 0 0 Z " transform="translate(341,393)" style="fill: #241714;"/><path d="M0 0 C0.33 0 0.66 0 1 0 C1.02914348 4.20831868 1.04684712 8.41661122 1.0625 12.625 C1.07087891 13.81480469 1.07925781 15.00460938 1.08789062 16.23046875 C1.09111328 17.38417969 1.09433594 18.53789062 1.09765625 19.7265625 C1.10289307 20.78439941 1.10812988 21.84223633 1.11352539 22.93212891 C0.99875578 26.03362346 0.57696282 28.95347657 0 32 C-0.33 32 -0.66 32 -1 32 C-1.33 29.36 -1.66 26.72 -2 24 C-1.34 24 -0.68 24 0 24 C0 16.08 0 8.16 0 0 Z " transform="translate(584,240)" style="fill: #F7CA4B;"/><path d="M0 0 C1.98 0.66 3.96 1.32 6 2 C6 2.66 6 3.32 6 4 C5.34 4 4.68 4 4 4 C4 4.66 4 5.32 4 6 C4.70125 6.12375 5.4025 6.2475 6.125 6.375 C9.17656387 7.03838345 12.05340938 7.97211955 15 9 C11.35879332 10.33256282 9.33123446 9.65840377 5.8125 8.1875 C4.93207031 7.83042969 4.05164063 7.47335937 3.14453125 7.10546875 C1 6 1 6 0 4 C0.66 4 1.32 4 2 4 C2 3.34 2 2.68 2 2 C1.34 2 0.68 2 0 2 C0 1.34 0 0.68 0 0 Z " transform="translate(300,897)" style="fill: #D36242;"/><path d="M0 0 C2.64109166 0.37729881 3.78092869 0.76625405 5.6328125 2.7421875 C6.37144531 3.79792969 6.37144531 3.79792969 7.125 4.875 C7.87136719 5.92300781 7.87136719 5.92300781 8.6328125 6.9921875 C9.76497533 8.65484948 10.88420604 10.32630906 12 12 C8.04322598 10.32598022 5.15535787 7.86850715 2 5 C2 4.34 2 3.68 2 3 C1.34 3 0.68 3 0 3 C0 2.01 0 1.02 0 0 Z " transform="translate(443,279)" style="fill: #F7DB66;"/><path d="M0 0 C0.99 0 1.98 0 3 0 C3 3.96 3 7.92 3 12 C2.01 12.33 1.02 12.66 0 13 C0 8.71 0 4.42 0 0 Z " transform="translate(764,728)" style="fill: #161C1E;"/><path d="M0 0 C0.33 0 0.66 0 1 0 C1.24867947 2.60364409 1.47457902 5.20589894 1.6875 7.8125 C1.79674805 8.91948242 1.79674805 8.91948242 1.90820312 10.04882812 C2.33135078 15.54974762 2.33135078 15.54974762 0.51953125 18.01171875 C-0.23263672 18.50091797 -0.23263672 18.50091797 -1 19 C-1.02714735 16.77090129 -1.04646254 14.54170633 -1.0625 12.3125 C-1.07990234 10.45044922 -1.07990234 10.45044922 -1.09765625 8.55078125 C-1.01478673 5.53764546 -0.70839449 2.91724661 0 0 Z " transform="translate(782,462)" style="fill: #E25329;"/><path d="M0 0 C0.4125 0.38671875 0.825 0.7734375 1.25 1.171875 C5.5586764 5.05737783 9.7225368 7.59273608 15 10 C15 10.66 15 11.32 15 12 C15.66 12.33 16.32 12.66 17 13 C12.8812577 12.46150719 10.58047756 11.23564667 7.375 8.625 C6.61960938 8.01914062 5.86421875 7.41328125 5.0859375 6.7890625 C1.51165541 3.72347973 1.51165541 3.72347973 0 2 C0 1.34 0 0.68 0 0 Z " transform="translate(178,320)" style="fill: #121212;"/><path d="M0 0 C6 2 12 4 18 6 C14.0750342 7.51183868 11.23069548 6.46099883 7.3125 5.25 C5.57419922 4.73179687 5.57419922 4.73179687 3.80078125 4.203125 C2.87652344 3.80609375 1.95226562 3.4090625 1 3 C0.67 2.01 0.34 1.02 0 0 Z " transform="translate(299,902)" style="fill: #22120F;"/><path d="M0 0 C0.99 0.66 1.98 1.32 3 2 C2.50168276 5.68754757 1.89932357 7.60490662 -1 10 C-2.23076923 4.58461538 -2.23076923 4.58461538 -1.0625 1.625 C-0.5365625 0.820625 -0.5365625 0.820625 0 0 Z " transform="translate(746,869)" style="fill: #D65E3C;"/><path d="M0 0 C0.33 0.99 0.66 1.98 1 3 C-0.07421875 4.9375 -0.07421875 4.9375 -1.6875 7 C-2.20699219 7.680625 -2.72648438 8.36125 -3.26171875 9.0625 C-5.02302622 11.02566518 -6.84126363 12.49499861 -9 14 C-7.79618552 11.50638429 -6.54571278 9.31856917 -5 7 C-5 6.34 -5 5.68 -5 5 C-4.01 4.67 -3.02 4.34 -2 4 C-0.79117904 1.99983534 -0.79117904 1.99983534 0 0 Z " transform="translate(710,781)" style="fill: #251310;"/><path d="M0 0 C0.33 0 0.66 0 1 0 C1.33 2.64 1.66 5.28 2 8 C1.01 8.495 1.01 8.495 0 9 C-1.05352843 11.30965848 -2.05719096 13.6429774 -3 16 C-3.66 15.67 -4.32 15.34 -5 15 C-4.54625 14.01 -4.0925 13.02 -3.625 12 C-1.93307285 8.07889869 -0.94856099 4.15907513 0 0 Z " transform="translate(582,266)" style="fill: #F0DF7C;"/><path d="M0 0 C0.66 0.99 1.32 1.98 2 3 C1.34 3 0.68 3 0 3 C-0.02578125 3.61488281 -0.0515625 4.22976562 -0.078125 4.86328125 C-0.54716981 11.54716981 -0.54716981 11.54716981 -3.0625 14.0625 C-3.701875 14.371875 -4.34125 14.68125 -5 15 C-3.97137215 9.55432314 -2.75385216 4.88182883 0 0 Z " transform="translate(274,173)" style="fill: #EEDD76;"/><path d="M0 0 C0 3.96130371 -1.34877125 4.82914401 -4 7.6875 C-4.7425 8.49574219 -5.485 9.30398438 -6.25 10.13671875 C-6.8275 10.75160156 -7.405 11.36648438 -8 12 C-8.66 11.34 -9.32 10.68 -10 10 C-6.7 6.7 -3.4 3.4 0 0 Z " transform="translate(443,667)" style="fill: #E2E1DF;"/><path d="M0 0 C0.99 0 1.98 0 3 0 C3.33 0.99 3.66 1.98 4 3 C2 5 2 5 -1.125 5.125 C-2.548125 5.063125 -2.548125 5.063125 -4 5 C-2.1875 2.5 -2.1875 2.5 0 0 Z " transform="translate(706,790)" style="fill: #DD5E39;"/><path d="M0 0 C0.66 0 1.32 0 2 0 C3.5078125 1.64453125 3.5078125 1.64453125 5.125 3.8125 C5.93324219 4.87404297 5.93324219 4.87404297 6.7578125 5.95703125 C8 8 8 8 8 11 C2.19794344 5.35475578 2.19794344 5.35475578 0 2 C0 1.34 0 0.68 0 0 Z " transform="translate(425,633)" style="fill: #E9E9E7;"/><path d="M0 0 C0.6875 1.6875 0.6875 1.6875 1 4 C-0.4375 6.75 -0.4375 6.75 -2 9 C-4 6 -4 6 -3.625 3.8125 C-3.41875 3.214375 -3.2125 2.61625 -3 2 C-2.01 2 -1.02 2 0 2 C0 1.34 0 0.68 0 0 Z " transform="translate(834,296)" style="fill: #F6DB6C;"/><path d="M0 0 C0.33 0 0.66 0 1 0 C0.88490339 1.41750563 0.75746342 2.83401169 0.625 4.25 C0.55539062 5.03890625 0.48578125 5.8278125 0.4140625 6.640625 C-0.01507113 9.085877 -0.78600638 10.84836903 -2 13 C-2.33 13 -2.66 13 -3 13 C-3.46192125 8.07284004 -1.8275283 4.49267375 0 0 Z " transform="translate(750,859)" style="fill: #E2522A;"/><path d="M0 0 C0.99 0 1.98 0 3 0 C3.29296875 5.95703125 3.29296875 5.95703125 3 8 C2.01 8.99 1.02 9.98 0 11 C0 7.37 0 3.74 0 0 Z " transform="translate(773,837)" style="fill: #2F3030;"/><path d="M0 0 C0.66 0 1.32 0 2 0 C2.33 2.97 2.66 5.94 3 9 C1.515 9.99 1.515 9.99 0 11 C0 7.37 0 3.74 0 0 Z " transform="translate(807,404)" style="fill: #2C2C2D;"/><path d="M0 0 C0.66 0 1.32 0 2 0 C3.39935013 2.79870027 3.25265405 4.90498792 3 8 C2.01 8.99 1.02 9.98 0 11 C0 7.37 0 3.74 0 0 Z " transform="translate(790,622)" style="fill: #302F30;"/><path d="M0 0 C0.99 0.33 1.98 0.66 3 1 C3.1875 4.375 3.1875 4.375 3 8 C1.515 8.99 1.515 8.99 0 10 C0 6.7 0 3.4 0 0 Z " transform="translate(792,597)" style="fill: #343433;"/><path d="M0 0 C0 3.3 0 6.6 0 10 C-0.99 9.34 -1.98 8.68 -3 8 C-3.1875 4.375 -3.1875 4.375 -3 1 C-1 0 -1 0 0 0 Z " transform="translate(227,533)" style="fill: #333233;"/><path d="M0 0 C2.64 0 5.28 0 8 0 C8 1.32 8 2.64 8 4 C5.64828869 3.40138258 3.3140622 2.73075648 1 2 C0.67 1.34 0.34 0.68 0 0 Z " transform="translate(200,311)" style="fill: #EED669;"/><path d="M0 0 C1.6396875 0.0928125 1.6396875 0.0928125 3.3125 0.1875 C3.3125 1.1775 3.3125 2.1675 3.3125 3.1875 C0.0125 3.1875 -3.2875 3.1875 -6.6875 3.1875 C-3.6875 0.1875 -3.6875 0.1875 0 0 Z " transform="translate(693.6875,90.8125)" style="fill: #303031;"/><path d="M0 0 C0.66 0.33 1.32 0.66 2 1 C2.1875 4.375 2.1875 4.375 2 8 C0.515 8.99 0.515 8.99 -1 10 C-1.02689216 8.52093108 -1.04634621 7.04172517 -1.0625 5.5625 C-1.07410156 4.73878906 -1.08570313 3.91507813 -1.09765625 3.06640625 C-1 1 -1 1 0 0 Z " transform="translate(775,824)" style="fill: #303030;"/><path d="M0 0 C0.66 0.33 1.32 0.66 2 1 C2 3.97 2 6.94 2 10 C1.01 9.34 0.02 8.68 -1 8 C-1.25 4.4375 -1.25 4.4375 -1 1 C-0.67 0.67 -0.34 0.34 0 0 Z " transform="translate(234,648)" style="fill: #323132;"/><path d="M0 0 C2 2 2 2 2.3125 5 C2.209375 5.99 2.10625 6.98 2 8 C0.515 8.99 0.515 8.99 -1 10 C-1.02689216 8.52093108 -1.04634621 7.04172517 -1.0625 5.5625 C-1.07410156 4.73878906 -1.08570313 3.91507812 -1.09765625 3.06640625 C-1 1 -1 1 0 0 Z " transform="translate(802,481)" style="fill: #2F2F2F;"/><path d="M0 0 C0.66 0.33 1.32 0.66 2 1 C1.01 1.66 0.02 2.32 -1 3 C-2.05104383 4.63495707 -3.05988318 6.29883624 -4 8 C-4.6875 6.1875 -4.6875 6.1875 -5 4 C-3.47698387 2.0418364 -2.21773977 1.10886989 0 0 Z " transform="translate(308,119)" style="fill: #F3D66A;"/><path d="M0 0 C-1.28650706 0.69710731 -2.57940665 1.38242876 -3.875 2.0625 C-4.95394531 2.63677734 -4.95394531 2.63677734 -6.0546875 3.22265625 C-7.01761719 3.60744141 -7.01761719 3.60744141 -8 4 C-8.66 3.67 -9.32 3.34 -10 3 C-6.86618053 -0.60389239 -4.59270471 -1.53090157 0 0 Z " transform="translate(333,394)" style="fill: #D66645;"/></svg>