<?xml version="1.0" encoding="UTF-8"?>
<!-- Generator: visioncortex VTracer -->
<svg id="svg" version="1.1" xmlns="http://www.w3.org/2000/svg" style="display: block;" viewBox="0 0 2048 2048"><path d="M0 0 C675.84 0 1351.68 0 2048 0 C2048 675.84 2048 1351.68 2048 2048 C1372.16 2048 696.32 2048 0 2048 C0 1372.16 0 696.32 0 0 Z " transform="translate(0,0)" style="fill: #FEFEFE;"/><path d="M0 0 C1.55741603 -0.00457011 3.11483006 -0.00987813 4.67224121 -0.0158844 C7.92334225 -0.02477875 11.17419714 -0.02243395 14.42529297 -0.01245117 C18.5710581 -0.00095522 22.71597221 -0.02120064 26.86162567 -0.05036831 C30.07376408 -0.06879862 33.28570097 -0.06842454 36.49787903 -0.06273079 C38.02555029 -0.06257847 39.55323598 -0.06854848 41.08085632 -0.08102226 C49.40897723 -0.13946817 56.60264794 0.00896489 63.90625 4.43359375 C64.70417969 4.89121094 65.50210938 5.34882812 66.32421875 5.8203125 C73.42426083 11.03954873 78.23968939 17.6755189 79.90625 26.43359375 C80.13686251 30.08437287 80.09622553 33.71497083 80.03125 37.37109375 C80.02222656 38.34111328 80.01320313 39.31113281 80.00390625 40.31054688 C79.98051107 42.68515782 79.94773176 45.05924151 79.90625 47.43359375 C80.90136597 47.42606583 81.89648193 47.4185379 82.92175293 47.41078186 C115.97887836 47.18691586 149.00499576 47.88763562 182.04882717 48.7131983 C189.12487978 48.88972382 196.20109489 49.059274 203.27732182 49.22864044 C244.84559799 50.22504304 244.84559799 50.22504304 260.40620422 50.67788696 C281.73374456 51.2967631 303.06036859 51.74775538 324.39377761 52.1078434 C328.90254618 52.18448446 333.41127001 52.26367456 337.91999817 52.34265137 C351.23338094 52.57540435 364.54683259 52.80412467 377.86029053 53.03253174 C388.26286464 53.21106374 398.66541823 53.39067382 409.06792527 53.57307673 C413.51346039 53.65093363 417.95900594 53.72797552 422.40459251 53.80284119 C431.28072501 53.95261996 440.15646117 54.11240329 449.03191334 54.29853868 C453.65999508 54.39408293 458.28785964 54.46834787 462.91653961 54.52783823 C465.92534769 54.57012944 468.933721 54.6281316 471.94218886 54.68976498 C473.33351104 54.71503844 474.72496768 54.73394966 476.11647069 54.74559116 C487.87495574 54.84938202 498.5977217 56.20323752 507.296875 64.72265625 C507.82796875 65.28726563 508.3590625 65.851875 508.90625 66.43359375 C509.64875 67.19671875 510.39125 67.95984375 511.15625 68.74609375 C515.62479427 75.60850102 517.00289814 81.37838282 516.90625 89.43359375 C518.08654785 89.4178833 519.2668457 89.40217285 520.48291016 89.38598633 C524.87737152 89.33153481 529.27180326 89.29718837 533.66650391 89.26879883 C535.56564353 89.25374684 537.46474859 89.23330059 539.36376953 89.20727539 C542.09937081 89.17073383 544.834511 89.15383137 547.5703125 89.140625 C548.41429596 89.12514114 549.25827942 89.10965729 550.12783813 89.09370422 C555.14606253 89.09228352 558.55928276 89.64681065 562.90625 92.43359375 C566.55223827 96.47374291 568.03637842 98.83227555 568.00390625 104.22265625 C567.99907227 105.63417969 567.99907227 105.63417969 567.99414062 107.07421875 C567.98576172 108.0590625 567.97738281 109.04390625 567.96875 110.05859375 C567.96423828 111.05117188 567.95972656 112.04375 567.95507812 113.06640625 C567.94327145 115.52219535 567.926804 117.97786479 567.90625 120.43359375 C568.52854492 120.42312012 569.15083984 120.41264648 569.79199219 120.40185547 C615.30809487 119.74208077 658.04116147 128.85357793 691.80078125 161.26953125 C720.61158643 189.9471586 729.9197572 231.42589064 730.05780363 270.68336403 C730.06423589 274.10458674 730.06588482 277.52579332 730.06738281 280.94702148 C730.07201773 283.42193169 730.07704329 285.89684119 730.08242798 288.37174988 C730.09547865 295.06125354 730.1020186 301.75074363 730.10643864 308.44025683 C730.10921326 312.62124999 730.11345233 316.80224088 730.11794281 320.9832325 C730.13011466 332.57568306 730.14042333 344.16813183 730.1438179 355.76058865 C730.14403747 356.49996074 730.14425703 357.23933283 730.14448325 358.00111014 C730.14470153 358.74213898 730.14491981 359.48316781 730.1451447 360.24665207 C730.14558815 361.74801219 730.14603472 363.2493723 730.14648438 364.75073242 C730.1467058 365.49544196 730.14692723 366.2401515 730.14715537 367.007428 C730.15111207 379.10144683 730.16860188 391.19540575 730.1918439 403.2894014 C730.21555214 415.72676081 730.22801923 428.16409007 730.22918582 440.60147244 C730.230102 447.57674475 730.23584154 454.55193858 730.25400543 461.52718925 C730.27100589 468.07802482 730.27266333 474.62873746 730.26386642 481.17959785 C730.26309398 483.58464075 730.26746588 485.98969154 730.27732468 488.39471436 C730.28998197 491.67420589 730.28420123 494.95316334 730.27374268 498.23265076 C730.28582728 499.6639123 730.28582728 499.6639123 730.29815602 501.12408823 C730.24855952 507.76027868 729.00552229 511.92612963 724.65625 517.12109375 C718.62060955 522.19651867 713.45966675 523.00347041 705.7109375 522.78125 C700.43463665 522.12722385 697.5543412 519.28589575 694.15625 515.49609375 C689.83393104 509.61293738 689.61551378 504.91175115 689.64123535 497.83106995 C689.63685408 496.85818415 689.63247281 495.88529836 689.62795877 494.88293117 C689.61562692 491.61925449 689.6174478 488.35573832 689.61914062 485.09204102 C689.61311657 482.75264243 689.60619237 480.41324602 689.59843445 478.07385254 C689.58353245 473.03094916 689.57479268 467.98808546 689.57072449 462.94516182 C689.56457459 455.63002392 689.54635034 448.31495161 689.52428395 440.999848 C689.48855306 429.09943891 689.46025362 417.19902557 689.43798828 405.29858398 C689.43665329 404.58644416 689.4353183 403.87430434 689.43394285 403.14058452 C689.42452635 398.09242126 689.41536859 393.04425755 689.40625 387.99609375 C689.39587086 382.25903282 689.38534493 376.5219722 689.37451172 370.78491211 C689.37318098 370.07879866 689.37185023 369.37268522 689.37047917 368.64517439 C689.34793282 356.80913887 689.3176755 344.97313455 689.28211927 333.13713115 C689.2587154 325.21271669 689.24506805 317.28834095 689.23862457 309.36389172 C689.23262975 304.40031913 689.21848415 299.43679246 689.20228004 294.47324371 C689.1964688 292.19426771 689.19391811 289.91528032 689.19511986 287.63629723 C689.22972267 259.26951814 689.22972267 259.26951814 683.78125 231.55859375 C683.47558105 230.51614502 683.16991211 229.47369629 682.85498047 228.3996582 C676.36132103 207.13826642 664.29667387 187.85863393 644.4296875 176.734375 C624.35418645 166.38585821 605.54150465 163.47666364 583.28125 162.87109375 C581.78514688 162.8277966 580.28905299 162.78417919 578.79296875 162.74023438 C575.16416139 162.63433193 571.53524865 162.53275195 567.90625 162.43359375 C567.92196045 163.09891113 567.9376709 163.76422852 567.95385742 164.44970703 C568.01650597 167.48591495 568.05533509 170.52198647 568.09375 173.55859375 C568.13145508 175.12867188 568.13145508 175.12867188 568.16992188 176.73046875 C568.2235115 182.37524278 568.20853996 186.60958348 564.90625 191.43359375 C559.51842312 196.41733361 555.15551354 196.57483709 548.08203125 196.53125 C547.22063034 196.52983505 546.35922943 196.5284201 545.47172546 196.52696228 C542.72069831 196.52136515 539.96975256 196.50881321 537.21875 196.49609375 C535.3535168 196.49107838 533.48828233 196.48651554 531.62304688 196.48242188 C527.05074989 196.47139667 522.47851375 196.45413402 517.90625 196.43359375 C517.91994629 197.52615479 517.93364258 198.61871582 517.94775391 199.74438477 C517.84644386 208.74965623 513.98753312 216.91141761 507.90625 223.43359375 C492.61018576 238.06461172 468.91674341 234.66919596 449.26953125 235.30078125 C446.83102973 235.38074432 444.39253294 235.46085172 441.95404053 235.54109192 C436.07862928 235.73367178 430.20313847 235.92368573 424.3275975 236.11225671 C419.56072138 236.2652771 414.79388629 236.41952705 410.02706909 236.57437134 C366.54140672 237.9858101 323.05297269 239.25864079 279.55911827 240.39375401 C275.18808851 240.50804687 270.81710038 240.62389011 266.44611359 240.73981285 C263.51398614 240.81676729 260.5817999 240.89102239 257.64959717 240.96504211 C247.99875821 241.21605277 238.36339089 241.5805416 228.72251987 242.08770275 C222.75297788 242.40015183 216.78970346 242.61568955 210.8125 242.71484375 C209.8894104 242.73325317 208.9663208 242.7516626 208.01525879 242.77062988 C204.19107843 242.8468062 200.36678218 242.91606997 196.54248047 242.98583984 C185.75024783 243.18675417 174.98069482 243.48534113 164.2016449 244.06260681 C155.46087536 244.52583444 146.7187646 244.78272411 137.96875 244.99609375 C137.13126221 245.01727264 136.29377441 245.03845154 135.4309082 245.06027222 C116.92245596 245.52054384 98.41914406 245.53997088 79.90625 245.43359375 C79.92719727 246.25972168 79.94814453 247.08584961 79.96972656 247.93701172 C80.03855274 251.04943596 80.08836242 254.16146795 80.12597656 257.27441406 C80.15560477 259.26523853 80.20647326 261.25571083 80.2578125 263.24609375 C80.37486282 274.8340759 78.2335401 282.94825872 70.1953125 291.453125 C63.30303943 297.41623498 55.92368292 299.5397649 47.00146484 299.6105957 C46.31468658 299.6171669 45.62790833 299.6237381 44.9203186 299.63050842 C42.65260697 299.65017925 40.3849615 299.66189261 38.1171875 299.671875 C36.94989546 299.67798829 36.94989546 299.67798829 35.75902176 299.68422508 C31.63671385 299.70506345 27.51443897 299.7193725 23.39208984 299.72875977 C19.15556061 299.73979503 14.91956081 299.77416747 10.683218 299.81393147 C7.40759373 299.84020973 4.13209322 299.84846167 0.85637283 299.85204124 C-0.70398899 299.85688152 -2.26434625 299.86842165 -3.82460403 299.88707924 C-15.72896608 300.02053792 -25.33925102 298.83656653 -34.33984375 290.36328125 C-39.97990988 284.15795237 -43.36917799 277.4912463 -43.2890625 269.0390625 C-43.28406738 267.95520264 -43.27907227 266.87134277 -43.27392578 265.75463867 C-43.24661377 263.70853394 -43.24661377 263.70853394 -43.21875 261.62109375 C-43.1775 257.26921875 -43.13625 252.91734375 -43.09375 248.43359375 C-53.65375 248.43359375 -64.21375 248.43359375 -75.09375 248.43359375 C-74.93638922 254.41701548 -74.93638922 254.41701548 -74.73339844 260.39892578 C-74.66034411 265.9310237 -75.38396451 269.0615879 -79.09375 273.43359375 C-84.09817832 277.94978516 -87.86205082 278.58544547 -94.4074707 278.6105957 C-95.14929596 278.6171669 -95.89112122 278.6237381 -96.65542603 278.63050842 C-99.11012882 278.65021715 -101.56477052 278.66189835 -104.01953125 278.671875 C-105.27843202 278.67798829 -105.27843202 278.67798829 -106.56276512 278.68422508 C-111.00465015 278.70507512 -115.44650437 278.71938164 -119.88842773 278.72875977 C-124.47175026 278.73982422 -129.0545873 278.77422732 -133.63773823 278.81393147 C-137.16626375 278.8400985 -140.69467357 278.84845164 -144.22328758 278.85204124 C-145.91255155 278.85690671 -147.60181037 278.86851961 -149.29097939 278.88707924 C-151.65832448 278.91147426 -154.02441292 278.91050562 -156.3918457 278.90356445 C-157.43242882 278.92277954 -157.43242882 278.92277954 -158.49403381 278.94238281 C-164.67607527 278.87652395 -168.15567549 276.33764929 -172.44433594 272.12426758 C-174.56392332 268.66660439 -174.55308987 266.41981093 -174.484375 262.3828125 C-174.47438477 261.17713623 -174.46439453 259.97145996 -174.45410156 258.72924805 C-174.41768555 257.20855713 -174.38126953 255.68786621 -174.34375 254.12109375 C-174.26125 249.27421875 -174.17875 244.42734375 -174.09375 239.43359375 C-184.65375 239.43359375 -195.21375 239.43359375 -206.09375 239.43359375 C-205.93598665 248.70775335 -205.93598665 248.70775335 -205.73339844 257.98095703 C-205.71841309 259.72481689 -205.71841309 259.72481689 -205.703125 261.50390625 C-205.68217773 262.68742676 -205.66123047 263.87094727 -205.63964844 265.09033203 C-206.29791707 269.93674634 -208.52000487 273.0506056 -212.15625 276.24609375 C-216.06951957 278.64454929 -219.45723697 278.5753471 -223.94848633 278.6105957 C-224.64154373 278.6171669 -225.33460114 278.6237381 -226.04866028 278.63050842 C-228.34103508 278.6502102 -230.63334448 278.66189689 -232.92578125 278.671875 C-233.70988562 278.67595053 -234.49398998 278.68002605 -235.30185509 278.68422508 C-239.45196646 278.70507236 -243.60204489 278.71937995 -247.75219727 278.72875977 C-252.03286458 278.7398225 -256.31301183 278.77422419 -260.59349537 278.81393147 C-263.89040578 278.840108 -267.18719243 278.84845248 -270.48419762 278.85204124 C-272.06182048 278.85690442 -273.63943792 278.86851084 -275.216959 278.88707924 C-277.42866584 278.91149462 -279.63902902 278.9105022 -281.85083008 278.90356445 C-283.73588005 278.91236382 -283.73588005 278.91236382 -285.65901184 278.92134094 C-289.8755882 278.32256945 -291.87062978 277.20828138 -295.09375 274.43359375 C-299.80304838 268.14954122 -299.62267597 262.60817764 -299.484375 254.9375 C-299.47588531 253.15447731 -299.47588531 253.15447731 -299.46722412 251.33543396 C-299.44491226 247.55523668 -299.39472263 243.77600245 -299.34375 239.99609375 C-299.32367842 237.42644602 -299.30542881 234.85678337 -299.2890625 232.28710938 C-299.24506431 226.00227802 -299.17820283 219.71800471 -299.09375 213.43359375 C-299.86591657 213.43511263 -300.63808315 213.43663151 -301.43364871 213.43819642 C-347.17776864 213.52766904 -392.92187908 213.5963199 -438.66606895 213.63785507 C-444.15612294 213.64285802 -449.64617675 213.64803529 -455.13623047 213.65332031 C-456.77571718 213.65489418 -456.77571718 213.65489418 -458.44832484 213.65649983 C-476.15611495 213.67391476 -493.86385322 213.70545844 -511.57161255 213.74220493 C-529.73545761 213.77958409 -547.89927549 213.8018232 -566.06315744 213.80994773 C-577.27522967 213.81544178 -588.48715541 213.83280697 -599.69918256 213.86525962 C-607.38309983 213.88637015 -615.06694114 213.89280165 -622.75088532 213.88759926 C-627.18706291 213.88503209 -631.62298412 213.8890237 -636.05911636 213.91041565 C-640.11939474 213.92985253 -644.17924386 213.93088258 -648.23954181 213.91718933 C-649.70936483 213.91549646 -651.17921441 213.92059512 -652.64898498 213.93312648 C-654.64576222 213.94916293 -656.64270199 213.93814291 -658.63950539 213.92578506 C-660.30381959 213.92806339 -660.30381959 213.92806339 -662.00175631 213.93038774 C-667.01149974 213.12546682 -670.11182998 210.54820566 -673.40625 206.80859375 C-676.09962148 203.01792278 -676.20559417 200.94694601 -676.15625 196.30859375 C-676.14722656 195.21289062 -676.13820313 194.1171875 -676.12890625 192.98828125 C-676.11150391 191.72371094 -676.11150391 191.72371094 -676.09375 190.43359375 C-677.39570312 190.49289062 -678.69765625 190.5521875 -680.0390625 190.61328125 C-687.80926214 190.61054623 -695.36111145 188.98121392 -702.96875 187.55859375 C-704.45948457 187.28563321 -705.95036956 187.01349284 -707.44140625 186.7421875 C-709.63729241 186.34238187 -711.83304096 185.94193883 -714.02822876 185.53831482 C-718.89984597 184.64341924 -723.77793594 183.80784033 -728.66552734 183.00585938 C-733.20551416 182.24800942 -737.73932849 181.45622449 -742.2734375 180.6640625 C-743.66979431 180.42027107 -743.66979431 180.42027107 -745.09436035 180.17155457 C-749.07759172 179.47591052 -753.06073942 178.7797879 -757.04388428 178.08364868 C-772.19221062 175.43755609 -772.19221062 175.43755609 -787.359375 172.90234375 C-788.04633453 172.78981766 -788.73329407 172.67729156 -789.44107056 172.56135559 C-792.52845339 172.05666148 -795.61663674 171.55812147 -798.70654297 171.0690918 C-821.50970986 167.37298344 -821.50970986 167.37298344 -827.09375 160.43359375 C-829.04267318 154.5868242 -829.08719445 148.49407113 -826.40625 142.93359375 C-822.12684282 138.30720761 -818.00936227 136.97445207 -811.8828125 135.85546875 C-810.82006859 135.65721497 -810.82006859 135.65721497 -809.7358551 135.45495605 C-807.39848111 135.02151772 -805.05877198 134.60247945 -802.71875 134.18359375 C-801.07577899 133.88199407 -799.43295896 133.57957084 -797.7902832 133.27636719 C-793.44867561 132.47809464 -789.104803 131.69298749 -784.75994873 130.91259766 C-782.10417016 130.43546581 -779.44876509 129.95630535 -776.79345703 129.4765625 C-770.02769788 128.25484305 -763.26167104 127.03473426 -756.49267578 125.83105469 C-754.95735623 125.55794574 -753.42203721 125.28483381 -751.88671875 125.01171875 C-751.14873047 124.88058182 -750.41074219 124.74944489 -749.65039062 124.61433411 C-743.31111207 123.48315373 -736.98548187 122.28513688 -730.66235352 121.06713867 C-727.06408829 120.42832782 -723.47116246 119.93688532 -719.84375 119.49609375 C-713.87649476 118.74782887 -708.04274557 117.65994699 -702.15625 116.43359375 C-693.50032047 114.63082869 -684.88622995 113.36687375 -676.09375 112.43359375 C-676.12855469 111.34433594 -676.16335938 110.25507812 -676.19921875 109.1328125 C-676.04382036 103.68235785 -673.69815971 100.96526917 -669.84687072 97.28857446 C-666.5169692 95.04497394 -664.71809799 94.9359764 -660.73131847 94.94140244 C-659.43947366 94.93343824 -658.14762884 94.92547405 -656.81663722 94.91726851 C-655.38501335 94.9286801 -653.9533924 94.94046248 -652.52177429 94.95257568 C-650.99952957 94.95083145 -649.47728601 94.94732925 -647.95504886 94.94221902 C-643.77041285 94.93326612 -639.5861856 94.94928682 -635.40160167 94.96933126 C-630.88971837 94.98658741 -626.37785855 94.98076087 -621.86595154 94.97772217 C-614.0482454 94.97562364 -606.23067268 94.98818535 -598.41300011 95.01067352 C-587.10994738 95.04316653 -575.80695924 95.05359778 -564.50386486 95.05862549 C-546.16587007 95.06738238 -527.8279464 95.09400865 -509.48999023 95.13183594 C-491.67521521 95.16854582 -473.8604595 95.1968626 -456.0456543 95.21386719 C-454.39880316 95.21544353 -454.39880316 95.21544353 -452.71868231 95.21705171 C-447.21089738 95.22227182 -441.70311232 95.22732666 -436.19532716 95.23229933 C-390.49475217 95.27377363 -344.79425475 95.3442328 -299.09375 95.43359375 C-299.11040459 94.36696754 -299.11040459 94.36696754 -299.12739563 93.27879333 C-299.22785569 86.55581808 -299.30384482 79.83305428 -299.35281086 73.10949612 C-299.37883219 69.65331773 -299.41408959 66.19776292 -299.47094727 62.74194336 C-299.53599818 58.76293574 -299.55999244 54.7841748 -299.58203125 50.8046875 C-299.60783768 49.5721373 -299.6336441 48.3395871 -299.66023254 47.06968689 C-299.66259438 39.81088328 -299.17042179 35.76874872 -294.09375 30.43359375 C-289.7138896 27.5173809 -286.22746674 27.04948173 -281.02197266 27.01367188 C-280.34144333 27.00520233 -279.660914 26.99673279 -278.95976257 26.98800659 C-276.72558543 26.96474064 -274.49210127 26.96361194 -272.2578125 26.96484375 C-270.69371266 26.95773538 -269.12961541 26.9500354 -267.56552124 26.94177246 C-264.29230496 26.92835123 -261.01932978 26.92674797 -257.74609375 26.93261719 C-253.56749273 26.93850841 -249.39005557 26.90793611 -245.21167946 26.86750031 C-241.9824102 26.84155092 -238.75341843 26.83875243 -235.5240593 26.84239197 C-233.98437961 26.84070718 -232.44468621 26.83112675 -230.90510941 26.81324768 C-216.11949214 26.66043781 -216.11949214 26.66043781 -210.50700378 31.03669739 C-207.3435737 34.16351299 -206.20915264 36.30810778 -205.75317383 40.75512695 C-205.7767395 42.60110474 -205.7767395 42.60110474 -205.80078125 44.484375 C-205.80827393 45.69005127 -205.8157666 46.89572754 -205.82348633 48.13793945 C-205.86445435 50.41897583 -205.86445435 50.41897583 -205.90625 52.74609375 C-205.968125 57.59296875 -206.03 62.43984375 -206.09375 67.43359375 C-195.86375 67.43359375 -185.63375 67.43359375 -175.09375 67.43359375 C-175.25117289 58.90767444 -175.25117289 58.90767444 -175.45410156 50.3828125 C-175.51791987 43.50690416 -175.44248119 37.96623167 -171.09375 32.43359375 C-165.99047434 27.29718211 -160.12638216 26.87132626 -153.23431015 26.77035618 C-150.88499286 26.76432459 -148.53671636 26.78328393 -146.1875 26.8046875 C-144.53657881 26.8038576 -142.88565772 26.80139366 -141.23474121 26.79737854 C-137.78498278 26.79452937 -134.33587677 26.80913454 -130.88623047 26.83666992 C-126.48133733 26.87075171 -122.07760979 26.86472637 -117.67266083 26.84600735 C-114.26664649 26.83539991 -110.86089978 26.84440895 -107.45491028 26.85939217 C-105.83153581 26.86454704 -104.20813308 26.86412517 -102.58476257 26.85784721 C-85.34576579 26.81619653 -85.34576579 26.81619653 -78.21875 33.08203125 C-74.05150967 39.47758759 -74.62541193 46.02344465 -75.09375 53.43359375 C-74.40861328 53.42835693 -73.72347656 53.42312012 -73.01757812 53.41772461 C-69.87631163 53.3967793 -66.73505989 53.38387815 -63.59375 53.37109375 C-62.51609375 53.36271484 -61.4384375 53.35433594 -60.328125 53.34570312 C-54.48046618 53.3278749 -48.87511329 53.54253412 -43.09375 54.43359375 C-43.11469727 53.63252197 -43.13564453 52.8314502 -43.15722656 52.00610352 C-43.240964 48.33623066 -43.29259368 44.66655959 -43.34375 40.99609375 C-43.37726562 39.73603516 -43.41078125 38.47597656 -43.4453125 37.17773438 C-43.52399477 29.64390708 -42.99922184 23.95087254 -39.09375 17.43359375 C-38.62453125 16.63566406 -38.1553125 15.83773437 -37.671875 15.015625 C-27.68410887 1.70839543 -15.84057241 -0.04090435 0 0 Z " transform="translate(1072.09375,857.56640625)" style="fill: #020303;"/><path d="M0 0 C35.30422076 0 35.30422076 0 47.84887695 0.45947266 C50.71773048 0.55499635 53.58671678 0.64618639 56.45571899 0.73712158 C57.16749784 0.76003261 57.87927668 0.78294365 58.61262459 0.80654895 C66.19003677 1.04635408 73.76855576 1.20174151 81.34838867 1.34130859 C82.02920238 1.35392416 82.71001609 1.36653973 83.41146052 1.37953758 C86.93749667 1.44448534 90.46355941 1.50779701 93.989645 1.56999969 C98.61360589 1.65157092 103.23750705 1.73626388 107.86140442 1.8213501 C113.67158596 1.92811895 119.48177528 2.03443614 125.29197901 2.13999033 C143.79245538 2.47612681 162.2927751 2.82052555 180.79296875 3.171875 C181.68274209 3.1887683 182.57251544 3.20566159 183.48925161 3.22306681 C223.80010194 3.98959113 264.10669093 4.9101139 304.41247082 5.90622902 C308.07263466 5.99663304 311.73281156 6.08649371 315.39299011 6.17630005 C320.05826616 6.29081943 324.72346183 6.40809127 329.3886261 6.52706909 C341.37858447 6.82753323 353.36648421 7.05707448 365.359375 7.20214844 C367.88086243 7.23596905 370.40234687 7.27001331 372.92382812 7.30429077 C377.70378257 7.36916398 382.48342035 7.41527361 387.26367188 7.45083618 C389.41016599 7.47869061 391.55665116 7.50724613 393.703125 7.53662109 C394.67731384 7.53863903 395.65150269 7.54065697 396.6552124 7.54273605 C401.54648651 7.62659065 405.07197288 7.73295339 409 11 C410.17130313 13.34260626 410.13066264 14.72735747 410.14044189 17.3381958 C410.14615204 18.24941696 410.15186218 19.16063812 410.15774536 20.09947205 C410.15886322 21.10208572 410.15998108 22.1046994 410.16113281 23.13769531 C410.16609772 24.1914888 410.17106262 25.24528229 410.17617798 26.33100891 C410.19082678 29.83005417 410.19760662 33.32905407 410.203125 36.828125 C410.20887483 39.25469973 410.21463258 41.68127443 410.22039795 44.10784912 C410.23091609 49.20227267 410.23675323 54.2966804 410.24023438 59.39111328 C410.24571656 65.91927708 410.26973549 72.44723203 410.29820633 78.97533035 C410.31683118 83.99048472 410.32203827 89.00558881 410.32357025 94.02077484 C410.32659834 96.42732636 410.3346321 98.83387695 410.34775543 101.24039459 C410.36481003 104.6086666 410.36293668 107.97642889 410.35644531 111.34472656 C410.3656601 112.33924332 410.37487488 113.33376007 410.3843689 114.3584137 C410.3526656 119.60989581 410.12546405 123.551566 407 128 C403.91652903 130.28274658 401.01220651 130.27709171 397.24804688 130.34716797 C396.06551834 130.37430878 394.88298981 130.40144958 393.66462708 130.42941284 C391.71141792 130.4604863 391.71141792 130.4604863 389.71875 130.4921875 C388.3192472 130.52208131 386.91976695 130.55304699 385.52030945 130.58499146 C382.46978207 130.65345848 379.4192082 130.71700146 376.36849976 130.77685547 C367.87651749 130.94526147 359.38548893 131.15391673 350.89453125 131.3671875 C349.9876034 131.38979393 349.08067554 131.41240036 348.14626503 131.43569183 C325.88158306 131.99799033 303.63344173 132.93098357 281.38186646 133.86592102 C247.17441194 135.30173017 212.97661825 136.49784918 178.74834156 137.29405308 C174.87127681 137.3842712 170.99422582 137.47505958 167.1171875 137.56640625 C166.3748908 137.58383062 165.63259411 137.601255 164.86780357 137.61920738 C149.57549454 137.98129112 134.29444114 138.55668729 119.01113892 139.19192505 C101.48909188 139.91714034 83.97064598 140.36950255 66.43603516 140.65844727 C64.59667181 140.68980809 62.75731612 140.72162173 60.91796875 140.75390625 C60.01520203 140.76974258 59.1124353 140.78557892 58.18231201 140.80189514 C51.71367136 140.93009989 45.26296512 141.20984244 38.80078125 141.52734375 C25.87659051 142.04499588 12.93455333 142 0 142 C0 95.14 0 48.28 0 0 Z " transform="translate(1152,933)" style="fill: #70BFEF;"/><path d="M0 0 C114.84 0 229.68 0 348 0 C348 20.13 348 40.26 348 61 C233.16 61 118.32 61 0 61 C0 40.87 0 20.74 0 0 Z " transform="translate(425,981)" style="fill: #E9E9E9;"/><path d="M0 0 C1.16801147 -0.01260864 2.33602295 -0.02521729 3.53942871 -0.03820801 C4.79678833 -0.03011108 6.05414795 -0.02201416 7.34960938 -0.01367188 C8.64402954 -0.01749878 9.93844971 -0.02132568 11.27209473 -0.02526855 C14.00922783 -0.03115875 16.74583796 -0.02261726 19.48291016 -0.00390625 C22.98707964 0.01888443 26.49002371 0.00575858 29.99414825 -0.01819611 C33.34189958 -0.03614642 36.68932325 -0.02356948 40.03710938 -0.01367188 C41.29446899 -0.0217688 42.55182861 -0.02986572 43.84729004 -0.03820801 C45.59930725 -0.01929504 45.59930725 -0.01929504 47.38671875 0 C48.41390015 0.00318237 49.44108154 0.00636475 50.49938965 0.00964355 C54.09311923 0.68722336 55.02984965 1.55935157 57.19335938 4.51757812 C57.78996895 7.59902377 57.72411345 10.64229439 57.68783569 13.77256775 C57.69266452 14.71984177 57.69749336 15.66711578 57.70246851 16.64309508 C57.71376321 19.8254114 57.69640192 23.00692842 57.67919922 26.18920898 C57.6813445 28.46737384 57.68522133 30.74553763 57.69070435 33.0236969 C57.70041371 39.21792047 57.68507387 45.41185666 57.66479826 51.60604548 C57.64725451 58.08197001 57.65075183 64.55788529 57.65151978 71.03382874 C57.64964551 81.91119819 57.63237333 92.78844024 57.60498047 103.66577148 C57.57681201 114.85687277 57.56263865 126.04787644 57.56396484 137.23901367 C57.56408471 138.27267127 57.56408471 138.27267127 57.564207 139.32721084 C57.56432807 140.35908122 57.56432807 140.35908122 57.56445158 141.41179746 C57.56576173 153.50545761 57.55546337 165.59907056 57.53886795 177.69272041 C57.53180072 182.84372837 57.52814122 187.99472222 57.52708054 193.14573479 C57.52507313 199.21056154 57.5128754 205.27528551 57.49274826 211.34007835 C57.48690072 213.56814189 57.48444703 215.79621726 57.48560333 218.02428818 C57.48658317 221.06150341 57.4752888 224.09842982 57.46078491 227.13560486 C57.46388212 228.02101218 57.46697932 228.9064195 57.47017038 229.81865734 C57.42720907 235.25227235 57.22370117 239.48723633 53.19335938 243.51757812 C50.69520569 243.77827454 50.69520569 243.77827454 47.50610352 243.79223633 C46.31469254 243.80176834 45.12328156 243.81130035 43.89576721 243.82112122 C42.60307419 243.82020981 41.31038116 243.8192984 39.97851562 243.81835938 C38.64334479 243.82224524 37.30817519 243.82657968 35.9730072 243.8313446 C33.17280065 243.83881186 30.37272017 243.83851208 27.57250977 243.83325195 C23.98321095 243.82745834 20.39442833 243.84438252 16.80521488 243.86759663 C14.04712403 243.88232617 11.28915769 243.88320674 8.53103447 243.8800869 C6.56396592 243.88085047 4.59691669 243.89473176 2.62989807 243.9087677 C0.83805336 243.89942451 0.83805336 243.89942451 -0.98999023 243.88989258 C-2.04318954 243.890522 -3.09638885 243.89115143 -4.1815033 243.89179993 C-7.25495575 243.45366936 -7.92409303 242.91190693 -9.80664062 240.51757812 C-10.18383878 238.6363464 -10.18383878 238.6363464 -10.18695736 236.47390842 C-10.1953973 235.64832072 -10.20383724 234.82273301 -10.21253294 233.9721275 C-10.20652289 233.0653307 -10.20051285 232.15853391 -10.19432068 231.22425842 C-10.19970622 230.26079905 -10.20509175 229.29733969 -10.21064049 228.30468458 C-10.22499925 225.06180015 -10.2177968 221.81931937 -10.21069336 218.57641602 C-10.21639278 216.25736664 -10.22335537 213.93832007 -10.23149109 211.61927795 C-10.24948485 205.30943069 -10.24824243 198.99972202 -10.2425487 192.68985677 C-10.23946583 187.4286331 -10.24553924 182.1674364 -10.25158745 176.90621656 C-10.26645639 163.78761357 -10.26280197 150.6690887 -10.25072414 137.55048596 C-10.24079125 126.15283035 -10.25373156 114.75533706 -10.27765834 103.35770649 C-10.30203102 91.65968464 -10.31126162 79.96174521 -10.30500561 68.26369852 C-10.30162776 61.69409487 -10.30410601 55.12462535 -10.32125664 48.55504036 C-10.33667624 42.37854223 -10.33282556 36.20235499 -10.31395149 30.02586937 C-10.31025179 27.75545437 -10.31341398 25.48501659 -10.32383728 23.2146225 C-10.33695424 20.12201243 -10.32558196 17.03044576 -10.30784607 13.93788147 C-10.31745108 13.0333154 -10.32705608 12.12874932 -10.33695215 11.19677216 C-10.26526185 5.14706558 -10.26526185 5.14706558 -7.94368839 1.96055508 C-5.1515226 0.07522947 -3.35846361 0.01040506 0 0 Z " transform="translate(1066.806640625,885.482421875)" style="fill: #72C0F0;"/><path d="M0 0 C10.23 0 20.46 0 31 0 C31 0.33 31 0.66 31 1 C21.1 1 11.2 1 1 1 C1 36.31 1 71.62 1 108 C17.29375 107.54625 33.5875 107.0925 50.375 106.625 C57.94574463 106.41738037 57.94574463 106.41738037 65.66943359 106.20556641 C69.82914661 106.0888933 73.98881827 105.9714588 78.1484375 105.8515625 C79.82845195 105.8031509 79.82845195 105.8031509 81.54240608 105.75376129 C96.40136141 105.31969634 111.24436351 104.74826105 126.08984375 103.984375 C148.38687696 102.84001353 170.69279326 102.32056595 193.01165771 101.79534912 C238.69123035 100.71680461 284.34331587 99.23437416 329.99682617 97.35791016 C333.00903656 97.23445886 336.02124801 97.11103377 339.03346062 96.98763657 C340.9691694 96.90799313 342.90485543 96.82779467 344.84051704 96.74701309 C354.75089401 96.33384733 364.65868309 95.96062032 374.57519531 95.73144531 C375.41240679 95.7114982 376.24961826 95.69155109 377.11219978 95.67099953 C381.00295403 95.57968472 384.89343579 95.49826019 388.78475952 95.4357605 C390.15159645 95.40681198 391.51842827 95.37762122 392.88525391 95.34814453 C394.0495694 95.32865753 395.21388489 95.30917053 396.41348267 95.28909302 C400.94621193 95.00663413 400.94621193 95.00663413 409 93 C409 66.6 409 40.2 409 13 C409.33 13 409.66 13 410 13 C410.07014135 27.10817369 410.12281367 41.21632027 410.15543652 55.32463264 C410.17109368 61.87566296 410.19233324 68.42657615 410.22631836 74.97753906 C410.25890945 81.29933702 410.27685264 87.62102231 410.28463173 93.9428978 C410.29017564 96.35503793 410.30100145 98.76717189 410.31719017 101.17926407 C410.3389606 104.55730782 410.34196702 107.93488569 410.34057617 111.31298828 C410.35675491 112.80947655 410.35675491 112.80947655 410.3732605 114.3361969 C410.3498166 119.59681809 410.13456883 123.54476375 407 128 C403.91652903 130.28274658 401.01220651 130.27709171 397.24804688 130.34716797 C396.06551834 130.37430878 394.88298981 130.40144958 393.66462708 130.42941284 C391.71141792 130.4604863 391.71141792 130.4604863 389.71875 130.4921875 C388.3192472 130.52208131 386.91976695 130.55304699 385.52030945 130.58499146 C382.46978207 130.65345848 379.4192082 130.71700146 376.36849976 130.77685547 C367.87651749 130.94526147 359.38548893 131.15391673 350.89453125 131.3671875 C349.9876034 131.38979393 349.08067554 131.41240036 348.14626503 131.43569183 C325.88158306 131.99799033 303.63344173 132.93098357 281.38186646 133.86592102 C247.17441194 135.30173017 212.97661825 136.49784918 178.74834156 137.29405308 C174.87127681 137.3842712 170.99422582 137.47505958 167.1171875 137.56640625 C166.3748908 137.58383062 165.63259411 137.601255 164.86780357 137.61920738 C149.57549454 137.98129112 134.29444114 138.55668729 119.01113892 139.19192505 C101.48909188 139.91714034 83.97064598 140.36950255 66.43603516 140.65844727 C64.59667181 140.68980809 62.75731612 140.72162173 60.91796875 140.75390625 C60.01520203 140.76974258 59.1124353 140.78557892 58.18231201 140.80189514 C51.71367136 140.93009989 45.26296512 141.20984244 38.80078125 141.52734375 C25.87659051 142.04499588 12.93455333 142 0 142 C0 95.14 0 48.28 0 0 Z " transform="translate(1152,933)" style="fill: #519ECA;"/><path d="M0 0 C0.33 0 0.66 0 1 0 C1 9.24 1 18.48 1 28 C61.06 28 121.12 28 183 28 C183 25.69 183 23.38 183 21 C184.25496759 16.66667072 186.37254836 13.59757299 189.625 10.5 C194.21407786 8.46040984 198.05587644 8.21892511 203 9 C207.48882564 11.07816002 209.83109508 13.71448135 212.3359375 17.828125 C213 20 213 20 213 28 C224.22 28 235.44 28 247 28 C247 24.7 247 21.4 247 18 C249.3295603 13.16168244 252.20123921 10.3993804 257 8 C262.30090327 7.32686943 265.95284301 7.73186636 270.45703125 10.6796875 C273.39702779 13.19543137 274.51000531 15.36441296 276 19 C276 21.97 276 24.94 276 28 C286.89 28 297.78 28 309 28 C309 25.36 309 22.72 309 20 C310.56044213 15.1530401 313.85304653 11.83738922 318 9 C321.60766404 7.19616798 325.29926556 7.44575693 329.09765625 8.68359375 C333.89317145 10.84381648 336.83639475 13.04173798 339 18 C339.30568474 21.69369058 339.23675107 25.30405273 339 29 C341.97 29 344.94 29 348 29 C348 37.25 348 45.5 348 54 C233.16 54 118.32 54 0 54 C0 36.18 0 18.36 0 0 Z " transform="translate(425,988)" style="fill: #C4C4C4;"/><path d="M0 0 C14.19 0 28.38 0 43 0 C43 64.02 43 128.04 43 194 C28.81 194 14.62 194 0 194 C0 129.98 0 65.96 0 0 Z " transform="translate(926,914)" style="fill: #B3B3B3;"/><path d="M0 0 C11.88 0 23.76 0 36 0 C36 63.69 36 127.38 36 193 C24.12 193 12.24 193 0 193 C0 129.31 0 65.62 0 0 Z " transform="translate(802,914)" style="fill: #B1B1B1;"/><path d="M0 0 C10.56 0 21.12 0 32 0 C32 45.54 32 91.08 32 138 C21.44 138 10.88 138 0 138 C0 92.46 0 46.92 0 0 Z " transform="translate(997,940)" style="fill: #EFEFEF;"/><path d="M0 0 C10.56 0 21.12 0 32 0 C32 37.95 32 75.9 32 115 C21.44 115 10.88 115 0 115 C0 77.05 0 39.1 0 0 Z " transform="translate(866,953)" style="fill: #EDEDED;"/><path d="M0 0 C1.00370636 -0.01142029 2.00741272 -0.02284058 3.04153442 -0.03460693 C4.69199265 -0.03796051 4.69199265 -0.03796051 6.37579346 -0.04138184 C7.53541595 -0.05131165 8.69503845 -0.06124146 9.88980103 -0.07147217 C13.73574171 -0.10074204 17.58151738 -0.11432418 21.42755127 -0.12536621 C23.42243576 -0.13396147 25.41732024 -0.14255776 27.41220403 -0.15131521 C32.97242924 -0.1749384 38.53261448 -0.19001194 44.09288478 -0.19690561 C51.27548056 -0.20586029 58.4573138 -0.24092449 65.63967776 -0.2989068 C71.1965053 -0.34220313 76.75311884 -0.36231752 82.31011319 -0.36498785 C85.6266656 -0.36708005 88.94233959 -0.3817154 92.25875092 -0.41462708 C95.96241398 -0.44875561 99.66422425 -0.44498755 103.36798096 -0.43200684 C104.46018951 -0.4504364 105.55239807 -0.46886597 106.67770386 -0.487854 C112.90900584 -0.4194726 116.42557923 0.34813741 120.91530228 4.79813385 C123.85663724 8.38654718 123.45870487 12.04790216 123.41192627 16.51525879 C122.92664031 21.28723738 120.7668505 23.9062806 117.19168091 26.90989685 C112.48941087 29.0159867 107.9389011 28.72312427 102.84210205 28.7166748 C101.70169464 28.72675064 100.56128723 28.73682648 99.38632202 28.74720764 C95.61611125 28.77570651 91.84630055 28.78156523 88.07598877 28.78479004 C85.45431351 28.79442952 82.83263987 28.80452187 80.21096802 28.81504822 C74.71493933 28.83421806 69.21901903 28.83869722 63.72296143 28.83679199 C57.38054078 28.83499018 51.03888607 28.8666403 44.69665921 28.91402298 C38.58356791 28.95805766 32.47084277 28.96875409 26.35760117 28.96696281 C23.76206203 28.9705022 21.16651718 28.98376775 18.57107925 29.00695992 C14.93942045 29.0363741 11.30973045 29.02772416 7.67803955 29.00964355 C6.07249207 29.03493134 6.07249207 29.03493134 4.43450928 29.06072998 C-1.62657142 28.98409788 -5.12923035 28.22222947 -9.54872322 23.95838833 C-12.68609631 19.97311226 -13.3585077 16.57842437 -13.25994873 11.60119629 C-12.60972953 7.73889427 -10.57763328 5.03496759 -7.86932373 2.28088379 C-4.63281572 0.12321178 -3.73656979 0.02546213 0 0 Z " transform="translate(1309.8693237304688,956.7191162109375)" style="fill: #FDFEFE;"/><path d="M0 0 C1.16801147 -0.01260864 2.33602295 -0.02521729 3.53942871 -0.03820801 C4.79678833 -0.03011108 6.05414795 -0.02201416 7.34960938 -0.01367188 C8.64402954 -0.01749878 9.93844971 -0.02132568 11.27209473 -0.02526855 C14.00922783 -0.03115875 16.74583796 -0.02261726 19.48291016 -0.00390625 C22.98707964 0.01888443 26.49002371 0.00575858 29.99414825 -0.01819611 C33.34189958 -0.03614642 36.68932325 -0.02356948 40.03710938 -0.01367188 C41.29446899 -0.0217688 42.55182861 -0.02986572 43.84729004 -0.03820801 C45.59930725 -0.01929504 45.59930725 -0.01929504 47.38671875 0 C48.41390015 0.00318237 49.44108154 0.00636475 50.49938965 0.00964355 C54.09311923 0.68722336 55.02984965 1.55935157 57.19335938 4.51757812 C57.78996895 7.59902377 57.72411345 10.64229439 57.68783569 13.77256775 C57.69266452 14.71984177 57.69749336 15.66711578 57.70246851 16.64309508 C57.71376321 19.8254114 57.69640192 23.00692842 57.67919922 26.18920898 C57.6813445 28.46737384 57.68522133 30.74553763 57.69070435 33.0236969 C57.70041371 39.21792047 57.68507387 45.41185666 57.66479826 51.60604548 C57.64725451 58.08197001 57.65075183 64.55788529 57.65151978 71.03382874 C57.64964551 81.91119819 57.63237333 92.78844024 57.60498047 103.66577148 C57.57681201 114.85687277 57.56263865 126.04787644 57.56396484 137.23901367 C57.56408471 138.27267127 57.56408471 138.27267127 57.564207 139.32721084 C57.56432807 140.35908122 57.56432807 140.35908122 57.56445158 141.41179746 C57.56576173 153.50545761 57.55546337 165.59907056 57.53886795 177.69272041 C57.53180072 182.84372837 57.52814122 187.99472222 57.52708054 193.14573479 C57.52507313 199.21056154 57.5128754 205.27528551 57.49274826 211.34007835 C57.48690072 213.56814189 57.48444703 215.79621726 57.48560333 218.02428818 C57.48658317 221.06150341 57.4752888 224.09842982 57.46078491 227.13560486 C57.46388212 228.02101218 57.46697932 228.9064195 57.47017038 229.81865734 C57.42720907 235.25227235 57.22370117 239.48723633 53.19335938 243.51757812 C50.69520569 243.77827454 50.69520569 243.77827454 47.50610352 243.79223633 C46.31469254 243.80176834 45.12328156 243.81130035 43.89576721 243.82112122 C42.60307419 243.82020981 41.31038116 243.8192984 39.97851562 243.81835938 C38.64334479 243.82224524 37.30817519 243.82657968 35.9730072 243.8313446 C33.17280065 243.83881186 30.37272017 243.83851208 27.57250977 243.83325195 C23.98321095 243.82745834 20.39442833 243.84438252 16.80521488 243.86759663 C14.04712403 243.88232617 11.28915769 243.88320674 8.53103447 243.8800869 C6.56396592 243.88085047 4.59691669 243.89473176 2.62989807 243.9087677 C0.83805336 243.89942451 0.83805336 243.89942451 -0.98999023 243.88989258 C-2.04318954 243.890522 -3.09638885 243.89115143 -4.1815033 243.89179993 C-7.25495575 243.45366936 -7.92409303 242.91190693 -9.80664062 240.51757812 C-10.18383878 238.6363464 -10.18383878 238.6363464 -10.18695736 236.47390842 C-10.1953973 235.64832072 -10.20383724 234.82273301 -10.21253294 233.9721275 C-10.20652289 233.0653307 -10.20051285 232.15853391 -10.19432068 231.22425842 C-10.19970622 230.26079905 -10.20509175 229.29733969 -10.21064049 228.30468458 C-10.22499925 225.06180015 -10.2177968 221.81931937 -10.21069336 218.57641602 C-10.21639278 216.25736664 -10.22335537 213.93832007 -10.23149109 211.61927795 C-10.24948485 205.30943069 -10.24824243 198.99972202 -10.2425487 192.68985677 C-10.23946583 187.4286331 -10.24553924 182.1674364 -10.25158745 176.90621656 C-10.26645639 163.78761357 -10.26280197 150.6690887 -10.25072414 137.55048596 C-10.24079125 126.15283035 -10.25373156 114.75533706 -10.27765834 103.35770649 C-10.30203102 91.65968464 -10.31126162 79.96174521 -10.30500561 68.26369852 C-10.30162776 61.69409487 -10.30410601 55.12462535 -10.32125664 48.55504036 C-10.33667624 42.37854223 -10.33282556 36.20235499 -10.31395149 30.02586937 C-10.31025179 27.75545437 -10.31341398 25.48501659 -10.32383728 23.2146225 C-10.33695424 20.12201243 -10.32558196 17.03044576 -10.30784607 13.93788147 C-10.31745108 13.0333154 -10.32705608 12.12874932 -10.33695215 11.19677216 C-10.26526185 5.14706558 -10.26526185 5.14706558 -7.94368839 1.96055508 C-5.1515226 0.07522947 -3.35846361 0.01040506 0 0 Z M-7.80664062 5.51757812 C-8.13664062 5.51757812 -8.46664063 5.51757812 -8.80664062 5.51757812 C-8.80664062 73.16757812 -8.80664062 140.81757812 -8.80664062 210.51757812 C24.0168539 212.64535832 24.0168539 212.64535832 56.19335938 209.51757812 C56.19335938 141.86757812 56.19335938 74.21757813 56.19335938 4.51757812 C48.76755201 2.77896591 48.76755201 2.77896591 41.5534668 2.24291992 C40.54599899 2.23338791 39.53853119 2.2238559 38.50053406 2.21403503 C37.4439711 2.21494644 36.38740814 2.21585785 35.29882812 2.21679688 C34.18905106 2.21251175 33.07927399 2.20822662 31.93586731 2.20381165 C29.60544515 2.19809895 27.27500517 2.19754534 24.94458008 2.2019043 C21.37420677 2.20508405 17.80464729 2.18149806 14.234375 2.15625 C11.96419375 2.15397873 9.69401028 2.15327271 7.42382812 2.15429688 C6.35714401 2.14508713 5.2904599 2.13587738 4.19145203 2.12638855 C2.70389153 2.13573174 2.70389153 2.13573174 1.1862793 2.14526367 C0.31629807 2.14463425 -0.55368317 2.14400482 -1.45002747 2.14335632 C-4.28249446 2.59314202 -5.64160308 3.69108189 -7.80664062 5.51757812 Z " transform="translate(1066.806640625,885.482421875)" style="fill: #5199C3;"/><path d="M0 0 C0.33 0 0.66 0 1 0 C1 54.12 1 108.24 1 164 C14.53 164 28.06 164 42 164 C42 109.88 42 55.76 42 0 C42.33 0 42.66 0 43 0 C43 64.02 43 128.04 43 194 C28.81 194 14.62 194 0 194 C0 129.98 0 65.96 0 0 Z " transform="translate(926,914)" style="fill: #888988;"/><path d="M0 0 C11.88 0 23.76 0 36 0 C36 63.69 36 127.38 36 193 C24.12 193 12.24 193 0 193 C0 183.43 0 173.86 0 164 C11.55 164 23.1 164 35 164 C35 110.21 35 56.42 35 1 C23.45 1 11.9 1 0 1 C0 0.67 0 0.34 0 0 Z " transform="translate(802,914)" style="fill: #949494;"/><path d="M0 0 C0.33 0 0.66 0 1 0 C1 45.54 1 91.08 1 138 C-9.56 138 -20.12 138 -31 138 C-31 127.11 -31 116.22 -31 105 C-20.77 105.33 -10.54 105.66 0 106 C0 71.02 0 36.04 0 0 Z " transform="translate(1028,940)" style="fill: #C5C5C4;"/><path d="M0 0 C7.26 0 14.52 0 22 0 C22 16.5 22 33 22 50 C14.74 50 7.48 50 0 50 C0 33.5 0 17 0 0 Z " transform="translate(1590,975)" style="fill: #E8E8E8;"/><path d="M0 0 C10.56 0 21.12 0 32 0 C32 37.95 32 75.9 32 115 C21.44 115 10.88 115 0 115 C0 77.05 0 39.1 0 0 Z M1 1 C1 29.71 1 58.42 1 88 C10.9 88 20.8 88 31 88 C31 59.29 31 30.58 31 1 C21.1 1 11.2 1 1 1 Z " transform="translate(866,953)" style="fill: #BCBBBB;"/><path d="M0 0 C1.39412109 -0.061875 1.39412109 -0.061875 2.81640625 -0.125 C7.81495972 -0.18156072 10.95310722 0.12642149 14.859375 3.40625 C18.28238401 6.75382642 18.93841685 8.96953333 19.0625 13.75 C19.00942496 18.81866621 18.28995551 21.67302107 14.75 25.5 C10.17953091 29.11466757 5.89761688 29.0171982 0.3125 29 C-0.93756836 29.04253906 -0.93756836 29.04253906 -2.21289062 29.0859375 C-6.42432711 29.0992543 -9.35314314 28.88572729 -12.72265625 26.21875 C-17.31180429 21.2820467 -17.68915001 17.82102729 -17.57421875 11.19921875 C-17.12385154 7.44977611 -15.74880251 5.28437994 -13.25 2.5 C-8.93276994 -0.37815337 -5.08256345 0.05547136 0 0 Z " transform="translate(1479.25,956.5)" style="fill: #F9FEFD;"/><path d="M0 0 C4.79778313 2.14426062 7.68250089 4.39309442 9.91015625 9.3125 C10.79368915 14.96914169 10.16024603 19.49340137 6.91015625 24.3125 C1.98530665 28.75687647 -1.04145862 29.6688486 -7.546875 29.59375 C-11.28164793 29.18068756 -13.32926203 27.80375668 -16.08984375 25.3125 C-19.94687129 19.90709842 -20.15581046 14.75946665 -19.08984375 8.3125 C-15.1515812 0.92029199 -8.26365092 -2.71850946 0 0 Z " transform="translate(754.08984375,996.6875)" style="fill: #050505;"/><path d="M0 0 C4.95171195 1.69744284 8.03508208 4.45909557 10.33984375 9.1484375 C12.05078259 13.94716537 11.31618856 17.76505895 9.25 22.25 C6.90586238 26.53239982 4.6544035 28.44853217 0 30 C-6.12093081 30.50171564 -9.1167095 30.08833623 -14 26 C-17.74976591 21.733025 -18.35804062 17.80450272 -18.27734375 12.28125 C-17.68174716 7.38225836 -14.83769959 4.72346783 -11.25 1.625 C-7.35216903 -0.32391549 -4.2326989 -0.79414273 0 0 Z " transform="translate(690,996)" style="fill: #050505;"/><path d="M0 0 C4.40802625 2.16394016 7.23139226 4.38196867 9 9 C9.65862967 14.31782472 9.65060637 18.59869397 7.375 23.5 C3.58820087 27.48610435 0.0631692 29.13827918 -5.375 29.625 C-10.38325355 29.48918295 -12.97097588 27.09941612 -16.46875 23.7265625 C-19.71757495 20.06334661 -19.33061254 16.47974754 -19.28125 11.765625 C-18.781752 6.85389468 -16.45572017 4.28445897 -12.875 1.125 C-8.55651358 -0.56484251 -4.5732948 -0.65960983 0 0 Z " transform="translate(628,997)" style="fill: #040404;"/><path d="M0 0 C0 6.27 0 12.54 0 19 C-30.83947531 15.32117934 -30.83947531 15.32117934 -45.9375 12.875 C-46.948125 12.71676758 -47.95875 12.55853516 -49 12.39550781 C-49.91652344 12.24178711 -50.83304687 12.08806641 -51.77734375 11.9296875 C-52.97218384 11.73221924 -52.97218384 11.73221924 -54.19116211 11.53076172 C-54.78807861 11.35561035 -55.38499512 11.18045898 -56 11 C-56.33 10.34 -56.66 9.68 -57 9 C-47.98418778 7.22290167 -39.00763195 5.68859798 -29.88671875 4.53515625 C-21.97799466 3.44621635 -14.06317893 2.08908835 -6.2578125 0.41015625 C-4 0 -4 0 0 0 Z " transform="translate(396,1000)" style="fill: #EDECEB;"/><path d="M0 0 C15.52501624 -0.14030353 31.0499849 -0.24603615 46.57548618 -0.31087303 C53.78467087 -0.34178139 60.99346111 -0.38390295 68.20239258 -0.45263672 C74.48740643 -0.51253268 80.77213457 -0.55117113 87.05742592 -0.56453097 C90.38415047 -0.57233804 93.7098695 -0.59378924 97.03637886 -0.63438034 C100.75464426 -0.67794675 104.47121763 -0.6839335 108.18969727 -0.68115234 C109.28661896 -0.702724 110.38354065 -0.72429565 111.51370239 -0.746521 C117.76046436 -0.69597441 121.28680234 0.05042119 125.78629971 4.51613426 C128.72388769 8.10761906 128.32803838 11.76608501 128.28125 16.234375 C127.79595911 21.00640211 125.63456417 23.62296416 122.0639801 26.6309967 C117.34511569 28.73941148 112.77580741 28.42537773 107.66381836 28.40405273 C106.51859207 28.41091599 105.37336578 28.41777924 104.19343567 28.42485046 C100.40877886 28.44314897 96.62453529 28.43927709 92.83984375 28.43359375 C90.2109819 28.43815341 87.58212124 28.44345833 84.95326233 28.44947815 C79.44463138 28.45950217 73.93611789 28.45621254 68.42749023 28.44604492 C62.0613135 28.43455409 55.69555756 28.44865755 49.32943624 28.4754414 C43.20033833 28.50026146 37.07143473 28.50277841 30.94229317 28.49632454 C28.33592592 28.49617089 25.72955073 28.50225083 23.12321281 28.51461601 C19.48408301 28.52945054 15.84588716 28.51890396 12.20678711 28.50170898 C11.12563629 28.51137695 10.04448547 28.52104492 8.93057251 28.53100586 C1.60933579 28.45836443 1.60933579 28.45836443 -1.70042419 25.96864319 C-2.12928421 25.31899094 -2.55814423 24.66933868 -3 24 C-2.195625 24.2165625 -2.195625 24.2165625 -1.375 24.4375 C5.09710977 25.9703681 11.1892734 26.11212462 17.80712891 26.03759766 C18.88422623 26.02959641 19.96132355 26.02159515 21.07106018 26.01335144 C24.62296051 25.98552432 28.17473594 25.95002739 31.7265625 25.9140625 C34.19704919 25.89228715 36.66753877 25.87083787 39.13803101 25.84970093 C44.31113414 25.80424316 49.48418415 25.75502334 54.65722656 25.703125 C61.29294817 25.63682787 67.92871108 25.57957882 74.56453896 25.52509499 C79.66370105 25.48228692 84.76281199 25.43485454 89.8619194 25.38599777 C92.30917472 25.36308001 94.75644367 25.34157299 97.20372391 25.32149124 C100.6197675 25.29273596 104.03569292 25.25780095 107.45166016 25.22119141 C108.46578476 25.2138649 109.47990936 25.20653839 110.52476501 25.19898987 C111.45556381 25.18775589 112.38636261 25.17652191 113.34536743 25.16494751 C114.55597556 25.15332046 114.55597556 25.15332046 115.79104042 25.14145851 C117.975322 25.00158034 119.90006702 24.60167724 122 24 C122 23.34 122 22.68 122 22 C122.66 22 123.32 22 124 22 C125.05399717 18.83800849 125.23445913 16.38539814 125.3125 13.0625 C125.34988281 12.02222656 125.38726563 10.98195313 125.42578125 9.91015625 C124.8943582 6.2779528 123.89807325 5.18751238 121 3 C117.97611903 2.01200268 115.20765194 1.87637484 112.03924561 1.87974548 C111.04087677 1.87837082 110.04250793 1.87699615 109.0138855 1.87557983 C107.38037643 1.88097275 107.38037643 1.88097275 105.71386719 1.88647461 C104.56236176 1.88632858 103.41085632 1.88618256 102.22445679 1.8860321 C98.41524375 1.88672922 94.6060795 1.8945123 90.796875 1.90234375 C88.15700304 1.90420864 85.51713073 1.90563221 82.8772583 1.90663147 C76.63708966 1.90973853 70.39693855 1.91794349 64.15677762 1.92798096 C57.05162297 1.93916151 49.94646747 1.94465744 42.84130621 1.94967639 C28.22752843 1.96012662 13.61376446 1.97771397 -1 2 C-0.67 1.34 -0.34 0.68 0 0 Z " transform="translate(1305,957)" style="fill: #EBFDFE;"/><path d="M0 0 C0 0.33 0 0.66 0 1 C-0.71754456 1.01617371 -1.43508911 1.03234741 -2.17437744 1.04901123 C-11.86657999 1.26965443 -21.55837901 1.50520055 -31.25 1.75 C-32.06108341 1.77047771 -32.87216682 1.79095543 -33.70782852 1.81205368 C-68.02979451 2.68447076 -102.32953813 4.01144198 -136.63154793 5.4603796 C-156.72677649 6.30863984 -176.81846544 7.11542546 -196.92578125 7.6171875 C-197.72990133 7.63759157 -198.53402142 7.65799564 -199.36250877 7.67901802 C-214.24236847 8.04962019 -229.11587124 8.11650631 -244 8 C-241.03504284 6.31227262 -238.8110804 5.72441187 -235.41186523 5.60351562 C-234.49687759 5.56738159 -233.58188995 5.53124756 -232.63917542 5.49401855 C-231.64320847 5.46505493 -230.64724152 5.43609131 -229.62109375 5.40625 C-228.56651474 5.36922974 -227.51193573 5.33220947 -226.42539978 5.29406738 C-214.28603319 4.89441018 -202.14115175 4.72061338 -189.99676514 4.55444336 C-183.30369525 4.46182296 -176.61082862 4.35660544 -169.91796875 4.25 C-168.61784851 4.22933472 -167.31772827 4.20866943 -165.97821045 4.18737793 C-155.60858474 4.01841666 -145.24159898 3.80181373 -134.875 3.5 C-132.90672241 3.44682617 -132.90672241 3.44682617 -130.89868164 3.39257812 C-129.15059204 3.3374707 -129.15059204 3.3374707 -127.3671875 3.28125 C-125.89934814 3.23581055 -125.89934814 3.23581055 -124.40185547 3.18945312 C-121.85553194 3.08553855 -121.85553194 3.08553855 -119 2 C-116.93473986 1.8541458 -114.8654046 1.76384899 -112.79589844 1.70288086 C-110.85925323 1.64294701 -110.85925323 1.64294701 -108.88348389 1.58180237 C-107.45878707 1.54259234 -106.03408388 1.50361307 -104.609375 1.46484375 C-103.12590845 1.42158285 -101.64244909 1.37807502 -100.15899658 1.33433533 C-96.17899243 1.21874992 -92.19882676 1.11018562 -88.21856689 1.00380707 C-85.75781533 0.93770992 -83.29711812 0.86983812 -80.83642578 0.80157471 C-53.88670952 0.05872263 -26.96063633 -0.26977238 0 0 Z " transform="translate(1555,1062)" style="fill: #5A8DAC;"/><path d="M0 0 C1.75685875 -0.01891296 1.75685875 -0.01891296 3.54920959 -0.03820801 C4.80970627 -0.03011108 6.07020294 -0.02201416 7.36889648 -0.01367188 C8.66568832 -0.01749878 9.96248016 -0.02132568 11.29856873 -0.02526855 C14.03989773 -0.03115808 16.78070447 -0.02261802 19.52197266 -0.00390625 C23.03520703 0.01890696 26.54722069 0.00574391 30.0604105 -0.01819611 C33.41333714 -0.03612429 36.76593515 -0.02357395 40.11889648 -0.01367188 C42.01267784 -0.02581726 42.01267784 -0.02581726 43.94471741 -0.03820801 C45.69684792 -0.01929504 45.69684792 -0.01929504 47.484375 0 C49.02847801 0.00477356 49.02847801 0.00477356 50.60377502 0.00964355 C53.17749023 0.51757812 53.17749023 0.51757812 55.03330994 2.54992676 C55.59967918 3.52391418 55.59967918 3.52391418 56.17749023 4.51757812 C55.51749023 4.84757813 54.85749023 5.17757812 54.17749023 5.51757812 C54.17749023 4.85757813 54.17749023 4.19757812 54.17749023 3.51757812 C46.68438413 3.44803007 39.19131155 3.39474253 31.69795609 3.36214161 C28.21836181 3.34649372 24.73898856 3.32527205 21.25952148 3.29125977 C17.25819796 3.25239158 13.25710618 3.23786174 9.25561523 3.22460938 C8.00758118 3.20912552 6.75954712 3.19364166 5.47369385 3.1776886 C4.31279236 3.17746201 3.15189087 3.17723541 1.95581055 3.17700195 C0.42358856 3.1670092 0.42358856 3.1670092 -1.1395874 3.15681458 C-4.37270545 3.59156109 -5.53610095 4.19837229 -7.82250977 6.51757812 C-8.43295634 9.5695717 -8.43295634 9.5695717 -8.3414917 13.14237976 C-8.34899295 13.81872917 -8.3564942 14.49507859 -8.36422276 15.19192344 C-8.38455767 17.4631381 -8.37638664 19.73335994 -8.3684082 22.00463867 C-8.37714013 23.63068635 -8.38762458 25.25672543 -8.3997345 26.88275146 C-8.42766195 31.30192236 -8.4309977 35.72081384 -8.43001461 40.14006019 C-8.43313794 44.75658963 -8.458744 49.37299213 -8.48199463 53.98945618 C-8.52260273 62.73355688 -8.54290662 71.47758293 -8.55596852 80.22176343 C-8.57182231 90.17576151 -8.61023105 100.12963222 -8.65056181 110.08355653 C-8.73302655 130.56152176 -8.78707755 151.03948108 -8.82250977 171.51757812 C-9.15250977 171.51757812 -9.48250977 171.51757812 -9.82250977 171.51757812 C-9.91589513 149.81260718 -9.98646053 128.10766929 -10.02975845 106.4025383 C-10.05039558 96.32476847 -10.07853816 86.24712337 -10.12426758 76.16943359 C-10.16410013 67.3871001 -10.1899342 58.60485693 -10.19886374 49.82243562 C-10.20408458 45.17091586 -10.21637923 40.51965451 -10.24542999 35.86821747 C-10.27254256 31.49173185 -10.28096323 27.11561154 -10.27494049 22.73904991 C-10.2760426 21.1313777 -10.28402138 19.52369351 -10.29933167 17.91609383 C-10.31919554 15.72313216 -10.3144635 13.53155482 -10.30352783 11.33856201 C-10.307215 10.11073376 -10.31090218 8.8829055 -10.31470108 7.61787033 C-9.3354472 1.44959171 -5.80662071 0.01793717 0 0 Z " transform="translate(1066.822509765625,885.482421875)" style="fill: #739EBB;"/><path d="M0 0 C15.57694376 -0.07006979 31.15385896 -0.12297818 46.7309227 -0.15543652 C53.96357236 -0.17090783 61.19612412 -0.1920023 68.42871094 -0.22631836 C74.73237175 -0.25621275 81.03596167 -0.27557308 87.3396914 -0.28226548 C90.67778326 -0.28617777 94.0155117 -0.29694767 97.35356903 -0.31719017 C101.07926077 -0.33888976 104.80452893 -0.34196999 108.53027344 -0.34057617 C109.63798096 -0.351362 110.74568848 -0.36214783 111.88696289 -0.3732605 C113.40975861 -0.36707451 113.40975861 -0.36707451 114.96331787 -0.36076355 C116.28516901 -0.36491162 116.28516901 -0.36491162 117.63372421 -0.36914349 C120.50765737 0.07919551 121.90635108 1.00916341 124 3 C124 3.66 124 4.32 124 5 C124.66 5 125.32 5 126 5 C129.05866442 8.93256854 129.33585796 11.91668732 129.1875 16.8125 C129.14689453 18.55466797 129.14689453 18.55466797 129.10546875 20.33203125 C129.07066406 21.21246094 129.03585937 22.09289062 129 23 C127.68 23.66 126.36 24.32 125 25 C125.15726563 24.45085938 125.31453125 23.90171875 125.4765625 23.3359375 C126.57501197 18.4339018 127.32989984 12.56055343 124.953125 7.984375 C123.19584747 5.85496811 121.47806982 4.23903491 119 3 C117.40381617 2.8956055 115.80337823 2.85346936 114.2038269 2.84178162 C113.19137909 2.8319928 112.17893127 2.82220398 111.13580322 2.81211853 C110.02090515 2.80636307 108.90600708 2.8006076 107.75732422 2.79467773 C106.00124344 2.77982834 106.00124344 2.77982834 104.20968628 2.76467896 C100.99504408 2.73845892 97.78040726 2.71661018 94.56572104 2.69667697 C91.20777794 2.67483113 87.84988031 2.6474356 84.49197388 2.62062073 C78.13135762 2.57067484 71.77071614 2.52574306 65.41005051 2.48259836 C58.16948316 2.43324217 50.92896142 2.37831806 43.68843818 2.32291877 C28.79233462 2.20906962 13.89618812 2.10223699 -1 2 C-0.67 1.34 -0.34 0.68 0 0 Z " transform="translate(1306,955)" style="fill: #98C8E0;"/><path d="M0 0 C32.84533541 -0.07282779 65.66164201 -0.08237062 98.5 0.5 C99.17464169 0.51195782 99.84928337 0.52391563 100.54436874 0.53623581 C108.69642917 0.68155894 116.8482977 0.83583634 125 1 C125 1.33 125 1.66 125 2 C116.82657433 2.15628342 108.65305292 2.30437205 100.47931004 2.4429636 C96.68086875 2.50760583 92.88250996 2.57471517 89.08422852 2.64819336 C72.49858952 2.967202 56.00328892 3.05475637 39.42553711 2.24682617 C31.94861408 1.88397851 24.48492549 1.85211032 17 1.875 C15.62890538 1.87141331 14.25781156 1.867506 12.88671875 1.86328125 C11.60410156 1.86457031 10.32148437 1.86585938 9 1.8671875 C7.865625 1.86831543 6.73125 1.86944336 5.5625 1.87060547 C3.06697595 1.70950846 3.06697595 1.70950846 2 3 C1.89262854 4.35293676 1.85321362 5.71135419 1.84178162 7.0684967 C1.8319928 7.94494339 1.82220398 8.82139008 1.81211853 9.72439575 C1.80636307 10.69327728 1.8006076 11.66215881 1.79467773 12.66040039 C1.78477814 13.67491776 1.77487854 14.68943512 1.76467896 15.73469543 C1.73295872 19.10565821 1.7082651 22.4766351 1.68359375 25.84765625 C1.6630333 28.17793658 1.64203708 30.5082131 1.62062073 32.83848572 C1.56530614 38.98533047 1.5159384 45.13220939 1.46777344 51.27911377 C1.41762677 57.54613299 1.36190512 63.81310231 1.30664062 70.08007812 C1.19894431 82.38667617 1.097525 94.69331745 1 107 C0.67 107 0.34 107 0 107 C0 71.69 0 36.38 0 0 Z " transform="translate(1153,934)" style="fill: #84C2E7;"/><path d="M0 0 C0.556875 0.7425 1.11375 1.485 1.6875 2.25 C5.61679066 7.15308199 5.61679066 7.15308199 11.31734848 9.36964417 C14.31445025 9.52221615 17.28760315 9.54019385 20.28857422 9.51757812 C21.99918533 9.52809204 21.99918533 9.52809204 23.74435425 9.53881836 C27.51471296 9.55642502 31.28432112 9.54476369 35.0546875 9.53125 C37.67636255 9.5339445 40.29803662 9.53782656 42.91970825 9.54284668 C48.41579306 9.55011896 53.91166272 9.54054879 59.40771484 9.52148438 C65.74999139 9.4997378 72.0917531 9.50675206 78.43401706 9.52879 C84.54710546 9.54917683 90.6599668 9.54695758 96.7730751 9.53526306 C99.36858314 9.53259683 101.96410434 9.53586185 104.55959702 9.54518127 C108.19096229 9.55535672 111.82134451 9.53982873 115.45263672 9.51757812 C117.0581842 9.52972351 117.0581842 9.52972351 118.69616699 9.54211426 C125.00938473 9.47056697 128.81686193 8.67082251 134 5 C133.02579499 7.82519453 132.11535626 8.92205044 129.61521912 10.61146545 C124.6124985 12.53291203 120.09712786 12.42679652 114.78149414 12.40405273 C113.0999247 12.41434761 113.0999247 12.41434761 111.38438416 12.42485046 C107.68451211 12.443128 103.98506369 12.43927944 100.28515625 12.43359375 C97.709751 12.43815503 95.13434696 12.44346044 92.5589447 12.44947815 C87.1630195 12.45841114 81.76725651 12.45621817 76.37133789 12.44604492 C70.14550136 12.43456593 63.92009573 12.44863925 57.69431597 12.4754414 C51.69069746 12.50031363 45.68729983 12.50276904 39.68362236 12.49632454 C37.13555624 12.49617124 34.58748186 12.50222295 32.03944588 12.51461601 C28.47527222 12.52950907 24.91204464 12.51885989 21.34790039 12.50170898 C20.29780792 12.51137695 19.24771545 12.52104492 18.165802 12.53100586 C11.93741417 12.46831269 8.02561085 11.79774396 3 8 C2.67 7.01 2.34 6.02 2 5 C1.34 5 0.68 5 0 5 C0 3.35 0 1.7 0 0 Z " transform="translate(1297,975)" style="fill: #85BCD8;"/><path d="M0 0 C2.62220581 0.15168177 5.22155024 0.24555549 7.84619141 0.29711914 C8.65602982 0.31677231 9.46586823 0.33642548 10.30024719 0.35667419 C12.98393477 0.42067691 15.66772248 0.4779342 18.3515625 0.53515625 C20.20959418 0.57815341 22.06761621 0.62156991 23.92562866 0.66539001 C28.82132244 0.77972045 33.71712712 0.88833742 38.61297607 0.99578857 C43.60664641 1.10639024 48.60019164 1.22236242 53.59375 1.33789062 C63.39571803 1.56386759 73.19781152 1.78381241 83 2 C83 2.33 83 2.66 83 3 C50.89070663 3.23479996 18.84289113 3.05785031 -13.25 2 C-13.97589703 1.97608437 -14.70179405 1.95216873 -15.44968796 1.92752838 C-24.30041272 1.63447059 -33.15016884 1.31973584 -42 1 C-42 9.91 -42 18.82 -42 28 C-42.33 28 -42.66 28 -43 28 C-43 18.76 -43 9.52 -43 0 C-38.4625 -0.165 -33.925 -0.33 -29.25 -0.5 C-27.14286621 -0.57831055 -27.14286621 -0.57831055 -24.99316406 -0.65820312 C-2.88119591 -1.44059795 -2.88119591 -1.44059795 0 0 Z " transform="translate(1194,932)" style="fill: #091B2B;"/><path d="M0 0 C0.33 0 0.66 0 1 0 C1 12.87 1 25.74 1 39 C1.66 39.33 2.32 39.66 3 40 C2.98428955 40.80743652 2.9685791 41.61487305 2.95239258 42.44677734 C2.89020321 46.08944756 2.85105991 49.73200634 2.8125 53.375 C2.78736328 54.64601563 2.76222656 55.91703125 2.73632812 57.2265625 C2.72666016 58.43828125 2.71699219 59.65 2.70703125 60.8984375 C2.6913208 62.01911621 2.67561035 63.13979492 2.65942383 64.29443359 C2.77181396 65.18727051 2.8842041 66.08010742 3 67 C6.68277213 69.45518142 9.59664117 69.41522809 13.875 69.5625 C14.70547852 69.59786865 15.53595703 69.6332373 16.39160156 69.66967773 C31.92053476 70.28764381 47.46382077 70.6168925 63 71 C63 71.33 63 71.66 63 72 C55.22883692 72.06948809 47.45774652 72.12280502 39.68635082 72.15543652 C36.07781697 72.1710975 32.46949556 72.19234315 28.86108398 72.22631836 C25.37921878 72.25889717 21.89755799 72.27684975 18.41555214 72.28463173 C16.43957903 72.29287856 14.46368825 72.31630038 12.48783875 72.33988953 C11.28682022 72.34011612 10.0858017 72.34034271 8.84838867 72.34057617 C7.25954109 72.35056892 7.25954109 72.35056892 5.63859558 72.36076355 C3 72 3 72 1.15576172 70.89587402 C-0.5886001 68.0344795 -0.3587808 65.65688697 -0.34057617 62.32543945 C-0.34123329 61.31528778 -0.34123329 61.31528778 -0.34190369 60.284729 C-0.33981501 58.06061731 -0.3164815 55.83726112 -0.29296875 53.61328125 C-0.28737305 52.07057609 -0.28310283 50.5278656 -0.28010559 48.9851532 C-0.26865471 44.92602809 -0.23918569 40.86722534 -0.20599365 36.80822754 C-0.17529787 32.66581585 -0.16160132 28.52335203 -0.14648438 24.38085938 C-0.114316 16.25375836 -0.06311698 8.12691929 0 0 Z " transform="translate(1057,1057)" style="fill: #5C88A3;"/><path d="M0 0 C1.06347656 0.07154297 1.06347656 0.07154297 2.1484375 0.14453125 C3.84920352 0.25944787 5.54964439 0.37916255 7.25 0.5 C7.25 0.83 7.25 1.16 7.25 1.5 C-43.62601272 3.69634092 -43.62601272 3.69634092 -63.875 3.75 C-65.18082031 3.75902344 -66.48664063 3.76804687 -67.83203125 3.77734375 C-69.58966797 3.77154297 -69.58966797 3.77154297 -71.3828125 3.765625 C-72.38199707 3.76336914 -73.38118164 3.76111328 -74.41064453 3.75878906 C-76.75 3.5 -76.75 3.5 -78.75 1.5 C-71.39507536 1.23672701 -64.04007167 0.9757871 -56.68496323 0.71769714 C-53.26845044 0.59774143 -49.85196812 0.47702945 -46.43554688 0.35449219 C-42.49357135 0.21313993 -38.55147806 0.07525142 -34.609375 -0.0625 C-33.40263123 -0.10624756 -32.19588745 -0.14999512 -30.95257568 -0.19506836 C-20.61723311 -0.55173788 -10.32066424 -0.74292719 0 0 Z " transform="translate(1294.75,1069.5)" style="fill: #588CAB;"/><path d="M0 0 C0.33 0 0.66 0 1 0 C1.07014135 14.10817369 1.12281367 28.21632027 1.15543652 42.32463264 C1.17109368 48.87566296 1.19233324 55.42657615 1.22631836 61.97753906 C1.25890945 68.29933702 1.27685264 74.62102231 1.28463173 80.9428978 C1.29017564 83.35503793 1.30100145 85.76717189 1.31719017 88.17926407 C1.3389606 91.55730782 1.34196702 94.93488569 1.34057617 98.31298828 C1.35675491 99.80947655 1.35675491 99.80947655 1.3732605 101.3361969 C1.34947754 106.67290136 0.94640875 110.35325476 -2 115 C-2.66 115 -3.32 115 -4 115 C-4 114.01 -4 113.02 -4 112 C-3.34 112 -2.68 112 -2 112 C-1.10132645 88.44336863 -0.72268844 64.89408701 -0.46777344 41.32287598 C-0.41643382 36.6416555 -0.36135101 31.96047896 -0.30664062 27.27929688 C-0.20089023 18.18623591 -0.09908414 9.09313589 0 0 Z " transform="translate(1561,946)" style="fill: #71A1BE;"/><path d="M0 0 C1.17139023 -0.0127597 2.34278046 -0.02551941 3.54966736 -0.03866577 C4.8204866 -0.04089142 6.09130585 -0.04311707 7.40063477 -0.04541016 C8.7002565 -0.05206696 9.99987823 -0.05872375 11.33888245 -0.06558228 C14.09200358 -0.07756542 16.84499915 -0.08126204 19.59814453 -0.08007812 C23.12704041 -0.07987484 26.65513181 -0.10718092 30.18383694 -0.14162254 C33.54778245 -0.16920075 36.91157754 -0.1680397 40.27563477 -0.17041016 C41.54442978 -0.18478119 42.81322479 -0.19915222 44.12046814 -0.21395874 C45.88228172 -0.20472885 45.88228172 -0.20472885 47.6796875 -0.1953125 C48.71512192 -0.19816254 49.75055634 -0.20101257 50.81736755 -0.20394897 C53.40454102 0.29052734 53.40454102 0.29052734 55.26234436 2.32089233 C55.63926926 2.97087189 56.01619415 3.62085144 56.40454102 4.29052734 C55.74454102 4.62052734 55.08454102 4.95052734 54.40454102 5.29052734 C54.40454102 4.63052734 54.40454102 3.97052734 54.40454102 3.29052734 C46.91143491 3.22097929 39.41836233 3.16769174 31.92500687 3.13509083 C28.44541259 3.11944294 24.96603934 3.09822127 21.48657227 3.06420898 C17.48524874 3.0253408 13.48415696 3.01081096 9.48266602 2.99755859 C8.23463196 2.98207474 6.9865979 2.96659088 5.70074463 2.95063782 C4.53984314 2.95041122 3.37894165 2.95018463 2.18286133 2.94995117 C0.65063934 2.93995842 0.65063934 2.93995842 -0.91253662 2.92976379 C-3.96782178 3.34059772 -5.33321364 4.24933768 -7.59545898 6.29052734 C-7.59545898 0.07863572 -5.55897065 0.04096052 0 0 Z " transform="translate(1066.595458984375,885.70947265625)" style="fill: #74A7C7;"/><path d="M0 0 C22.21315083 -0.16372092 44.41564321 0.12067416 66.625 0.5 C67.32532223 0.51195782 68.02564445 0.52391563 68.74718857 0.53623581 C77.49821044 0.68609542 86.24914273 0.84081673 95 1 C95 1.33 95 1.66 95 2 C86.82657433 2.15628342 78.65305292 2.30437205 70.47931004 2.4429636 C66.68086875 2.50760583 62.88250996 2.57471517 59.08422852 2.64819336 C44.24649799 2.93341677 29.42562507 3.17868029 14.58984375 2.65234375 C13.56411758 2.61984024 12.53839142 2.58733673 11.48158264 2.55384827 C10.54527512 2.51279465 9.60896759 2.47174103 8.64428711 2.42944336 C7.83785263 2.39523788 7.03141815 2.36103241 6.20054626 2.32579041 C3.79638883 1.96985541 2.10156161 1.19618466 0 0 Z " transform="translate(1183,934)" style="fill: #78AECF;"/><path d="M0 0 C3.35386761 -0.1171893 6.70720149 -0.18757584 10.0625 -0.25 C11.00544922 -0.28351562 11.94839844 -0.31703125 12.91992188 -0.3515625 C19.20598442 -0.43917313 22.92683662 0.19347819 28 4 C30.74141645 7.19634978 32.91788348 10.85714996 33.08203125 15.140625 C32.8125 17.0625 32.8125 17.0625 32 20 C31.67 20 31.34 20 31 20 C30.85304688 19.19175781 30.70609375 18.38351562 30.5546875 17.55078125 C30.33039063 16.48214844 30.10609375 15.41351562 29.875 14.3125 C29.66617187 13.25675781 29.45734375 12.20101562 29.2421875 11.11328125 C27.67498597 7.18542082 25.78007051 4.83124053 22 3 C18.45481691 2.30094468 15.04082517 2.29998282 11.4375 2.375 C10.50486328 2.35566406 9.57222656 2.33632813 8.61132812 2.31640625 C3.91252467 2.34989737 1.70542355 2.44885999 -2.08984375 5.4140625 C-4.79747439 9.07960745 -5.13709377 10.86402359 -5.125 15.375 C-5.12757812 16.33148437 -5.13015625 17.28796875 -5.1328125 18.2734375 C-5.01551878 20.68140854 -4.68675951 22.69990068 -4 25 C-4.66 25 -5.32 25 -6 25 C-8.56027794 20.19947886 -8.56822367 15.3005939 -8 10 C-6.66362375 6.598315 -5.56521154 4.56521154 -3 2 C-2.01 2 -1.02 2 0 2 C0 1.34 0 0.68 0 0 Z " transform="translate(1468,955)" style="fill: #87BFDF;"/><path d="M0 0 C2.16874252 0.50603992 3.99967627 0.99983813 6 2 C7.54549876 2.10414822 9.09535793 2.14650919 10.64431763 2.15821838 C11.62310883 2.1680072 12.60190002 2.17779602 13.61035156 2.18788147 C14.68784668 2.19363693 15.7653418 2.1993924 16.87548828 2.20532227 C18.00719452 2.21522186 19.13890076 2.22512146 20.30490112 2.23532104 C24.06001669 2.26700596 27.81514492 2.29172111 31.5703125 2.31640625 C34.16820614 2.33696974 36.76609638 2.35796604 39.36398315 2.37937927 C45.5121063 2.42900647 51.66024751 2.47425556 57.80841911 2.51740164 C64.80715411 2.56675969 71.80584194 2.62168312 78.80453134 2.67708123 C93.20297659 2.79092702 107.60146789 2.8977604 122 3 C122 3.33 122 3.66 122 4 C106.68386264 4.09342862 91.36773843 4.16397195 76.05138016 4.20724869 C68.93975551 4.22787671 61.8283079 4.25600159 54.71679688 4.30175781 C47.85684273 4.34587447 40.99707283 4.36912208 34.13698578 4.37950897 C31.51664073 4.38691336 28.89630603 4.4013719 26.27603912 4.42292023 C22.61251359 4.45185625 18.94975378 4.45595995 15.28613281 4.45410156 C13.65262375 4.47567322 13.65262375 4.47567322 11.9861145 4.49768066 C4.60960177 4.45705348 4.60960177 4.45705348 1.2946167 1.97161865 C0.86739319 1.3209845 0.44016968 0.67035034 0 0 Z " transform="translate(1302,981)" style="fill: #DCFAFE;"/><path d="M0 0 C0 0.33 0 0.66 0 1 C-0.98919434 1.02505615 -1.97838867 1.0501123 -2.99755859 1.07592773 C-6.66159404 1.16997787 -10.32543885 1.27020429 -13.98925781 1.37231445 C-15.57612657 1.41567241 -17.16304224 1.45734687 -18.75 1.49731445 C-21.02878979 1.55499632 -23.30734322 1.61869638 -25.5859375 1.68359375 C-26.65320572 1.70866249 -26.65320572 1.70866249 -27.74203491 1.73423767 C-31.49660817 1.79721937 -31.49660817 1.79721937 -35 3 C-37.17824961 3.08559118 -39.35915255 3.10713412 -41.5390625 3.09765625 C-42.84101562 3.09443359 -44.14296875 3.09121094 -45.484375 3.08789062 C-46.86458399 3.07953466 -48.24479232 3.07106971 -49.625 3.0625 C-51.01301926 3.05748501 -52.40104022 3.0529221 -53.7890625 3.04882812 C-57.19275132 3.03700976 -60.59635439 3.02053434 -64 3 C-61.10998212 1.36946106 -58.93236162 0.72350907 -55.625 0.5859375 C-54.73876953 0.54718506 -53.85253906 0.50843262 -52.93945312 0.46850586 C-51.48442383 0.42222046 -51.48442383 0.42222046 -50 0.375 C-48.98357422 0.33705322 -47.96714844 0.29910645 -46.91992188 0.26000977 C-31.28873587 -0.24596154 -15.63703536 -0.08487035 0 0 Z " transform="translate(1375,1067)" style="fill: #5C95B6;"/><path d="M0 0 C0.33 0 0.66 0 1 0 C1.04938149 4.37823917 1.0857104 8.75633146 1.10986328 13.13476562 C1.11993043 14.6247032 1.13358518 16.11462097 1.15087891 17.60449219 C1.17509653 19.74419028 1.18647564 21.88362753 1.1953125 24.0234375 C1.21102295 25.95582275 1.21102295 25.95582275 1.22705078 27.92724609 C1 31 1 31 -1 33 C-3.86888581 33.17532289 -6.63992645 33.23137614 -9.5078125 33.1953125 C-10.76874222 33.19106766 -10.76874222 33.19106766 -12.05514526 33.18673706 C-14.74524046 33.1755243 -17.4350051 33.15041803 -20.125 33.125 C-21.94660978 33.1149716 -23.76822477 33.10584551 -25.58984375 33.09765625 C-30.06002358 33.07558142 -34.52995571 33.04104434 -39 33 C-39 32.67 -39 32.34 -39 32 C-37.91992676 31.98541748 -36.83985352 31.97083496 -35.72705078 31.95581055 C-31.72736162 31.89792454 -27.72824124 31.82069227 -23.72900391 31.73754883 C-21.99667579 31.70425357 -20.264238 31.67623603 -18.53173828 31.65356445 C-16.04411993 31.62010193 -13.55751096 31.56779342 -11.0703125 31.51171875 C-10.29317902 31.50532883 -9.51604553 31.4989389 -8.71536255 31.49235535 C-6.30032073 31.46033102 -6.30032073 31.46033102 -3 31 C-0.64290358 27.46435537 -0.69990265 25.77974745 -0.5859375 21.58203125 C-0.54726562 20.32841797 -0.50859375 19.07480469 -0.46875 17.78320312 C-0.4378125 16.47287109 -0.406875 15.16253906 -0.375 13.8125 C-0.33680662 12.4771884 -0.29775409 11.14190108 -0.2578125 9.80664062 C-0.16340847 6.53790112 -0.07782983 3.26916936 0 0 Z " transform="translate(1122,1095)" style="fill: #659EC0;"/><path d="M0 0 C0.33 0 0.66 0 1 0 C1.07451364 4.3049777 1.12877223 8.60960734 1.16479492 12.91503906 C1.17982196 14.37767075 1.20024955 15.84025782 1.22631836 17.30273438 C1.26297267 19.4128728 1.27978676 21.52241226 1.29296875 23.6328125 C1.31653442 25.53377686 1.31653442 25.53377686 1.34057617 27.47314453 C0.97214463 31.2884578 -0.08164855 33.7120297 -2 37 C-2.66 37 -3.32 37 -4 37 C-4 36.01 -4 35.02 -4 34 C-3.34 34 -2.68 34 -2 34 C-1.97494385 33.07662842 -1.9498877 32.15325684 -1.92407227 31.2019043 C-1.82890955 27.77453584 -1.72967786 24.34733539 -1.62768555 20.92016602 C-1.5843867 19.43713985 -1.54270801 17.95406546 -1.50268555 16.47094727 C-1.44486042 14.33855661 -1.38120168 12.20640758 -1.31640625 10.07421875 C-1.27974854 8.79119873 -1.24309082 7.50817871 -1.20532227 6.1862793 C-1 3 -1 3 0 0 Z " transform="translate(1561,1024)" style="fill: #619CBB;"/><path d="M0 0 C0.7940625 0.65097656 1.588125 1.30195312 2.40625 1.97265625 C6.59259555 4.75495457 10.61174979 4.55533496 15.5 4.4375 C16.32886719 4.44458984 17.15773438 4.45167969 18.01171875 4.45898438 C23.08718256 4.40653523 26.56427952 3.71471854 31 1 C30.8125 2.875 30.8125 2.875 30 5 C23.69105108 8.27969935 15.97047538 8.31435477 9 8 C5.55994778 6.80921269 2.83304084 5.27430223 0 3 C0 2.01 0 1.02 0 0 Z " transform="translate(1464,980)" style="fill: #7FBBDC;"/><path d="M0 0 C2.31 0.33 4.62 0.66 7 1 C7.33 1.99 7.66 2.98 8 4 C8.66 4 9.32 4 10 4 C13.05866442 7.93256854 13.33585796 10.91668732 13.1875 15.8125 C13.16042969 16.97394531 13.13335938 18.13539063 13.10546875 19.33203125 C13.07066406 20.21246094 13.03585937 21.09289062 13 22 C11.02 22.99 11.02 22.99 9 24 C9.15726563 23.45085938 9.31453125 22.90171875 9.4765625 22.3359375 C10.57315486 17.44218951 11.26172273 11.65432957 9.05859375 7.01953125 C6.54840151 3.83261007 3.86649722 2.10471349 0 1 C0 0.67 0 0.34 0 0 Z " transform="translate(1422,956)" style="fill: #82BBDA;"/><path d="M0 0 C0.66 0.33 1.32 0.66 2 1 C1.525625 1.61875 1.05125 2.2375 0.5625 2.875 C-1.27668058 6.55336116 -1.52639888 9.53887796 -1.7890625 13.59765625 C-1.9855391 15.83530644 -2.39207225 17.8423548 -3 20 C-5.43136744 15.67431416 -5.8433122 11.87974829 -5 7 C-3.5848982 4.29799377 -1.99635921 2.34572207 0 0 Z " transform="translate(1302,959)" style="fill: #D7F3FB;"/><path d="M0 0 C0.33 0 0.66 0 1 0 C1.62334158 9.73105464 1.62334158 9.73105464 -0.75 14.5625 C-2.80174762 16.78522658 -4.17919248 17.99256874 -7 19 C-5.77752628 16.45317975 -4.4575529 14.14523488 -2.9375 11.75 C-0.67352131 7.870096 -0.3121645 4.44834412 0 0 Z " transform="translate(1497,965)" style="fill: #E3FBFE;"/><path d="M0 0 C0.99 0.33 1.98 0.66 3 1 C2.21625 1.763125 1.4325 2.52625 0.625 3.3125 C-2.75872394 6.77678879 -4.21133101 8.93030658 -4.625 13.6875 C-4.69976563 14.49574219 -4.77453125 15.30398438 -4.8515625 16.13671875 C-4.90054687 16.75160156 -4.94953125 17.36648438 -5 18 C-5.33 18 -5.66 18 -6 18 C-6.92017937 8.57668161 -6.92017937 8.57668161 -4.6640625 4.7109375 C-3.18463384 3.02313861 -1.69077361 1.47439485 0 0 Z " transform="translate(1302,957)" style="fill: #84BCDC;"/><path d="M0 0 C2.97 0.495 2.97 0.495 6 1 C6 1.66 6 2.32 6 3 C11.61 3 17.22 3 23 3 C23 3.33 23 3.66 23 4 C19.91698584 4.11644156 16.83453877 4.18732432 13.75 4.25 C12.44095703 4.30027344 12.44095703 4.30027344 11.10546875 4.3515625 C4.58401668 4.45112665 4.58401668 4.45112665 1.390625 1.984375 C0.93171875 1.32953125 0.4728125 0.6746875 0 0 Z " transform="translate(1466,981)" style="fill: #DDF9FE;"/><path d="M0 0 C0.33 0.99 0.66 1.98 1 3 C-2.10085571 5.06723714 -2.72931681 5.24497423 -6.23046875 5.1953125 C-7.03291016 5.18886719 -7.83535156 5.18242188 -8.66210938 5.17578125 C-9.49548828 5.15902344 -10.32886719 5.14226563 -11.1875 5.125 C-12.03248047 5.11597656 -12.87746094 5.10695313 -13.74804688 5.09765625 C-15.83215243 5.07410703 -17.91611217 5.03823647 -20 5 C-20 4.67 -20 4.34 -20 4 C-18.97519531 3.96261719 -17.95039062 3.92523437 -16.89453125 3.88671875 C-15.53381938 3.82102921 -14.17314389 3.75458291 -12.8125 3.6875 C-12.13896484 3.66494141 -11.46542969 3.64238281 -10.77148438 3.61914062 C-6.39014677 3.38404446 -3.55608624 2.57557314 0 0 Z " transform="translate(1494,981)" style="fill: #92C6E0;"/><path d="M0 0 C0.33 0 0.66 0 1 0 C1.33 3.63 1.66 7.26 2 11 C0.02 11.99 0.02 11.99 -2 13 C-1.34 8.71 -0.68 4.42 0 0 Z " transform="translate(1433,967)" style="fill: #92C7E1;"/><path d="M0 0 C2.12038635 2.61514317 4.13091744 5.19637616 6 8 C4.68 7.67 3.36 7.34 2 7 C2 6.34 2 5.68 2 5 C1.34 5 0.68 5 0 5 C0 3.35 0 1.7 0 0 Z " transform="translate(1297,975)" style="fill: #86BFDE;"/></svg>