<?xml version="1.0" encoding="UTF-8"?>
<!-- Generator: visioncortex VTracer -->
<svg id="svg" version="1.1" xmlns="http://www.w3.org/2000/svg" style="display: block;" viewBox="0 0 2048 2048"><path d="M0 0 C675.84 0 1351.68 0 2048 0 C2048 675.84 2048 1351.68 2048 2048 C1372.16 2048 696.32 2048 0 2048 C0 1372.16 0 696.32 0 0 Z " transform="translate(0,0)" style="fill: #FEFEFE;"/><path d="M0 0 C543.84 0 1087.68 0 1648 0 C1648 823 1648 823 1647 824 C1645.51678033 824.09653162 1644.02895482 824.12305583 1642.54259756 824.12204048 C1641.57083411 824.12380479 1640.59907066 824.12556909 1639.59785984 824.12738686 C1638.51457856 824.12421873 1637.43129728 824.1210506 1636.3151893 824.11778647 C1634.59768947 824.11866196 1634.59768947 824.11866196 1632.84549268 824.11955513 C1629.63340014 824.12016221 1626.42134829 824.11622474 1623.20926197 824.11046836 C1619.71455113 824.10529992 1616.21984071 824.10591392 1612.72512671 824.10581067 C1606.56525263 824.10481777 1600.40539007 824.10006292 1594.24552017 824.09292836 C1585.02396285 824.08226746 1575.80240869 824.07735096 1566.58084629 824.07359639 C1550.86839069 824.06703069 1535.15594169 824.05570211 1519.44349098 824.04183006 C1503.51023328 824.02778237 1487.57697617 824.01590444 1471.6437149 824.00670624 C1470.63911365 824.00612499 1469.63451239 824.00554374 1468.59946868 824.00494488 C1463.47742846 824.00199142 1458.35538822 823.99907356 1453.23334798 823.99616829 C1416.11442377 823.9750411 1378.9955042 823.94906305 1341.87658501 823.92053413 C1305.10484382 823.89228621 1268.3331021 823.86610104 1231.5613575 823.84269524 C1229.84982969 823.84160441 1229.84982969 823.84160441 1228.10372557 823.84049154 C1217.68263118 823.83385084 1207.26153678 823.82723566 1196.84044235 823.82065109 C1170.9321034 823.80428059 1145.02376467 823.78759001 1119.11542606 823.77068233 C1117.34550422 823.76952768 1117.34550422 823.76952768 1115.53982639 823.76834969 C1058.10996381 823.73085575 1000.68010395 823.68967439 943.25024414 823.64819336 C923.3150635 823.63379642 903.37988285 823.61941576 883.44470215 823.60510254 C882.20835899 823.60421484 880.97201582 823.60332715 879.69820771 823.60241255 C822.2547323 823.56119037 764.81125521 823.52259336 707.36777755 823.48465384 C703.61038982 823.48217179 699.85300209 823.47968802 696.09561437 823.47720367 C656.93930641 823.45131473 617.78299836 823.4255521 578.62669028 823.39984427 C577.50802864 823.39910981 576.38936699 823.39837536 575.23680651 823.39761864 C573.20136233 823.39628234 571.16591815 823.39494619 569.13047397 823.39361025 C379.42031103 823.26906969 189.71015712 823.13371025 0 823 C0 551.41 0 279.82 0 0 Z " transform="translate(200,628)" style="fill: #B9E2F5;"/><path d="M0 0 C251.13 0 502.26 0 761 0 C761 222.75 761 445.5 761 675 C510.2 675 259.4 675 1 675 C1 670.38 1 665.76 1 661 C2.50344562 660.99503478 2.50344562 660.99503478 4.03726387 660.98996925 C28.80538388 660.90776139 53.57344969 660.8151199 78.34149361 660.71247292 C90.32074944 660.66305131 102.30000073 660.616673 114.27929688 660.578125 C167.73317919 660.40428935 221.14107552 660.06687177 274.56334686 658.12411499 C278.87549742 657.96838134 283.18790452 657.82078272 287.50035095 657.67351341 C297.11878874 657.34441389 306.73617518 656.99156299 316.35321045 656.6239624 C325.02416406 656.29269787 333.69564872 655.97567843 342.3671875 655.66015625 C343.2029343 655.62972229 344.03868111 655.59928833 344.89975357 655.56793213 C360.1589436 655.01416279 375.41790987 654.54987642 390.6843729 654.25061512 C398.12185374 654.10463585 405.55840816 653.94005435 412.99487305 653.74902344 C439.44755546 653.07991678 465.88304071 652.83668593 492.34367371 652.87142944 C495.5088612 652.87508236 498.67404404 652.87663657 501.8392334 652.87768555 C526.81458978 652.88794129 551.77911664 653.01055567 576.75 653.5 C599.88757989 653.94664132 623.0214907 654.17155141 646.16320801 654.23217773 C649.91514919 654.24234716 653.66694506 654.25953234 657.41882324 654.28344727 C681.66406905 654.53192634 681.66406905 654.53192634 705.8203125 652.734375 C706.71934296 652.62603333 707.61837341 652.51769165 708.54464722 652.40606689 C715.03190736 651.46688666 720.92123331 649.41571226 727 647 C716.73973177 645.21665541 706.52474301 644.33292646 696.14974976 643.54251099 C647.92337986 639.79785884 600.10299774 632.54768826 552.26831055 625.53149414 C548.53310759 624.98407781 544.79783892 624.43711285 541.0625 623.890625 C539.71486824 623.69340505 539.71486824 623.69340505 538.3400116 623.49220085 C526.15738079 621.7125534 513.97228903 620.03348339 501.74536133 618.58300781 C496.71197955 617.98097777 491.7019165 617.241372 486.6875 616.5 C462.93091637 613.04416509 439.06022164 611.10200291 415.125 609.4375 C413.56842784 609.32844894 412.01185846 609.21935829 410.45529175 609.11022949 C323.31586608 603.01900102 236.25158931 603.0763749 149 607 C148.14480774 607.03760437 147.28961548 607.07520874 146.4085083 607.11395264 C107.72264322 608.81657244 69.26918943 612.57380527 30.87109375 617.53515625 C30.06729782 617.63822586 29.26350189 617.74129547 28.43534851 617.8474884 C18.93428163 619.09484385 9.48110363 620.57783446 0 622 C0 454.03 0 286.06 0 113 C-2.97 113 -5.94 113 -9 113 C-10.57191787 112.8515581 -12.14174195 112.6643106 -13.69921875 112.4050293 C-14.50456055 112.27456711 -15.30990234 112.14410492 -16.13964844 112.00968933 C-16.98043945 111.86598404 -17.82123047 111.72227875 -18.6875 111.57421875 C-19.58887695 111.42596146 -20.49025391 111.27770416 -21.41894531 111.12495422 C-24.28046072 110.65252927 -27.14018657 110.17010865 -30 109.6875 C-31.88661277 109.3750105 -33.77333095 109.06315678 -35.66015625 108.75195312 C-50.04448805 106.37092331 -64.42183459 103.9583691 -78.71240234 101.0612793 C-118.25959609 93.10827017 -158.218312 87.37526455 -198.18505859 82.0065918 C-220.45709542 79.00901369 -220.45709542 79.00901369 -229.13671875 77.40234375 C-235.04323638 76.30925927 -240.94265643 75.43383984 -246.90234375 74.68359375 C-247.7287738 74.57954224 -248.55520386 74.47549072 -249.40667725 74.36828613 C-252.7862288 73.9465958 -256.16641111 73.53061344 -259.54760742 73.12231445 C-262.06266978 72.8168212 -264.57625192 72.50092612 -267.08984375 72.18359375 C-268.24117043 72.04914101 -268.24117043 72.04914101 -269.41575623 71.91197205 C-274.7732695 71.2267305 -274.7732695 71.2267305 -277 69 C-253.56433681 66.85101436 -230.22601491 66.67681485 -206.70949173 66.74205017 C-203.64575452 66.75010982 -200.58202461 66.75506878 -197.51828003 66.75939941 C-131.45585304 66.8667334 -65.83920455 70.75384824 0 76 C0 50.92 0 25.84 0 0 Z " transform="translate(1008,706)" style="fill: #F3F6FA;"/><path d="M0 0 C543.84 0 1087.68 0 1648 0 C1648 823 1648 823 1647 824 C1645.20728644 824.09474632 1643.41079326 824.11839598 1641.61558098 824.11498213 C1640.44445913 824.11519855 1639.27333728 824.11541498 1638.06672689 824.11563796 C1636.76859021 824.11076898 1635.47045354 824.10590001 1634.13297939 824.10088348 C1632.76070406 824.09927829 1631.38842813 824.09811918 1630.01615206 824.09737378 C1626.25401664 824.0940872 1622.49191799 824.08461835 1618.72979652 824.0741894 C1614.70569359 824.06413522 1610.68158453 824.05984527 1606.65747255 824.05500364 C1599.85481005 824.04615962 1593.05216005 824.0340934 1586.24950671 824.01990318 C1576.56142259 823.99989958 1566.8733438 823.98862775 1557.18524361 823.9801178 C1554.0607961 823.97727031 1550.93634864 823.97436446 1547.81190121 823.97142792 C1547.03377343 823.97069887 1546.25564565 823.96996982 1545.45393824 823.96921868 C1536.4452516 823.96057143 1527.43656948 823.94867593 1518.42788696 823.9365387 C1517.58568686 823.93540583 1516.74348675 823.93427297 1515.87576543 823.93310578 C1512.4116453 823.92843917 1508.94752518 823.92375895 1505.4834051 823.91905532 C1496.19664461 823.90645991 1486.90988339 823.89444002 1477.62312213 823.88242082 C1460.50298 823.86024869 1443.38283845 823.83765647 1426.26269722 823.81480408 C1409.37110993 823.79225821 1392.47952239 823.76991181 1375.58793449 823.74781799 C1373.99818378 823.74573847 1373.99818378 823.74573847 1372.37631688 823.74361694 C1366.99149845 823.73657417 1361.60668003 823.72953483 1356.22186159 823.72249681 C1318.32084018 823.67295359 1280.41981934 823.62298398 1242.51879883 823.57275391 C1205.75415068 823.52403086 1168.98950227 823.475507 1132.22485352 823.42724609 C1131.08675693 823.42575204 1129.94866035 823.42425798 1128.77607599 823.42271865 C1117.34431786 823.40771163 1105.91255972 823.39270859 1094.48080158 823.37770845 C1071.20383005 823.34716558 1047.92685856 823.3165962 1024.64988708 823.28601074 C1023.04538523 823.28390251 1023.04538523 823.28390251 1021.40846919 823.28175168 C966.25550739 823.20928116 911.10254612 823.13641743 855.94958496 823.0634613 C855.17549992 823.06243735 854.40141488 823.0614134 853.60387272 823.06035841 C838.4025818 823.04024954 823.2012909 823.02012309 808 823 C808 800.23 808 777.46 808 754 C1059.46 754 1310.92 754 1570 754 C1570 530.59 1570 307.18 1570 77 C1452.28048798 76.97130061 1452.28048798 76.97130061 1334.56097531 76.95183504 C1317.52000442 76.94979379 1300.47903353 76.94770584 1283.43806265 76.94547401 C1281.37677415 76.94520417 1279.31548564 76.94493579 1277.25419714 76.94466891 C1244.3815779 76.94040057 1211.50896039 76.93289566 1178.6363422 76.92370278 C1144.85673083 76.91427339 1111.07712042 76.9081153 1077.29750776 76.90608501 C1072.5285387 76.90579685 1067.75956964 76.90547121 1062.99060059 76.90512276 C1062.05198079 76.90505533 1061.113361 76.90498791 1060.14629818 76.90491844 C1045.02507071 76.90373582 1029.90384618 76.89909531 1014.7826199 76.89316797 C999.58798692 76.88728542 984.39335686 76.88503085 969.19872278 76.88649862 C960.16662307 76.88726033 951.13453401 76.88522131 942.10243622 76.87920246 C936.0716819 76.87545752 930.04093458 76.87533286 924.01017978 76.87816819 C920.57224294 76.87968039 917.13432627 76.87960309 913.69639158 76.87511682 C909.99376895 76.87112317 906.29119904 76.87325529 902.58857727 76.87695217 C901.52024283 76.87432516 900.45190838 76.87169814 899.35120016 76.86899152 C893.79791798 76.8815813 888.49659283 77.21812872 883 78 C880.40336167 78.08197184 877.80495941 78.11791378 875.20703125 78.11352539 C874.10800224 78.11374443 874.10800224 78.11374443 872.98677063 78.1139679 C870.59531563 78.11327823 868.20394118 78.10553076 865.8125 78.09765625 C864.1424158 78.0957887 862.47233104 78.09436639 860.80224609 78.09336853 C856.42932596 78.08956988 852.0564396 78.07976254 847.68353271 78.06866455 C843.21220354 78.05839311 838.74086885 78.05385868 834.26953125 78.04882812 C825.51300542 78.03813764 816.75650692 78.02109345 808 78 C808 76.02 808 74.04 808 72 C446.65 72.495 446.65 72.495 78 73 C78 50.89 78 28.78 78 6 C318.9 6 559.8 6 808 6 C808 4.35 808 2.7 808 1 C541.36 1 274.72 1 0 1 C0 0.67 0 0.34 0 0 Z " transform="translate(200,628)" style="fill: #99BCD2;"/><path d="M0 0 C266.64 0 533.28 0 808 0 C808 1.65 808 3.3 808 5 C567.1 5 326.2 5 78 5 C78 27.11 78 49.22 78 72 C85.26 71.67 92.52 71.34 100 71 C104.59406588 70.92153885 109.17155127 70.86576117 113.76415062 70.87695217 C114.98490376 70.87579833 116.20565691 70.87464448 117.46340257 70.87345567 C120.78456205 70.87129908 124.10566137 70.87350516 127.4268149 70.87773381 C131.06522891 70.88122384 134.7036403 70.87878679 138.34205496 70.87715632 C144.6961442 70.87509901 151.050224 70.87669794 157.40431213 70.88079453 C166.85237669 70.88686877 176.30043538 70.88712672 185.74850153 70.88625254 C201.64726103 70.8849433 217.54601635 70.88826224 233.44477463 70.89426994 C249.17390336 70.90019824 264.90303035 70.90403816 280.63216019 70.90512276 C281.61218143 70.9051915 282.59220268 70.90526024 283.60192154 70.90533106 C288.57947625 70.90566942 293.55703096 70.90597079 298.53458567 70.90625793 C333.73969241 70.90835525 368.94479688 70.91508393 404.14990234 70.92456055 C438.33935535 70.93375311 472.52880773 70.94083274 506.71826172 70.94506836 C507.77315973 70.94519989 508.82805774 70.94533141 509.91492235 70.94546692 C520.50917786 70.94678551 531.10343337 70.94806131 541.69768889 70.94930578 C563.27710716 70.95184162 584.85652539 70.95466287 606.4359436 70.95765686 C607.42800938 70.95779415 608.42007516 70.95793144 609.44220354 70.95807289 C675.62813664 70.96726493 741.81406847 70.98310911 808 71 C808 72.98 808 74.96 808 77 C566.77 77 325.54 77 77 77 C77.33 85.25 77.66 93.5 78 102 C78.07542805 106.42078911 78.13490787 110.8241938 78.12304783 115.24310398 C78.12420157 116.37148222 78.12535532 117.49986046 78.12654402 118.66243198 C78.12913755 122.34858427 78.12475133 126.03469059 78.12025452 129.72084045 C78.12069312 132.42118436 78.12153051 135.12152554 78.12284851 137.8218689 C78.12490553 143.65213592 78.12331497 149.48239262 78.11921513 155.31265843 C78.11306039 164.09430322 78.11284976 172.8759419 78.11368043 181.65758846 C78.11491676 196.38097542 78.11165311 211.1043579 78.10557556 225.82774353 C78.09737252 245.73570923 78.09547063 265.64366727 78.09460449 285.55163574 C78.08936162 333.3885914 78.07540043 381.22554579 78.0625 429.0625 C78.041875 535.961875 78.02125 642.86125 78 753 C318.9 753 559.8 753 808 753 C808 775.77 808 798.54 808 822 C541.36 822 274.72 822 0 822 C0 550.74 0 279.48 0 0 Z " transform="translate(200,629)" style="fill: #68AFCE;"/><path d="M0 0 C543.84 0 1087.68 0 1648 0 C1648 271.59 1648 543.18 1648 823 C1647.67 823 1647.34 823 1647 823 C1647 551.74 1647 280.48 1647 1 C1621.59 1 1596.18 1 1570 1 C1570 24.76 1570 48.52 1570 73 C1077.64 73 585.28 73 78 73 C78 50.89 78 28.78 78 6 C318.9 6 559.8 6 808 6 C808 4.35 808 2.7 808 1 C541.36 1 274.72 1 0 1 C0 0.67 0 0.34 0 0 Z " transform="translate(200,628)" style="fill: #B9E1F3;"/><path d="M0 0 C251.13 0 502.26 0 761 0 C761 21.45 761 42.9 761 65 C509.87 65 258.74 65 0 65 C0 43.55 0 22.1 0 0 Z " transform="translate(1008,635)" style="fill: #F4F8FB;"/><path d="M0 0 C251.46 0 502.92 0 762 0 C762 19.14 762 38.28 762 58 C510.54 58 259.08 58 0 58 C0 38.86 0 19.72 0 0 Z " transform="translate(1008,1387)" style="fill: #E8EDF2;"/><path d="M0 0 C240.9 0 481.8 0 730 0 C730 19.14 730 38.28 730 58 C489.1 58 248.2 58 0 58 C0 38.86 0 19.72 0 0 Z " transform="translate(278,1387)" style="fill: #A8D8EF;"/><path d="M0 0 C1.90187775 0.00120614 1.90187775 0.00120614 3.84217727 0.00243664 C6.68482134 0.00437127 9.52743463 0.00964658 12.37006891 0.01733303 C17.1944189 0.03037506 22.01876556 0.03626215 26.84312916 0.04175568 C34.4331737 0.05123942 42.0232046 0.06470839 49.61323929 0.08010864 C62.68935024 0.10646009 75.76546827 0.12480411 88.84159325 0.14260709 C121.86092754 0.18779892 154.88024282 0.24324459 187.89955933 0.29976588 C204.57164439 0.32829282 221.24373079 0.35596689 237.91581726 0.38366699 C281.74471652 0.45687824 325.57361395 0.53117623 369.4025116 0.60534668 C467.5156366 0.77034668 565.6287616 0.93534668 666.7150116 1.10534668 C666.7150116 224.51534668 666.7150116 447.92534668 666.7150116 678.10534668 C415.2550116 678.10534668 163.7950116 678.10534668 -95.2849884 678.10534668 C-95.2849884 660.28534668 -95.2849884 642.46534668 -95.2849884 624.10534668 C-87.4055162 621.85406891 -87.4055162 621.85406891 -83.50691223 621.29919434 C-82.62673935 621.17197495 -81.74656647 621.04475555 -80.83972168 620.91368103 C-79.89998001 620.78357132 -78.96023834 620.65346161 -77.99201965 620.51940918 C-76.48784233 620.306661 -76.48784233 620.306661 -74.95327759 620.08961487 C-71.66900233 619.62904591 -68.38349189 619.17841107 -65.0974884 618.73034668 C-63.96873291 618.57538727 -62.83997742 618.42042786 -61.67701721 618.26077271 C-39.68443871 615.25949415 -17.67206097 613.01377609 4.4540863 611.28314209 C6.5242942 611.12034438 8.59404507 610.95176177 10.66374207 610.78259277 C31.7468352 609.07097585 52.88418297 608.28821539 74.01667786 607.45565796 C78.77835105 607.26773722 83.53909988 607.07018662 88.29924011 606.84655762 C105.86975858 606.03451382 123.44176414 605.72138281 141.0275116 605.48034668 C142.21266483 605.46377329 142.21266483 605.46377329 143.42176056 605.44686508 C175.20322831 605.00621396 206.9407549 605.17168538 238.7150116 606.10534668 C240.269198 606.15078613 240.269198 606.15078613 241.8547821 606.19714355 C285.2052472 607.49743272 328.59699199 610.40957776 371.7150116 615.10534668 C372.85019226 615.22764648 373.98537292 615.34994629 375.154953 615.47595215 C378.55084005 615.84505987 381.94564857 616.22248972 385.3400116 616.60534668 C386.2865863 616.7117749 387.23316101 616.81820312 388.2084198 616.92785645 C405.38400611 618.93341094 422.47948979 621.65281897 439.58957291 624.14599609 C498.43296263 632.718805 557.18298336 641.01736562 616.44255066 646.15515137 C617.70937683 646.26633301 618.976203 646.37751465 620.28141785 646.49206543 C621.38429138 646.58705322 622.48716492 646.68204102 623.62345886 646.77990723 C626.68256134 647.10193073 629.68710839 647.56726145 632.7150116 648.10534668 C625.36547898 656.37709551 609.07497189 656.27871306 598.866539 656.98605347 C583.90484629 657.81561687 568.85008333 657.453784 553.87299728 657.37124634 C549.512844 657.3497201 545.15269307 657.33994008 540.7925005 657.32995605 C515.11347381 657.26935834 489.44232524 657.02764474 463.76792908 656.53570557 C381.31324661 654.96654409 298.9274419 656.75279265 216.52716064 659.76744843 C213.78522358 659.86764005 211.04327192 659.96742244 208.30131531 660.06707764 C206.46037264 660.13402545 204.61943026 660.20098102 202.77848816 660.26794434 C201.86528305 660.30114777 200.95207794 660.3343512 200.01119995 660.36856079 C194.83315846 660.55727467 189.65525366 660.74914091 184.47751617 660.94602585 C142.34466141 662.52785488 100.23028184 663.26593833 58.06807137 663.20674062 C52.67511769 663.20030948 47.28216285 663.19988822 41.88920593 663.19871521 C31.76537401 663.19565818 21.64155344 663.1875243 11.51772642 663.17736572 C-0.04543841 663.16602514 -11.60860391 663.16064986 -23.17177296 663.15567029 C-46.87618429 663.14533402 -70.5805857 663.12784891 -94.2849884 663.10534668 C-94.0993634 663.93034668 -93.9137384 664.75534668 -93.7224884 665.60534668 C-93.2849884 669.10534668 -93.2849884 669.10534668 -94.2849884 677.10534668 C156.5150116 677.10534668 407.3150116 677.10534668 665.7150116 677.10534668 C665.7150116 454.35534668 665.7150116 231.60534668 665.7150116 2.10534668 C439.3350116 2.10534668 212.9550116 2.10534668 -20.2849884 2.10534668 C-20.2849884 1.77534668 -20.2849884 1.44534668 -20.2849884 1.10534668 C-13.49375851 0.06861858 -6.86240687 -0.02651157 0 0 Z " transform="translate(1103.2849884033203,703.8946533203125)" style="fill: #D8E1E9;"/><path d="M0 0 C22.11 0 44.22 0 67 0 C67 267.63 67 535.26 67 811 C45.22 811 23.44 811 1 811 C1 791.86 1 772.72 1 753 C10.57 753 20.14 753 30 753 C30.33 765.87 30.66 778.74 31 792 C32.32 792 33.64 792 35 792 C35.33 779.13 35.66 766.26 36 753 C42.6 752.67 49.2 752.34 56 752 C56 751.01 56 750.02 56 749 C49.4 748.67 42.8 748.34 36 748 C36 524.92 36 301.84 36 72 C45.9 71.505 45.9 71.505 56 71 C56.495 69.02 56.495 69.02 57 67 C50.07 67 43.14 67 36 67 C36 49.84 36 32.68 36 15 C34.35 15 32.7 15 31 15 C31 32.16 31 49.32 31 67 C20.77 67 10.54 67 0 67 C0 44.89 0 22.78 0 0 Z " transform="translate(1775,634)" style="fill: #BFE4F5;"/><path d="M0 0 C21.78 0 43.56 0 66 0 C66 22.11 66 44.22 66 67 C55.77 67 45.54 67 35 67 C34.67 50.17 34.34 33.34 34 16 C33.01 16 32.02 16 31 16 C30.67 32.83 30.34 49.66 30 67 C23.4 67 16.8 67 10 67 C10 68.65 10 70.3 10 72 C16.6 72 23.2 72 30 72 C30 295.08 30 518.16 30 748 C23.73 748.33 17.46 748.66 11 749 C10.67 750.32 10.34 751.64 10 753 C16.6 753 23.2 753 30 753 C30.495 772.8 30.495 772.8 31 793 C31.99 793 32.98 793 34 793 C34.33 779.8 34.66 766.6 35 753 C45.23 753 55.46 753 66 753 C66 772.47 66 791.94 66 812 C44.22 812 22.44 812 0 812 C0 544.04 0 276.08 0 0 Z " transform="translate(206,634)" style="fill: #BBE2F4;"/><path d="M0 0 C3.76340102 5.64510153 4.41808935 11.9939677 5.0625 18.59765625 C5.14556396 19.42322525 5.22862793 20.24879425 5.31420898 21.09938049 C6.24637982 30.86191076 6.64002335 40.64014726 7 50.4375 C7.08120311 52.54036828 7.16250534 54.64323274 7.24389648 56.74609375 C8.77465072 97.067286 9.92451671 137.40590355 10.625 177.75 C10.6455545 178.92892822 10.66610901 180.10785645 10.68728638 181.32250977 C10.74437381 184.66809863 10.79875761 188.013716 10.8515625 191.359375 C10.8748336 192.78168427 10.8748336 192.78168427 10.89857483 194.23272705 C10.97916602 199.68296269 10.99717925 205.12972591 10.97973633 210.58056641 C10.96366837 218.6536219 11.1696474 226.7143923 11.40075111 234.7835865 C13.0688003 294.3552736 13.11091853 353.89753721 12.78275681 413.48619843 C12.7552238 418.5159282 12.73052783 423.54566707 12.70677912 428.57541597 C11.86703055 605.7423893 11.86703055 605.7423893 0 621 C-2.6328125 621.7421875 -2.6328125 621.7421875 -5 622 C-11.5946179 612.56753424 -14.46617459 602.14134632 -16.875 591 C-17.25289673 589.26943359 -17.25289673 589.26943359 -17.63842773 587.50390625 C-20.92561132 572.09236647 -23.533893 556.56114774 -26 541 C-26.11857361 540.25308899 -26.23714722 539.50617798 -26.35931396 538.7366333 C-34.65687384 486.21757634 -34.20125943 434.14215895 -32.5625 381.125 C-32.26094352 371.29458302 -31.96810524 361.46396252 -31.69140625 351.6328125 C-31.63992904 349.81089795 -31.63992904 349.81089795 -31.58741188 347.95217705 C-30.90178466 323.11224661 -30.88616773 298.28629036 -30.97542953 273.4388895 C-31.02250553 259.51975673 -30.91062086 245.60500424 -30.6875 231.6875 C-30.66732819 230.40062286 -30.64715637 229.11374573 -30.62637329 227.78787231 C-30.24901434 204.61165374 -29.21094232 181.54414939 -27.21099854 158.45123291 C-27.00591511 156.06871759 -26.80942438 153.68563144 -26.61474609 151.30224609 C-23.5048278 113.83299978 -16.71067172 76.72888906 -9.75 39.8125 C-9.59559448 38.98737915 -9.44118896 38.1622583 -9.28210449 37.31213379 C-7.54877916 28.10509285 -5.58118417 18.98144998 -3.328125 9.88671875 C-3.11258972 9.01368607 -2.89705444 8.14065338 -2.67498779 7.24116516 C-1.12626675 1.12626675 -1.12626675 1.12626675 0 0 Z " transform="translate(1751,728)" style="fill: #DAE3EB;"/><path d="M0 0 C10.23 0 20.46 0 31 0 C31 223.08 31 446.16 31 676 C20.77 676 10.54 676 0 676 C0 452.92 0 229.84 0 0 Z " transform="translate(241,706)" style="fill: #BEE3F5;"/><path d="M0 0 C10.23 0 20.46 0 31 0 C31 223.08 31 446.16 31 676 C21.1 676 11.2 676 1 676 C0.4207882 608.65663147 -0.09688048 541.31470269 -0.11352539 473.96850586 C-0.11377458 472.97326832 -0.11377458 472.97326832 -0.1140288 471.95792497 C-0.11791524 455.50459636 -0.11322591 439.05127411 -0.10463549 422.59794773 C-0.09897547 411.75720361 -0.09586996 400.91646157 -0.09487724 390.07571602 C-0.0948085 389.33789243 -0.09473976 388.60006885 -0.09466894 387.83988698 C-0.09433026 384.08763011 -0.09402901 380.33537323 -0.09374207 376.58311636 C-0.09168279 350.51512605 -0.08506598 324.44713892 -0.07543945 298.37915039 C-0.06614236 273.17277035 -0.05911536 247.9663912 -0.05493164 222.76000977 C-0.05480011 221.97273271 -0.05466859 221.18545566 -0.05453308 220.37432173 C-0.05321371 212.46279709 -0.05193802 204.55127243 -0.05069422 196.63974777 C-0.04816307 180.54609177 -0.04534184 164.45243583 -0.04234314 148.35877991 C-0.04220585 147.6200301 -0.04206856 146.8812803 -0.04192711 146.12014413 C-0.03284237 97.41342806 -0.01693239 48.70671392 0 0 Z " transform="translate(1775,706)" style="fill: #C0E4F5;"/><path d="M0 0 C2.45185347 0.03382296 4.90373513 0.06295998 7.35565186 0.09179688 C57.8643392 0.72753498 108.13094529 5.8788548 158.33270264 11.16992188 C210.57914409 16.66633626 262.95216031 20.91086632 315.40692139 16.03320312 C316.09493835 15.97003906 316.78295532 15.906875 317.49182129 15.84179688 C338.04742344 13.9448395 358.43273416 11.29732415 378.80511475 7.96386719 C379.59708755 7.83588745 380.38906036 7.70790771 381.20503235 7.5760498 C382.67496745 7.33769944 384.14415777 7.09468324 385.61235046 6.8458252 C390.02928929 6.12986799 393.84073955 6.03320312 398.40692139 6.03320312 C398.40692139 23.85320312 398.40692139 41.67320313 398.40692139 60.03320312 C157.50692139 60.03320312 -83.39307861 60.03320312 -331.59307861 60.03320312 C-331.26307861 59.37320312 -330.93307861 58.71320313 -330.59307861 58.03320312 C-265.34695499 58.01604329 -200.10083109 58.00014665 -134.85470581 57.99085999 C-133.88723308 57.99072193 -132.91976034 57.99058387 -131.92297025 57.99044163 C-110.89124507 57.9874479 -89.85951987 57.98467784 -68.82779463 57.9821378 C-58.51208851 57.98089059 -48.19638239 57.97959402 -37.88067627 57.97827148 C-36.34096735 57.97807535 -36.34096735 57.97807535 -34.7701532 57.97787524 C-1.56951541 57.97362283 31.63112065 57.96611823 64.8317574 57.9569059 C98.98319183 57.94744709 133.13462531 57.94131162 167.28606103 57.93928813 C172.12270784 57.93900003 176.95935464 57.93867439 181.79600143 57.93832588 C183.22371907 57.93822475 183.22371907 57.93822475 184.68027949 57.93812157 C199.92947812 57.93694524 215.17867381 57.93232187 230.42787125 57.92637109 C245.80225643 57.92044642 261.17663871 57.91824442 276.55102499 57.91970175 C284.86337951 57.92038988 293.17572615 57.91951518 301.48807907 57.91399765 C333.47214004 57.89353171 365.43866682 57.87624098 397.40692139 59.03320312 C397.40692139 54.41320313 397.40692139 49.79320312 397.40692139 45.03320312 C395.76759644 45.04081665 395.76759644 45.04081665 394.09515381 45.04858398 C374.63933168 45.10670814 355.18543938 44.84849435 335.7312355 44.62954712 C332.69087249 44.59538232 329.65050578 44.56156419 326.61013794 44.52783203 C312.20900871 44.36781321 297.80794411 44.20252858 283.40692139 44.03320312 C282.4733783 44.02223351 281.53983521 44.01126389 280.57800293 43.99996185 C211.01474458 43.18083068 211.01474458 43.18083068 185.26568604 42.47070312 C165.9399077 41.93949582 146.60882239 41.7035086 127.27775764 41.45228481 C123.8325171 41.40735834 120.38729344 41.36123657 116.94207764 41.31445312 C116.23850002 41.30492552 115.53492241 41.29539791 114.81002426 41.28558159 C102.3157824 41.11357978 89.82361159 40.86441437 77.33094215 40.6037426 C52.14889545 40.0796033 26.96817589 39.71434682 1.78192139 39.47070312 C0.73455181 39.46036293 -0.31281776 39.45002274 -1.39192581 39.4393692 C-38.48945775 39.07431239 -75.58621564 38.92575952 -112.68547821 38.91026688 C-116.45108775 38.90824579 -120.21669207 38.90450598 -123.9822998 38.90036011 C-150.3580811 38.87501878 -176.72502985 39.00610647 -203.09698486 39.47851562 C-204.21029615 39.49793087 -205.32360744 39.51734612 -206.47065544 39.5373497 C-219.3844813 39.7683577 -232.28345191 40.1190309 -245.18473148 40.74868202 C-253.86603744 41.14293065 -262.27851835 40.66689683 -270.90557861 39.72070312 C-272.29932913 39.58718088 -273.69321109 39.4550238 -275.08721924 39.32421875 C-285.86001996 38.24672097 -285.86001996 38.24672097 -289.59307861 36.03320312 C-287.73122691 34.17135142 -284.62368471 34.61410217 -282.12042236 34.41992188 C-280.74497163 34.30807359 -279.36956649 34.19566349 -277.99420166 34.08276367 C-277.26695892 34.02422211 -276.53971619 33.96568054 -275.79043579 33.90536499 C-262.02635495 32.78064752 -248.52045331 31.10421595 -234.92852783 28.62646484 C-231.17743048 27.95927362 -227.41979486 27.33713068 -223.65948486 26.72460938 C-203.81044602 23.48510498 -184.01705033 19.97899434 -164.23617554 16.34695435 C-109.45801963 6.28898937 -55.81095427 -0.780633 0 0 Z " transform="translate(609.5930786132813,1321.966796875)" style="fill: #93CDE7;"/><path d="M0 0 C0.97066742 0.00015598 1.94133485 0.00031196 2.94141644 0.00047267 C4.05886231 -0.00177462 5.17630819 -0.00402192 6.32761606 -0.00633731 C7.5731698 -0.0037103 8.81872354 -0.00108328 10.10202133 0.00162334 C11.4167299 0.00046949 12.73143848 -0.00068435 14.0859867 -0.00187316 C17.76854375 -0.00496248 21.45107349 -0.00175037 25.13362852 0.00240497 C29.12731167 0.00582199 33.12099189 0.00347167 37.11467558 0.00182748 C44.12509859 -0.00025231 51.13551314 0.00140779 58.14593517 0.00546569 C68.57029355 0.01148302 78.99464656 0.01180315 89.41900636 0.0109237 C106.95161159 0.00960754 124.48421307 0.01295978 142.01681721 0.01894111 C159.38492424 0.02485118 176.75302971 0.02870565 194.12113773 0.02979392 C195.19964679 0.02986266 196.27815584 0.0299314 197.38934699 0.03000222 C202.86619297 0.03034054 208.34303896 0.03064193 213.81988494 0.0309291 C252.64711088 0.03303143 291.47433478 0.03977415 330.30155956 0.04923171 C368.02974956 0.05841099 405.75793899 0.06549713 443.48612988 0.06973952 C444.64837385 0.06987105 445.81061782 0.07000258 447.00808131 0.07013809 C458.67944683 0.07145657 470.35081235 0.07273239 482.02217787 0.07397695 C505.79966691 0.0765134 529.57715591 0.07933465 553.35464489 0.08232803 C554.44797798 0.08246532 555.54131108 0.08260261 556.66777547 0.08274406 C629.72140422 0.09195006 702.77503184 0.10779588 775.82865917 0.12467116 C775.49865917 1.44467116 775.16865917 2.76467116 774.82865917 4.12467116 C534.58865917 4.12467116 294.34865917 4.12467116 46.82865917 4.12467116 C46.82865917 26.23467116 46.82865917 48.34467116 46.82865917 71.12467116 C54.08865917 70.79467116 61.34865917 70.46467116 68.82865917 70.12467116 C73.42272505 70.04621001 78.00021044 69.99043233 82.59280979 70.00162334 C83.81356294 70.00046949 85.03431608 69.99931565 86.29206174 69.99812684 C89.61322122 69.99597024 92.93432054 69.99817633 96.25547407 70.00240497 C99.89388808 70.00589501 103.53229947 70.00345795 107.17071414 70.00182748 C113.52480337 69.99977018 119.87888318 70.0013691 126.23297131 70.00546569 C135.68103586 70.01153994 145.12909455 70.01179788 154.5771607 70.0109237 C170.4759202 70.00961446 186.37467552 70.01293341 202.2734338 70.01894111 C218.00256253 70.0248694 233.73168952 70.02870932 249.46081936 70.02979392 C250.44084061 70.02986266 251.42086186 70.0299314 252.43058072 70.03000222 C257.40813542 70.03034058 262.38569013 70.03064196 267.36324484 70.0309291 C302.56835158 70.03302641 337.77345605 70.03975509 372.97856152 70.04923171 C407.16801452 70.05842428 441.3574669 70.0655039 475.54692089 70.06973952 C476.6018189 70.06987105 477.65671691 70.07000258 478.74358153 70.07013809 C489.33783703 70.07145667 499.93209255 70.07273248 510.52634806 70.07397695 C532.10576633 70.07651278 553.68518456 70.07933403 575.26460278 70.08232803 C576.25666856 70.08246532 577.24873433 70.08260261 578.27086271 70.08274406 C644.45679581 70.09193609 710.64272765 70.10778028 776.82865917 70.12467116 C776.82865917 72.10467116 776.82865917 74.08467116 776.82865917 76.12467116 C535.59865917 76.12467116 294.36865917 76.12467116 45.82865917 76.12467116 C46.15865917 84.37467116 46.48865917 92.62467116 46.82865917 101.12467116 C46.90408721 105.54545976 46.96356753 109.94886527 46.951707 114.36777515 C46.95286085 115.49575252 46.95401469 116.6237299 46.9552035 117.78588841 C46.95779823 121.4724456 46.9534087 125.15895685 46.94891369 128.84551162 C46.94935086 131.55233413 46.95018671 134.25915392 46.95150286 136.96597588 C46.95355468 142.80272151 46.95197092 148.63945683 46.94786465 154.47620124 C46.94177616 163.15493636 46.94153375 171.83366513 46.94240664 180.512402 C46.94371417 195.11842608 46.94040348 209.7244456 46.93438923 224.33046836 C46.92845641 238.7760087 46.92462011 253.22154714 46.92353642 267.66708869 C46.92346768 268.56788195 46.92339894 269.46867522 46.92332811 270.39676524 C46.92298974 274.97211052 46.92268837 279.54745579 46.92240124 284.12280106 C46.92030517 316.46449017 46.91357997 348.80617681 46.90409863 381.14786452 C46.89490277 412.55216127 46.88782476 443.95645733 46.88359081 475.36075515 C46.88339352 476.81476852 46.88339352 476.81476852 46.88319225 478.29815589 C46.88187364 488.03337874 46.88059784 497.7686016 46.87935339 507.50382446 C46.87681771 527.33263517 46.87399646 547.16144584 46.87100231 566.99025649 C46.87079638 568.35756805 46.87079638 568.35756805 46.87058628 569.75250207 C46.86139769 630.54322613 46.84555393 691.33394882 46.82865917 752.12467116 C46.49865917 752.12467116 46.16865917 752.12467116 45.82865917 752.12467116 C45.82865917 537.62467116 45.82865917 323.12467116 45.82865917 102.12467116 C43.47510578 103.00682003 43.47510578 103.00682003 42.82865917 106.12467116 C42.16865917 106.12467116 41.50865917 106.12467116 40.82865917 106.12467116 C40.82865917 96.22467116 40.82865917 86.32467116 40.82865917 76.12467116 C30.59865917 76.12467116 20.36865917 76.12467116 9.82865917 76.12467116 C9.82865917 285.67467116 9.82865917 495.22467116 9.82865917 711.12467116 C8.17865917 711.78467116 6.52865917 712.44467116 4.82865917 713.12467116 C4.82865917 502.91467116 4.82865917 292.70467116 4.82865917 76.12467116 C-1.77134083 76.12467116 -8.37134083 76.12467116 -15.17134083 76.12467116 C-15.17134083 74.47467116 -15.17134083 72.82467116 -15.17134083 71.12467116 C-8.57134083 71.12467116 -1.97134083 71.12467116 4.82865917 71.12467116 C4.82865917 54.29467116 4.82865917 37.46467116 4.82865917 20.12467116 C6.14865917 19.79467116 7.46865917 19.46467116 8.82865917 19.12467116 C9.82865917 20.12467116 9.82865917 20.12467116 9.94891369 22.18108291 C9.94558277 23.53676627 9.94558277 23.53676627 9.94218456 24.91983718 C9.94210903 25.94082 9.9420335 26.96180282 9.94195568 28.01372451 C9.9367944 29.12412597 9.93163311 30.23452743 9.92631542 31.37857741 C9.92490048 32.50916076 9.92348553 33.6397441 9.9220277 34.80458755 C9.91640936 38.43214182 9.90385375 42.0596354 9.89115917 45.68717116 C9.88614654 48.13964423 9.88158322 50.59211827 9.8774873 53.04459304 C9.86728287 59.0713282 9.84771104 65.09793138 9.82865917 71.12467116 C20.05865917 71.12467116 30.28865917 71.12467116 40.82865917 71.12467116 C40.82865917 49.01467116 40.82865917 26.90467116 40.82865917 4.12467116 C27.09630504 4.24342639 27.09630504 4.24342639 13.3643037 4.39493484 C11.64669869 4.4036941 9.92908747 4.41133936 8.21147167 4.41763991 C6.86653637 4.44066177 6.86653637 4.44066177 5.49443066 4.4641487 C4.64195751 4.46451125 3.78948437 4.4648738 2.9111787 4.46524734 C1.79865231 4.47524009 1.79865231 4.47524009 0.66365063 4.48543471 C0.05810345 4.36638274 -0.54744373 4.24733077 -1.17134083 4.12467116 C-1.83134083 3.13467116 -2.49134083 2.14467116 -3.17134083 1.12467116 C-2.17134083 0.12467116 -2.17134083 0.12467116 0 0 Z " transform="translate(231.1713408268988,629.8753288350999)" style="fill: #6EB6D7;"/><path d="M0 0 C0 9.57 0 19.14 0 29 C-21.08047908 29.14287602 -42.06263191 28.82568399 -63.125 27.8125 C-64.50952663 27.7482273 -65.89406884 27.68428926 -67.27862549 27.6206665 C-99.20754509 26.15102982 -131.11525264 24.2774848 -163.02203369 22.39530945 C-235.9563777 18.09511764 -307.72916585 19.05324602 -380.47583008 25.6418457 C-435.33298392 30.60327548 -488.84170264 25.43191268 -543.44464111 20.03669739 C-553.00170005 19.09375524 -562.56174294 18.18997484 -572.125 17.3125 C-581.3035477 16.46827254 -590.46445898 15.52030239 -599.625 14.5 C-610.56952975 13.28376654 -621.52090274 12.38628881 -632.5 11.5625 C-645.67596322 10.57330404 -658.80752636 9.35698599 -671.9375 7.875 C-673.08702148 7.74546432 -673.08702148 7.74546432 -674.25976562 7.61331177 C-681.18644312 6.82834454 -688.10155415 6.0087741 -695 5 C-695 4.67 -695 4.34 -695 4 C-677.89792583 3.02961637 -660.85856946 2.94043617 -643.73779297 3.24194336 C-639.7198656 3.31267483 -635.7017867 3.36627675 -631.68359375 3.41992188 C-619.07116522 3.60492611 -606.47167591 3.90852863 -593.87011719 4.4765625 C-561.66038058 5.9246027 -529.5023885 6.3975432 -497.26206207 6.3771553 C-493.66725007 6.37490481 -490.07244634 6.37585541 -486.47763431 6.37752169 C-435.67308975 6.39748041 -384.90932574 5.44823558 -334.125 4.0625 C-333.28714966 4.03965156 -332.44929932 4.01680311 -331.58605957 3.99326229 C-290.75820994 2.88162731 -290.75820994 2.88162731 -249.93994141 1.47192383 C-238.11255812 1.02146684 -226.28671751 0.70577045 -214.453125 0.4765625 C-213.43408333 0.45626606 -212.41504166 0.43596962 -211.36511993 0.41505814 C-185.43922595 -0.09685907 -159.51081758 -0.37168566 -133.58101273 -0.59233475 C-129.69396525 -0.62547778 -125.80692889 -0.65977477 -121.91989136 -0.69406128 C-81.26253316 -1.0459074 -40.64778102 -0.94597414 0 0 Z " transform="translate(1008,719)" style="fill: #9ED4EB;"/><path d="M0 0 C0.33 0 0.66 0 1 0 C1 223.08 1 446.16 1 676 C-8.9 676 -18.8 676 -29 676 C-29.90672294 590.36382016 -30.10015691 504.73041326 -30.09765625 419.08984375 C-30.09762783 417.74752317 -30.09759968 416.40520259 -30.09757179 415.06288201 C-30.09675564 382.18071499 -30.08717097 349.29855227 -30.07373433 316.41638823 C-30.06503465 295.12533001 -30.05885236 273.83427253 -30.05493164 252.54321289 C-30.05480011 251.83362675 -30.05466859 251.1240406 -30.05453308 250.39295185 C-30.05321362 243.261604 -30.05193794 236.13025614 -30.05069422 228.99890828 C-30.04816365 214.49467924 -30.04534243 199.99045026 -30.04234314 185.48622131 C-30.04220585 184.82055693 -30.04206856 184.15489255 -30.04192711 183.46905652 C-30.03285575 139.6460362 -30.0170069 95.82301787 -30 52 C-29.34 52 -28.68 52 -28 52 C-23.40983071 83.46450997 -23.40983071 83.46450997 -23 97 C-22.96841797 97.98871094 -22.93683594 98.97742188 -22.90429688 99.99609375 C-22.62914822 108.65076973 -22.62914822 108.65076973 -22.50305176 112.85894775 C-22.15427495 124.49665438 -21.636385 136.12140658 -21.0625 147.75 C-20.34105943 162.49876939 -19.66202696 177.24868795 -19.06466675 192.00305176 C-18.98346612 193.99653016 -18.90071715 195.9899465 -18.81594849 197.98327637 C-16.76323389 246.45928721 -16.75234419 294.99553599 -16.48697662 343.50572205 C-16.16397758 414.17652408 -16.16397758 414.17652408 -14.0625 484.8125 C-14.01953796 485.82578369 -13.97657593 486.83906738 -13.93231201 487.88305664 C-13.33711082 533.1251698 -13.33711082 533.1251698 -1 576 C-0.505 290.88 -0.505 290.88 0 0 Z " transform="translate(1805,706)" style="fill: #ABDCF1;"/><path d="M0 0 C0.66 0 1.32 0 2 0 C2.79144953 3.48593178 3.12232686 6.69241229 3.11352539 10.26409912 C3.1134549 11.30446823 3.1133844 12.34483734 3.11331177 13.41673279 C3.10814545 14.5473262 3.10297913 15.67791962 3.09765625 16.84277344 C3.09619598 18.04158646 3.09473572 19.24039948 3.0932312 20.47554016 C3.0884362 23.75415253 3.07926528 27.03271957 3.06846237 30.31131649 C3.05847443 33.74214564 3.05496645 37.17298029 3.05102539 40.6038208 C3.03993756 49.31922839 3.02038142 58.03460995 3 66.75 C2.97798977 76.17273319 2.95742575 85.595456 2.94658184 95.0182097 C2.94240789 98.43482124 2.93604938 101.85140149 2.92483521 105.26799774 C2.91295166 109.07027304 2.90700253 112.87251472 2.90234375 116.67480469 C2.89717743 117.81349503 2.89201111 118.95218536 2.88668823 120.12538147 C2.88661774 121.15447128 2.88654724 122.1835611 2.88647461 123.24383545 C2.88314369 124.59327806 2.88314369 124.59327806 2.87974548 125.96998215 C2.77427884 127.99563049 2.77427884 127.99563049 4 129 C4.09376053 130.81055025 4.1174411 132.62477201 4.11352539 134.43774414 C4.11334412 136.20390076 4.11334412 136.20390076 4.11315918 138.0057373 C4.10548523 139.87654968 4.10548523 139.87654968 4.09765625 141.78515625 C4.09664917 142.92432495 4.09564209 144.06349365 4.09460449 145.23718262 C4.08935338 149.51229858 4.07539227 153.78740025 4.0625 158.0625 C4.041875 167.611875 4.02125 177.16125 4 187 C25.78 187 47.56 187 70 187 C70 187.33 70 187.66 70 188 C48.22 188 26.44 188 4 188 C4 189.65 4 191.3 4 193 C-249.44 193 -502.88 193 -764 193 C-764 191.02 -764 189.04 -764 187 C-512.54 187 -261.08 187 -2 187 C-2 167.86 -2 148.72 -2 129 C-253.46 129 -504.92 129 -764 129 C-764 127.35 -764 125.7 -764 124 C-512.54 124 -261.08 124 -2 124 C-2 85.06 -2 46.12 -2 6 C-1.34 4.02 -0.68 2.04 0 0 Z " transform="translate(1772,1258)" style="fill: #ACC1D1;"/><path d="M0 0 C10.23 0 20.46 0 31 0 C31 223.08 31 446.16 31 676 C20.77 676 10.54 676 0 676 C0 452.92 0 229.84 0 0 Z M3.70996094 2.52441406 C-0.24956816 8.25679914 0.8589501 17.02259306 0.87695217 23.76085663 C0.87579833 24.82700931 0.87464448 25.89316199 0.87345567 26.99162233 C0.87080521 30.57023626 0.87529828 34.14880536 0.87974548 37.72741699 C0.87930946 40.31644657 0.87843398 42.90547611 0.87715632 45.49450541 C0.87508524 51.12655811 0.87672182 56.75860023 0.88079453 62.3906517 C0.88683364 70.76528427 0.88712995 79.13991018 0.88625254 87.51454452 C0.88493905 101.60252776 0.88827849 115.69050629 0.89426994 129.77848816 C0.90018701 143.72731042 0.9040359 157.67613072 0.90512276 171.62495422 C0.9051915 172.49225739 0.90526024 173.35956056 0.90533106 174.25314564 C0.90566939 178.65774208 0.90597078 183.06233853 0.90625793 187.46693498 C0.90835833 218.66448142 0.91509566 249.86202531 0.92456055 281.05957031 C0.93374493 311.36751288 0.94082857 341.67545475 0.94506836 371.98339844 C0.94519989 372.91762523 0.94533141 373.85185202 0.94546692 374.81438871 C0.94678544 384.1962801 0.94806126 393.5781715 0.94930578 402.9600629 C0.95184199 422.0720488 0.95466325 441.18403467 0.95765686 460.29602051 C0.95779415 461.17475825 0.95793144 462.053496 0.95807289 462.95886216 C0.96727352 521.63924251 0.98311872 580.31962143 1 639 C12.2945037 628.01279806 18.6172797 612.66307128 19.09189439 596.95948923 C19.1290428 593.20555865 19.13345729 589.45232508 19.12698364 585.69828796 C19.12813694 584.24122558 19.12972586 582.78416349 19.13171089 581.32710201 C19.13587728 577.33502029 19.13382548 573.34296254 19.13072467 569.35088074 C19.12845913 565.03863688 19.13195642 560.7263971 19.13470459 556.41415405 C19.13915284 547.96122524 19.13818885 539.5083053 19.13529195 531.05537613 C19.133029 524.16424937 19.13272928 517.27312509 19.13381577 510.38199806 C19.133969 509.39914238 19.13412223 508.4162867 19.13428011 507.40364752 C19.13459987 505.40622323 19.13492409 503.40879895 19.1352527 501.41137467 C19.13810607 482.66480117 19.13482542 463.91823256 19.12945233 445.17165986 C19.12500879 429.17636777 19.12574012 413.18108297 19.13037109 397.18579102 C19.13576174 378.55828396 19.13780585 359.93078123 19.13475883 341.3032735 C19.13444035 339.30270024 19.13412597 337.30212698 19.13381577 335.30155373 C19.13366149 334.31764866 19.13350721 333.3337436 19.13334826 332.32002323 C19.13249464 325.47574996 19.13393953 318.6314795 19.13629532 311.78720665 C19.21432457 257.86504719 19.21432457 257.86504719 18.16368449 203.9560737 C17.53613201 183.12532969 18.09480929 162.36453222 19.25 141.5625 C19.31558105 140.34272461 19.38116211 139.12294922 19.44873047 137.86621094 C20.46135238 119.06592602 21.6544745 100.27929215 23 81.5 C23.07754517 80.38545441 23.15509033 79.27090881 23.23498535 78.12258911 C25.49325669 45.99058845 25.49325669 45.99058845 29.08154297 35.98388672 C30.20249575 32.34213102 30.22577161 29.22145126 30.1953125 25.4140625 C30.19106766 24.36138687 30.19106766 24.36138687 30.18673706 23.28744507 C30.17562512 21.06644972 30.15053834 18.84587155 30.125 16.625 C30.11495854 15.11068295 30.10583473 13.59635951 30.09765625 12.08203125 C30.07571554 8.38788742 30.04124875 4.69398449 30 1 C26.08358289 0.88381236 22.16760899 0.81275346 18.25 0.75 C17.13882812 0.71648438 16.02765625 0.68296875 14.8828125 0.6484375 C13.81289062 0.63554688 12.74296875 0.62265625 11.640625 0.609375 C10.65610352 0.58842773 9.67158203 0.56748047 8.65722656 0.54589844 C5.92205324 0.82827101 5.92205324 0.82827101 3.70996094 2.52441406 Z " transform="translate(241,706)" style="fill: #A8DBF2;"/><path d="M0 0 C22.11 0 44.22 0 67 0 C67 267.63 67 535.26 67 811 C45.22 811 23.44 811 1 811 C1 791.86 1 772.72 1 753 C10.57 753 20.14 753 30 753 C30.33 765.87 30.66 778.74 31 792 C32.32 792 33.64 792 35 792 C35.33 779.13 35.66 766.26 36 753 C42.6 752.67 49.2 752.34 56 752 C56 751.01 56 750.02 56 749 C49.4 748.67 42.8 748.34 36 748 C36 717.97 36 687.94 36 657 C36.66 657.33 37.32 657.66 38 658 C38 658.66 38 659.32 38 660 C43.8057055 663.12614911 49.11135593 664.25495893 55.6875 664.5625 C62.70833333 664.90277778 62.70833333 664.90277778 66 666 C66 446.55 66 227.1 66 1 C44.55 1 23.1 1 1 1 C1 22.45 1 43.9 1 66 C10.57 66 20.14 66 30 66 C30 52.8 30 39.6 30 26 C30.33 26 30.66 26 31 26 C31 39.53 31 53.06 31 67 C20.77 67 10.54 67 0 67 C0 44.89 0 22.78 0 0 Z " transform="translate(1775,634)" style="fill: #A7D9EF;"/><path d="M0 0 C543.84 0 1087.68 0 1648 0 C1648 271.59 1648 543.18 1648 823 C1647.67 823 1647.34 823 1647 823 C1647 551.74 1647 280.48 1647 1 C1621.59 1 1596.18 1 1570 1 C1570 2.65 1570 4.3 1570 6 C1318.54 6 1067.08 6 808 6 C808 4.35 808 2.7 808 1 C541.36 1 274.72 1 0 1 C0 0.67 0 0.34 0 0 Z " transform="translate(200,628)" style="fill: #B1CBDA;"/><path d="M0 0 C1.78380824 0.26593324 3.5676612 0.53156671 5.3515625 0.796875 C7.02622505 1.05087717 8.70071342 1.30603125 10.375 1.5625 C11.1287793 1.67698486 11.88255859 1.79146973 12.65917969 1.90942383 C13.37750977 2.02310303 14.09583984 2.13678223 14.8359375 2.25390625 C15.45001465 2.35002197 16.0640918 2.4461377 16.69677734 2.54516602 C18.7351032 2.94768892 20.75144156 3.45823723 22.76147461 3.98413086 C26.79994521 5.00689267 30.84082467 5.57060734 34.98046875 6 C36.0825341 6.12181641 36.0825341 6.12181641 37.2068634 6.24609375 C39.53321073 6.50258494 41.86025074 6.75183763 44.1875 7 C47.24389647 7.3296903 50.29985285 7.66315332 53.35546875 8 C54.1022287 8.0817749 54.84898865 8.1635498 55.61837769 8.24780273 C59.99420536 8.73828608 64.33011676 9.34475759 68.67578125 10.0625 C84.39776736 12.54894254 100.5576392 12.46382164 116.4375 13.0625 C118.82617927 13.15410414 121.21485122 13.24589951 123.60351562 13.33789062 C129.40226117 13.5607978 135.20109257 13.78134706 141 14 C140.67 14.66 140.34 15.32 140 16 C137.10438045 16.63433529 134.26643569 17.14281123 131.33984375 17.5859375 C130.45145309 17.7277243 129.56306244 17.86951111 128.64775085 18.01559448 C125.74557075 18.47697908 122.84161927 18.92599829 119.9375 19.375 C117.94891165 19.68886551 115.96046736 20.00364506 113.97216797 20.31933594 C110.06480796 20.93921542 106.15688862 21.55536311 102.24853516 22.16894531 C96.03239333 23.14846194 89.82817073 24.19149492 83.625 25.25 C76.67956482 26.42500919 69.72822561 27.47759568 62.75 28.4375 C28.08923199 31.31175369 28.08923199 31.31175369 -0.66796875 47.99609375 C-7.34115303 57.23968976 -9.65835733 67.76457127 -11.1875 78.875 C-11.35475586 80.03942627 -11.52201172 81.20385254 -11.69433594 82.40356445 C-13.13267071 92.91905484 -13.77268253 103.39564016 -14 114 C-16.49419811 111.79783723 -17.53524114 110.05874877 -18.48046875 106.8828125 C-19.95031644 102.1552322 -21.59689857 97.51849669 -23.3125 92.875 C-23.61808838 92.04589111 -23.92367676 91.21678223 -24.23852539 90.36254883 C-26.06434327 85.43828722 -27.96101122 80.55311856 -29.9375 75.6875 C-36.23685596 60.05701249 -41.81820658 44.33232624 -46 28 C-46.17813232 27.34636475 -46.35626465 26.69272949 -46.53979492 26.01928711 C-48.00597365 19.58599044 -48.35712106 10.69970347 -46.05859375 4.43359375 C-36.58654899 -9.31423296 -13.78053018 -2.11859327 0 0 Z " transform="translate(413,773)" style="fill: #EEF8FB;"/><path d="M0 0 C1.65 0 3.3 0 5 0 C5 17.16 5 34.32 5 52 C11.93 52 18.86 52 26 52 C25.67 53.65 25.34 55.3 25 57 C18.4 57 11.8 57 5 57 C5 280.08 5 503.16 5 733 C11.6 733 18.2 733 25 733 C25.33 734.32 25.66 735.64 26 737 C25 738 25 738 23.05053711 738.11352539 C22.2178833 738.10828857 21.38522949 738.10305176 20.52734375 738.09765625 C19.71773193 738.09515869 18.90812012 738.09266113 18.07397461 738.09008789 C17.03893799 738.08098389 16.00390137 738.07187988 14.9375 738.0625 C11.658125 738.041875 8.37875 738.02125 5 738 C5 750.87 5 763.74 5 777 C3.35 777.33 1.7 777.66 0 778 C-1 777 -1 777 -1.11352539 773.30639648 C-1.11336624 771.66128708 -1.10766988 770.01617269 -1.09765625 768.37109375 C-1.0962413 767.50686295 -1.09482635 766.64263214 -1.09336853 765.75221252 C-1.08775239 762.98060708 -1.07519719 760.2090812 -1.0625 757.4375 C-1.05748708 755.5631522 -1.05292381 753.68880315 -1.04882812 751.81445312 C-1.03777772 747.20960456 -1.0205023 742.60481579 -1 738 C-1.90355225 738.00523682 -2.80710449 738.01047363 -3.73803711 738.01586914 C-7.07951489 738.03287686 -10.42094692 738.04543333 -13.76245117 738.05493164 C-15.21070073 738.05997101 -16.65894517 738.06680253 -18.10717773 738.07543945 C-20.18474588 738.08752247 -22.26224697 738.09323211 -24.33984375 738.09765625 C-25.59144287 738.10289307 -26.84304199 738.10812988 -28.13256836 738.11352539 C-31 738 -31 738 -32 737 C-32 735.35 -32 733.7 -32 732 C-21.44 732.33 -10.88 732.66 0 733 C0 509.92 0 286.84 0 57 C-9.9 57 -19.8 57 -30 57 C-30.33 55.35 -30.66 53.7 -31 52 C-20.77 52 -10.54 52 0 52 C0 34.84 0 17.68 0 0 Z " transform="translate(1806,649)" style="fill: #7CBAD7;"/><path d="M0 0 C233.64 0 467.28 0 708 0 C708 1.98 708 3.96 708 6 C467.1 6 226.2 6 -22 6 C-22 5.67 -22 5.34 -22 5 C5.06 4.67 32.12 4.34 60 4 C60.33 3.34 60.66 2.68 61 2 C30.805 1.505 30.805 1.505 0 1 C0 0.67 0 0.34 0 0 Z " transform="translate(300,700)" style="fill: #6DB6D9;"/><path d="M0 0 C240.9 0 481.8 0 730 0 C729.34 0.33 728.68 0.66 728 1 C728.33 1.99 728.66 2.98 729 4 C727.25520237 5.74479763 724.84697329 5.12547447 722.47448444 5.12584114 C720.66394076 5.12975276 720.66394076 5.12975276 718.81682044 5.13374341 C717.46009959 5.13158087 716.10337888 5.12932419 714.74665833 5.12698364 C713.31876529 5.1281345 711.89087256 5.12972179 710.46298045 5.13171089 C706.52046941 5.13590928 702.57798238 5.13381121 698.63547122 5.13072467 C694.39061558 5.12847275 690.14576423 5.13194921 685.90090942 5.13470459 C677.57641242 5.13916409 669.2519244 5.13818486 660.92742703 5.13529195 C654.16214977 5.13303786 647.39687504 5.13272542 640.63159752 5.13381577 C639.18982373 5.13404561 639.18982373 5.13404561 637.71892321 5.13428011 C635.76652013 5.13459982 633.81411705 5.13492403 631.86171397 5.1352527 C613.52832805 5.13810821 595.19494713 5.13481975 576.86156204 5.12945233 C561.12507206 5.12498778 545.38858945 5.12575721 529.65209961 5.13037109 C511.39416386 5.13572173 493.1362325 5.13782976 474.87829608 5.13475883 C472.93135782 5.13444027 470.98441957 5.1341259 469.03748131 5.13381577 C468.07947431 5.13366149 467.1214673 5.13350721 466.13442979 5.13334826 C459.37855222 5.13248431 452.62267744 5.13394345 445.86680031 5.13629532 C437.63138917 5.13909909 429.39598756 5.13834297 421.16057751 5.13301457 C416.95739386 5.13038484 412.7542261 5.12936018 408.55104256 5.13266373 C404.70372813 5.13564182 400.85644435 5.13400853 397.00913271 5.12868617 C395.61673697 5.12756843 394.22433864 5.12813897 392.83194456 5.13056196 C390.93953858 5.13360259 389.04712536 5.12988593 387.15472126 5.12584114 C386.10343802 5.12567879 385.05215478 5.12551644 383.96901447 5.12534916 C380.90771432 4.99610378 378.00867719 4.56615233 375 4 C375 3.01 375 2.02 375 1 C251.25 1 127.5 1 0 1 C0 0.67 0 0.34 0 0 Z " transform="translate(278,1445)" style="fill: #72B6D5;"/><path d="M0 0 C233.64 0 467.28 0 708 0 C708 0.33 708 0.66 708 1 C535.08 1.33 362.16 1.66 184 2 C184.33 2.99 184.66 3.98 185 5 C357.59 5 530.18 5 708 5 C708 5.33 708 5.66 708 6 C467.1 6 226.2 6 -22 6 C-22 5.67 -22 5.34 -22 5 C5.06 4.67 32.12 4.34 60 4 C60.33 3.34 60.66 2.68 61 2 C30.805 1.505 30.805 1.505 0 1 C0 0.67 0 0.34 0 0 Z " transform="translate(300,700)" style="fill: #80C2E1;"/><path d="M0 0 C0.33 0 0.66 0 1 0 C1 85.14 1 170.28 1 258 C-22.43 258 -45.86 258 -70 258 C-70 256.02 -70 254.04 -70 252 C-48.22 252 -26.44 252 -4 252 C-4 202.83 -4 153.66 -4 103 C-3.67 103.66 -3.34 104.32 -3 105 C-2.34 105 -1.68 105 -1 105 C-0.67 70.35 -0.34 35.7 0 0 Z " transform="translate(1846,1194)" style="fill: #84B3CD;"/><path d="M0 0 C0.33 0 0.66 0 1 0 C1.12852399 32.78094663 1.25602967 65.56189704 1.38218227 98.34285288 C1.39719624 102.24403086 1.41221857 106.1452088 1.42724609 110.04638672 C1.43023671 110.8227935 1.43322732 111.59920028 1.43630856 112.39913453 C1.48427107 124.84575445 1.53290609 137.29237164 1.58180541 149.73898791 C1.63225021 162.58294755 1.68193586 175.42690998 1.73096704 188.2708751 C1.75841065 195.45450997 1.78616903 202.6381433 1.81480408 209.82177353 C1.95303431 244.54814607 2.02251692 279.27328573 2 314 C22.79 314.33 43.58 314.66 65 315 C64.67 307.41 64.34 299.82 64 292 C64.07699831 285.84261919 64.19533877 279.71173946 64.4375 273.5625 C64.49105287 272.02932525 64.54378712 270.49612168 64.59570312 268.96289062 C64.71969604 265.30805195 64.86002609 261.65439588 65 258 C55.43 258 45.86 258 36 258 C36 270.54 36 283.08 36 296 C35.67 296 35.34 296 35 296 C35 283.13 35 270.26 35 257 C45.23 257 55.46 257 66 257 C66 276.47 66 295.94 66 316 C44.22 316 22.44 316 0 316 C0 211.72 0 107.44 0 0 Z " transform="translate(206,1130)" style="fill: #9BD4EE;"/><path d="M0 0 C0.66 0 1.32 0 2 0 C2.33 3.96 2.66 7.92 3 12 C2.34 12 1.68 12 1 12 C1 168.75 1 325.5 1 487 C0.67 487 0.34 487 0 487 C0 326.29 0 165.58 0 0 Z " transform="translate(1775,758)" style="fill: #A1CEE5;"/><path d="M0 0 C0.33 0 0.66 0 1 0 C1.02362396 16.47580127 1.04112102 32.95159684 1.05181217 49.42741108 C1.05691374 57.08174022 1.06387173 64.73605855 1.07543945 72.39038086 C1.16185828 131.08523771 1.16185828 131.08523771 0.73226738 150.32127953 C0.70033082 151.77901181 0.672853 153.23685003 0.65028572 154.69475746 C0.61842762 156.60695527 0.56478168 158.51875528 0.50952148 160.43041992 C0.4837352 161.45020432 0.45794891 162.46998871 0.43138123 163.52067566 C-0.06065409 166.34860386 -0.73315536 167.29407585 -3 169 C-3.33 169 -3.66 169 -4 169 C-4 147.22 -4 125.44 -4 103 C-3.67 103.66 -3.34 104.32 -3 105 C-2.34 105 -1.68 105 -1 105 C-0.67 70.35 -0.34 35.7 0 0 Z " transform="translate(1846,1194)" style="fill: #84B2CB;"/><path d="M0 0 C0 1.65 0 3.3 0 5 C-2.79034261 6.3951713 -5.07225972 6.11955162 -8.19384766 6.11352539 C-9.49504547 6.11344986 -10.79624329 6.11337433 -12.13687134 6.11329651 C-13.56260211 6.10818947 -14.9883325 6.10297347 -16.4140625 6.09765625 C-17.86851961 6.09579147 -19.32297734 6.09436785 -20.7774353 6.09336853 C-24.60792776 6.08954805 -28.43838237 6.07972176 -32.26885986 6.06866455 C-36.17663053 6.05844035 -40.08440731 6.05386874 -43.9921875 6.04882812 C-51.6614756 6.03809908 -59.3307325 6.02102828 -67 6 C-67 4.35 -67 2.7 -67 1 C-58.41194065 0.86952749 -49.82388007 0.73913581 -41.23581791 0.60884857 C-37.24843854 0.54835452 -33.26105961 0.48783216 -29.27368164 0.42724609 C-25.42875199 0.36882548 -21.58382124 0.31047794 -17.73888969 0.25218201 C-16.26881305 0.22988003 -14.7987368 0.2075513 -13.32866096 0.18519592 C-11.27648141 0.153993 -9.22430046 0.12288348 -7.17211914 0.09179688 C-6.00185684 0.07403198 -4.83159454 0.05626709 -3.62586975 0.03796387 C-1 0 -1 0 0 0 Z " transform="translate(1843,1445)" style="fill: #6BA5C2;"/><path d="M0 0 C0.33 0 0.66 0 1 0 C1 23.1 1 46.2 1 70 C0.67 70 0.34 70 0 70 C0 52.51 0 35.02 0 17 C-0.99 17.33 -1.98 17.66 -3 18 C-3.36517527 11.42684522 -2.13619737 6.20514474 0 0 Z " transform="translate(270,739)" style="fill: #9FDEF9;"/><path d="M0 0 C0.33 0 0.66 0 1 0 C1 19.8 1 39.6 1 60 C-0.98 60 -2.96 60 -5 60 C-3.68 59.34 -2.36 58.68 -1 58 C-0.67 38.86 -0.34 19.72 0 0 Z " transform="translate(1846,1391)" style="fill: #81A9BF;"/><path d="M0 0 C1.98 0.495 1.98 0.495 4 1 C4 17.5 4 34 4 51 C3.67 51 3.34 51 3 51 C3 34.83 3 18.66 3 2 C1.68 2.99 0.36 3.98 -1 5 C-0.67 3.35 -0.34 1.7 0 0 Z " transform="translate(237,649)" style="fill: #7EBBD6;"/><path d="M0 0 C11.35858317 -0.18966094 22.66112404 0.39534572 34 1 C33.67 1.66 33.34 2.32 33 3 C30.93359375 3.4140625 30.93359375 3.4140625 28.4375 3.625 C27.61121094 3.69976563 26.78492188 3.77453125 25.93359375 3.8515625 C24.97646484 3.92503906 24.97646484 3.92503906 24 4 C24 3.34 24 2.68 24 2 C22.90945313 2.01740234 22.90945313 2.01740234 21.796875 2.03515625 C14.47368041 2.10087723 7.28633314 1.7234657 0 1 C0 0.67 0 0.34 0 0 Z " transform="translate(520,786)" style="fill: #D6F0F8;"/><path d="M0 0 C0.33 0 0.66 0 1 0 C1 4.29 1 8.58 1 13 C0.01 13.33 -0.98 13.66 -2 14 C-2.1799928 8.78020872 -1.97094808 4.92737019 0 0 Z " transform="translate(269,743)" style="fill: #A0D6ED;"/><path d="M0 0 C0.66 0.33 1.32 0.66 2 1 C-1.63 4.63 -5.26 8.26 -9 12 C-9 8.26071501 -8.08040398 7.59097747 -5.625 4.875 C-4.99851562 4.17117188 -4.37203125 3.46734375 -3.7265625 2.7421875 C-2 1 -2 1 0 0 Z " transform="translate(419,814)" style="fill: #B6D9E7;"/><path d="M0 0 C4.29 0.33 8.58 0.66 13 1 C13 1.99 13 2.98 13 4 C8.28596212 3.52060632 4.33420699 3.03165952 0 1 C0 0.67 0 0.34 0 0 Z " transform="translate(805,787)" style="fill: #C7E2ED;"/><path d="M0 0 C0.66 0 1.32 0 2 0 C2.33 3.96 2.66 7.92 3 12 C2.34 12 1.68 12 1 12 C-0.26237731 9.47524538 -0.09856404 7.68799534 -0.0625 4.875 C-0.05347656 3.96492187 -0.04445313 3.05484375 -0.03515625 2.1171875 C-0.02355469 1.41851563 -0.01195312 0.71984375 0 0 Z " transform="translate(1775,758)" style="fill: #A5D2E9;"/><path d="M0 0 C1.75070517 0.11470137 3.50057536 0.24219028 5.25 0.375 C6.22453125 0.44460938 7.1990625 0.51421875 8.203125 0.5859375 C10.89633189 0.98465249 12.66963279 1.63507063 15 3 C10.21221343 4.54444728 5.65769445 3.64559039 1 2 C0.67 1.34 0.34 0.68 0 0 Z " transform="translate(909,803)" style="fill: #CBE4EE;"/><path d="M0 0 C3.96 0 7.92 0 12 0 C12 0.99 12 1.98 12 3 C10.37419034 2.88601335 8.74932843 2.75844341 7.125 2.625 C6.22007812 2.55539062 5.31515625 2.48578125 4.3828125 2.4140625 C2 2 2 2 0 0 Z " transform="translate(731,775)" style="fill: #D9F6FD;"/><path d="M0 0 C2.0625 0.4375 2.0625 0.4375 4 1 C3.2884375 1.495 3.2884375 1.495 2.5625 2 C0.14208385 5.09813267 0.31801083 8.12026792 0 12 C-0.33 12 -0.66 12 -1 12 C-1.02687279 10.18757948 -1.04633715 8.37504767 -1.0625 6.5625 C-1.07410156 5.55316406 -1.08570313 4.54382813 -1.09765625 3.50390625 C-1 1 -1 1 0 0 Z " transform="translate(243,707)" style="fill: #B3E4FC;"/></svg>