<?xml version="1.0" encoding="UTF-8" standalone="no"?><!DOCTYPE svg PUBLIC "-//W3C//DTD SVG 1.1//EN" "http://www.w3.org/Graphics/SVG/1.1/DTD/svg11.dtd"><svg width="100%" height="100%" viewBox="0 0 8534 8534" version="1.1" xmlns="http://www.w3.org/2000/svg" xmlns:xlink="http://www.w3.org/1999/xlink" xml:space="preserve" xmlns:serif="http://www.serif.com/" style="fill-rule:evenodd;clip-rule:evenodd;stroke-linejoin:round;stroke-miterlimit:2;"><path d="M1890.7,2936.36c2.833,-0.022 5.665,-0.044 8.583,-0.066c9.487,-0.063 18.972,-0.066 28.459,-0.069c6.804,-0.031 13.608,-0.067 20.412,-0.105c18.484,-0.091 36.967,-0.128 55.451,-0.149c11.553,-0.015 23.106,-0.041 34.659,-0.071c40.319,-0.102 80.639,-0.156 120.958,-0.171c37.557,-0.015 75.113,-0.14 112.67,-0.314c32.261,-0.145 64.523,-0.209 96.785,-0.212c19.26,-0.003 38.52,-0.04 57.78,-0.158c18.127,-0.11 36.251,-0.119 54.377,-0.052c6.638,0.008 13.276,-0.02 19.914,-0.087c65.238,-0.613 65.238,-0.613 90.923,23.429c26.424,28.511 26.785,52.206 27.002,90.103c0.08,8.501 0.339,16.985 0.602,25.482c0.244,30.981 -1.587,52.357 -20.581,77.413c-20.247,20.188 -37.037,23.669 -65.357,23.669l0,454.167l220.834,-0l-0,-454.167l-41.667,-0c-20.32,-9.968 -32.54,-23.815 -45.833,-41.667c-7.364,-22.09 -5.272,-45.902 -5.397,-69.036c-0.048,-6.211 -0.133,-12.421 -0.256,-18.632c-0.179,-9 -0.245,-17.995 -0.288,-26.996c-0.091,-8.064 -0.091,-8.064 -0.184,-16.29c2.897,-22.015 12.81,-34.646 29.041,-49.254c19.266,-13.486 31.271,-16.673 55.122,-16.739c2.815,-0.019 5.63,-0.038 8.531,-0.057c9.429,-0.053 18.857,-0.046 28.287,-0.04c6.762,-0.024 13.525,-0.053 20.288,-0.084c18.372,-0.074 36.743,-0.093 55.115,-0.099c11.484,-0.006 22.967,-0.024 34.45,-0.046c40.076,-0.077 80.152,-0.111 120.229,-0.104c37.329,0.005 74.658,-0.083 111.987,-0.215c32.068,-0.109 64.134,-0.153 96.202,-0.148c19.144,0.002 38.287,-0.022 57.431,-0.11c18.016,-0.081 36.032,-0.081 54.049,-0.021c6.597,0.009 13.195,-0.01 19.792,-0.061c62.016,-0.444 62.016,-0.444 90.601,18.766c8.577,8.626 8.577,8.626 14.323,17.187c1.971,2.847 3.942,5.694 5.973,8.626c13.8,22.061 9.98,46.968 10.172,72.364c0.121,5.212 0.242,10.425 0.367,15.796c0.205,30.067 -0.781,56.452 -18.335,81.86c-24.035,22.73 -41.622,25 -75,25l-0,454.167l229.166,-0l0,-454.167l-41.666,-0c-20.32,-9.968 -32.54,-23.815 -45.834,-41.667c-7.327,-21.981 -5.602,-45.56 -5.854,-68.578c-0.09,-6.154 -0.231,-12.309 -0.427,-18.461c-1.937,-61.528 -1.937,-61.528 19.675,-86.004c19.188,-15.793 32.64,-20.19 57.631,-20.239c2.907,-0.022 5.814,-0.045 8.809,-0.068c9.714,-0.059 19.426,-0.03 29.141,0c6.975,-0.024 13.95,-0.053 20.926,-0.087c18.931,-0.074 37.861,-0.069 56.792,-0.046c15.812,0.013 31.623,-0.012 47.434,-0.037c37.308,-0.059 74.615,-0.052 111.922,-0.005c38.469,0.048 76.936,-0.011 115.404,-0.122c33.044,-0.093 66.087,-0.12 99.131,-0.096c19.728,0.014 39.456,0.004 59.184,-0.068c18.557,-0.064 37.113,-0.047 55.67,0.031c6.801,0.015 13.602,0.002 20.403,-0.041c9.305,-0.055 18.604,-0.007 27.91,0.066c5.2,0.001 10.4,0.002 15.758,0.003c20.618,2.934 35.655,11.253 51.148,25.474c16.992,25.222 16.558,51 15.997,80.701c-0.143,8.398 -0.086,16.777 -0.005,25.175c-0.231,30.94 -1.943,53.023 -19.149,79.069c-10.416,9.896 -10.416,9.896 -20.833,16.667c-2.492,1.718 -4.984,3.437 -7.552,5.208c-9.115,3.125 -9.115,3.125 -42.448,3.125l-0,454.167l270.833,-0l0,-454.167l-41.666,-0c-20.32,-9.968 -32.54,-23.815 -45.834,-41.667c-7.363,-22.09 -5.272,-45.902 -5.396,-69.036c-0.048,-6.211 -0.133,-12.421 -0.257,-18.632c-0.178,-9 -0.245,-17.995 -0.287,-26.996c-0.092,-8.064 -0.092,-8.064 -0.185,-16.29c2.934,-22.292 12.977,-34.903 29.563,-49.514c16.415,-11.664 25.782,-11.742 45.954,-11.812c2.882,-0.015 5.764,-0.03 8.733,-0.046c9.705,-0.046 19.409,-0.062 29.114,-0.078c6.939,-0.026 13.879,-0.054 20.818,-0.083c18.888,-0.072 37.776,-0.116 56.665,-0.151c11.797,-0.021 23.594,-0.046 35.391,-0.073c36.9,-0.079 73.799,-0.138 110.698,-0.173c42.615,-0.041 85.228,-0.15 127.842,-0.319c32.923,-0.125 65.846,-0.187 98.769,-0.201c19.67,-0.01 39.339,-0.047 59.009,-0.152c18.51,-0.097 37.017,-0.115 55.526,-0.072c6.79,0.002 13.579,-0.024 20.368,-0.081c9.28,-0.074 18.554,-0.044 27.834,0.01c7.784,-0.015 7.784,-0.015 15.726,-0.03c21.541,3.148 37.374,14.608 50.834,31.49c18.437,24.757 14.358,52.053 14.583,81.771c0.182,7.843 0.182,7.843 0.367,15.844c0.239,34.97 -2.079,58.701 -25.904,85.702c-2.401,1.896 -4.801,3.792 -7.275,5.745c-2.412,1.971 -4.823,3.943 -7.308,5.974c-16.757,11.235 -27.225,8.87 -48.682,8.87l0,454.167l241.667,-0l-0,-454.167l-41.667,-0c-23.29,-11.645 -40.34,-29.874 -50,-54.167c-1.667,-18.922 -1.548,-37.864 -1.544,-56.85c-0.018,-9.238 -0.169,-18.467 -0.327,-27.704c-0.025,-5.919 -0.041,-11.838 -0.049,-17.757c-0.034,-5.349 -0.069,-10.698 -0.104,-16.209c3.036,-22.216 13.082,-34.872 29.628,-49.448c16.393,-11.648 25.756,-11.749 45.899,-11.84c2.876,-0.018 5.752,-0.036 8.715,-0.055c9.685,-0.056 19.37,-0.081 29.056,-0.107c6.925,-0.033 13.851,-0.067 20.777,-0.103c22.791,-0.11 45.581,-0.173 68.373,-0.233c7.843,-0.022 15.687,-0.044 23.531,-0.067c32.634,-0.09 65.268,-0.168 97.902,-0.215c46.769,-0.068 93.537,-0.206 140.305,-0.443c32.881,-0.162 65.761,-0.243 98.643,-0.265c19.638,-0.015 39.274,-0.065 58.912,-0.2c18.489,-0.126 36.975,-0.152 55.464,-0.103c6.773,0.001 13.545,-0.034 20.317,-0.107c66.914,-0.684 66.914,-0.684 92.002,23.373c15.551,18.09 18.793,30.907 18.881,54.525c0.023,4.129 0.023,4.129 0.048,8.341c0.011,5.792 -0.019,11.584 -0.089,17.375c-0.089,8.772 -0.001,17.53 0.106,26.302c0.064,31.043 -1.405,54.726 -18.946,80.957c-22.859,22.273 -38.802,25 -70.833,25l-0,454.167l145.833,-0c-0.241,-10.474 -0.483,-20.948 -0.732,-31.739c-2.187,-120.849 -3.532,-258.131 84.31,-352.474c39.072,-37.47 87.61,-52.718 140.448,-57.345c3.555,-0.334 7.11,-0.668 10.773,-1.012c11.759,-1.098 23.523,-2.156 35.286,-3.215c8.332,-0.77 16.663,-1.543 24.995,-2.318c22.226,-2.062 44.455,-4.09 66.685,-6.112c22.909,-2.089 45.815,-4.207 68.721,-6.324c27.229,-2.515 54.457,-5.027 81.687,-7.525c49.494,-4.541 98.981,-9.142 148.456,-13.886c5.157,-0.494 10.314,-0.987 15.627,-1.496c18.395,-1.762 36.79,-3.526 55.183,-5.311c37.865,-3.672 75.649,-7.191 113.646,-9.144c28.542,-1.473 56.628,-4.657 84.951,-8.398c107.376,-14.16 211.796,-14.331 319.443,-2.816c3.237,0.344 6.473,0.688 9.807,1.042c112.812,12.312 112.812,12.312 144.881,49.739c28.596,38.187 33.97,84.919 33.893,131.056c0.009,3.954 0.019,7.909 0.029,11.983c0.028,13.303 0.026,26.606 0.025,39.908c0.013,9.614 0.029,19.227 0.046,28.841c0.042,26.458 0.057,52.917 0.068,79.376c0.013,25.592 0.049,51.184 0.082,76.776c0.086,68.56 0.13,137.12 0.167,205.679c0.017,32.435 0.039,64.871 0.061,97.306c0.075,111.035 0.137,222.071 0.168,333.107c0.002,6.969 0.004,13.939 0.006,20.908c0.002,5.184 0.002,5.184 0.003,10.473c0.005,17.51 0.01,35.02 0.015,52.53c0.001,3.475 0.002,6.95 0.003,10.53c0.033,112.683 0.131,225.367 0.266,338.05c0.143,119.146 0.225,238.292 0.239,357.438c0.002,13.08 0.004,26.16 0.006,39.24c0,3.22 0.001,6.441 0.001,9.759c0.01,51.82 0.075,103.64 0.161,155.46c0.084,52.087 0.107,104.175 0.067,156.262c-0.019,28.217 -0.011,56.432 0.07,84.649c0.073,25.833 0.07,51.665 0.005,77.498c-0.01,9.343 0.008,18.686 0.057,28.028c0.551,111.096 0.551,111.096 -39.053,151.979c-38.428,31.709 -86.948,40.56 -134.406,50.039c-3.469,0.716 -6.937,1.433 -10.511,2.17c-56.665,11.66 -112.204,18.317 -170.029,21.113c-14.589,0.929 -28.726,3.029 -43.158,5.363c-66.137,10.188 -66.137,10.188 -94.791,-3.385c-24.571,-23.311 -33.792,-43.089 -35.645,-76.872c-0.027,-6.756 0.201,-13.513 0.488,-20.264c-3.641,1.209 -7.283,2.417 -11.035,3.662c-29.224,8.345 -59.935,10.783 -89.99,14.722c-25.101,3.413 -50.033,7.27 -74.854,12.362c-6.512,1.334 -6.512,1.334 -13.157,2.694c-12.923,4.786 -16.814,8.803 -23.464,20.727c-2.875,8.353 -2.875,8.353 -4.28,17.155c-0.637,3.217 -1.273,6.435 -1.929,9.749c-1.236,6.682 -2.462,13.367 -3.678,20.052c-5.207,26.187 -13.341,44.819 -34.644,62.159c-28.202,15.431 -59.022,22.338 -90.316,28.743c-3.633,0.765 -7.267,1.531 -11.011,2.319c-11.532,2.427 -23.071,4.826 -34.61,7.219c-11.318,2.353 -22.635,4.714 -33.947,7.093c-7.601,1.598 -15.206,3.181 -22.813,4.749c-17.967,3.776 -35.626,7.855 -53.197,13.193c-61.711,18.415 -123.002,18.097 -186.788,17.471c-11.713,-0.078 -23.422,-0.016 -35.135,0.046c-14.168,0.055 -28.334,-0.021 -42.502,-0.088c-5.174,0.021 -10.348,0.041 -15.679,0.063c-34.819,-0.469 -65.648,-4.903 -93.647,-26.984c-26.192,-32.723 -36.511,-61.554 -36.084,-103.824c0.038,-4.84 0.075,-9.679 0.114,-14.665c0.048,-3.669 0.097,-7.337 0.146,-11.117c-368.165,0.255 -736.331,0.52 -1104.5,0.839c-5.447,0.005 -10.893,0.01 -16.505,0.014c-115.473,0.101 -230.947,0.203 -346.421,0.306c-58.006,0.053 -116.011,0.104 -174.017,0.156c-8.75,0.008 -17.5,0.016 -26.25,0.023c-134.75,0.12 -269.499,0.233 -404.249,0.325c-4.346,0.003 -4.346,0.003 -8.78,0.006c-46.719,0.032 -93.437,0.064 -140.156,0.095c-134.55,0.09 -269.101,0.185 -403.652,0.308c-4.15,0.004 -4.15,0.004 -8.383,0.008c-58.002,0.053 -116.004,0.108 -174.006,0.166c-27.162,0.027 -54.323,0.053 -81.485,0.08c-5.346,0.005 -10.692,0.01 -16.2,0.015c-86.158,0.083 -172.316,0.138 -258.474,0.181c-86.555,0.045 -173.11,0.119 -259.665,0.225c-51.465,0.062 -102.929,0.1 -154.394,0.106c-34.347,0.006 -68.694,0.042 -103.041,0.102c-19.591,0.034 -39.181,0.054 -58.771,0.038c-17.815,-0.014 -35.629,0.01 -53.444,0.064c-6.412,0.013 -12.823,0.012 -19.235,-0.005c-30.554,-0.072 -59.012,0.133 -88.376,9.448c-6.319,1.123 -12.661,2.136 -19.026,2.963c-3.348,0.452 -6.696,0.904 -10.145,1.37c-3.522,0.461 -7.044,0.922 -10.672,1.396c-28.378,3.823 -56.504,8.296 -84.643,13.601c-109.087,20.375 -109.087,20.375 -143.222,2.806c-11.458,-9.636 -11.458,-9.636 -18.501,-20.483c-10.971,-11.384 -17.05,-12.488 -32.587,-12.843c-4.527,0.054 -4.527,0.054 -9.146,0.109c-3.213,-0.043 -6.426,-0.087 -9.736,-0.132c-10.598,-0.12 -21.19,-0.094 -31.788,-0.066c-7.356,-0.055 -14.712,-0.118 -22.068,-0.191c-19.345,-0.166 -38.688,-0.208 -58.033,-0.225c-19.746,-0.039 -39.492,-0.195 -59.238,-0.341c-38.732,-0.269 -77.462,-0.407 -116.195,-0.464c0.077,3.757 0.077,3.757 0.156,7.59c0.04,3.323 0.08,6.646 0.121,10.07c0.051,3.278 0.103,6.556 0.156,9.933c-0.993,22.745 -8.879,40.891 -24.912,57.043c-38.308,28.568 -104.435,29.918 -150.781,38.021c-10.314,1.808 -20.627,3.62 -30.938,5.445c-6.948,1.228 -13.899,2.444 -20.852,3.648c-17.078,3.005 -33.985,6.286 -50.851,10.327c-55.878,13.11 -110.187,14.52 -167.454,14.034c-15.705,-0.122 -31.404,-0.085 -47.109,-0.032c-10.118,-0.026 -20.236,-0.06 -30.355,-0.105c-4.627,0.012 -9.254,0.024 -14.022,0.037c-39.352,-0.473 -74.598,-6.452 -105.834,-31.808c-29.552,-30.405 -32.952,-64.19 -32.884,-104.487c-0.01,-3.922 -0.02,-7.844 -0.03,-11.885c-0.027,-13.217 -0.026,-26.435 -0.024,-39.652c-0.014,-9.543 -0.029,-19.085 -0.046,-28.628c-0.042,-26.285 -0.058,-52.569 -0.069,-78.854c-0.012,-25.42 -0.048,-50.84 -0.081,-76.26c-0.087,-68.128 -0.131,-136.256 -0.167,-204.384c-0.018,-32.25 -0.04,-64.5 -0.061,-96.75c-0.075,-110.453 -0.137,-220.905 -0.168,-331.358c-0.002,-6.935 -0.004,-13.87 -0.006,-20.805c-0.001,-3.439 -0.002,-6.878 -0.003,-10.421c-0.005,-17.423 -0.01,-34.846 -0.016,-52.269c-0.001,-3.457 -0.002,-6.915 -0.003,-10.477c-0.032,-111.987 -0.13,-223.974 -0.266,-335.961c-0.143,-118.466 -0.225,-236.933 -0.238,-355.399c-0.002,-13.024 -0.004,-26.047 -0.006,-39.07c-0.001,-3.207 -0.001,-6.413 -0.002,-9.717c-0.009,-51.467 -0.075,-102.933 -0.16,-154.399c-0.085,-51.814 -0.107,-103.627 -0.068,-155.44c0.02,-28.037 0.012,-56.072 -0.07,-84.109c-0.073,-25.722 -0.069,-51.444 -0.004,-77.167c0.01,-9.251 -0.008,-18.502 -0.058,-27.753c-0.539,-106.885 10.243,-236.894 87.848,-317.883c61.093,-56.956 132.871,-58.024 212.404,-64.185c66.481,-5.178 132.868,-11.301 199.249,-17.619c9.311,-0.884 18.623,-1.769 27.934,-2.653c14.271,-1.356 28.542,-2.712 42.813,-4.07c51.353,-4.885 102.709,-9.734 154.07,-14.527c9.956,-0.932 19.911,-1.867 29.866,-2.808c13.841,-1.306 27.683,-2.599 41.525,-3.888c4.091,-0.389 8.182,-0.779 12.398,-1.18c18.91,-1.746 37.481,-3.111 56.498,-2.645c-1.375,-4.125 -2.75,-8.25 -4.166,-12.5c-1.202,-18.383 -1.158,-36.79 -1.302,-55.208c-0.121,-5.065 -0.242,-10.13 -0.367,-15.348c-0.236,-33.3 1.907,-53.162 24.846,-78.223c22.342,-17.181 34.906,-23.088 63.352,-23.196Z" style="fill:#606264;fill-rule:nonzero;"/><path d="M2529.17,4087.5l225,0c0.06,21.213 0.121,42.426 0.184,64.281c0.21,70.249 0.487,140.496 0.798,210.744c0.187,42.573 0.351,85.146 0.461,127.719c0.096,37.135 0.236,74.27 0.426,111.405c0.099,19.637 0.178,39.273 0.204,58.91c0.026,18.54 0.11,37.079 0.236,55.618c0.036,6.75 0.052,13.5 0.045,20.249c-0.078,103.144 22.343,193.602 94.26,270.866c36.488,34.581 81.023,59.684 128.386,76.041c4.221,1.515 8.443,3.03 12.793,4.59c60.668,16.738 134.418,7.665 191.373,-17.09c4.512,-1.906 9.024,-3.813 13.672,-5.778c76.099,-35.07 125.436,-97.94 158.464,-173.128c18.496,-51.593 21.391,-102.706 21.333,-156.859c0.037,-7.111 0.08,-14.222 0.128,-21.333c0.114,-19.099 0.154,-38.197 0.179,-57.296c0.039,-20.036 0.148,-40.072 0.25,-60.107c0.181,-37.849 0.3,-75.698 0.397,-113.546c0.113,-43.129 0.296,-86.257 0.485,-129.386c0.385,-88.633 0.675,-177.266 0.926,-265.9l229.166,0c0.039,22.371 0.078,44.741 0.118,67.79c0.141,74.04 0.372,148.08 0.649,222.119c0.165,44.876 0.3,89.751 0.362,134.627c0.055,39.139 0.168,78.278 0.349,117.417c0.094,20.7 0.159,41.4 0.155,62.101c-0.003,19.536 0.073,39.069 0.206,58.604c0.035,7.121 0.042,14.242 0.019,21.363c-0.282,98.345 27.563,191.255 96.043,264.254c58.583,56.481 129.115,87.667 210.433,86.36c4.178,0.014 8.357,0.027 12.662,0.041c43.301,-0.308 81.803,-6.843 121.192,-25.041c3.24,-1.471 6.481,-2.942 9.819,-4.457c24.295,-11.384 44.729,-24.641 64.66,-42.678c2.53,-1.95 5.06,-3.899 7.666,-5.908c57.714,-45.086 90.695,-127.549 100.667,-198.259c0.412,-10.636 0.645,-21.161 0.66,-31.795c0.03,-4.677 0.03,-4.677 0.062,-9.449c0.064,-10.402 0.099,-20.804 0.134,-31.206c0.04,-7.475 0.081,-14.95 0.125,-22.425c0.112,-20.263 0.2,-40.526 0.283,-60.789c0.091,-21.187 0.205,-42.374 0.317,-63.561c0.208,-40.108 0.395,-80.216 0.575,-120.324c0.206,-45.666 0.435,-91.333 0.666,-137c0.473,-93.928 0.916,-187.856 1.345,-281.784l270.833,0c0.039,22.623 0.078,45.246 0.118,68.555c0.141,74.871 0.372,149.743 0.649,224.614c0.165,45.38 0.3,90.76 0.362,136.14c0.055,39.579 0.168,79.157 0.349,118.735c0.094,20.934 0.159,41.867 0.155,62.8c-0.003,19.755 0.073,39.507 0.206,59.261c0.035,7.202 0.042,14.403 0.019,21.605c-0.167,58.892 6.299,115.789 35.121,168.446c1.457,2.764 2.913,5.528 4.413,8.376c4.157,7.774 8.427,15.466 12.775,23.135c2.062,3.647 4.125,7.294 6.25,11.051c41.354,66.848 110.681,108.295 185.354,128.015c21.111,4.369 41.843,4.814 63.344,4.684c4.55,-0.021 9.101,-0.042 13.789,-0.063c38.845,-0.832 70.555,-7.47 106.263,-22.854c4.565,-1.955 9.131,-3.91 13.835,-5.924c27.419,-12.783 50.981,-28.286 73.665,-48.243c3.078,-2.637 6.155,-5.274 9.326,-7.991c51.96,-47.832 74.507,-108.205 90.674,-175.342c1.078,-4.472 1.078,-4.472 2.178,-9.035c2.42,-14.36 2.627,-28.419 2.648,-42.935c0.031,-4.646 0.031,-4.646 0.062,-9.386c0.064,-10.358 0.099,-20.715 0.134,-31.073c0.04,-7.433 0.082,-14.866 0.125,-22.299c0.113,-20.169 0.2,-40.337 0.284,-60.506c0.091,-21.081 0.205,-42.163 0.316,-63.244c0.208,-39.916 0.396,-79.832 0.576,-119.748c0.205,-45.446 0.434,-90.89 0.665,-136.335c0.474,-93.48 0.916,-186.959 1.345,-280.439l245.834,0c0.082,22.858 0.165,45.717 0.25,69.268c0.279,75.537 0.602,151.074 0.948,226.61c0.208,45.797 0.402,91.593 0.559,137.389c0.138,39.928 0.304,79.855 0.504,119.783c0.105,21.131 0.196,42.261 0.253,63.392c0.053,19.915 0.146,39.829 0.266,59.743c0.038,7.284 0.062,14.568 0.071,21.853c0.07,50.159 1.56,97.388 22.93,143.629c1.284,2.836 2.569,5.673 3.892,8.595c37.014,79.768 95.483,139.832 178.66,170.571c3.448,1.327 6.896,2.654 10.449,4.021c74.167,23.46 163.553,12.614 233.041,-19.906c22.209,-12.019 41.768,-25.74 60.677,-42.448c5.148,-4.488 5.148,-4.488 10.4,-9.066c46.977,-43.687 78.436,-104.749 90.499,-167.598c0.702,-3.612 1.404,-7.225 2.127,-10.947c6.712,-36.996 7.708,-73.266 7.582,-110.765c0.036,-7.32 0.08,-14.639 0.13,-21.958c0.115,-19.571 0.13,-39.141 0.126,-58.713c0.013,-20.564 0.12,-41.128 0.217,-61.692c0.168,-38.807 0.253,-77.614 0.308,-116.421c0.067,-44.238 0.227,-88.475 0.394,-132.712c0.342,-90.876 0.556,-181.752 0.717,-272.628l137.5,0l-0,1125l-3612.5,0l-0,-1125Z" style="fill:#fdfdfd;fill-rule:nonzero;"/><path d="M1281.01,5419.73c3.201,0.021 6.402,0.042 9.7,0.063c3.405,-0.01 6.809,-0.021 10.317,-0.032c11.555,-0.026 23.11,0.009 34.665,0.042c8.345,-0.006 16.69,-0.016 25.035,-0.029c23.131,-0.026 46.262,0.001 69.394,0.035c25.089,0.029 50.178,0.009 75.267,-0.004c44.038,-0.018 88.076,-0.004 132.114,0.03c47.271,0.036 94.543,0.055 141.814,0.051c2.981,-0 5.963,-0.001 9.034,-0.001c15.201,-0.001 30.402,-0.003 45.602,-0.005c110.137,-0.011 220.274,0.017 330.41,0.067c109.102,0.05 218.203,0.082 327.305,0.091c3.385,-0 6.771,0 10.26,0.001c30.923,0.002 61.846,0.005 92.769,0.007c76.879,0.005 153.757,0.013 230.636,0.023c3.501,0 7.002,0.001 10.609,0.001c170.397,0.022 340.793,0.075 511.189,0.13c59.146,0.019 118.292,0.038 177.438,0.056c3.668,0.001 7.336,0.002 11.115,0.004c170.46,0.052 340.92,0.083 511.379,0.109c11.064,0.002 22.128,0.003 33.191,0.005c73.319,0.011 146.637,0.022 219.956,0.032c145.891,0.021 291.781,0.043 437.672,0.068c6.948,0.001 13.896,0.002 20.844,0.003c312.862,0.052 625.724,0.13 938.586,0.219c2.93,0.001 5.861,0.002 8.879,0.003c146.549,0.041 293.098,0.085 439.646,0.129l0,270.834c-149.209,0.114 -298.418,0.224 -447.627,0.33c-4.38,0.003 -4.38,0.003 -8.848,0.007c-312.771,0.222 -625.542,0.414 -938.313,0.545c-6.946,0.003 -13.891,0.006 -20.837,0.009c-145.779,0.06 -291.559,0.117 -437.339,0.169c-73.227,0.026 -146.454,0.052 -219.682,0.08c-11.046,0.004 -22.092,0.008 -33.138,0.012c-170.147,0.064 -340.294,0.146 -510.442,0.278c-5.489,0.004 -5.489,0.004 -11.09,0.009c-59.009,0.046 -118.019,0.093 -177.028,0.141c-169.913,0.138 -339.825,0.264 -509.738,0.318c-3.492,0.002 -6.985,0.003 -10.583,0.004c-76.653,0.024 -153.307,0.043 -229.961,0.056c-30.84,0.005 -61.681,0.012 -92.521,0.018c-3.375,0.001 -6.751,0.002 -10.228,0.002c-108.854,0.023 -217.706,0.112 -326.56,0.236c-109.603,0.124 -219.206,0.184 -328.81,0.153c-15.128,-0.004 -30.257,-0.008 -45.386,-0.011c-4.449,-0.001 -4.449,-0.001 -8.987,-0.002c-47.057,-0.008 -94.114,0.055 -141.171,0.146c-46.216,0.088 -92.43,0.101 -138.646,0.038c-24.746,-0.032 -49.491,-0.03 -74.237,0.063c-22.474,0.084 -44.946,0.074 -67.42,-0.015c-8.117,-0.015 -16.234,0.006 -24.35,0.064c-10.959,0.075 -21.91,0.023 -32.869,-0.063c-3.175,0.052 -6.35,0.105 -9.621,0.159c-15.836,-0.267 -22.399,-1.467 -34.024,-12.598c-7.488,-12.895 -8.443,-20.556 -8.401,-35.399c-0.026,-4.81 -0.052,-9.62 -0.078,-14.575c0.06,-5.153 0.12,-10.305 0.181,-15.614c0.004,-5.315 0.008,-10.629 0.012,-16.105c0.025,-11.22 0.082,-22.435 0.194,-33.654c0.142,-14.39 0.173,-28.777 0.167,-43.168c0.003,-13.729 0.076,-27.458 0.148,-41.187c0.01,-5.178 0.019,-10.356 0.028,-15.691c0.054,-4.77 0.107,-9.541 0.161,-14.456c0.032,-4.211 0.064,-8.423 0.097,-12.763c2.277,-20.509 14.295,-19.347 32.121,-19.468Z" style="fill:#fcfcfc;fill-rule:nonzero;"/><path d="M1220.83,4079.17c4.125,1.375 8.25,2.75 12.5,4.166c8.983,0.432 17.978,0.611 26.971,0.66c2.75,0.02 5.5,0.041 8.333,0.062c9.232,0.064 18.464,0.099 27.696,0.134c6.611,0.04 13.222,0.081 19.833,0.125c17.965,0.113 35.93,0.2 53.896,0.283c18.768,0.091 37.536,0.205 56.304,0.317c35.548,0.208 71.097,0.395 106.645,0.575c40.467,0.206 80.934,0.435 121.401,0.666c83.252,0.474 166.503,0.919 249.755,1.345c0.006,3.8 0.012,7.6 0.018,11.515c0.155,92.727 0.401,185.453 0.748,278.179c0.165,44.842 0.301,89.685 0.363,134.528c0.054,39.113 0.167,78.226 0.348,117.339c0.094,20.684 0.16,41.368 0.156,62.053c-0.004,19.525 0.072,39.048 0.205,58.573c0.035,7.113 0.043,14.225 0.019,21.338c-0.278,96.606 24.615,188.873 92.332,260.746c25.656,25.446 52.408,44.711 84.456,61.198c2.598,1.357 5.195,2.713 7.871,4.111c40.33,19.767 82.209,26.113 126.765,25.837c4.524,-0.024 9.048,-0.048 13.708,-0.073c79.964,-1.757 150.053,-32.031 206.344,-89.511c17.384,-18.32 32.093,-37.193 45.833,-58.333l4.167,0l-0,241.667c-126.047,19.277 -252.272,37.009 -378.592,54.374c-38.981,5.36 -77.954,10.779 -116.916,16.28c-4.494,0.634 -8.987,1.268 -13.617,1.922c-8.812,1.244 -17.624,2.488 -26.436,3.732c-73.674,10.396 -147.382,20.374 -221.22,29.539c-30.003,3.743 -59.832,7.927 -89.632,13.079c-21.586,3.454 -43.31,5.617 -65.045,7.897c-37.879,4.1 -75.729,8.349 -113.542,13.02c-3.946,0.478 -7.893,0.956 -11.959,1.448c-18.544,2.315 -36.876,5.017 -55.229,8.546c-31.547,5.915 -63.443,9.252 -95.312,12.923c-12.328,1.423 -24.654,2.863 -36.979,4.313c-5.403,0.624 -10.807,1.247 -16.374,1.889c-13.363,1.468 -13.363,1.468 -25.814,6.038l0,-1312.5Z" style="fill:#d6dbe1;fill-rule:nonzero;"/><path d="M7327.6,3765.1c3.019,-0.156 6.037,-0.311 9.147,-0.472c16.45,-0.268 26.794,1.128 39.909,11.507c14.58,15.281 20.21,25.696 20.234,46.797c0.024,3.763 0.048,7.525 0.073,11.402c-0.015,4.117 -0.031,8.234 -0.047,12.476c0.016,4.386 0.031,8.773 0.048,13.292c0.043,14.746 0.026,29.492 0.01,44.238c0.018,10.553 0.039,21.105 0.064,31.658c0.05,25.719 0.061,51.437 0.051,77.155c-0.007,20.905 -0,41.809 0.018,62.713c0.002,2.974 0.005,5.948 0.007,9.012c0.005,6.042 0.01,12.084 0.015,18.125c0.046,56.676 0.037,113.351 0.011,170.027c-0.021,51.849 0.026,103.698 0.105,155.547c0.081,53.234 0.115,106.467 0.099,159.701c-0.008,29.888 0.003,59.777 0.062,89.665c0.054,28.105 0.044,56.21 -0.01,84.315c-0.01,10.324 0.001,20.647 0.036,30.97c0.043,14.077 0.01,28.152 -0.043,42.229c0.03,4.099 0.061,8.197 0.093,12.42c-0.229,28.763 -4.726,46.732 -25.555,67.842c-15.172,10.351 -25.592,13.249 -43.653,16.049c-2.885,0.471 -5.77,0.943 -8.742,1.428c-6.148,0.996 -12.302,1.955 -18.46,2.881c-9.279,1.399 -18.534,2.904 -27.79,4.443c-19.671,3.256 -39.364,6.362 -59.061,9.46c-7.305,1.156 -14.611,2.312 -21.916,3.47c-15.231,2.411 -30.463,4.816 -45.696,7.216c-19.181,3.022 -38.36,6.054 -57.538,9.09c-78.772,12.469 -157.558,24.843 -236.396,36.89c-27.894,4.264 -55.783,8.564 -83.669,12.881c-2.877,0.441 -5.754,0.882 -8.718,1.336c-8.462,1.297 -16.921,2.608 -25.38,3.921c-4.831,0.745 -9.662,1.49 -14.639,2.258c-12.184,1.866 -12.184,1.866 -24.44,6.287c-24.08,1.962 -46.401,3.134 -69.01,-5.989c-25.714,-27.033 -29.266,-57.702 -28.939,-93.646c-0.026,-4.438 -0.052,-8.877 -0.079,-13.449c-0.066,-14.798 -0.014,-29.592 0.038,-44.389c-0.022,-10.639 -0.052,-21.277 -0.088,-31.915c-0.068,-25.846 -0.058,-51.692 -0.01,-77.539c0.038,-21.007 0.043,-42.014 0.025,-63.021c-0.003,-2.994 -0.005,-5.989 -0.008,-9.074c-0.005,-6.083 -0.011,-12.167 -0.016,-18.25c-0.048,-56.978 0.007,-113.956 0.096,-170.933c0.075,-48.873 0.062,-97.746 -0.015,-146.619c-0.089,-56.799 -0.124,-113.597 -0.073,-170.396c0.005,-6.057 0.011,-12.114 0.016,-18.171c0.002,-2.98 0.005,-5.96 0.008,-9.03c0.014,-20.984 -0.01,-41.968 -0.05,-62.953c-0.051,-28.239 -0.014,-56.477 0.082,-84.716c0.022,-10.37 0.016,-20.741 -0.021,-31.111c-0.046,-14.14 0.011,-28.277 0.095,-42.417c-0.038,-4.117 -0.075,-8.234 -0.113,-12.475c0.273,-23.838 3.068,-37.436 18.896,-56.407c2.836,-3.781 5.672,-7.562 8.593,-11.458c12.526,-9.594 17.392,-11.171 32.406,-13.656c4.106,-0.68 8.212,-1.36 12.442,-2.061c23.123,-3.482 46.277,-6.603 69.475,-9.543c2.744,-0.352 5.488,-0.703 8.314,-1.065c52.099,-6.666 104.267,-12.692 156.448,-18.668c76.654,-8.796 153.214,-18.318 229.77,-27.924c4.464,-0.56 4.464,-0.56 9.018,-1.131c29.928,-3.756 59.855,-7.519 89.78,-11.291c4.419,-0.556 8.837,-1.111 13.389,-1.684c7.41,-0.935 14.82,-1.879 22.227,-2.835c19.775,-2.539 39.161,-4.019 59.075,-4.413Z" style="fill:#72777c;fill-rule:nonzero;"/><path d="M1245.83,3920.83l4900,0l0,120.834c-149.785,0.023 -299.57,0.045 -449.356,0.066c-4.396,0 -4.396,0 -8.881,0.001c-313.949,0.045 -627.898,0.083 -941.847,0.109c-6.971,0.001 -13.942,0.001 -20.913,0.002c-146.312,0.012 -292.623,0.023 -438.935,0.034c-73.494,0.005 -146.987,0.01 -220.481,0.016c-11.086,0.001 -22.173,0.001 -33.259,0.002c-170.784,0.013 -341.568,0.029 -512.353,0.056c-3.674,0 -7.348,0.001 -11.133,0.001c-59.239,0.01 -118.479,0.019 -177.718,0.029c-170.557,0.027 -341.114,0.053 -511.671,0.063c-5.257,0.001 -5.257,0.001 -10.621,0.001c-76.927,0.005 -153.854,0.009 -230.78,0.011c-30.95,0.001 -61.899,0.003 -92.849,0.004c-5.081,0 -5.081,0 -10.264,0c-109.272,0.005 -218.545,0.023 -327.817,0.048c-110.008,0.024 -220.017,0.036 -330.025,0.03c-15.179,-0.001 -30.357,-0.001 -45.535,-0.002c-2.976,-0 -5.951,-0 -9.017,-0c-47.247,-0.002 -94.494,0.01 -141.741,0.029c-46.381,0.017 -92.761,0.02 -139.142,0.007c-24.843,-0.006 -49.686,-0.006 -74.529,0.013c-22.547,0.017 -45.094,0.015 -67.641,-0.003c-8.158,-0.003 -16.315,0.001 -24.472,0.013c-10.981,0.015 -21.962,0.004 -32.943,-0.013c-3.217,0.011 -6.435,0.021 -9.749,0.032c-21.685,-0.074 -21.685,-0.074 -26.328,-4.716l0,-116.667Z" style="fill:#fdfdfd;fill-rule:nonzero;"/><path d="M7117.71,3162.24c5.704,0.056 5.704,0.056 11.524,0.114c4.093,0.072 4.093,0.072 8.268,0.146l0,4.167c-6.547,0.692 -6.547,0.692 -13.226,1.397c-16.48,1.745 -32.959,3.503 -49.437,5.266c-7.078,0.755 -14.157,1.506 -21.236,2.254c-10.283,1.087 -20.565,2.187 -30.847,3.29c-3.071,0.321 -6.142,0.643 -9.307,0.974c-18.762,2.028 -37.373,4.575 -56.029,7.422c-36.909,5.34 -73.984,8.339 -111.136,11.458c-22.057,1.867 -44.105,3.832 -66.155,5.78c-27.883,2.459 -55.767,4.887 -83.661,7.209c-22.715,1.893 -45.42,3.886 -68.121,5.945c-8.584,0.761 -17.172,1.485 -25.763,2.171c-77.497,5.937 -77.497,5.937 -141.645,47.354c-69.81,94.173 -71.228,223.39 -70.886,335.409c-0.017,9.475 -0.04,18.95 -0.068,28.425c-0.059,25.727 -0.042,51.454 -0.011,77.181c0.017,24.991 -0.024,49.982 -0.063,74.973c-0.081,54.179 -0.091,108.358 -0.07,162.537c0.019,47.378 0.017,94.757 -0.007,142.136c-0.003,6.375 -0.007,12.75 -0.01,19.125c-0.004,9.609 -0.009,19.217 -0.014,28.826c-0.045,89.183 -0.065,178.367 -0.032,267.551c0.002,3.354 0.003,6.708 0.004,10.164c0.01,27.231 0.021,54.463 0.032,81.694c0.042,106.366 0.007,212.731 -0.089,319.097c-0.109,119.683 -0.162,239.366 -0.133,359.05c0.003,12.757 0.006,25.513 0.009,38.27c0,3.141 0.001,6.282 0.002,9.517c0.009,47.382 -0.024,94.764 -0.079,142.145c-0.062,53.841 -0.065,107.682 0.009,161.523c0.036,27.465 0.044,54.93 -0.019,82.395c-0.058,25.139 -0.038,50.276 0.042,75.415c0.016,9.093 0.004,18.187 -0.04,27.281c-0.054,12.365 -0.006,24.726 0.067,37.092c-0.06,5.287 -0.06,5.287 -0.122,10.682c0.325,26.708 8.067,47.29 18.874,71.492c2.063,6.187 2.063,6.187 4.167,12.5c-24.982,0.516 -49.96,0.894 -74.946,1.144c-8.491,0.105 -16.982,0.247 -25.472,0.427c-12.237,0.254 -24.469,0.371 -36.708,0.463c-5.652,0.161 -5.652,0.161 -11.419,0.326c-21.122,0.009 -36.842,-1.955 -53.205,-16.109c-22.087,-23.769 -25.688,-53.599 -25.336,-84.668c-0.023,-3.878 -0.046,-7.756 -0.069,-11.751c-0.057,-12.968 0.005,-25.933 0.067,-38.901c-0.017,-9.402 -0.04,-18.805 -0.07,-28.207c-0.062,-25.82 -0.019,-51.639 0.04,-77.458c0.042,-24.995 0.005,-49.989 -0.029,-74.983c-0.072,-54.284 -0.049,-108.569 0.014,-162.853c0.054,-47.54 0.076,-95.079 0.065,-142.619c-0.001,-3.155 -0.001,-6.31 -0.002,-9.561c-0.003,-12.81 -0.006,-25.62 -0.009,-38.43c-0.029,-120.189 0.035,-240.377 0.144,-360.566c0.097,-106.636 0.119,-213.271 0.076,-319.907c-0.01,-27.279 -0.021,-54.557 -0.031,-81.836c-0.001,-3.359 -0.003,-6.718 -0.004,-10.179c-0.032,-89.217 -0.005,-178.435 0.04,-267.653c0.005,-9.612 0.01,-19.223 0.014,-28.835c0.003,-6.376 0.007,-12.751 0.01,-19.127c0.023,-47.456 0.018,-94.913 -0.001,-142.369c-0.021,-54.041 0.003,-108.082 0.087,-162.123c0.042,-27.546 0.063,-55.093 0.03,-82.64c-0.03,-25.275 -0.001,-50.549 0.073,-75.823c0.017,-9.088 0.013,-18.176 -0.015,-27.264c-0.277,-100.019 1.652,-224.022 73.433,-302.545c54.399,-49.965 134.292,-48.349 203.744,-54.964c8.919,-0.873 17.839,-1.749 26.758,-2.628c13.21,-1.302 26.422,-2.599 39.634,-3.879c25.027,-2.426 50.033,-4.984 75.03,-7.685c57.911,-6.21 115.942,-11.251 173.942,-16.537c23.205,-2.115 46.41,-4.234 69.613,-6.364c2.849,-0.261 5.698,-0.522 8.633,-0.792c47.771,-4.389 95.508,-9.065 143.231,-13.943c88.25,-8.978 88.25,-8.978 117.846,-8.588Z" style="fill:#fdfdfc;fill-rule:nonzero;"/><path d="M4554.17,4087.5l533.333,0c0.672,188.864 0.672,188.864 0.814,268.197c0.099,54.709 0.214,109.418 0.443,164.127c0.167,39.85 0.274,79.7 0.311,119.55c0.022,21.083 0.072,42.164 0.194,63.247c0.114,19.883 0.148,39.766 0.123,59.65c0.005,7.259 0.037,14.518 0.102,21.777c0.724,85.888 -23.149,160.768 -81.951,224.936c-51.395,52.039 -121.888,74.493 -193.734,76.172c-53.077,0.089 -99.55,-16.986 -142.969,-47.656c-3.459,-2.39 -6.918,-4.78 -10.481,-7.243c-55.189,-40.884 -90.882,-103.413 -104.221,-170.501c-2.162,-15.326 -2.53,-30.282 -2.465,-45.718c-0.004,-3.118 -0.008,-6.236 -0.011,-9.449c-0.007,-10.402 0.016,-20.804 0.039,-31.206c0.001,-7.475 0,-14.95 -0.002,-22.425c-0.001,-20.263 0.023,-40.526 0.052,-60.789c0.026,-21.187 0.029,-42.374 0.034,-63.561c0.013,-40.108 0.047,-80.216 0.089,-120.324c0.055,-54.206 0.077,-108.413 0.102,-162.62c0.039,-85.388 0.122,-170.776 0.198,-256.164Z" style="fill:#9ba3ab;fill-rule:nonzero;"/><path d="M1308.33,3212.5c-13.049,10.33 -26.813,18.589 -41.259,26.774c-46.183,34.658 -63.207,96.935 -73.529,150.949c-1.287,6.7 -2.623,13.391 -3.999,20.073c-5.169,26.174 -7.408,50.99 -7.273,77.631c-0.013,3.994 -0.027,7.988 -0.04,12.103c-0.035,13.312 -0.01,26.622 0.014,39.933c-0.012,9.669 -0.029,19.338 -0.048,29.007c-0.043,26.514 -0.034,53.029 -0.016,79.544c0.013,25.675 -0.021,51.35 -0.049,77.025c-0.064,58.977 -0.071,117.954 -0.06,176.931c0.007,45.538 -0,91.077 -0.018,136.616c-0.003,6.546 -0.005,13.092 -0.008,19.638c-0.003,9.865 -0.007,19.73 -0.011,29.595c-0.035,91.688 -0.053,183.377 -0.036,275.066c0.001,3.455 0.002,6.91 0.002,10.47c0.004,17.51 0.007,35.021 0.011,52.531c0.001,5.217 0.001,5.217 0.002,10.538c0.001,7.033 0.003,14.065 0.004,21.098c0.023,109.461 -0.011,218.923 -0.087,328.384c-0.087,123.018 -0.131,246.035 -0.115,369.052c0.002,13.116 0.003,26.232 0.005,39.347c0,3.23 0.001,6.459 0.001,9.786c0.005,48.746 -0.023,97.492 -0.067,146.237c-0.05,55.429 -0.057,110.857 -0.005,166.285c0.025,28.283 0.029,56.566 -0.021,84.85c-0.045,25.888 -0.032,51.776 0.026,77.664c0.011,9.368 0.001,18.735 -0.032,28.102c-0.042,12.735 -0.007,25.467 0.047,38.201c-0.03,3.635 -0.061,7.269 -0.092,11.013c0.227,25.824 5.693,47.898 14.153,72.224c2.063,6.187 2.063,6.187 4.167,12.5c-22.685,0.413 -45.367,0.715 -68.054,0.915c-7.711,0.084 -15.422,0.197 -23.133,0.342c-11.109,0.203 -22.214,0.297 -33.325,0.37c-3.425,0.086 -6.851,0.172 -10.38,0.261c-22.356,0.009 -34.81,-3.795 -52.608,-18.555c-6.852,-8.333 -6.852,-8.333 -11.719,-16.667c-1.659,-2.75 -3.319,-5.5 -5.029,-8.333c-6.744,-13.757 -8.772,-26.461 -8.789,-41.69c-0.02,-4.959 -0.02,-4.959 -0.041,-10.018c0.006,-3.615 0.012,-7.229 0.019,-10.953c-0.01,-3.87 -0.02,-7.739 -0.03,-11.725c-0.028,-13.063 -0.026,-26.125 -0.024,-39.188c-0.014,-9.422 -0.029,-18.844 -0.047,-28.266c-0.041,-25.969 -0.057,-51.939 -0.068,-77.908c-0.015,-25.11 -0.048,-50.22 -0.081,-75.329c-0.087,-67.304 -0.131,-134.609 -0.168,-201.913c-0.017,-31.857 -0.039,-63.714 -0.061,-95.572c-0.074,-109.097 -0.137,-218.194 -0.168,-327.292c-0.002,-6.85 -0.004,-13.701 -0.006,-20.552c-0.001,-3.397 -0.002,-6.795 -0.003,-10.295c-0.005,-17.212 -0.01,-34.424 -0.015,-51.636c-0.001,-3.415 -0.002,-6.831 -0.003,-10.35c-0.033,-110.63 -0.13,-221.259 -0.266,-331.888c-0.143,-117.016 -0.225,-234.032 -0.239,-351.049c-0.001,-12.863 -0.003,-25.726 -0.006,-38.589c-0,-3.167 -0.001,-6.334 -0.001,-9.597c-0.01,-50.844 -0.075,-101.687 -0.16,-152.531c-0.085,-51.184 -0.107,-102.367 -0.068,-153.551c0.02,-27.698 0.011,-55.396 -0.07,-83.094c-0.074,-25.409 -0.069,-50.817 -0.004,-76.226c0.009,-9.142 -0.008,-18.284 -0.058,-27.426c-0.499,-97.883 8.462,-222.1 77.512,-297.965c40.242,-38.752 86.051,-43.654 139.437,-47.689c6.117,-0.52 12.234,-1.047 18.351,-1.578c29.247,-2.47 58.266,-4.291 87.638,-3.63Z" style="fill:#fbfbfb;fill-rule:nonzero;"/><path d="M2562.07,5257.82c6.267,-0.003 12.533,-0.008 18.799,-0.015c17.204,-0.013 34.409,0 51.613,0.018c18.722,0.014 37.444,0.004 56.166,-0.003c32.808,-0.008 65.615,-0.001 98.422,0.016c48.783,0.025 97.566,0.026 146.349,0.022c82.061,-0.005 164.123,0.009 246.185,0.034c81.256,0.024 162.512,0.04 243.768,0.045c7.577,0 7.577,0 15.307,0.001c25.654,0.001 51.308,0.003 76.962,0.004c181.725,0.008 363.45,0.037 545.175,0.076c176.548,0.038 353.096,0.068 529.643,0.085c5.442,0.001 10.883,0.002 16.49,0.002c54.646,0.006 109.293,0.011 163.94,0.016c111.322,0.011 222.644,0.022 333.966,0.035c5.119,0 10.237,0.001 15.511,0.002c341.824,0.038 683.648,0.104 1025.47,0.174l0,120.834l-4483.33,-0c16.231,-8.116 26.19,-10.251 43.913,-12.354c5.39,-0.661 10.781,-1.322 16.335,-2.003c2.834,-0.334 5.668,-0.669 8.589,-1.013c14.736,-1.742 29.46,-3.587 44.184,-5.431c2.887,-0.36 5.774,-0.72 8.748,-1.091c21.486,-2.708 42.839,-5.882 64.168,-9.619c26.335,-4.598 52.701,-8.723 79.167,-12.5c3.328,-0.478 6.656,-0.956 10.085,-1.449c43.65,-6.168 87.425,-11.452 131.209,-16.573c81.725,-9.59 163.09,-20.948 244.457,-33.184c24.973,-3.753 49.949,-7.481 74.928,-11.196c8.554,-1.276 17.106,-2.566 25.658,-3.857c5.225,-0.78 10.451,-1.56 15.835,-2.364c4.526,-0.68 9.052,-1.361 13.716,-2.062c39.67,-5.268 78.552,-6.729 118.573,-6.65Z" style="fill:#d5d9e0;fill-rule:nonzero;"/><path d="M3654.17,4087.5l537.5,0l-0,308.333l-391.667,0l0,41.667l395.833,0c0.258,61.102 0.516,122.203 0.782,185.156c0.17,28.726 0.17,28.726 0.344,58.031c0.057,23.749 0.057,23.749 0.067,34.937c0.019,7.66 0.063,15.32 0.127,22.98c0.492,61.873 0.061,127.335 -27.361,184.313c-1.26,2.739 -2.519,5.478 -3.817,8.3c-10.82,22.672 -24.258,41.7 -40.975,60.45c-2.213,2.846 -4.426,5.693 -6.706,8.626c-33.34,41.755 -89.98,73.16 -142.806,81.852c-80.236,7.34 -150.683,-2.675 -216.292,-53.694c-10.42,-9.144 -20.281,-18.599 -30.029,-28.451c-2.648,-2.508 -5.296,-5.017 -8.024,-7.601c-24.218,-24.754 -37.993,-56.263 -50.31,-88.232c-1.409,-3.376 -2.818,-6.751 -4.27,-10.228c-16.773,-45.757 -14.507,-91.356 -14.024,-139.463c0.031,-9.171 0.055,-18.342 0.072,-27.513c0.063,-23.968 0.226,-47.934 0.411,-71.902c0.172,-24.525 0.247,-49.05 0.331,-73.575c0.178,-47.996 0.471,-95.991 0.814,-143.986l108.333,0l0,-41.667l-108.333,0l-0,-308.333Z" style="fill:#9ba2aa;fill-rule:nonzero;"/><path d="M5420.83,4087.5l537.5,0l0,295.833l-391.666,0l-0,41.667l391.666,0c0.502,99.232 0.502,99.232 0.611,141.895c0.074,28.983 0.162,57.967 0.332,86.95c0.137,23.396 0.211,46.792 0.243,70.189c0.023,8.876 0.068,17.753 0.136,26.629c0.486,66.026 0.502,131.472 -33.093,190.483c-1.834,3.331 -3.668,6.663 -5.558,10.095c-37.165,65.452 -92.678,105.292 -164.233,127.144c-73.128,16.452 -141.273,5.893 -205.99,-31.25c-42.061,-27.558 -72.384,-61.594 -96.614,-105.468c-1.972,-3.545 -3.943,-7.09 -5.974,-10.743c-31.078,-61.603 -29.101,-129.501 -28.58,-196.679c0.023,-8.966 0.041,-17.933 0.053,-26.899c0.047,-23.371 0.17,-46.742 0.309,-70.113c0.129,-23.94 0.185,-47.88 0.248,-71.82c0.133,-46.805 0.353,-93.609 0.61,-140.413l104.167,0l-0,-41.667l-104.167,0l0,-295.833Z" style="fill:#9ea5ad;fill-rule:nonzero;"/><path d="M1950,4087.5l533.333,0l0,295.833l-387.5,0l0,41.667l391.667,0c0.334,97.821 0.334,97.821 0.407,139.746c0.05,28.528 0.108,57.056 0.222,85.584c0.091,23.018 0.14,46.035 0.162,69.053c0.015,8.751 0.045,17.502 0.09,26.252c0.526,106.017 -17.065,193.681 -93.492,272.301c-50.751,49.322 -118.489,66.555 -187.628,66.113c-61.133,-0.891 -119.693,-26.384 -165.594,-67.382c-4.061,-3.489 -4.061,-3.489 -8.203,-7.048c-45.488,-41.901 -81.129,-109.496 -83.834,-172.377c-0.143,-10.804 -0.145,-21.6 -0.103,-32.405c-0.001,-6.161 -0.001,-6.161 -0.002,-12.447c0.003,-13.55 0.035,-27.099 0.068,-40.648c0.008,-9.406 0.014,-18.811 0.018,-28.217c0.016,-24.735 0.057,-49.47 0.103,-74.205c0.043,-25.248 0.062,-50.496 0.083,-75.744c0.044,-49.525 0.118,-99.051 0.203,-148.576l104.167,-0l-0,-41.667l-104.167,0l0,-295.833Z" style="fill:#9ea5ad;fill-rule:nonzero;"/><path d="M2800,4087.5l533.333,0l0,395.833c-148.447,4.789 -148.447,4.789 -198.291,4.574c-5.607,-0.008 -11.214,-0.014 -16.822,-0.018c-14.225,-0.015 -28.451,-0.056 -42.676,-0.103c-14.729,-0.044 -29.459,-0.062 -44.188,-0.083c-28.508,-0.043 -57.015,-0.114 -85.523,-0.203l0,41.667l387.5,-0c0.43,45.976 0.86,91.953 1.302,139.323c0.19,14.364 0.38,28.729 0.575,43.529c0.094,17.929 0.094,17.929 0.112,26.398c0.031,5.751 0.103,11.501 0.211,17.251c1.459,82.231 -23.242,158.449 -80.579,218.866c-53.906,54.678 -115.808,80.186 -192.454,81.195c-70.817,0.282 -134.638,-29.463 -185.905,-78.092c-60.169,-66.482 -78.06,-146.976 -77.409,-234.44c0.016,-6.2 0.028,-12.399 0.036,-18.599c0.031,-16.179 0.113,-32.358 0.206,-48.537c0.086,-16.564 0.123,-33.129 0.165,-49.694c0.089,-32.4 0.235,-64.8 0.407,-97.2l104.167,-0l-0,-41.667l-104.167,0l0,-400Z" style="fill:#9aa1a9;fill-rule:nonzero;"/><path d="M2529.17,3675l225,0l-0,66.667c-6.188,4.125 -6.188,4.125 -12.5,8.333c-1.515,9.197 -1.515,9.197 -0.782,19.271c0.113,3.405 0.226,6.81 0.342,10.319c0.145,2.61 0.29,5.221 0.44,7.91c33.77,14.634 69.423,22.927 105.468,29.688c3.532,0.703 7.063,1.407 10.702,2.132c48.539,9.235 97.429,10.522 146.72,10.693c8.175,0.036 8.175,0.036 16.515,0.072c11.471,0.043 22.942,0.068 34.413,0.083c11.562,0.018 23.123,0.076 34.684,0.171c158.271,5.381 158.271,5.381 301.498,-51.172c3.127,-14.94 3.127,-14.94 -0,-29.167c-4.125,-2.75 -8.25,-5.5 -12.5,-8.333l-0,-66.667l229.166,0c0,66.667 0,66.667 -12.5,79.167c-1.301,13.017 -0.002,20.826 4.167,33.333c9.41,4.797 9.41,4.797 20.833,8.333c5.64,1.99 5.64,1.99 11.394,4.021c37.38,12.056 74.807,19.689 113.606,25.146c3.132,0.441 6.263,0.882 9.489,1.337c71.539,9.515 143.522,8.117 215.511,6.996c5.985,-0.054 5.985,-0.054 12.091,-0.11c47.812,-0.541 94.808,-6.68 142.076,-13.431c2.94,-0.402 5.88,-0.804 8.909,-1.218c37.636,-5.225 74.339,-11.98 107.758,-31.074c8.979,-13.469 10.285,-17.715 8.333,-33.333c-4.125,-4.125 -8.25,-8.25 -12.5,-12.5l0,-66.667l270.833,-0l0,66.667c-5.5,1.375 -11,2.75 -16.666,4.166c-1.863,20.493 -1.863,20.493 6.51,38.542c28.065,20.149 59.878,24.709 93.229,30.729c4.676,0.903 9.351,1.805 14.169,2.735c66.997,12.326 134.214,12.105 202.104,12.1c13.839,0.009 27.677,0.085 41.515,0.164c148.477,1.221 148.477,1.221 288.306,-42.603c9.884,-8.102 9.884,-8.102 9.635,-22.917c-0.644,-7.218 -0.644,-7.218 -1.302,-14.583c-4.125,-2.75 -8.25,-5.5 -12.5,-8.333l0,-66.667l241.667,-0c0,66.667 0,66.667 -12.5,79.167c-0.324,14.751 -0.324,14.751 4.167,29.166c26.336,23.72 66.147,26.964 99.739,33.854c3.424,0.712 6.848,1.423 10.376,2.156c45.516,9.022 90.63,10.483 136.939,10.524c5.66,0.013 11.32,0.027 16.98,0.042c11.804,0.024 23.609,0.032 35.413,0.03c11.963,-0.001 23.926,0.028 35.889,0.085c91.03,0.952 91.03,0.952 181.33,-9.191c2.737,-0.476 5.473,-0.953 8.292,-1.444c64.96,-9.31 64.96,-9.31 120.875,-40.222c3.021,-12.014 1.402,-20.719 0,-33.334c-4.125,-2.75 -8.25,-5.5 -12.5,-8.333l0,-62.5l141.667,-0l-0,200l-4729.17,-0l0,-4.167c4.17,-0.783 4.17,-0.783 8.424,-1.581c13.254,-2.498 26.503,-5.016 39.753,-7.533c4.364,-0.819 8.728,-1.638 13.224,-2.482c35.003,-6.672 69.801,-14.134 104.608,-21.754c42.264,-9.245 84.593,-18.17 126.946,-27.003c12.859,-2.685 25.715,-5.386 38.572,-8.087c20.437,-4.286 40.898,-8.442 61.37,-12.56c10.802,-2.236 21.549,-4.653 32.302,-7.114c6.324,-1.35 12.649,-2.698 18.974,-4.041c2.791,-0.693 5.582,-1.385 8.457,-2.099c7.894,-1.593 7.894,-1.593 22.37,-1.579c13.12,9.736 13.12,9.736 25,20.833c10.309,4.76 10.309,4.76 20.915,7.211c3.923,1.023 7.847,2.046 11.889,3.1c4.042,0.98 8.084,1.961 12.248,2.971c3.865,1.028 7.729,2.057 11.711,3.116c70.093,17.725 140.227,18.376 212.09,18.251c15.594,-0.013 31.186,0.085 46.78,0.19c160.978,4.578 160.978,4.578 309.367,-47.339c5.846,-14.508 5.846,-14.508 4.167,-29.166c-4.125,-4.125 -8.25,-8.25 -12.5,-12.5l-0,-66.667Z" style="fill:#fbfbfb;fill-rule:nonzero;"/><path d="M1904.17,3204.17l-0,525c-49.5,9.625 -99,19.25 -150,29.166c-28.313,5.671 -56.617,11.359 -84.896,17.188c-3.37,0.691 -6.739,1.382 -10.21,2.094c-41.949,8.609 -83.755,17.623 -125.441,27.435c-35.343,8.159 -71.02,14.481 -106.696,20.975c-58.333,10.665 -115.919,23.872 -173.533,37.888c-10.819,2.541 -21.656,4.769 -32.558,6.92c-0.291,-51.872 -0.512,-103.745 -0.647,-155.618c-0.065,-24.095 -0.153,-48.189 -0.296,-72.284c-0.137,-23.315 -0.211,-46.63 -0.243,-69.946c-0.022,-8.831 -0.067,-17.662 -0.135,-26.493c-0.666,-89.899 0.596,-204.934 67.728,-273.836c49.36,-38.036 135.242,-32.134 194.531,-36.979c10.544,-0.887 21.088,-1.779 31.631,-2.673c21.346,-1.81 42.693,-3.604 64.041,-5.39c28.617,-2.406 57.221,-4.93 85.822,-7.513c4.25,-0.383 8.5,-0.767 12.879,-1.162c16.029,-1.448 32.058,-2.898 48.085,-4.36c60.039,-5.463 119.594,-10.412 179.938,-10.412Z" style="fill:#d6dbe0;fill-rule:nonzero;"/><path d="M7362.5,3916.67l0,475c-52.25,6.875 -104.5,13.75 -158.333,20.833c-36.715,6.109 -36.715,6.109 -73.283,12.844c-16.573,3.2 -33.177,6.236 -49.78,9.275c-3.322,0.609 -6.644,1.218 -10.066,1.845c-33.55,6.081 -67.232,11.084 -100.986,15.88c-49.938,7.105 -99.732,14.832 -149.479,23.177c-4.573,0.765 -4.573,0.765 -9.239,1.546c-8.863,1.486 -17.724,2.98 -26.585,4.476c-2.855,0.48 -5.71,0.96 -8.652,1.454c-14.956,2.535 -29.878,5.194 -44.78,8.031c-3.103,0.58 -6.207,1.159 -9.405,1.757c-5.836,1.095 -11.667,2.219 -17.49,3.38c-23.3,4.338 -42.151,3.835 -66.922,3.835l-0,-491.667c37.125,-4.125 74.25,-8.25 112.5,-12.5c29.574,-4.574 29.574,-4.574 59.115,-9.358c43.007,-6.954 86.394,-11.592 129.64,-16.795c37.085,-4.471 73.968,-9.678 110.883,-15.358c21.674,-3.287 43.229,-5.795 65.092,-7.48c11.118,-1.092 21.933,-2.933 32.926,-4.915c22.338,-3.925 44.623,-6.249 67.188,-8.333c32.44,-3 64.445,-7.326 96.542,-12.906c3.064,-0.521 6.128,-1.043 9.285,-1.58c2.655,-0.471 5.31,-0.941 8.046,-1.426c11.192,-1.294 22.517,-1.015 33.783,-1.015Z" style="fill:#d5dae0;fill-rule:nonzero;"/><path d="M5420.83,3175l537.5,0l0,587.5c-76.986,30.795 -170.962,26.399 -252.554,26.086c-13.828,-0.044 -27.653,0 -41.48,0.053c-43.967,0.034 -87.674,-0.955 -131.503,-4.59c-3.593,-0.287 -7.186,-0.575 -10.888,-0.872c-34.43,-3.213 -66.646,-10.055 -101.075,-16.51l0,-591.667Z" style="fill:#fbfbfb;fill-rule:nonzero;"/><path d="M4550,3175l537.5,0l0,587.5c-78.123,19.531 -78.123,19.531 -102.832,21.794c-3.195,0.312 -6.39,0.623 -9.682,0.945c-46.076,3.963 -92.391,3.656 -138.601,3.576c-15.96,-0.013 -31.916,0.085 -47.876,0.191c-78.759,0.202 -157.596,-3.223 -234.342,-22.339c-4.167,-4.167 -4.167,-4.167 -4.68,-13.855c0.004,-4.328 0.008,-8.657 0.012,-13.117c-0.009,-7.423 -0.009,-7.423 -0.017,-14.997c0.015,-5.479 0.03,-10.957 0.045,-16.602c0.001,-5.788 0,-11.577 -0.002,-17.366c-0.001,-15.762 0.024,-31.524 0.053,-47.286c0.025,-16.455 0.028,-32.909 0.033,-49.364c0.013,-31.181 0.047,-62.362 0.089,-93.542c0.055,-42.12 0.078,-84.239 0.102,-126.359c0.039,-66.393 0.122,-132.786 0.198,-199.179Z" style="fill:#fdfdfd;fill-rule:nonzero;"/><path d="M2800,3175l533.333,0l0,587.5c-40.231,11.495 -79.609,17.903 -121.256,21.273c-4.295,0.349 -8.59,0.699 -13.016,1.059c-48.805,3.674 -97.535,4.125 -146.457,3.97c-6.929,-0.005 -6.929,-0.005 -13.998,-0.01c-81.412,-0.14 -158.922,-4.418 -238.606,-22.125l0,-591.667Z" style="fill:#fcfcfc;fill-rule:nonzero;"/><path d="M1950,3175l533.333,0l0,587.5c-56.722,14.18 -56.722,14.18 -78.645,17.188c-4.287,0.612 -8.573,1.224 -12.989,1.855c-56.78,6.509 -113.526,6.951 -170.605,6.999c-4.394,0.007 -8.788,0.014 -13.315,0.021c-86.869,0.008 -172.693,-2.988 -257.779,-21.896l0,-591.667Z" style="fill:#fbfbfb;fill-rule:nonzero;"/><rect x="3654.17" y="3270.83" width="537.5" height="458.333" style="fill:#eff1f3;fill-rule:nonzero;"/><path d="M2800,4087.5l533.333,0l0,395.833c-148.447,4.789 -148.447,4.789 -198.291,4.574c-5.607,-0.008 -11.214,-0.014 -16.822,-0.018c-14.225,-0.015 -28.451,-0.056 -42.676,-0.103c-14.729,-0.044 -29.459,-0.062 -44.188,-0.083c-28.508,-0.043 -57.015,-0.114 -85.523,-0.203c0.16,36.152 0.408,72.301 0.767,108.452c0.163,16.79 0.298,33.579 0.362,50.371c0.064,16.238 0.208,32.473 0.406,48.71c0.061,6.161 0.095,12.321 0.098,18.482c0.048,41.296 1.528,81.658 28.836,114.87c7.031,9.115 7.031,9.115 6.25,22.657c-3.385,11.458 -3.385,11.458 -7.552,15.625c-11.198,2.343 -11.198,2.343 -25,-0c-30.927,-25.021 -43.46,-74.244 -47.648,-112.338c-0.572,-17.236 -0.542,-34.343 -0.22,-51.578c0.039,-6.263 0.069,-12.526 0.089,-18.79c0.079,-16.256 0.283,-32.507 0.515,-48.762c0.216,-16.677 0.309,-33.356 0.413,-50.035c0.222,-32.556 0.587,-65.109 1.018,-97.664l-104.167,0l0,-400Z" style="fill:#fdfdfd;fill-rule:nonzero;"/><path d="M4554.17,4087.5l533.333,0c0.672,188.864 0.672,188.864 0.814,268.197c0.099,54.709 0.214,109.418 0.443,164.127c0.167,39.85 0.274,79.7 0.311,119.55c0.022,21.083 0.072,42.164 0.194,63.247c0.114,19.883 0.148,39.766 0.123,59.65c0.005,7.259 0.037,14.518 0.102,21.777c0.724,85.888 -23.149,160.768 -81.951,224.936c-51.395,52.039 -121.888,74.493 -193.734,76.172c-53.077,0.089 -99.55,-16.986 -142.969,-47.656c-3.459,-2.39 -6.918,-4.78 -10.481,-7.243c-55.189,-40.884 -90.882,-103.413 -104.221,-170.501c-2.162,-15.326 -2.53,-30.282 -2.465,-45.718c-0.004,-3.118 -0.008,-6.236 -0.011,-9.449c-0.007,-10.402 0.016,-20.804 0.039,-31.206c0.001,-7.475 0,-14.95 -0.002,-22.425c-0.001,-20.263 0.023,-40.526 0.052,-60.789c0.026,-21.187 0.029,-42.374 0.034,-63.561c0.013,-40.108 0.047,-80.216 0.089,-120.324c0.055,-54.206 0.077,-108.413 0.102,-162.62c0.039,-85.388 0.122,-170.776 0.198,-256.164Zm145.833,112.5c-0.486,106.364 -0.486,106.364 -0.814,212.728c-0.099,43.389 -0.215,86.778 -0.443,130.168c-0.167,31.603 -0.274,63.206 -0.311,94.81c-0.022,16.722 -0.072,33.444 -0.194,50.166c-0.114,15.766 -0.148,31.531 -0.123,47.298c-0.007,8.49 -0.096,16.981 -0.189,25.471c0.163,36.415 4.135,67.747 28.116,96.39c9.932,13.125 8.548,22.786 7.291,38.802c-11.797,0.236 -18.448,0.203 -29.166,-4.166c-30.307,-32.611 -42.058,-73.704 -42.326,-117.294c-0.041,-5.047 -0.082,-10.095 -0.124,-15.296c-0.024,-5.481 -0.048,-10.963 -0.073,-16.611c-0.039,-5.874 -0.081,-11.748 -0.125,-17.621c-0.112,-15.899 -0.2,-31.797 -0.283,-47.696c-0.091,-16.633 -0.205,-33.265 -0.317,-49.898c-0.207,-31.475 -0.395,-62.95 -0.575,-94.425c-0.206,-35.843 -0.435,-71.685 -0.665,-107.527c-0.474,-73.711 -0.918,-147.421 -1.346,-221.132l-54.166,-0c-0.29,81.313 -0.513,162.626 -0.648,243.94c-0.064,37.758 -0.152,75.516 -0.295,113.274c-0.125,32.922 -0.206,65.843 -0.233,98.765c-0.017,17.422 -0.055,34.842 -0.146,52.263c-0.085,16.423 -0.111,32.844 -0.092,49.267c-0.004,6.003 -0.028,12.006 -0.076,18.008c-0.529,69.258 18.243,126.849 66.968,177.608c4.713,4.64 4.713,4.64 9.522,9.375c2.755,2.75 5.51,5.5 8.349,8.333c39.478,37.006 85.533,52.555 139.014,51.563c60.2,-6.215 114.365,-33.75 156.217,-77.409c47.848,-62.517 55.434,-128.76 55.226,-205.178c-0.001,-5.959 -0,-11.917 0.002,-17.876c0.001,-16.052 -0.023,-32.104 -0.053,-48.157c-0.026,-16.822 -0.028,-33.643 -0.033,-50.465c-0.013,-31.799 -0.047,-63.598 -0.089,-95.397c-0.055,-43.01 -0.078,-86.019 -0.102,-129.028c-0.039,-67.684 -0.122,-135.369 -0.198,-203.053l-337.5,0Z" style="fill:#fafbfb;fill-rule:nonzero;"/><path d="M3654.17,4087.5l537.5,0l-0,308.333l-391.667,0c0.5,69.54 0.5,69.54 1.074,139.079c0.251,28.374 0.494,56.748 0.684,85.122c0.154,22.883 0.347,45.765 0.567,68.648c0.077,8.718 0.14,17.436 0.189,26.154c0.071,12.237 0.192,24.473 0.324,36.71c0.009,3.582 0.018,7.163 0.027,10.853c0.395,28.612 4.534,55.116 17.968,80.83c1.375,2.696 2.75,5.393 4.167,8.171c4.225,7.664 4.225,7.664 12.5,15.267c1.042,12.5 1.042,12.5 0,25c-8.333,8.333 -8.333,8.333 -22.135,8.854c-15.829,-4.829 -17.979,-5.667 -26.563,-18.49c-28.374,-55.544 -28.538,-104.214 -27.93,-165.56c0.032,-9.27 0.055,-18.54 0.072,-27.811c0.063,-24.249 0.227,-48.496 0.412,-72.744c0.171,-24.804 0.246,-49.608 0.33,-74.412c0.178,-48.558 0.471,-97.114 0.814,-145.671l-108.333,0l-0,-308.333Z" style="fill:#fdfdfd;fill-rule:nonzero;"/><path d="M1220.83,4079.17c4.125,1.375 8.25,2.75 12.5,4.166c8.983,0.432 17.978,0.611 26.971,0.66c2.75,0.02 5.5,0.041 8.333,0.062c9.232,0.064 18.464,0.099 27.696,0.134c6.611,0.04 13.222,0.081 19.833,0.125c17.965,0.113 35.93,0.2 53.896,0.283c18.768,0.091 37.536,0.205 56.304,0.317c35.548,0.208 71.097,0.395 106.645,0.575c48.031,0.244 96.062,0.521 144.092,0.795c75.688,0.432 151.376,0.82 227.064,1.216l-0,516.667c-19.038,-7.616 -30.69,-15.693 -45.573,-28.907c-4.822,-4.174 -9.65,-8.341 -14.486,-12.5c-3.708,-3.19 -3.708,-3.19 -7.491,-6.445c-58.163,-49.301 -120.764,-93.633 -182.159,-138.757c-21.117,-15.533 -42.121,-31.204 -63.052,-46.985c-35.641,-26.835 -71.843,-52.874 -108.073,-78.906c-55.279,-39.766 -110.212,-79.978 -164.953,-120.482c-7.235,-5.352 -14.471,-10.703 -21.709,-16.051c-6.788,-5.015 -13.572,-10.035 -20.352,-15.061c-3.083,-2.278 -6.166,-4.556 -9.343,-6.902c-4.023,-2.978 -4.023,-2.978 -8.127,-6.016c-11.098,-7.928 -22.501,-15.423 -33.849,-22.988c1.375,424.875 2.75,849.75 4.167,1287.5l-8.334,-0l0,-1312.5Z" style="fill:#b3b9c0;fill-rule:nonzero;"/><path d="M5420.83,4087.5l537.5,0l0,295.833l-391.666,0c0.257,71.457 0.257,71.457 0.667,142.912c0.201,29.168 0.385,58.336 0.462,87.505c0.063,23.532 0.207,47.063 0.405,70.594c0.062,8.951 0.095,17.903 0.099,26.855c0.046,58.677 2.809,102.667 36.241,152.457c3.792,7.177 3.792,7.177 3.271,19.417c-3.645,8.594 -3.645,8.594 -7.812,12.76c-11.458,1.823 -11.458,1.823 -25,0c-29.408,-27.256 -47.65,-69.874 -50.751,-109.62c-0.267,-10.685 -0.281,-21.341 -0.195,-32.03c-0.001,-4.028 -0.002,-8.056 -0.004,-12.207c0.006,-13.211 0.071,-26.421 0.136,-39.632c0.016,-9.201 0.028,-18.402 0.036,-27.602c0.032,-24.139 0.113,-48.278 0.206,-72.417c0.085,-24.663 0.123,-49.325 0.165,-73.988c0.089,-48.335 0.236,-96.669 0.407,-145.004l-104.167,0l0,-295.833Z" style="fill:#fdfdfd;fill-rule:nonzero;"/><path d="M1950,4087.5l533.333,0l0,295.833l-387.5,0c0.137,72.836 0.137,72.836 0.464,145.671c0.176,29.735 0.331,59.469 0.351,89.205c0.018,23.991 0.137,47.981 0.325,71.971c0.053,9.123 0.072,18.246 0.053,27.369c-1.189,76.666 -1.189,76.666 32.894,143.42c7.58,9.864 7.58,9.864 6.799,21.323c-3.386,9.375 -3.386,9.375 -7.552,13.541c-15.565,2.123 -22.709,1.621 -35.677,-7.552c-31.406,-35.559 -40.63,-84.168 -40.269,-129.841c-0.002,-4.068 -0.003,-8.136 -0.004,-12.328c0.006,-13.369 0.07,-26.737 0.136,-40.106c0.015,-9.3 0.027,-18.6 0.036,-27.9c0.031,-24.42 0.113,-48.84 0.205,-73.26c0.086,-24.941 0.124,-49.883 0.166,-74.825c0.089,-48.896 0.236,-97.792 0.407,-146.688l-104.167,0l0,-295.833Z" style="fill:#fdfdfd;fill-rule:nonzero;"/><path d="M7327.6,3765.1c3.019,-0.156 6.037,-0.311 9.147,-0.472c16.45,-0.268 26.794,1.128 39.909,11.507c14.58,15.281 20.21,25.696 20.234,46.797c0.024,3.763 0.048,7.525 0.073,11.402c-0.015,4.117 -0.031,8.234 -0.047,12.476c0.016,4.386 0.031,8.773 0.048,13.292c0.043,14.746 0.026,29.492 0.01,44.238c0.018,10.553 0.039,21.105 0.064,31.658c0.05,25.719 0.061,51.437 0.051,77.155c-0.007,20.905 -0,41.809 0.018,62.713c0.002,2.974 0.005,5.948 0.007,9.012c0.005,6.042 0.01,12.084 0.015,18.125c0.046,56.676 0.037,113.351 0.011,170.027c-0.021,51.849 0.026,103.698 0.105,155.547c0.081,53.234 0.115,106.467 0.099,159.701c-0.008,29.888 0.003,59.777 0.062,89.665c0.054,28.105 0.044,56.21 -0.01,84.315c-0.01,10.324 0.001,20.647 0.036,30.97c0.043,14.077 0.01,28.152 -0.043,42.229c0.03,4.099 0.061,8.197 0.093,12.42c-0.229,28.763 -4.726,46.732 -25.555,67.842c-15.172,10.351 -25.592,13.249 -43.653,16.049c-2.885,0.471 -5.77,0.943 -8.742,1.428c-6.148,0.996 -12.302,1.955 -18.46,2.881c-9.279,1.399 -18.534,2.904 -27.79,4.443c-19.671,3.256 -39.364,6.362 -59.061,9.46c-7.305,1.156 -14.611,2.312 -21.916,3.47c-15.231,2.411 -30.463,4.816 -45.696,7.216c-19.181,3.022 -38.36,6.054 -57.538,9.09c-78.772,12.469 -157.558,24.843 -236.396,36.89c-27.894,4.264 -55.783,8.564 -83.669,12.881c-2.877,0.441 -5.754,0.882 -8.718,1.336c-8.462,1.297 -16.921,2.608 -25.38,3.921c-4.831,0.745 -9.662,1.49 -14.639,2.258c-12.184,1.866 -12.184,1.866 -24.44,6.287c-24.08,1.962 -46.401,3.134 -69.01,-5.989c-25.714,-27.033 -29.266,-57.702 -28.939,-93.646c-0.026,-4.438 -0.052,-8.877 -0.079,-13.449c-0.066,-14.798 -0.014,-29.592 0.038,-44.389c-0.022,-10.639 -0.052,-21.277 -0.088,-31.915c-0.068,-25.846 -0.058,-51.692 -0.01,-77.539c0.038,-21.007 0.043,-42.014 0.025,-63.021c-0.003,-2.994 -0.005,-5.989 -0.008,-9.074c-0.005,-6.083 -0.011,-12.167 -0.016,-18.25c-0.048,-56.978 0.007,-113.956 0.096,-170.933c0.075,-48.873 0.062,-97.746 -0.015,-146.619c-0.089,-56.799 -0.124,-113.597 -0.073,-170.396c0.005,-6.057 0.011,-12.114 0.016,-18.171c0.002,-2.98 0.005,-5.96 0.008,-9.03c0.014,-20.984 -0.01,-41.968 -0.05,-62.953c-0.051,-28.239 -0.014,-56.477 0.082,-84.716c0.022,-10.37 0.016,-20.741 -0.021,-31.111c-0.046,-14.14 0.011,-28.277 0.095,-42.417c-0.038,-4.117 -0.075,-8.234 -0.113,-12.475c0.273,-23.838 3.068,-37.436 18.896,-56.407c2.836,-3.781 5.672,-7.562 8.593,-11.458c12.526,-9.594 17.392,-11.171 32.406,-13.656c4.106,-0.68 8.212,-1.36 12.442,-2.061c23.123,-3.482 46.277,-6.603 69.475,-9.543c2.744,-0.352 5.488,-0.703 8.314,-1.065c52.099,-6.666 104.267,-12.692 156.448,-18.668c76.654,-8.796 153.214,-18.318 229.77,-27.924c4.464,-0.56 4.464,-0.56 9.018,-1.131c29.928,-3.756 59.855,-7.519 89.78,-11.291c4.419,-0.556 8.837,-1.111 13.389,-1.684c7.41,-0.935 14.82,-1.879 22.227,-2.835c19.775,-2.539 39.161,-4.019 59.075,-4.413Zm-80.615,42.079c-29.214,4.69 -58.454,8.178 -87.874,11.307c-46.393,4.973 -92.66,10.668 -138.913,16.787c-64.857,8.544 -129.811,16.319 -194.835,23.479c-18.145,2.004 -36.285,4.059 -54.424,6.119c-9.247,1.037 -18.498,2.05 -27.75,3.04c-13.647,1.466 -27.28,3.022 -40.914,4.595c-4.123,0.421 -8.246,0.843 -12.493,1.277c-21.983,2.632 -36.453,5.2 -52.286,22.046c-4.848,9.697 -4.697,15.29 -4.714,26.09c-0.016,3.748 -0.032,7.496 -0.049,11.358c0.004,4.145 0.007,8.289 0.011,12.559c-0.012,4.382 -0.025,8.764 -0.037,13.279c-0.037,14.782 -0.043,29.563 -0.049,44.345c-0.019,10.558 -0.04,21.117 -0.063,31.675c-0.055,28.753 -0.081,57.507 -0.1,86.26c-0.011,17.948 -0.029,35.895 -0.048,53.843c-0.051,49.672 -0.093,99.345 -0.108,149.017c-0,3.181 -0.001,6.361 -0.002,9.638c-0.001,3.188 -0.002,6.377 -0.003,9.661c-0.002,6.461 -0.004,12.922 -0.006,19.382c-0.001,3.205 -0.001,6.41 -0.002,9.712c-0.017,51.933 -0.09,103.866 -0.187,155.799c-0.098,53.295 -0.15,106.589 -0.155,159.884c-0.004,29.933 -0.028,59.865 -0.104,89.798c-0.07,28.15 -0.077,56.298 -0.041,84.448c0.003,10.345 -0.015,20.691 -0.056,31.036c-0.052,14.097 -0.029,28.192 0.015,42.289c-0.033,4.117 -0.067,8.233 -0.102,12.474c0.149,20.405 0.296,35.321 14.133,51.62c30.024,8.525 69.784,-3.901 99.74,-9.115c11.454,-1.938 22.914,-3.845 34.375,-5.745c2.964,-0.493 5.929,-0.986 8.983,-1.495c40.689,-6.705 81.55,-12.265 122.404,-17.86c31.492,-4.358 62.719,-9.416 93.937,-15.434c25.324,-4.867 50.732,-8.825 76.238,-12.591c39.795,-5.987 79.447,-12.547 119.068,-19.586c21.387,-3.776 42.742,-7.204 64.266,-10.101c19.579,-2.783 39.121,-5.659 58.593,-9.115c7.042,-1.192 7.042,-1.192 14.226,-2.409c13.099,-5.184 18.197,-10.045 25.59,-21.889c6.891,-16.135 5.661,-33.129 5.474,-50.405c0.02,-4.261 0.04,-8.521 0.061,-12.91c0.047,-14.271 -0.025,-28.538 -0.097,-42.808c0.009,-10.232 0.025,-20.465 0.048,-30.697c0.036,-24.903 -0.005,-49.805 -0.082,-74.708c-0.087,-29.003 -0.086,-58.006 -0.082,-87.01c0.004,-51.748 -0.072,-103.497 -0.193,-155.245c-0.118,-50.21 -0.177,-100.42 -0.171,-150.631c0,-3.093 0.001,-6.186 0.001,-9.373c0,-3.087 0.001,-6.175 0.001,-9.357c0.006,-57.172 -0.043,-114.345 -0.118,-171.517c-0.025,-20.216 -0.034,-40.432 -0.038,-60.648c-0.006,-27.206 -0.059,-54.411 -0.143,-81.617c-0.024,-9.996 -0.034,-19.992 -0.03,-29.988c0.004,-13.621 -0.043,-27.242 -0.103,-40.863c0.019,-5.963 0.019,-5.963 0.039,-12.047c0.45,-29.709 0.45,-29.709 -13.653,-54.836c-36.484,-3.016 -71.293,1.36 -107.178,7.183Z" style="fill:#222325;fill-rule:nonzero;"/><path d="M3602.81,2980.72c2.79,-0.03 5.58,-0.059 8.454,-0.09c9.346,-0.073 18.684,0.003 28.029,0.078c6.701,-0.022 13.402,-0.052 20.103,-0.091c18.2,-0.077 36.397,-0.023 54.597,0.059c19.042,0.068 38.084,0.032 57.126,0.01c31.983,-0.018 63.966,0.048 95.949,0.164c36.975,0.134 73.949,0.134 110.924,0.062c35.564,-0.066 71.129,-0.038 106.693,0.033c15.137,0.028 30.272,0.024 45.408,-0.007c17.83,-0.032 35.656,0.019 53.485,0.133c6.542,0.029 13.085,0.029 19.627,-0.001c8.935,-0.036 17.863,0.03 26.797,0.123c7.498,0.017 7.498,0.017 15.147,0.035c15.851,2.535 22.824,7.451 34.022,18.776c4.253,17.721 3.092,35.734 2.864,53.906c0.116,4.917 0.231,9.835 0.35,14.901c-0.013,4.745 -0.027,9.491 -0.041,14.38c-0.002,6.485 -0.002,6.485 -0.005,13.101c-3.489,13.263 -7.969,20.017 -18.76,28.489c-22.402,10.452 -49.634,7.218 -73.945,7.019c-6.627,0.022 -13.254,0.052 -19.88,0.091c-17.958,0.077 -35.914,0.023 -53.871,-0.059c-18.8,-0.068 -37.599,-0.032 -56.398,-0.01c-31.559,0.018 -63.117,-0.048 -94.676,-0.164c-36.492,-0.134 -72.983,-0.134 -109.475,-0.062c-35.111,0.066 -70.222,0.038 -105.333,-0.033c-14.942,-0.028 -29.883,-0.024 -44.825,0.007c-17.586,0.032 -35.171,-0.019 -52.757,-0.133c-6.456,-0.029 -12.913,-0.029 -19.37,0.001c-8.808,0.036 -17.609,-0.03 -26.417,-0.123c-7.394,-0.017 -7.394,-0.017 -14.939,-0.035c-15.082,-2.54 -19.848,-6.932 -29.189,-18.776c-8.522,-17.044 -5.305,-38.818 -5.469,-57.552c-0.181,-6.836 -0.181,-6.836 -0.366,-13.81c-0.035,-4.407 -0.07,-8.814 -0.106,-13.355c-0.061,-4.027 -0.121,-8.054 -0.184,-12.204c4.762,-27.752 20.086,-34.85 46.431,-34.863Z" style="fill:#fdfdfd;fill-rule:nonzero;"/><path d="M2748.67,2981.22c2.793,-0.026 5.586,-0.052 8.464,-0.079c9.354,-0.066 18.704,-0.014 28.058,0.039c6.708,-0.023 13.415,-0.053 20.123,-0.089c18.216,-0.076 36.431,-0.046 54.647,0.007c19.055,0.042 38.11,0.003 57.165,-0.024c32.001,-0.03 64.002,0.01 96.003,0.089c37.008,0.091 74.014,0.062 111.023,-0.03c31.762,-0.076 63.524,-0.086 95.287,-0.043c18.976,0.026 37.951,0.03 56.926,-0.025c17.84,-0.048 35.677,-0.015 53.516,0.081c6.55,0.022 13.101,0.016 19.652,-0.021c8.936,-0.045 17.866,0.012 26.802,0.095c7.503,0.009 7.503,0.009 15.158,0.019c15.234,2.521 20.159,6.558 29.342,18.764c3.456,18.584 2.511,37.381 2.344,56.25c0.099,5.151 0.199,10.302 0.301,15.609c-0.008,4.947 -0.016,9.893 -0.024,14.99c0.004,6.78 0.004,6.78 0.009,13.696c-3.571,16.234 -9.639,19.729 -23.463,28.622c-13.047,2.109 -13.047,2.109 -27.991,2.144c-2.759,0.029 -5.519,0.058 -8.362,0.088c-9.216,0.076 -18.428,0.033 -27.644,-0.01c-6.62,0.03 -13.239,0.066 -19.859,0.109c-17.958,0.094 -35.914,0.082 -53.872,0.045c-14.994,-0.022 -29.988,0.009 -44.982,0.039c-35.37,0.071 -70.739,0.056 -106.108,-0.014c-36.49,-0.07 -72.978,-0.004 -109.468,0.13c-31.335,0.112 -62.669,0.142 -94.004,0.107c-18.713,-0.021 -37.424,-0.012 -56.137,0.074c-17.593,0.076 -35.184,0.052 -52.777,-0.051c-6.455,-0.021 -12.91,-0.006 -19.365,0.046c-8.817,0.067 -17.624,0.005 -26.44,-0.09c-7.397,-0.004 -7.397,-0.004 -14.944,-0.007c-16.956,-3.392 -23.199,-10.133 -33.88,-23.444c-2.63,-12.045 -2.63,-12.045 -2.621,-25.146c-0.008,-4.746 -0.016,-9.491 -0.024,-14.38c0.099,-4.917 0.199,-9.835 0.301,-14.901c-0.046,-4.933 -0.091,-9.866 -0.138,-14.949c0.306,-36.075 0.306,-36.075 9.214,-47.877c13.191,-10.286 21.135,-9.842 37.768,-9.863Z" style="fill:#fdfefe;fill-rule:nonzero;"/><path d="M1894.32,2980.72c4.159,-0.044 4.159,-0.044 8.402,-0.09c9.288,-0.073 18.569,0.003 27.857,0.078c6.659,-0.022 13.319,-0.052 19.979,-0.091c18.088,-0.077 36.173,-0.023 54.261,0.059c18.925,0.068 37.85,0.032 56.776,0.01c31.787,-0.018 63.574,0.048 95.361,0.164c36.748,0.134 73.494,0.134 110.242,0.062c35.346,-0.066 70.692,-0.038 106.039,0.033c15.043,0.028 30.086,0.024 45.129,-0.007c17.72,-0.032 35.437,0.019 53.156,0.133c6.502,0.029 13.004,0.029 19.506,-0.001c8.88,-0.036 17.754,0.03 26.633,0.123c7.452,0.017 7.452,0.017 15.054,0.035c15.816,2.542 22.796,7.456 33.957,18.776c2.629,11.955 2.629,11.955 2.62,25.651c0.008,4.947 0.016,9.894 0.025,14.99c-0.1,5.151 -0.199,10.302 -0.302,15.609c0.046,5.151 0.092,10.302 0.139,15.609c-0.308,37.751 -0.308,37.751 -9.215,49.587c-13.188,10.249 -21.158,9.826 -37.768,9.865c-2.793,0.029 -5.586,0.058 -8.463,0.088c-9.355,0.076 -18.704,0.033 -28.058,-0.01c-6.708,0.03 -13.416,0.066 -20.124,0.109c-18.216,0.094 -36.431,0.082 -54.647,0.045c-15.201,-0.022 -30.402,0.009 -45.603,0.039c-35.855,0.071 -71.709,0.056 -107.564,-0.014c-37.009,-0.07 -74.015,-0.004 -111.023,0.13c-31.763,0.112 -63.525,0.142 -95.288,0.107c-18.976,-0.021 -37.95,-0.012 -56.926,0.074c-17.84,0.076 -35.676,0.052 -53.515,-0.051c-6.551,-0.021 -13.102,-0.006 -19.653,0.046c-8.937,0.067 -17.864,0.005 -26.801,-0.09c-5.002,-0.002 -10.005,-0.005 -15.158,-0.007c-12.676,-2.61 -12.676,-2.61 -22.615,-12.466c-7.828,-12.773 -8.874,-20.18 -8.942,-35.066c-0.021,-4.539 -0.043,-9.077 -0.065,-13.753c0.065,-4.7 0.129,-9.4 0.196,-14.242c-0.065,-4.7 -0.129,-9.399 -0.196,-14.242c0.022,-4.538 0.043,-9.077 0.065,-13.753c0.019,-4.122 0.038,-8.244 0.057,-12.492c5.146,-27.669 19.918,-35.034 46.472,-35.047Z" style="fill:#fdfdfd;fill-rule:nonzero;"/><path d="M5373.82,2980.72c2.76,-0.03 5.519,-0.059 8.362,-0.09c9.218,-0.073 18.428,0.002 27.645,0.078c6.619,-0.022 13.239,-0.052 19.858,-0.091c17.959,-0.077 35.914,-0.023 53.873,0.059c18.797,0.068 37.594,0.032 56.392,0.01c31.566,-0.018 63.131,0.048 94.698,0.164c36.49,0.134 72.978,0.134 109.468,0.062c35.108,-0.066 70.216,-0.038 105.325,0.033c14.939,0.028 29.877,0.024 44.815,-0.007c17.593,-0.032 35.184,0.019 52.777,0.133c6.455,0.029 12.91,0.029 19.365,-0.001c8.816,-0.036 17.625,0.03 26.441,0.123c4.931,0.012 9.862,0.023 14.943,0.035c15.766,2.549 22.745,7.501 33.881,18.776c2.695,11.955 2.695,11.955 2.767,25.651c0.026,4.947 0.053,9.894 0.081,14.99c-0.081,5.151 -0.161,10.302 -0.244,15.609c0.08,5.151 0.161,10.302 0.244,15.609c-0.04,7.42 -0.04,7.42 -0.081,14.99c-0.024,4.52 -0.047,9.04 -0.072,13.696c-3.653,16.202 -9.713,19.732 -23.529,28.622c-13.047,2.109 -13.047,2.109 -27.99,2.144c-2.76,0.029 -5.519,0.058 -8.363,0.088c-9.216,0.076 -18.428,0.033 -27.644,-0.01c-6.62,0.03 -13.239,0.066 -19.858,0.109c-17.958,0.094 -35.915,0.082 -53.873,0.045c-14.994,-0.022 -29.988,0.009 -44.982,0.039c-35.369,0.071 -70.738,0.056 -106.108,-0.014c-36.49,-0.07 -72.978,-0.004 -109.468,0.13c-31.335,0.112 -62.669,0.142 -94.004,0.107c-18.712,-0.021 -37.424,-0.012 -56.136,0.074c-17.594,0.076 -35.184,0.052 -52.777,-0.051c-6.455,-0.021 -12.91,-0.006 -19.365,0.046c-8.817,0.067 -17.624,0.005 -26.441,-0.09c-7.397,-0.004 -7.397,-0.004 -14.944,-0.007c-16.946,-3.39 -23.187,-10.158 -33.88,-23.444c-2.696,-11.596 -2.696,-11.596 -2.767,-24.088c-0.027,-4.539 -0.054,-9.077 -0.081,-13.753c0.08,-4.7 0.161,-9.4 0.244,-14.242c-0.081,-4.7 -0.161,-9.399 -0.244,-14.242c0.04,-6.807 0.04,-6.807 0.081,-13.753c0.024,-4.122 0.047,-8.244 0.071,-12.492c6.397,-27.518 25.381,-35.034 51.52,-35.047Z" style="fill:#fdfdfd;fill-rule:nonzero;"/><path d="M4507.19,2980.74c4.144,-0.04 4.144,-0.04 8.371,-0.081c9.228,-0.063 18.447,0.022 27.674,0.107c6.626,-0.015 13.253,-0.038 19.879,-0.07c17.975,-0.06 35.948,0.011 53.923,0.109c18.811,0.084 37.621,0.06 56.431,0.05c31.584,0 63.167,0.082 94.751,0.216c36.523,0.154 73.044,0.19 109.567,0.161c35.131,-0.026 70.262,0.019 105.393,0.1c14.953,0.034 29.906,0.045 44.86,0.039c17.603,-0.004 35.205,0.055 52.808,0.163c6.463,0.03 12.926,0.039 19.39,0.025c8.816,-0.016 17.629,0.046 26.445,0.127c4.935,0.015 9.871,0.031 14.955,0.047c13.729,1.748 19.576,4.279 29.201,14.096c3.587,19.145 2.509,38.632 2.344,58.073c0.099,5.369 0.199,10.737 0.301,16.268c-0.008,5.154 -0.016,10.307 -0.024,15.617c0.004,7.081 0.004,7.081 0.009,14.306c-2.63,12.403 -2.63,12.403 -11.471,21.378c-14.505,9.304 -22.689,9.795 -39.825,9.836c-2.742,0.029 -5.485,0.058 -8.31,0.088c-9.159,0.076 -18.313,0.033 -27.472,-0.01c-6.578,0.03 -13.157,0.066 -19.735,0.109c-17.846,0.094 -35.691,0.082 -53.537,0.045c-14.901,-0.022 -29.801,0.009 -44.702,0.039c-35.15,0.071 -70.299,0.056 -105.449,-0.014c-36.263,-0.07 -72.524,-0.004 -108.786,0.13c-31.141,0.112 -62.28,0.142 -93.42,0.107c-18.597,-0.021 -37.192,-0.012 -55.788,0.074c-17.484,0.076 -34.965,0.052 -52.448,-0.051c-6.415,-0.021 -12.83,-0.006 -19.244,0.046c-8.763,0.067 -17.515,0.005 -26.277,-0.09c-7.351,-0.004 -7.351,-0.004 -14.85,-0.007c-16.898,-3.398 -23.145,-10.201 -33.816,-23.444c-2.695,-11.596 -2.695,-11.596 -2.767,-24.088c-0.026,-4.539 -0.053,-9.077 -0.081,-13.753c0.081,-4.7 0.161,-9.4 0.244,-14.242c-0.08,-4.7 -0.161,-9.399 -0.244,-14.242c0.04,-6.807 0.04,-6.807 0.081,-13.753c0.024,-4.122 0.047,-8.244 0.072,-12.492c6.402,-27.54 25.391,-35.035 51.547,-35.019Z" style="fill:#fdfdfd;fill-rule:nonzero;"/><path d="M5425,4429.17l45.833,-0c0.006,4.706 0.012,9.413 0.018,14.262c0.07,44.619 0.249,89.237 0.533,133.855c0.142,22.932 0.247,45.863 0.264,68.796c0.018,22.181 0.138,44.36 0.325,66.541c0.053,8.411 0.072,16.822 0.053,25.234c-0.151,86.524 17.373,163.444 77.974,228.812c31.763,30.276 76.804,52.746 120.833,54.166c3.304,0.301 6.607,0.602 10.01,0.912c50.721,2.979 98.965,-18.355 139.99,-46.745c3.696,-2.406 7.391,-4.813 11.198,-7.292c50.954,-49.576 68.495,-112.359 69.771,-181.409c0.215,-16.641 0.28,-33.28 0.33,-49.922c0.07,-8.891 0.146,-17.781 0.227,-26.672c0.197,-23.227 0.322,-46.455 0.431,-69.682c0.125,-23.772 0.318,-47.543 0.506,-71.314c0.357,-46.514 0.638,-93.028 0.871,-139.542l54.166,-0c0.291,51.545 0.513,103.09 0.648,154.636c0.065,23.941 0.153,47.882 0.295,71.822c0.137,23.154 0.211,46.306 0.243,69.46c0.023,8.783 0.068,17.566 0.136,26.35c0.489,65.769 0.366,130.939 -33.093,189.711c-1.834,3.331 -3.668,6.663 -5.558,10.095c-37.165,65.452 -92.678,105.292 -164.233,127.144c-73.128,16.452 -141.273,5.893 -205.99,-31.25c-59.263,-38.829 -106.75,-99.961 -121.827,-170.181c-4.347,-22.352 -5.078,-43.817 -4.9,-66.531c-0.001,-4.152 -0.002,-8.303 -0.004,-12.58c0.006,-13.572 0.071,-27.143 0.136,-40.714c0.016,-9.469 0.028,-18.938 0.036,-28.407c0.032,-24.81 0.113,-49.62 0.206,-74.43c0.085,-25.362 0.123,-50.724 0.165,-76.086c0.089,-49.68 0.231,-99.359 0.407,-149.039Z" style="fill:#d3d7dd;fill-rule:nonzero;"/><path d="M1950,4429.17l50,-0c0.051,7.065 0.051,7.065 0.102,14.272c0.324,44.504 0.69,89.007 1.096,133.51c0.208,22.877 0.401,45.753 0.56,68.63c0.154,22.1 0.347,44.199 0.567,66.298c0.077,8.408 0.14,16.817 0.189,25.226c0.071,11.827 0.192,23.652 0.324,35.478c0.009,3.435 0.018,6.869 0.027,10.408c1.004,70.832 27.355,132.895 75.26,184.719c35.504,33.928 81.953,52.926 130.729,55.209c46.041,-1.196 90.357,-17.04 128.581,-42.367c8.398,-5.55 8.398,-5.55 17.318,-9.407c9.818,-5.673 11.564,-10.896 16.08,-21.143c3.888,-5.287 7.887,-10.494 11.979,-15.625c35.097,-46.282 46.822,-98.853 47.21,-156.118c0.041,-3.783 0.083,-7.566 0.125,-11.464c0.131,-12.444 0.235,-24.889 0.338,-37.333c0.086,-8.652 0.173,-17.305 0.262,-25.957c0.23,-22.727 0.436,-45.455 0.637,-68.183c0.21,-23.21 0.442,-46.42 0.672,-69.63c0.447,-45.508 0.87,-91.015 1.277,-136.523l50,-0c0.194,54.294 0.342,108.588 0.432,162.882c0.044,25.213 0.102,50.425 0.197,75.637c0.091,24.342 0.14,48.683 0.162,73.025c0.015,9.276 0.045,18.552 0.09,27.828c0.061,13.016 0.069,26.03 0.065,39.046c0.03,3.815 0.06,7.63 0.091,11.561c-0.243,76.019 -37.482,145.291 -89.481,198.79c-50.751,49.322 -118.489,66.555 -187.628,66.113c-61.133,-0.891 -119.693,-26.384 -165.594,-67.382c-4.061,-3.489 -4.061,-3.489 -8.203,-7.048c-45.47,-41.884 -81.109,-109.453 -83.834,-172.31c-0.143,-10.699 -0.145,-21.39 -0.103,-32.089c-0.001,-4.068 -0.001,-8.135 -0.002,-12.325c0.003,-13.414 0.035,-26.828 0.068,-40.242c0.008,-9.312 0.014,-18.624 0.018,-27.936c0.016,-24.488 0.057,-48.977 0.103,-73.465c0.043,-24.997 0.062,-49.994 0.083,-74.991c0.044,-49.031 0.115,-98.063 0.203,-147.094Z" style="fill:#d4dae0;fill-rule:nonzero;"/><path d="M3654.17,4441.67l50,-0c0.006,4.645 0.012,9.29 0.018,14.076c0.07,44.066 0.249,88.13 0.532,132.195c0.142,22.647 0.247,45.293 0.264,67.941c0.018,21.911 0.138,43.82 0.325,65.731c0.054,8.303 0.072,16.606 0.053,24.909c-0.122,68.647 6.687,133.982 48.808,190.981c1.987,2.836 3.974,5.672 6.022,8.594c28.349,36.469 77.278,68.275 123.144,74.739c66.404,6.324 129.438,-12.289 182.292,-52.864c18.373,-16.787 30.405,-38.243 42.708,-59.636c1.73,-2.938 3.459,-5.876 5.241,-8.903c18.189,-33.21 20.992,-69.541 21.088,-106.781c0.042,-3.826 0.084,-7.652 0.127,-11.594c0.127,-12.489 0.199,-24.978 0.27,-37.468c0.078,-8.722 0.159,-17.443 0.244,-26.165c0.213,-22.837 0.379,-45.674 0.534,-68.511c0.167,-23.352 0.38,-46.703 0.589,-70.054c0.402,-45.73 0.754,-91.46 1.074,-137.19l54.167,-0c0.29,52.448 0.512,104.896 0.647,157.345c0.065,24.358 0.154,48.714 0.296,73.072c0.136,23.531 0.21,47.062 0.243,70.593c0.023,8.952 0.068,17.904 0.135,26.855c0.649,89.303 0.649,89.303 -13.821,126.301c-1.617,4.652 -3.234,9.303 -4.899,14.095c-31.661,76.378 -82.792,128.43 -159.066,160.905c-58.515,22.094 -133.09,20.839 -190.202,-4.166c-37.336,-16.915 -67.043,-37.571 -95.833,-66.667c-2.648,-2.508 -5.296,-5.017 -8.024,-7.601c-24.216,-24.753 -37.997,-56.263 -50.31,-88.232c-1.409,-3.386 -2.818,-6.772 -4.27,-10.26c-16.646,-45.506 -14.509,-90.68 -14.024,-138.52c0.031,-9.077 0.055,-18.155 0.072,-27.232c0.063,-23.722 0.226,-47.441 0.411,-71.162c0.172,-24.274 0.247,-48.547 0.331,-72.821c0.178,-47.503 0.462,-95.004 0.814,-142.505Z" style="fill:#d1d6db;fill-rule:nonzero;"/><path d="M4954.17,4204.17l79.166,-0c0.484,82.727 0.855,165.454 1.08,248.182c0.107,38.417 0.253,76.832 0.492,115.248c0.208,33.504 0.342,67.006 0.389,100.51c0.027,17.723 0.09,35.443 0.242,53.165c0.143,16.721 0.185,33.439 0.154,50.16c0.005,6.099 0.046,12.197 0.127,18.295c0.823,65.507 -20.509,123.308 -65.505,171.471c-43.137,40.761 -97.308,63.948 -156.77,65.625c-61.473,-2.238 -103.618,-31.206 -146.875,-72.656c12.5,-0 12.5,-0 25.504,4.052c50.297,14.885 107.641,6.886 153.662,-16.552c33.377,-19.225 55.689,-41.822 75,-75c2.014,-3.449 4.029,-6.897 6.104,-10.45c22.678,-41.937 24.311,-83.796 24.392,-130.78c0.038,-5.712 0.081,-11.424 0.126,-17.136c0.113,-15.381 0.177,-30.762 0.231,-46.143c0.066,-16.121 0.177,-32.242 0.284,-48.363c0.194,-30.471 0.348,-60.942 0.486,-91.413c0.16,-34.715 0.365,-69.429 0.575,-104.143c0.429,-71.357 0.8,-142.714 1.136,-214.072Z" style="fill:#6f757b;fill-rule:nonzero;"/><path d="M4962.5,3175l125,0l0,587.5c-66.667,16.667 -66.667,16.667 -125,20.833l0,-608.333Z" style="fill:#d2d8e0;fill-rule:nonzero;"/><path d="M2358.33,3175l125,0l0,587.5c-66.666,16.667 -66.666,16.667 -125,20.833l0,-608.333Z" style="fill:#d2d8e0;fill-rule:nonzero;"/><path d="M3208.33,3176.51l125,-0l0,587.5c-66.666,16.666 -66.666,16.666 -125,20.833l0,-608.333Z" style="fill:#d2d8e0;fill-rule:nonzero;"/><path d="M5833.33,3175l125,0l0,587.5c-66.666,16.667 -66.666,16.667 -125,20.833l0,-608.333Z" style="fill:#d2d8e0;fill-rule:nonzero;"/><path d="M4558.33,4087.5l529.167,0c0.672,188.864 0.672,188.864 0.814,268.197c0.099,54.709 0.214,109.418 0.443,164.127c0.167,39.85 0.274,79.7 0.311,119.55c0.022,21.083 0.072,42.164 0.194,63.247c0.114,19.883 0.148,39.766 0.123,59.65c0.005,7.259 0.037,14.518 0.102,21.777c0.724,85.888 -23.149,160.768 -81.951,224.936c-52.55,53.208 -123.402,74.651 -196.599,75.391c-3.275,0.04 -6.55,0.079 -9.925,0.12c-16.15,-0.094 -29.019,-0.291 -42.679,-9.495c6.875,-1.375 13.75,-2.75 20.834,-4.167c2.75,-15.125 5.5,-30.25 8.333,-45.833c7.563,-0.258 15.125,-0.516 22.917,-0.781c52.93,-4.209 101.567,-20.661 143.75,-53.386c4.471,-3.432 4.471,-3.432 9.033,-6.933c44.053,-38.685 66.227,-102.894 70.133,-159.733c0.653,-20.063 0.768,-40.119 0.856,-60.191c0.04,-5.959 0.082,-11.917 0.125,-17.876c0.112,-16.052 0.2,-32.104 0.283,-48.157c0.092,-16.822 0.206,-33.643 0.317,-50.465c0.207,-31.799 0.395,-63.598 0.575,-95.397c0.207,-36.226 0.435,-72.452 0.666,-108.677c0.473,-74.468 0.917,-148.936 1.345,-223.404l-83.333,0l-0,-108.333l-395.834,-0l0,-4.167Z" style="fill:#d3d9df;fill-rule:nonzero;"/><path d="M2800,4529.17l54.167,-0c0.082,8.156 0.165,16.312 0.25,24.715c0.283,27.042 0.603,54.083 0.948,81.124c0.207,16.384 0.4,32.769 0.559,49.153c0.155,15.832 0.348,31.664 0.568,47.495c0.077,6.02 0.14,12.04 0.189,18.059c0.587,70.07 16.902,129.738 64.152,183.62c40.497,39.42 85.582,59.456 141.721,59.361c55.111,-0.964 110.305,-21.026 150.76,-59.214c53.787,-60.656 66.88,-128.505 67.578,-206.966c0.078,-5.727 0.16,-11.453 0.244,-17.179c0.212,-14.912 0.378,-29.824 0.534,-44.736c0.168,-15.28 0.381,-30.561 0.589,-45.841c0.401,-29.863 0.749,-59.727 1.074,-89.591l50,-0c0.487,36.261 0.855,72.522 1.08,108.786c0.108,16.847 0.253,33.691 0.492,50.537c0.23,16.318 0.352,32.634 0.405,48.954c0.038,6.163 0.112,12.327 0.226,18.49c1.459,82.117 -23.341,158.284 -80.582,218.6c-53.906,54.678 -115.808,80.186 -192.454,81.195c-70.817,0.282 -134.638,-29.463 -185.905,-78.092c-60.169,-66.482 -78.06,-146.976 -77.409,-234.44c0.016,-6.2 0.028,-12.399 0.036,-18.599c0.031,-16.179 0.113,-32.358 0.206,-48.537c0.086,-16.564 0.123,-33.129 0.165,-49.694c0.089,-32.4 0.235,-64.8 0.407,-97.2Z" style="fill:#d4d9de;fill-rule:nonzero;"/><path d="M2095.83,4425l391.667,0l0,400l-4.167,0l0,-395.833l-50,-0c0.042,7.101 0.042,7.101 0.084,14.346c0.255,44.806 0.442,89.612 0.564,134.418c0.065,23.031 0.153,46.061 0.295,69.092c0.137,22.261 0.211,44.522 0.243,66.784c0.023,8.456 0.068,16.913 0.136,25.369c0.608,78.868 -8.725,141.137 -55.488,206.657c-2.407,3.61 -4.813,7.219 -7.292,10.938c-28.003,29.559 -63.169,46.373 -101.042,59.896c-2.862,1.031 -5.725,2.062 -8.675,3.125c-44.267,13.42 -91.216,6.596 -132.991,-11.459c-25.34,-14.277 -45.342,-30.716 -62.5,-54.166c4.726,2.062 9.453,4.125 14.323,6.25c48.897,16.068 105.565,8.813 152.343,-10.417c13.465,-7.309 25.453,-15.57 37.5,-25c3.61,-2.406 7.219,-4.812 10.938,-7.292c38.268,-36.253 66.623,-96.736 68.888,-149.824c0.086,-6.318 0.15,-12.636 0.197,-18.954c0.041,-3.457 0.082,-6.914 0.125,-10.475c0.131,-11.408 0.234,-22.815 0.337,-34.223c0.086,-7.917 0.174,-15.834 0.263,-23.75c0.23,-20.824 0.436,-41.647 0.637,-62.471c0.246,-24.992 0.522,-49.984 0.793,-74.976c0.408,-37.956 0.778,-75.912 1.156,-113.868l-258.334,-0l0,-4.167Z" style="fill:#70757b;fill-rule:nonzero;"/><path d="M3804.17,4437.5l391.666,0l0,379.167l-4.166,-0l-0,-375l-54.167,-0c0.019,4.814 0.037,9.628 0.056,14.588c0.169,45.485 0.294,90.969 0.376,136.454c0.043,23.381 0.102,46.762 0.197,70.143c0.091,22.586 0.14,45.171 0.162,67.757c0.015,8.595 0.045,17.189 0.09,25.784c0.061,12.086 0.069,24.17 0.065,36.256c0.03,3.513 0.06,7.025 0.091,10.644c-0.128,37.517 -6.449,70.965 -24.995,103.738c-1.494,2.694 -2.988,5.387 -4.527,8.163c-27.856,49.118 -70.917,84.073 -125.242,101.082c-58.2,15.201 -111.893,14.374 -164.665,-16.178c-12.367,-7.965 -24.394,-15.775 -35.775,-25.098l0,-8.333c3.02,0.087 6.04,0.174 9.152,0.264c13.962,0.351 27.924,0.565 41.89,0.777c4.748,0.14 9.496,0.28 14.388,0.424c52.948,0.601 93.628,-13.846 134.57,-47.299c2.654,-2.132 5.307,-4.264 8.041,-6.461c39.363,-35.252 59.098,-88.141 63.553,-139.87c1.269,-23.717 1.288,-47.453 1.372,-71.198c0.07,-7.583 0.146,-15.166 0.226,-22.748c0.197,-19.775 0.322,-39.55 0.431,-59.326c0.148,-23.825 0.385,-47.649 0.606,-71.474c0.326,-36.03 0.538,-72.058 0.771,-108.089l-254.166,-0l-0,-4.167Z" style="fill:#6b7279;fill-rule:nonzero;"/><path d="M5566.67,4425l391.666,0l0,4.167l-54.166,-0c0.037,4.872 0.074,9.745 0.112,14.765c0.339,46.152 0.588,92.304 0.751,138.457c0.087,23.722 0.204,47.443 0.394,71.164c0.182,22.937 0.281,45.873 0.324,68.811c0.031,8.706 0.09,17.411 0.181,26.116c0.771,77.139 -5.988,151.692 -61.17,211.448c-29.116,27.028 -61.875,43.227 -98.926,56.739c-4.898,1.804 -9.797,3.609 -14.843,5.468c-58.898,11.78 -110.196,-3.227 -160.157,-34.635c-12.011,-8.757 -12.011,-8.757 -20.833,-16.667l0,-8.333c3.064,0.065 6.127,0.131 9.283,0.198c14.093,0.263 28.185,0.424 42.279,0.583c4.818,0.105 9.636,0.21 14.6,0.318c57.738,0.489 104.514,-17.137 147.754,-55.982c55.056,-60.626 58.158,-128.738 58.643,-205.827c0.078,-7.881 0.159,-15.762 0.244,-23.642c0.213,-20.618 0.379,-41.236 0.534,-61.854c0.197,-24.805 0.453,-49.61 0.699,-74.414c0.367,-37.571 0.658,-75.142 0.964,-112.713l-258.333,-0l-0,-4.167Z" style="fill:#6d7379;fill-rule:nonzero;"/><path d="M3195.83,4529.17l87.5,-0c0.285,32.747 0.513,65.493 0.648,98.241c0.065,15.211 0.152,30.422 0.295,45.634c0.138,14.724 0.211,29.447 0.243,44.172c0.034,8.254 0.131,16.508 0.231,24.762c0.008,47.327 -7.071,91.88 -29.281,134.066c-1.457,2.811 -2.913,5.623 -4.414,8.519c-28.629,53.35 -70.854,84.299 -127.699,104.078c-54.681,15.249 -106.509,10.75 -156.169,-15.901c-25.671,-15.243 -44.956,-32.335 -63.02,-56.071c13.479,-0 17.708,2.381 29.427,8.333c40.491,16.683 94.233,13.69 135.368,0.146c54.18,-22.899 88.844,-58.839 111.52,-112.879c11.984,-34.047 12.558,-69.167 12.91,-104.878c0.081,-5.12 0.161,-10.24 0.244,-15.515c0.248,-16.215 0.442,-32.43 0.635,-48.645c0.159,-11.051 0.322,-22.103 0.488,-33.154c0.398,-26.969 0.749,-53.938 1.074,-80.908Z" style="fill:#6f757b;fill-rule:nonzero;"/><path d="M2800,4087.5l533.333,0l0,395.833c-95.833,0 -95.833,0 -125,-4.166l0,-387.5l-408.333,-0l0,-4.167Z" style="fill:#d3d9e0;fill-rule:nonzero;"/><path d="M5420.83,4087.5l537.5,0l0,295.833l-125,0l0,-291.666l-408.333,-0l0,291.666l-4.167,0l0,-295.833Z" style="fill:#d2d8de;fill-rule:nonzero;"/><path d="M3654.17,4087.5l537.5,0l-0,304.167l-125,-0l-0,-300c-204.188,2.062 -204.188,2.062 -412.5,4.166l-0,-8.333Z" style="fill:#d3d8de;fill-rule:nonzero;"/><path d="M2433.33,2983.33c18.315,-0.484 36.629,-0.78 54.948,-1.041c5.191,-0.14 10.383,-0.28 15.731,-0.424c7.513,-0.08 7.513,-0.08 15.177,-0.162c6.907,-0.131 6.907,-0.131 13.952,-0.265c16.016,2.388 22.677,6.591 33.526,18.559c2.629,11.955 2.629,11.955 2.62,25.651c0.008,4.947 0.016,9.894 0.025,14.99c-0.1,5.151 -0.199,10.302 -0.302,15.609c0.046,5.151 0.092,10.302 0.139,15.609c-0.308,37.751 -0.308,37.751 -9.215,49.587c-13.188,10.249 -21.158,9.826 -37.768,9.865c-2.793,0.029 -5.586,0.058 -8.463,0.088c-9.355,0.076 -18.704,0.033 -28.058,-0.01c-6.708,0.03 -13.416,0.066 -20.124,0.109c-18.216,0.094 -36.431,0.082 -54.647,0.045c-15.201,-0.022 -30.402,0.009 -45.603,0.039c-35.855,0.071 -71.709,0.056 -107.564,-0.014c-37.009,-0.07 -74.015,-0.004 -111.023,0.13c-31.763,0.112 -63.525,0.142 -95.288,0.107c-18.976,-0.021 -37.95,-0.012 -56.926,0.074c-17.84,0.076 -35.676,0.052 -53.515,-0.051c-6.551,-0.021 -13.102,-0.006 -19.653,0.046c-8.937,0.067 -17.864,0.005 -26.801,-0.09c-5.002,-0.002 -10.005,-0.005 -15.158,-0.007c-12.676,-2.61 -12.676,-2.61 -22.631,-12.445c-7.993,-13.098 -8.652,-20.577 -8.34,-35.82c0.054,-4.632 0.108,-9.265 0.163,-14.038c0.14,-4.793 0.279,-9.587 0.423,-14.526c0.076,-4.874 0.151,-9.749 0.228,-14.771c0.196,-12.007 0.47,-24.007 0.814,-36.01l4.167,-0l-0,91.666c69.65,-0.255 139.299,-0.575 208.948,-0.982c32.34,-0.187 64.68,-0.351 97.021,-0.461c28.191,-0.096 56.382,-0.235 84.573,-0.426c14.924,-0.1 29.847,-0.178 44.772,-0.204c16.67,-0.03 33.337,-0.157 50.007,-0.292c4.936,0.006 9.872,0.012 14.958,0.018c32.851,-0.351 32.851,-0.351 62.221,-14.319c15.446,-17.752 14.744,-37.184 15.364,-59.636c0.143,-3.483 0.285,-6.966 0.432,-10.555c0.341,-8.545 0.613,-17.094 0.87,-25.643Z" style="fill:#d0d6dc;fill-rule:nonzero;"/><path d="M3287.5,2983.33c19.096,-0.483 38.191,-0.78 57.292,-1.041c5.424,-0.14 10.849,-0.28 16.438,-0.424c5.21,-0.053 10.42,-0.107 15.788,-0.162c4.801,-0.088 9.601,-0.175 14.547,-0.265c12.602,1.892 12.602,1.892 22.484,8.724c13.362,19.37 9.33,43.35 9.128,66.085c0.099,5.151 0.199,10.302 0.301,15.609c-0.008,4.947 -0.016,9.893 -0.024,14.99c0.004,6.78 0.004,6.78 0.009,13.696c-3.571,16.234 -9.639,19.729 -23.463,28.622c-13.047,2.109 -13.047,2.109 -27.991,2.144c-2.759,0.029 -5.519,0.058 -8.362,0.088c-9.216,0.076 -18.428,0.033 -27.644,-0.01c-6.62,0.03 -13.239,0.066 -19.859,0.109c-17.958,0.094 -35.914,0.082 -53.872,0.045c-14.994,-0.022 -29.988,0.009 -44.982,0.039c-35.37,0.071 -70.739,0.056 -106.108,-0.014c-36.49,-0.07 -72.978,-0.004 -109.468,0.13c-31.335,0.112 -62.669,0.142 -94.004,0.107c-18.713,-0.021 -37.424,-0.012 -56.137,0.074c-17.593,0.076 -35.184,0.052 -52.777,-0.051c-6.455,-0.021 -12.91,-0.006 -19.365,0.046c-8.817,0.067 -17.624,0.005 -26.44,-0.09c-7.397,-0.004 -7.397,-0.004 -14.944,-0.007c-16.962,-3.394 -23.216,-10.108 -33.88,-23.444c-2.365,-12.309 -2.365,-12.309 -2.035,-25.732c0.067,-4.821 0.134,-9.641 0.204,-14.608c0.261,-7.488 0.261,-7.488 0.529,-15.128c0.094,-5.073 0.188,-10.146 0.284,-15.373c0.246,-12.503 0.588,-24.995 1.018,-37.492l4.166,0l0,95.833c68.963,-0.158 137.925,-0.404 206.887,-0.766c32.023,-0.166 64.045,-0.301 96.067,-0.363c27.92,-0.054 55.84,-0.167 83.759,-0.348c14.775,-0.094 29.55,-0.16 44.325,-0.156c16.519,0.004 33.035,-0.122 49.553,-0.259c4.867,0.021 9.735,0.042 14.749,0.064c28.388,-0.363 47.29,-3.479 71.327,-19.005c8.547,-12.82 9.469,-16.402 10.059,-31.038c0.241,-5.298 0.241,-5.298 0.488,-10.702c0.129,-3.671 0.258,-7.342 0.39,-11.125c0.242,-5.579 0.242,-5.579 0.489,-11.271c0.392,-9.176 0.749,-18.352 1.074,-27.531Z" style="fill:#d1d7dd;fill-rule:nonzero;"/><path d="M5904.17,2983.33c19.009,-0.484 38.017,-0.78 57.031,-1.041c5.39,-0.14 10.78,-0.28 16.333,-0.424c5.196,-0.053 10.393,-0.107 15.747,-0.162c4.779,-0.088 9.557,-0.175 14.481,-0.265c16.261,2.354 22.931,6.385 33.908,18.559c2.695,11.955 2.695,11.955 2.767,25.651c0.026,4.947 0.053,9.894 0.081,14.99c-0.081,5.151 -0.161,10.302 -0.244,15.609c0.08,5.151 0.161,10.302 0.244,15.609c-0.04,7.42 -0.04,7.42 -0.081,14.99c-0.024,4.52 -0.047,9.04 -0.072,13.696c-3.653,16.202 -9.713,19.732 -23.529,28.622c-13.047,2.109 -13.047,2.109 -27.99,2.144c-2.76,0.029 -5.519,0.058 -8.363,0.088c-9.216,0.076 -18.428,0.033 -27.644,-0.01c-6.62,0.03 -13.239,0.066 -19.858,0.109c-17.958,0.094 -35.915,0.082 -53.873,0.045c-14.994,-0.022 -29.988,0.009 -44.982,0.039c-35.369,0.071 -70.738,0.056 -106.108,-0.014c-36.49,-0.07 -72.978,-0.004 -109.468,0.13c-31.335,0.112 -62.669,0.142 -94.004,0.107c-18.712,-0.021 -37.424,-0.012 -56.136,0.074c-17.594,0.076 -35.184,0.052 -52.777,-0.051c-6.455,-0.021 -12.91,-0.006 -19.365,0.046c-8.817,0.067 -17.624,0.005 -26.441,-0.09c-7.397,-0.004 -7.397,-0.004 -14.944,-0.007c-16.953,-3.392 -23.208,-10.128 -33.88,-23.444c-2.365,-11.927 -2.365,-11.927 -2.035,-24.821c0.068,-4.632 0.135,-9.265 0.204,-14.038c0.175,-4.793 0.349,-9.587 0.529,-14.526c0.094,-4.874 0.188,-9.749 0.285,-14.771c0.245,-12.009 0.587,-24.007 1.017,-36.01l4.167,-0l-0,91.666c69.722,-0.254 139.443,-0.575 209.164,-0.982c32.373,-0.187 64.746,-0.351 97.119,-0.461c28.218,-0.096 56.434,-0.235 84.651,-0.426c14.94,-0.1 29.88,-0.178 44.82,-0.204c16.681,-0.03 33.36,-0.157 50.04,-0.292c4.951,0.006 9.902,0.012 15.003,0.018c4.551,-0.052 9.103,-0.104 13.792,-0.158c3.944,-0.019 7.889,-0.038 11.953,-0.058c12.998,-1.902 20.855,-7.032 31.791,-14.103l8.333,-0c7.344,-19.305 9.958,-36.709 11.198,-57.292c0.54,-8.218 0.54,-8.218 1.091,-16.602c1.25,-13.13 1.25,-13.13 -3.955,-21.94Z" style="fill:#d1d7dd;fill-rule:nonzero;"/><path d="M4145.83,2983.33c18.315,-0.484 36.629,-0.78 54.948,-1.041c5.191,-0.14 10.383,-0.28 15.731,-0.424c7.513,-0.08 7.513,-0.08 15.177,-0.162c6.907,-0.131 6.907,-0.131 13.952,-0.265c15.984,2.383 22.653,6.67 33.526,18.559c4.253,17.721 3.092,35.734 2.864,53.906c0.116,4.917 0.231,9.835 0.35,14.901c-0.013,4.745 -0.027,9.491 -0.041,14.38c-0.002,6.485 -0.002,6.485 -0.005,13.101c-3.489,13.263 -7.969,20.017 -18.76,28.489c-22.402,10.452 -49.634,7.218 -73.945,7.019c-6.627,0.022 -13.254,0.052 -19.88,0.091c-17.958,0.077 -35.914,0.023 -53.871,-0.059c-18.8,-0.068 -37.599,-0.032 -56.398,-0.01c-31.559,0.018 -63.117,-0.048 -94.676,-0.164c-36.492,-0.134 -72.983,-0.134 -109.475,-0.062c-35.111,0.066 -70.222,0.038 -105.333,-0.033c-14.942,-0.028 -29.883,-0.024 -44.825,0.007c-17.586,0.032 -35.171,-0.019 -52.757,-0.133c-6.456,-0.029 -12.913,-0.029 -19.37,0.001c-8.808,0.036 -17.609,-0.03 -26.417,-0.123c-7.394,-0.017 -7.394,-0.017 -14.939,-0.035c-15.082,-2.54 -19.848,-6.932 -29.189,-18.776c-5.436,-10.873 -4.638,-18.863 -4.574,-31.022c0.014,-4.485 0.027,-8.97 0.041,-13.591c0.035,-4.699 0.07,-9.399 0.106,-14.241c0.019,-4.732 0.038,-9.464 0.057,-14.339c0.049,-11.714 0.118,-23.427 0.203,-35.14l4.167,-0l0,91.666c70.193,-0.255 140.386,-0.575 210.578,-0.982c32.593,-0.187 65.185,-0.351 97.778,-0.461c28.411,-0.096 56.822,-0.235 85.232,-0.426c15.041,-0.1 30.08,-0.178 45.121,-0.204c16.8,-0.03 33.597,-0.157 50.396,-0.292c7.463,0.009 7.463,0.009 15.076,0.018c32.995,-0.316 32.995,-0.316 62.486,-14.319c15.446,-17.752 14.744,-37.184 15.364,-59.636c0.143,-3.483 0.285,-6.966 0.432,-10.555c0.341,-8.545 0.613,-17.094 0.87,-25.643Z" style="fill:#cfd5db;fill-rule:nonzero;"/><path d="M5037.5,2983.33c19.097,-0.362 38.193,-0.585 57.292,-0.781c5.424,-0.105 10.849,-0.209 16.438,-0.317c7.815,-0.061 7.815,-0.061 15.788,-0.122c4.801,-0.066 9.601,-0.131 14.547,-0.199c14.185,1.598 19.904,3.141 29.268,13.919c3.587,19.145 2.509,38.632 2.344,58.073c0.099,5.369 0.199,10.737 0.301,16.268c-0.008,5.154 -0.016,10.307 -0.024,15.617c0.004,7.081 0.004,7.081 0.009,14.306c-2.63,12.403 -2.63,12.403 -11.471,21.378c-14.505,9.304 -22.689,9.795 -39.825,9.836c-2.742,0.029 -5.485,0.058 -8.31,0.088c-9.159,0.076 -18.313,0.033 -27.472,-0.01c-6.578,0.03 -13.157,0.066 -19.735,0.109c-17.846,0.094 -35.691,0.082 -53.537,0.045c-14.901,-0.022 -29.801,0.009 -44.702,0.039c-35.15,0.071 -70.299,0.056 -105.449,-0.014c-36.263,-0.07 -72.524,-0.004 -108.786,0.13c-31.141,0.112 -62.28,0.142 -93.42,0.107c-18.597,-0.021 -37.192,-0.012 -55.788,0.074c-17.484,0.076 -34.965,0.052 -52.448,-0.051c-6.415,-0.021 -12.83,-0.006 -19.244,0.046c-8.763,0.067 -17.515,0.005 -26.277,-0.09c-7.351,-0.004 -7.351,-0.004 -14.85,-0.007c-16.905,-3.399 -23.166,-10.17 -33.816,-23.444c-2.365,-11.927 -2.365,-11.927 -2.034,-24.821c0.067,-4.632 0.134,-9.265 0.203,-14.038c0.175,-4.793 0.349,-9.587 0.529,-14.526c0.094,-4.874 0.188,-9.749 0.285,-14.771c0.245,-12.009 0.587,-24.007 1.017,-36.01l4.167,-0l-0,91.666c69.65,-0.158 139.299,-0.404 208.949,-0.766c32.34,-0.166 64.68,-0.301 97.02,-0.363c28.192,-0.054 56.383,-0.166 84.574,-0.348c14.924,-0.094 29.847,-0.16 44.771,-0.156c16.67,0.004 33.337,-0.122 50.007,-0.259c7.404,0.032 7.404,0.032 14.958,0.064c26.039,-0.331 42.679,-1.039 62.221,-19.005c8.547,-12.82 9.469,-16.402 10.059,-31.038c0.241,-5.298 0.241,-5.298 0.488,-10.702c0.129,-3.671 0.258,-7.342 0.39,-11.125c0.242,-5.579 0.242,-5.579 0.489,-11.271c0.392,-9.176 0.749,-18.352 1.074,-27.531Z" style="fill:#d0d6dc;fill-rule:nonzero;"/><path d="M1950,4087.5l533.333,0l0,295.833l-129.166,0c1.375,-96.25 2.75,-192.5 4.166,-291.666l-408.333,-0l0,-4.167Z" style="fill:#d5dae0;fill-rule:nonzero;"/><path d="M5425,4429.17l45.833,-0c0.006,4.706 0.012,9.413 0.018,14.262c0.07,44.619 0.249,89.237 0.533,133.855c0.142,22.932 0.247,45.863 0.264,68.796c0.018,22.181 0.138,44.36 0.325,66.541c0.053,8.411 0.072,16.822 0.053,25.234c-0.151,86.524 17.373,163.444 77.974,228.812c31.274,29.81 74.921,48.625 116.667,58.333l-0,54.167c-50.197,4.633 -96.778,-16.229 -136.377,-46.241c-55.735,-46.717 -94.196,-106.298 -105.29,-178.759c-1.037,-14.6 -1.061,-29.112 -0.946,-43.744c-0.001,-4.152 -0.002,-8.303 -0.004,-12.58c0.006,-13.572 0.071,-27.143 0.136,-40.714c0.016,-9.469 0.028,-18.938 0.036,-28.407c0.032,-24.81 0.113,-49.62 0.206,-74.43c0.085,-25.362 0.123,-50.724 0.165,-76.086c0.089,-49.68 0.231,-99.359 0.407,-149.039Z" style="fill:#fbfbfa;fill-rule:nonzero;"/><path d="M3654.17,4441.67l50,-0c0.006,4.645 0.012,9.29 0.018,14.076c0.07,44.066 0.249,88.13 0.532,132.195c0.142,22.647 0.247,45.293 0.264,67.941c0.018,21.911 0.138,43.82 0.325,65.731c0.054,8.303 0.072,16.606 0.053,24.909c-0.122,68.647 6.687,133.982 48.808,190.981c1.987,2.836 3.974,5.672 6.022,8.594c29.991,38.581 76.139,64.056 123.144,74.739c2.063,28.875 2.063,28.875 4.167,58.334c-62.065,-0 -115.655,-36.708 -158.333,-79.167c-2.659,-2.514 -5.318,-5.027 -8.057,-7.617c-24.182,-24.774 -37.966,-56.252 -50.277,-88.216c-1.409,-3.386 -2.818,-6.772 -4.27,-10.26c-16.646,-45.506 -14.509,-90.68 -14.024,-138.52c0.031,-9.077 0.055,-18.155 0.072,-27.232c0.063,-23.722 0.226,-47.441 0.411,-71.162c0.172,-24.274 0.247,-48.547 0.331,-72.821c0.178,-47.503 0.462,-95.004 0.814,-142.505Z" style="fill:#f9faf8;fill-rule:nonzero;"/><path d="M1950,4429.17l50,-0c0.051,7.065 0.051,7.065 0.102,14.272c0.324,44.504 0.69,89.007 1.096,133.51c0.208,22.877 0.401,45.753 0.56,68.63c0.154,22.1 0.347,44.199 0.567,66.298c0.077,8.408 0.14,16.817 0.189,25.226c0.071,11.827 0.192,23.652 0.324,35.478c0.009,3.435 0.018,6.869 0.027,10.408c1.058,74.655 30.36,140.259 83.252,192.629c11.532,9.157 23.622,14.983 36.8,21.517c12.939,7.032 12.939,7.032 22.916,15.365c5.277,18.534 4.52,36.795 -4.166,54.167c-47.778,-2.124 -84.235,-34.346 -116.667,-66.667c-2.659,-2.562 -5.317,-5.124 -8.057,-7.764c-64.684,-67.277 -69.445,-156.074 -68.571,-243.652c0.032,-9.252 0.055,-18.505 0.072,-27.757c0.063,-24.146 0.226,-48.291 0.412,-72.436c0.171,-24.721 0.246,-49.443 0.33,-74.164c0.178,-48.354 0.462,-96.707 0.814,-145.06Z" style="fill:#f9f9f9;fill-rule:nonzero;"/><path d="M2800,4529.17l54.167,-0c0.082,8.156 0.165,16.312 0.25,24.715c0.283,27.042 0.603,54.083 0.948,81.124c0.207,16.384 0.4,32.769 0.559,49.153c0.155,15.832 0.348,31.664 0.568,47.495c0.077,6.02 0.14,12.04 0.189,18.059c0.586,69.989 16.839,129.855 64.152,183.62c23.904,22.593 50.041,39.134 79.167,54.167l0,54.167c-52.613,-1.986 -98.154,-37.912 -133.333,-75c-53.693,-64.389 -68.088,-141.938 -67.481,-223.47c0.016,-6.2 0.028,-12.399 0.036,-18.599c0.031,-16.179 0.113,-32.358 0.206,-48.537c0.086,-16.564 0.123,-33.129 0.165,-49.694c0.089,-32.4 0.235,-64.8 0.407,-97.2Z" style="fill:#f8f8f7;fill-rule:nonzero;"/><rect x="3654.17" y="3175" width="537.5" height="54.167" style="fill:#fdfdfd;fill-rule:nonzero;"/><path d="M1225,5716.67c8.333,4.166 16.667,8.333 25,12.5c10.295,0.508 20.48,0.773 30.78,0.855c4.757,0.062 4.757,0.062 9.61,0.125c10.505,0.132 21.011,0.235 31.518,0.338c7.274,0.086 14.549,0.173 21.824,0.262c19.165,0.231 38.332,0.436 57.498,0.637c19.55,0.209 39.1,0.441 58.65,0.672c38.373,0.448 76.746,0.871 115.12,1.277c0.468,31.848 0.468,31.848 -3.743,45.215c-13.914,14.224 -29.705,15.472 -48.861,18.848c-4.225,0.809 -8.449,1.619 -12.801,2.452c-12.645,2.377 -25.304,4.651 -37.977,6.877c-10.014,1.766 -20.021,3.565 -30.029,5.366c-22.879,4.109 -45.773,8.132 -68.672,12.128c-3.768,0.662 -7.535,1.325 -11.417,2.008c-10.903,1.906 -21.812,3.772 -32.724,5.625c-3.248,0.572 -6.496,1.144 -9.842,1.733c-50.872,8.497 -50.872,8.497 -69.032,-0.056c-13.849,-13.289 -23.916,-23.585 -25.848,-43.071c0.044,-3.404 0.087,-6.808 0.132,-10.315c0.027,-3.706 0.054,-7.412 0.082,-11.23c0.069,-3.835 0.139,-7.67 0.211,-11.621c0.038,-3.9 0.075,-7.799 0.114,-11.817c0.098,-9.604 0.235,-19.205 0.407,-28.808Z" style="fill:#d3d8de;fill-rule:nonzero;"/><path d="M6991.67,4508.33l-0,50c-28.719,9.345 -58.255,13.547 -88.021,18.23c-2.801,0.445 -5.601,0.891 -8.486,1.35c-42.774,6.802 -85.603,13.196 -128.493,19.222c-5.012,0.714 -10.024,1.428 -15.188,2.163c-22.915,3.146 -45.011,5.777 -68.146,4.869l0,-54.167c29.772,-7.039 59.566,-12.01 89.828,-16.439c7.402,-1.092 7.402,-1.092 14.953,-2.206c10.389,-1.527 20.779,-3.046 31.17,-4.559c15.813,-2.308 31.618,-4.663 47.423,-7.021c10.137,-1.484 20.274,-2.965 30.412,-4.443c7.02,-1.054 7.02,-1.054 14.182,-2.13c27.105,-3.889 52.982,-5.552 80.366,-4.869Z" style="fill:#202123;fill-rule:nonzero;"/><path d="M6991.67,4608.33l-0,54.167c-4.574,0.692 -9.147,1.384 -13.859,2.097c-17.304,2.62 -34.606,5.257 -51.907,7.898c-7.425,1.131 -14.851,2.258 -22.278,3.381c-42.359,6.407 -84.557,13.218 -126.618,21.373c-65.083,12.342 -65.083,12.342 -89.505,11.084c-4.167,-4.166 -4.167,-4.166 -4.574,-15.511c0.049,-4.592 0.097,-9.184 0.147,-13.916c0.038,-4.603 0.075,-9.206 0.114,-13.948c0.048,-3.561 0.097,-7.122 0.146,-10.791c18.999,-6.989 37.601,-10.752 57.585,-13.412c3.083,-0.431 6.166,-0.862 9.342,-1.305c9.806,-1.367 19.617,-2.702 29.428,-4.033c12.859,-1.77 25.717,-3.552 38.574,-5.339c3.108,-0.431 6.216,-0.861 9.418,-1.305c30.447,-4.255 60.742,-9.244 90.989,-14.743c24.768,-4.503 47.829,-6.536 72.998,-5.697Z" style="fill:#222224;fill-rule:nonzero;"/><path d="M6625,5429.17c21.981,11.869 36.137,25.888 46.875,48.437c7.809,35.142 5.381,66.639 -12.76,97.917c-20.515,26.962 -20.515,26.962 -38.884,30.241c-15.771,0.784 -26.108,-0.34 -40.283,-7.585c-24.782,-29.031 -28.752,-57.632 -27.653,-95.378c3.511,-28.695 13.453,-48.698 34.945,-67.903c14.461,-6.493 22.123,-8.336 37.76,-5.729Z" style="fill:#222325;fill-rule:nonzero;"/><path d="M7420.83,5300c22.56,10.829 37.532,26.474 45.834,50c4.468,35.2 4.091,70.059 -16.667,100c-9.381,12.062 -18.746,19.596 -34.212,22.656c-15.858,0.843 -25.889,-0.543 -40.007,-8.073c-26.776,-30.602 -29.297,-58.613 -27.669,-97.835c1.706,-20.799 8.087,-35.125 22.721,-50.081c4.899,-5.157 4.899,-5.157 9.896,-10.417c14.673,-8.384 23.425,-8.591 40.104,-6.25Z" style="fill:#222224;fill-rule:nonzero;"/><path d="M6933.33,4720.83c4.167,4.167 4.167,4.167 4.574,15.511c-0.048,4.593 -0.097,9.185 -0.147,13.916c-0.037,4.603 -0.075,9.206 -0.114,13.949c-0.048,3.561 -0.096,7.122 -0.146,10.791c-30.834,4.782 -61.675,9.525 -92.519,14.242c-10.485,1.607 -20.968,3.224 -31.45,4.85c-15.097,2.34 -30.199,4.648 -45.302,6.95c-4.658,0.729 -9.317,1.458 -14.116,2.209c-23.902,3.61 -46.608,5.902 -70.78,5.082c-0.336,-8.157 -0.579,-16.317 -0.781,-24.479c-0.145,-4.544 -0.29,-9.088 -0.439,-13.769c0.402,-3.878 0.805,-7.756 1.22,-11.752c11.813,-7.875 16.009,-9.647 29.323,-11.508c3.368,-0.486 6.736,-0.973 10.206,-1.474c3.633,-0.491 7.266,-0.981 11.008,-1.487c5.652,-0.8 5.652,-0.8 11.418,-1.616c7.987,-1.125 15.976,-2.234 23.968,-3.329c12.11,-1.66 24.215,-3.362 36.319,-5.073c7.782,-1.09 15.565,-2.178 23.348,-3.263c3.573,-0.5 7.147,-0.999 10.829,-1.513c67.617,-9.249 67.617,-9.249 93.581,-8.237Z" style="fill:#222324;fill-rule:nonzero;"/><path d="M7241.67,5616.67c2.795,10.846 5.57,21.697 8.333,32.552c1.192,4.612 1.192,4.612 2.409,9.318c3.227,12.735 5.924,24.104 5.924,37.296c-17.359,1.411 -34.721,2.791 -52.083,4.167c-4.888,0.397 -9.775,0.795 -14.811,1.204c-13.809,1.086 -27.617,2.07 -41.439,2.963c-3.47,0.231 -6.939,0.462 -10.514,0.7c-11.686,0.449 -20.497,0.604 -30.843,-5.209c-6.528,-11.655 -7.726,-22.659 -9.424,-35.856c-0.661,-4.914 -1.322,-9.829 -2.002,-14.892c-0.457,-3.766 -0.913,-7.531 -1.384,-11.41c111.229,-21.668 111.229,-21.668 145.834,-20.833Z" style="fill:#cad0d4;fill-rule:nonzero;"/><path d="M4066.67,3175l125,0l-0,54.167l-537.5,-0l-0,-4.167l412.5,0l-0,-50Z" style="fill:#c2c7cb;fill-rule:nonzero;"/><path d="M4066.67,3175l125,0l-0,54.167l-537.5,-0l-0,-4.167l412.5,0l-0,-50Z" style="fill:#c2c7cb;fill-rule:nonzero;"/><path d="M2279.17,3408.33c54.095,-1.803 54.095,-1.803 75,12.5c10.375,10.376 9.571,14.062 9.635,28.386c-0.481,17.586 -1.089,29.337 -13.802,42.448c-24.29,14.026 -41.344,12.5 -70.833,12.5l-0,-95.834Z" style="fill:#f8f8f8;fill-rule:nonzero;"/><path d="M3700,3770.83l450,0l0,4.167c-10.763,1.313 -21.527,2.613 -32.292,3.906c-2.959,0.363 -5.919,0.725 -8.968,1.099c-43.188,5.159 -86.038,8.148 -129.541,8.195c-4.613,0.014 -9.227,0.028 -13.98,0.042c-9.713,0.021 -19.426,0.031 -29.139,0.03c-14.545,0.009 -29.088,0.085 -43.632,0.164c-45.484,0.116 -90.64,-0.667 -135.97,-4.631c-5.695,-0.485 -5.695,-0.485 -11.505,-0.981c-18.02,-1.782 -28.287,-3.648 -44.973,-11.991Z" style="fill:#f2f2f2;fill-rule:nonzero;"/><path d="M2483.33,4975l4.167,0l0,241.667l-4.167,-0l0,-112.5c-5.5,-1.375 -11,-2.75 -16.666,-4.167c-7.195,-4.433 -14.22,-9.148 -21.094,-14.063c-3.572,-2.524 -7.144,-5.048 -10.824,-7.649c-8.155,-6.236 -15.253,-12.477 -22.249,-19.955c2.669,-2.524 5.339,-5.048 8.089,-7.649c21.952,-21.265 40.685,-42.437 57.422,-68.034c1.756,-2.525 3.513,-5.049 5.322,-7.65Z" style="fill:#b7bcc1;fill-rule:nonzero;"/><path d="M7117.71,3162.24c5.704,0.056 5.704,0.056 11.524,0.114c4.093,0.072 4.093,0.072 8.268,0.146l0,4.167c-6.547,0.692 -6.547,0.692 -13.226,1.397c-16.48,1.745 -32.959,3.503 -49.437,5.266c-7.078,0.755 -14.157,1.506 -21.236,2.254c-10.283,1.087 -20.565,2.187 -30.847,3.29c-3.071,0.321 -6.142,0.643 -9.307,0.974c-18.719,2.023 -37.3,4.545 -55.917,7.358c-41.761,6.04 -83.756,9.707 -125.759,13.624c-8.918,0.839 -17.837,1.677 -26.755,2.517c-18.573,1.743 -37.147,3.475 -55.722,5.199c-23.783,2.21 -47.562,4.463 -71.339,6.726c-18.364,1.742 -36.73,3.454 -55.098,5.158c-8.772,0.818 -17.543,1.647 -26.313,2.487c-12.23,1.168 -24.463,2.295 -36.697,3.413c-3.598,0.352 -7.195,0.705 -10.902,1.068c-18.577,1.651 -34.709,1.737 -53.112,-2.398l0,-4.167c81.653,-11.845 163.622,-19.011 245.786,-26.15c28.241,-2.457 56.479,-4.945 84.717,-7.437c6.916,-0.61 13.831,-1.22 20.747,-1.828c51.409,-4.53 102.772,-9.403 154.109,-14.683c86.586,-8.889 86.586,-8.889 116.516,-8.495Z" style="fill:#c1c1c1;fill-rule:nonzero;"/><path d="M6604.17,5470.83c9.895,0.261 9.895,0.261 20.833,4.167c12.927,18.276 15.74,36.453 12.5,58.333c-7.746,24.413 -7.746,24.413 -16.667,33.334c-6.942,0.169 -13.891,0.178 -20.833,-0c-14.79,-22.802 -15.587,-44.496 -12.5,-70.834c4.885,-10.62 8.596,-16.929 16.667,-25Z" style="fill:#838b92;fill-rule:nonzero;"/><path d="M7404.17,5337.5c13.171,5.708 16.636,8.288 25,20.833c1.399,13.249 1.399,13.249 1.562,28.646c0.118,5.06 0.236,10.119 0.358,15.332c-2.216,16.565 -7.156,23.306 -18.587,35.189c-11.534,-1.193 -15.964,-3.414 -23.958,-11.979c-7.812,-19.529 -7.582,-38.092 -5.209,-58.854c5.764,-12.837 10.994,-19.327 20.834,-29.167Z" style="fill:#81888e;fill-rule:nonzero;"/><path d="M6804.17,3195.83l-0,4.167c-52.215,8.546 -104.835,13.206 -157.491,18.092c-15.508,1.447 -31.01,2.944 -46.513,4.442c-9.907,0.928 -19.813,1.853 -29.72,2.775c-6.915,0.677 -6.915,0.677 -13.969,1.367c-21.018,1.903 -39.891,3.455 -60.641,-1.676l0,-4.167c53.555,-7.76 107.182,-13.95 161.083,-18.695c6.228,-0.549 12.456,-1.107 18.683,-1.675c42.964,-3.891 85.433,-5.316 128.568,-4.63Z" style="fill:#d4d5d5;fill-rule:nonzero;"/><path d="M6654.17,3212.5l-0,4.167c-18.527,1.898 -37.058,3.753 -55.593,5.569c-6.297,0.623 -12.594,1.258 -18.889,1.904c-9.078,0.931 -18.16,1.819 -27.244,2.699c-5.455,0.546 -10.91,1.091 -16.53,1.653c-14.2,0.635 -26.219,-0.557 -40.078,-3.492l0,-4.167c15.098,-2.129 30.205,-4.194 45.313,-6.25c6.332,-0.894 6.332,-0.894 12.793,-1.806c33.045,-4.449 67.515,-9 100.228,-0.277Z" style="fill:#cbcbca;fill-rule:nonzero;"/><path d="M7300,3175c5.07,0.773 10.141,1.547 15.365,2.344c25.63,2.948 50.73,0.225 76.302,-2.344l-0,8.333c-11.051,5.526 -20.51,5.499 -32.845,6.397c-4.861,0.362 -9.722,0.725 -14.73,1.098c-5.097,0.363 -10.195,0.726 -15.446,1.099c-5.13,0.379 -10.259,0.757 -15.544,1.148c-12.699,0.935 -25.4,1.854 -38.102,2.758l0,-8.333c3.352,-0.516 6.703,-1.031 10.156,-1.563c3.524,-0.859 7.047,-1.718 10.677,-2.604c1.375,-2.75 2.75,-5.5 4.167,-8.333Z" style="fill:#242628;fill-rule:nonzero;"/><path d="M3700,3770.83l95.833,0c1.375,4.125 2.75,8.25 4.167,12.5c-34.344,1.096 -66.3,-1.641 -100,-8.333l0,-4.167Z" style="fill:#dfdfde;fill-rule:nonzero;"/><path d="M1618.23,3228.91c7.783,0.057 7.783,0.057 15.723,0.114c5.881,0.073 5.881,0.073 11.881,0.147c-1.375,2.75 -2.75,5.5 -4.166,8.333c-17.514,5.244 -35.276,4.652 -53.386,4.427c-2.887,-0.019 -5.774,-0.038 -8.748,-0.057c-7.067,-0.049 -14.133,-0.123 -21.2,-0.203c1.375,-2.75 2.75,-5.5 4.167,-8.334c18.61,-4.443 36.667,-4.607 55.729,-4.427Z" style="fill:#dfe3e8;fill-rule:nonzero;"/><path d="M6883.33,3191.67l0,4.166c-12.672,0.816 -25.345,1.591 -38.02,2.344c-5.35,0.351 -5.35,0.351 -10.808,0.708c-19.179,1.107 -36.414,1.136 -55.338,-3.052l-0,-4.166c35.37,-4.143 68.765,-3.712 104.166,-0Z" style="fill:#bcbdbd;fill-rule:nonzero;"/><path d="M1733.33,5366.67c1.375,4.125 2.75,8.25 4.167,12.5l-75,-0c23.942,-11.972 44.28,-13.031 70.833,-12.5Z" style="fill:#d7d7d9;fill-rule:nonzero;"/><path d="M7300,3175c12.5,4.167 25,8.333 37.5,12.5l0,4.167c-20.625,1.375 -41.25,2.75 -62.5,4.166l0,-8.333c3.352,-0.516 6.703,-1.031 10.156,-1.563c3.524,-0.859 7.047,-1.718 10.677,-2.604c1.375,-2.75 2.75,-5.5 4.167,-8.333Z" style="fill:#2b2b2d;fill-rule:nonzero;"/><path d="M1854.17,3737.5c1.375,2.75 2.75,5.5 4.166,8.333c-17.875,2.75 -35.75,5.5 -54.166,8.334c-1.375,-2.75 -2.75,-5.5 -4.167,-8.334c35.119,-9.523 35.119,-9.523 54.167,-8.333Z" style="fill:#303235;fill-rule:nonzero;"/><path d="M3541.67,2954.17l8.333,-0c-5.761,11.952 -12.173,23.167 -19.271,34.375c-1.858,2.943 -3.717,5.886 -5.631,8.919c-1.408,2.213 -2.815,4.426 -4.265,6.706c-2.815,-7.227 -2.815,-7.227 -4.166,-16.667c4.769,-8.919 4.769,-8.919 11.718,-17.708c3.392,-4.415 3.392,-4.415 6.853,-8.92c2.121,-2.212 4.243,-4.425 6.429,-6.705Z" style="fill:#383839;fill-rule:nonzero;"/><path d="M6937.5,4995.83c-4.427,6.511 -4.427,6.511 -12.5,12.5c-15.365,-1.302 -15.365,-1.302 -29.167,-4.166c15.184,-10.123 23.802,-9.008 41.667,-8.334Z" style="fill:#dce1e7;fill-rule:nonzero;"/><path d="M1404.17,3245.83l-0,4.167c-19.964,6.788 -33.568,9.191 -54.167,4.167l0,-4.167c18.371,-4.593 35.349,-4.486 54.167,-4.167Z" style="fill:#a4a7aa;fill-rule:nonzero;"/></svg>