<?xml version="1.0" encoding="UTF-8" standalone="no"?><!DOCTYPE svg PUBLIC "-//W3C//DTD SVG 1.1//EN" "http://www.w3.org/Graphics/SVG/1.1/DTD/svg11.dtd"><svg width="100%" height="100%" viewBox="0 0 8534 8534" version="1.1" xmlns="http://www.w3.org/2000/svg" xmlns:xlink="http://www.w3.org/1999/xlink" xml:space="preserve" xmlns:serif="http://www.serif.com/" style="fill-rule:evenodd;clip-rule:evenodd;stroke-linejoin:round;stroke-miterlimit:2;"><path d="M4572.58,2015.15c13.337,1.351 26.644,2.427 40.019,3.318c102.825,6.983 205.648,24.515 306.673,44.548c4.826,0.955 9.652,1.909 14.625,2.893c45.782,9.433 91.598,20.53 134.333,39.815c2.804,1.252 5.607,2.503 8.495,3.792c21.26,9.783 39.304,20.64 56.609,36.312c2.45,1.977 4.899,3.953 7.422,5.99c34.364,30.144 56.846,80.818 60.037,126.081c0.348,13.277 0.429,26.532 0.419,39.815c0.028,5.031 0.056,10.063 0.084,15.247c0.066,13.724 0.093,27.448 0.099,41.172c0.006,8.605 0.024,17.21 0.046,25.815c0.077,30.11 0.111,60.219 0.104,90.328c-0.005,27.919 0.083,55.837 0.215,83.756c0.109,24.085 0.153,48.169 0.148,72.255c-0.002,14.333 0.021,28.665 0.11,42.998c0.457,88.991 -3.211,166.972 -67.675,235.205c-43.583,41.23 -96.411,68.409 -155.175,79.672c0.186,21.483 0.479,42.962 0.864,64.443c0.117,7.28 0.206,14.561 0.265,21.842c-0.39,81.38 -0.39,81.38 36.371,151.215c8.209,5.712 8.209,5.712 17.187,9.684c3.263,1.597 6.527,3.194 9.889,4.839c3.44,1.653 6.88,3.305 10.424,5.008c79.156,40.084 134.685,101.757 166.666,184.635c7.104,21.873 12.119,44.131 16.667,66.667c0.736,3.333 1.472,6.667 2.23,10.101c1.857,10.292 2.462,19.612 2.469,30.053c0.012,3.787 0.025,7.575 0.038,11.477c-0.011,6.198 -0.011,6.198 -0.023,12.522c0.009,4.43 0.017,8.86 0.026,13.425c0.024,14.946 0.018,29.891 0.012,44.837c0.011,10.784 0.023,21.568 0.037,32.352c0.032,26.594 0.041,53.189 0.043,79.783c0.004,31.85 0.032,63.7 0.06,95.551c0.067,76.99 0.092,153.981 0.112,230.972c0.009,36.426 0.024,72.852 0.04,109.277c0.054,124.7 0.098,249.399 0.113,374.099c0,7.829 0.001,15.658 0.002,23.487c0.001,7.848 0.002,15.696 0.003,23.544c0.002,15.744 0.004,31.488 0.006,47.233c0,5.855 0,5.855 0.001,11.829c0.015,126.539 0.081,253.078 0.179,379.617c0.102,133.795 0.159,267.589 0.164,401.384c0.001,14.693 0.002,29.385 0.003,44.078c0,3.618 0,7.236 0.001,10.963c0.004,58.182 0.05,116.365 0.111,174.547c0.06,58.506 0.073,117.012 0.04,175.518c-0.019,34.74 -0.003,69.479 0.063,104.219c0.046,25.97 0.026,51.94 -0.02,77.91c-0.008,10.485 0.005,20.969 0.041,31.454c0.369,113.536 -17.776,213.107 -97.418,299.768c-119.736,117.592 -320.739,132.2 -479.166,149.219c-4.071,0.438 -8.142,0.876 -12.336,1.327c-11.858,1.261 -23.718,2.49 -35.581,3.702c-5.138,0.532 -5.138,0.532 -10.38,1.075c-65.121,6.444 -129.861,7.945 -195.252,8.17c-4.5,0.02 -9,0.04 -13.636,0.061c-34.029,0.15 -68.057,0.216 -102.086,0.248c-7.468,0.009 -7.468,0.009 -15.086,0.018c-147.547,0.145 -293.899,-1.024 -440.643,-17.987c-6.299,-0.698 -12.598,-1.394 -18.897,-2.089c-69.402,-7.795 -137.945,-20.277 -206.103,-35.411c-3.82,-0.843 -7.639,-1.686 -11.575,-2.555c-106.816,-23.999 -202.308,-64.636 -263.865,-159.245c-36.492,-61.021 -54.403,-131.675 -54.275,-202.451c-0.008,-4.391 -0.017,-8.781 -0.026,-13.305c-0.023,-14.785 -0.017,-29.57 -0.011,-44.355c-0.011,-10.678 -0.023,-21.356 -0.038,-32.035c-0.031,-26.317 -0.04,-52.635 -0.043,-78.953c-0.004,-31.523 -0.031,-63.045 -0.06,-94.568c-0.066,-76.197 -0.091,-152.394 -0.111,-228.591c-0.01,-36.056 -0.025,-72.112 -0.04,-108.168c-0.054,-123.451 -0.099,-246.903 -0.113,-370.354c-0.001,-7.75 -0.002,-15.5 -0.003,-23.249c-0.001,-7.769 -0.001,-15.537 -0.002,-23.305c-0.002,-15.585 -0.004,-31.169 -0.006,-46.754c-0,-3.864 -0.001,-7.728 -0.001,-11.709c-0.015,-125.24 -0.082,-250.481 -0.179,-375.721c-0.102,-132.445 -0.16,-264.891 -0.165,-397.336c-0,-14.547 -0.001,-29.095 -0.002,-43.643c-0,-3.582 -0.001,-7.164 -0.001,-10.854c-0.005,-57.58 -0.051,-115.16 -0.111,-172.741c-0.06,-57.912 -0.074,-115.825 -0.04,-173.738c0.018,-34.377 0.003,-68.753 -0.064,-103.13c-0.045,-25.715 -0.025,-51.43 0.02,-77.145c0.008,-10.369 -0.004,-20.739 -0.041,-31.108c-0.402,-122.546 17.185,-233.928 105.8,-325.296c33.126,-31.166 72.653,-54.827 112.973,-75.472c18.325,-9.969 28.498,-16.93 36.979,-36.719c12.698,-44.987 14.699,-88.505 15.364,-134.895c0.139,-6.761 0.283,-13.521 0.432,-20.28c0.348,-16.33 0.629,-32.66 0.87,-48.991c-2.615,-0.421 -5.23,-0.841 -7.924,-1.274c-24.718,-4.389 -45.432,-10.996 -67.596,-22.685c-2.882,-1.487 -5.764,-2.975 -8.733,-4.508c-20.734,-10.925 -39.898,-22.507 -57.413,-38.2c-2.804,-2.471 -5.608,-4.941 -8.496,-7.487c-39.422,-36.912 -68.378,-89.97 -71.219,-144.738c-0.012,-3.756 -0.024,-7.513 -0.037,-11.383c-0.024,-4.339 -0.048,-8.678 -0.072,-13.148c-0.005,-4.717 -0.01,-9.434 -0.014,-14.293c-0.021,-5.003 -0.042,-10.006 -0.063,-15.16c-0.05,-13.698 -0.082,-27.396 -0.1,-41.095c-0.012,-8.579 -0.029,-17.158 -0.048,-25.737c-0.057,-26.902 -0.097,-53.803 -0.113,-80.705c-0.019,-30.94 -0.092,-61.879 -0.213,-92.819c-0.09,-23.986 -0.132,-47.971 -0.138,-71.957c-0.004,-14.291 -0.028,-28.581 -0.103,-42.872c-0.071,-15.984 -0.063,-31.966 -0.036,-47.949c-0.039,-4.658 -0.077,-9.316 -0.117,-14.115c0.319,-60.748 17.873,-115.31 59.789,-160.266c60.21,-56.397 139.5,-79.767 219.102,-93.656c7.447,-1.303 14.889,-2.64 22.326,-3.996c305.1,-55.456 626.563,-73.451 935.464,-40.969Z" style="fill:#deeffc;fill-rule:nonzero;"/><path d="M4572.58,2015.15c13.337,1.351 26.644,2.427 40.019,3.318c102.825,6.983 205.648,24.515 306.673,44.548c4.826,0.955 9.652,1.909 14.625,2.893c45.782,9.433 91.598,20.53 134.333,39.815c2.804,1.252 5.607,2.503 8.495,3.792c21.26,9.783 39.304,20.64 56.609,36.312c2.45,1.977 4.899,3.953 7.422,5.99c34.364,30.144 56.846,80.818 60.037,126.081c0.348,13.277 0.429,26.532 0.419,39.815c0.028,5.031 0.056,10.063 0.084,15.247c0.066,13.724 0.093,27.448 0.099,41.172c0.006,8.605 0.024,17.21 0.046,25.815c0.077,30.11 0.111,60.219 0.104,90.328c-0.005,27.919 0.083,55.837 0.215,83.756c0.109,24.085 0.153,48.169 0.148,72.255c-0.002,14.333 0.021,28.665 0.11,42.998c0.457,88.991 -3.211,166.972 -67.675,235.205c-43.583,41.23 -96.411,68.409 -155.175,79.672c0.186,21.483 0.479,42.962 0.864,64.443c0.117,7.28 0.206,14.561 0.265,21.842c-0.39,81.38 -0.39,81.38 36.371,151.215c8.209,5.712 8.209,5.712 17.187,9.684c3.263,1.597 6.527,3.194 9.889,4.839c3.44,1.653 6.88,3.305 10.424,5.008c79.156,40.084 134.685,101.757 166.666,184.635c7.104,21.873 12.119,44.131 16.667,66.667c0.736,3.333 1.472,6.667 2.23,10.101c1.857,10.292 2.462,19.612 2.469,30.053c0.012,3.787 0.025,7.575 0.038,11.477c-0.011,6.198 -0.011,6.198 -0.023,12.522c0.009,4.43 0.017,8.86 0.026,13.425c0.024,14.946 0.018,29.891 0.012,44.837c0.011,10.784 0.023,21.568 0.037,32.352c0.032,26.594 0.041,53.189 0.043,79.783c0.004,31.85 0.032,63.7 0.06,95.551c0.067,76.99 0.092,153.981 0.112,230.972c0.009,36.426 0.024,72.852 0.04,109.277c0.054,124.7 0.098,249.399 0.113,374.099c0,7.829 0.001,15.658 0.002,23.487c0.001,7.848 0.002,15.696 0.003,23.544c0.002,15.744 0.004,31.488 0.006,47.233c0,5.855 0,5.855 0.001,11.829c0.015,126.539 0.081,253.078 0.179,379.617c0.102,133.795 0.159,267.589 0.164,401.384c0.001,14.693 0.002,29.385 0.003,44.078c0,3.618 0,7.236 0.001,10.963c0.004,58.182 0.05,116.365 0.111,174.547c0.06,58.506 0.073,117.012 0.04,175.518c-0.019,34.74 -0.003,69.479 0.063,104.219c0.046,25.97 0.026,51.94 -0.02,77.91c-0.008,10.485 0.005,20.969 0.041,31.454c0.369,113.536 -17.776,213.107 -97.418,299.768c-119.736,117.592 -320.739,132.2 -479.166,149.219c-4.071,0.438 -8.142,0.876 -12.336,1.327c-11.858,1.261 -23.718,2.49 -35.581,3.702c-5.138,0.532 -5.138,0.532 -10.38,1.075c-65.121,6.444 -129.861,7.945 -195.252,8.17c-4.5,0.02 -9,0.04 -13.636,0.061c-34.029,0.15 -68.057,0.216 -102.086,0.248c-7.468,0.009 -7.468,0.009 -15.086,0.018c-147.547,0.145 -293.899,-1.024 -440.643,-17.987c-6.299,-0.698 -12.598,-1.394 -18.897,-2.089c-69.402,-7.795 -137.945,-20.277 -206.103,-35.411c-3.82,-0.843 -7.639,-1.686 -11.575,-2.555c-106.816,-23.999 -202.308,-64.636 -263.865,-159.245c-36.492,-61.021 -54.403,-131.675 -54.275,-202.451c-0.008,-4.391 -0.017,-8.781 -0.026,-13.305c-0.023,-14.785 -0.017,-29.57 -0.011,-44.355c-0.011,-10.678 -0.023,-21.356 -0.038,-32.035c-0.031,-26.317 -0.04,-52.635 -0.043,-78.953c-0.004,-31.523 -0.031,-63.045 -0.06,-94.568c-0.066,-76.197 -0.091,-152.394 -0.111,-228.591c-0.01,-36.056 -0.025,-72.112 -0.04,-108.168c-0.054,-123.451 -0.099,-246.903 -0.113,-370.354c-0.001,-7.75 -0.002,-15.5 -0.003,-23.249c-0.001,-7.769 -0.001,-15.537 -0.002,-23.305c-0.002,-15.585 -0.004,-31.169 -0.006,-46.754c-0,-3.864 -0.001,-7.728 -0.001,-11.709c-0.015,-125.24 -0.082,-250.481 -0.179,-375.721c-0.102,-132.445 -0.16,-264.891 -0.165,-397.336c-0,-14.547 -0.001,-29.095 -0.002,-43.643c-0,-3.582 -0.001,-7.164 -0.001,-10.854c-0.005,-57.58 -0.051,-115.16 -0.111,-172.741c-0.06,-57.912 -0.074,-115.825 -0.04,-173.738c0.018,-34.377 0.003,-68.753 -0.064,-103.13c-0.045,-25.715 -0.025,-51.43 0.02,-77.145c0.008,-10.369 -0.004,-20.739 -0.041,-31.108c-0.402,-122.546 17.185,-233.928 105.8,-325.296c33.126,-31.166 72.653,-54.827 112.973,-75.472c18.325,-9.969 28.498,-16.93 36.979,-36.719c12.698,-44.987 14.699,-88.505 15.364,-134.895c0.139,-6.761 0.283,-13.521 0.432,-20.28c0.348,-16.33 0.629,-32.66 0.87,-48.991c-2.615,-0.421 -5.23,-0.841 -7.924,-1.274c-24.718,-4.389 -45.432,-10.996 -67.596,-22.685c-2.882,-1.487 -5.764,-2.975 -8.733,-4.508c-20.734,-10.925 -39.898,-22.507 -57.413,-38.2c-2.804,-2.471 -5.608,-4.941 -8.496,-7.487c-39.422,-36.912 -68.378,-89.97 -71.219,-144.738c-0.012,-3.756 -0.024,-7.513 -0.037,-11.383c-0.024,-4.339 -0.048,-8.678 -0.072,-13.148c-0.005,-4.717 -0.01,-9.434 -0.014,-14.293c-0.021,-5.003 -0.042,-10.006 -0.063,-15.16c-0.05,-13.698 -0.082,-27.396 -0.1,-41.095c-0.012,-8.579 -0.029,-17.158 -0.048,-25.737c-0.057,-26.902 -0.097,-53.803 -0.113,-80.705c-0.019,-30.94 -0.092,-61.879 -0.213,-92.819c-0.09,-23.986 -0.132,-47.971 -0.138,-71.957c-0.004,-14.291 -0.028,-28.581 -0.103,-42.872c-0.071,-15.984 -0.063,-31.966 -0.036,-47.949c-0.039,-4.658 -0.077,-9.316 -0.117,-14.115c0.319,-60.748 17.873,-115.31 59.789,-160.266c60.21,-56.397 139.5,-79.767 219.102,-93.656c7.447,-1.303 14.889,-2.64 22.326,-3.996c305.1,-55.456 626.563,-73.451 935.464,-40.969Zm-855.912,930.678c-0.016,2.757 -0.031,5.514 -0.046,8.354c-0.177,29.074 -0.467,58.145 -0.819,87.217c-0.117,10.805 -0.205,21.609 -0.264,32.414c-0.571,98.546 -4.628,198.711 -73.871,276.182c-16.213,14.396 -34.959,23.743 -54.167,33.512c-60.445,30.806 -109.523,65.551 -132.812,132.634c-5.68,18.906 -9.373,37.28 -9.387,57.062c-0.012,3.725 -0.025,7.45 -0.038,11.288c0.008,4.062 0.015,8.124 0.023,12.309c-0.009,4.357 -0.017,8.713 -0.026,13.202c-0.024,14.695 -0.018,29.39 -0.012,44.085c-0.011,10.604 -0.023,21.208 -0.037,31.812c-0.03,26.148 -0.041,52.297 -0.043,78.445c-0.004,31.316 -0.032,62.632 -0.06,93.948c-0.067,75.693 -0.092,151.387 -0.112,227.08c-0.009,35.807 -0.024,71.614 -0.04,107.422c-0.054,122.567 -0.098,245.135 -0.113,367.703c-0,7.695 -0.001,15.39 -0.002,23.085c-0.001,7.713 -0.002,15.426 -0.003,23.14c-0.002,15.474 -0.004,30.949 -0.006,46.423c-0,3.837 -0.001,7.674 -0.001,11.627c-0.015,124.404 -0.081,248.807 -0.179,373.21c-0.102,131.521 -0.159,263.042 -0.164,394.563c-0.001,14.438 -0.002,28.877 -0.003,43.315c-0,3.556 -0,7.111 -0.001,10.774c-0.004,57.208 -0.05,114.417 -0.111,171.625c-0.06,57.507 -0.073,115.014 -0.04,172.521c0.019,34.159 0.003,68.318 -0.063,102.477c-0.046,25.516 -0.026,51.031 0.02,76.547c0.008,10.316 -0.005,20.632 -0.041,30.948c-0.047,14.034 -0.015,28.067 0.035,42.101c-0.032,3.994 -0.064,7.988 -0.096,12.102c0.43,56.076 18.423,117.392 57.114,159.467c62.679,55.086 166.113,63.965 244.531,78.906c3.514,0.677 7.028,1.354 10.649,2.051c47.715,8.972 96.064,13.797 144.299,19.043c3.089,0.343 6.177,0.686 9.359,1.04c111.056,12.223 221.996,16.8 333.646,16.453c15.364,-0.048 30.728,-0.019 46.092,0.028c123.401,0.325 246.004,-5.984 368.455,-21.948c4.824,-0.623 4.824,-0.623 9.746,-1.259c114.228,-14.638 114.228,-14.638 227.234,-36.501c4.071,-0.921 8.143,-1.841 12.338,-2.789c57.755,-14.09 114.469,-36.17 146.516,-88.618c23.659,-40.68 30.436,-77.474 30.238,-124.169c0.022,-6.615 0.022,-6.615 0.045,-13.363c0.038,-14.776 0.018,-29.551 -0.002,-44.327c0.015,-10.701 0.034,-21.402 0.057,-32.103c0.043,-23.267 0.055,-46.533 0.046,-69.799c-0.013,-34.599 0.022,-69.198 0.066,-103.797c0.08,-65.392 0.104,-130.785 0.108,-196.177c0.004,-50.501 0.021,-101.002 0.048,-151.503c0.007,-14.539 0.015,-29.079 0.022,-43.618c0.002,-3.615 0.004,-7.23 0.006,-10.954c0.051,-101.664 0.084,-203.329 0.08,-304.994c0,-3.832 0,-7.665 -0,-11.613c-0.001,-19.425 -0.002,-38.849 -0.002,-58.274c-0.001,-3.857 -0.001,-7.715 -0.001,-11.69c-0,-7.801 -0.001,-15.602 -0.001,-23.404c-0.005,-121.376 0.057,-242.752 0.171,-364.129c0.128,-136.383 0.2,-272.766 0.192,-409.15c-0,-14.544 -0.001,-29.089 -0.001,-43.634c0,-3.582 -0,-7.163 -0,-10.853c-0,-57.609 0.053,-115.219 0.125,-172.829c0.07,-57.906 0.078,-115.813 0.024,-173.719c-0.031,-34.39 -0.016,-68.779 0.066,-103.168c0.056,-25.695 0.024,-51.389 -0.041,-77.083c-0.013,-10.383 0.003,-20.766 0.049,-31.149c0.294,-70.377 -0.15,-138.99 -51.579,-193.599c-28.083,-25.739 -58.96,-41.495 -93.071,-57.946c-49.82,-25.4 -77.33,-65.96 -95.483,-118.018c-21.76,-70.857 -21.934,-142.095 -22.933,-215.511c-0.16,-9.752 -0.322,-19.504 -0.488,-29.256c-0.397,-23.667 -0.752,-47.335 -1.075,-71.004c-10.504,1.299 -21.007,2.601 -31.51,3.906c-4.403,0.544 -4.403,0.544 -8.895,1.099c-18.508,2.303 -36.973,4.803 -55.428,7.495c0.126,2.27 0.252,4.541 0.382,6.88c2.761,51.332 4.386,102.652 4.826,154.058c0.089,5.208 0.178,10.416 0.269,15.782c0.028,7.35 0.028,7.35 0.057,14.849c0.039,4.343 0.078,8.686 0.118,13.161c-1.723,13.85 -5.729,21.608 -13.985,32.77c-104.042,53.826 -265.546,50.13 -379.476,51.139c-5.448,0.052 -10.895,0.104 -16.508,0.157c-17.571,0.146 -35.142,0.218 -52.714,0.267c-2.995,0.009 -5.989,0.019 -9.075,0.029c-78.808,0.21 -156.869,-1.216 -235.196,-10.967c-5.182,-0.64 -5.182,-0.64 -10.469,-1.293c-37.41,-4.77 -74.535,-11.159 -111.585,-18.173c-3.361,-0.611 -6.722,-1.221 -10.184,-1.85c-27.102,-5.358 -56.11,-11.766 -74.968,-33.101c-5.016,-14.084 -5.472,-25.578 -5.359,-40.537c0.006,-2.813 0.012,-5.625 0.019,-8.522c0.039,-9.086 0.17,-18.168 0.306,-27.253c0.05,-6.223 0.096,-12.445 0.139,-18.668c0.392,-44.367 1.838,-88.638 5.07,-132.895c-5.124,-0.553 -10.248,-1.106 -15.528,-1.676c-6.803,-0.743 -13.606,-1.486 -20.41,-2.23c-3.368,-0.362 -6.735,-0.725 -10.205,-1.099c-3.303,-0.362 -6.606,-0.725 -10.01,-1.098c-3.011,-0.327 -6.022,-0.655 -9.124,-0.992c-11.634,-1.481 -23.166,-3.42 -34.723,-5.405Z" style="fill:#030303;fill-rule:nonzero;"/><path d="M3716.67,2945.83c5.138,0.873 5.138,0.873 10.381,1.763c4.498,0.757 8.996,1.515 13.63,2.296c4.457,0.754 8.914,1.507 13.506,2.283c13.521,2.157 26.952,3.62 40.608,4.596c6.284,0.467 6.284,0.467 12.695,0.944c3.029,0.204 6.059,0.408 9.18,0.618c-0.301,4.12 -0.602,8.24 -0.912,12.484c-2.853,43.131 -4.036,86.313 -4.451,129.529c-0.071,6.169 -0.17,12.338 -0.299,18.507c-0.176,8.805 -0.241,17.604 -0.279,26.411c-0.061,5.125 -0.122,10.251 -0.184,15.532c2.341,16.985 7.988,25.922 18.625,39.204c36.536,21.857 89.999,25.038 131.319,31.177c9.739,1.447 19.469,2.95 29.191,4.508c178.177,27.833 373.45,25.562 551.99,1.815c4.928,-0.647 9.856,-1.293 14.933,-1.959c91.722,-7.282 91.722,-7.282 168.4,-48.041c5.576,-11.151 4.707,-19.728 4.72,-32.21c0.008,-4.941 0.016,-9.881 0.024,-14.971c-0.028,-7.97 -0.028,-7.97 -0.056,-16.1c-0.009,-5.391 -0.017,-10.782 -0.025,-16.336c-0.214,-48.526 -1.969,-96.934 -4.663,-145.383c14.408,-2.093 28.819,-4.173 43.229,-6.25c4.104,-0.596 8.207,-1.192 12.435,-1.807c3.921,-0.564 7.842,-1.128 11.882,-1.709c3.622,-0.523 7.244,-1.047 10.976,-1.587c8.978,-1.147 8.978,-1.147 17.311,-1.147c0.037,3.651 0.037,3.651 0.074,7.376c0.271,25.763 0.623,51.524 1.02,77.285c0.137,9.563 0.254,19.127 0.35,28.69c1.044,101.694 3.745,210.024 73.556,290.816c16.095,14.796 34.997,23.718 54.297,33.626c59.528,30.616 101.565,60.473 125.439,125.793c13.168,44.477 10.045,91.043 9.853,137.001c0.016,10.721 0.039,21.442 0.07,32.164c0.053,23.259 0.045,46.517 -0.004,69.776c-0.072,34.587 -0.049,69.174 -0.007,103.761c0.071,61.781 0.048,123.561 -0.014,185.341c-0.055,54.061 -0.076,108.121 -0.066,162.181c0.001,5.383 0.001,5.383 0.002,10.874c0.003,14.567 0.006,29.134 0.009,43.701c0.029,136.59 -0.035,273.18 -0.144,409.771c-0.096,121.323 -0.119,242.646 -0.076,363.969c0.011,31.073 0.021,62.147 0.032,93.22c0.001,3.826 0.002,7.651 0.003,11.593c0.032,101.418 0.005,202.836 -0.04,304.255c-0.005,10.913 -0.009,21.826 -0.014,32.74c-0.003,7.239 -0.006,14.479 -0.01,21.719c-0.023,54.029 -0.018,108.058 0.001,162.087c0.022,61.433 -0.003,122.865 -0.087,184.298c-0.045,34.373 -0.057,68.746 -0.019,103.119c0.024,25.666 -0.017,51.332 -0.084,76.999c-0.017,10.382 -0.012,20.764 0.015,31.146c0.034,14.113 -0.009,28.224 -0.071,42.337c0.028,4.029 0.056,8.058 0.085,12.208c-0.447,52.665 -17.638,107.548 -54.29,146.565c-124.774,102.163 -381.994,102.924 -534.88,112.256c-2.752,0.175 -5.504,0.35 -8.339,0.53c-73.117,4.522 -146.298,4.652 -219.525,4.678c-4.822,0.004 -4.822,0.004 -9.74,0.007c-102.803,0.056 -204.815,-2.165 -307.172,-12.599c-9.495,-0.96 -18.993,-1.873 -28.494,-2.775c-364.373,-34.924 -364.373,-34.924 -433.175,-113.865c-32.383,-49.794 -44.891,-99.648 -44.603,-158.713c-0.012,-4.385 -0.025,-8.769 -0.037,-13.286c-0.03,-14.665 -0.002,-29.328 0.027,-43.993c-0.009,-10.63 -0.023,-21.261 -0.039,-31.891c-0.028,-23.099 -0.029,-46.198 -0.008,-69.297c0.031,-34.349 0.015,-68.698 -0.01,-103.048c-0.044,-61.35 -0.04,-122.7 -0.016,-184.051c0.021,-53.686 0.026,-107.373 0.016,-161.059c-0,-3.562 -0.001,-7.123 -0.002,-10.793c-0.002,-14.457 -0.005,-28.915 -0.008,-43.372c-0.025,-135.61 -0.002,-271.219 0.043,-406.829c0.039,-120.482 0.036,-240.964 -0.004,-361.445c-0.045,-135.369 -0.062,-270.737 -0.037,-406.106c0.003,-14.43 0.006,-28.859 0.008,-43.289c0.001,-3.553 0.002,-7.106 0.002,-10.767c0.01,-53.655 -0.001,-107.311 -0.022,-160.967c-0.024,-61.004 -0.018,-122.009 0.027,-183.014c0.024,-34.143 0.026,-68.286 -0.006,-102.429c-0.02,-25.481 0.002,-50.962 0.042,-76.444c0.009,-10.317 0.004,-20.635 -0.016,-30.953c-0.025,-14.006 0.001,-28.012 0.04,-42.018c-0.02,-4.02 -0.039,-8.041 -0.059,-12.184c0.327,-59.06 19.887,-109.004 61.117,-152.092c24.255,-21.52 52.528,-36.722 81.331,-51.237c56.33,-28.449 86.889,-64.624 107.315,-125.047c10.296,-33.844 18.305,-67.931 18.867,-103.41c0.083,-4.669 0.166,-9.339 0.251,-14.15c0.07,-4.975 0.14,-9.95 0.211,-15.075c0.13,-7.716 0.13,-7.716 0.263,-15.587c0.272,-16.387 0.518,-32.773 0.763,-49.16c0.178,-11.127 0.362,-22.254 0.545,-33.382c0.445,-27.24 0.87,-54.481 1.278,-81.722Zm-161.162,1113.26c-10.926,15.857 -12.592,30.248 -12.258,49.192c-0.027,3.243 -0.054,6.487 -0.081,9.83c-0.063,10.862 0.022,21.718 0.106,32.58c-0.015,7.869 -0.039,15.738 -0.072,23.608c-0.063,21.619 0.005,43.237 0.093,64.857c0.073,23.319 0.026,46.638 -0.007,69.958c-0.044,45.69 0.022,91.38 0.126,137.071c0.116,53.226 0.122,106.451 0.122,159.678c0.006,97.875 0.119,195.749 0.284,293.624c0.151,89.263 0.231,178.526 0.242,267.79c0.001,2.836 0.001,5.672 0.001,8.594c0.002,8.579 0.003,17.159 0.004,25.738c0.001,11.397 0.003,22.793 0.004,34.19c0.001,2.812 0.001,5.624 0.002,8.522c0.012,90.684 0.09,181.368 0.176,272.051c0.029,31.81 0.049,63.62 0.062,95.43c0.021,50.49 0.069,100.981 0.172,151.471c0.047,23.062 0.081,46.124 0.079,69.187c-0.002,21.143 0.036,42.286 0.104,63.429c0.017,7.619 0.022,15.237 0.01,22.856c-0.106,82.574 2.575,172.504 63.659,235.42c2.38,2.54 4.759,5.081 7.211,7.698c56.133,54.458 141.75,72.516 216.487,84.75c4.703,0.791 4.703,0.791 9.5,1.599c55.805,9.343 111.369,15.052 167.92,17.688c11.005,0.541 21.999,1.133 32.997,1.789c45.425,2.656 90.652,3.764 136.149,3.696c6.874,0.003 13.748,0.007 20.622,0.012c14.303,0.006 28.606,-0.003 42.908,-0.022c17.922,-0.024 35.843,-0.01 53.765,0.014c168.888,0.537 168.888,0.537 337.181,-12.016c4.813,-0.54 4.813,-0.54 9.722,-1.092c107.243,-12.149 237.141,-30.434 315.099,-113.361c10.745,-14.195 19.163,-28.836 27.262,-44.662c1.377,-2.682 2.753,-5.365 4.171,-8.128c22.256,-46.568 20.213,-95.721 20.121,-146.162c0.015,-8.079 0.034,-16.157 0.057,-24.236c0.051,-22.138 0.05,-44.276 0.04,-66.415c-0.002,-23.898 0.044,-47.796 0.084,-71.694c0.069,-46.787 0.092,-93.574 0.096,-140.361c0.004,-38.017 0.022,-76.033 0.048,-114.049c0.061,-90.239 0.113,-180.478 0.108,-270.717c0,-2.883 0,-5.767 -0,-8.738c-0.001,-14.614 -0.002,-29.229 -0.002,-43.843c-0.001,-2.903 -0.001,-5.805 -0.001,-8.795c-0,-5.87 -0.001,-11.739 -0.001,-17.609c-0.005,-91.391 0.058,-182.781 0.171,-274.172c0.128,-102.705 0.2,-205.41 0.192,-308.115c-0.002,-54.373 0.021,-108.746 0.11,-163.119c0.076,-46.269 0.094,-92.537 0.038,-138.806c-0.028,-23.615 -0.028,-47.229 0.044,-70.844c0.065,-21.604 0.054,-43.206 -0.019,-64.81c-0.013,-7.828 0.003,-15.655 0.049,-23.483c0.059,-10.619 0.015,-21.233 -0.055,-31.852c0.042,-3.057 0.083,-6.115 0.126,-9.265c-0.341,-24.544 -8.638,-39.084 -25.84,-56.119c-26.007,-17.545 -51.106,-16.849 -81.711,-16.573c-5.608,-0.025 -11.216,-0.058 -16.824,-0.099c-15.348,-0.087 -30.694,-0.044 -46.042,0.021c-16.577,0.047 -33.152,-0.026 -49.728,-0.083c-32.448,-0.093 -64.896,-0.073 -97.344,-0.013c-26.374,0.047 -52.748,0.054 -79.123,0.031c-3.755,-0.003 -7.511,-0.006 -11.381,-0.01c-7.63,-0.006 -15.26,-0.013 -22.89,-0.02c-71.523,-0.059 -143.046,0.009 -214.569,0.121c-61.352,0.093 -122.703,0.077 -184.055,-0.019c-71.27,-0.112 -142.539,-0.155 -213.809,-0.091c-7.602,0.006 -15.203,0.013 -22.805,0.019c-3.74,0.003 -7.48,0.007 -11.334,0.01c-26.338,0.018 -52.676,-0.012 -79.015,-0.061c-32.104,-0.059 -64.207,-0.043 -96.311,0.068c-16.376,0.055 -32.75,0.076 -49.125,0.007c-15.001,-0.062 -29.998,-0.028 -44.998,0.083c-7.977,0.034 -15.953,-0.034 -23.93,-0.105c-37.458,0.426 -60.551,7.278 -84.194,36.877Z" style="fill:#fcfcfb;fill-rule:nonzero;"/><path d="M3837.5,2191.67c1.031,3.179 2.063,6.359 3.125,9.635c6.032,12.969 9.746,16.325 21.875,23.698c10.529,3.297 20.486,5.872 31.25,8.073c3.308,0.686 6.616,1.373 10.024,2.08c37.527,7.23 75.455,11.409 113.414,15.628c3.146,0.353 6.292,0.705 9.534,1.068c79.599,8.809 158.564,11.637 238.643,11.693c4.727,0.005 9.453,0.011 14.324,0.017c218.57,9.161 218.57,9.161 420.311,-51.059c4.766,-8.52 4.766,-8.52 8.333,-16.667c83.51,4.723 164.978,20.006 245.573,41.927c7.622,2.051 7.622,2.051 15.398,4.144c47.118,13.334 47.118,13.334 64.029,28.929c10.698,23.182 9.652,46.599 9.743,71.612c0.048,4.658 0.096,9.315 0.145,14.114c0.143,15.376 0.22,30.75 0.285,46.127c0.029,5.262 0.057,10.525 0.087,15.947c0.134,24.977 0.236,49.954 0.287,74.931c0.059,28.742 0.242,57.479 0.531,86.219c0.242,24.971 0.323,49.939 0.347,74.911c0.033,10.587 0.115,21.174 0.247,31.761c0.173,14.831 0.161,29.651 0.105,44.483c0.092,4.345 0.184,8.691 0.278,13.168c-0.408,31.923 -10.253,50.172 -32.888,72.561c-69.061,51.457 -196.099,44.543 -277.973,51.281c-16.034,1.323 -32.064,2.687 -48.093,4.057c-10.501,0.882 -21.001,1.761 -31.502,2.637c-4.638,0.395 -9.277,0.79 -14.055,1.197c-80.504,6.56 -160.804,8.169 -241.544,8.194c-10.352,0.014 -20.704,0.028 -31.056,0.042c-21.603,0.025 -43.205,0.033 -64.807,0.03c-21.82,0 -43.639,0.029 -65.458,0.086c-158.642,0.408 -315.218,-2.753 -473.001,-20.08c-15.249,-1.637 -30.507,-3.137 -45.773,-4.606c-44.459,-4.346 -88.81,-9.053 -132.78,-17.057c-3.247,-0.537 -6.495,-1.074 -9.841,-1.627c-29.72,-5.922 -50.901,-19.931 -68.622,-44.52c-11.687,-21.021 -10.359,-42.436 -10.218,-65.947c-0.036,-4.841 -0.071,-9.682 -0.108,-14.67c-0.095,-15.955 -0.067,-31.907 -0.029,-47.862c-0.016,-8.3 -0.033,-16.599 -0.055,-24.899c-0.071,-26.069 -0.057,-52.137 0.013,-78.206c0.071,-26.853 0.005,-53.703 -0.13,-80.556c-0.111,-23.104 -0.141,-46.207 -0.106,-69.312c0.02,-13.778 0.003,-27.554 -0.074,-41.333c-0.073,-15.36 -0.012,-30.715 0.082,-46.076c-0.048,-4.539 -0.097,-9.079 -0.147,-13.756c0.431,-34.377 0.431,-34.377 12.806,-49.7c36.55,-33.21 101.238,-37.353 148.304,-47.317c3.255,-0.713 6.509,-1.425 9.863,-2.159c29.013,-6.138 58.27,-10.09 87.666,-13.924c8.549,-1.116 17.095,-2.257 25.64,-3.4c41.797,-5.517 41.797,-5.517 55.998,-5.517Z" style="fill:#f9f9f8;fill-rule:nonzero;"/><path d="M3654.82,4022.83c5.601,-0.026 11.202,-0.058 16.804,-0.097c15.349,-0.086 30.697,-0.068 46.046,-0.032c16.571,0.021 33.141,-0.054 49.711,-0.117c32.448,-0.106 64.894,-0.121 97.341,-0.102c26.377,0.015 52.753,0.001 79.129,-0.035c5.633,-0.007 5.633,-0.007 11.379,-0.015c7.629,-0.01 15.258,-0.02 22.886,-0.03c71.532,-0.091 143.063,-0.073 214.594,-0.022c65.42,0.043 130.839,-0.051 196.258,-0.209c67.195,-0.162 134.389,-0.23 201.584,-0.199c37.716,0.016 75.431,-0.005 113.147,-0.123c32.109,-0.099 64.216,-0.111 96.325,-0.01c16.376,0.049 32.751,0.058 49.127,-0.041c15.006,-0.091 30.008,-0.065 45.014,0.052c7.97,0.032 15.94,-0.058 23.909,-0.153c31.736,0.398 54.663,5.415 77.756,28.305c13.401,17.249 14.275,32.663 14.073,53.776c0.019,3.309 0.037,6.617 0.055,10.026c0.046,11.13 0.003,22.258 -0.04,33.388c0.014,8.043 0.034,16.086 0.059,24.129c0.052,22.137 0.026,44.273 -0.013,66.411c-0.028,23.861 0.016,47.723 0.05,71.585c0.056,46.768 0.044,93.536 0.007,140.303c-0.028,38.017 -0.032,76.034 -0.018,114.051c0.002,5.406 0.004,10.812 0.006,16.382c0.004,10.983 0.008,21.965 0.012,32.947c0.035,100.129 -0.001,200.257 -0.067,300.385c-0.059,91.36 -0.054,182.719 0.006,274.079c0.067,102.649 0.093,205.297 0.055,307.946c-0.004,10.951 -0.008,21.902 -0.012,32.854c-0.002,5.388 -0.004,10.776 -0.006,16.328c-0.011,37.952 0.008,75.904 0.037,113.857c0.035,46.28 0.026,92.561 -0.041,138.841c-0.033,23.61 -0.046,47.218 -0.004,70.828c0.037,21.629 0.016,43.257 -0.05,64.885c-0.014,7.81 -0.007,15.619 0.023,23.428c0.259,72.05 -9.138,141.943 -60.225,197.217c-84.316,76.393 -207.151,93.173 -315.625,105.469c-3.021,0.354 -6.042,0.707 -9.155,1.072c-111.199,12.815 -223.82,11.432 -335.61,11.418c-13.855,0 -27.709,0.029 -41.565,0.086c-76.126,0.307 -151.998,-0.561 -228.026,-4.715c-4.814,-0.26 -4.814,-0.26 -9.725,-0.526c-46.039,-2.547 -91.515,-6.734 -136.969,-14.66c-11.925,-2.021 -23.876,-3.799 -35.842,-5.566c-90.456,-13.663 -186.481,-35.374 -245.67,-111.214c-46.502,-68.327 -46.978,-147.875 -46.89,-227.407c-0.022,-7.919 -0.047,-15.838 -0.075,-23.757c-0.067,-21.6 -0.082,-43.2 -0.088,-64.8c-0.016,-23.355 -0.079,-46.71 -0.135,-70.066c-0.113,-50.969 -0.163,-101.939 -0.2,-152.909c-0.023,-31.834 -0.058,-63.667 -0.096,-95.501c-0.101,-88.184 -0.187,-176.369 -0.215,-264.553c-0.002,-5.691 -0.004,-11.382 -0.006,-17.072c-0.002,-5.704 -0.004,-11.408 -0.005,-17.112c-0.004,-11.441 -0.008,-22.883 -0.012,-34.325c-0.001,-2.837 -0.001,-5.674 -0.002,-8.597c-0.031,-92.109 -0.164,-184.218 -0.358,-276.327c-0.204,-97.488 -0.319,-194.976 -0.329,-292.464c-0.007,-53.107 -0.055,-106.212 -0.207,-159.319c-0.128,-45.179 -0.171,-90.357 -0.102,-135.537c0.033,-23.051 0.025,-46.1 -0.092,-69.151c-0.106,-21.098 -0.096,-42.192 0.005,-63.29c0.016,-7.634 -0.01,-15.268 -0.082,-22.902c-0.625,-70.319 -0.625,-70.319 20.988,-92.413c30.204,-24.568 52.7,-24.915 91.171,-24.68Zm20.177,131.339c-0.486,322.737 -0.486,322.737 -0.814,645.475c-0.032,43.529 -0.066,87.058 -0.102,130.587c-0.004,5.455 -0.008,10.911 -0.013,16.531c-0.072,88.02 -0.204,176.039 -0.357,264.058c-0.156,90.364 -0.248,180.727 -0.282,271.091c-0.023,55.738 -0.095,111.475 -0.231,167.212c-0.088,38.247 -0.114,76.493 -0.093,114.739c0.011,22.05 -0.005,44.099 -0.095,66.15c-0.081,20.224 -0.085,40.448 -0.028,60.673c0.007,7.28 -0.014,14.561 -0.066,21.841c-0.581,79.592 -0.581,79.592 30.206,151.018c44.928,42.609 123.111,51.549 182.281,58.973c9.222,1.162 18.425,2.422 27.631,3.698c114.434,15.364 229.045,17.022 344.296,16.998c16.369,-0.001 32.737,0.057 49.105,0.171c287.789,13.031 287.789,13.031 547.729,-80.882c31.271,-40.382 26.173,-96.998 26.002,-145.101c0.003,-7.612 0.011,-15.224 0.021,-22.836c0.019,-20.865 -0.014,-41.731 -0.056,-62.597c-0.036,-22.52 -0.024,-45.04 -0.018,-67.56c0.005,-39 -0.021,-78.001 -0.068,-117.002c-0.068,-56.388 -0.09,-112.776 -0.1,-169.165c-0.018,-91.489 -0.074,-182.977 -0.153,-274.466c-0.076,-88.867 -0.135,-177.734 -0.171,-266.602c-0.002,-5.59 -0.004,-11.181 -0.006,-16.771c-0.018,-43.285 -0.034,-86.57 -0.05,-129.855c-0.079,-212.126 -0.246,-424.252 -0.401,-636.378l-1204.17,-0Z" style="fill:#020303;fill-rule:nonzero;"/><path d="M4812.5,2208.33c49.072,8.387 97.421,18.561 145.573,31.25c6.916,1.777 6.916,1.777 13.971,3.59c43.913,11.858 43.913,11.858 61.289,27.66c10.718,23.162 9.652,46.611 9.743,71.612c0.048,4.658 0.096,9.315 0.145,14.114c0.143,15.376 0.22,30.75 0.285,46.127c0.029,5.262 0.057,10.525 0.087,15.947c0.134,24.977 0.236,49.954 0.287,74.931c0.059,28.742 0.242,57.479 0.531,86.219c0.242,24.971 0.323,49.939 0.347,74.911c0.033,10.587 0.115,21.174 0.247,31.761c0.173,14.831 0.161,29.651 0.105,44.483c0.092,4.345 0.184,8.691 0.278,13.168c-0.408,31.923 -10.253,50.172 -32.888,72.561c-69.061,51.457 -196.099,44.543 -277.973,51.281c-16.034,1.323 -32.064,2.687 -48.093,4.057c-10.501,0.882 -21.001,1.761 -31.502,2.637c-4.638,0.395 -9.277,0.79 -14.055,1.197c-80.504,6.56 -160.804,8.169 -241.544,8.194c-10.352,0.014 -20.704,0.028 -31.056,0.042c-21.603,0.025 -43.205,0.033 -64.807,0.03c-21.82,0 -43.639,0.029 -65.458,0.086c-158.642,0.408 -315.218,-2.753 -473.001,-20.08c-15.249,-1.637 -30.507,-3.137 -45.773,-4.606c-44.459,-4.346 -88.81,-9.053 -132.78,-17.057c-3.247,-0.537 -6.495,-1.074 -9.841,-1.627c-26.659,-5.312 -48.756,-18.236 -65.708,-39.818c-8.891,-14.338 -12.947,-25.857 -10.909,-42.67c2.047,1.107 4.093,2.213 6.202,3.353c114.926,60.102 292.172,54.526 419.27,59.603c4.239,0.175 8.479,0.349 12.846,0.529c93.839,3.791 187.631,4.471 281.536,4.268c22.602,-0.048 45.203,-0.019 67.805,0.03c17.879,0.031 35.757,0.021 53.635,-0.001c8.336,-0.005 16.672,0.001 25.008,0.021c42.585,0.079 84.767,-0.953 127.193,-4.851c3.575,-0.323 7.151,-0.645 10.835,-0.978c35.035,-3.104 35.035,-3.104 66.048,-17.996c27.799,-34.35 34.163,-69.076 34.592,-112.856c0.034,-3.039 0.068,-6.077 0.104,-9.208c0.102,-9.985 0.172,-19.969 0.232,-29.954c0.022,-3.429 0.044,-6.858 0.067,-10.391c0.111,-18.14 0.192,-36.279 0.252,-54.418c0.056,-14.962 0.172,-29.921 0.342,-44.881c0.206,-18.13 0.309,-36.258 0.339,-54.39c0.027,-6.88 0.091,-13.761 0.191,-20.641c0.132,-9.652 0.132,-19.296 0.101,-28.949c0.05,-8.214 0.05,-8.214 0.102,-16.594c-3.216,-20.134 -7.723,-35.443 -23.367,-49.196c-15.625,-4.739 -30.629,-4.135 -46.846,-3.652c-7.111,0.013 -7.111,0.013 -14.365,0.026c-15.734,0.066 -31.455,0.367 -47.187,0.664c-11.038,0.084 -22.075,0.153 -33.113,0.203c-26.208,0.147 -52.412,0.456 -78.617,0.83c-51.974,0.735 -103.952,1.113 -155.929,1.506c-8.381,0.065 -16.761,0.138 -25.142,0.211c-81.962,0.689 -162.984,-0.755 -244.634,-8.121c-8.338,-0.705 -16.676,-1.411 -25.015,-2.114c-225.682,-19.068 -225.682,-19.068 -291.652,-52.053l0,-8.333c111.083,-11.219 222.633,-9.783 334.146,-10.003c28.641,-0.058 57.283,-0.162 85.924,-0.268c51.049,-0.188 102.098,-0.341 153.147,-0.471c49.496,-0.127 98.991,-0.27 148.486,-0.436c3.068,-0.01 6.135,-0.02 9.295,-0.031c15.393,-0.051 30.785,-0.103 46.177,-0.155c127.053,-0.43 254.106,-0.801 381.159,-1.136c1.375,-2.75 2.75,-5.5 4.166,-8.333c8.936,-4.021 8.936,-4.021 20.052,-8.073c14.74,-5.378 26.111,-11.136 38.282,-21.094c-6.252,-15.913 -15.97,-22.914 -29.167,-33.333l0,-8.334Z" style="fill:#b9b9b8;fill-rule:nonzero;"/><path d="M4604.17,2404.17l4.166,-0c0.291,40.424 0.513,80.848 0.648,121.274c0.065,18.775 0.153,37.55 0.295,56.326c0.137,18.155 0.211,36.309 0.243,54.465c0.023,6.89 0.068,13.78 0.136,20.669c0.476,50.238 0.913,99.495 -32.165,140.511c-16.823,17.071 -28.669,21.203 -52.75,23.942c-5.119,0.612 -10.238,1.225 -15.511,1.856c-2.84,0.289 -5.679,0.578 -8.604,0.876c-5.845,0.596 -11.684,1.254 -17.514,1.981c-42.47,4.742 -85.217,3.701 -127.886,3.653c-8.904,0.003 -17.807,0.007 -26.71,0.012c-18.657,0.006 -37.313,-0.003 -55.97,-0.022c-23.555,-0.024 -47.111,-0.01 -70.666,0.014c-248.584,0.217 -248.584,0.217 -322.712,-8.891c-3.104,-16.633 -4.692,-32.354 -4.706,-49.266c-0.013,-4.694 -0.026,-9.388 -0.04,-14.224c0.008,-5.039 0.017,-10.078 0.026,-15.269c-0.004,-5.287 -0.008,-10.573 -0.012,-16.02c-0.003,-11.218 0.002,-22.436 0.022,-33.654c0.019,-11.3 0.019,-22.599 -0,-33.899c-0.089,-55.648 0.036,-111.244 2.398,-166.851c0.162,-3.827 0.323,-7.655 0.49,-11.599c0.967,-19.987 2.791,-39.463 5.988,-59.218c16.328,0.51 32.656,1.025 48.984,1.544c5.916,0.187 11.832,0.373 17.748,0.558c29.62,0.926 59.233,1.857 88.835,3.269c188.676,8.916 377.059,0.093 565.267,-13.704l-0,-8.333Z" style="fill:#d7d7d7;fill-rule:nonzero;"/><path d="M3675,4154.17l1204.17,-0c0.504,459.105 0.504,459.105 0.61,650.732c0.023,41.071 0.046,82.141 0.071,123.212c0.005,8.344 0.01,16.688 0.015,25.032c0.055,88.745 0.153,177.489 0.268,266.233c0.117,91.08 0.186,182.159 0.212,273.238c0.017,56.198 0.071,112.397 0.173,168.595c0.066,38.54 0.086,77.08 0.069,115.62c-0.008,22.233 0.005,44.466 0.072,66.7c0.061,20.373 0.064,40.745 0.021,61.118c-0.005,7.353 0.01,14.706 0.05,22.059c0.535,106.23 0.535,106.23 -30.728,139.961c-43.513,32.414 -100.643,42.683 -152.865,51.562c-4.383,0.75 -8.766,1.499 -13.282,2.272c-34.455,5.472 -34.455,5.472 -50.52,0.332c4.383,-2.199 4.383,-2.199 8.855,-4.443c64.58,-33.607 107.038,-82.568 129.427,-151.807c9.481,-30.521 12.23,-59.968 12.296,-91.783c0.018,-4.479 0.018,-4.479 0.036,-9.049c0.035,-9.957 0.04,-19.914 0.046,-29.871c0.019,-7.23 0.039,-14.46 0.062,-21.69c0.056,-19.83 0.087,-39.66 0.114,-59.49c0.034,-21.398 0.091,-42.796 0.145,-64.195c0.09,-37.061 0.166,-74.122 0.232,-111.184c0.094,-53.584 0.211,-107.169 0.334,-160.753c0.199,-86.939 0.379,-173.878 0.548,-260.816c0.164,-84.45 0.337,-168.9 0.521,-253.349c0.017,-7.889 0.017,-7.889 0.034,-15.937c0.09,-41.13 0.18,-82.26 0.271,-123.391c0.442,-201.58 0.841,-403.161 1.246,-604.742l-1108.33,0l-0,1820.83l-4.167,-0l0,-1825Z" style="fill:#b9d9f2;fill-rule:nonzero;"/><path d="M3800,4158.33l162.5,0c0.088,32.574 0.171,65.147 0.216,97.721c0.021,15.175 0.051,30.35 0.098,45.526c0.046,14.67 0.071,29.34 0.081,44.01c0.012,8.203 0.044,16.406 0.077,24.609c0.002,31.367 -1.366,62.36 -3.651,93.64c-1.58,24.522 -1.877,49.031 -2.16,73.596c-0.076,5.259 -0.153,10.519 -0.232,15.937c-0.283,19.388 -0.537,38.777 -0.788,58.165c-0.248,19.136 -0.523,38.272 -0.802,57.408c-0.057,4.945 -0.114,9.89 -0.172,14.984c-0.312,21.11 -0.884,41.993 -2.997,63.005c-2.847,28.463 -3.556,56.985 -4.419,85.561c-0.538,17.768 -1.13,35.533 -1.712,53.299c-0.182,5.595 -0.182,5.595 -0.367,11.303c-3.839,117.977 -8.09,235.901 -15.985,353.684c-0.287,4.645 -0.575,9.29 -0.872,14.075c-3.081,48.88 -8.342,96.66 -17.91,144.731c-0.819,4.232 -1.637,8.465 -2.481,12.826c-7.919,36.903 -7.919,36.903 -25.091,48.42c-11.458,1.042 -11.458,1.042 -20.833,0c-33.003,-54.626 -32.009,-125.441 -35.938,-187.5c-0.754,-11.395 -1.52,-22.789 -2.294,-34.183c-0.473,-7.012 -0.933,-14.024 -1.377,-21.037c-0.985,-15.037 -2.192,-29.938 -4.18,-44.878c-2.33,-17.728 -3.31,-35.417 -4.128,-53.271c-0.169,-3.511 -0.338,-7.022 -0.512,-10.639c-0.357,-7.463 -0.706,-14.925 -1.05,-22.388c-0.503,-10.87 -1.031,-21.738 -1.563,-32.606c-5.509,-115.245 -8.043,-230.574 -9.51,-345.932c-0.127,-9.984 -0.26,-19.968 -0.392,-29.952c-2.317,-176.699 -1.922,-353.404 -1.556,-530.114Z" style="fill:#fdfdfd;fill-rule:nonzero;"/><path d="M3850,2966.67c10.938,0.51 21.875,1.033 32.813,1.562c5.34,0.254 5.34,0.254 10.789,0.512c22.954,1.13 45.874,2.487 68.797,4.133c94.075,6.543 187.878,7.592 282.158,7.379c21.201,-0.047 42.402,-0.019 63.604,0.029c87.5,0.167 174.672,-0.785 262.006,-6.537c39.198,-2.558 78.062,-3.377 117.333,-2.912c0.219,35.643 0.219,35.643 -1.53,50.505c-0.334,2.917 -0.667,5.834 -1.011,8.84c-0.547,4.527 -0.547,4.527 -1.105,9.145c-0.37,3.19 -0.74,6.379 -1.121,9.666c-1.171,10.061 -2.368,20.119 -3.566,30.178c-0.805,6.873 -1.608,13.747 -2.409,20.621c-1.955,16.74 -3.933,33.477 -5.925,50.212c-129.272,11.254 -258.981,9.474 -388.614,9.169c-24.746,-0.055 -49.493,-0.065 -74.24,-0.063c-30.202,0.003 -60.403,-0.026 -90.605,-0.064c-8.463,-0.009 -16.927,-0.012 -25.39,-0.013c-73.807,-0.043 -147.415,-1.578 -221.151,-4.862c-0.534,-4.358 -1.068,-8.716 -1.619,-13.206c-3.163,-25.786 -6.413,-51.548 -10.051,-77.273c-0.567,-4.038 -1.135,-8.077 -1.72,-12.237c-1.123,-7.947 -2.262,-15.891 -3.42,-23.833c-2.896,-20.557 -4.649,-40.192 -4.023,-60.951Z" style="fill:#adadad;fill-rule:nonzero;"/><path d="M3500,2358.33c3.208,1.298 6.416,2.597 9.721,3.934c52.264,20.692 108.591,29.353 163.557,39.779c10.055,2.121 10.055,2.121 22.555,6.287c0.716,40.191 1.41,80.382 2.084,120.573c0.049,2.951 0.099,5.901 0.15,8.941c1.482,88.777 2.622,177.529 1.933,266.32c-44.598,-3.09 -89.021,-6.567 -132.812,-15.886c-2.938,-0.587 -5.875,-1.173 -8.901,-1.778c-21.653,-4.956 -42.081,-12.534 -58.287,-28.17c-4.734,-13.039 -4.234,-25.334 -3.784,-39.084c-0.005,-3.904 -0.01,-7.808 -0.015,-11.831c0.023,-12.88 0.282,-25.743 0.544,-38.619c0.062,-8.938 0.109,-17.877 0.143,-26.815c0.127,-23.505 0.454,-47.004 0.823,-70.506c0.341,-23.991 0.493,-47.982 0.661,-71.974c0.358,-47.06 0.926,-94.115 1.628,-141.171Z" style="fill:#d7d7d7;fill-rule:nonzero;"/><path d="M3723.9,2295.3c5.105,-0.006 10.209,-0.013 15.468,-0.019c14.02,-0.014 28.04,-0.009 42.06,0.004c15.175,0.009 30.35,-0.006 45.525,-0.017c29.659,-0.018 59.317,-0.014 88.976,-0.002c24.096,0.009 48.192,0.01 72.287,0.006c5.154,-0.001 5.154,-0.001 10.412,-0.002c6.98,-0.001 13.96,-0.003 20.94,-0.004c65.335,-0.012 130.67,0.002 196.005,0.024c56.078,0.019 112.156,0.015 168.233,-0.004c65.168,-0.022 130.335,-0.031 195.502,-0.018c6.942,0.001 13.885,0.002 20.827,0.004c5.123,0.001 5.123,0.001 10.35,0.002c24.09,0.003 48.18,-0.003 72.27,-0.013c29.321,-0.011 58.642,-0.008 87.963,0.014c14.963,0.011 29.927,0.015 44.89,0.002c16.196,-0.015 32.391,0.002 48.587,0.023c7.141,-0.014 7.141,-0.014 14.426,-0.028c4.32,0.011 8.639,0.022 13.089,0.033c3.74,0.001 7.48,0.001 11.333,0.002c9.457,0.522 9.457,0.522 21.957,4.689l0,8.333c-25.945,9.024 -52.002,16.761 -78.646,23.438c-3.636,0.914 -7.272,1.829 -11.018,2.771c-22.869,5.572 -45.103,9.649 -68.686,10.705c-9.189,0.301 -9.189,0.301 -20.817,4.753c-146.481,20.478 -294.884,22.24 -442.479,21.92c-22.109,-0.048 -44.217,-0.019 -66.325,0.028c-487.177,0.895 -487.177,0.895 -616.196,-63.615l0,-8.333c34.441,-3.39 68.472,-4.765 103.067,-4.696Z" style="fill:#040404;fill-rule:nonzero;"/><path d="M4687.5,2970.83c0.15,20.823 -0.425,39.839 -4.167,60.417c-0.773,4.34 -1.547,8.68 -2.343,13.151c-0.602,3.223 -1.204,6.445 -1.823,9.766c-123.504,8.916 -246.546,13.807 -370.349,13.799c-9.416,0.003 -18.832,0.021 -28.248,0.043c-69.494,0.126 -138.734,-1.406 -208.125,-5.33c-3.228,-0.179 -6.455,-0.358 -9.78,-0.543c-9.043,-0.512 -18.083,-1.057 -27.123,-1.619c-5.165,-0.319 -10.329,-0.638 -15.65,-0.966c-11.559,-1.218 -11.559,-1.218 -15.725,-5.384c-0.416,-11.848 -0.579,-23.571 -0.521,-35.417c-0.016,-3.325 -0.032,-6.649 -0.049,-10.075c0.042,-24.814 0.042,-24.814 4.736,-29.508c5.611,-0.38 11.241,-0.471 16.864,-0.445c3.64,0.006 7.279,0.012 11.029,0.019c4.028,0.028 8.057,0.056 12.207,0.085c4.224,0.013 8.447,0.025 12.798,0.039c9.238,0.03 18.475,0.069 27.712,0.116c14.78,0.072 29.56,0.115 44.34,0.149c42.054,0.102 84.107,0.246 126.161,0.436c156.523,0.904 156.523,0.904 312.858,-5.782c38.489,-2.63 76.641,-3.41 115.198,-2.951Z" style="fill:#878787;fill-rule:nonzero;"/><path d="M3850,2966.67c52.789,2.59 105.564,5.354 158.333,8.333c-1.375,26.125 -2.75,52.25 -4.166,79.167c-27.533,0.281 -51.963,0.367 -79.167,-4.167c1.375,34.375 2.75,68.75 4.167,104.167l-58.334,-0c-1.117,-9.11 -2.234,-18.219 -3.385,-27.604c-2.583,-20.985 -5.324,-41.94 -8.285,-62.875c-0.567,-4.038 -1.135,-8.077 -1.72,-12.237c-1.123,-7.947 -2.262,-15.891 -3.42,-23.833c-2.896,-20.557 -4.649,-40.192 -4.023,-60.951Z" style="fill:#a4a4a4;fill-rule:nonzero;"/><path d="M4249.86,2168.66c17.242,0.095 34.48,0.039 51.722,-0.057c99.476,-0.466 200.717,2.351 298.413,23.064l-0,4.166c-111.677,6.657 -223.234,9.26 -335.088,9.362c-9.528,0.013 -19.057,0.043 -28.585,0.076c-90.174,0.285 -179.706,-3.13 -269.66,-9.438l-0,-8.333c94.66,-13.585 187.596,-19.371 283.198,-18.84Z" style="fill:#888;fill-rule:nonzero;"/><path d="M3891.67,5604.17c18.822,11.293 29.628,25.71 36.198,46.614c4.246,38.22 4.116,79.559 -19.532,111.719c-6.802,8.163 -10.664,12.017 -21.045,14.746c-14.414,0.548 -24.74,0.849 -36.67,-7.91c-25.032,-27.868 -27.011,-56.288 -26.399,-92.594c1.508,-27.489 5.949,-47.957 25.781,-68.409c13.367,-6.683 27.164,-6.174 41.667,-4.166Z" style="fill:#fcfdfd;fill-rule:nonzero;"/><path d="M3500,2758.33c7.211,3.859 7.211,3.859 14.567,7.797c17.174,8.555 33.634,13.582 52.36,17.464c3.125,0.675 6.251,1.351 9.471,2.046c42.185,8.699 85.021,13.515 127.769,18.527c2.062,24.75 2.062,24.75 4.166,50c-32.979,0.733 -63.84,-1.626 -96.354,-7.032c-4.248,-0.62 -8.497,-1.24 -12.874,-1.879c-32.228,-5.275 -60.146,-14.058 -83.236,-38.095c-1.885,-3.05 -3.77,-6.101 -5.713,-9.244c-2.973,-4.577 -2.973,-4.577 -6.006,-9.245c-4.726,-10.825 -4.953,-18.649 -4.15,-30.339Z" style="fill:#ababaa;fill-rule:nonzero;"/><path d="M3716.67,2945.83c24.75,4.125 24.75,4.125 50,8.334c16.5,1.375 33,2.75 50,4.166c-2.75,64.625 -5.5,129.25 -8.334,195.834l-4.166,-0l-0,-112.5c-15.125,-1.375 -30.25,-2.75 -45.834,-4.167c-12.375,-1.375 -24.75,-2.75 -37.5,-4.167l0,120.834l-4.166,-0l-0,-208.334Z" style="fill:#c3c3c2;fill-rule:nonzero;"/><path d="M4820.83,2950l0,91.667c-43.489,3.646 -43.489,3.646 -57.217,4.734c-3.543,0.318 -7.085,0.635 -10.735,0.962c-3.644,0.306 -7.288,0.611 -11.042,0.926c-4.211,0.847 -4.211,0.847 -8.506,1.711c-1.375,2.75 -2.75,5.5 -4.166,8.333c-1.375,-31.625 -2.75,-63.25 -4.167,-95.833c21.398,-3.094 21.398,-3.094 43.229,-6.25c4.492,-0.653 8.985,-1.305 13.613,-1.978c5.298,-0.761 5.298,-0.761 10.704,-1.538c3.622,-0.523 7.244,-1.047 10.976,-1.587c8.978,-1.147 8.978,-1.147 17.311,-1.147Z" style="fill:#cbcbc9;fill-rule:nonzero;"/><path d="M3925,3050c26.125,1.375 52.25,2.75 79.167,4.167l-0,100l-75,-0c-4.985,-34.891 -4.463,-68.966 -4.167,-104.167Z" style="fill:#fdfdfd;fill-rule:nonzero;"/><path d="M3862.5,3045.83c20.625,1.375 41.25,2.75 62.5,4.167c1.375,34.375 2.75,68.75 4.167,104.167l-58.334,-0c-5.047,-36.322 -9.482,-71.568 -8.333,-108.334Z" style="fill:#aeaeae;fill-rule:nonzero;"/><path d="M4591.67,3054.17l87.5,-0c-4.167,66.666 -4.167,66.666 -8.334,95.833c-6.51,0.114 -13.02,0.194 -19.531,0.26c-3.625,0.049 -7.251,0.097 -10.986,0.147c-11.1,-0.405 -21.173,-2.1 -31.983,-4.574c-1.039,-30.376 1.153,-57.944 8.334,-87.5l-25,0l-0,-4.166Z" style="fill:#9e9d9e;fill-rule:nonzero;"/><path d="M3850,2966.67c27.5,1.375 55,2.75 83.333,4.166c-4.125,2.063 -4.125,2.063 -8.333,4.167l0,75c-14.92,-0.271 -29.839,-0.543 -44.759,-0.814c-13.932,-0.671 -13.932,-0.671 -21.908,9.147c-1.413,-9.806 -2.798,-19.614 -4.166,-29.427c-0.597,-4.105 -0.597,-4.105 -1.205,-8.292c-2.546,-18.459 -2.962,-35.051 -2.962,-53.947Z" style="fill:#878787;fill-rule:nonzero;"/><path d="M3966.67,2187.5l-0,8.333l50,0l-0,4.167l-79.167,0c-1.375,-2.75 -2.75,-5.5 -4.167,-8.333c12.052,-3.444 20.365,-4.167 33.334,-4.167Z" style="fill:#363636;fill-rule:nonzero;"/><path d="M4850,6050c1.375,4.125 2.75,8.25 4.167,12.5c-4.67,3.496 -9.362,6.963 -14.063,10.417c-3.915,2.9 -3.915,2.9 -7.91,5.859c-7.194,4.557 -7.194,4.557 -15.527,4.557l-0,-8.333c7.291,-6.283 7.291,-6.283 16.666,-13.021c3.094,-2.245 6.188,-4.49 9.375,-6.803c2.407,-1.708 4.813,-3.416 7.292,-5.176Z" style="fill:#b5ccdd;fill-rule:nonzero;"/><path d="M4812.5,2208.33c18.563,4.125 18.563,4.125 37.5,8.334c-5.5,4.125 -11,8.25 -16.667,12.5c-10.416,-5.729 -10.416,-5.729 -20.833,-12.5l0,-8.334Z" style="fill:#d6d6d5;fill-rule:nonzero;"/></svg>