<?xml version="1.0" encoding="UTF-8" standalone="no"?>
<!DOCTYPE svg PUBLIC "-//W3C//DTD SVG 1.1//EN" "http://www.w3.org/Graphics/SVG/1.1/DTD/svg11.dtd">
<svg width="100%" height="100%" viewBox="0 0 24 24" version="1.1" xmlns="http://www.w3.org/2000/svg" xmlns:xlink="http://www.w3.org/1999/xlink" xml:space="preserve" xmlns:serif="http://www.serif.com/" style="fill-rule:evenodd;clip-rule:evenodd;stroke-linecap:round;stroke-linejoin:round;stroke-miterlimit:1.5;">
    <g transform="matrix(1,0,0,1,1,-2)">
        <path d="M3,6L20,6" style="fill:none;stroke:rgb(51,51,51);stroke-width:1px;"/>
    </g>
    <g transform="matrix(0.235294,0,0,1,13.2941,3)">
        <path d="M3,6L20,6" style="fill:none;stroke:rgb(51,51,51);stroke-width:1.38px;"/>
    </g>
    <g transform="matrix(0.235294,0,0,1,13.2941,3)">
        <path d="M3,6L20,6" style="fill:none;stroke:rgb(51,51,51);stroke-width:1.38px;"/>
    </g>
    <g transform="matrix(0.117647,0,0,1,15.6471,5)">
        <path d="M3,6L20,6" style="fill:none;stroke:rgb(51,51,51);stroke-width:1.4px;"/>
    </g>
    <g transform="matrix(0.117647,0,0,1,15.6471,9)">
        <path d="M3,6L20,6" style="fill:none;stroke:rgb(51,51,51);stroke-width:1.4px;"/>
    </g>
    <g transform="matrix(0.235294,0,0,1,13.2941,7)">
        <path d="M3,6L20,6" style="fill:none;stroke:rgb(51,51,51);stroke-width:1.38px;"/>
    </g>
    <g transform="matrix(0.235294,0,0,1,13.2941,11)">
        <path d="M3,6L20,6" style="fill:none;stroke:rgb(51,51,51);stroke-width:1.38px;"/>
    </g>
    <g transform="matrix(1,0,0,1,0,-2)">
        <path d="M4,6L5,8" style="fill:none;stroke:rgb(51,51,51);stroke-width:1px;"/>
    </g>
    <g transform="matrix(1,0,0,1,0,-2)">
        <path d="M21,6L20,8" style="fill:none;stroke:rgb(51,51,51);stroke-width:1px;"/>
    </g>
    <g transform="matrix(1,0,0,1.14286,0,-3.14286)">
        <path d="M5,8L5,22" style="fill:none;stroke:rgb(51,51,51);stroke-width:0.93px;"/>
    </g>
    <g transform="matrix(1,0,0,1.14286,0,-3.14286)">
        <path d="M20,8L20,22" style="fill:none;stroke:rgb(51,51,51);stroke-width:0.93px;"/>
    </g>
    <path d="M5,22L20,22" style="fill:none;stroke:rgb(51,51,51);stroke-width:1px;"/>
    <rect x="6" y="18" width="13" height="3" style="fill:rgb(51,51,51);"/>
</svg>
