<?xml version="1.0" encoding="UTF-8" standalone="no"?>
<!DOCTYPE svg PUBLIC "-//W3C//DTD SVG 1.1//EN" "http://www.w3.org/Graphics/SVG/1.1/DTD/svg11.dtd">
<svg width="100%" height="100%" viewBox="0 0 24 24" version="1.1" xmlns="http://www.w3.org/2000/svg" xmlns:xlink="http://www.w3.org/1999/xlink" xml:space="preserve" xmlns:serif="http://www.serif.com/" style="fill-rule:evenodd;clip-rule:evenodd;stroke-linecap:round;stroke-linejoin:round;stroke-miterlimit:1.5;">
    <g transform="matrix(0.888889,0,0,1,2.66667,-1)">
        <path d="M6,3L15,3" style="fill:none;stroke:rgb(51,51,51);stroke-width:1.06px;"/>
    </g>
    <g transform="matrix(0.222222,0,0,1,10.6667,2.5)">
        <path d="M6,3L15,3" style="fill:none;stroke:rgb(51,51,51);stroke-width:1.38px;"/>
    </g>
    <g transform="matrix(0.111111,0,0,1,12.3333,4.5)">
        <path d="M6,3L15,3" style="fill:none;stroke:rgb(51,51,51);stroke-width:1.41px;"/>
    </g>
    <g transform="matrix(0.222222,0,0,1,10.6667,6.5)">
        <path d="M6,3L15,3" style="fill:none;stroke:rgb(51,51,51);stroke-width:1.38px;"/>
    </g>
    <g transform="matrix(0.976744,0,0,1,0.523256,0)">
        <path d="M1,22L22.5,22" style="fill:none;stroke:rgb(51,51,51);stroke-width:1.01px;"/>
    </g>
    <g transform="matrix(1,0,0,1,-0.5,-1)">
        <path d="M8.5,3C7.919,3.155 7,3.399 7,4C7,4.601 7.919,4.845 8.5,5" style="fill:none;stroke:rgb(51,51,51);stroke-width:1px;"/>
    </g>
    <g transform="matrix(0.111111,0,0,1,7.33333,1)">
        <path d="M6,3L15,3" style="fill:none;stroke:rgb(51,51,51);stroke-width:1.41px;"/>
    </g>
    <g transform="matrix(1,0,0,1.4,-1,-3)">
        <path d="M10,5L10,10" style="fill:none;stroke:rgb(51,51,51);stroke-width:0.82px;"/>
    </g>
    <g transform="matrix(1,0,0,1,0.5,0)">
        <path d="M8.5,11L1,22" style="fill:none;stroke:rgb(51,51,51);stroke-width:1px;"/>
    </g>
    <g transform="matrix(-1,0,0,1,24.5,-1)">
        <path d="M8.5,3C7.919,3.155 7,3.399 7,4C7,4.601 7.919,4.845 8.5,5" style="fill:none;stroke:rgb(51,51,51);stroke-width:1px;"/>
    </g>
    <g transform="matrix(-0.111111,0,0,1,16.6667,1)">
        <path d="M6,3L15,3" style="fill:none;stroke:rgb(51,51,51);stroke-width:1.41px;"/>
    </g>
    <g transform="matrix(-1,0,0,1.4,25,-3)">
        <path d="M10,5L10,10" style="fill:none;stroke:rgb(51,51,51);stroke-width:0.82px;"/>
    </g>
    <g transform="matrix(-1,0,0,1,23.5,0)">
        <path d="M8.5,11L1,22" style="fill:none;stroke:rgb(51,51,51);stroke-width:1px;"/>
    </g>
    <g transform="matrix(1,0,0,1,0,-0.499035)">
        <path d="M4,20.901L8,15.701C8.783,14.797 10.273,15.099 11.764,15.401L15.528,15.101L20,20.901L4,20.901Z" style="fill:rgb(51,51,51);stroke:rgb(51,51,51);stroke-width:1px;"/>
    </g>
</svg>
