<?xml version="1.0" encoding="UTF-8" standalone="no"?><!DOCTYPE svg PUBLIC "-//W3C//DTD SVG 1.1//EN" "http://www.w3.org/Graphics/SVG/1.1/DTD/svg11.dtd"><svg width="100%" height="100%" viewBox="0 0 8534 8534" version="1.1" xmlns="http://www.w3.org/2000/svg" xmlns:xlink="http://www.w3.org/1999/xlink" xml:space="preserve" xmlns:serif="http://www.serif.com/" style="fill-rule:evenodd;clip-rule:evenodd;stroke-linejoin:round;stroke-miterlimit:2;"><path d="M3954.17,1462.5c1.375,12.375 2.75,24.75 4.166,37.5c2.718,0.505 5.436,1.01 8.236,1.53c30.911,5.927 30.911,5.927 45.41,10.97c16.11,5.155 32.117,7.56 48.812,10.156c9.376,1.547 18.723,3.28 28.027,5.209c111.629,23.12 226.684,27.32 340.349,26.302c2.75,-11 5.5,-22 8.333,-33.334c50.712,0.894 98.55,10.683 147.904,21.733c12.915,2.891 25.839,5.737 38.768,8.566c57.64,12.635 114.94,25.873 171.625,42.341c8.369,2.36 16.765,4.54 25.199,6.657c46.994,11.812 93.33,25.622 139.681,39.714c3.276,0.99 6.553,1.98 9.928,3c32.044,9.7 63.814,19.39 94.73,32.328c10.797,4.463 21.704,8.504 32.679,12.507c54.546,19.95 107.989,41.256 160.319,66.488c3.589,1.726 7.177,3.452 10.875,5.23c10.836,5.278 21.604,10.673 32.355,16.124c3.245,1.597 6.491,3.195 9.835,4.841c21.51,11.197 38.024,23.901 51.102,44.638c8.325,31.277 -1.742,74.426 -12.5,104.167c-8.773,12.044 -8.773,12.044 -20.833,20.833c-12.228,1.675 -21.763,2.195 -33.854,1.563c-3.176,-0.084 -6.351,-0.167 -9.623,-0.253c-16.567,-0.519 -33.006,-1.663 -49.492,-3.393c-93.332,-9.362 -170.5,4.072 -247.135,61.718c-6.121,5.069 -12.195,10.194 -18.23,15.365c-5.454,4.407 -5.454,4.407 -11.019,8.903c-32.621,27.602 -54.736,58.775 -76.481,95.264c-2.143,3.555 -4.286,7.111 -6.494,10.774c-25.537,46.62 -38.099,97.304 -35.503,150.237c0.36,7.433 0.374,14.881 0.331,22.322c-2.75,2.75 -5.5,5.5 -8.334,8.333c-1.941,11.714 -1.941,11.714 -2.636,25.424c-0.524,7.573 -0.524,7.573 -1.058,15.299c-0.328,5.296 -0.656,10.592 -0.993,16.048c-0.54,7.992 -0.54,7.992 -1.091,16.146c-0.886,13.193 -1.736,26.386 -2.555,39.583l8.333,0c1.058,26.442 1.058,26.442 -4.15,39.86c-5.822,19.913 -5.231,38.734 -4.964,59.359c0.002,4.026 0.005,8.051 0.008,12.199c-1.595,18.609 -1.595,18.609 4.94,34.416c0.781,12.239 0.781,12.239 -0,25c-2.75,2.75 -5.5,5.5 -8.334,8.333c-1.23,11.667 -1.23,11.667 -0.96,25.277c0.008,5.03 0.016,10.06 0.024,15.242c0.051,5.277 0.103,10.554 0.155,15.991c0.003,5.294 0.005,10.587 0.008,16.04c-2.198,23.62 -2.198,23.62 4.94,44.117c-3,28 -3,28 -8.333,33.333c-0.317,10.153 -0.379,20.188 -0.261,30.339c0.016,3.036 0.032,6.072 0.048,9.2c0.051,9.737 0.129,19.474 0.213,29.211c0.11,12.804 0.194,25.607 0.26,38.411c0.052,4.46 0.052,4.46 0.105,9.01c0.036,7.11 -0.143,14.222 -0.365,21.329c-1.375,1.375 -2.75,2.75 -4.167,4.167c-0.317,10.455 -0.378,20.797 -0.26,31.25c0.015,3.128 0.031,6.257 0.047,9.48c0.051,10.035 0.129,20.069 0.213,30.103c0.11,13.194 0.194,26.389 0.26,39.583c0.052,4.597 0.052,4.597 0.105,9.286c0.036,7.322 -0.143,14.645 -0.365,21.964c-1.375,1.375 -2.75,2.75 -4.167,4.167c-0.317,10.455 -0.378,20.797 -0.26,31.25c0.016,3.129 0.031,6.257 0.048,9.481c0.051,10.034 0.128,20.068 0.212,30.102c0.111,13.195 0.194,26.389 0.261,39.584c0.052,4.596 0.052,4.596 0.105,9.285c0.035,7.323 -0.144,14.646 -0.366,21.965c-1.375,1.375 -2.75,2.75 -4.166,4.166c-0.318,10.456 -0.379,20.797 -0.261,31.25c0.016,3.129 0.032,6.258 0.048,9.481c0.051,10.035 0.129,20.068 0.213,30.103c0.11,13.194 0.194,26.388 0.26,39.583c0.052,4.596 0.052,4.596 0.105,9.285c0.036,7.323 -0.143,14.646 -0.365,21.965c-1.375,1.375 -2.75,2.75 -4.167,4.167c-0.317,10.758 -0.378,21.405 -0.26,32.161c0.015,3.221 0.031,6.442 0.047,9.761c0.051,10.332 0.129,20.663 0.213,30.994c0.11,13.585 0.194,27.17 0.26,40.756c0.052,4.733 0.052,4.733 0.105,9.561c0.036,7.534 -0.143,15.069 -0.365,22.6c-1.375,1.375 -2.75,2.75 -4.167,4.167c-0.317,10.455 -0.378,20.797 -0.26,31.25c0.016,3.128 0.031,6.257 0.048,9.48c0.051,10.035 0.128,20.069 0.212,30.103c0.111,13.194 0.194,26.389 0.261,39.583c0.034,3.065 0.069,6.129 0.105,9.286c0.035,7.322 -0.144,14.645 -0.366,21.964c-1.375,1.375 -2.75,2.75 -4.166,4.167c-0.318,10.455 -0.379,20.797 -0.261,31.25c0.016,3.129 0.032,6.257 0.048,9.481c0.051,10.034 0.129,20.068 0.213,30.102c0.11,13.195 0.194,26.389 0.26,39.584c0.035,3.064 0.069,6.128 0.105,9.285c0.036,7.323 -0.143,14.646 -0.365,21.965c-1.375,1.375 -2.75,2.75 -4.167,4.166c-0.952,8.013 -1.647,16.057 -2.23,24.105c-0.362,4.874 -0.725,9.749 -1.098,14.771c-0.363,5.132 -0.726,10.264 -1.099,15.551c-0.379,5.149 -0.757,10.297 -1.148,15.601c-0.936,12.767 -1.855,25.536 -2.758,38.306l8.333,-0c0.407,25.634 0.407,25.634 0,33.333c-1.375,1.375 -2.75,2.75 -4.167,4.167c-0.317,10.152 -0.378,20.188 -0.26,30.338c0.016,3.036 0.031,6.073 0.048,9.201c0.051,9.737 0.128,19.474 0.212,29.211c0.111,12.803 0.194,25.607 0.261,38.411c0.052,4.46 0.052,4.46 0.105,9.009c0.035,7.111 -0.144,14.222 -0.366,21.33c-1.375,1.375 -2.75,2.75 -4.166,4.166c-0.318,10.758 -0.379,21.406 -0.261,32.162c0.024,4.832 0.024,4.832 0.048,9.761c0.051,10.331 0.129,20.663 0.213,30.994c0.11,13.585 0.194,27.17 0.26,40.755c0.052,4.733 0.052,4.733 0.105,9.562c0.036,7.534 -0.143,15.069 -0.365,22.6c-1.375,1.375 -2.75,2.75 -4.167,4.166c-0.727,11.42 -1.191,22.75 -1.488,34.184c-0.109,3.584 -0.219,7.168 -0.331,10.861c-0.236,7.812 -0.463,15.624 -0.682,23.436c-0.349,12.364 -0.725,24.726 -1.11,37.089c-1.091,35.16 -2.136,70.321 -3.149,105.484c-0.621,21.484 -1.279,42.966 -1.959,64.448c-0.252,8.193 -0.49,16.386 -0.712,24.579c-0.313,11.472 -0.672,22.942 -1.042,34.412c-0.12,5.08 -0.12,5.08 -0.243,10.261c-0.606,17.207 -1.796,31.646 -10.117,46.913c-15.37,8.966 -28.39,8.598 -45.834,8.333c0.019,3.046 0.037,6.091 0.056,9.229c0.169,28.983 0.295,57.967 0.376,86.951c0.043,14.893 0.102,29.787 0.197,44.68c0.092,14.427 0.141,28.854 0.162,43.281c0.022,8.064 0.087,16.129 0.153,24.193c0.015,115.861 -47.639,181.801 -124.218,264.062c-8.179,8.893 -16.161,17.889 -24.089,27.002c-38.171,43.761 -78.69,85.418 -119.564,126.644c-3.32,3.375 -6.641,6.749 -10.062,10.226c-16.561,16.587 -32.379,30.435 -52.177,42.899c-5.197,4.868 -10.257,9.889 -15.104,15.104c-9.545,10.262 -17.623,17.164 -30.73,22.396l-12.5,-0c-1.022,45.735 -2.037,91.469 -3.043,137.204c-0.469,21.269 -0.939,42.538 -1.415,63.806c-0.556,24.821 -1.103,49.641 -1.645,74.462c-0.094,4.276 -0.187,8.553 -0.284,12.958c-1.1,50.639 -2.082,101.278 -2.859,151.923c-2.395,155.279 -6.301,310.479 -10.741,465.711c-1.597,55.848 -3.166,111.697 -4.735,167.546c-0.357,12.688 -0.715,25.376 -1.073,38.064c-2.182,77.22 -4.228,154.442 -5.99,231.674c-1.21,52.925 -2.801,105.824 -4.71,158.728c-5.523,154.58 -9.088,309.219 -12.888,463.848c-0.518,21.063 -1.041,42.126 -1.564,63.189c-0.357,14.455 -0.706,28.911 -1.054,43.367c-0.436,17.99 -0.917,35.978 -1.43,53.967c-0.567,20.021 -0.941,40.038 -1.254,60.065c-0.231,10.694 -0.465,21.388 -0.701,32.082c-0.072,7.553 -0.072,7.553 -0.145,15.258c-0.12,4.656 -0.24,9.311 -0.363,14.107c-0.069,4.122 -0.138,8.244 -0.21,12.491c-2.229,10.383 -2.229,10.383 -9.868,17.884c-11.214,6.21 -21.371,7.728 -34.028,9.166c0.046,4.258 0.091,8.517 0.138,12.904c0.297,40.809 -0.982,81.303 -3.461,122.032c-3.552,58.488 -6.239,116.94 -7.751,175.516c-0.685,24.585 -1.971,48.547 -5.592,72.881c-41.415,14.405 -86.201,9.007 -129.167,4.167c-6.868,-6.868 -5.229,-15.098 -5.721,-24.576c-0.237,-4.385 -0.473,-8.77 -0.717,-13.288c-0.358,-7.224 -0.358,-7.224 -0.723,-14.594c-0.261,-4.981 -0.522,-9.963 -0.791,-15.096c-0.699,-13.495 -1.379,-26.991 -2.048,-40.488c-0.415,-8.327 -0.838,-16.653 -1.262,-24.98c-4.31,-84.803 -7.867,-169.581 -9.571,-254.478c-7.993,-1.676 -7.993,-1.676 -16.146,-3.385c-15.091,-3.165 -16.356,-3.702 -25.521,-17.448c-1.251,-8.46 -1.251,-8.46 -1.551,-18.352c-0.133,-3.769 -0.267,-7.537 -0.405,-11.42c-0.106,-4.139 -0.212,-8.279 -0.322,-12.544c-0.216,-6.581 -0.216,-6.581 -0.436,-13.295c-0.473,-14.698 -0.889,-29.397 -1.306,-44.096c-0.324,-10.393 -0.651,-20.785 -0.981,-31.178c-0.701,-22.274 -1.378,-44.549 -2.033,-66.825c-0.956,-32.494 -1.955,-64.987 -2.966,-97.48c-1.212,-38.939 -2.416,-77.878 -3.596,-116.817c-1.972,-65.044 -4.001,-130.085 -6.196,-195.122c-11.098,-330.071 -20.096,-660.21 -29.321,-990.337c-0.663,-23.726 -1.329,-47.452 -1.996,-71.179c-1.909,-67.919 -3.796,-135.838 -5.635,-203.759c-0.526,-19.398 -1.061,-38.797 -1.606,-58.195c-3.135,-112.052 -4.902,-223.97 -4.15,-336.068c-5.257,-1.204 -10.514,-2.408 -15.93,-3.649c-16.973,-3.888 -26.575,-10.462 -39.278,-22.653c-5.06,-4.745 -5.06,-4.745 -10.222,-9.587c-32.371,-33.637 -40.611,-64.787 -40.538,-110.784c-0.043,-4.069 -0.085,-8.138 -0.129,-12.331c-0.125,-13.324 -0.164,-26.646 -0.202,-39.971c-0.07,-9.288 -0.146,-18.576 -0.226,-27.864c-0.198,-24.351 -0.322,-48.702 -0.431,-73.053c-0.125,-24.887 -0.319,-49.774 -0.507,-74.66c-0.357,-48.76 -0.638,-97.521 -0.87,-146.281c-2.562,-0.18 -5.124,-0.36 -7.764,-0.546c-3.368,-0.292 -6.735,-0.585 -10.205,-0.887c-3.336,-0.265 -6.671,-0.531 -10.108,-0.805c-14.52,-2.972 -21.256,-11.512 -30.257,-22.762c-1.375,-1.375 -2.75,-2.75 -4.166,-4.167c-0.37,-12.927 -0.48,-25.761 -0.407,-38.688c0.009,-5.818 0.009,-5.818 0.018,-11.753c0.023,-12.44 0.075,-24.88 0.128,-37.319c0.021,-8.412 0.04,-16.824 0.057,-25.236c0.046,-20.668 0.118,-41.336 0.204,-62.004c-4.383,-0.258 -8.766,-0.516 -13.282,-0.781c-19.15,-4.082 -24.612,-9.076 -36.718,-24.219c-2.578,-13.238 -2.578,-13.238 -2.541,-28.504c-0.032,-4.243 -0.032,-4.243 -0.065,-8.571c-0.047,-9.499 0.055,-18.991 0.156,-28.489c-0.003,-6.87 -0.015,-13.739 -0.036,-20.609c-0.03,-18.893 0.069,-37.783 0.19,-56.676c0.107,-20.367 0.093,-40.734 0.094,-61.102c0.018,-35.296 0.111,-70.59 0.254,-105.885c0.206,-51.04 0.289,-102.08 0.341,-153.12c0.086,-82.818 0.259,-165.636 0.493,-248.455c0.226,-80.436 0.433,-160.872 0.598,-241.308c0.01,-4.956 0.02,-9.912 0.031,-15.017c0.11,-54.065 0.209,-108.13 0.293,-162.195c0.007,-4.747 0.015,-9.494 0.022,-14.385c0.03,-18.973 0.059,-37.946 0.086,-56.919c0.081,-55.624 0.195,-111.249 0.371,-166.873c0.11,-34.87 0.192,-69.74 0.252,-104.61c0.036,-20.144 0.087,-40.288 0.174,-60.432c0.079,-18.414 0.121,-36.828 0.132,-55.242c0.011,-6.687 0.036,-13.374 0.077,-20.061c0.053,-9.039 0.056,-18.077 0.045,-27.116c0.022,-7.554 0.022,-7.554 0.044,-15.26c0.2,-12.247 0.2,-12.247 -9.345,-20.004c-0.831,-12.776 -1.132,-25.178 -1.076,-37.959c-0.015,-3.984 -0.03,-7.968 -0.046,-12.072c-0.042,-13.436 -0.025,-26.872 -0.008,-40.308c-0.018,-9.602 -0.04,-19.204 -0.066,-28.806c-0.048,-20.732 -0.071,-41.465 -0.074,-62.198c-0.008,-32.84 -0.084,-65.679 -0.17,-98.519c-0.117,-46.108 -0.212,-92.216 -0.282,-138.324c-0.007,-4.391 -0.007,-4.391 -0.013,-8.872c-0.05,-32.575 -0.092,-65.15 -0.127,-97.725c-0.013,-11.766 -0.026,-23.531 -0.039,-35.297c-0.005,-4.354 -0.005,-4.354 -0.01,-8.796c-0.054,-48.615 -0.157,-97.23 -0.297,-145.845c-0.091,-32.579 -0.125,-65.158 -0.115,-97.737c-0.007,-20.39 -0.066,-40.779 -0.139,-61.169c-0.023,-9.38 -0.025,-18.76 -0.004,-28.14c0.185,-92.1 -0.894,-186.199 -68.367,-256.567c-45.716,-42.624 -103.495,-56.813 -164.242,-55.468c-78.63,3.903 -150.864,57.383 -202.425,113.802c-8.96,11.023 -17.377,22.404 -25.781,33.854c-17.66,23.552 -35.806,46.285 -55.729,67.969c-2.034,2.237 -4.068,4.475 -6.164,6.781c-15.215,16.236 -27.286,25.804 -49.826,26.552c-4.125,0.25 -4.125,0.25 -8.333,0.504c-13.474,-3.763 -17.792,-11.532 -25,-23.16c-16.453,-99.109 39.559,-216.596 94.238,-295.459c73.116,-99.921 179.996,-163.173 301.856,-183.187c146.547,-19.868 299.309,-0.492 445.573,11.979Z" style="fill:#d9d9d9;fill-rule:nonzero;"/><path d="M4454.17,4795.83c3.353,7.31 3.353,7.31 4.166,16.667c-8.564,7.651 -8.564,7.651 -20.318,16.38c-21.443,20.566 -25.383,35.844 -26.079,65.206c-0.137,16.018 0.232,31.993 0.662,48.004c0.077,8.535 0.137,17.069 0.178,25.604c0.159,22.35 0.567,44.688 1.03,67.032c0.428,22.847 0.617,45.696 0.826,68.545c0.446,44.748 1.156,89.488 2.035,134.229c4.366,-4.061 4.366,-4.061 8.821,-8.203c3.792,-3.481 7.584,-6.961 11.491,-10.547c3.771,-3.48 7.541,-6.961 11.426,-10.547c9.928,-8.203 9.928,-8.203 18.262,-8.203c1.375,-4.125 2.75,-8.25 4.166,-12.5l8.334,-0c1.106,-2.481 2.213,-4.963 3.353,-7.52c5.124,-9.41 10.179,-14.928 18.001,-22.168c11.456,-11.103 21.478,-22.547 31.25,-35.156c22.358,-28.588 47.487,-54.638 72.396,-80.989c1.375,4.125 2.75,8.25 4.166,12.5c-1.767,1.67 -3.534,3.34 -5.354,5.062c-16.953,16.43 -31.653,33.642 -45.931,52.425c-16.127,21.005 -33.343,41.27 -52.881,59.179l-8.334,0c-1.106,2.423 -2.213,4.845 -3.353,7.341c-15.578,29.172 -42.664,50.732 -67.48,71.826c-12.653,10.503 -12.653,10.503 -18.229,25c-3.538,11.321 -10.511,14.057 -20.313,19.971c-11.24,7.752 -20.06,17.622 -29.329,27.588c-11.773,10.912 -20.191,14.941 -36.296,14.941c-1.022,45.735 -2.037,91.469 -3.043,137.204c-0.469,21.269 -0.939,42.538 -1.415,63.806c-0.556,24.821 -1.103,49.641 -1.645,74.462c-0.141,6.414 -0.141,6.414 -0.284,12.958c-1.1,50.639 -2.082,101.278 -2.859,151.923c-2.395,155.279 -6.301,310.479 -10.741,465.711c-1.597,55.848 -3.166,111.697 -4.735,167.546c-0.357,12.688 -0.715,25.376 -1.073,38.064c-2.182,77.22 -4.228,154.442 -5.99,231.674c-1.21,52.925 -2.801,105.824 -4.71,158.728c-5.523,154.58 -9.088,309.219 -12.888,463.848c-0.518,21.063 -1.041,42.126 -1.564,63.189c-0.357,14.455 -0.706,28.911 -1.054,43.367c-0.436,17.99 -0.917,35.978 -1.43,53.967c-0.567,20.021 -0.941,40.038 -1.254,60.065c-0.231,10.694 -0.465,21.388 -0.701,32.082c-0.048,5.035 -0.096,10.071 -0.145,15.258c-0.12,4.656 -0.24,9.311 -0.363,14.107c-0.069,4.122 -0.138,8.244 -0.21,12.491c-2.229,10.383 -2.229,10.383 -9.868,17.884c-11.214,6.21 -21.371,7.728 -34.028,9.166c0.068,6.387 0.068,6.387 0.138,12.904c0.297,40.809 -0.982,81.303 -3.461,122.032c-3.552,58.488 -6.239,116.94 -7.751,175.516c-0.685,24.585 -1.971,48.547 -5.592,72.881c-41.415,14.405 -86.201,9.007 -129.167,4.167c-6.868,-6.868 -5.229,-15.098 -5.721,-24.576c-0.237,-4.385 -0.473,-8.77 -0.717,-13.288c-0.358,-7.224 -0.358,-7.224 -0.723,-14.594c-0.261,-4.981 -0.522,-9.963 -0.791,-15.096c-0.699,-13.495 -1.379,-26.991 -2.048,-40.488c-0.415,-8.327 -0.838,-16.653 -1.262,-24.98c-4.31,-84.803 -7.867,-169.581 -9.571,-254.478c-5.328,-1.117 -10.657,-2.234 -16.146,-3.385c-15.091,-3.165 -16.356,-3.702 -25.521,-17.448c-1.251,-8.46 -1.251,-8.46 -1.551,-18.352c-0.133,-3.769 -0.267,-7.537 -0.405,-11.42c-0.106,-4.139 -0.212,-8.279 -0.322,-12.544c-0.216,-6.581 -0.216,-6.581 -0.436,-13.295c-0.473,-14.698 -0.889,-29.397 -1.306,-44.096c-0.324,-10.393 -0.651,-20.785 -0.981,-31.178c-0.701,-22.274 -1.378,-44.549 -2.033,-66.825c-0.956,-32.494 -1.955,-64.987 -2.966,-97.48c-1.212,-38.939 -2.416,-77.878 -3.596,-116.817c-1.972,-65.044 -4.001,-130.085 -6.196,-195.122c-11.098,-330.071 -20.096,-660.21 -29.321,-990.337c-0.663,-23.726 -1.329,-47.452 -1.996,-71.179c-1.909,-67.919 -3.796,-135.838 -5.635,-203.759c-0.526,-19.398 -1.061,-38.797 -1.606,-58.195c-3.135,-112.052 -4.902,-223.97 -4.15,-336.068c-5.257,-1.204 -10.514,-2.408 -15.93,-3.649c-16.973,-3.888 -26.575,-10.462 -39.278,-22.653c-3.373,-3.164 -6.746,-6.327 -10.222,-9.587c-32.241,-33.502 -40.612,-64.574 -40.538,-110.401c-0.043,-4.029 -0.085,-8.058 -0.129,-12.209c-0.125,-13.188 -0.164,-26.375 -0.202,-39.564c-0.07,-9.195 -0.146,-18.39 -0.226,-27.584c-0.198,-24.105 -0.322,-48.209 -0.431,-72.314c-0.125,-24.636 -0.319,-49.271 -0.507,-73.906c-0.357,-48.266 -0.638,-96.533 -0.87,-144.8c10.678,0.59 21.354,1.201 32.031,1.823c3.005,0.164 6.01,0.328 9.106,0.497c15.834,0.94 30.841,2.548 46.363,6.014c55.503,5.716 111.493,4.942 167.216,4.938c15.42,0.009 30.84,0.085 46.26,0.164c157.207,4.346 157.207,4.346 307.357,-34.269c1.375,-1.375 2.75,-2.75 4.167,-4.167Z" style="fill:#d2d2d2;fill-rule:nonzero;"/><path d="M3954.17,1462.5c1.375,12.375 2.75,24.75 4.166,37.5c2.718,0.505 5.436,1.01 8.236,1.53c30.911,5.927 30.911,5.927 45.41,10.97c16.11,5.155 32.117,7.56 48.812,10.156c9.376,1.547 18.723,3.28 28.027,5.209c111.629,23.12 226.684,27.32 340.349,26.302c2.75,-11 5.5,-22 8.333,-33.334c68.271,18.133 68.271,18.133 83.333,41.667c0.261,10.417 0.261,10.417 -4.166,20.833c-20.259,12.5 -20.259,12.5 -33.334,12.5c-0.474,3.09 -0.948,6.18 -1.436,9.363c-2.789,11.718 -6.293,18.497 -13.082,28.333c-2.151,3.14 -4.303,6.28 -6.519,9.516c-2.339,3.326 -4.678,6.653 -7.088,10.08c-2.422,3.49 -4.844,6.98 -7.339,10.576c-22.551,32.228 -46.362,63.419 -70.48,94.48c-16.911,21.891 -33.415,44.094 -49.941,66.276c-4.595,6.165 -9.194,12.327 -13.799,18.485c-104.839,137.168 -104.839,137.168 -144.061,302.237c-0.081,3.201 -0.162,6.401 -0.245,9.698c-0.262,10.641 -0.494,21.282 -0.723,31.923c-0.129,5.584 -0.129,5.584 -0.26,11.28c-2.303,100.37 -3.049,200.759 -3.885,301.149c-0.493,58.807 -1.083,117.611 -1.832,176.414c-0.142,11.789 -0.26,23.579 -0.373,35.368c-0.182,18.457 -0.448,36.912 -0.777,55.367c-0.108,6.725 -0.189,13.451 -0.241,20.177c-0.452,55.245 -8.229,92.766 -47.336,133.204c-3.217,3.105 -6.435,6.209 -9.749,9.408c-3.859,3.754 -3.859,3.754 -7.797,7.584c-41.277,35.33 -97.395,36.633 -148.924,35.797c-9.662,-0.152 -19.318,-0.17 -28.981,-0.168c-144.131,-0.672 -144.131,-0.672 -181.486,-37.484c-2.578,-3.266 -5.156,-6.531 -7.812,-9.896c-2.75,-2.75 -5.5,-5.5 -8.334,-8.333c-0.831,-12.776 -1.132,-25.178 -1.076,-37.959c-0.015,-3.984 -0.03,-7.968 -0.046,-12.072c-0.042,-13.436 -0.025,-26.872 -0.008,-40.308c-0.018,-9.602 -0.04,-19.204 -0.066,-28.806c-0.048,-20.732 -0.071,-41.465 -0.074,-62.198c-0.008,-32.84 -0.084,-65.679 -0.17,-98.519c-0.117,-46.108 -0.212,-92.216 -0.282,-138.324c-0.007,-4.391 -0.007,-4.391 -0.013,-8.872c-0.05,-32.575 -0.092,-65.15 -0.127,-97.725c-0.013,-11.766 -0.026,-23.531 -0.039,-35.297c-0.005,-4.354 -0.005,-4.354 -0.01,-8.796c-0.054,-48.615 -0.157,-97.23 -0.297,-145.845c-0.091,-32.579 -0.125,-65.158 -0.115,-97.737c-0.007,-20.39 -0.066,-40.779 -0.139,-61.169c-0.023,-9.38 -0.025,-18.76 -0.004,-28.14c0.185,-92.1 -0.894,-186.199 -68.367,-256.567c-45.716,-42.624 -103.495,-56.813 -164.242,-55.468c-78.63,3.903 -150.864,57.383 -202.425,113.802c-8.96,11.023 -17.377,22.404 -25.781,33.854c-17.66,23.552 -35.806,46.285 -55.729,67.969c-2.034,2.237 -4.068,4.475 -6.164,6.781c-15.215,16.236 -27.286,25.804 -49.826,26.552c-4.125,0.25 -4.125,0.25 -8.333,0.504c-13.474,-3.763 -17.792,-11.532 -25,-23.16c-16.453,-99.109 39.559,-216.596 94.238,-295.459c73.116,-99.921 179.996,-163.173 301.856,-183.187c146.547,-19.868 299.309,-0.492 445.573,11.979Z" style="fill:#333;fill-rule:nonzero;"/><path d="M4154.17,2845.83l4.166,0c1.191,363.681 -0.405,727.307 -3.765,1090.97c-0.14,15.206 -0.279,30.412 -0.417,45.618c-2.012,221.149 -4.097,442.29 -8.318,663.409c35.097,-0.448 70.193,-0.917 105.29,-1.414c16.296,-0.23 32.592,-0.452 48.888,-0.658c15.724,-0.199 31.447,-0.417 47.17,-0.648c6.002,-0.085 12.005,-0.163 18.007,-0.234c8.399,-0.101 16.799,-0.228 25.198,-0.357c4.784,-0.065 9.567,-0.129 14.496,-0.196c12.111,-0.16 12.111,-0.16 24.285,-4.826c9.72,-0.165 19.446,-0.183 29.166,0c0.309,22.32 0.536,44.639 0.687,66.961c0.063,7.594 0.148,15.188 0.256,22.782c0.152,10.912 0.223,21.822 0.278,32.734c0.065,3.399 0.129,6.798 0.196,10.3c0.007,23.8 0.007,23.8 -7.06,32.519c-68.851,55.604 -243.437,35.981 -325.338,35.562c-15.509,-0.077 -31.016,-0.086 -46.525,-0.085c-70.829,-0.099 -140.063,-2.211 -210.254,-12.492c-4.821,-0.636 -9.641,-1.273 -14.608,-1.928c-26.441,-3.838 -46.702,-8.006 -68.465,-23.853c-8.585,-12.877 -9.367,-15.455 -9.279,-29.984c0.001,-5.254 0.001,-5.254 0.002,-10.614c0.043,-3.763 0.086,-7.527 0.13,-11.404c0.012,-3.867 0.023,-7.733 0.036,-11.717c0.046,-12.355 0.151,-24.708 0.257,-37.062c0.042,-8.374 0.08,-16.748 0.114,-25.122c0.092,-20.533 0.236,-41.065 0.407,-61.597c-4.383,-0.258 -8.766,-0.516 -13.282,-0.781c-19.146,-4.081 -24.606,-9.088 -36.718,-24.219c-2.597,-13.158 -2.597,-13.158 -2.587,-28.309c-0.027,-2.807 -0.053,-5.615 -0.081,-8.507c-0.063,-9.427 0.022,-18.847 0.106,-28.274c-0.015,-6.818 -0.039,-13.636 -0.071,-20.453c-0.063,-18.751 0.004,-37.499 0.092,-56.249c0.073,-20.214 0.026,-40.428 -0.006,-60.642c-0.045,-39.602 0.022,-79.203 0.125,-118.805c0.116,-46.083 0.122,-92.165 0.123,-138.248c0.005,-82.195 0.109,-164.389 0.269,-246.583c0.156,-79.83 0.244,-159.66 0.257,-239.49c0,-4.918 0.001,-9.836 0.002,-14.904c0.001,-4.91 0.001,-9.819 0.002,-14.878c0.002,-9.884 0.003,-19.769 0.005,-29.653c0.001,-4.874 0.001,-9.749 0.002,-14.77c0.015,-75.985 0.092,-151.969 0.175,-227.954c0.029,-27.577 0.049,-55.155 0.062,-82.733c0.021,-43.73 0.069,-87.459 0.172,-131.189c0.047,-19.992 0.081,-39.984 0.079,-59.977c-0.001,-18.275 0.036,-36.55 0.104,-54.825c0.018,-6.636 0.022,-13.273 0.011,-19.909c-0.013,-8.971 0.024,-17.941 0.075,-26.912c0.012,-7.497 0.012,-7.497 0.025,-15.145c1.059,-11.591 1.059,-11.591 9.392,-19.924l0,8.333c17.277,7.467 34.907,12.39 53.125,16.927c4.157,1.084 4.157,1.084 8.398,2.189c42.01,10.543 84.129,11.065 127.189,11.281c6.62,0.047 13.241,0.132 19.86,0.256c52.31,0.971 108.617,0.081 150.575,-35.845c2.482,-2.412 4.963,-4.823 7.52,-7.308c4.366,-4.198 4.366,-4.198 8.821,-8.48c20.618,-21.411 32.212,-42.431 41.179,-70.687Z" style="fill:#d8d9d9;fill-rule:nonzero;"/><path d="M4120.83,515.82c4.276,-0.029 8.552,-0.058 12.958,-0.088c13.736,-0.072 27.472,-0.099 41.209,-0.107c4.672,-0.004 9.344,-0.008 14.157,-0.013c218.602,0.133 218.602,0.133 267.477,38.756c12.711,15.582 13.599,28.302 13.971,47.65c0.099,3.396 0.198,6.792 0.3,10.291c0.16,7.171 0.262,14.344 0.309,21.517c0.139,10.897 0.678,21.729 1.231,32.613c1.26,48.519 1.26,48.519 -10.733,65.63c-25.368,25.526 -51.011,30.631 -86.712,34.598l0,479.166c12.375,1.375 24.75,2.75 37.5,4.167c19.178,9.189 19.178,9.189 25,20.833c0.423,8.058 0.577,16.129 0.605,24.198c0.027,5.077 0.053,10.154 0.081,15.385c0.006,5.572 0.011,11.144 0.014,16.716c0.013,5.71 0.027,11.42 0.042,17.131c0.025,11.989 0.033,23.979 0.03,35.969c-0,15.308 0.056,30.615 0.128,45.923c0.047,11.808 0.055,23.615 0.053,35.422c0.007,8.371 0.052,16.741 0.098,25.112c-0.063,25.413 -0.37,47.737 -9.384,71.644c-94.942,1.887 -189.198,-4.651 -283.334,-16.666c-2.769,-0.349 -5.538,-0.697 -8.391,-1.056c-26.089,-3.322 -49.993,-7.226 -74.942,-15.611c-7.992,-0.645 -7.992,-0.645 -16.146,-1.302c-19.716,-1.829 -37.929,-7.207 -56.771,-13.021c-2.996,-0.907 -5.992,-1.813 -9.08,-2.748c-7.478,-2.38 -14.838,-5.127 -22.17,-7.929c-5.187,-10.374 -4.836,-17.612 -5.036,-29.221c-0.121,-6.53 -0.121,-6.53 -0.244,-13.192c-0.24,-19.918 -0.446,-39.835 -0.574,-59.755c-0.09,-10.512 -0.232,-21.024 -0.427,-31.535c-0.279,-15.139 -0.394,-30.273 -0.473,-45.415c-0.116,-4.697 -0.232,-9.393 -0.352,-14.233c0.085,-32.213 0.085,-32.213 13.258,-48.84c14.682,-7.809 14.682,-7.809 52.182,-16.142l-0,-475c-12.375,-1.375 -24.75,-2.75 -37.5,-4.167c-13.396,-6.494 -13.396,-6.494 -24.74,-14.323c-3.819,-2.573 -7.638,-5.145 -11.572,-7.796c-9.522,-7.048 -9.522,-7.048 -17.855,-15.381c-1.141,-11.959 -1.771,-23.497 -1.986,-35.482c-0.067,-3.536 -0.134,-7.071 -0.204,-10.714c-0.115,-7.495 -0.204,-14.991 -0.27,-22.487c-0.143,-11.429 -0.508,-22.839 -0.877,-34.263c-0.958,-52.484 -0.958,-52.484 9.642,-69.933c8.849,-7.177 16.266,-10.952 27.028,-14.621c3.003,-1.068 6.007,-2.136 9.101,-3.237c9.256,-2.751 18.382,-4.668 27.879,-6.398c3.077,-0.648 6.155,-1.295 9.326,-1.962c38.505,-7.774 76.991,-9.903 116.194,-10.083Z" style="fill:#cfcfcf;fill-rule:nonzero;"/><path d="M4120.83,515.82c4.276,-0.029 8.552,-0.058 12.958,-0.088c13.736,-0.072 27.472,-0.099 41.209,-0.107c4.672,-0.004 9.344,-0.008 14.157,-0.013c218.602,0.133 218.602,0.133 267.477,38.756c12.711,15.582 13.599,28.302 13.971,47.65c0.099,3.396 0.198,6.792 0.3,10.291c0.16,7.171 0.262,14.344 0.309,21.517c0.139,10.897 0.678,21.729 1.231,32.613c1.267,48.193 1.267,48.193 -10.51,65.525c-26.564,27.366 -63.871,37.265 -100.737,41.213c-4.897,0.605 -9.793,1.209 -14.838,1.832c-112.816,12.196 -230.056,8.368 -342.193,-8.342c-3.014,-0.367 -6.027,-0.733 -9.131,-1.111c-27.661,-4.792 -52.957,-18.265 -70.036,-40.556c-7.144,-22.805 -6.071,-46.932 -5.289,-70.569c0.342,-11.218 0.258,-22.376 0.121,-33.598c0.193,-50.437 0.193,-50.437 11.638,-68.602c8.785,-7.155 16.189,-10.999 26.863,-14.731c3,-1.07 6.001,-2.14 9.092,-3.243c9.259,-2.743 18.39,-4.662 27.888,-6.392c3.077,-0.648 6.155,-1.295 9.326,-1.962c38.505,-7.774 76.991,-9.903 116.194,-10.083Z" style="fill:#333;fill-rule:nonzero;"/><path d="M3783.33,4616.67c2.717,0.352 5.433,0.705 8.232,1.069c76.005,9.659 151.309,14.145 227.884,16.152c14.338,0.386 28.674,0.826 43.01,1.26c27.79,0.832 55.582,1.613 83.374,2.352l0,8.333c35.097,-0.448 70.193,-0.917 105.29,-1.414c16.296,-0.23 32.592,-0.452 48.888,-0.658c15.724,-0.199 31.447,-0.417 47.17,-0.648c6.002,-0.085 12.005,-0.163 18.007,-0.234c8.399,-0.101 16.799,-0.228 25.198,-0.357c4.784,-0.065 9.567,-0.129 14.496,-0.196c12.111,-0.16 12.111,-0.16 24.285,-4.826c9.72,-0.165 19.446,-0.183 29.166,0c0.309,22.32 0.536,44.639 0.687,66.961c0.063,7.594 0.148,15.188 0.256,22.782c0.152,10.912 0.223,21.822 0.278,32.734c0.065,3.399 0.129,6.798 0.196,10.3c0.007,23.8 0.007,23.8 -7.06,32.519c-68.851,55.604 -243.437,35.981 -325.338,35.562c-15.509,-0.077 -31.016,-0.086 -46.525,-0.085c-70.829,-0.099 -140.063,-2.211 -210.254,-12.492c-4.821,-0.636 -9.641,-1.273 -14.608,-1.928c-26.426,-3.836 -46.654,-8.106 -68.465,-23.853c-4.763,-9.526 -4.671,-14.764 -4.64,-25.344c0.001,-3.503 0.001,-7.006 0.001,-10.615c0.022,-3.785 0.043,-7.57 0.065,-11.469c0.006,-3.873 0.012,-7.745 0.018,-11.735c0.024,-12.397 0.076,-24.794 0.129,-37.191c0.021,-8.393 0.04,-16.786 0.057,-25.179c0.046,-20.6 0.118,-41.2 0.203,-61.8Z" style="fill:#333;fill-rule:nonzero;"/><path d="M4550.52,4628.91c4.565,0.038 9.131,0.075 13.834,0.114c5.27,0.073 5.27,0.073 10.645,0.147c2.063,4.125 2.063,4.125 4.167,8.333c12.153,0.113 24.305,0.195 36.458,0.26c3.438,0.035 6.875,0.07 10.417,0.106c4.995,0.02 4.995,0.02 10.091,0.041c4.582,0.033 4.582,0.033 9.257,0.066c8.9,-0.181 8.9,-0.181 17.716,-2.842c7.727,-1.798 7.727,-1.798 16.061,2.369c10.93,42.805 9.628,88.213 9.419,132.06c-0.044,11.124 0,22.245 0.053,33.37c0.079,84.816 -5.995,150.306 -64.241,216.748c-8.473,9.256 -8.473,9.256 -11.898,21.989c-5.762,5.517 -5.762,5.517 -13.021,11.198c-17.128,14.221 -30.984,30.151 -45.312,47.135c-4.022,4.696 -8.048,9.389 -12.077,14.079c-8.533,9.931 -17.058,19.869 -25.57,29.817c-3.037,3.543 -3.037,3.543 -6.136,7.157c-4.272,5.003 -8.525,10.023 -12.76,15.057c-10.925,12.929 -21.711,25.195 -34.603,36.234c-2.482,2.154 -4.963,4.307 -7.52,6.526c-8.847,7.135 -17.838,13.978 -26.939,20.784c-3.006,2.25 -6.013,4.5 -9.11,6.818c-2.294,1.714 -4.588,3.428 -6.952,5.195c-0.968,-49.803 -1.707,-99.603 -2.159,-149.413c-0.217,-23.132 -0.511,-46.258 -0.984,-69.386c-0.455,-22.343 -0.703,-44.68 -0.81,-67.028c-0.077,-8.502 -0.227,-17.005 -0.452,-25.504c-1.796,-70.43 -1.796,-70.43 13.812,-90.34c11.42,-11.173 11.42,-11.173 22.881,-19.877c10.149,-8.245 12.197,-11.576 13.545,-24.286c0.591,-6.079 1.021,-12.176 1.319,-18.278c0.174,-3.535 0.349,-7.071 0.529,-10.713c0.163,-3.753 0.327,-7.506 0.496,-11.373c0.18,-3.855 0.36,-7.71 0.545,-11.682c1.227,-28.406 1.605,-56.744 1.124,-85.172c-0.09,-7.038 0.011,-14.078 0.154,-21.115c4.167,-4.167 4.167,-4.167 20.052,-4.427c5.816,0.076 11.632,0.163 17.448,0.26c17.827,0 32.246,-4.621 50.521,-4.427Z" style="fill:#dedede;fill-rule:nonzero;"/><path d="M3954.17,1462.5c1.375,12.375 2.75,24.75 4.166,37.5c2.718,0.505 5.436,1.01 8.236,1.53c30.911,5.927 30.911,5.927 45.41,10.97c20.53,6.57 41.746,9.264 63.021,12.5c-12.907,3.503 -24.097,4.539 -37.5,4.167l0,8.333c-7.639,0.115 -15.278,0.194 -22.917,0.26c-4.254,0.049 -8.507,0.097 -12.89,0.147c-12.541,-0.36 -24.552,-1.721 -36.969,-3.376c-95.754,-10.86 -193.262,-10.405 -289.464,-10.573c-7.405,-0.031 -7.405,-0.031 -14.959,-0.064c-67.893,-0.235 -130.892,2.526 -197.003,18.993c-13.713,3.038 -27.217,4.717 -41.163,6.332c-27.148,3.873 -45.713,14.549 -67.968,29.948c-3.336,1.965 -6.671,3.931 -10.108,5.957c-16.277,9.929 -31.216,21.582 -46.452,33.024c-10.107,6.852 -10.107,6.852 -18.44,6.852l-0,8.333c-6.945,6.945 -13.889,13.889 -20.834,20.834c-2.75,4.125 -5.5,8.25 -8.333,12.5c-8.333,12.5 -8.333,12.5 -18.229,21.614c-13.195,14.138 -21.103,29.142 -29.981,46.224c-3.931,7.477 -8.092,14.838 -12.483,22.054c-5.476,9.265 -9.632,18.067 -13.526,28.076c-1.402,3.594 -2.803,7.187 -4.248,10.889c-6.931,18.244 -13.779,36.519 -20.596,54.807c-8.309,22.25 -16.952,44.349 -25.937,66.336l-8.333,-0c-1.375,4.125 -2.75,8.25 -4.167,12.5c-5.378,-127.485 50.085,-249.24 134.033,-343.474c182.822,-192.145 470.317,-143.428 707.634,-123.193Z" style="fill:#333;fill-rule:nonzero;"/><path d="M4079.17,7629.17c8.333,4.166 8.333,4.166 10.807,10.693c2.396,14.355 3.114,28.697 3.776,43.213c0.166,3.441 0.332,6.883 0.504,10.429c2.9,64.621 4.106,129.341 5.746,193.998l0,-254.167c12.256,-6.127 23.343,-4.877 36.979,-4.948c5.146,-0.059 10.291,-0.118 15.593,-0.179c13.408,0.914 19.358,3.01 30.761,9.294c0.257,65.808 -0.265,131.572 -1.551,197.367c-0.275,14.257 -0.522,28.513 -0.768,42.77c-0.175,9.255 -0.351,18.511 -0.529,27.767c-0.104,6.251 -0.104,6.251 -0.211,12.629c-0.597,28.839 -2.58,57.416 -5.274,86.134l8.333,-0c-0.021,-4.272 -0.042,-8.544 -0.064,-12.945c-0.148,-43.511 0.606,-86.94 1.887,-130.431c0.188,-6.625 0.375,-13.25 0.561,-19.874c0.484,-17.173 0.98,-34.344 1.479,-51.516c0.51,-17.628 1.009,-35.257 1.508,-52.886c0.977,-34.394 1.966,-68.788 2.963,-103.182l12.5,0c5.541,16.625 4.371,32.341 3.955,49.642c-0.076,3.778 -0.152,7.557 -0.23,11.449c-0.261,12.45 -0.558,24.898 -0.861,37.347c-0.095,4.231 -0.191,8.463 -0.29,12.823c-2.005,87.996 -6.049,175.859 -10.908,263.739c-38.144,15.907 -80.432,7.427 -120.833,4.167c4.125,-2.063 4.125,-2.063 8.333,-4.167c-0.378,-8.222 -0.378,-8.222 -0.765,-16.611c-4.293,-94.355 -8.434,-188.66 -8.349,-283.128c-0.003,-3.365 -0.006,-6.729 -0.009,-10.195c0.005,-54.378 0.005,-54.378 4.957,-69.232Z" style="fill:#e7e7e8;fill-rule:nonzero;"/><path d="M4176.56,515.365c6.914,0.009 6.914,0.009 13.968,0.018c216.645,0.526 216.645,0.526 266.222,38.903c13.42,16.76 12.615,28.227 11.948,49.051c-0.044,5.227 -0.044,5.227 -0.089,10.56c-0.116,11.083 -0.378,22.158 -0.643,33.238c-0.105,7.533 -0.2,15.066 -0.285,22.6c-0.229,18.425 -0.589,36.843 -1.017,55.265l-4.167,0l0,-150c-20.711,0.688 -41.422,1.375 -62.76,2.083c-336.161,9.796 -336.161,9.796 -420.573,-14.583c-13.655,-0.994 -13.655,-0.994 -26.823,-0.521c-6.566,0.113 -6.566,0.113 -13.265,0.228c-3.271,0.097 -6.542,0.193 -9.912,0.293c53.279,-59.804 174.147,-47.378 247.395,-47.135Z" style="fill:#333;fill-rule:nonzero;"/><path d="M4016.67,7604.17c6.381,1.353 6.381,1.353 12.89,2.734c72.543,14.298 157.46,21.038 228.776,-2.734c-4.166,12.5 -4.166,12.5 -14.062,17.448c-10.938,3.385 -10.938,3.385 -23.438,3.385c0.046,4.258 0.091,8.517 0.138,12.904c0.297,40.809 -0.982,81.303 -3.461,122.032c-3.552,58.488 -6.239,116.94 -7.751,175.516c-0.685,24.585 -1.971,48.547 -5.592,72.881l-8.334,0c-0.717,-64.935 1.57,-129.654 4.167,-194.531c3.699,-90.205 3.699,-90.205 4.167,-180.469l-12.5,0c0.021,3.167 0.043,6.333 0.066,9.595c0.412,70.356 -0.143,140.641 -1.889,210.978c-0.082,3.448 -0.164,6.895 -0.248,10.447c-1.128,46.678 -3.222,93.221 -6.263,139.814l-8.333,-0c0.078,-4.678 0.078,-4.678 0.158,-9.451c0.499,-29.892 0.99,-59.783 1.472,-89.675c0.248,-15.355 0.499,-30.71 0.756,-46.065c1.239,-73.83 2.131,-147.632 1.781,-221.476c-15.68,-5.226 -30.301,-4.612 -46.615,-4.427c-4.685,0.028 -4.685,0.028 -9.464,0.057c-7.696,0.049 -15.392,0.124 -23.088,0.203c0.126,3.101 0.252,6.202 0.382,9.397c3.968,101.05 4.251,201.986 3.785,303.103l-4.167,0c-3.426,-41.305 -5.092,-82.456 -6.023,-123.878c-0.386,-16.96 -0.825,-33.919 -1.269,-50.878c-0.086,-3.294 -0.172,-6.589 -0.261,-9.984c-0.697,-26.019 -1.601,-52.021 -2.864,-78.02c-0.221,-4.855 -0.221,-4.855 -0.447,-9.808c-0.723,-13.75 -1.691,-26.74 -5.803,-39.932c-6.472,12.945 -4.757,26.648 -4.72,40.853c-0.005,3.276 -0.011,6.553 -0.016,9.928c-0.008,10.678 0.018,21.355 0.049,32.032c0.004,3.635 0.007,7.27 0.011,11.016c0.05,41.945 0.438,83.73 3.184,125.599c3.145,51.721 1.83,103.779 1.492,155.572l-12.5,0c-2.027,-37.324 -4.022,-74.651 -5.989,-111.979c-0.145,-2.749 -0.29,-5.498 -0.439,-8.33c-4.611,-87.657 -8.476,-175.262 -10.238,-263.024c-2.358,-0.457 -4.716,-0.913 -7.146,-1.383c-3.056,-0.661 -6.112,-1.322 -9.261,-2.002c-3.045,-0.629 -6.09,-1.257 -9.228,-1.905c-2.541,-1.004 -5.081,-2.009 -7.699,-3.043c-1.375,-4.125 -2.75,-8.25 -4.166,-12.5Z" style="fill:#b0b0b1;fill-rule:nonzero;"/><path d="M4754.17,4591.67c2.062,8.25 2.062,8.25 4.166,16.666c-17.888,10.222 -29.554,13.188 -50,12.5c0.019,3.046 0.037,6.091 0.056,9.229c0.169,28.983 0.295,57.967 0.376,86.951c0.043,14.893 0.102,29.787 0.197,44.68c0.092,14.427 0.141,28.854 0.162,43.281c0.022,8.064 0.087,16.129 0.153,24.193c0.015,115.861 -47.639,181.801 -124.218,264.062c-8.174,8.887 -16.15,17.878 -24.073,26.986c-14.213,16.294 -28.752,32.238 -43.538,48.014c-2.611,2.788 -5.221,5.575 -7.911,8.447c-32.944,34.943 -67.059,68.729 -101.204,102.491c-2.75,-1.375 -5.5,-2.75 -8.333,-4.167c1.375,-4.125 2.75,-8.25 4.167,-12.5c4.125,-1.375 8.25,-2.75 12.5,-4.167c4.193,-5.535 8.362,-11.089 12.5,-16.666l8.333,-0c0.859,-2.321 1.719,-4.641 2.604,-7.032c6.376,-10.723 14.097,-16.593 23.828,-24.202c10.655,-9.675 18.373,-21.225 26.498,-33.04c1.783,-2.165 3.566,-4.33 5.403,-6.56l8.334,0c1.117,-2.664 2.234,-5.328 3.385,-8.073c4.948,-8.593 4.948,-8.593 17.448,-12.76c2.884,-5.501 5.642,-11.069 8.333,-16.667c5.637,-6.75 11.476,-13.336 17.448,-19.791c3.341,-3.663 6.682,-7.327 10.124,-11.101c6.077,-6.595 12.171,-13.174 18.294,-19.726c14.214,-15.567 23.987,-29.747 32.666,-48.893c5.839,-10.728 13.067,-19.288 20.947,-28.614c52.581,-64.548 51.929,-135.997 51.379,-215.414c-0.077,-11.553 -0.086,-23.105 -0.085,-34.659c-0.02,-7.414 -0.044,-14.827 -0.073,-22.241c-0.004,-3.42 -0.009,-6.84 -0.014,-10.364c-0.136,-16.436 -1.053,-31.451 -4.852,-47.53c-0.266,-6.679 -0.361,-13.368 -0.261,-20.052c0.038,-3.293 0.075,-6.585 0.114,-9.977c0.049,-2.466 0.097,-4.931 0.147,-7.471c-4.899,0.687 -9.797,1.375 -14.844,2.083c-28.297,3.22 -56.725,2.421 -85.156,2.084c-2.063,-6.188 -2.063,-6.188 -4.167,-12.5l-50,-0c-1.375,2.75 -2.75,5.5 -4.167,8.333c-8.333,2.865 -8.333,2.865 -16.666,4.167c-1.375,-1.375 -2.75,-2.75 -4.167,-4.167c-11.127,-0.588 -22.185,-0.177 -33.333,-0c0.048,4.098 0.096,8.196 0.146,12.419c0.381,48.749 -1.618,97.246 -4.313,145.914l-4.167,0l0,-158.333c-4.125,-1.375 -8.25,-2.75 -12.5,-4.167c25.13,-8.982 46.898,-13.859 73.649,-12.532c9.719,0.374 9.719,0.374 19.149,-1.985c12.27,-2.32 23.806,-2.885 36.288,-3.175c4.818,-0.131 9.636,-0.262 14.6,-0.396c5.092,-0.133 10.183,-0.265 15.429,-0.401c35.329,-1.117 70.556,-2.37 105.729,-5.99c3.017,-0.276 6.034,-0.552 9.142,-0.837c12.213,-1.399 20.301,-2.614 30.035,-10.393c2.135,-2.949 2.135,-2.949 4.313,-5.957Z" style="fill:#b9b9bb;fill-rule:nonzero;"/><path d="M4154.17,2845.83l4.166,0c1.191,363.848 -0.407,727.641 -3.765,1091.47c-0.14,15.23 -0.279,30.459 -0.417,45.688c-3.97,437.296 -3.97,437.296 -8.318,654.504c-83.483,0.419 -166.586,-0.638 -250,-4.167l0,-4.166c119.625,-2.063 119.625,-2.063 241.667,-4.167c0.252,-39.214 0.505,-78.429 0.765,-118.831c0.167,-25.564 0.335,-51.128 0.505,-76.692c0.021,-3.262 0.043,-6.525 0.065,-9.886c0.162,-24.325 0.325,-48.651 0.488,-72.976c0.023,-3.466 0.046,-6.931 0.07,-10.501c1.14,-169.594 2.326,-339.184 4.357,-508.77c1.741,-146.193 3.067,-292.388 4.215,-438.587c0.16,-20.365 0.325,-40.729 0.493,-61.094c0.271,-33.103 0.529,-66.207 0.777,-99.31c0.061,-7.985 0.061,-7.985 0.122,-16.13c0.447,-60.275 0.699,-120.546 0.608,-180.822c-0.007,-5.603 -0.014,-11.206 -0.021,-16.809c-0.039,-26.506 -0.106,-53.012 -0.217,-79.517c-0.024,-9.402 -0.047,-18.803 -0.07,-28.204c-0.041,-6.415 -0.041,-6.415 -0.083,-12.959c-0.006,-3.919 -0.012,-7.838 -0.018,-11.876c-0.015,-3.392 -0.03,-6.783 -0.045,-10.278c0.484,-9.164 2.113,-17.129 4.656,-25.925Z" style="fill:#c6c6c6;fill-rule:nonzero;"/><path d="M4136.98,7628.39c5.146,-0.059 10.291,-0.118 15.593,-0.179c13.408,0.914 19.358,3.01 30.761,9.294c0.257,65.808 -0.265,131.572 -1.551,197.367c-0.275,14.257 -0.522,28.513 -0.768,42.77c-0.175,9.255 -0.351,18.511 -0.529,27.767c-0.104,6.251 -0.104,6.251 -0.211,12.629c-0.597,28.839 -2.58,57.416 -5.274,86.134l8.333,-0c-0.021,-4.272 -0.042,-8.544 -0.064,-12.945c-0.148,-43.511 0.606,-86.94 1.887,-130.431c0.188,-6.625 0.375,-13.25 0.561,-19.874c0.484,-17.173 0.98,-34.344 1.479,-51.516c0.51,-17.628 1.009,-35.257 1.508,-52.886c0.977,-34.394 1.966,-68.788 2.963,-103.182l12.5,0c5.541,16.625 4.371,32.341 3.955,49.642c-0.076,3.778 -0.152,7.557 -0.23,11.449c-0.261,12.45 -0.558,24.898 -0.861,37.347c-0.095,4.231 -0.191,8.463 -0.29,12.823c-2.005,87.996 -6.049,175.859 -10.908,263.739l-29.166,0c-0.609,-59.729 0.171,-119.437 1.326,-179.155c0.156,-8.259 0.3,-16.518 0.43,-24.778c0.776,-47.91 2.902,-94.571 10.744,-141.9l-8.334,-0c-2.75,-8.25 -5.5,-16.5 -8.333,-25c-6.857,-0.112 -13.715,-0.193 -20.573,-0.26c-5.728,-0.073 -5.728,-0.073 -11.572,-0.147c-9.38,-0.674 -9.38,-0.674 -13.688,4.574c-0.522,11.408 -0.776,22.717 -0.856,34.132c-0.041,3.576 -0.082,7.153 -0.125,10.839c-0.132,11.881 -0.235,23.762 -0.338,35.644c-0.085,8.215 -0.173,16.43 -0.262,24.644c-0.231,21.667 -0.436,43.333 -0.637,65c-0.209,22.091 -0.441,44.181 -0.671,66.272c-0.449,43.378 -0.872,86.757 -1.278,130.135l-12.5,0l0,-375c12.256,-6.127 23.343,-4.877 36.979,-4.948Z" style="fill:#c3c3c4;fill-rule:nonzero;"/><path d="M5115.36,1910.94c5.988,0.04 5.988,0.04 12.097,0.082c44.272,0.795 87.879,6.463 131.693,12.481c14.88,1.91 29.784,3.302 44.731,4.576c8.614,1.09 8.614,1.09 21.114,5.256c10.992,-1.641 10.992,-1.641 20.833,-4.166c-6.233,10.319 -6.233,10.319 -16.666,20.833c-12.121,1.704 -21.585,2.184 -33.594,1.562c-3.194,-0.083 -6.388,-0.166 -9.679,-0.252c-16.636,-0.518 -33.142,-1.654 -49.696,-3.393c-96.956,-9.725 -178.508,5.65 -255.941,68.912c-24.694,21.411 -48.968,43.228 -71.924,66.504c0,-14.874 2.519,-16.754 12.24,-27.343c9.613,-10.532 9.613,-10.532 16.927,-22.657l8.333,0c1.032,-2.234 2.063,-4.468 3.125,-6.771c6.443,-12.241 14.205,-23.39 21.875,-34.895c1.805,-4.141 1.805,-4.141 3.646,-8.366c5.746,-10.176 11.512,-14.058 21.354,-20.28c3.325,-2.122 6.65,-4.243 10.075,-6.429c14.253,-8.733 28.57,-17.346 43.002,-25.781c9.501,-5.381 9.501,-5.381 16.455,-12.696c15.799,-9.207 32.059,-7.444 50,-7.178Z" style="fill:#999a9a;fill-rule:nonzero;"/><path d="M3454.17,1666.67c-12.579,14.513 -23.205,19.965 -41.667,25l0,-8.334c-17.526,6.26 -23.913,17.857 -33.333,33.334c2.75,1.375 5.5,2.75 8.333,4.166l0,12.5c-8.122,5.843 -8.122,5.843 -19.531,12.24c-51.228,31.459 -88.524,74.8 -124.787,122.038c-52.534,68.315 -52.534,68.315 -80.682,82.389c-7.813,0.7 -7.813,0.7 -16.667,0.781c-4.382,0.089 -4.382,0.089 -8.854,0.179c-7.812,-0.96 -7.812,-0.96 -16.146,-9.293c1.259,-20.764 12.137,-39.766 20.834,-58.334c5.286,15.859 1.205,22.015 -4.167,37.5l0,16.667c28.534,0.62 42.296,-13.678 62.744,-32.389c9.458,-8.796 9.458,-8.796 8.089,-21.778l8.334,0c1.675,-3.738 1.675,-3.738 3.385,-7.552c4.885,-8.999 9.922,-14.772 17.448,-21.614c-2.063,-2.063 -2.063,-2.063 -4.167,-4.167c-6.875,6.875 -13.75,13.75 -20.833,20.833c-2.75,-1.375 -5.5,-2.75 -8.333,-4.166c2.057,-2.911 4.114,-5.823 6.233,-8.822c4.005,-5.688 4.005,-5.688 8.09,-11.491c2.658,-3.77 5.317,-7.541 8.056,-11.426c6.767,-9.417 6.767,-9.417 10.954,-18.261l8.333,-0l0,-8.334l8.334,0c1.031,-3.093 2.062,-6.187 3.125,-9.375c5.644,-12.417 11.5,-19.371 21.875,-28.125l8.333,0c2.062,-6.187 2.062,-6.187 4.167,-12.5c6.89,-4.255 13.849,-8.4 20.833,-12.5c14.202,-10.961 26.814,-21.934 37.76,-36.198c9.897,-11.812 19.117,-15.694 33.073,-22.135c5.587,-3.598 11.141,-7.247 16.667,-10.938c18.302,-11.617 32.942,-16.97 54.167,-9.895Z" style="fill:#333;fill-rule:nonzero;"/><path d="M4158.33,2141.67l4.167,-0c0.099,68.433 0.171,136.866 0.216,205.3c0.021,31.794 0.05,63.589 0.098,95.383c0.361,244.513 0.361,244.513 -1.201,329.46c-0.111,6.472 -0.198,12.945 -0.256,19.418c-0.529,53.217 -9.855,89.666 -47.441,128.531c-3.217,3.105 -6.435,6.209 -9.749,9.408c-3.859,3.754 -3.859,3.754 -7.797,7.584c-58.47,50.046 -148.072,36.257 -218.961,30.827c-3.545,-0.301 -7.09,-0.601 -10.742,-0.911l-0,-4.167c6.875,-1.375 13.75,-2.75 20.833,-4.167l-0,-4.166c6.044,0.163 6.044,0.163 12.211,0.33c15.189,0.382 30.377,0.618 45.569,0.814c6.53,0.104 13.06,0.245 19.588,0.427c52.12,1.417 92.755,-4.099 134.872,-38.03c47.256,-45.715 47.344,-102.042 48.384,-163.774c0.06,-3.683 0.121,-7.366 0.183,-11.161c0.154,-7.747 0.31,-15.495 0.468,-23.243c1.818,-92.894 2.597,-185.806 3.417,-278.714c0.251,-28.384 0.515,-56.768 0.803,-85.152c0.058,-5.806 0.058,-5.806 0.118,-11.729c0.709,-67.468 2.454,-134.853 5.22,-202.268Z" style="fill:#1e2e43;fill-rule:nonzero;"/><path d="M4754.17,4591.67c2.062,8.25 2.062,8.25 4.166,16.666c-17.888,10.222 -29.554,13.188 -50,12.5c0.025,4.023 0.049,8.046 0.074,12.19c0.205,50.911 -0.884,101.762 -2.157,152.654c-0.202,8.309 -0.402,16.618 -0.602,24.927c-0.485,20.077 -0.98,40.153 -1.481,60.229l-4.167,0c-0.043,-2.606 -0.086,-5.213 -0.13,-7.899c-0.452,-27.173 -0.929,-54.345 -1.421,-81.517c-0.181,-10.136 -0.354,-20.272 -0.521,-30.408c-0.241,-14.584 -0.507,-29.167 -0.776,-43.75c-0.07,-4.519 -0.14,-9.038 -0.211,-13.694c-0.4,-20.471 -1.011,-40.115 -5.274,-60.232c-2.885,0.602 -5.769,1.203 -8.741,1.823c-35.081,6.656 -68.195,7.385 -103.759,6.511c-1.375,-4.125 -2.75,-8.25 -4.167,-12.5l-50,-0c-1.375,2.75 -2.75,5.5 -4.167,8.333c-8.333,2.865 -8.333,2.865 -16.666,4.167c-1.375,-1.375 -2.75,-2.75 -4.167,-4.167c-11.127,-0.588 -22.185,-0.177 -33.333,0c0.048,4.098 0.096,8.196 0.146,12.419c0.381,48.749 -1.618,97.246 -4.313,145.914l-4.167,0l0,-158.333c-4.125,-1.375 -8.25,-2.75 -12.5,-4.167c25.13,-8.982 46.898,-13.859 73.649,-12.532c9.719,0.374 9.719,0.374 19.149,-1.985c12.27,-2.32 23.806,-2.885 36.288,-3.175c4.818,-0.131 9.636,-0.262 14.6,-0.396c5.092,-0.133 10.183,-0.265 15.429,-0.401c35.329,-1.117 70.556,-2.37 105.729,-5.99c3.017,-0.276 6.034,-0.552 9.142,-0.837c12.213,-1.399 20.301,-2.614 30.035,-10.393c2.135,-2.949 2.135,-2.949 4.313,-5.957Z" style="fill:#a4a5a5;fill-rule:nonzero;"/><path d="M3983.33,754.167l279.167,-0c2.063,6.187 2.063,6.187 4.167,12.5c27.684,1.661 51.965,-3.631 78.857,-10.173c12.809,-2.327 12.809,-2.327 25.309,1.839l0,8.334c-7.03,1.309 -14.061,2.609 -21.093,3.906c-3.916,0.725 -7.831,1.45 -11.866,2.197c-25.776,4.465 -50.788,7.089 -76.953,7.243c-3.323,0.029 -6.646,0.057 -10.069,0.087c-10.788,0.071 -21.575,0.098 -32.362,0.108c-3.679,0.007 -7.358,0.014 -11.148,0.021c-174.305,0.02 -174.305,0.02 -224.009,-21.896l0,-4.166Z" style="fill:#333;fill-rule:nonzero;"/><path d="M4079.17,7629.17c8.333,4.166 8.333,4.166 10.807,10.693c2.396,14.355 3.116,28.697 3.776,43.213c0.166,3.529 0.332,7.058 0.504,10.694c4.622,104.812 6.548,209.66 5.746,314.566l-16.667,0c-9.203,-199.864 -9.203,-199.864 -9.114,-299.739c-0.003,-3.365 -0.006,-6.729 -0.009,-10.195c0.005,-54.378 0.005,-54.378 4.957,-69.232Z" style="fill:#d9d9da;fill-rule:nonzero;"/><path d="M4412.5,4816.67c-1.375,4.125 -2.75,8.25 -4.167,12.5c-17.048,7.533 -31.488,9.215 -50,8.333l0,12.5c-6.55,-0.073 -6.55,-0.073 -13.232,-0.146c-5.746,-0.04 -11.491,-0.077 -17.236,-0.114c-2.877,-0.035 -5.753,-0.07 -8.716,-0.106c-13.1,-0.063 -23.292,0.358 -35.816,4.533c-9.664,-1.383 -9.664,-1.383 -20.885,-3.847c-23.588,-4.605 -45.974,-5.633 -69.951,-5.447c-6.236,0.003 -6.236,0.003 -12.597,0.006c-8.757,0.012 -17.514,0.045 -26.271,0.097c-13.073,0.075 -26.144,0.085 -39.217,0.084c-50.12,0.09 -100.056,1.448 -150.108,4.056c-13.12,0.676 -26.162,1.096 -39.304,0.884l0,-8.333c-6.832,1.031 -6.832,1.031 -13.802,2.083c-15.365,2.083 -15.365,2.083 -27.865,2.083l0,-8.333l-16.666,-0l-0,-8.333l-20.834,-0l0,-8.334c9.984,0.591 19.966,1.201 29.948,1.823c2.807,0.164 5.613,0.328 8.504,0.497c11.41,0.723 22.532,1.53 33.736,3.869c57.752,11.111 119.88,7.087 178.362,7.083c15.42,0.009 30.84,0.085 46.26,0.164c49.921,0.12 99.525,-0.857 149.317,-4.63c4.279,-0.324 8.558,-0.648 12.967,-0.982c25.463,-2.147 50.388,-5.677 75.515,-10.33c10.875,-1.609 21.084,-1.957 32.058,-1.66Z" style="fill:#333;fill-rule:nonzero;"/><path d="M4020.83,766.667c3.614,0.378 3.614,0.378 7.3,0.765c62.118,6.235 123.797,8.481 186.19,8.61c5.184,0.031 5.184,0.031 10.474,0.063c50.588,0.25 100.002,-3.233 150.203,-9.438c0.107,32.085 0.179,64.171 0.229,96.257c0.021,10.89 0.049,21.78 0.085,32.67c0.378,116.117 0.378,116.117 -4.481,166.906l-4.166,0l-0,-287.5l-16.667,0l-0,8.333c-2.562,0.554 -5.124,1.107 -7.764,1.677c-5.051,1.104 -5.051,1.104 -10.205,2.23c-5.003,1.087 -5.003,1.087 -10.107,2.197c-10.03,2.225 -10.03,2.225 -21.924,6.396c-6.669,-0.975 -13.335,-1.969 -19.987,-3.055c-19.617,-2.374 -39.449,-1.705 -59.18,-1.632c-4.393,-0.016 -8.787,-0.032 -13.313,-0.049c-22.445,0.028 -43.729,1.02 -65.853,4.736c-8.332,0.161 -16.669,0.19 -25,0l-12.5,0c-1.375,-4.125 -2.75,-8.25 -4.167,-12.5c-6.961,1.289 -6.961,1.289 -14.063,2.605c-7.476,0.773 -7.476,0.773 -15.104,1.562c-2.75,-2.75 -5.5,-5.5 -8.333,-8.333c-10.113,-2.831 -10.113,-2.831 -21.354,-4.688c-3.792,-0.698 -7.584,-1.396 -11.491,-2.116c-2.911,-0.505 -5.822,-1.009 -8.822,-1.53l0,-4.166Z" style="fill:#b7b8bb;fill-rule:nonzero;"/><path d="M4437.5,1520.83c68.271,18.133 68.271,18.133 83.333,41.667c0,10.677 0,10.677 -4.166,20.833c-17.604,9.979 -33.91,8.635 -53.386,6.771c-2.887,-0.236 -5.774,-0.472 -8.748,-0.716c-7.07,-0.585 -14.136,-1.23 -21.2,-1.888c-2.75,-6.875 -5.5,-13.75 -8.333,-20.833c-4.726,-0.157 -4.726,-0.157 -9.548,-0.317c-14.353,-0.485 -28.704,-0.995 -43.056,-1.506c-4.958,-0.164 -9.915,-0.328 -15.023,-0.497c-4.807,-0.174 -9.614,-0.349 -14.567,-0.529c-4.408,-0.152 -8.815,-0.305 -13.357,-0.462c-12.821,-0.859 -25.152,-2.697 -37.782,-5.023l-0,-4.166l137.5,-0c2.75,-11 5.5,-22 8.333,-33.334Z" style="fill:#333;fill-rule:nonzero;"/><path d="M4191.67,7633.33l12.5,0c5.541,16.625 4.371,32.341 3.955,49.642c-0.076,3.778 -0.152,7.557 -0.23,11.449c-0.261,12.45 -0.558,24.898 -0.861,37.347c-0.143,6.347 -0.143,6.347 -0.29,12.823c-2.005,87.996 -6.049,175.859 -10.908,263.739l-12.5,0c-0.228,-49.356 0.365,-98.615 1.823,-147.949c0.188,-6.619 0.375,-13.238 0.561,-19.857c0.484,-17.137 0.98,-34.275 1.479,-51.412c0.511,-17.601 1.009,-35.202 1.508,-52.803c0.976,-34.327 1.965,-68.653 2.963,-102.979Z" style="fill:#dcdcdc;fill-rule:nonzero;"/><path d="M4037.5,1525c37.347,2.71 74.345,7.052 111.458,11.979c5.719,0.744 11.439,1.487 17.158,2.227c25.812,3.346 51.612,6.757 77.39,10.355c60.458,8.262 120.5,11.595 181.494,12.939c2.063,10.312 2.063,10.312 4.167,20.833c-30.199,0.728 -59.138,-2.061 -89.063,-5.989c-4.495,-0.562 -8.991,-1.123 -13.623,-1.701c-33.088,-4.234 -33.088,-4.234 -47.314,-8.976c-7.081,-0.88 -14.184,-1.586 -21.294,-2.187c-4.34,-0.377 -8.68,-0.753 -13.151,-1.141c-4.687,-0.395 -9.375,-0.79 -14.204,-1.197c-9.91,-0.877 -19.819,-1.756 -29.729,-2.637c-15.633,-1.375 -31.268,-2.735 -46.906,-4.057c-15.085,-1.282 -30.162,-2.628 -45.24,-3.983c-4.663,-0.378 -9.325,-0.756 -14.128,-1.146c-23.191,-2.133 -41.329,-4.47 -61.182,-16.986c1.375,-2.75 2.75,-5.5 4.167,-8.333Z" style="fill:#333;fill-rule:nonzero;"/><path d="M4075,2337.5c9.485,9.463 12.287,15.15 14.16,28.499c-0.032,4.26 -0.064,8.519 -0.097,12.907c0.032,4.249 0.064,8.497 0.097,12.875c-1.901,14.181 -5.23,22.066 -14.16,33.219c-8.073,2.62 -8.073,2.62 -16.667,2.344c-2.836,0.005 -5.672,0.01 -8.593,0.016c-8.073,-2.36 -8.073,-2.36 -15.251,-8.87c-7.431,-14.18 -7.13,-25.735 -7.145,-41.667c-0.084,-2.801 -0.167,-5.602 -0.253,-8.488c0.014,-13.387 0.387,-20.659 9.595,-30.705c14.063,-6.606 23.607,-4.141 38.314,-0.13Z" style="fill:#e5eff3;fill-rule:nonzero;"/><path d="M4060.68,2104.17c16.042,4.667 18.809,6.737 26.823,20.833c3.404,22.294 3.315,43.104 -6.51,63.542c-14.013,10.06 -22.474,10.048 -39.323,7.291c-10.498,-9.939 -12.416,-16.019 -14.307,-30.468c-0.005,-5.071 -0.011,-10.141 -0.016,-15.365c-0.121,-7.605 -0.121,-7.605 -0.244,-15.365c2.067,-13.802 2.067,-13.802 9.586,-23.958c9.147,-6.51 9.147,-6.51 23.991,-6.51Z" style="fill:#eef7fb;fill-rule:nonzero;"/><path d="M4070.83,2629.17c8.765,6.427 11.836,11.171 16.667,20.833c3.931,46.949 3.931,46.949 -12.5,66.667c-4.167,4.166 -4.167,4.166 -16.146,5.208c-13.021,-1.042 -13.021,-1.042 -20.573,-6.51c-10.382,-14.754 -9.92,-29.149 -10.156,-46.615c-0.107,-4.77 -0.215,-9.539 -0.326,-14.453c1.368,-12.63 1.368,-12.63 6.771,-20.475c11.95,-7.839 22.463,-6.134 36.263,-4.655Z" style="fill:#e4eef4;fill-rule:nonzero;"/><path d="M4691.67,4925l4.166,0c-2.751,63.27 -68.313,123.11 -109.57,167.025c-8.657,9.332 -17.089,18.752 -25.439,28.353c-14.154,16.245 -28.642,32.131 -43.376,47.851c-2.611,2.788 -5.221,5.575 -7.911,8.447c-32.944,34.943 -67.059,68.729 -101.204,102.491c-2.75,-1.375 -5.5,-2.75 -8.333,-4.167c1.375,-4.125 2.75,-8.25 4.167,-12.5c6.187,-2.062 6.187,-2.062 12.5,-4.167c4.193,-5.535 8.362,-11.089 12.5,-16.666l8.333,-0c0.859,-2.321 1.719,-4.641 2.604,-7.032c6.376,-10.723 14.097,-16.593 23.828,-24.202c10.655,-9.675 18.373,-21.225 26.498,-33.04c1.783,-2.165 3.566,-4.33 5.403,-6.56l8.334,0c1.117,-2.664 2.234,-5.328 3.385,-8.073c4.948,-8.593 4.948,-8.593 17.448,-12.76c2.884,-5.501 5.642,-11.069 8.333,-16.667c5.637,-6.75 11.476,-13.336 17.448,-19.791c4.995,-5.463 4.995,-5.463 10.091,-11.035c3.288,-3.578 6.575,-7.155 9.961,-10.84c5.495,-6.053 10.967,-12.127 16.407,-18.229c2.272,-2.525 4.544,-5.049 6.884,-7.65c6.058,-7.685 9.883,-15.38 14.209,-24.121c6.849,-7.039 13.81,-13.969 20.834,-20.834c19.404,-20.375 32.787,-41.84 45.833,-66.666c3.186,-5.657 6.396,-11.301 9.635,-16.927c2.321,-4.039 4.641,-8.079 7.032,-12.24Z" style="fill:#adadad;fill-rule:nonzero;"/><path d="M3437.5,1550c-30.158,16.089 -30.158,16.089 -44.792,18.75c-9.981,1.338 -9.981,1.338 -16.927,9.635c-8.746,8.747 -14.524,12.122 -25.521,17.188c-15.886,7.549 -25.531,16.616 -37.76,29.427c-6.988,5.524 -14.024,10.988 -21.094,16.406c-16.373,12.822 -26.638,24.258 -37.239,41.927l-8.334,0c-1.375,4.125 -2.75,8.25 -4.166,12.5l-8.334,0l0,12.5l-8.333,0c-1.031,2.836 -2.062,5.672 -3.125,8.594c-9.594,22.545 -20.055,41.567 -38.542,58.073c-1.375,-2.75 -2.75,-5.5 -4.166,-8.333c3.418,-6.787 3.418,-6.787 8.854,-14.844c10.093,-15.393 19.074,-31.112 27.767,-47.331c5.293,-9.083 10.727,-17.316 17.545,-25.325l8.334,-0c0.945,-2.922 1.89,-5.844 2.864,-8.854c6.879,-15.068 15.014,-24.845 26.302,-36.98l8.334,0l-0,-8.333c8.382,-6.608 8.382,-6.608 19.531,-14.062c11.178,-7.519 21.939,-14.942 32.308,-23.552c11.692,-9.014 23.401,-15.128 36.702,-21.501c15.063,-6.441 15.063,-6.441 28.125,-15.885c26.786,-4.96 26.786,-4.96 41.667,0Z" style="fill:#333;fill-rule:nonzero;"/><path d="M5115.36,1910.94c3.983,0.027 7.966,0.054 12.069,0.082c48.172,0.867 95.754,7.228 143.399,13.98c4.69,0.662 4.69,0.662 9.475,1.337c6.566,0.932 13.129,1.879 19.692,2.83l0,4.166c-5.309,-0.109 -10.618,-0.218 -16.088,-0.33c-20.042,-0.383 -40.085,-0.618 -60.13,-0.814c-8.61,-0.104 -17.22,-0.245 -25.83,-0.427c-56.105,-1.158 -103.504,3 -156.285,22.405c-8.327,2.796 -16.659,5.581 -25,8.333l-0,-12.5c8.528,-6.25 8.528,-6.25 19.791,-12.5c15.45,-8.456 15.45,-8.456 29.053,-19.434c15.692,-9.205 32.014,-7.393 49.854,-7.129Z" style="fill:#aaa;fill-rule:nonzero;"/><path d="M4195.83,7629.17c12.375,2.062 12.375,2.062 25,4.166c0.522,42.15 -0.791,83.908 -3.323,125.974c-3.526,58.698 -6.233,117.359 -7.751,176.143c-0.684,24.586 -1.97,48.548 -5.592,72.883l-8.334,0c-0.717,-64.935 1.57,-129.654 4.167,-194.531c3.699,-90.205 3.699,-90.205 4.167,-180.469c-2.75,-1.375 -5.5,-2.75 -8.334,-4.166Z" style="fill:#bbb;fill-rule:nonzero;"/><path d="M4358.33,4816.67l0,8.333c-9.11,1.331 -18.226,2.625 -27.343,3.906c-5.076,0.725 -10.152,1.45 -15.381,2.198c-50.318,6.168 -100.677,7.095 -151.286,6.917c-3.05,-0.004 -6.101,-0.008 -9.244,-0.011c-51.777,-0.074 -103.389,-1.551 -155.079,-4.677c12.666,-7.298 21.931,-9.413 36.493,-9.595c3.928,-0.07 7.855,-0.139 11.902,-0.211c6.354,-0.052 6.354,-0.052 12.835,-0.106c4.423,-0.071 8.846,-0.141 13.403,-0.214c14.184,-0.222 28.369,-0.389 42.555,-0.551c18.5,-0.245 37.001,-0.513 55.501,-0.797c6.748,-0.1 6.748,-0.1 13.633,-0.202c29.895,-0.503 59.689,-1.616 89.523,-3.578c27.521,-1.803 54.917,-1.811 82.488,-1.412Z" style="fill:#333;fill-rule:nonzero;"/><path d="M3792.14,1514.47c27.522,3.736 55.145,5.206 82.862,6.886c5.718,0.362 11.437,0.725 17.155,1.091c13.725,0.87 27.451,1.721 41.178,2.555l0,4.167c-11.198,0.115 -22.395,0.196 -33.593,0.26c-3.054,0.035 -6.107,0.07 -9.253,0.106c-19.735,0.083 -39.157,-0.845 -58.83,-2.417c-44.956,-3.17 -89.967,-2.891 -135.016,-2.888c-15.358,-0.009 -30.714,-0.085 -46.071,-0.164c-65.447,-0.158 -126.077,3.038 -189.698,19.735c-10.872,2.034 -10.872,2.034 -23.372,-2.132c6.329,-2.624 12.668,-5.223 19.01,-7.813c3.529,-1.45 7.058,-2.9 10.694,-4.394c24.394,-9.094 47.298,-14.135 73.275,-15.218c4.566,-0.228 4.566,-0.228 9.224,-0.46c9.82,-0.472 19.641,-0.884 29.464,-1.282c3.274,-0.139 6.548,-0.278 9.921,-0.421c20.393,-0.849 40.786,-1.545 61.188,-2.131c6.942,-0.209 13.884,-0.439 20.825,-0.692c41.142,-1.493 80.274,-0.667 121.037,5.212Z" style="fill:#333;fill-rule:nonzero;"/><path d="M4675,4666.67c17.102,17.102 13.169,43.426 13.2,66.227c0.014,3.604 0.028,7.208 0.042,10.922c0.021,7.638 0.031,15.276 0.03,22.915c0.009,11.456 0.084,22.911 0.164,34.368c0.304,91.718 -8.655,156.818 -71.769,228.068c-1.375,-4.125 -2.75,-8.25 -4.167,-12.5c6.152,-9.929 6.152,-9.929 15.104,-21.355c37.357,-49.569 48.749,-87.729 48.21,-149.609c-0.012,-5.132 -0.024,-10.264 -0.036,-15.551c-0.046,-16.301 -0.151,-32.601 -0.257,-48.902c-0.047,-11.089 -0.08,-22.179 -0.114,-33.268c-0.092,-27.106 -0.231,-54.21 -0.407,-81.315Z" style="fill:#d1d1d1;fill-rule:nonzero;"/><path d="M4162.5,7637.5c8.333,12.5 8.333,12.5 8.333,25l8.334,0c-0.277,3.448 -0.554,6.896 -0.839,10.449c-3.24,43.805 -4.383,87.541 -5.186,131.451c-1.251,68.028 -2.859,135.984 -6.475,203.933c2.75,1.375 5.5,2.75 8.333,4.167l-12.5,0c-4.423,-25.157 -4.72,-49.609 -4.557,-75.114c0.015,-4.516 0.03,-9.031 0.045,-13.684c0.274,-57.3 1.359,-114.59 2.429,-171.879c0.202,-11.168 0.402,-22.336 0.602,-33.504c0.484,-26.94 0.978,-53.88 1.481,-80.819Z" style="fill:#d7d7d8;fill-rule:nonzero;"/><path d="M4130.76,7632.52c3.77,0.096 7.541,0.193 11.426,0.293c5.687,0.112 5.687,0.112 11.49,0.227c2.912,0.097 5.823,0.194 8.822,0.293l0,4.167c-2.358,0.553 -4.716,1.106 -7.145,1.676c-4.584,1.104 -4.584,1.104 -9.261,2.23c-4.568,1.088 -4.568,1.088 -9.229,2.198c-7.697,1.558 -7.697,1.558 -11.865,6.396c-0.92,9.356 -1.556,18.739 -2.083,28.125c-0.167,2.887 -0.333,5.774 -0.504,8.748c-2.196,39.083 -3.973,78.19 -5.746,117.294l8.333,-0c-0.136,8.409 -0.271,16.818 -0.407,25.228c-0.12,8.446 -0.12,8.446 4.574,16.438c-1.009,7.637 -2.031,15.273 -3.109,22.901c-1.189,11.726 -1.192,23.125 -1.058,34.912c0.33,34.989 -1.973,69.784 -4.167,104.687l-8.333,0c-0.193,-47.663 -0.341,-95.326 -0.432,-142.99c-0.043,-22.13 -0.102,-44.261 -0.197,-66.391c-0.09,-21.343 -0.14,-42.685 -0.162,-64.028c-0.015,-8.157 -0.045,-16.314 -0.09,-24.471c-0.06,-11.394 -0.069,-22.787 -0.065,-34.181c-0.03,-3.399 -0.06,-6.798 -0.091,-10.299c0.118,-31.881 0.118,-31.881 19.299,-33.453Z" style="fill:#d4d4d5;fill-rule:nonzero;"/><path d="M4720.83,4608.33c-1.375,2.75 -2.75,5.5 -4.166,8.334c-39.677,11.548 -82.972,10.108 -123.959,10.937c-6.597,0.16 -13.194,0.322 -19.791,0.488c-15.972,0.396 -31.944,0.747 -47.917,1.075c-1.375,2.75 -2.75,5.5 -4.167,8.333c-8.333,2.865 -8.333,2.865 -16.666,4.167c-1.375,-1.375 -2.75,-2.75 -4.167,-4.167c-11.127,-0.588 -22.185,-0.177 -33.333,0c0.048,4.098 0.096,8.196 0.146,12.419c0.381,48.749 -1.618,97.246 -4.313,145.914l-4.167,0l0,-158.333c-4.125,-1.375 -8.25,-2.75 -12.5,-4.167c25.13,-8.982 46.898,-13.859 73.649,-12.532c9.703,0.376 9.703,0.376 19.048,-1.976c12.807,-2.41 24.974,-2.972 38,-3.33c5.065,-0.156 10.13,-0.312 15.348,-0.472c5.259,-0.145 10.517,-0.29 15.935,-0.44c37.581,-1.043 75.647,-7.161 113.02,-6.25Z" style="fill:#c3c3c3;fill-rule:nonzero;"/><path d="M4470.83,1608.33l8.334,0c-6.572,19.237 -16.852,34.524 -28.386,51.042c-2.012,2.903 -4.023,5.806 -6.096,8.797c-21.384,30.565 -44.14,60.037 -66.961,89.533c-11.631,15.127 -23.065,30.401 -34.495,45.68c-2.07,2.767 -4.14,5.533 -6.273,8.383c-3.76,5.026 -7.519,10.053 -11.276,15.081c-5.773,7.724 -11.558,15.439 -17.347,23.151c-4.125,-1.375 -8.25,-2.75 -12.5,-4.167c1.527,-1.923 3.054,-3.845 4.628,-5.826c27.385,-34.584 54.456,-69.292 79.487,-105.632c1.852,-2.675 3.704,-5.35 5.612,-8.105c10.317,-15.179 19.099,-30.452 26.94,-47.103l8.333,-0c1.118,-3.782 2.235,-7.563 3.386,-11.459c4.536,-12.416 8.547,-20.566 17.448,-30.208l8.333,0c1.375,-4.125 2.75,-8.25 4.167,-12.5l8.333,0c2.75,-5.5 5.5,-11 8.333,-16.667Z" style="fill:#1a2b41;fill-rule:nonzero;"/><path d="M3454.17,1666.67c-12.579,14.513 -23.205,19.965 -41.667,25l0,-8.334c-22.058,11.72 -40.019,25.046 -58.594,41.667c-13.848,12.309 -27.25,23.902 -42.724,34.163c-11.886,6.944 -11.886,6.944 -18.994,19.222c-7.976,11.964 -14.114,18.177 -25,27.084c-15.678,13.108 -26.065,27.084 -36.67,44.466c-5.322,8.1 -10.93,14.33 -18.018,20.898c-2.75,-1.375 -5.5,-2.75 -8.333,-4.166c2.057,-2.911 4.114,-5.823 6.233,-8.822c4.005,-5.688 4.005,-5.688 8.09,-11.491c2.658,-3.77 5.317,-7.541 8.056,-11.426c6.767,-9.417 6.767,-9.417 10.954,-18.261l8.333,-0l0,-8.334l8.334,0c1.031,-3.093 2.062,-6.187 3.125,-9.375c5.644,-12.417 11.5,-19.371 21.875,-28.125l8.333,0c1.375,-4.125 2.75,-8.25 4.167,-12.5c6.89,-4.255 13.849,-8.4 20.833,-12.5c14.202,-10.961 26.814,-21.934 37.76,-36.198c9.897,-11.812 19.117,-15.694 33.073,-22.135c5.587,-3.598 11.141,-7.247 16.667,-10.938c18.302,-11.617 32.942,-16.97 54.167,-9.895Z" style="fill:#333;fill-rule:nonzero;"/><path d="M4141.67,4279.17l4.166,-0l0,358.333c-148.585,0 -148.585,0 -197.656,-2.083c-5.18,-0.199 -10.361,-0.398 -15.698,-0.603c-12.216,-0.471 -24.431,-0.964 -36.646,-1.481l0,-4.166c119.625,-2.063 119.625,-2.063 241.667,-4.167c1.375,-114.125 2.75,-228.25 4.167,-345.833Z" style="fill:#b6b9bd;fill-rule:nonzero;"/><path d="M4604.17,5041.67c2.062,6.187 2.062,6.187 4.166,12.5c-1.767,1.67 -3.534,3.34 -5.354,5.062c-16.953,16.43 -31.653,33.642 -45.931,52.425c-16.127,21.005 -33.343,41.27 -52.881,59.179l-8.334,0c-1.106,2.423 -2.213,4.845 -3.353,7.341c-14.011,26.237 -37.574,46.41 -59.993,65.397c-6.124,5.258 -11.936,10.878 -17.643,16.585c-6.511,6.511 -6.511,6.511 -10.677,6.511l-0,-20.834c6.187,-2.062 6.187,-2.062 12.5,-4.166c7.129,-6.755 14.052,-13.73 20.833,-20.834c6.785,-7.1 13.699,-14.084 20.833,-20.833l8.334,-0c1.375,-4.125 2.75,-8.25 4.166,-12.5l8.334,-0c1.106,-2.481 2.213,-4.963 3.353,-7.52c5.124,-9.41 10.179,-14.928 18.001,-22.168c11.456,-11.103 21.478,-22.547 31.25,-35.156c22.358,-28.588 47.487,-54.638 72.396,-80.989Z" style="fill:#c0c0c0;fill-rule:nonzero;"/><path d="M4084.29,4841.11c4.311,-0.004 8.622,-0.008 13.063,-0.012c9.045,-0.003 18.089,0.005 27.133,0.022c13.796,0.023 27.591,0.001 41.387,-0.026c8.83,0.003 17.66,0.008 26.49,0.016c4.093,-0.008 8.187,-0.017 12.404,-0.025c21.001,0.071 41.308,0.345 61.896,4.745c2.062,4.125 2.062,4.125 4.166,8.334c-16.893,4.826 -25.909,3.487 -41.666,-4.167c-1.375,2.75 -2.75,5.5 -4.167,8.333c-4.665,-2.102 -4.665,-2.102 -9.424,-4.248c-21.931,-5.752 -42.297,-4.063 -64.795,-2.783c-4.342,0.201 -8.685,0.403 -13.159,0.61c-22.499,1.116 -44.752,2.775 -67.077,5.814c-12.781,0.965 -24.611,-1.459 -37.212,-3.559c-1.375,1.375 -2.75,2.75 -4.166,4.166c-6.943,0.17 -13.892,0.178 -20.834,0l0,-8.333c-4.125,1.375 -8.25,2.75 -12.5,4.167l0,-8.334c29.579,-3.532 58.686,-4.781 88.461,-4.72Z" style="fill:#333;fill-rule:nonzero;"/><path d="M4679.17,4637.5c14.037,14.037 13.029,28.721 13.105,47.9c0.027,4.593 0.053,9.185 0.08,13.916c0.005,4.953 0.01,9.905 0.015,15.007c0.013,5.129 0.027,10.259 0.042,15.544c0.021,10.871 0.03,21.743 0.03,32.615c-0.001,16.505 0.084,33.009 0.164,49.513c0.012,10.585 0.02,21.17 0.024,31.755c0.03,4.885 0.06,9.769 0.091,14.802c-0.231,84.383 -0.231,84.383 -24.766,113.941c-8.996,11.012 -15.27,23.412 -22.119,35.84l-8.333,0c-1.031,3.18 -2.063,6.36 -3.125,9.636c-5.666,12.183 -10.691,16.615 -21.875,23.698c2.45,-15.621 9.242,-23.658 19.531,-35.417c52.972,-65.24 52.716,-136.209 52.16,-216.456c-0.077,-11.553 -0.086,-23.105 -0.085,-34.659c-0.02,-7.414 -0.044,-14.827 -0.073,-22.241c-0.004,-3.42 -0.009,-6.84 -0.014,-10.364c-0.136,-16.436 -1.053,-31.451 -4.852,-47.53c-0.266,-6.679 -0.361,-13.368 -0.261,-20.052c0.038,-3.293 0.075,-6.585 0.114,-9.977c0.049,-2.466 0.097,-4.931 0.147,-7.471Z" style="fill:#c1c2c2;fill-rule:nonzero;"/><path d="M4183.33,7691.67l8.334,-0c0.235,49.351 -0.278,98.639 -1.552,147.974c-0.271,10.628 -0.52,21.256 -0.768,31.884c-1.083,44.286 -3.099,88.439 -6.014,132.642l-8.333,-0c0.451,-33.978 0.92,-67.956 1.414,-101.933c0.229,-15.781 0.451,-31.562 0.658,-47.344c0.201,-15.265 0.419,-30.529 0.649,-45.793c0.084,-5.788 0.162,-11.577 0.233,-17.365c0.42,-33.554 1.687,-66.702 5.379,-100.065Z" style="fill:#b2b2b2;fill-rule:nonzero;"/><path d="M3833.33,4629.17c40.845,-0.227 81.556,0.35 122.38,1.823c5.368,0.185 10.736,0.37 16.267,0.56c14.035,0.484 28.069,0.98 42.104,1.48c14.416,0.51 28.832,1.008 43.248,1.508c28.112,0.975 56.224,1.964 84.335,2.962c-1.375,2.75 -2.75,5.5 -4.167,8.333c-5.376,-0.048 -10.753,-0.096 -16.292,-0.146c-7.156,-0.039 -14.312,-0.077 -21.468,-0.114c-3.532,-0.035 -7.063,-0.07 -10.702,-0.106c-15.722,-0.061 -30.47,0.333 -46.069,2.58c-14.836,2.099 -27.808,1.488 -42.709,0.13c-35.945,-4.208 -35.945,-4.208 -71.354,0.26c-10.534,2.039 -18.041,-1.255 -28.043,-4.524c-15.901,-3.884 -32.168,-4.162 -48.47,-4.981c-10.726,-1.432 -10.726,-1.432 -19.06,-9.765Z" style="fill:#333;fill-rule:nonzero;"/><path d="M4408.07,561.198c3.929,-0.067 7.858,-0.134 11.906,-0.204c5.635,-0.004 5.635,-0.004 11.385,-0.008c3.297,-0.012 6.595,-0.025 9.992,-0.037c10.662,1.913 14.357,5.836 21.144,14.051c-115.296,4.136 -230.472,4.656 -345.833,4.167l-0,-4.167c4.656,-0.083 9.312,-0.165 14.109,-0.25c17.66,-0.323 35.319,-0.691 52.978,-1.072c7.571,-0.158 15.142,-0.303 22.714,-0.436c42.359,-0.75 84.039,-2.663 126.106,-7.798c25.204,-3.044 50.1,-4.339 75.499,-4.246Z" style="fill:#333;fill-rule:nonzero;"/><path d="M3233.33,1716.67c4.167,8.333 4.167,8.333 1.514,16.471c-1.445,3.158 -2.89,6.316 -4.378,9.57c-1.391,3.116 -2.782,6.231 -4.216,9.44c-5.42,10.352 -5.42,10.352 -13.411,22.103c-9.511,14.525 -16.671,29.231 -23.78,45.02c-4.679,10.247 -9.369,20.488 -14.062,30.729c-1.482,3.276 -2.965,6.553 -4.492,9.928c-5.126,8.992 -11.082,11.302 -20.508,15.072c1.747,-17.91 6.554,-29.576 15.951,-44.759c8.881,-17.111 14.19,-35.67 20.117,-53.971c5.718,-14.062 11.833,-23.633 22.265,-34.603l8.334,-0c1.203,-2.578 2.406,-5.157 3.646,-7.813c4.687,-8.854 4.687,-8.854 13.02,-17.187Z" style="fill:#333;fill-rule:nonzero;"/><path d="M5087.5,1950c-12.674,13.711 -27.595,20.306 -44.271,28.125c-26.821,13.041 -50.045,26.913 -72.396,46.875c-3.91,3.464 -7.82,6.929 -11.849,10.498c-17.303,15.55 -34.314,31.27 -50.651,47.835c0,-14.514 1.877,-16.184 11.198,-26.562c3.457,-3.851 3.457,-3.851 6.983,-7.78c96.663,-103.815 96.663,-103.815 160.986,-98.991Z" style="fill:#8f8f8f;fill-rule:nonzero;"/><path d="M4454.17,4641.67l-0,8.333c-11.539,3.077 -21.106,4.238 -33.024,4.02c-49.457,-2.581 -49.457,-2.581 -96.143,8.48l0,-8.333c-5.07,0.687 -10.141,1.375 -15.365,2.083c-13.06,1.661 -25.636,2.083 -38.802,2.083c-4.125,1.375 -8.25,2.75 -12.5,4.167c-10.016,-1.014 -20.001,-2.355 -29.948,-3.906c-5.301,-0.811 -10.602,-1.622 -16.064,-2.458c-4.066,-0.65 -8.132,-1.3 -12.321,-1.969l0,-8.334c30.17,-0.598 60.34,-1.191 90.51,-1.78c10.253,-0.201 20.505,-0.403 30.758,-0.606c14.78,-0.293 29.56,-0.581 44.341,-0.869c6.818,-0.137 6.818,-0.137 13.775,-0.276c24.933,-0.48 49.844,-0.727 74.783,-0.635Z" style="fill:#333;fill-rule:nonzero;"/><path d="M4233.33,1558.33c63.992,-0.65 127.74,1.331 191.667,4.167c2.063,10.313 2.063,10.313 4.167,20.833c-30.199,0.728 -59.138,-2.061 -89.063,-5.989c-6.743,-0.842 -6.743,-0.842 -13.623,-1.701c-33.088,-4.234 -33.088,-4.234 -47.314,-8.976c-7.884,-0.924 -15.787,-1.693 -23.698,-2.344c-4.141,-0.349 -8.282,-0.698 -12.549,-1.058c-4.745,-0.379 -4.745,-0.379 -9.587,-0.765l0,-4.167Z" style="fill:#333;fill-rule:nonzero;"/><path d="M3983.33,754.167c51.607,-0.278 103.106,0.51 154.688,2.083c6.885,0.202 13.769,0.402 20.654,0.602c16.553,0.483 33.106,0.978 49.658,1.481l0,8.334c-193.828,8.28 -193.828,8.28 -225,-12.5Z" style="fill:#333;fill-rule:nonzero;"/><path d="M4075,7800l4.167,0c4.576,69.467 4.619,138.756 4.166,208.333l-12.5,0c-2.618,-48.648 -4.903,-97.1 -4.166,-145.833l4.166,0c1.375,-20.625 2.75,-41.25 4.167,-62.5Z" style="fill:#bbbcbc;fill-rule:nonzero;"/><path d="M3862.5,2150c17.649,-0.103 35.298,-0.179 52.948,-0.229c6.006,-0.021 12.012,-0.049 18.018,-0.085c8.625,-0.051 17.251,-0.074 25.876,-0.093c5.194,-0.022 10.387,-0.044 15.737,-0.066c12.421,0.473 12.421,0.473 20.754,4.64l0,12.5l-133.333,-0l0,-16.667Z" style="fill:#cad6e0;fill-rule:nonzero;"/><path d="M4612.5,5029.17c0,12.5 0,12.5 -5.355,18.017c-2.444,1.875 -4.888,3.749 -7.405,5.681c-17.318,14.178 -31.171,30.062 -45.573,47.135c-4.022,4.696 -8.048,9.389 -12.077,14.079c-8.533,9.931 -17.058,19.869 -25.57,29.817c-2.027,2.364 -4.055,4.728 -6.144,7.163c-4.25,4.979 -8.475,9.979 -12.679,14.996c-11.528,13.687 -23.047,26.266 -36.76,37.851c-4.302,3.666 -4.302,3.666 -8.691,7.406c-3.174,2.65 -3.174,2.65 -6.413,5.355c0,-15.114 2.472,-16.613 12.647,-27.132c2.688,-2.818 5.376,-5.635 8.146,-8.537c2.849,-2.925 5.699,-5.849 8.634,-8.863c5.524,-5.74 11.041,-11.485 16.553,-17.236c2.748,-2.865 5.496,-5.73 8.327,-8.681c10.585,-11.263 20.74,-22.862 30.857,-34.545c11.383,-13.139 23.106,-25.969 34.774,-38.854c11.09,-12.4 21.851,-25.063 32.52,-37.826c5.876,-5.826 5.876,-5.826 14.209,-5.826Z" style="fill:#d1d1d1;fill-rule:nonzero;"/><path d="M4055.99,2640.62c5.285,0.516 5.285,0.516 10.677,1.042c8.638,12.957 9.474,16.213 9.375,30.989c0.021,3.175 0.043,6.349 0.065,9.619c-1.212,10.285 -4.316,17.132 -9.44,26.058c-10.157,-1.562 -10.157,-1.562 -20.834,-4.166c-5.719,-11.438 -4.718,-20.847 -4.687,-33.594c-0.011,-4.517 -0.022,-9.034 -0.033,-13.688c0.742,-14.81 0.742,-14.81 14.877,-16.26Z" style="fill:#354860;fill-rule:nonzero;"/><path d="M4058.33,2950l0,8.333c-59.659,22.988 -129.222,13.632 -191.666,8.334l-0,-4.167c6.875,-1.375 13.75,-2.75 20.833,-4.167l0,-4.166c4.226,0.021 8.452,0.043 12.806,0.066c15.678,0.075 31.356,0.123 47.034,0.163c6.786,0.021 13.571,0.049 20.357,0.085c9.753,0.051 19.506,0.074 29.259,0.093c3.035,0.021 6.069,0.043 9.195,0.065c18.237,0.002 34.12,-4.639 52.182,-4.639Z" style="fill:#162439;fill-rule:nonzero;"/><path d="M4050,2345.83c12.227,1.529 16.102,3.602 25,12.5c1.107,10.547 1.107,10.547 1.042,22.917c0.021,4.082 0.043,8.164 0.065,12.37c-1.107,10.547 -1.107,10.547 -9.44,18.88c-18.982,-2.315 -18.982,-2.315 -25,-8.333c-0.522,-8.234 -0.733,-16.489 -0.782,-24.74c-0.059,-4.506 -0.118,-9.013 -0.179,-13.656c0.961,-11.604 0.961,-11.604 9.294,-19.938Z" style="fill:#354961;fill-rule:nonzero;"/><path d="M4050,2116.67c12.227,1.528 16.102,3.601 25,12.5c1.107,9.489 1.107,9.489 1.042,20.573c0.021,3.647 0.043,7.294 0.065,11.051c-1.107,10.042 -1.107,10.042 -9.44,22.542c-10.157,-1.562 -10.157,-1.562 -20.834,-4.166c-5.42,-10.841 -4.868,-19.154 -4.948,-31.25c-0.059,-4.082 -0.118,-8.164 -0.179,-12.37c0.961,-10.547 0.961,-10.547 9.294,-18.88Z" style="fill:#2f445d;fill-rule:nonzero;"/><path d="M5115.36,1910.94c3.983,0.027 7.966,0.054 12.069,0.082c48.172,0.867 95.754,7.228 143.399,13.98c4.69,0.662 4.69,0.662 9.475,1.337c6.566,0.932 13.129,1.879 19.692,2.83l0,4.166c-14.151,-0.581 -28.299,-1.199 -42.448,-1.823c-3.999,-0.163 -7.997,-0.327 -12.117,-0.496c-3.881,-0.175 -7.762,-0.349 -11.76,-0.529c-3.557,-0.153 -7.113,-0.305 -10.778,-0.463c-10.397,-0.855 -10.397,-0.855 -21.028,-2.986c-9.616,-1.919 -18.164,-2.574 -27.943,-2.589c-3.274,-0.008 -6.548,-0.016 -9.921,-0.024c-5.128,0.028 -5.128,0.028 -10.359,0.056c-5.269,0.008 -5.269,0.008 -10.644,0.015c-22.94,0.144 -45.497,1.289 -68.279,4.168c-8.056,0.505 -8.056,0.505 -16.39,-3.662c16.118,-17.066 35.196,-14.386 57.032,-14.062Z" style="fill:#bcbcbc;fill-rule:nonzero;"/><rect x="3862.5" y="2679.17" width="137.5" height="12.5" style="fill:#e6f2f9;fill-rule:nonzero;"/><path d="M5325,1933.33c11.354,-1.571 11.354,-1.571 20.833,-4.166c-6.233,10.319 -6.233,10.319 -16.666,20.833c-12.118,1.704 -21.588,2.185 -33.594,1.563c-4.701,-0.125 -4.701,-0.125 -9.496,-0.253c-24.599,-0.778 -49.142,-2.521 -73.577,-5.477c6.675,-7.936 10.585,-12.072 20.856,-14.367c3.118,-0.136 6.237,-0.272 9.45,-0.411c3.437,-0.167 6.875,-0.333 10.417,-0.505c3.577,-0.113 7.154,-0.225 10.84,-0.342c3.544,-0.177 7.089,-0.354 10.742,-0.537c17.562,-0.738 32.988,-0.388 50.195,3.662Z" style="fill:#9e9e9e;fill-rule:nonzero;"/><rect x="3862.5" y="2379.17" width="133.333" height="12.5" style="fill:#dae6f0;fill-rule:nonzero;"/><path d="M4437.5,1520.83c12.375,4.125 24.75,8.25 37.5,12.5c-8.25,4.125 -8.25,4.125 -16.667,8.334c-3.81,6.453 -3.81,6.453 -7.698,13.037c-8.267,10.39 -12.301,11.849 -25.714,13.67c-15.95,-0.033 -31.668,-0.836 -47.577,-1.968c-5.46,-0.276 -10.92,-0.553 -16.545,-0.838c-23.351,-1.271 -46.104,-3.063 -69.132,-7.235l-0,-4.166l137.5,-0c2.75,-11 5.5,-22 8.333,-33.334Z" style="fill:#333;fill-rule:nonzero;"/><path d="M4412.5,4816.67c-1.375,4.125 -2.75,8.25 -4.167,12.5c-36.651,16.225 -76.602,13.345 -115.625,11.198c-5.794,-0.265 -11.588,-0.523 -17.382,-0.774c-14.002,-0.632 -27.997,-1.33 -41.993,-2.091l0,-4.167c3.02,-0.208 6.04,-0.417 9.152,-0.632c13.965,-0.98 27.927,-1.997 41.89,-3.014c4.748,-0.327 9.496,-0.655 14.388,-0.992c27.675,-2.045 54.668,-5.233 81.946,-10.37c10.783,-1.632 20.905,-1.951 31.791,-1.658Z" style="fill:#333;fill-rule:nonzero;"/><path d="M4162.5,7637.5c8.333,12.5 8.333,12.5 8.333,25l8.334,0c-0.274,3.379 -0.548,6.758 -0.829,10.239c-3.711,49.936 -4.71,99.864 -5.682,149.917c-0.18,8.749 -0.362,17.497 -0.545,26.245c-0.441,21.2 -0.864,42.399 -1.278,63.599l-4.166,0c-1.375,-90.75 -2.75,-181.5 -4.167,-275Z" style="fill:#ccc;fill-rule:nonzero;"/><path d="M3845.83,4820.83c9.984,0.591 19.966,1.201 29.948,1.823c2.807,0.164 5.613,0.328 8.504,0.497c11.614,0.736 22.919,1.618 34.335,3.93c14.982,2.96 29.953,3.597 45.182,4.427c3.086,0.18 6.171,0.36 9.351,0.546c7.559,0.439 15.12,0.86 22.68,1.277l0,4.167c-16.405,1.397 -32.812,2.783 -49.218,4.167c-4.665,0.397 -9.33,0.795 -14.136,1.204c-4.472,0.376 -8.943,0.752 -13.55,1.139c-4.124,0.35 -8.248,0.699 -12.497,1.058c-7.684,0.555 -15.395,0.765 -23.099,0.765l0,-8.333l-16.666,-0l-0,-8.333l-20.834,-0l0,-8.334Z" style="fill:#333;fill-rule:nonzero;"/><path d="M4195.83,4837.5l158.334,0c2.062,6.188 2.062,6.188 4.166,12.5c-4.366,-0.048 -8.733,-0.097 -13.232,-0.146c-5.746,-0.04 -11.491,-0.077 -17.236,-0.114c-2.877,-0.035 -5.753,-0.07 -8.716,-0.106c-13.1,-0.063 -23.292,0.358 -35.816,4.533c-9.451,-0.675 -9.451,-0.675 -20.361,-2.328c-5.861,-0.866 -5.861,-0.866 -11.841,-1.749c-4.068,-0.632 -8.137,-1.263 -12.329,-1.913c-4.117,-0.615 -8.234,-1.23 -12.476,-1.864c-10.168,-1.522 -20.332,-3.072 -30.493,-4.646l0,-4.167Z" style="fill:#333;fill-rule:nonzero;"/><path d="M5129.17,1904.17c2.75,-1.375 5.5,-2.75 8.333,-4.167c10.172,-0.062 20.07,0.187 30.208,0.781c4.415,0.258 4.415,0.258 8.92,0.52c29.997,2.253 57.355,9.953 85.872,19.532l0,4.167c-7.379,-0.605 -14.757,-1.214 -22.135,-1.823c-4.63,-0.376 -9.26,-0.752 -14.03,-1.139c-8.104,-0.706 -16.203,-1.478 -24.284,-2.409c-40.795,-4.591 -81.895,-3.333 -122.884,-2.962c8.333,-12.5 8.333,-12.5 20.312,-15.625c11.745,-0.94 18.631,-0.034 29.688,3.125Z" style="fill:#cdcdcd;fill-rule:nonzero;"/><path d="M4053.65,5345.23c4.227,-0.027 8.454,-0.053 12.809,-0.08c4.579,-0.005 9.158,-0.01 13.876,-0.015c4.685,-0.013 9.37,-0.027 14.197,-0.042c9.919,-0.021 19.839,-0.03 29.758,-0.03c15.226,-0.009 30.451,-0.085 45.677,-0.164c9.619,-0.012 19.238,-0.02 28.857,-0.024c6.869,-0.045 6.869,-0.045 13.876,-0.091c4.227,0.013 8.454,0.026 12.809,0.039c5.597,-0.009 5.597,-0.009 11.307,-0.018c9.013,1.03 9.013,1.03 17.347,9.364c-31.297,0.805 -62.594,1.544 -93.893,2.238c-10.654,0.243 -21.308,0.502 -31.962,0.777c-15.285,0.391 -30.571,0.728 -45.858,1.054c-4.787,0.134 -9.574,0.268 -14.507,0.406c-4.421,0.084 -8.841,0.168 -13.396,0.255c-3.904,0.092 -7.809,0.185 -11.832,0.28c-9.386,-0.844 -9.386,-0.844 -17.719,-9.177c10.289,-5.145 17.147,-4.723 28.654,-4.772Z" style="fill:#acacac;fill-rule:nonzero;"/><path d="M3957.29,557.552c5.124,-0.089 5.124,-0.089 10.351,-0.179c11.524,0.96 11.524,0.96 23.975,4.883c23.523,7.191 48.306,7.474 72.705,9.098c7.553,0.54 7.553,0.54 15.259,1.091c12.36,0.879 24.721,1.73 37.085,2.555l-0,4.167c-32.608,0.619 -65.082,-0.412 -97.657,-1.823c-3.996,-0.164 -7.993,-0.327 -12.111,-0.496c-5.727,-0.262 -5.727,-0.262 -11.57,-0.53c-3.413,-0.152 -6.826,-0.305 -10.343,-0.462c-9.986,-0.856 -9.986,-0.856 -20.973,-3.412c-13.656,-2.234 -19.403,3.575 -30.68,10.889c-2.75,-1.375 -5.5,-2.75 -8.333,-4.166l0,-16.667c11.935,-3.978 19.873,-4.851 32.292,-4.948Z" style="fill:#333;fill-rule:nonzero;"/><path d="M4126.07,766.618c5.244,0.194 10.489,0.387 15.892,0.587c5.629,0.253 11.259,0.508 16.888,0.764c5.689,0.228 11.378,0.452 17.068,0.674c39.997,1.603 79.975,3.605 119.911,6.357l0,4.167c-22.973,0.103 -45.945,0.179 -68.919,0.229c-7.798,0.02 -15.597,0.049 -23.396,0.085c-11.275,0.051 -22.549,0.074 -33.824,0.093c-3.431,0.021 -6.861,0.043 -10.396,0.065c-24.153,0.002 -47.812,-1.841 -71.798,-4.639c15.005,-10.003 20.835,-9.102 38.574,-8.382Z" style="fill:#333;fill-rule:nonzero;"/><path d="M4200,7837.5l4.167,0c3.666,31.625 4.62,62.983 4.687,94.792c0.019,3.693 0.038,7.387 0.057,11.192c-0.049,21.992 -1.556,43.088 -4.744,64.849l-8.334,0c-0.593,-57.078 1.122,-113.836 4.167,-170.833Z" style="fill:#c3c4c4;fill-rule:nonzero;"/><path d="M4492.45,4628.91c3.123,0.019 6.246,0.038 9.464,0.057c7.696,0.049 15.392,0.124 23.088,0.204c-4.167,8.333 -4.167,8.333 -12.5,11.198c-2.75,0.429 -5.5,0.859 -8.333,1.302c-1.375,-1.375 -2.75,-2.75 -4.167,-4.167c-11.127,-0.588 -22.185,-0.177 -33.333,0c0.048,4.098 0.096,8.196 0.146,12.419c0.381,48.749 -1.618,97.246 -4.313,145.914l-4.167,0l0,-158.333c-4.125,-1.375 -8.25,-2.75 -12.5,-4.167c15.68,-5.226 30.301,-4.612 46.615,-4.427Z" style="fill:#333;fill-rule:nonzero;"/><path d="M4550,4625c14.41,-0.123 28.819,-0.196 43.229,-0.26c4.023,-0.035 8.046,-0.07 12.191,-0.106c26.239,-0.088 51.865,1.362 77.913,4.533c-24.121,12.685 -47.615,13.098 -74.479,12.76c-4.302,-0.028 -4.302,-0.028 -8.691,-0.057c-6.999,-0.048 -13.998,-0.123 -20.996,-0.203c-1.375,-4.125 -2.75,-8.25 -4.167,-12.5l-25,-0l0,-4.167Z" style="fill:#a9a9a9;fill-rule:nonzero;"/><path d="M4291.67,1854.17l8.333,-0c-6.03,18.022 -15.762,31.278 -27.604,45.833c-18.595,23.355 -34.169,47.554 -49.089,73.389c-2.191,3.281 -4.383,6.563 -6.64,9.944l-8.334,0c6.043,-22.459 16.684,-38.855 29.948,-57.552c2.046,-2.922 4.092,-5.844 6.2,-8.854c35.76,-50.769 35.76,-50.769 47.186,-62.76Z" style="fill:#1c2c41;fill-rule:nonzero;"/><path d="M4158.33,2116.67c10.67,16.022 9.397,32.603 9.147,51.106c-0.011,3.306 -0.023,6.612 -0.035,10.018c-0.047,10.529 -0.151,21.056 -0.257,31.584c-0.042,7.151 -0.08,14.301 -0.114,21.452c-0.092,17.503 -0.236,35.004 -0.407,52.506c-14.247,-14.895 -14.013,-26.74 -13.868,-46.875c0.008,-2.896 0.016,-5.792 0.024,-8.777c0.028,-6.107 0.086,-12.215 0.172,-18.322c0.13,-9.327 0.171,-18.651 0.195,-27.979c0.318,-49.395 0.318,-49.395 5.143,-64.713Z" style="fill:#34445a;fill-rule:nonzero;"/><path d="M4075,2108.33c10.045,9.747 12.357,15.196 13.721,29.232c-0.145,4.447 -0.29,8.895 -0.44,13.477c-0.113,4.49 -0.225,8.98 -0.342,13.606c-0.145,3.416 -0.29,6.832 -0.439,10.352l-4.167,0c-0.343,-4.297 -0.687,-8.594 -1.041,-13.021c-3.553,-18.353 -8.719,-26.5 -19.792,-41.146c-5.5,1.375 -11,2.75 -16.667,4.167c-1.375,12.375 -2.75,24.75 -4.166,37.5l-4.167,0l0,-33.333l-8.333,-0c9.672,-26.944 17.999,-27.182 45.833,-20.834Z" style="fill:#dfe9ee;fill-rule:nonzero;"/><path d="M4454.17,4795.83c3.336,6.999 3.336,6.999 4.166,16.667c-8.414,10.449 -8.414,10.449 -20.052,21.354c-3.808,3.62 -7.616,7.24 -11.539,10.97c-3.325,3.083 -6.65,6.166 -10.075,9.343c-2.75,2.75 -5.5,5.5 -8.334,8.333c-0.521,-31.771 -0.521,-31.771 4.167,-45.833c8.464,-4.72 8.464,-4.72 18.75,-8.855c12.431,-4.481 12.431,-4.481 22.917,-11.979Z" style="fill:#333;fill-rule:nonzero;"/><path d="M5140.85,1932.78c4.753,-0.005 9.507,-0.011 14.404,-0.016c7.453,0.024 7.453,0.024 15.056,0.049c4.936,-0.017 9.872,-0.033 14.957,-0.049c7.146,0.008 7.146,0.008 14.437,0.016c4.35,0.005 8.7,0.009 13.182,0.014c11.43,0.509 21.817,2.126 32.944,4.706l0,4.167c-5.006,0.156 -5.006,0.156 -10.114,0.316c-15.292,0.487 -30.584,0.997 -45.875,1.507c-5.25,0.163 -10.501,0.327 -15.91,0.496c-27.638,0.938 -54.838,2.462 -82.267,6.014c14.915,-16.336 27.686,-17.197 49.186,-17.22Z" style="fill:#8b8c8c;fill-rule:nonzero;"/><path d="M4116.67,7804.17l8.333,-0c-0.136,8.409 -0.271,16.818 -0.407,25.228c-0.12,8.446 -0.12,8.446 4.574,16.438c-1.007,7.621 -2.028,15.241 -3.109,22.852c-1.211,11.996 -1.192,23.685 -1.058,35.742c0.288,30.637 -1.802,60.875 -4.167,91.406l-4.166,0l-0,-191.666Z" style="fill:#dbdddd;fill-rule:nonzero;"/><path d="M4041.67,7612.5c49.5,2.75 99,5.5 150,8.333l-0,4.167l-104.167,0c-7.422,14.845 -9.43,20.1 -10.059,35.612c-0.241,5.277 -0.241,5.277 -0.488,10.661c-0.193,5.454 -0.193,5.454 -0.39,11.019c-0.242,5.551 -0.242,5.551 -0.489,11.214c-0.392,9.108 -0.748,18.216 -1.074,27.327l-4.167,0l0,-95.833c-9.625,-2.75 -19.25,-5.5 -29.166,-8.333l-0,-4.167Z" style="fill:#c0c1c1;fill-rule:nonzero;"/><path d="M3741.67,2933.33c13.284,1.944 25.69,4.379 38.541,8.334c12.891,3.437 23.811,5.156 36.98,6.25c15.128,1.268 27.39,3.539 41.145,10.416l0,4.167c-38.412,2.046 -73.327,0.895 -108.333,-16.667c-2.75,-4.125 -5.5,-8.25 -8.333,-12.5Z" style="fill:#283345;fill-rule:nonzero;"/><path d="M4732.29,1589.84c17.135,2.306 30.903,7.714 46.875,14.323c-5.5,1.375 -11,2.75 -16.667,4.166l0,8.334c-21.749,0.75 -37.803,-0.121 -58.333,-8.334c8.988,-11.062 13.812,-16.212 28.125,-18.489Z" style="fill:#c5c5c5;fill-rule:nonzero;"/><path d="M4370.83,770.833c-6.875,1.375 -13.75,2.75 -20.833,4.167l0,8.333l-170.833,0l-0,-4.166c4.81,-0.124 4.81,-0.124 9.717,-0.251c79.651,-1.734 79.651,-1.734 158.658,-10.98c10.791,-1.269 10.791,-1.269 23.291,2.897Z" style="fill:#333;fill-rule:nonzero;"/><path d="M3833.33,4808.33c4.233,0.602 8.465,1.203 12.826,1.823c31.371,4.288 61.655,7.176 93.392,6.527c12.162,-0.019 23.582,1.513 35.449,4.15c-8.333,8.334 -8.333,8.334 -19.564,9.44c-95.762,-0.436 -95.762,-0.436 -122.103,-13.606l0,-8.334Z" style="fill:#333;fill-rule:nonzero;"/><path d="M3833.33,4629.17c86.124,-1.072 86.124,-1.072 116.667,4.166c1.375,2.75 2.75,5.5 4.167,8.334c-25.213,7.962 -36.92,8.1 -62.5,-0c-13.09,-1.264 -26.141,-2.076 -39.274,-2.735c-10.726,-1.432 -10.726,-1.432 -19.06,-9.765Z" style="fill:#333;fill-rule:nonzero;"/><path d="M3994.27,4820.57c5.108,0.056 5.108,0.056 10.319,0.114c3.915,0.072 3.915,0.072 7.91,0.146c1.375,2.75 2.75,5.5 4.167,8.334c24.75,1.375 49.5,2.75 75,4.166l-0,4.167c-54.358,0.464 -108.295,0.239 -162.5,-4.167l-0,-4.166c3.915,-0.379 3.915,-0.379 7.91,-0.765c5.108,-0.524 5.108,-0.524 10.319,-1.058c3.384,-0.339 6.767,-0.677 10.254,-1.026c13.397,-1.958 22.537,-5.946 36.621,-5.745Z" style="fill:#333;fill-rule:nonzero;"/><path d="M4200,4645.83l154.167,0l-0,4.167c-2.481,0.083 -4.962,0.165 -7.518,0.25c-11.211,0.397 -22.419,0.854 -33.628,1.313c-3.905,0.128 -7.81,0.257 -11.833,0.39c-3.733,0.161 -7.466,0.322 -11.312,0.488c-3.447,0.131 -6.895,0.262 -10.447,0.397c-9.512,0.604 -9.512,0.604 -16.929,9.662c-8.386,-1.023 -16.716,-2.51 -25,-4.167c-6.764,-0.838 -13.535,-1.618 -20.313,-2.343c-3.254,-0.35 -6.509,-0.699 -9.863,-1.058c-2.417,-0.253 -4.834,-0.505 -7.324,-0.765l-0,-8.334Z" style="fill:#333;fill-rule:nonzero;"/><rect x="3862.5" y="2637.5" width="62.5" height="16.667" style="fill:#c2cfdc;fill-rule:nonzero;"/><rect x="3862.5" y="2329.17" width="62.5" height="16.667" style="fill:#b2c1cf;fill-rule:nonzero;"/><path d="M4037.5,1525c7.902,0.479 15.801,1.01 23.698,1.563c4.399,0.29 8.798,0.58 13.33,0.878c12.584,1.674 22.309,4.812 33.805,10.059l0,8.333c-52.79,2.307 -52.79,2.307 -75,-12.5c1.375,-2.75 2.75,-5.5 4.167,-8.333Z" style="fill:#333;fill-rule:nonzero;"/><path d="M4041.67,4845.83l158.333,0l0,4.167c-2.833,0.104 -5.666,0.209 -8.585,0.316c-13.024,0.488 -26.048,0.998 -39.071,1.507c-4.456,0.164 -8.911,0.328 -13.501,0.496c-20.128,0.801 -40.06,1.792 -60.067,4.191c-14.145,1.585 -23.603,1.578 -37.109,-2.343l-0,-8.334Z" style="fill:#333;fill-rule:nonzero;"/><path d="M4437.5,545.833c12.045,5.4 20.693,10.643 29.167,20.834c1.09,12.257 1.453,23.614 1.22,35.856c-0.017,3.496 -0.035,6.993 -0.053,10.596c-0.07,11.166 -0.227,22.33 -0.386,33.496c-0.063,7.571 -0.12,15.142 -0.171,22.713c-0.138,18.558 -0.354,37.115 -0.61,55.672l-4.167,0c-1.375,-50.875 -2.75,-101.75 -4.167,-154.167c-10.312,-4.125 -10.312,-4.125 -20.833,-8.333l0,-16.667Z" style="fill:#333;fill-rule:nonzero;"/><path d="M4358.33,4816.67l0,8.333c-11.881,3.393 -22.359,4.662 -34.7,4.574c-3.33,-0.014 -6.66,-0.027 -10.091,-0.041c-3.438,-0.035 -6.875,-0.07 -10.417,-0.106c-3.502,-0.019 -7.004,-0.038 -10.612,-0.057c-8.616,-0.049 -17.231,-0.124 -25.846,-0.203l-0,-8.334c30.573,-4.891 60.757,-4.557 91.666,-4.166Z" style="fill:#333;fill-rule:nonzero;"/><path d="M4396.52,1561.69c5.076,0.145 5.076,0.145 10.254,0.293c5.108,0.113 5.108,0.113 10.319,0.228c3.915,0.145 3.915,0.145 7.91,0.293c1.375,6.875 2.75,13.75 4.167,20.833c-5.986,0.339 -11.977,0.581 -17.969,0.782c-5.003,0.217 -5.003,0.217 -10.108,0.439c-11.417,-1.479 -14.805,-4.944 -21.923,-13.721c8.333,-8.333 8.333,-8.333 17.35,-9.147Z" style="fill:#333;fill-rule:nonzero;"/><path d="M3539.06,1520.57c7.782,0.056 7.782,0.056 15.722,0.114c5.882,0.072 5.882,0.072 11.882,0.146l-0,4.167c-5.825,0.685 -5.825,0.685 -11.768,1.383c-32.009,3.981 -62.754,9.209 -94.027,17.416c-10.872,2.034 -10.872,2.034 -23.372,-2.132c7.107,-2.719 14.228,-5.403 21.354,-8.073c3.964,-1.499 7.928,-2.997 12.012,-4.541c22.922,-7.452 44.179,-8.707 68.197,-8.48Z" style="fill:#333;fill-rule:nonzero;"/><path d="M4136.98,7628.39c5.146,-0.059 10.291,-0.118 15.593,-0.179c14.095,0.961 14.095,0.961 30.761,9.294l0,37.5c-1.375,-4.125 -2.75,-8.25 -4.166,-12.5l-8.334,0c-2.75,-8.25 -5.5,-16.5 -8.333,-25c-8.068,-0.45 -16.143,-0.773 -24.219,-1.042c-4.495,-0.193 -8.991,-0.386 -13.623,-0.586c-12.661,0.39 -12.661,0.39 -20.019,10.026c-1.531,2.729 -3.062,5.457 -4.639,8.269l-0,-20.834c12.256,-6.127 23.343,-4.877 36.979,-4.948Z" style="fill:#b7b8b8;fill-rule:nonzero;"/><path d="M3529.17,1691.67l-0,4.166c-3.078,0.156 -6.156,0.312 -9.327,0.472c-26.77,1.735 -50.982,5.636 -76.611,13.607c-9.896,2.588 -9.896,2.588 -26.562,2.588c1.375,-4.125 2.75,-8.25 4.166,-12.5c71.454,-15.691 71.454,-15.691 108.334,-8.333Z" style="fill:#333;fill-rule:nonzero;"/><path d="M3320.83,1595.83c2.75,1.375 5.5,2.75 8.334,4.167c-4.125,1.375 -8.25,2.75 -12.5,4.167c-1.805,3.738 -1.805,3.738 -3.646,7.552c-7.334,14.261 -19.091,22.963 -33.692,29.362c-10.381,5.807 -15.183,12.281 -22.037,21.94c-2.17,3.018 -4.34,6.037 -6.576,9.147c-1.611,2.31 -3.223,4.619 -4.883,6.999c0,-14.843 3.172,-18.38 11.979,-29.948c2.224,-2.981 4.448,-5.962 6.739,-9.033c2.073,-2.262 4.146,-4.523 6.282,-6.853l8.334,0l-0,-8.333c9.114,-7.194 9.114,-7.194 20.833,-15.104c3.867,-2.632 7.734,-5.264 11.719,-7.975c3.008,-2.009 6.015,-4.018 9.114,-6.088Z" style="fill:#333;fill-rule:nonzero;"/><rect x="3862.5" y="2512.5" width="66.667" height="12.5" style="fill:#e5eff9;fill-rule:nonzero;"/><rect x="3862.5" y="2420.83" width="66.667" height="12.5" style="fill:#cddae7;fill-rule:nonzero;"/><rect x="3862.5" y="2287.5" width="66.667" height="12.5" style="fill:#c2d0de;fill-rule:nonzero;"/><path d="M3837.5,2950c7.468,0.475 14.933,1.006 22.396,1.563c6.236,0.435 6.236,0.435 12.597,0.878c10.84,1.726 10.84,1.726 19.174,10.059c9.177,1.917 9.177,1.917 19.271,2.604c3.405,0.312 6.81,0.623 10.319,0.944c2.61,0.204 5.22,0.408 7.91,0.619l-0,4.166c-69.619,0.769 -69.619,0.769 -104.167,-4.166l0,-4.167c6.875,-1.375 13.75,-2.75 20.833,-4.167c-2.75,-2.75 -5.5,-5.5 -8.333,-8.333Z" style="fill:#2f3c4f;fill-rule:nonzero;"/><rect x="3862.5" y="2595.83" width="62.5" height="12.5" style="fill:#cedce7;fill-rule:nonzero;"/><rect x="3862.5" y="2554.17" width="62.5" height="12.5" style="fill:#ccd9e4;fill-rule:nonzero;"/><rect x="3862.5" y="2241.67" width="62.5" height="12.5" style="fill:#c7d6e4;fill-rule:nonzero;"/><path d="M4145.83,595.833l62.5,0l0,8.334c-10.548,5.274 -19.513,5.69 -31.25,6.771c-6.123,0.596 -6.123,0.596 -12.369,1.204c-10.547,0.358 -10.547,0.358 -18.881,-3.809l0,-12.5Z" style="fill:#333;fill-rule:nonzero;"/><path d="M4087.5,7625l70.833,0l0,4.167c-19.25,1.375 -38.5,2.75 -58.333,4.166c0.258,7.993 0.258,7.993 0.521,16.146c0.293,9.082 0.293,9.082 -0.521,17.188c-2.75,2.75 -5.5,5.5 -8.333,8.333c-1.375,-16.5 -2.75,-33 -4.167,-50Z" style="fill:#9e9e9e;fill-rule:nonzero;"/><path d="M3862.5,2466.67l62.5,-0l0,12.5l-58.333,-0c-1.375,-4.125 -2.75,-8.25 -4.167,-12.5Z" style="fill:#d9e4ee;fill-rule:nonzero;"/><path d="M3300,1633.33c-2.61,2.213 -5.221,4.426 -7.91,6.706c-3.405,2.943 -6.811,5.887 -10.319,8.919c-5.076,4.351 -5.076,4.351 -10.254,8.789c-8.425,8.334 -12.902,14.733 -17.35,25.586l-8.334,0c-1.375,4.125 -2.75,8.25 -4.166,12.5l-8.334,0l0,12.5c-2.75,-1.375 -5.5,-2.75 -8.333,-4.166c8.497,-19.231 18.17,-31.41 33.333,-45.834c2.836,-3.695 5.672,-7.39 8.594,-11.198c9.839,-11.743 18.044,-21.316 33.073,-13.802Z" style="fill:#333;fill-rule:nonzero;"/><path d="M4020.83,766.667c35.75,2.75 71.5,5.5 108.334,8.333l-0,4.167c-7.973,1.629 -15.963,3.176 -23.959,4.687c-4.447,0.87 -8.894,1.74 -13.476,2.637c-13.699,1.1 -17.696,-0.626 -29.232,-7.324c-7.242,-1.778 -14.541,-3.337 -21.875,-4.688c-3.717,-0.698 -7.434,-1.396 -11.263,-2.116c-4.222,-0.757 -4.222,-0.757 -8.529,-1.53l0,-4.166Z" style="fill:#333;fill-rule:nonzero;"/><path d="M4204.17,7700c6.187,4.125 6.187,4.125 12.5,8.333c0.92,12.295 1.169,23.682 0.781,35.938c-0.085,5.011 -0.085,5.011 -0.171,10.124c-0.147,8.258 -0.372,16.515 -0.61,24.772c-4.125,1.375 -8.25,2.75 -12.5,4.166l-0,-83.333Z" style="fill:#c5c5c6;fill-rule:nonzero;"/><path d="M4470.83,1608.33l8.334,0c-6.546,20.947 -19.25,37.62 -33.334,54.167l-4.166,0l-0,-25l8.333,0c1.375,-4.125 2.75,-8.25 4.167,-12.5l8.333,0c2.75,-5.5 5.5,-11 8.333,-16.667Z" style="fill:#0f223a;fill-rule:nonzero;"/><path d="M4075,7800l4.167,0c0.245,13.107 0.391,26.214 0.521,39.323c0.069,3.66 0.139,7.321 0.211,11.092c0.183,24.783 -2.862,46.411 -9.066,70.418l-4.166,0l-0,-58.333l4.166,0c1.375,-20.625 2.75,-41.25 4.167,-62.5Z" style="fill:#bfc0c0;fill-rule:nonzero;"/><path d="M4604.17,5041.67c1.375,4.125 2.75,8.25 4.166,12.5c-1.96,1.912 -3.921,3.824 -5.94,5.794c-19.2,18.854 -19.2,18.854 -35.726,40.039c-4.125,-1.375 -8.25,-2.75 -12.5,-4.167c16.5,-17.875 33,-35.75 50,-54.166Z" style="fill:#c4c4c4;fill-rule:nonzero;"/><path d="M4075,2141.67c2.75,1.375 5.5,2.75 8.333,4.166c0.339,5.986 0.581,11.977 0.782,17.969c0.145,3.336 0.29,6.671 0.439,10.108c-1.221,9.423 -1.221,9.423 -6.82,16.845c-9.423,6.934 -16.331,6.003 -27.734,5.078c-1.375,-2.75 -2.75,-5.5 -4.167,-8.333c3.266,-0.602 6.532,-1.203 9.896,-1.823c11.569,-5.324 11.569,-5.324 14.177,-15.413c2.045,-9.513 3.765,-18.96 5.094,-28.597Z" style="fill:#eef7fb;fill-rule:nonzero;"/><path d="M5004.17,1958.33c2.75,1.375 5.5,2.75 8.333,4.167c-9.625,9.625 -19.25,19.25 -29.167,29.167c-4.125,-1.375 -8.25,-2.75 -12.5,-4.167c10.741,-11.031 20.486,-20.601 33.334,-29.167Zm-37.5,37.5c1.375,2.75 2.75,5.5 4.166,8.334c-2.75,-1.375 -5.5,-2.75 -8.333,-4.167c1.375,-1.375 2.75,-2.75 4.167,-4.167Z" style="fill:#a2a2a2;fill-rule:nonzero;"/><path d="M4475,1616.67c1.375,4.125 2.75,8.25 4.167,12.5c-1.977,2.578 -3.953,5.156 -5.99,7.812c-7.609,8.457 -7.609,8.457 -6.25,19.531c-0.086,3.352 -0.172,6.704 -0.26,10.157c-8.334,7.552 -8.334,7.552 -16.667,12.5c-2.75,-4.125 -5.5,-8.25 -8.333,-12.5c11,-16.5 22,-33 33.333,-50Z" style="fill:#cdd2d6;fill-rule:nonzero;"/><path d="M4370.83,758.333l0,8.334c-14.835,4.945 -26.825,4.57 -42.448,4.427c-5.301,-0.038 -10.602,-0.075 -16.064,-0.114c-6.099,-0.073 -6.099,-0.073 -12.321,-0.147c11.656,-6.278 22.513,-10.342 35.417,-13.281c3.136,-0.746 6.273,-1.493 9.505,-2.262c9.863,-1.198 16.517,0.033 25.911,3.043Z" style="fill:#333;fill-rule:nonzero;"/><path d="M4412.5,4816.67c-1.375,4.125 -2.75,8.25 -4.167,12.5c-23.356,3.442 -43.428,4.449 -66.666,-0l-0,-4.167c7.895,-1.41 15.795,-2.794 23.698,-4.167c6.598,-1.16 6.598,-1.16 13.33,-2.343c11.509,-1.618 22.211,-2.167 33.805,-1.823Z" style="fill:#333;fill-rule:nonzero;"/><path d="M4111.52,778.694c3.121,0.021 6.241,0.043 9.456,0.066c3.37,0.013 6.741,0.027 10.213,0.04c3.542,0.035 7.085,0.07 10.734,0.106c3.558,0.019 7.117,0.038 10.783,0.057c8.819,0.049 17.638,0.124 26.457,0.204l-0,4.166c-4.066,0.505 -8.132,1.01 -12.321,1.53c-5.302,0.699 -10.603,1.397 -16.065,2.116c-5.269,0.677 -10.538,1.354 -15.967,2.051c-14.468,1.785 -14.468,1.785 -26.481,10.97c-2.75,-5.5 -5.5,-11 -8.333,-16.667c4.167,-4.166 4.167,-4.166 11.524,-4.639Z" style="fill:#333;fill-rule:nonzero;"/><path d="M4029.17,2641.67c11.35,12.877 14.134,20.917 13.802,38.021c-0.016,3.62 -0.032,7.24 -0.049,10.97c-1.253,9.342 -1.253,9.342 -9.587,17.675c-4.753,-14.259 -4.575,-25.361 -4.427,-40.364c0.038,-4.915 0.075,-9.829 0.114,-14.893c0.049,-3.765 0.097,-7.53 0.147,-11.409Z" style="fill:#dee9f1;fill-rule:nonzero;"/><path d="M3141.67,1883.33c5.298,15.897 1.13,21.92 -4.167,37.5c-0.702,11.461 -0.702,11.461 0,20.834c12.375,2.062 12.375,2.062 25,4.166l0,4.167c-25.228,0.814 -25.228,0.814 -33.333,0c-2.75,-2.75 -5.5,-5.5 -8.334,-8.333c1.259,-20.764 12.137,-39.766 20.834,-58.334Z" style="fill:#333;fill-rule:nonzero;"/><path d="M4016.67,7604.17c2.417,0.854 4.834,1.708 7.324,2.588c18.351,6.329 35.829,11.598 55.176,14.078c-4.125,2.063 -4.125,2.063 -8.334,4.167l0,12.5c-4.125,1.375 -8.25,2.75 -12.5,4.167l0,-16.667c-2.658,-0.457 -5.317,-0.913 -8.056,-1.383c-3.443,-0.661 -6.886,-1.322 -10.433,-2.002c-3.432,-0.629 -6.865,-1.257 -10.401,-1.905c-2.841,-1.004 -5.682,-2.009 -8.61,-3.043c-1.375,-4.125 -2.75,-8.25 -4.166,-12.5Z" style="fill:#a8a8a8;fill-rule:nonzero;"/><path d="M4237.5,4841.67c12.761,-0.113 25.52,-0.196 38.281,-0.261c3.602,-0.035 7.203,-0.07 10.913,-0.106c17.485,-0.067 33.762,0.052 50.806,4.533l0,4.167c-2.863,-0.048 -5.726,-0.097 -8.675,-0.146c-3.755,-0.038 -7.509,-0.076 -11.377,-0.114c-3.722,-0.049 -7.444,-0.097 -11.279,-0.147c-10.895,-0.052 -10.895,-0.052 -22.836,4.574c-11.246,-1.416 -11.246,-1.416 -23.698,-3.907c-4.141,-0.811 -8.282,-1.622 -12.548,-2.457c-3.164,-0.65 -6.328,-1.3 -9.587,-1.97l0,-4.166Z" style="fill:#333;fill-rule:nonzero;"/><path d="M3366.67,1737.5c-4.787,14.359 -8.65,17.049 -20.573,25.781c-2.96,2.208 -5.919,4.415 -8.968,6.69c-7.959,5.029 -7.959,5.029 -16.293,5.029c1.398,-13.041 4.17,-16.669 14.063,-25.781c10.842,-7.487 18.46,-11.719 31.771,-11.719Z" style="fill:#333;fill-rule:nonzero;"/><path d="M3379.17,1579.17c-3.067,1.563 -6.134,3.126 -9.294,4.736c-26.513,13.343 -26.513,13.343 -49.04,32.243c-2.75,2.922 -5.5,5.844 -8.333,8.854l-12.5,-0c12.096,-16.847 24.005,-26.63 41.927,-36.979c6.518,-3.851 6.518,-3.851 13.167,-7.78c11.573,-5.241 11.573,-5.241 24.073,-1.074Z" style="fill:#333;fill-rule:nonzero;"/><path d="M3283.33,1558.33c-6.155,14.384 -14.324,23.54 -25.521,34.375c-3.018,2.944 -6.037,5.887 -9.147,8.92c-2.309,2.212 -4.619,4.425 -6.998,6.705c-4.125,-1.375 -8.25,-2.75 -12.5,-4.166c7.44,-7.665 14.908,-15.299 22.396,-22.917c2.116,-2.186 4.232,-4.372 6.412,-6.624c16.081,-16.293 16.081,-16.293 25.358,-16.293Z" style="fill:#333;fill-rule:nonzero;"/><path d="M4445.83,4804.17c1.375,2.75 2.75,5.5 4.167,8.333l-12.5,0c-1.031,2.664 -2.063,5.328 -3.125,8.073c-5.208,8.594 -5.208,8.594 -14.063,11.719c-3.867,0.515 -3.867,0.515 -7.812,1.041l0,29.167l-4.167,-0c-0.52,-31.771 -0.52,-31.771 4.167,-45.833c7.699,-3.955 7.699,-3.955 16.927,-7.032c3.056,-1.047 6.112,-2.094 9.261,-3.173c2.358,-0.758 4.716,-1.515 7.145,-2.295Z" style="fill:#333;fill-rule:nonzero;"/><path d="M4754.17,4591.67c1.375,5.5 2.75,11 4.166,16.666c-21.445,13.197 -38.159,13.961 -62.5,12.5l0,-4.166c13.568,-4.633 27.01,-8.861 40.886,-12.5c4.383,-1.375 8.765,-2.75 13.281,-4.167c1.375,-2.75 2.75,-5.5 4.167,-8.333Z" style="fill:#aaa;fill-rule:nonzero;"/><path d="M4170.83,2054.17l8.334,-0c-3.015,26.633 -7.515,52.834 -12.5,79.166l-4.167,0c-1.041,-27.71 1.085,-52.374 8.333,-79.166Z" style="fill:#18273d;fill-rule:nonzero;"/><path d="M5066.67,1925c2.75,2.75 5.5,5.5 8.333,8.333c-3.464,1.136 -3.464,1.136 -6.999,2.295c-3.018,1.048 -6.037,2.095 -9.147,3.174c-2.997,1.015 -5.994,2.03 -9.082,3.076c-9.522,3.803 -9.522,3.803 -16.439,16.455c-8.854,2.865 -8.854,2.865 -16.666,4.167l-0,-12.5c5.982,-3.399 11.973,-6.781 17.968,-10.156c3.336,-1.886 6.671,-3.771 10.108,-5.713c9.424,-4.964 9.424,-4.964 21.924,-9.131Z" style="fill:#aeaeae;fill-rule:nonzero;"/><path d="M4254.17,7604.17l-0,12.5c-20.618,11.683 -40.07,7.389 -62.5,4.166l-0,-4.166c3.813,-0.554 7.627,-1.107 11.556,-1.677c4.952,-0.736 9.904,-1.471 15.006,-2.23c4.931,-0.725 9.861,-1.45 14.942,-2.197c12.275,-1.541 12.275,-1.541 20.996,-6.396Z" style="fill:#b5b6b6;fill-rule:nonzero;"/><path d="M3454.17,1666.67c-12.579,14.513 -23.205,19.965 -41.667,25c7.483,-19.729 20.501,-32.056 41.667,-25Z" style="fill:#333;fill-rule:nonzero;"/><path d="M4708.33,4620.83c-1.375,5.5 -2.75,11 -4.166,16.667c-1.375,-2.75 -2.75,-5.5 -4.167,-8.333l-58.333,-0l-0,-4.167c22.337,-4.703 43.971,-4.57 66.666,-4.167Z" style="fill:#959595;fill-rule:nonzero;"/><path d="M4066.67,1529.17c12.375,1.375 24.75,2.75 37.5,4.166c1.375,4.125 2.75,8.25 4.166,12.5c-12.375,-1.375 -24.75,-2.75 -37.5,-4.166c-1.375,-4.125 -2.75,-8.25 -4.166,-12.5Z" style="fill:#333;fill-rule:nonzero;"/><path d="M3783.33,4616.67c24.75,2.75 49.5,5.5 75,8.333l0,4.167c-27.604,4.687 -27.604,4.687 -41.666,-0c-1.375,2.75 -2.75,5.5 -4.167,8.333c-24.479,-11.458 -24.479,-11.458 -29.167,-20.833Z" style="fill:#333;fill-rule:nonzero;"/><path d="M3808.33,2945.83c5.997,1.182 11.985,2.405 17.969,3.646c3.336,0.677 6.671,1.354 10.108,2.051c9.423,2.637 9.423,2.637 21.923,10.97c-6.682,0.226 -13.367,0.387 -20.052,0.521c-3.722,0.097 -7.444,0.193 -11.279,0.293c-10.335,-0.814 -10.335,-0.814 -22.835,-9.147c1.375,-2.75 2.75,-5.5 4.166,-8.334Z" style="fill:#0b182d;fill-rule:nonzero;"/><path d="M4066.67,2104.17c-2.643,0.848 -5.285,1.697 -8.008,2.571c-9.87,5.23 -9.87,5.23 -12.11,17.513c-0.58,4.544 -1.16,9.088 -1.757,13.77c-0.623,4.565 -1.246,9.131 -1.888,13.834c-0.409,3.513 -0.817,7.026 -1.237,10.645l-4.167,0l0,-33.333l-8.333,-0c8.28,-23.068 13.237,-25.639 37.5,-25Z" style="fill:#cdd8e0;fill-rule:nonzero;"/><path d="M3233.33,1679.17l0,12.5l0,-12.5Zm-8.333,12.5c4.167,12.5 4.167,12.5 0.781,21.354c-4.948,7.812 -4.948,7.812 -13.281,11.979c-4.723,8.403 -4.723,8.403 -8.333,16.667c-1.375,-2.75 -2.75,-5.5 -4.167,-8.334c4.004,-8.87 4.004,-8.87 9.896,-19.01c1.923,-3.357 3.846,-6.714 5.827,-10.173c5.11,-8.317 5.11,-8.317 9.277,-12.483Z" style="fill:#333;fill-rule:nonzero;"/><path d="M4370.83,770.833c-6.875,1.375 -13.75,2.75 -20.833,4.167l0,8.333c-17.875,-1.375 -35.75,-2.75 -54.167,-4.166l0,-4.167c10.152,-1.511 20.308,-2.981 30.469,-4.427c2.876,-0.432 5.753,-0.865 8.716,-1.31c13.715,-1.922 22.491,-2.871 35.815,1.57Z" style="fill:#333;fill-rule:nonzero;"/><path d="M3858.33,4820.83c23.375,2.75 46.75,5.5 70.834,8.334l-0,4.166c-13.75,1.375 -27.5,2.75 -41.667,4.167l0,-8.333c-9.625,-1.375 -19.25,-2.75 -29.167,-4.167l0,-4.167Z" style="fill:#333;fill-rule:nonzero;"/><path d="M4366.67,1225l8.333,0l0,20.833l8.333,0c-1.375,9.625 -2.75,19.25 -4.166,29.167l-12.5,0c0.773,-2.836 1.547,-5.672 2.343,-8.594c2.178,-14.624 0.214,-26.914 -2.343,-41.406Z" style="fill:#b6b6b6;fill-rule:nonzero;"/><path d="M4554.17,5120.83c-5.758,13.377 -12.185,21.039 -23.438,30.209c-3.948,3.255 -3.948,3.255 -7.975,6.575c-2.009,1.612 -4.018,3.223 -6.087,4.883l-0,-12.5l8.333,0c1.117,-2.492 2.234,-4.984 3.385,-7.552c11.734,-21.615 11.734,-21.615 25.782,-21.615Z" style="fill:#a8a8a8;fill-rule:nonzero;"/><path d="M4329.17,1816.67c5.5,1.375 11,2.75 16.666,4.166c-11,11 -22,22 -33.333,33.334c-1.375,-2.75 -2.75,-5.5 -4.167,-8.334c6.875,-9.625 13.75,-19.25 20.834,-29.166Z" style="fill:#ccd1da;fill-rule:nonzero;"/><path d="M3912.5,2512.5l16.667,0l-0,12.5l-66.667,0l0,-4.167l50,0l0,-8.333Z" style="fill:#cdd9e6;fill-rule:nonzero;"/><path d="M4037.5,2337.5c2.75,1.375 5.5,2.75 8.333,4.167c-1.375,17.875 -2.75,35.75 -4.166,54.166l-4.167,0l0,-37.5l-8.333,0c3.646,-16.146 3.646,-16.146 8.333,-20.833Z" style="fill:#d0dbe2;fill-rule:nonzero;"/><path d="M4254.17,783.333l66.666,0c-16.666,12.5 -16.666,12.5 -29.231,11.898c-4.448,-0.918 -8.895,-1.837 -13.477,-2.783c-4.49,-0.886 -8.98,-1.773 -13.607,-2.686c-3.416,-0.746 -6.832,-1.493 -10.351,-2.262l-0,-4.167Z" style="fill:#333;fill-rule:nonzero;"/><path d="M3966.67,745.833c27.604,-1.041 27.604,-1.041 41.666,8.334c-12.5,8.333 -12.5,8.333 -25.781,6.771c-3.867,-0.86 -7.734,-1.719 -11.719,-2.605c-1.375,-4.125 -2.75,-8.25 -4.166,-12.5Z" style="fill:#333;fill-rule:nonzero;"/><path d="M3866.67,2479.17l45.833,-0c-4.125,2.062 -4.125,2.062 -8.333,4.166c-1.375,2.75 -2.75,5.5 -4.167,8.334c-9.763,-1.065 -19.493,-2.47 -29.167,-4.167c-1.375,-2.75 -2.75,-5.5 -4.166,-8.333Z" style="fill:#283a52;fill-rule:nonzero;"/><path d="M4433.33,741.667l0,8.333c-12.5,8.333 -12.5,8.333 -25.781,6.771c-3.867,-0.86 -7.734,-1.719 -11.719,-2.604c12.772,-12.772 19.791,-18.403 37.5,-12.5Z" style="fill:#333;fill-rule:nonzero;"/><path d="M4066.67,2129.17l8.333,-0l0,41.666c-4.125,2.063 -4.125,2.063 -8.333,4.167c-0.812,-6.072 -1.587,-12.15 -2.344,-18.229c-0.435,-3.384 -0.87,-6.768 -1.318,-10.254c-0.505,-9.017 -0.505,-9.017 3.662,-17.35Z" style="fill:#425367;fill-rule:nonzero;"/><path d="M3454.17,1533.33c-15.383,14.742 -29.558,14.963 -50,16.667c15.762,-15.763 27.902,-17.671 50,-16.667Z" style="fill:#333;fill-rule:nonzero;"/><path d="M3904.17,2529.17l25,-0c-4.948,8.333 -4.948,8.333 -12.5,16.666c-11.198,1.042 -11.198,1.042 -20.834,0c2.75,-5.5 5.5,-11 8.334,-16.666Z" style="fill:#1d3655;fill-rule:nonzero;"/><path d="M4200,1987.5c3.978,9.04 4.767,14.847 1.66,24.268c-3.155,7.267 -6.56,14.425 -9.993,21.565c-2.75,-1.375 -5.5,-2.75 -8.334,-4.166c4.623,-14.528 9.431,-28.229 16.667,-41.667Z" style="fill:#17283e;fill-rule:nonzero;"/><path d="M4733.33,1600c6.075,-0.225 12.152,-0.387 18.23,-0.521c3.383,-0.097 6.767,-0.193 10.253,-0.293c9.017,0.814 9.017,0.814 17.351,9.147l-16.667,0l0,8.334c-13.822,-2.383 -19.693,-6.542 -29.167,-16.667Z" style="fill:#ccc;fill-rule:nonzero;"/><path d="M4445.83,1520.83c6.079,0.588 12.155,1.2 18.23,1.823c5.075,0.508 5.075,0.508 10.253,1.026c9.017,1.318 9.017,1.318 17.351,5.485l-0,8.333c-6.084,-1.177 -12.159,-2.401 -18.229,-3.646c-3.384,-0.677 -6.768,-1.353 -10.254,-2.051c-9.017,-2.636 -9.017,-2.636 -17.351,-10.97Z" style="fill:#333;fill-rule:nonzero;"/><path d="M3120.83,1820.83l8.334,0c-1.375,13.75 -2.75,27.5 -4.167,41.667c-2.75,-1.375 -5.5,-2.75 -8.333,-4.167c1.375,-12.375 2.75,-24.75 4.166,-37.5Z" style="fill:#333;fill-rule:nonzero;"/><path d="M4675,4954.17c2.75,5.5 5.5,11 8.333,16.666c-8.551,9.366 -12.527,12.51 -25,16.667c5.556,-11.111 11.111,-22.222 16.667,-33.333Z" style="fill:#b3b3b3;fill-rule:nonzero;"/><path d="M4041.67,2629.17c4.125,1.375 8.25,2.75 12.5,4.166c-4.125,8.25 -8.25,16.5 -12.5,25c-2.75,-1.375 -5.5,-2.75 -8.334,-4.166c3.646,-20.313 3.646,-20.313 8.334,-25Z" style="fill:#f0f9fd;fill-rule:nonzero;"/><path d="M4412.5,1566.67c8.25,2.062 8.25,2.062 16.667,4.166l-0,12.5l-20.834,0c1.375,-5.5 2.75,-11 4.167,-16.666Z" style="fill:#333;fill-rule:nonzero;"/><path d="M3829.17,1537.5c9.928,-1.221 9.928,-1.221 21.354,-0.781c3.792,0.113 7.584,0.225 11.491,0.342c2.911,0.145 5.822,0.29 8.821,0.439l0,4.167c-6.574,0.902 -6.574,0.902 -13.281,1.823c-12.363,1.824 -24.502,3.919 -36.719,6.51c2.75,-4.125 5.5,-8.25 8.334,-12.5Z" style="fill:#333;fill-rule:nonzero;"/><rect x="4191.67" y="7620.83" width="29.167" height="12.5" style="fill:#a5a5a5;fill-rule:nonzero;"/><path d="M4041.67,2170.83c6.875,5.5 13.75,11 20.833,16.667c-6.875,2.75 -13.75,5.5 -20.833,8.333c-2.75,-5.5 -5.5,-11 -8.334,-16.666l8.334,-0l-0,-8.334Z" style="fill:#cdd9e1;fill-rule:nonzero;"/><path d="M4479.17,1608.33c-4.941,14.063 -9.483,23.53 -20.834,33.334c4.348,-33.334 4.348,-33.334 20.834,-33.334Z" style="fill:#333;fill-rule:nonzero;"/><path d="M4012.5,1258.33l8.333,0c2.75,4.125 5.5,8.25 8.334,12.5c4.125,2.75 8.25,5.5 12.5,8.334l-25,-0c-1.375,-6.875 -2.75,-13.75 -4.167,-20.834Z" style="fill:#a7a8a7;fill-rule:nonzero;"/></svg>