<?xml version="1.0" encoding="UTF-8" standalone="no"?><!DOCTYPE svg PUBLIC "-//W3C//DTD SVG 1.1//EN" "http://www.w3.org/Graphics/SVG/1.1/DTD/svg11.dtd"><svg width="100%" height="100%" viewBox="0 0 8534 8534" version="1.1" xmlns="http://www.w3.org/2000/svg" xmlns:xlink="http://www.w3.org/1999/xlink" xml:space="preserve" xmlns:serif="http://www.serif.com/" style="fill-rule:evenodd;clip-rule:evenodd;stroke-linejoin:round;stroke-miterlimit:2;"><path d="M1639.25,2322.78c7.192,-0.029 14.384,-0.066 21.576,-0.108c19.396,-0.094 38.79,-0.082 58.186,-0.045c16.246,0.021 32.492,-0.009 48.737,-0.039c38.346,-0.071 76.691,-0.057 115.037,0.013c39.451,0.071 78.9,0.005 118.351,-0.13c33.982,-0.111 67.964,-0.141 101.947,-0.106c20.248,0.02 40.495,0.012 60.742,-0.074c19.044,-0.077 38.085,-0.051 57.129,0.051c6.953,0.02 13.907,0.006 20.86,-0.047c52.002,-0.365 96.743,7.634 138.41,41.331c23.756,23.544 43.054,55.484 46.194,89.045c-0.065,5.259 -0.131,10.518 -0.198,15.936c-0.032,5.172 -0.063,10.344 -0.095,15.672c-0.114,6.478 -0.228,12.956 -0.345,19.63c-0.258,20.711 -0.515,41.422 -0.781,62.761l137.5,-0c-0.387,-17.016 -0.387,-17.016 -0.781,-34.375c-0.357,-50.683 6.934,-94.68 42.334,-132.813c38.761,-37.189 76.873,-43.634 129.395,-43.236c5.775,-0.016 11.549,-0.039 17.324,-0.068c15.565,-0.058 31.128,-0.012 46.693,0.057c16.353,0.058 32.707,0.031 49.061,0.016c27.448,-0.011 54.896,0.045 82.345,0.141c31.659,0.111 63.317,0.118 94.976,0.07c30.559,-0.045 61.117,-0.019 91.677,0.039c12.959,0.024 25.918,0.024 38.877,0.004c15.278,-0.02 30.555,0.023 45.832,0.113c8.228,0.034 16.455,0.007 24.683,-0.022c49.448,0.411 87.316,11.964 124.075,46.027c24.809,26.867 39.139,60.753 38.916,97.315c-0.014,3.894 -0.027,7.788 -0.041,11.8c-0.035,4.034 -0.07,8.067 -0.106,12.223c-0.018,4.098 -0.037,8.197 -0.057,12.419c-0.049,10.097 -0.117,20.193 -0.203,30.29c5.057,-0.003 5.057,-0.003 10.215,-0.006c367.012,-0.212 734.024,-0.408 1101.04,-0.524c5.482,-0.001 10.965,-0.003 16.613,-0.005c116.244,-0.036 232.488,-0.07 348.732,-0.101c58.395,-0.016 116.791,-0.032 175.186,-0.048c8.809,-0.003 17.617,-0.005 26.426,-0.008c135.6,-0.038 271.201,-0.087 406.801,-0.167c4.372,-0.002 4.372,-0.002 8.832,-0.005c46.986,-0.027 93.973,-0.056 140.959,-0.085c135.376,-0.082 270.753,-0.158 406.129,-0.191c2.785,-0 5.57,-0.001 8.44,-0.002c58.407,-0.014 116.814,-0.025 175.221,-0.032c27.355,-0.004 54.709,-0.008 82.064,-0.012c5.384,-0.001 10.767,-0.002 16.314,-0.003c86.662,-0.015 173.324,-0.073 259.986,-0.147c87.125,-0.073 174.251,-0.101 261.376,-0.083c51.762,0.009 103.524,-0.016 155.286,-0.091c34.594,-0.047 69.187,-0.049 103.78,-0.013c19.701,0.019 39.401,0.018 59.101,-0.038c17.959,-0.051 35.916,-0.044 53.875,0.009c6.421,0.009 12.843,-0.003 19.264,-0.039c56.713,-0.296 115.653,4.034 168.01,27.632c2.925,1.269 5.851,2.538 8.865,3.845c88.655,39.547 164.02,111.482 199.468,202.666c3.023,8.569 5.981,17.161 8.854,25.781c1.23,3.432 2.46,6.864 3.728,10.4c13.881,39.456 18.324,75.496 18.166,117.323c0.013,5.245 0.027,10.489 0.04,15.893c0.036,14.534 0.02,29.068 -0.004,43.602c-0.017,15.821 0.014,31.642 0.038,47.464c0.037,27.722 0.042,55.444 0.027,83.166c-0.022,41.225 0.004,82.45 0.038,123.675c0.064,77.916 0.071,155.831 0.06,233.746c-0.007,60.173 0,120.345 0.018,180.518c0.003,8.644 0.005,17.288 0.008,25.931c0.003,13.026 0.007,26.051 0.011,39.076c0.035,121.119 0.053,242.238 0.036,363.357c-0.001,4.567 -0.002,9.134 -0.002,13.839c-0.004,23.146 -0.007,46.292 -0.011,69.438c-0,4.597 -0.001,9.194 -0.002,13.93c-0.001,9.296 -0.003,18.592 -0.004,27.888c-0.023,144.621 0.01,289.242 0.087,433.863c0.087,162.481 0.131,324.961 0.115,487.442c-0.002,17.328 -0.003,34.656 -0.005,51.983c-0,6.4 -0,6.4 -0.001,12.929c-0.005,64.393 0.023,128.785 0.067,193.178c0.05,73.246 0.057,146.492 0.005,219.739c-0.028,40.979 -0.021,81.957 0.036,122.936c0.034,27.394 0.023,54.788 -0.025,82.182c-0.026,15.595 -0.033,31.188 0.016,46.783c0.348,119.073 0.348,119.073 -14.108,168.886c-1.424,4.977 -1.424,4.977 -2.877,10.055c-30.235,96.245 -95.412,179.601 -185.176,226.504c-77.851,39.394 -147.664,43.839 -233.557,43.679c-10.392,0.012 -20.783,0.026 -31.175,0.045c-22.635,0.031 -45.271,0.036 -67.907,0.019c-33.886,-0.026 -67.773,-0.004 -101.66,0.027c-57.759,0.052 -115.519,0.064 -173.278,0.055c-58.528,-0.009 -117.057,-0.001 -175.585,0.03c-3.698,0.002 -7.395,0.004 -11.205,0.006c-15.06,0.007 -30.119,0.015 -45.179,0.024c-157.088,0.084 -314.176,0.11 -471.264,0.114c-16.908,0.001 -33.815,0.002 -50.723,0.002c-6.293,0 -6.293,0 -12.714,0.001c-92.976,0.003 -185.952,0.021 -278.928,0.042c-38.284,0.009 -76.569,0.017 -114.853,0.025c-4.23,0.001 -8.46,0.002 -12.818,0.003c-242.401,0.053 -484.802,0.087 -727.202,0.083c-9.071,0 -18.143,0 -27.214,-0c-40.956,-0.001 -81.912,-0.001 -122.868,-0.002c-18.263,-0.001 -36.527,-0.001 -54.79,-0.001c-9.141,-0 -18.283,-0.001 -27.424,-0.001c-289.082,-0.005 -578.165,0.056 -867.247,0.171c-72.841,0.03 -145.682,0.059 -218.523,0.086c-4.485,0.002 -8.97,0.003 -13.591,0.005c-138.224,0.052 -276.448,0.083 -414.672,0.094c-4.339,0 -8.679,0 -13.15,0.001c-95.257,0.007 -190.515,0.009 -285.773,0.007c-34.085,-0.001 -68.169,-0.002 -102.254,-0.002c-8.479,0 -16.958,0 -25.438,-0c-135.125,-0.002 -270.249,0.046 -405.374,0.118c-136.086,0.072 -272.172,0.09 -408.258,0.035c-18.806,-0.007 -37.613,-0.014 -56.419,-0.021c-5.529,-0.002 -5.529,-0.002 -11.171,-0.004c-58.363,-0.02 -116.725,0.017 -175.088,0.076c-57.394,0.058 -114.787,0.056 -172.181,-0.01c-33.643,-0.036 -67.285,-0.027 -100.927,0.049c-24.99,0.052 -49.979,0.016 -74.969,-0.053c-10.037,-0.014 -20.073,-0 -30.11,0.045c-118.755,0.496 -218.631,-29.688 -304.906,-114.234c-80.822,-82.476 -108.94,-186.728 -108.767,-298.932c-0.008,-5.191 -0.017,-10.381 -0.026,-15.729c-0.023,-14.363 -0.02,-28.727 -0.013,-43.09c0.003,-15.643 -0.018,-31.287 -0.036,-46.931c-0.031,-31.007 -0.04,-62.014 -0.043,-93.021c-0.004,-37.149 -0.031,-74.298 -0.06,-111.447c-0.066,-89.775 -0.091,-179.55 -0.111,-269.324c-0.01,-42.48 -0.025,-84.96 -0.04,-127.439c-0.054,-145.45 -0.098,-290.9 -0.113,-436.351c-0.001,-9.127 -0.002,-18.254 -0.003,-27.381c-0.001,-9.149 -0.001,-18.298 -0.002,-27.447c-0.002,-18.354 -0.004,-36.707 -0.006,-55.061c-0,-4.551 -0.001,-9.102 -0.001,-13.79c-0.015,-147.561 -0.082,-295.122 -0.179,-442.684c-0.102,-156.061 -0.16,-312.122 -0.165,-468.184c-0,-17.136 -0.001,-34.272 -0.002,-51.408c-0,-4.219 -0.001,-8.438 -0.001,-12.785c-0.005,-67.854 -0.051,-135.708 -0.111,-203.562c-0.06,-68.216 -0.074,-136.433 -0.04,-204.65c0.018,-40.505 0.003,-81.01 -0.064,-121.515c-0.04,-27.089 -0.035,-54.177 0.006,-81.266c0.023,-15.413 0.026,-30.825 -0.027,-46.239c-0.428,-133.769 18.011,-250.871 115.306,-349.632c44.906,-43.286 97.175,-76.167 157.112,-94.205c2.944,-0.887 5.887,-1.773 8.92,-2.686c35.981,-9.845 72.277,-10.412 109.326,-10.221c4.386,0.006 8.772,0.012 13.291,0.018c13.88,0.023 27.76,0.075 41.64,0.128c9.465,0.021 18.929,0.04 28.394,0.057c23.088,0.046 46.175,0.115 69.263,0.204c-0.099,-5.196 -0.099,-5.196 -0.199,-10.497c-0.214,-13.023 -0.37,-26.045 -0.488,-39.069c-0.093,-8.34 -0.252,-16.68 -0.412,-25.019c-0.363,-48.087 7.407,-83.832 38.599,-121.249c44.891,-45.158 99.954,-48.317 160.083,-48.056Z" style="fill:#040403;fill-rule:nonzero;"/><path d="M5435.07,3498.6c5.937,5.371 11.901,10.715 17.972,15.935c23.51,20.219 45.614,41.657 67.526,63.59c5.541,5.546 5.541,5.546 11.195,11.205c21.122,21.321 41.48,42.593 59.757,66.428c8.486,10.923 17.287,21.512 26.167,32.116c19.06,23.257 36.087,47.445 52.621,72.543c2.868,4.334 5.736,8.669 8.691,13.134c203.787,310.624 279.168,680.359 206.413,1045.2c-2.587,12.33 -5.248,24.64 -7.98,36.938c-2.221,10.004 -4.343,20.024 -6.441,30.054c-14.893,69.211 -38.696,136.866 -66.829,201.758c-1.567,3.623 -3.134,7.247 -4.749,10.98c-56.666,129.839 -130.795,256.381 -228.585,359.853c-5.059,5.795 -10.095,11.61 -15.104,17.448c-11.462,13.179 -23.55,25.474 -36.019,37.696c-7.235,7.382 -13.847,15.066 -20.491,22.981c-36.312,41.88 -80.338,75.882 -124.219,109.375c-4.163,3.218 -8.325,6.435 -12.614,9.75c-105.922,80.899 -224.071,146.095 -349.886,190.25c-5.495,2.043 -10.986,4.1 -16.471,6.169c-66.922,25.163 -134.296,42.048 -204.362,56.331c-5.185,1.073 -5.185,1.073 -10.474,2.167c-20.041,4.085 -40.103,7.506 -60.36,10.333c-3.004,0.429 -6.009,0.858 -9.104,1.3c-56.166,7.563 -112.454,7.798 -169.021,7.815c-3.609,0.004 -7.219,0.008 -10.938,0.013c-70.868,-0.01 -140.464,-2.054 -210.416,-14.336c-8.113,-1.404 -8.113,-1.404 -16.39,-2.837c-259.668,-46.077 -501.535,-168.479 -694.075,-348.514c-9.432,-8.755 -19.041,-17.157 -28.858,-25.472c-13.829,-11.972 -25.609,-25.039 -37.418,-38.981c-6.749,-7.737 -13.785,-14.838 -21.175,-21.956c-19.243,-18.986 -35.839,-40.034 -52.605,-61.198c-3.169,-3.98 -6.338,-7.96 -9.603,-12.061c-10.882,-13.898 -21.529,-27.944 -32.063,-42.106c-3.231,-4.321 -3.231,-4.321 -6.527,-8.73c-94.637,-127.665 -161.643,-272.352 -205.973,-424.603c-0.853,-2.838 -1.705,-5.676 -2.583,-8.6c-55.49,-185.058 -71.633,-392.016 -39.084,-583.067c1.208,-7.235 1.208,-7.235 2.441,-14.616c46.427,-269.961 165.281,-517.861 351.726,-718.717c4.455,-4.887 8.909,-9.776 13.362,-14.665c46.377,-50.648 95.131,-96.266 149.809,-137.828c7.834,-5.972 15.61,-12.015 23.385,-18.064c303.753,-234.404 698.872,-323.693 1719.35,64.99Z" style="fill:#eaeaea;fill-rule:nonzero;"/><path d="M1288.5,2665.61c4.214,-0.013 8.429,-0.026 12.772,-0.039c14.166,-0.033 28.331,-0.006 42.497,0.021c10.285,-0.012 20.571,-0.026 30.856,-0.045c22.455,-0.031 44.91,-0.036 67.366,-0.019c33.616,0.026 67.233,0.004 100.85,-0.027c57.293,-0.052 114.586,-0.064 171.879,-0.055c58.072,0.009 116.143,0.001 174.215,-0.03c5.499,-0.003 5.499,-0.003 11.11,-0.006c14.931,-0.007 29.863,-0.015 44.795,-0.024c155.83,-0.084 311.66,-0.11 467.49,-0.114c16.778,-0.001 33.556,-0.002 50.334,-0.002c4.163,-0 8.327,-0 12.616,-0.001c92.234,-0.003 184.467,-0.021 276.701,-0.042c37.971,-0.009 75.942,-0.017 113.912,-0.025c6.293,-0.002 6.293,-0.002 12.714,-0.003c240.451,-0.053 480.902,-0.087 721.354,-0.083c9,-0 18,-0 27.001,0c40.636,0.001 81.272,0.001 121.908,0.002c18.121,0.001 36.242,0.001 54.363,0.001c9.07,0 18.14,0.001 27.21,0.001c286.778,0.005 573.557,-0.056 860.336,-0.171c72.247,-0.03 144.494,-0.059 216.742,-0.086c6.672,-0.002 6.672,-0.002 13.48,-0.005c137.104,-0.052 274.208,-0.083 411.313,-0.094c6.456,-0 6.456,-0 13.044,-0.001c94.494,-0.007 188.987,-0.009 283.481,-0.007c33.812,0.001 67.624,0.002 101.436,0.002c8.411,-0 16.823,-0 25.235,0c134.04,0.002 268.08,-0.046 402.12,-0.118c135.01,-0.072 270.02,-0.09 405.03,-0.035c18.661,0.007 37.321,0.014 55.981,0.021c3.658,0.001 7.316,0.003 11.085,0.004c57.897,0.02 115.794,-0.017 173.691,-0.076c56.945,-0.058 113.889,-0.056 170.834,0.01c33.374,0.036 66.748,0.027 100.122,-0.049c24.799,-0.052 49.597,-0.016 74.396,0.053c9.954,0.014 19.908,0.001 29.862,-0.045c101.23,-0.427 189.718,14.994 267.318,85.344c201.415,207.397 83.22,769.797 83.22,887.63l-1829.17,-0c-5.5,-9.625 -11,-19.25 -16.667,-29.167c-5.756,-7.054 -11.744,-13.928 -17.968,-20.573c-3.293,-3.561 -6.585,-7.122 -9.978,-10.791c-3.152,-3.4 -6.305,-6.799 -9.554,-10.302c-4.885,-5.534 -9.748,-11.088 -14.583,-16.667c-11.198,-12.839 -22.492,-25.587 -33.854,-38.281c-2.976,-3.325 -5.951,-6.65 -9.017,-10.075c-33.446,-36.224 -70.57,-68.769 -108.936,-99.658c-9.501,-7.674 -18.915,-15.416 -28.287,-23.243c-36.397,-30.255 -73.519,-57.829 -113.656,-82.91c-3.07,-1.926 -6.139,-3.852 -9.302,-5.837c-90.278,-56.283 -183.187,-101.581 -282.365,-139.996c-4.714,-1.843 -9.428,-3.687 -14.285,-5.586c-161.355,-62.743 -335.958,-83.833 -508.11,-83.216c-4.446,0.008 -8.892,0.015 -13.472,0.023c-66.622,0.191 -131.697,2.269 -197.466,13.779c-4.485,0.759 -8.97,1.519 -13.59,2.301c-160.618,27.655 -313.146,79.674 -457.243,156.032c-2.582,1.361 -5.163,2.721 -7.823,4.122c-72.435,38.591 -140.079,87.119 -204.677,137.545c-3.991,3.099 -7.982,6.198 -12.093,9.391c-121.809,97.121 -121.809,97.121 -215.223,219.168c-10.573,17.176 -20.229,30.77 -39.945,36.565c-28.319,4.432 -57.019,3.318 -85.588,2.888c-9.812,0.02 -19.623,0.06 -29.435,0.118c-24.126,0.092 -48.244,-0.029 -72.369,-0.24c-28.902,-0.24 -57.803,-0.213 -86.707,-0.177c-53.337,0.061 -106.671,-0.092 -160.007,-0.367c-52.802,-0.271 -105.603,-0.448 -158.406,-0.497c-4.926,-0.005 -4.926,-0.005 -9.952,-0.01c-16.679,-0.016 -33.359,-0.029 -50.038,-0.042c-118.11,-0.097 -236.219,-0.405 -354.329,-0.839c-114.735,-0.421 -229.47,-0.746 -344.206,-0.94c-3.537,-0.006 -7.074,-0.012 -10.719,-0.019c-35.522,-0.06 -71.045,-0.118 -106.567,-0.176c-72.363,-0.116 -144.725,-0.245 -217.087,-0.382c-3.327,-0.007 -6.654,-0.013 -10.082,-0.019c-222.139,-0.422 -444.276,-1.149 -666.414,-1.922c-0.293,-91.819 -0.513,-183.638 -0.648,-275.457c-0.064,-42.639 -0.152,-85.277 -0.295,-127.915c-0.125,-37.187 -0.205,-74.374 -0.233,-111.561c-0.016,-19.67 -0.054,-39.338 -0.146,-59.007c-0.085,-18.56 -0.11,-37.119 -0.092,-55.68c-0.003,-6.766 -0.028,-13.533 -0.076,-20.3c-0.38,-55.861 3.743,-110.892 29.094,-161.799c2.151,-4.438 2.151,-4.438 4.345,-8.966c13.265,-26.149 30.334,-46.458 51.384,-66.815c2.245,-2.578 4.491,-5.156 6.804,-7.813c31.009,-34.904 77.493,-56.854 122.363,-67.187c4.833,-1.402 9.666,-2.805 14.645,-4.249c20.518,-5.105 40.3,-5.241 61.353,-5.138Z" style="fill:#ebebeb;fill-rule:nonzero;"/><path d="M1000,3737.5l2295.83,0c-6.6,16.501 -12.624,28.126 -22.135,42.708c-98.447,156.43 -160.8,335.666 -191.667,517.188c-0.809,4.688 -0.809,4.688 -1.634,9.47c-13.323,78.059 -14.605,155.528 -14.731,234.571c-0.041,15.22 -0.17,30.437 -0.301,45.656c-0.282,62.28 3.751,122.28 13.802,183.74c0.684,4.333 0.684,4.333 1.382,8.753c2.573,16.234 5.441,32.393 8.514,48.539c0.901,4.744 1.803,9.489 2.732,14.377c43.103,221.794 140.766,436.052 281.581,612.733c5.132,6.439 10.203,12.928 15.263,19.423c16.707,21.297 34.364,41.528 52.621,61.507c7.561,8.364 14.827,16.876 22.021,25.554c11.054,13.097 23.419,23.348 36.719,34.114l-0,4.167l-2500,0l-0,-1862.5Z" style="fill:#bfc0bf;fill-rule:nonzero;"/><path d="M1000,5700c249.053,-0.428 498.106,-0.826 747.16,-1.059c5.527,-0.005 5.527,-0.005 11.166,-0.01c80.076,-0.075 160.152,-0.144 240.228,-0.208c39.268,-0.031 78.536,-0.063 117.804,-0.096c3.908,-0.004 7.816,-0.007 11.842,-0.01c126.709,-0.107 253.418,-0.295 380.128,-0.524c130.186,-0.236 260.372,-0.39 390.559,-0.441c18.379,-0.007 36.757,-0.015 55.136,-0.024c3.617,-0.002 7.235,-0.003 10.962,-0.005c58.279,-0.03 116.558,-0.146 174.837,-0.294c58.56,-0.147 117.119,-0.203 175.678,-0.167c34.812,0.02 69.622,-0.031 104.434,-0.182c25.966,-0.105 51.93,-0.079 77.896,-0.002c10.526,0.01 21.053,-0.022 31.579,-0.1c14.271,-0.1 28.533,-0.047 42.803,0.046c4.122,-0.066 8.243,-0.132 12.489,-0.199c24.447,0.36 37.572,4.291 54.945,21.854c2.042,2.119 4.084,4.238 6.187,6.421c4.612,3.701 9.281,7.333 14.03,10.856c2.36,1.751 4.719,3.503 7.151,5.307c57.175,41.75 116.206,78.917 178.541,112.479c7.625,4.154 15.165,8.464 22.69,12.797c88.98,50.215 187.617,86.082 285.922,112.728c4.148,1.141 8.297,2.282 12.571,3.458c53.859,14.578 108.103,24.866 163.21,33.26c2.865,0.44 5.73,0.879 8.681,1.331c178.127,26.971 358.731,13.46 533.687,-26.288c12.632,-2.852 25.277,-5.561 37.954,-8.197c126.348,-27.493 248.905,-85.761 360.563,-149.398c3.624,-2.064 7.249,-4.129 10.983,-6.256c45.262,-25.995 88.564,-54.045 130.619,-84.971c2.679,-1.953 5.359,-3.906 8.12,-5.918c8.698,-6.591 8.698,-6.591 14.638,-14.542c12.648,-14.817 24.619,-22.122 43.914,-24.32c21.943,-1.41 43.886,-1.075 65.86,-0.833c8.554,-0.013 17.107,-0.039 25.66,-0.076c23.49,-0.065 46.975,0.052 70.464,0.198c25.335,0.126 50.669,0.083 76.004,0.061c43.89,-0.015 87.778,0.075 131.668,0.24c46.025,0.173 92.05,0.285 138.076,0.317c4.294,0.003 4.294,0.003 8.675,0.006c14.539,0.01 29.078,0.018 43.617,0.027c102.954,0.061 205.906,0.258 308.859,0.534c100.011,0.268 200.021,0.474 300.032,0.598c3.084,0.004 6.167,0.007 9.344,0.011c30.964,0.039 61.929,0.076 92.893,0.112c63.077,0.074 126.154,0.157 189.23,0.244c4.35,0.006 4.35,0.006 8.788,0.012c193.63,0.268 387.26,0.731 580.89,1.223c0.291,35.463 0.512,70.926 0.647,106.39c0.065,16.473 0.153,32.945 0.296,49.417c0.137,15.94 0.211,31.879 0.243,47.82c0.022,6.037 0.067,12.075 0.135,18.112c0.858,79.17 -17.453,149.608 -67.988,211.594c-2.524,3.304 -5.049,6.607 -7.65,10.01c-41.509,51.23 -107.403,80.093 -171.517,89.99c-14.644,1.071 -29.205,1.123 -43.883,1.05c-4.246,0.012 -8.491,0.024 -12.865,0.037c-14.22,0.03 -28.439,0.002 -42.659,-0.026c-10.344,0.01 -20.688,0.023 -31.033,0.04c-22.557,0.029 -45.115,0.031 -67.673,0.011c-33.77,-0.03 -67.54,-0.012 -101.31,0.015c-57.556,0.045 -115.113,0.051 -172.669,0.035c-58.331,-0.016 -116.661,-0.014 -174.991,0.01c-5.526,0.002 -5.526,0.002 -11.163,0.004c-15.004,0.006 -30.007,0.013 -45.01,0.019c-152.332,0.065 -304.664,0.076 -456.996,0.066c-21.052,-0.001 -42.104,-0.003 -63.155,-0.004c-4.182,-0 -8.363,-0.001 -12.671,-0.001c-92.639,-0.005 -185.278,0.006 -277.917,0.02c-21.149,0.003 -42.298,0.006 -63.447,0.009c-8.488,0.001 -33.878,0.005 -38.213,0.006c-8.51,0.001 -17.02,0.002 -25.53,0.004c-241.494,0.036 -482.988,0.055 -724.483,0.037c-4.472,0 -8.945,-0 -13.553,-0.001c-49.874,-0.003 -99.747,-0.007 -149.621,-0.011c-4.503,-0 -9.006,-0.001 -13.646,-0.001c-37.417,-0.003 -37.417,-0.003 -54.631,-0.004c-288.057,-0.024 -576.115,0.008 -864.172,0.086c-72.586,0.02 -145.172,0.039 -217.758,0.058c-4.469,0.001 -8.938,0.002 -13.543,0.003c-137.718,0.035 -275.436,0.055 -413.154,0.058c-6.484,0 -6.484,0 -13.1,0c-94.892,0.003 -189.785,0.001 -284.678,-0.004c-33.953,-0.002 -67.906,-0.003 -101.859,-0.005c-8.447,-0 -16.893,-0 -25.34,-0.001c-134.653,-0.006 -269.306,0.024 -403.959,0.071c-139.364,0.049 -278.727,0.051 -418.091,0.001c-14.96,-0.006 -29.921,-0.011 -44.881,-0.015c-5.508,-0.002 -5.508,-0.002 -11.127,-0.004c-58.173,-0.018 -116.347,0.006 -174.52,0.047c-57.181,0.04 -114.361,0.035 -171.542,-0.017c-33.536,-0.03 -67.071,-0.025 -100.607,0.03c-24.881,0.037 -49.762,0.01 -74.643,-0.044c-10.015,-0.011 -20.03,-0.002 -30.045,0.031c-114.561,0.352 -114.561,0.352 -167.466,-29.214c-2.627,-1.44 -5.253,-2.879 -7.96,-4.363c-24.538,-13.97 -44.775,-31.113 -64.436,-51.366c-2.991,-2.954 -5.983,-5.908 -9.065,-8.952c-22.46,-23.432 -36.197,-49.013 -49.268,-78.548c-2.032,-4.476 -4.065,-8.953 -6.158,-13.565c-27.923,-65.799 -20.355,-142.97 -19.7,-212.984c0.129,-15.366 0.185,-30.732 0.248,-46.099c0.132,-29.951 0.345,-59.902 0.61,-89.852Z" style="fill:#eaeaea;fill-rule:nonzero;"/><path d="M5779.17,3737.5l1750,0l-0,1862.5l-1950,0l-0,-8.333c6.266,-6.022 6.266,-6.022 14.843,-13.021c17.803,-15.189 32.644,-31.583 47.657,-49.479c3.528,-4.093 7.057,-8.186 10.693,-12.403c230.708,-268.109 358.356,-611.997 357.06,-965.317c-0.045,-14.486 -0,-28.97 0.053,-43.455c0.057,-79.843 -5.444,-157.421 -20.671,-235.857c-0.534,-2.791 -1.068,-5.582 -1.617,-8.459c-27.353,-142.418 -74.403,-276.779 -141.352,-405.343c-2.289,-4.448 -2.289,-4.448 -4.624,-8.986c-17.626,-34.237 -35.658,-67.633 -56.98,-99.738c-5.062,-7.942 -5.062,-7.942 -5.062,-12.109Z" style="fill:#bfbfbf;fill-rule:nonzero;"/><path d="M5435.07,3498.6c5.937,5.371 11.901,10.715 17.972,15.935c23.51,20.219 45.614,41.657 67.526,63.59c5.541,5.546 5.541,5.546 11.195,11.205c21.122,21.321 41.48,42.593 59.757,66.428c8.486,10.923 17.287,21.512 26.167,32.116c19.06,23.257 36.087,47.445 52.621,72.543c2.868,4.334 5.736,8.669 8.691,13.134c203.787,310.624 279.168,680.359 206.413,1045.2c-2.587,12.33 -5.248,24.64 -7.98,36.938c-2.221,10.004 -4.343,20.024 -6.441,30.054c-14.893,69.211 -38.696,136.866 -66.829,201.758c-1.567,3.623 -3.134,7.247 -4.749,10.98c-56.666,129.839 -130.795,256.381 -228.585,359.853c-5.059,5.795 -10.095,11.61 -15.104,17.448c-11.462,13.179 -23.55,25.474 -36.019,37.696c-7.235,7.382 -13.847,15.066 -20.491,22.981c-36.312,41.88 -80.338,75.882 -124.219,109.375c-4.163,3.218 -8.325,6.435 -12.614,9.75c-105.922,80.899 -224.071,146.095 -349.886,190.25c-5.495,2.043 -10.986,4.1 -16.471,6.169c-66.922,25.163 -134.296,42.048 -204.362,56.331c-5.185,1.073 -5.185,1.073 -10.474,2.167c-20.041,4.085 -40.103,7.506 -60.36,10.333c-3.004,0.429 -6.009,0.858 -9.104,1.3c-56.166,7.563 -112.454,7.798 -169.021,7.815c-3.609,0.004 -7.219,0.008 -10.938,0.013c-70.868,-0.01 -140.464,-2.054 -210.416,-14.336c-8.113,-1.404 -8.113,-1.404 -16.39,-2.837c-259.668,-46.077 -501.535,-168.479 -694.075,-348.514c-9.432,-8.755 -19.041,-17.157 -28.858,-25.472c-13.829,-11.972 -25.609,-25.039 -37.418,-38.981c-6.749,-7.737 -13.785,-14.838 -21.175,-21.956c-19.243,-18.986 -35.839,-40.034 -52.605,-61.198c-3.169,-3.98 -6.338,-7.96 -9.603,-12.061c-10.882,-13.898 -21.529,-27.944 -32.063,-42.106c-3.231,-4.321 -3.231,-4.321 -6.527,-8.73c-94.637,-127.665 -161.643,-272.352 -205.973,-424.603c-0.853,-2.838 -1.705,-5.676 -2.583,-8.6c-55.49,-185.058 -71.633,-392.016 -39.084,-583.067c1.208,-7.235 1.208,-7.235 2.441,-14.616c46.427,-269.961 165.281,-517.861 351.726,-718.717c4.455,-4.887 8.909,-9.776 13.362,-14.665c46.377,-50.648 95.131,-96.266 149.809,-137.828c7.834,-5.972 15.61,-12.015 23.385,-18.064c303.753,-234.404 698.872,-323.693 1719.35,64.99Zm-1105.91,-69.954c-5.258,1.085 -5.258,1.085 -10.621,2.192c-10.361,2.17 -20.706,4.398 -31.046,6.662c-2.9,0.633 -5.799,1.266 -8.787,1.919c-175.956,39.25 -339.976,124.276 -474.546,243.914c-2.461,2.112 -4.922,4.223 -7.458,6.398c-54.634,47.012 -107.493,98.497 -149.738,157.083c-5.719,7.927 -11.558,15.758 -17.397,23.596c-33.187,45.168 -61.274,92.818 -87.907,142.09c-1.612,2.981 -3.223,5.962 -4.883,9.033c-107.031,200.489 -147.941,441.152 -115.951,665.967c0.515,3.822 1.03,7.644 1.561,11.582c22.754,165.349 83.995,329.201 177.606,467.585c2.898,4.321 2.898,4.321 5.855,8.73c28.737,42.586 59.632,82.394 94.145,120.436c2.445,2.703 4.89,5.405 7.41,8.189c53.181,58.461 108.69,109.683 172.188,156.757c6.659,4.962 13.246,10.02 19.816,15.1c138.203,105.154 308.964,163.091 478.19,191.829c3.994,0.68 7.988,1.361 12.103,2.061c265.869,43.2 559.202,-32.009 778.228,-186.488c87.827,-63.396 175.116,-137.95 240.398,-224.948c3.228,-4.087 6.456,-8.174 9.782,-12.386c113.935,-144.271 188.316,-311.542 223.552,-491.78c0.947,-4.748 0.947,-4.748 1.914,-9.591c4.013,-20.348 7.463,-40.741 10.586,-61.243c0.859,-5.398 1.718,-10.796 2.604,-16.357c39.855,-278.25 -48.791,-573.819 -214.844,-796.924c-48.14,-63.619 -101.25,-127.329 -162.76,-178.385c-4.077,-3.61 -8.154,-7.219 -12.354,-10.938c-139.091,-122.993 -306.23,-201.902 -486.053,-244.991c-8.366,-2.027 -16.695,-4.201 -25.015,-6.409c-67.956,-17.486 -138.956,-18.208 -208.705,-17.915c-12.713,0.045 -25.424,-0 -38.137,-0.053c-61.198,-0.047 -119.72,4.713 -179.736,17.285Z" style="fill:#b6b6b5;fill-rule:nonzero;"/><path d="M4938.75,4015.2c5.567,4.85 5.567,4.85 11.247,9.798c3.497,2.976 6.993,5.951 10.596,9.017c10.596,9.265 20.852,18.804 31.071,28.483c3.091,2.855 3.091,2.855 6.246,5.768c96.393,89.364 159.992,211.562 185.42,340.065c1.741,7.42 1.741,7.42 3.516,14.991c21.916,99.17 12.322,205.015 -16.016,301.676c-0.886,3.475 -1.772,6.95 -2.685,10.531c-20.634,77.874 -63.328,156.54 -113.981,218.636c-1.892,2.336 -3.783,4.673 -5.732,7.08c-28.791,35.357 -59.125,67.93 -94.268,97.086c-2.224,1.851 -4.448,3.701 -6.739,5.607c-115.424,94.156 -260.579,142.198 -408.365,142.05c-2.945,0.001 -5.889,0.002 -8.922,0.004c-56.172,-0.189 -111.254,-5.249 -165.297,-21.359c-3.702,-1.085 -7.403,-2.171 -11.216,-3.289c-34.522,-10.462 -67.123,-23.77 -99.461,-39.679c-2.629,-1.278 -5.259,-2.556 -7.967,-3.872c-61.599,-30.281 -113.63,-69.404 -162.867,-116.962c-3.808,-3.545 -7.616,-7.09 -11.539,-10.742c-117.79,-112.565 -189.287,-280.46 -193.474,-443.001c-2.226,-183.057 59.6,-353.677 186.41,-487.654c226.499,-231.82 617.3,-275.653 874.023,-64.234Z" style="fill:#535352;fill-rule:nonzero;"/><path d="M1000,5700l4.167,0c-0.022,3.101 -0.044,6.202 -0.066,9.397c-0.177,29.361 -0.193,58.717 -0.032,88.078c0.078,15.092 0.095,30.179 -0.031,45.271c-0.118,14.592 -0.073,29.175 0.082,43.767c0.046,8.218 -0.075,16.436 -0.198,24.653c0.52,32.724 5.578,50.271 29.253,73.368c50.792,42.662 109.329,66.853 175.405,66.515c6.2,0.019 6.2,0.019 12.526,0.037c13.889,0.031 27.776,0.003 41.665,-0.026c10.086,0.01 20.172,0.024 30.257,0.041c22.017,0.028 44.034,0.031 66.051,0.011c32.96,-0.03 65.921,-0.012 98.881,0.015c56.174,0.045 112.348,0.051 168.522,0.035c56.936,-0.017 113.873,-0.015 170.809,0.009c3.594,0.002 7.189,0.003 10.892,0.005c14.64,0.006 29.28,0.012 43.92,0.019c148.676,0.065 297.353,0.076 446.029,0.066c20.55,-0.002 41.1,-0.003 61.65,-0.004c4.081,-0.001 8.163,-0.001 12.368,-0.001c90.417,-0.005 180.833,0.005 271.25,0.019c20.64,0.004 41.279,0.007 61.919,0.01c8.283,0.001 33.062,0.005 37.292,0.006c8.305,0.001 16.61,0.002 24.915,0.003c235.694,0.037 471.387,0.056 707.081,0.038c4.366,-0 8.731,-0.001 13.229,-0.001c48.681,-0.004 97.363,-0.007 146.044,-0.011c6.593,-0.001 6.593,-0.001 13.319,-0.001c26.662,-0.003 26.662,-0.003 53.325,-0.005c281.15,-0.023 562.3,0.009 843.45,0.087c70.84,0.019 141.68,0.039 212.52,0.057c4.362,0.002 8.723,0.003 13.217,0.004c134.407,0.035 268.814,0.054 403.221,0.058c4.22,-0 8.439,-0 12.786,0c92.613,0.002 185.227,0.001 277.841,-0.004c33.138,-0.002 66.276,-0.004 99.414,-0.005c8.244,-0 16.488,-0.001 24.732,-0.001c131.421,-0.006 262.842,0.024 394.264,0.071c136.025,0.048 272.05,0.051 408.075,0c14.603,-0.005 29.206,-0.01 43.809,-0.015c5.375,-0.002 5.375,-0.002 10.86,-0.003c56.779,-0.018 113.558,0.005 170.338,0.047c55.812,0.04 111.624,0.035 167.437,-0.018c32.732,-0.029 65.464,-0.024 98.196,0.031c24.287,0.037 48.574,0.009 72.861,-0.044c9.774,-0.012 19.549,-0.002 29.323,0.031c67.91,0.739 67.91,0.739 133.799,-14.11c3.602,-1.165 7.204,-2.33 10.915,-3.531c67.119,-22.516 119.836,-76.276 151.585,-138.136c8.654,-20.29 14.984,-41.244 20.833,-62.5c0.736,-2.463 1.471,-4.926 2.229,-7.464c2.561,-12.163 2.861,-23.929 3.256,-36.351c0.159,-4.695 0.318,-9.391 0.481,-14.229c0.18,-5.939 0.359,-11.878 0.544,-17.997c0.602,-18.907 1.204,-37.813 1.823,-57.292l220.834,0c0.501,67.498 0.501,67.498 0.61,96.59c0.074,19.74 0.162,39.479 0.333,59.217c0.137,15.94 0.211,31.879 0.243,47.82c0.022,6.037 0.067,12.075 0.135,18.112c0.858,79.17 -17.453,149.608 -67.988,211.594c-2.524,3.304 -5.049,6.607 -7.65,10.01c-41.509,51.23 -107.403,80.093 -171.517,89.99c-14.644,1.071 -29.205,1.123 -43.883,1.05c-4.246,0.012 -8.491,0.024 -12.865,0.037c-14.22,0.03 -28.439,0.002 -42.659,-0.026c-10.344,0.01 -20.688,0.023 -31.033,0.04c-22.557,0.029 -45.115,0.031 -67.673,0.011c-33.77,-0.03 -67.54,-0.012 -101.31,0.015c-57.556,0.045 -115.113,0.051 -172.669,0.035c-58.331,-0.016 -116.661,-0.014 -174.991,0.01c-5.526,0.002 -5.526,0.002 -11.163,0.004c-15.004,0.006 -30.007,0.013 -45.01,0.019c-152.332,0.065 -304.664,0.076 -456.996,0.066c-21.052,-0.001 -42.104,-0.003 -63.155,-0.004c-4.182,-0 -8.363,-0.001 -12.671,-0.001c-92.639,-0.005 -185.278,0.006 -277.917,0.02c-21.149,0.003 -42.298,0.006 -63.447,0.009c-8.488,0.001 -33.878,0.005 -38.213,0.006c-8.51,0.001 -17.02,0.002 -25.53,0.004c-241.494,0.036 -482.988,0.055 -724.483,0.037c-4.472,0 -8.945,-0 -13.553,-0.001c-49.874,-0.003 -99.747,-0.007 -149.621,-0.011c-4.503,-0 -9.006,-0.001 -13.646,-0.001c-37.417,-0.003 -37.417,-0.003 -54.631,-0.004c-288.057,-0.024 -576.115,0.008 -864.172,0.086c-72.586,0.02 -145.172,0.039 -217.758,0.058c-4.469,0.001 -8.938,0.002 -13.543,0.003c-137.718,0.035 -275.436,0.055 -413.154,0.058c-6.484,0 -6.484,0 -13.1,0c-94.892,0.003 -189.785,0.001 -284.678,-0.004c-33.953,-0.002 -67.906,-0.003 -101.859,-0.005c-8.447,-0 -16.893,-0 -25.34,-0.001c-134.653,-0.006 -269.306,0.024 -403.959,0.071c-139.364,0.049 -278.727,0.051 -418.091,0.001c-14.96,-0.006 -29.921,-0.011 -44.881,-0.015c-5.508,-0.002 -5.508,-0.002 -11.127,-0.004c-58.173,-0.018 -116.347,0.006 -174.52,0.047c-57.181,0.04 -114.361,0.035 -171.542,-0.017c-33.536,-0.03 -67.071,-0.025 -100.607,0.03c-24.881,0.037 -49.762,0.01 -74.643,-0.044c-10.015,-0.011 -20.03,-0.002 -30.045,0.031c-114.561,0.352 -114.561,0.352 -167.466,-29.214c-2.627,-1.44 -5.253,-2.879 -7.96,-4.363c-24.538,-13.97 -44.775,-31.113 -64.436,-51.366c-2.991,-2.954 -5.983,-5.908 -9.065,-8.952c-22.46,-23.432 -36.197,-49.013 -49.268,-78.548c-2.032,-4.476 -4.065,-8.953 -6.158,-13.565c-27.923,-65.799 -20.355,-142.97 -19.7,-212.984c0.129,-15.366 0.185,-30.732 0.248,-46.099c0.132,-29.951 0.345,-59.902 0.61,-89.852Z" style="fill:#c6c6c6;fill-rule:nonzero;"/><path d="M4808.33,3337.5c5.385,1.15 5.385,1.15 10.879,2.323c124.736,26.753 248.288,79.151 355.788,147.677c3.948,2.503 3.948,2.503 7.975,5.056c121.144,77.366 236.165,174.161 321.192,290.777c3.265,4.072 6.531,8.143 9.896,12.338c93.398,116.448 159.073,253.761 202.604,395.996c1.385,4.313 2.771,8.626 4.199,13.069c9.663,31.538 16.723,63.502 23.405,95.785c0.859,4.041 1.719,8.082 2.604,12.246c14.373,71.832 17.203,144.127 16.927,217.181c-0.006,4.094 -0.012,8.188 -0.019,12.405c-0.172,63.174 -3.127,124.438 -13.783,186.814c-1.223,7.839 -2.444,15.679 -3.662,23.519c-8.619,53.111 -21.718,104.397 -38.005,155.647c-1.803,5.71 -1.803,5.71 -3.643,11.536c-35.823,111.789 -86.108,221.946 -154.69,317.631c-2.056,2.892 -4.112,5.785 -6.23,8.765c-43.194,60.569 -90.205,116.042 -140.905,170.402c-2.691,2.893 -5.381,5.786 -8.153,8.766c-18.09,19.175 -37.148,36.653 -57.212,53.734c-4.114,3.62 -8.229,7.24 -12.467,10.97c-135.883,117.47 -295.051,196.842 -466.7,247.363c-3.076,0.929 -6.152,1.857 -9.322,2.814c-59.712,17.845 -120.589,26.937 -182.344,34.686c-2.836,0.364 -5.671,0.728 -8.592,1.103c-22.406,2.715 -44.483,3.785 -67.043,3.91c-5.309,0.044 -5.309,0.044 -10.724,0.088c-11.405,0.072 -22.809,0.099 -34.214,0.107c-5.857,0.007 -5.857,0.007 -11.831,0.013c-63.662,-0.046 -125.5,-3.238 -188.43,-13.554c-3.741,-0.58 -7.483,-1.16 -11.338,-1.758c-201.623,-31.818 -392.107,-121.61 -551.162,-248.242c-3.845,-3.035 -7.691,-6.07 -11.653,-9.196c-64.482,-51.716 -124.505,-109.349 -175.847,-174.138c-5.989,-7.118 -11.978,-14.236 -17.968,-21.354c-143.683,-176.552 -230.193,-391.745 -261.198,-616.146c-0.494,-3.565 -0.989,-7.13 -1.498,-10.803c-17.94,-136.317 -9.84,-280.652 22.331,-414.197c0.897,-3.782 1.794,-7.564 2.718,-11.46c43.091,-179.394 123.925,-344.365 238.949,-488.54c3.346,-4.237 6.692,-8.475 10.14,-12.841c51.401,-64.046 108.699,-123.793 173.193,-174.659c4.518,-3.775 9.026,-7.562 13.525,-11.36c282.346,-235.992 677.367,-313.878 1032.31,-234.473Zm-479.166,91.146c-5.258,1.085 -5.258,1.085 -10.621,2.192c-10.361,2.17 -20.706,4.398 -31.046,6.662c-2.9,0.633 -5.799,1.266 -8.787,1.919c-175.956,39.25 -339.976,124.276 -474.546,243.914c-2.461,2.112 -4.922,4.223 -7.458,6.398c-54.634,47.012 -107.493,98.497 -149.738,157.083c-5.719,7.927 -11.558,15.758 -17.397,23.596c-33.187,45.168 -61.274,92.818 -87.907,142.09c-1.612,2.981 -3.223,5.962 -4.883,9.033c-107.031,200.489 -147.941,441.152 -115.951,665.967c0.515,3.822 1.03,7.644 1.561,11.582c22.754,165.349 83.995,329.201 177.606,467.585c2.898,4.321 2.898,4.321 5.855,8.73c28.737,42.586 59.632,82.394 94.145,120.436c2.445,2.703 4.89,5.405 7.41,8.189c53.181,58.461 108.69,109.683 172.188,156.757c6.659,4.962 13.246,10.02 19.816,15.1c138.203,105.154 308.964,163.091 478.19,191.829c3.994,0.68 7.988,1.361 12.103,2.061c265.869,43.2 559.202,-32.009 778.228,-186.488c87.827,-63.396 175.116,-137.95 240.398,-224.948c3.228,-4.087 6.456,-8.174 9.782,-12.386c113.935,-144.271 188.316,-311.542 223.552,-491.78c0.947,-4.748 0.947,-4.748 1.914,-9.591c4.013,-20.348 7.463,-40.741 10.586,-61.243c0.859,-5.398 1.718,-10.796 2.604,-16.357c39.855,-278.25 -48.791,-573.819 -214.844,-796.924c-48.14,-63.619 -101.25,-127.329 -162.76,-178.385c-4.077,-3.61 -8.154,-7.219 -12.354,-10.938c-139.091,-122.993 -306.23,-201.902 -486.053,-244.991c-8.366,-2.027 -16.695,-4.201 -25.015,-6.409c-67.956,-17.486 -138.956,-18.208 -208.705,-17.915c-12.713,0.045 -25.424,-0 -38.137,-0.053c-61.198,-0.047 -119.72,4.713 -179.736,17.285Z" style="fill:#040404;fill-rule:nonzero;"/><path d="M6201.34,2807.19c4.471,-0.033 4.471,-0.033 9.033,-0.066c9.94,-0.062 19.879,-0.066 29.82,-0.068c7.147,-0.032 14.295,-0.067 21.442,-0.105c19.388,-0.092 38.776,-0.128 58.165,-0.15c12.13,-0.015 24.259,-0.041 36.389,-0.071c42.365,-0.102 84.729,-0.156 127.095,-0.171c39.407,-0.015 78.814,-0.139 118.221,-0.314c33.893,-0.145 67.786,-0.209 101.68,-0.212c20.216,-0.003 40.43,-0.039 60.646,-0.158c19.036,-0.11 38.07,-0.118 57.107,-0.052c6.953,0.008 13.907,-0.02 20.86,-0.086c55.515,-0.5 100.613,7.983 141.939,48.038c34.106,37.538 43.191,81.929 42.944,131.63c0.028,4.106 0.057,8.212 0.086,12.442c0.076,13.424 0.06,26.846 0.037,40.27c0.019,9.427 0.041,18.854 0.066,28.281c0.037,19.703 0.027,39.406 -0.014,59.11c-0.048,25.128 0.036,50.253 0.158,75.381c0.076,19.454 0.075,38.907 0.051,58.361c-0.001,9.259 0.024,18.518 0.076,27.776c0.334,69.297 -1.198,126.673 -51.363,179.216c-41.287,39.457 -86.576,40.389 -140.681,40.212c-7.362,0.037 -14.724,0.08 -22.085,0.13c-19.896,0.111 -39.79,0.116 -59.685,0.095c-16.65,-0.009 -33.299,0.032 -49.949,0.072c-39.296,0.092 -78.592,0.096 -117.888,0.045c-40.455,-0.05 -80.907,0.053 -121.361,0.23c-34.817,0.147 -69.634,0.197 -104.452,0.17c-20.758,-0.015 -41.514,0.006 -62.272,0.122c-19.527,0.106 -39.049,0.089 -58.575,-0.02c-7.137,-0.019 -14.273,0.003 -21.41,0.072c-46.904,0.421 -82.41,-4.661 -118.92,-36.879c-41.503,-40.778 -46.555,-89.344 -47.1,-144.512c-0.025,-14.493 0.054,-28.984 0.143,-43.477c-0.003,-10.192 -0.014,-20.384 -0.03,-30.576c-0.012,-21.276 0.049,-42.55 0.163,-63.826c0.143,-27.194 0.117,-54.384 0.039,-81.578c-0.044,-21.015 -0.006,-42.03 0.056,-63.045c0.022,-10.025 0.02,-20.05 -0.006,-30.075c-0.023,-14.027 0.062,-28.05 0.176,-42.076c-0.027,-4.09 -0.054,-8.18 -0.082,-12.394c0.604,-44.108 16.735,-81.928 48.138,-113.1c32.09,-24.44 60.55,-38.493 101.343,-38.642Z" style="fill:#313131;fill-rule:nonzero;"/><path d="M5466.67,3529.17c21.636,18.124 42.036,37.064 61.979,57.031c2.93,2.934 5.86,5.867 8.879,8.89c19.021,19.244 36.844,38.787 53.478,60.148c8.722,11.081 17.705,21.89 26.754,32.703c19.034,23.237 36.04,47.408 52.555,72.478c2.869,4.334 5.737,8.669 8.692,13.134c203.787,310.624 279.168,680.359 206.413,1045.2c-2.587,12.33 -5.248,24.64 -7.98,36.938c-2.221,10.004 -4.343,20.024 -6.441,30.054c-14.893,69.211 -38.696,136.866 -66.829,201.758c-1.567,3.623 -3.134,7.247 -4.749,10.98c-56.666,129.839 -130.795,256.381 -228.585,359.853c-5.059,5.795 -10.095,11.61 -15.104,17.448c-11.462,13.179 -23.55,25.474 -36.019,37.696c-7.235,7.382 -13.847,15.066 -20.491,22.981c-36.312,41.88 -80.338,75.882 -124.219,109.375c-6.244,4.826 -6.244,4.826 -12.614,9.75c-105.922,80.899 -224.071,146.095 -349.886,190.25c-5.495,2.043 -10.986,4.1 -16.471,6.169c-66.922,25.163 -134.296,42.048 -204.362,56.331c-5.185,1.073 -5.185,1.073 -10.474,2.167c-20.041,4.085 -40.103,7.506 -60.36,10.333c-3.004,0.429 -6.009,0.858 -9.104,1.3c-56.166,7.563 -112.454,7.798 -169.021,7.815c-3.609,0.004 -7.219,0.008 -10.938,0.013c-70.868,-0.01 -140.464,-2.054 -210.416,-14.336c-5.409,-0.936 -10.817,-1.872 -16.39,-2.837c-259.668,-46.077 -501.535,-168.479 -694.075,-348.514c-9.432,-8.755 -19.041,-17.157 -28.858,-25.472c-13.8,-11.946 -25.564,-24.976 -37.337,-38.9c-7.176,-8.214 -14.716,-15.764 -22.559,-23.339c-12.201,-12.012 -21.445,-24.439 -30.468,-39.063c-7.688,-11.586 -15.422,-23.14 -23.158,-34.693c-7.332,-10.984 -14.615,-21.997 -21.894,-33.015c-2.544,-3.792 -5.087,-7.584 -7.707,-11.491c-2.382,-3.62 -4.764,-7.24 -7.219,-10.97c-2.185,-3.289 -4.37,-6.577 -6.621,-9.965c-2.096,-4.059 -2.096,-4.059 -4.235,-8.199c1.375,-2.75 2.75,-5.5 4.167,-8.334c8.426,9.022 16.847,18.05 25.26,27.084c3.767,4.044 3.767,4.044 7.61,8.17c12.122,13.054 24.108,26.147 35.62,39.746c35.944,41.475 75.928,78.6 119.01,112.5c7.12,5.987 14.238,11.977 21.354,17.969c159.962,130.567 355.815,217.927 557.813,257.031c3.658,0.719 7.316,1.437 11.085,2.177c158.382,30.086 318.739,24.621 476.415,-6.343c-4.125,-2.75 -8.25,-5.5 -12.5,-8.334c2.906,-0.374 5.812,-0.748 8.806,-1.133c276.321,-36.306 568.727,-163.451 751.138,-382.526c7.668,-9.134 15.782,-17.769 23.91,-26.497c163.049,-180.856 263.525,-412.94 299.479,-652.344c2.75,2.75 5.5,5.5 8.333,8.334c33.521,-150.758 41.598,-309.108 20.834,-462.5c-0.537,-4.064 -1.075,-8.128 -1.628,-12.315c-33.951,-249.093 -131.995,-498.201 -300.456,-687.425c-10.416,-12.76 -10.416,-12.76 -10.416,-25.26Z" style="fill:#949493;fill-rule:nonzero;"/><path d="M5779.17,3737.5l1750,0l-0,1862.5l-1950,0c1.375,-2.75 2.75,-5.5 4.166,-8.333c569.25,1.375 1138.5,2.75 1725,4.166l0,-1854.17c-249.304,0.601 -498.609,1.203 -755.468,1.823c-78.85,0.179 -157.699,0.359 -238.938,0.544c-70.403,0.18 -70.403,0.18 -140.807,0.366c-31.468,0.082 -62.936,0.154 -94.404,0.218c-36.255,0.073 -72.51,0.161 -108.765,0.267c-18.563,0.054 -37.125,0.101 -55.688,0.129c-16.762,0.027 -33.524,0.072 -50.287,0.132c-6.081,0.019 -12.163,0.03 -18.244,0.034c-8.247,0.006 -16.493,0.04 -24.739,0.076c-6.885,0.016 -6.885,0.016 -13.909,0.033c-11.663,0.057 -11.663,0.057 -23.751,4.711c-2.062,-6.187 -2.062,-6.187 -4.166,-12.5Z" style="fill:#999a99;fill-rule:nonzero;"/><path d="M5245.83,3666.67c22.975,16.576 44.251,34.202 64.844,53.646c2.737,2.571 5.475,5.142 8.295,7.792c15.945,15.114 31.225,30.426 45.27,47.351c7.693,9.194 15.865,17.858 24.039,26.627c25.449,28.263 47.88,58.726 70.052,89.584c1.811,2.518 3.622,5.036 5.487,7.631c97.77,137.581 158.085,297.582 186.18,463.202c0.897,5.108 1.794,10.216 2.718,15.479c8.951,53.903 10.651,108.09 10.563,162.646c-0.002,2.922 -0.005,5.844 -0.007,8.855c-0.106,45.143 -1.947,89.238 -9.107,133.853c-0.537,3.573 -1.075,7.147 -1.628,10.828c-33.781,222.942 -124.116,427.876 -273.372,597.506c-2.181,2.539 -4.362,5.079 -6.608,7.695c-42.078,48.79 -88.012,94.808 -139.226,133.971c-6.252,4.963 -6.252,4.963 -12.63,10.026c-223.267,176.523 -518.294,262.766 -801.432,230.86c-104.767,-13.197 -205.904,-37.56 -303.113,-79.21c-5.431,-2.32 -10.876,-4.605 -16.333,-6.864c-75.977,-31.463 -146.842,-71.744 -212.325,-121.478c-4.463,-3.318 -8.928,-6.632 -13.395,-9.945c-53.299,-39.89 -102.913,-83.802 -149.105,-131.722c4.125,-1.375 8.25,-2.75 12.5,-4.167c2.23,2.074 4.459,4.148 6.757,6.285c22.738,20.735 46.204,38.781 71.889,55.694c5.718,3.769 5.718,3.769 11.552,7.614c229.965,149.314 525.444,201.024 793.656,146.163c179.418,-39.142 341.082,-116.154 482.813,-232.422c2.394,-1.959 4.788,-3.919 7.255,-5.937c54.096,-44.562 103.96,-92.718 146.911,-148.23c4.137,-5.173 8.277,-10.343 12.419,-15.511c35.893,-45.282 66.87,-92.9 95.915,-142.822c1.874,-3.209 3.747,-6.417 5.678,-9.723c57.906,-100.618 98.375,-215.202 122.707,-328.559c1.22,-5.629 1.22,-5.629 2.464,-11.372c14.505,-72.13 16.678,-144.701 16.546,-218.055c-0.001,-6.831 -0.001,-6.831 -0.002,-13.801c-0.356,-184.936 -40.081,-358.47 -126.56,-522.657c-1.703,-3.303 -3.407,-6.606 -5.162,-10.009c-16.599,-31.445 -35.708,-60.907 -55.497,-90.399c-5.476,-8.17 -10.911,-16.367 -16.343,-24.568c-18.45,-27.693 -37.335,-54.33 -58.856,-79.784c-5.809,-7.74 -5.809,-7.74 -5.809,-16.073Z" style="fill:#c5c5c4;fill-rule:nonzero;"/><path d="M4938.75,4015.2c5.567,4.85 5.567,4.85 11.247,9.798c3.497,2.976 6.993,5.951 10.596,9.017c10.596,9.265 20.852,18.804 31.071,28.483c3.091,2.855 3.091,2.855 6.246,5.768c96.393,89.364 159.992,211.562 185.42,340.065c1.741,7.42 1.741,7.42 3.516,14.991c21.916,99.17 12.322,205.015 -16.016,301.676c-0.886,3.475 -1.772,6.95 -2.685,10.531c-20.634,77.874 -63.328,156.54 -113.981,218.636c-1.892,2.336 -3.783,4.673 -5.732,7.08c-28.791,35.357 -59.125,67.93 -94.268,97.086c-2.224,1.851 -4.448,3.701 -6.739,5.607c-115.424,94.156 -260.579,142.198 -408.365,142.05c-2.945,0.001 -5.889,0.002 -8.922,0.004c-56.172,-0.189 -111.254,-5.249 -165.297,-21.359c-3.702,-1.085 -7.403,-2.171 -11.216,-3.289c-34.522,-10.462 -67.123,-23.77 -99.461,-39.679c-2.629,-1.278 -5.259,-2.556 -7.967,-3.872c-61.599,-30.281 -113.63,-69.404 -162.867,-116.962c-3.808,-3.545 -7.616,-7.09 -11.539,-10.742c-117.79,-112.565 -189.287,-280.46 -193.474,-443.001c-2.226,-183.057 59.6,-353.677 186.41,-487.654c226.499,-231.82 617.3,-275.653 874.023,-64.234Zm-542.92,-15.202c-3.076,0.849 -6.152,1.697 -9.322,2.572c-93.939,26.363 -170.46,76.339 -240.678,143.261c-2.228,2.107 -4.456,4.214 -6.752,6.385c-18.441,17.855 -34.034,36.833 -48.977,57.678c-3.492,4.863 -3.492,4.863 -7.054,9.823c-85.656,121.816 -117.684,270.831 -94.376,417.943c18.97,102.679 63.693,196.219 132.159,274.838c2.224,2.729 4.448,5.457 6.739,8.268c15.46,18.887 32.903,34.434 51.595,50.065c3.34,2.922 6.681,5.844 10.123,8.855c113.077,96.634 255.516,133.998 402.377,124.479c132.008,-14.176 241.714,-72.52 337.5,-162.5c2.454,-2.186 4.909,-4.372 7.438,-6.625c26.606,-24.719 46.93,-55.355 67.562,-85.042c2.417,-3.475 4.834,-6.95 7.324,-10.531c31.443,-48.883 53.385,-108.412 67.676,-164.469c1.24,-4.533 2.481,-9.066 3.759,-13.737c31.523,-135.389 4.443,-287.463 -66.638,-406.366c-10.217,-16.111 -21.39,-31.402 -32.955,-46.564c-2.954,-3.883 -5.908,-7.766 -8.951,-11.767c-58.692,-74.266 -129.265,-129.48 -216.049,-167.399c-4.554,-1.99 -4.554,-1.99 -9.2,-4.021c-42.122,-18.06 -82.949,-30.734 -128.3,-37.646c-4.259,-0.757 -8.518,-1.515 -12.907,-2.295c-71.115,-8.186 -143.322,-5.144 -212.093,14.795Z" style="fill:#040504;fill-rule:nonzero;"/><path d="M6201.34,2807.19c4.471,-0.033 4.471,-0.033 9.033,-0.066c9.94,-0.062 19.879,-0.066 29.82,-0.068c7.147,-0.032 14.295,-0.067 21.442,-0.105c19.388,-0.092 38.776,-0.128 58.165,-0.15c12.13,-0.015 24.259,-0.041 36.389,-0.071c42.365,-0.102 84.729,-0.156 127.095,-0.171c39.407,-0.015 78.814,-0.139 118.221,-0.314c33.893,-0.145 67.786,-0.209 101.68,-0.212c20.216,-0.003 40.43,-0.039 60.646,-0.158c19.036,-0.11 38.07,-0.118 57.107,-0.052c6.953,0.008 13.907,-0.02 20.86,-0.086c55.515,-0.5 100.613,7.983 141.939,48.038c34.106,37.538 43.191,81.929 42.944,131.63c0.028,4.106 0.057,8.212 0.086,12.442c0.076,13.424 0.06,26.846 0.037,40.27c0.019,9.427 0.041,18.854 0.066,28.281c0.037,19.703 0.027,39.406 -0.014,59.11c-0.048,25.128 0.036,50.253 0.158,75.381c0.076,19.454 0.075,38.907 0.051,58.361c-0.001,9.259 0.024,18.518 0.076,27.776c0.334,69.297 -1.198,126.673 -51.363,179.216c-41.287,39.457 -86.576,40.389 -140.681,40.212c-7.362,0.037 -14.724,0.08 -22.085,0.13c-19.896,0.111 -39.79,0.116 -59.685,0.095c-16.65,-0.009 -33.299,0.032 -49.949,0.072c-39.296,0.092 -78.592,0.096 -117.888,0.045c-40.455,-0.05 -80.907,0.053 -121.361,0.23c-34.817,0.147 -69.634,0.197 -104.452,0.17c-20.758,-0.015 -41.514,0.006 -62.272,0.122c-19.527,0.106 -39.049,0.089 -58.575,-0.02c-7.137,-0.019 -14.273,0.003 -21.41,0.072c-46.904,0.421 -82.41,-4.661 -118.92,-36.879c-41.503,-40.778 -46.555,-89.344 -47.1,-144.512c-0.025,-14.493 0.054,-28.984 0.143,-43.477c-0.003,-10.192 -0.014,-20.384 -0.03,-30.576c-0.012,-21.276 0.049,-42.55 0.163,-63.826c0.143,-27.194 0.117,-54.384 0.039,-81.578c-0.044,-21.015 -0.006,-42.03 0.056,-63.045c0.022,-10.025 0.02,-20.05 -0.006,-30.075c-0.023,-14.027 0.062,-28.05 0.176,-42.076c-0.027,-4.09 -0.054,-8.18 -0.082,-12.394c0.604,-44.108 16.735,-81.928 48.138,-113.1c32.09,-24.44 60.55,-38.493 101.343,-38.642Zm-38.843,121.976c-7.821,11.757 -9.381,20.672 -9.42,34.665c-0.029,3.569 -0.059,7.138 -0.089,10.815c0.01,3.881 0.021,7.762 0.031,11.761c-0.021,4.115 -0.042,8.229 -0.064,12.468c-0.058,13.607 -0.054,27.214 -0.045,40.821c-0.016,9.455 -0.034,18.91 -0.054,28.365c-0.031,19.821 -0.03,39.642 -0.008,59.464c0.025,25.407 -0.046,50.813 -0.143,76.22c-0.061,19.528 -0.065,39.055 -0.052,58.582c-0.002,9.368 -0.024,18.736 -0.066,28.104c-0.051,13.096 -0.023,26.19 0.025,39.287c-0.031,3.873 -0.063,7.746 -0.096,11.736c0.165,20.23 0.98,33.827 14.148,50.212c1.619,2.207 3.239,4.414 4.907,6.688c11.624,8.897 21.525,7.399 36.005,7.427c4.358,0.034 4.358,0.034 8.804,0.068c9.76,0.06 19.518,0.03 29.277,0c6.988,0.024 13.976,0.053 20.963,0.087c19,0.075 37.999,0.07 56.999,0.046c15.854,-0.013 31.706,0.012 47.559,0.038c37.399,0.058 74.798,0.052 112.197,0.004c38.596,-0.048 77.191,0.011 115.787,0.123c33.121,0.092 66.242,0.12 99.364,0.095c19.789,-0.014 39.576,-0.004 59.365,0.068c18.612,0.064 37.222,0.048 55.834,-0.031c6.831,-0.015 13.662,-0.002 20.493,0.042c9.327,0.055 18.648,0.007 27.975,-0.067c5.219,-0.001 10.438,-0.002 15.815,-0.003c16.15,-2.466 22.955,-7.415 34.489,-18.752c11.483,-18.959 9.595,-40.316 9.61,-61.815c0.052,-6.163 0.052,-6.163 0.105,-12.449c0.1,-13.565 0.137,-27.129 0.165,-40.694c0.037,-9.439 0.075,-18.878 0.114,-28.316c0.068,-19.779 0.1,-39.558 0.112,-59.337c0.023,-25.338 0.18,-50.672 0.37,-76.009c0.124,-19.492 0.154,-38.983 0.158,-58.475c0.018,-9.342 0.07,-18.683 0.157,-28.024c0.112,-13.066 0.092,-26.126 0.04,-39.193c0.061,-3.852 0.123,-7.703 0.187,-11.671c-0.204,-17.937 -1.002,-30.148 -12.476,-44.425c-18.011,-17.006 -27.068,-19.809 -51.452,-19.901c-4.277,-0.033 -4.277,-0.033 -8.641,-0.066c-9.576,-0.063 -19.152,-0.066 -28.729,-0.068c-6.858,-0.032 -13.716,-0.067 -20.573,-0.105c-18.647,-0.092 -37.294,-0.129 -55.941,-0.15c-11.649,-0.015 -23.297,-0.041 -34.946,-0.071c-40.634,-0.102 -81.268,-0.156 -121.902,-0.171c-37.881,-0.015 -75.761,-0.139 -113.642,-0.314c-32.517,-0.144 -65.032,-0.209 -97.549,-0.212c-19.424,-0.003 -38.846,-0.04 -58.269,-0.158c-18.273,-0.109 -36.544,-0.118 -54.818,-0.052c-6.702,0.008 -13.404,-0.02 -20.105,-0.086c-9.163,-0.085 -18.316,-0.042 -27.478,0.034c-7.684,-0.013 -7.684,-0.013 -15.524,-0.025c-18.898,3.498 -25.497,9.798 -38.973,23.42Z" style="fill:#030303;fill-rule:nonzero;"/><path d="M1245.83,2666.67c183.857,-0.092 367.713,-0.18 551.57,-0.265c3.598,-0.001 7.196,-0.003 10.902,-0.005c385.518,-0.178 771.035,-0.332 1156.55,-0.436c8.564,-0.002 17.127,-0.005 25.691,-0.007c179.754,-0.049 359.509,-0.094 539.263,-0.135c90.297,-0.021 180.594,-0.043 270.891,-0.065c13.621,-0.003 27.242,-0.006 40.863,-0.009c209.736,-0.051 419.472,-0.117 629.208,-0.223c4.51,-0.002 9.019,-0.004 13.665,-0.007c72.703,-0.037 145.406,-0.075 218.109,-0.113c209.414,-0.11 418.829,-0.211 628.243,-0.254c4.307,-0.001 8.613,-0.002 13.051,-0.003c94.544,-0.019 189.089,-0.034 283.633,-0.045c38.042,-0.004 76.084,-0.009 114.126,-0.015c4.164,-0 8.327,-0.001 12.617,-0.001c134.134,-0.019 268.268,-0.09 402.402,-0.189c135.126,-0.099 270.252,-0.147 405.379,-0.122c18.677,0.003 37.354,0.006 56.032,0.009c5.491,0 5.491,0 11.094,0.001c57.951,0.006 115.902,-0.043 173.852,-0.116c56.999,-0.071 113.997,-0.083 170.995,-0.031c33.407,0.029 66.813,0.012 100.219,-0.073c24.823,-0.058 49.646,-0.028 74.469,0.035c9.964,0.012 19.928,-0.004 29.892,-0.052c101.265,-0.452 189.766,14.948 267.396,85.324c201.415,207.397 83.22,769.797 83.22,887.63l-1829.17,0c1.375,-2.75 2.75,-5.5 4.167,-8.333c530.75,1.375 1061.5,2.75 1608.33,4.166c72.424,-507.655 72.424,-507.655 -71.119,-925.883c-27.909,-25.837 -50.36,-36.177 -88.357,-35.582c-4.179,-0.035 -8.359,-0.069 -12.666,-0.105c-14.023,-0.087 -28.039,0.005 -42.062,0.096c-10.191,-0.026 -20.382,-0.062 -30.573,-0.109c-22.236,-0.076 -44.469,-0.075 -66.704,-0.005c-33.286,0.103 -66.57,0.062 -99.856,-0.007c-56.728,-0.114 -113.456,-0.109 -170.184,-0.041c-57.492,0.07 -114.984,0.084 -172.476,0.032c-3.63,-0.003 -7.26,-0.007 -11,-0.01c-18.511,-0.017 -37.021,-0.035 -55.531,-0.053c-134.007,-0.129 -268.013,-0.137 -402.019,-0.081c-132.72,0.055 -265.44,0.058 -398.161,-0.008c-4.12,-0.002 -8.241,-0.004 -12.487,-0.006c-37.638,-0.018 -75.276,-0.038 -112.914,-0.057c-93.566,-0.05 -187.131,-0.092 -280.697,-0.128c-4.261,-0.001 -8.522,-0.003 -12.912,-0.005c-207.297,-0.079 -414.595,-0.067 -621.892,-0.047c-71.942,0.007 -143.884,0.013 -215.826,0.018c-6.692,0 -6.692,0 -13.52,0.001c-207.397,0.013 -414.793,-0.039 -622.189,-0.108c-13.464,-0.005 -26.927,-0.009 -40.391,-0.014c-89.222,-0.029 -178.444,-0.06 -267.666,-0.091c-177.532,-0.063 -355.064,-0.119 -532.596,-0.17c-8.455,-0.002 -16.91,-0.005 -25.364,-0.007c-380.636,-0.111 -761.272,-0.144 -1141.91,-0.144c-3.565,0 -7.129,0 -10.801,0c-178.265,0 -356.531,0.005 -534.796,0.014l0,-4.166Z" style="fill:#bfbfbe;fill-rule:nonzero;"/><path d="M5450,3512.5c-13.934,0 -16.952,-1.98 -27.865,-9.896c-2.594,-1.837 -5.188,-3.674 -7.861,-5.566c-1.96,-1.773 -3.921,-3.545 -5.941,-5.371l0,-8.334c-3.05,-1.09 -6.101,-2.18 -9.244,-3.304c-11.81,-5.125 -20.203,-10.942 -30.339,-18.831c-54.04,-40.038 -112.31,-74.623 -173.165,-103.2c-8.292,-3.929 -16.506,-7.993 -24.719,-12.083c-47.268,-23.274 -96.034,-41.419 -145.866,-58.415c-3.429,-1.172 -6.858,-2.343 -10.39,-3.55c-138.057,-46.62 -278.985,-64.051 -424.245,-64.419c-6.436,-0.018 -6.436,-0.018 -13.001,-0.037c-142.579,-0.092 -280.052,20.598 -414.864,68.006c-4.511,1.57 -4.511,1.57 -9.113,3.172c-198.902,69.626 -368.374,185.224 -520.054,330.161c-3.921,3.744 -7.841,7.488 -11.881,11.345c-20.483,20.007 -39.133,40.866 -56.983,63.248c-7.601,9.523 -15.279,18.932 -23.079,28.288c-89.239,107.444 -162.006,229.197 -212.223,359.619c-3.029,7.556 -6.066,15.109 -9.115,22.657c-1.267,3.217 -2.535,6.434 -3.841,9.749c-2.471,6.167 -5.032,12.299 -7.682,18.392c-38.909,91.249 -60.183,199.041 -71.81,296.859c-0.361,3.015 -0.721,6.03 -1.093,9.136c-6.725,58.279 -8.048,116.352 -8.022,174.978c-0.007,4.128 -0.014,8.257 -0.022,12.51c0.011,51.146 2.659,100.928 9.918,151.553c0.652,4.85 1.304,9.7 1.976,14.697c7.11,51.943 15.418,101.984 31.357,151.969c2.917,10.224 5.753,20.469 8.592,30.714c23.123,82.915 51.43,161.816 87.242,240.12c2.807,6.213 2.807,6.213 5.672,12.553c23.467,51.724 48.569,99.716 81.828,145.78c5.476,7.807 10.946,15.619 16.406,23.438c3.279,4.592 3.279,4.592 6.624,9.277c6.646,9.695 12.682,19.653 18.636,29.785c-13.375,-4.458 -15.393,-6.429 -23.519,-17.139c-2.102,-2.749 -4.204,-5.498 -6.37,-8.331c-2.253,-3.025 -4.507,-6.049 -6.829,-9.165c-2.383,-3.175 -4.766,-6.35 -7.221,-9.622c-7.62,-10.215 -15.176,-20.476 -22.727,-30.743c-3.578,-4.803 -3.578,-4.803 -7.229,-9.703c-94.4,-127.244 -161.081,-271.859 -205.271,-423.63c-0.853,-2.838 -1.705,-5.676 -2.583,-8.6c-55.49,-185.058 -71.633,-392.016 -39.084,-583.067c1.208,-7.235 1.208,-7.235 2.441,-14.616c46.427,-269.961 165.281,-517.861 351.726,-718.717c4.455,-4.887 8.909,-9.776 13.362,-14.665c46.377,-50.648 95.131,-96.266 149.809,-137.828c7.834,-5.972 15.61,-12.015 23.385,-18.064c303.753,-234.404 698.872,-323.693 1734.28,78.89Z" style="fill:#d9d9d7;fill-rule:nonzero;"/><path d="M4820.83,4062.5c119.282,65.919 205.005,179.496 245.834,308.333c1.536,4.491 3.072,8.981 4.655,13.607c44.803,135.391 24.651,286.455 -37.468,412.695c-67.946,133.254 -182.292,233.617 -323.698,281.771c-140.277,44.9 -291.708,33.625 -423.323,-32.78c-39.096,-20.609 -73.873,-46.988 -107.666,-75.293c-4.44,-3.665 -4.44,-3.665 -8.968,-7.405c-19.883,-16.83 -36.931,-35.056 -53.532,-55.095c-2.611,-3.029 -5.221,-6.058 -7.91,-9.179c-17.255,-20.596 -32.058,-42.124 -45.997,-65.039c-1.624,-2.643 -3.248,-5.286 -4.921,-8.009c-8.387,-14.135 -14.205,-26.381 -16.172,-42.773c12.901,9.383 23.107,19.193 33.073,31.511c60.173,69.283 150.344,112.038 237.76,135.156c4.109,1.094 4.109,1.094 8.301,2.209c134.444,34.084 276.865,-0.46 394.092,-69.038c31.585,-20.067 58.273,-44.816 85.107,-70.671c2.691,-2.428 5.382,-4.855 8.154,-7.357c83.937,-77.842 137.256,-212.029 142.364,-324.919c3.663,-140.272 -23.482,-284.412 -119.268,-392.984c-10.417,-12.24 -10.417,-12.24 -10.417,-24.74Z" style="fill:#3a3a3a;fill-rule:nonzero;"/><rect x="1004.17" y="3737.5" width="104.167" height="1858.33" style="fill:#e4e4e3;fill-rule:nonzero;"/><path d="M1598.72,2428.53c2.949,-0.018 5.899,-0.036 8.938,-0.055c9.957,-0.056 19.915,-0.081 29.872,-0.107c7.11,-0.033 14.22,-0.067 21.329,-0.103c23.415,-0.11 46.83,-0.173 70.245,-0.233c8.049,-0.022 16.098,-0.044 24.147,-0.067c33.478,-0.09 66.955,-0.168 100.432,-0.215c48.031,-0.068 96.061,-0.206 144.092,-0.443c33.74,-0.161 67.48,-0.243 101.221,-0.265c20.166,-0.015 40.331,-0.066 60.497,-0.2c18.974,-0.125 37.946,-0.152 56.921,-0.103c6.966,0.001 13.932,-0.034 20.897,-0.107c9.511,-0.094 19.012,-0.06 28.523,0.006c5.322,-0.013 10.644,-0.027 16.127,-0.041c17.703,3.285 23.578,9.53 34.708,23.408c17.436,34.872 8.333,77.679 8.333,116.667l-779.167,-0c0,-137.911 0,-137.911 52.885,-138.142Z" style="fill:#bababa;fill-rule:nonzero;"/><rect x="6370.83" y="3037.5" width="333.333" height="237.5" style="fill:#fafafa;fill-rule:nonzero;"/><path d="M2722.72,2457.22c4.615,-0.035 9.229,-0.071 13.984,-0.108c7.565,0.006 7.565,0.006 15.284,0.012c5.326,-0.028 10.653,-0.056 16.141,-0.085c14.601,-0.074 29.202,-0.093 43.803,-0.098c9.126,-0.006 18.253,-0.024 27.38,-0.046c31.854,-0.077 63.707,-0.111 95.561,-0.105c29.671,0.005 59.341,-0.083 89.011,-0.214c25.493,-0.109 50.985,-0.154 76.478,-0.149c15.217,0.002 30.433,-0.021 45.65,-0.11c16.978,-0.095 33.952,-0.057 50.93,-0.007c5.027,-0.047 10.054,-0.094 15.233,-0.142c26.242,0.198 43.176,0.631 62.829,18.833c8.333,12.5 8.333,12.5 8.333,91.667l-616.666,-0c-0,-79.167 -0,-79.167 16.666,-100c13.04,-8.85 23.813,-9.394 39.383,-9.448Z" style="fill:#ececeb;fill-rule:nonzero;"/><path d="M4447.92,4155.99c31.358,18.15 56.947,44.754 70.312,78.824c9.249,39.134 6.641,80.373 -14.062,115.186c-20.046,30.341 -49.985,51.943 -85.45,61.003c-44.201,6.374 -74.877,-1.625 -111.425,-26.628c-29.598,-23.478 -45.767,-58.18 -50.293,-95.329c-1.599,-37.458 7.909,-70.416 32.324,-99.202c43.302,-45.049 100.131,-60.597 158.594,-33.854Z" style="fill:#fcfcfa;fill-rule:nonzero;"/><path d="M4234.64,4418.49c19.481,11.527 31.889,27.296 40.365,48.177c3.91,23.428 3.434,42.735 -6.771,64.323c-17.116,18.467 -35.335,37.221 -61.133,41.39c-27.303,0.739 -44.505,-4.653 -65.429,-22.38c-20.935,-22.588 -27.452,-40.75 -26.84,-71.289c3.575,-23.405 16.259,-39.806 33.383,-55.566c24.982,-17.259 59.132,-16.001 86.425,-4.655Z" style="fill:#fafaf7;fill-rule:nonzero;"/><path d="M2170.83,2429.17c17.42,-0.517 34.836,-0.894 52.262,-1.145c5.921,-0.104 11.842,-0.246 17.761,-0.427c8.534,-0.254 17.062,-0.371 25.599,-0.463c5.128,-0.109 10.256,-0.218 15.539,-0.33c17.791,3.04 23.515,9.306 34.673,23.198c8.926,13.456 9.317,24.18 9.147,40.169c-0.021,4.019 -0.042,8.038 -0.063,12.179c-0.076,5.069 -0.152,10.138 -0.23,15.36c-0.172,16.157 -0.344,32.313 -0.521,48.959l-137.5,-0c-1.302,-45.313 -1.302,-45.313 -1.616,-59.324c-1.013,-27.794 -5.656,-51.998 -15.051,-78.176Z" style="fill:#8f8f8f;fill-rule:nonzero;"/><path d="M1587.37,2428.69c7.383,0 14.767,0.024 22.15,0.066c3.879,0.006 7.757,0.012 11.753,0.018c12.44,0.023 24.88,0.075 37.32,0.128c8.412,0.021 16.824,0.04 25.236,0.057c20.668,0.046 41.335,0.118 62.003,0.204l0,4.166c-6.856,1.515 -6.856,1.515 -13.851,3.06c-6.06,1.408 -12.12,2.819 -18.18,4.232c-3.005,0.655 -6.01,1.311 -9.106,1.986c-19.122,4.54 -31.897,10.005 -46.363,24.056c-5.127,10.255 -5.024,17.74 -5.485,29.199c-0.158,3.701 -0.317,7.403 -0.481,11.216c-0.269,7.065 -0.269,7.065 -0.544,14.272c-0.602,14.953 -1.203,29.906 -1.823,45.313l-104.167,-0c-0.562,-18.321 -0.975,-36.624 -1.302,-54.948c-0.174,-5.191 -0.349,-10.383 -0.529,-15.731c-0.505,-37.693 -0.505,-37.693 6.415,-49.921c5.654,-5.654 5.654,-5.654 16.25,-12.734c4.166,-4.166 4.166,-4.166 20.704,-4.639Z" style="fill:#dededd;fill-rule:nonzero;"/><path d="M2700,2458.33c71.279,-0.389 142.558,-0.683 213.838,-0.863c33.097,-0.086 66.194,-0.203 99.291,-0.394c28.85,-0.166 57.7,-0.274 86.551,-0.311c15.273,-0.022 30.546,-0.072 45.819,-0.194c17.059,-0.134 34.115,-0.137 51.175,-0.13c5.053,-0.06 10.106,-0.12 15.312,-0.181c26.311,0.129 43.323,0.455 63.014,18.74c8.759,13.138 9.348,16.088 9.147,31.038c-0.021,3.184 -0.041,6.367 -0.063,9.647c-0.076,4.019 -0.152,8.039 -0.23,12.18c-0.172,12.804 -0.344,25.609 -0.521,38.802l-116.666,-0c-1.563,-40.365 -1.563,-40.365 -1.992,-52.974c-0.223,-4.997 -0.223,-4.997 -0.45,-10.096c-0.131,-3.382 -0.262,-6.764 -0.396,-10.249c-1.195,-12.159 -1.195,-12.159 -9.662,-30.848l-454.167,0l0,-4.167Z" style="fill:#c0c0bf;fill-rule:nonzero;"/><path d="M2731.9,2460.14c4.026,-0.003 8.053,-0.006 12.201,-0.009c13.281,0.014 26.556,0.176 39.837,0.339c9.218,0.039 18.437,0.069 27.655,0.09c24.243,0.079 48.484,0.284 72.726,0.514c24.745,0.214 49.49,0.309 74.236,0.414c48.539,0.223 97.076,0.579 145.614,1.017l-0,4.167c-3.931,0.015 -7.861,0.03 -11.91,0.046c-37.031,0.154 -74.061,0.394 -111.091,0.72c-19.038,0.165 -38.076,0.299 -57.114,0.363c-18.372,0.063 -36.742,0.206 -55.113,0.405c-7.01,0.062 -14.021,0.095 -21.031,0.099c-9.818,0.009 -19.63,0.122 -29.447,0.259c-2.901,-0.021 -5.802,-0.042 -8.791,-0.064c-13.849,0.299 -21.066,1.49 -32.178,10.033c-12.251,16.508 -12.042,33.738 -13.169,53.503c-0.602,10.055 -1.203,20.11 -1.823,30.469l-91.667,-0c-0.429,-12.633 -0.859,-25.266 -1.302,-38.281c-0.189,-3.944 -0.379,-7.887 -0.574,-11.95c-0.053,-3.162 -0.105,-6.325 -0.158,-9.583c-0.109,-3.208 -0.218,-6.416 -0.331,-9.72c8.147,-33.182 35.177,-33.391 63.43,-32.831Z" style="fill:#f9f9f9;fill-rule:nonzero;"/><path d="M5775,4616.67c4.245,13.313 3.937,22.587 1.221,36.23c-0.728,3.669 -1.456,7.337 -2.206,11.117c-0.792,3.797 -1.584,7.594 -2.4,11.507c-0.744,3.829 -1.488,7.659 -2.255,11.605c-5.79,28.471 -5.79,28.471 -15.193,37.874c-0.481,-33.626 0.415,-66.569 4.166,-100l12.5,0c1.375,-2.75 2.75,-5.5 4.167,-8.333Z" style="fill:#a7a5a2;fill-rule:nonzero;"/><path d="M3725,5320.83c17.83,2.106 28.947,13.384 41.927,24.74c12.102,10.421 23.919,20.547 37.24,29.427c-1.375,5.5 -2.75,11 -4.167,16.667c-19.733,-10.331 -33.811,-24.37 -49.219,-40.104c-2.489,-2.493 -4.979,-4.985 -7.544,-7.553c-18.237,-18.424 -18.237,-18.424 -18.237,-23.177Z" style="fill:#bcbcbc;fill-rule:nonzero;"/><path d="M5362.5,3441.67c11.555,5.371 20.935,11.23 30.615,19.498c2.522,2.154 5.044,4.308 7.642,6.527c2.586,2.24 5.172,4.48 7.837,6.787c2.602,2.208 5.204,4.415 7.885,6.69c12.754,10.97 24.18,21.333 33.521,35.498c-14.928,-6.89 -28.374,-15.333 -41.667,-25l0,-8.334c-4.254,-1.418 -4.254,-1.418 -8.593,-2.864c-15.557,-6.951 -27.747,-16.124 -41.407,-26.302c1.375,-4.125 2.75,-8.25 4.167,-12.5Z" style="fill:#d7d6d5;fill-rule:nonzero;"/><path d="M3420.83,5320.83c13.674,9.945 25.488,20.99 36.979,33.334c2.568,2.75 5.135,5.5 7.78,8.333c5.241,8.333 5.241,8.333 3.972,17.708c-0.956,2.407 -1.912,4.813 -2.897,7.292c-16.81,-5.603 -21.361,-16.471 -29.948,-30.99c-2.3,-3.742 -2.3,-3.742 -4.647,-7.56c-11.239,-18.62 -11.239,-18.62 -11.239,-28.117Z" style="fill:#9b9b9a;fill-rule:nonzero;"/><path d="M3437.5,5362.5c16.08,5.36 18.155,11.477 26.823,25.781c2.535,4.125 5.07,8.25 7.682,12.5c3.545,5.801 3.545,5.801 7.162,11.719c5.47,8.396 11.056,16.697 16.666,25c-17.93,-5.977 -24.885,-18.186 -36.198,-32.813c-2.129,-2.658 -4.259,-5.317 -6.453,-8.056c-2.012,-2.573 -4.023,-5.146 -6.095,-7.796c-1.841,-2.352 -3.682,-4.704 -5.578,-7.127c-4.009,-6.708 -4.009,-6.708 -4.009,-19.208Z" style="fill:#bbb;fill-rule:nonzero;"/><path d="M5766.67,4662.5c1.537,43.992 1.537,43.992 -8.334,62.5l-4.166,0c-0.225,-8.853 -0.387,-17.708 -0.521,-26.563c-0.097,-4.93 -0.194,-9.861 -0.293,-14.941c1.349,-20.996 1.349,-20.996 13.314,-20.996Z" style="fill:#aeabaa;fill-rule:nonzero;"/><path d="M4629.17,5775l62.5,0c-11.45,7.633 -15.976,9.857 -28.907,11.719c-2.787,0.456 -5.575,0.913 -8.447,1.383c-8.48,-0.602 -8.48,-0.602 -25.146,-13.102Z" style="fill:#a8a8a8;fill-rule:nonzero;"/><path d="M5591.67,5583.33c2.75,1.375 5.5,2.75 8.333,4.167c11.303,0.968 22.532,1.747 33.854,2.344c4.713,0.27 4.713,0.27 9.522,0.545c7.762,0.442 15.526,0.862 23.291,1.278l-0,4.166l-83.334,0c2.75,-4.125 5.5,-8.25 8.334,-12.5Z" style="fill:#c8c9c6;fill-rule:nonzero;"/><path d="M5750,4708.33c9.478,14.744 8.295,23.79 4.688,40.625c-0.849,4.104 -1.698,8.207 -2.572,12.435c-0.698,3.115 -1.397,6.231 -2.116,9.44l-4.167,0c-0.768,-43.992 -0.768,-43.992 4.167,-62.5Z" style="fill:#a09f9d;fill-rule:nonzero;"/><path d="M5300,3404.17c12.375,2.062 12.375,2.062 25,4.166c1.375,5.5 2.75,11 4.167,16.667c-9.896,-1.042 -9.896,-1.042 -20.834,-4.167c-5.468,-8.593 -5.468,-8.593 -8.333,-16.666Z" style="fill:#e2e2e0;fill-rule:nonzero;"/><path d="M3420.83,5329.17c16.667,18.75 16.667,18.75 16.667,37.5c-10.677,-9.375 -10.677,-9.375 -20.833,-20.834c0.781,-9.635 0.781,-9.635 4.166,-16.666Z" style="fill:#cecece;fill-rule:nonzero;"/><path d="M5408.33,3479.17c18.787,9.661 28.913,21.102 41.667,37.5c-14.949,-6.9 -28.491,-15.119 -41.667,-25l0,-12.5Z" style="fill:#cacaca;fill-rule:nonzero;"/><path d="M5466.67,3529.17c8.25,6.875 16.5,13.75 25,20.833c-1.375,5.5 -2.75,11 -4.167,16.667c-20.833,-23.438 -20.833,-23.438 -20.833,-37.5Z" style="fill:#979798;fill-rule:nonzero;"/></svg>