<?xml version="1.0" encoding="UTF-8"?>
<!-- Generator: visioncortex VTracer -->
<svg id="svg" version="1.1" xmlns="http://www.w3.org/2000/svg" style="display: block;" viewBox="0 0 1024 1024"><path d="M0 0 C337.92 0 675.84 0 1024 0 C1024 337.92 1024 675.84 1024 1024 C686.08 1024 348.16 1024 0 1024 C0 686.08 0 348.16 0 0 Z " transform="translate(0,0)" style="fill: #FEFEFE;"/><path d="M0 0 C0.98580048 0.22001678 1.97160095 0.44003357 2.98727417 0.66671753 C14.83652976 3.39544426 26.42020348 6.97311749 38.02734375 10.57421875 C40.4686961 11.32386675 42.91027111 12.07278998 45.35205078 12.82104492 C64.92306417 18.82958108 84.46157848 24.9440387 104.00211048 31.0507803 C123.33607706 37.09146036 142.70158943 43.02272874 162.08984375 48.88671875 C162.77378708 49.09362461 163.45773041 49.30053047 164.16239929 49.51370621 C176.65066655 53.29147663 189.14137419 57.0611553 201.63286972 60.82823563 C242.96573189 73.29338578 284.24831058 85.90394598 325.40234375 98.94921875 C326.38771118 99.26093018 327.37307861 99.5726416 328.38830566 99.89379883 C333.28726959 101.44481884 338.18167398 103.00833448 343.06661987 104.60299683 C344.97119904 105.22309037 346.87917541 105.83272172 348.78735352 106.44165039 C371.36976229 113.9375537 381.55774753 126.32172658 393.53173828 145.89794922 C396.03500523 149.98119515 398.57876257 154.03851118 401.12280273 158.09643555 C403.01324855 161.11421811 404.89549118 164.13700978 406.77734375 167.16015625 C409.10509768 170.89126289 411.45725201 174.60446254 413.83984375 178.30078125 C423.16162521 192.78143577 429.82741352 204.86051352 429.52734375 222.44921875 C429.51832031 223.46242188 429.50929688 224.475625 429.5 225.51953125 C429.47663382 227.99634676 429.44387543 230.47265254 429.40234375 232.94921875 C430.49450195 233.20469482 431.58666016 233.4601709 432.71191406 233.72338867 C438.05033825 235.06077561 443.23702926 236.80431731 448.44921875 238.5625 C449.49841492 238.91451981 450.54761108 239.26653961 451.62860107 239.62922668 C462.67663969 243.35179612 473.66977918 247.22595314 484.65234375 251.13671875 C485.67352295 251.49995239 486.69470215 251.86318604 487.74682617 252.23742676 C491.9394478 253.72884168 496.1318407 255.22088783 500.32324219 256.71572876 C506.09135852 258.77281132 511.86297071 260.81940548 517.6395874 262.85249329 C520.95855364 264.02223166 524.27472518 265.19973752 527.59020996 266.37930298 C529.11126874 266.91869222 530.63346146 267.45489618 532.15686035 267.98764038 C545.15143218 272.53617709 555.97407723 277.16459657 562.9453125 289.73046875 C576.39670197 318.44780463 568.72617327 354.59874948 558.58203125 383.30078125 C552.72319416 398.99667815 545.15689152 414.30711812 535.40234375 427.94921875 C534.32919922 429.47482422 534.32919922 429.47482422 533.234375 431.03125 C527.8058477 438.51589207 521.76529413 445.26569224 515.40234375 451.94921875 C514.77457031 452.62984375 514.14679687 453.31046875 513.5 454.01171875 C504.57432392 463.42043142 493.20615952 471.01893575 480.02734375 471.69921875 C473.54506233 471.4076517 468.12984396 470.14860641 462.02734375 468.00390625 C461.12795074 467.6957901 460.22855774 467.38767395 459.3019104 467.07022095 C448.59297396 463.37538335 437.94661996 459.50047312 427.30700684 455.61148071 C423.7024548 454.29690688 420.09428761 452.99267114 416.48535156 451.69018555 C405.72611231 447.79645155 395.01013881 443.85704756 384.42578125 439.5078125 C382.06220909 438.55560519 379.69759357 437.6060299 377.33282471 436.65679932 C375.21210506 435.78625058 373.11849686 434.86569325 371.02099609 433.94091797 C364.28960633 431.09459607 364.28960633 431.09459607 357.25268555 432.08178711 C354.41311736 433.85417013 351.93270736 435.76326424 349.40234375 437.94921875 C348.38785156 438.63886719 347.37335937 439.32851563 346.328125 440.0390625 C345.46574219 440.64878906 344.60335937 441.25851562 343.71484375 441.88671875 C334.37972731 448.41367497 324.88560431 454.70575747 315.37792969 460.97753906 C312.63784026 462.7931743 309.91381874 464.63068355 307.19140625 466.47265625 C297.62604191 472.85052561 288.71773 477.52089063 277.40234375 479.94921875 C276.6580908 480.11798554 275.91383785 480.28675234 275.14703178 480.46063328 C267.17573288 482.10245672 259.37108273 482.25296117 251.25830078 482.25561523 C249.76367283 482.26325404 248.26904876 482.27168443 246.77442932 482.28083801 C242.74279969 482.30262955 238.71124584 482.31156191 234.679564 482.31666446 C232.14909778 482.32032851 229.61865079 482.3265792 227.08819199 482.33366585 C218.22642919 482.35811415 209.36472447 482.3712007 200.50292969 482.37475586 C192.29879248 482.37838004 184.09503187 482.40820688 175.89100945 482.45016044 C168.80430583 482.48510342 161.71772548 482.50030846 154.6309365 482.50100189 C150.41774122 482.50178706 146.20492979 482.5101677 141.9918251 482.53899956 C124.26648248 482.65287764 107.43889367 482.57713897 90.40234375 476.94921875 C89.75011274 476.7377099 89.09788174 476.52620106 88.42588615 476.30828285 C84.5894168 475.04830995 80.8388647 473.63598287 77.08984375 472.13671875 C75.30755371 471.44328369 75.30755371 471.44328369 73.48925781 470.73583984 C69.45165154 469.16181478 65.42697557 467.55606253 61.40234375 465.94921875 C59.84397997 465.32909541 58.28554664 464.7091468 56.72705078 464.08935547 C48.23249422 460.70887465 39.74530233 457.31025673 31.26171875 453.90234375 C22.8205605 450.51228308 14.3676955 447.15337054 5.90234375 443.82421875 C4.95365921 443.45103516 4.95365921 443.45103516 3.98580933 443.0703125 C-0.32313509 441.37573925 -4.6329476 439.68338084 -8.94293213 437.99145508 C-17.82718426 434.50352567 -26.71056883 431.01338609 -35.59420776 427.52389526 C-39.28805885 426.07307871 -42.98203699 424.62258602 -46.67602539 423.17211914 C-57.09633886 419.07988798 -67.5163759 414.98710224 -77.92578125 410.8671875 C-78.70021072 410.56069778 -79.4746402 410.25420807 -80.27253723 409.93843079 C-81.78648442 409.33920721 -83.30042599 408.73996944 -84.81436157 408.14071655 C-85.54722382 407.85064728 -86.28008606 407.560578 -87.03515625 407.26171875 C-88.13167007 406.82770248 -88.13167007 406.82770248 -89.25033569 406.38491821 C-104.07299769 400.52144925 -118.93913319 394.77133266 -133.80587769 389.02075195 C-147.09670956 383.87823564 -160.36147432 378.68321751 -173.58056641 373.35888672 C-182.82758382 369.64035347 -192.10535641 366.00530513 -201.3934021 362.39068604 C-208.48708954 359.62948853 -215.57811616 356.8614576 -222.66888428 354.09277344 C-224.67861118 353.30806481 -226.68842191 352.52357086 -228.69830322 351.73925781 C-235.17450292 349.2112844 -241.64758779 346.67555277 -248.11724854 344.13088989 C-250.20092971 343.3125403 -252.28550204 342.49645548 -254.37103271 341.68283081 C-294.90120005 325.86450709 -294.90120005 325.86450709 -303.6640625 306.60546875 C-305.718576 301.28556905 -306.72188573 296.76467806 -306.73809814 291.08215332 C-306.74380829 289.8823584 -306.74951843 288.68256348 -306.75540161 287.44641113 C-306.75651947 286.13313843 -306.75763733 284.81986572 -306.75878906 283.46679688 C-306.76341958 282.06697459 -306.76844455 280.66715356 -306.77383423 279.26733398 C-306.78694344 275.46523396 -306.79340106 271.66315158 -306.79784489 267.86103249 C-306.80077985 265.48160695 -306.8048856 263.10218619 -306.80934906 260.72276306 C-306.82302417 253.26687026 -306.83268904 245.81098842 -306.83655095 238.35508394 C-306.8410227 229.77029764 -306.85852934 221.18567126 -306.88755155 212.60093355 C-306.90924012 205.95273407 -306.91925915 199.30457934 -306.92059207 192.65634489 C-306.92163558 188.69214441 -306.92744514 184.72809426 -306.94541168 180.76393127 C-306.96201547 177.02759017 -306.96398895 173.29151035 -306.95527267 169.55514526 C-306.95414756 167.54882897 -306.96777212 165.54252087 -306.98202515 163.53625488 C-306.92273585 150.52305855 -304.48298823 140.39645184 -296.59765625 129.94921875 C-296.13101563 129.3253125 -295.664375 128.70140625 -295.18359375 128.05859375 C-291.51261958 123.85758587 -286.90435731 121.17858512 -282.14453125 118.390625 C-281.03245804 117.73852051 -281.03245804 117.73852051 -279.8979187 117.07324219 C-270.72397953 111.7704998 -261.22859797 107.12028643 -251.72265625 102.44921875 C-248.16111271 100.69212142 -244.60146116 98.93123651 -241.04296875 97.16796875 C-240.16844055 96.73504517 -239.29391235 96.30212158 -238.3928833 95.8560791 C-231.69948725 92.52934027 -225.08097488 89.07370449 -218.47805786 85.5715332 C-211.28406477 81.76277681 -204.01517354 78.11591781 -196.72174072 74.50210571 C-186.281905 69.32718585 -175.87299279 64.11354982 -165.59375 58.625 C-157.56129152 54.35640447 -149.40771231 50.32755156 -141.25439453 46.29614258 C-134.71758146 43.05255093 -128.23823322 39.72229749 -121.7890625 36.30859375 C-111.18312451 30.70109689 -100.50517112 25.24039549 -89.79077148 19.84326172 C-87.61604744 18.74505462 -85.44384557 17.64183899 -83.27416992 16.53369141 C-56.41997426 2.8230575 -30.42171209 -6.91573399 0 0 Z " transform="translate(380.59765625,241.05078125)" style="fill: #283441;"/><path d="M0 0 C0.89887939 -0.02231689 1.79775879 -0.04463379 2.72387695 -0.06762695 C8.74338413 -0.0480951 14.36064399 0.82860983 20.20581055 2.14941406 C20.99274953 2.32630422 21.77968851 2.50319437 22.59047413 2.68544483 C30.83255909 4.58660871 38.88145768 7.01601532 46.94921875 9.54296875 C48.53053104 10.03205385 50.11206475 10.52042353 51.69380188 11.00813293 C55.82148851 12.28252221 59.94666711 13.56482684 64.07116699 14.8494873 C70.59685868 16.88083226 77.12589443 18.90141668 83.65549088 20.92016983 C85.26982646 21.41927451 86.88407141 21.91867248 88.49822617 22.41836166 C99.28830267 25.75649414 110.10173634 28.99398044 120.95703125 32.11328125 C134.97393503 36.14404211 148.90269521 40.42294474 162.81739807 44.79210663 C166.5501598 45.96293547 170.2844328 47.1289281 174.01855469 48.29541016 C180.66511258 50.37209802 187.31129019 52.44999648 193.95703125 54.52929688 C194.80440731 54.79441133 195.65178337 55.05952579 196.52483749 55.33267403 C200.79873703 56.66990218 205.07253481 58.00745459 209.34619141 59.34545898 C227.95640703 65.17160396 246.57340675 70.9736587 265.21484375 76.69921875 C288.43507234 83.83115569 311.61369819 91.08958104 334.76257324 98.45007324 C337.72348122 99.38943021 340.68609225 100.32317276 343.64941406 101.25488281 C347.90448775 102.59397078 352.15323317 103.95133587 356.39712524 105.32543945 C357.89636475 105.80790648 359.39759852 106.28423018 360.90097046 106.75366211 C382.99289394 113.6670266 391.39601532 129.42150332 403.01171875 148.2265625 C407.06521811 154.77600892 411.25139959 161.23341872 415.48730469 167.66601562 C427.64792514 186.19876921 427.64792514 186.19876921 428.0625 193.9375 C425.20977481 202.34553213 412.57237758 206.30507781 405.125 210.0625 C395.36804519 215.01346206 385.79687846 220.18685797 376.49902344 225.96923828 C375.70915039 226.44216309 374.91927734 226.91508789 374.10546875 227.40234375 C373.42895264 227.8212085 372.75243652 228.24007324 372.05541992 228.67163086 C367.75848796 230.1809216 364.39656216 228.67119547 360.38671875 226.87451172 C359.10759768 226.21381821 357.83305126 225.5442149 356.5625 224.8671875 C355.87172363 224.5078714 355.18094727 224.1485553 354.46923828 223.77835083 C352.2669957 222.63083293 350.07089826 221.4721045 347.875 220.3125 C346.43140372 219.55650033 344.98739629 218.80128522 343.54296875 218.046875 C342.83308304 217.67609329 342.12319733 217.30531158 341.39179993 216.92329407 C340.68500595 216.5541539 339.97821198 216.18501373 339.25 215.8046875 C338.19095711 215.25067513 338.19095711 215.25067513 337.11051941 214.68547058 C322.88285261 207.1323277 322.88285261 207.1323277 308.0625 200.875 C307.28028076 200.59035889 306.49806152 200.30571777 305.69213867 200.01245117 C291.07628823 194.89527022 275.80182221 191.79024628 260.5625 189.1875 C259.68247314 189.03643799 258.80244629 188.88537598 257.89575195 188.72973633 C254.89395992 188.24787329 251.88944527 187.83300535 248.875 187.4375 C248.23623932 187.35029694 247.59747864 187.26309387 246.93936157 187.17324829 C231.52289522 185.13254649 216.07535659 185.095104 200.5534668 185.12182617 C197.66593691 185.12641979 194.77883211 185.11966224 191.89135742 185.10131836 C163.68005976 184.92425627 136.01570911 187.03532069 108.10928345 191.31204224 C105.0874996 191.77489026 102.06389416 192.22417368 99.03979492 192.67163086 C89.77377959 194.0496578 80.51850778 195.47970651 71.27734375 197.015625 C51.44731267 200.28747829 31.57016931 202.70157282 11.57784653 204.72556686 C9.51532538 204.93593686 7.45338296 205.15132757 5.39151001 205.36795044 C1.50499555 205.77468528 -2.38386968 206.15477065 -6.2734375 206.53125 C-7.43743576 206.65374619 -8.60143402 206.77624237 -9.80070496 206.90245056 C-20.02932623 207.84632667 -27.75487664 205.78608925 -37.23828125 202.19140625 C-38.10424927 201.86889893 -38.97021729 201.5463916 -39.86242676 201.21411133 C-41.7378199 200.51501155 -43.61223089 199.81327249 -45.48574829 199.10916138 C-49.56148509 197.57764711 -53.64213328 196.05942417 -57.72257996 194.54051208 C-59.88443899 193.73575462 -62.04606654 192.93037507 -64.20747375 192.12440491 C-76.09710446 187.69372529 -88.01655503 183.34555402 -99.9375 179 C-104.31920611 177.40157764 -108.70067646 175.80251008 -113.08203125 174.203125 C-114.16515091 173.8077655 -115.24827057 173.41240601 -116.36421204 173.00506592 C-126.9366493 169.14422337 -137.50089069 165.26119185 -148.06430054 161.37573242 C-164.27560949 155.41317507 -180.49220434 149.46542707 -196.72314453 143.55648804 C-198.63181719 142.86159132 -200.54034989 142.16631001 -202.44873047 141.47061157 C-205.07993176 140.51165708 -207.7117388 139.55438523 -210.34375 138.59765625 C-211.10401489 138.32036682 -211.86427979 138.04307739 -212.64758301 137.75738525 C-214.80363325 136.97502989 -216.96273568 136.20250789 -219.125 135.4375 C-219.91922363 135.1564743 -220.71344727 134.87544861 -221.53173828 134.58590698 C-222.32241699 134.31319977 -223.1130957 134.04049255 -223.92773438 133.75952148 C-224.63812866 133.51322495 -225.34852295 133.26692841 -226.08044434 133.01316833 C-229.17125937 132.14291355 -231.94967983 132.11348774 -235.125 132.4375 C-237.48101529 134.35892442 -237.48101529 134.35892442 -237.375 137.75 C-236.53768067 141.36933821 -236.53768067 141.36933821 -234.50317383 142.64306641 C-226.35039908 146.59781713 -217.85115 149.54895476 -209.30987549 152.53839111 C-205.54975742 153.85447003 -201.79470499 155.18473575 -198.03924561 156.51403809 C-196.13004003 157.18965635 -194.22057517 157.86454234 -192.31085205 158.53869629 C-183.93839226 161.49555808 -175.59043914 164.51671002 -167.25 167.5625 C-165.2376093 168.29610766 -163.22508464 169.02934702 -161.21255493 169.76257324 C-159.8723363 170.25085625 -158.5321466 170.73921864 -157.19198608 171.22766113 C-149.4855147 174.03605364 -141.77553683 176.83469048 -134.0625 179.625 C-132.96597107 180.02194565 -132.96597107 180.02194565 -131.84729004 180.4269104 C-122.46442562 183.8212154 -113.06659207 187.17027128 -103.65234375 190.4765625 C-79.96304263 198.80081222 -56.41124196 207.39385111 -32.97940063 216.41720581 C-23.08218477 220.22800466 -13.16918635 223.99679729 -3.25 227.75 C-2.33022369 228.0981778 -1.41044739 228.44635559 -0.46279907 228.80508423 C16.21761438 235.11313954 32.96079705 241.24390286 49.71899414 247.34179688 C62.6576368 252.05056137 75.591552 256.76730154 88.45018005 261.69136047 C90.69698169 262.54089832 92.94835208 263.37282809 95.20423889 264.19767761 C101.75440899 266.61375287 108.22055982 269.01174645 114.44410419 272.19165993 C145.74216012 288.11044292 180.55843231 285.22943205 214.68045449 284.67204612 C222.36077822 284.5506695 230.04033818 284.51656418 237.72148037 284.49139595 C245.14830448 284.46673048 252.5747937 284.40742303 260.00134397 284.34062719 C262.34806121 284.32050995 264.69478375 284.30428902 267.04153252 284.28833389 C270.7368339 284.26065326 274.43129639 284.21125409 278.12611961 284.14603806 C280.09677294 284.11521531 282.06768474 284.10251074 284.0385437 284.09069824 C297.24261022 283.81014264 308.9867811 280.6724362 320.4375 274 C321.36385254 273.47776855 322.29020508 272.95553711 323.24462891 272.41748047 C326.13427611 270.778729 329.00671485 269.11332443 331.875 267.4375 C332.7820166 266.90914551 333.6890332 266.38079102 334.62353516 265.83642578 C340.11194562 262.62965846 345.57531996 259.38189309 351.03466797 256.12597656 C367.51237582 246.33056419 384.12000378 236.75065063 400.875 227.4375 C401.70773437 226.97375977 402.54046875 226.51001953 403.3984375 226.03222656 C405.69677401 224.75940185 408.00248691 223.5014831 410.3125 222.25 C410.96790771 221.88737061 411.62331543 221.52474121 412.29858398 221.15112305 C416.73694937 218.78104398 420.95405636 217.50016225 425.875 216.4375 C426.23046875 218.59375 426.23046875 218.59375 425.875 221.4375 C424.02025995 223.4963502 422.29133012 225.176498 420.1875 226.9375 C419.12014559 227.86349155 418.05373061 228.79056712 416.98828125 229.71875 C416.46306885 230.17121094 415.93785645 230.62367188 415.39672852 231.08984375 C413.12049 233.10570074 411.00303869 235.2671824 408.875 237.4375 C408.18277344 238.118125 407.49054687 238.79875 406.77734375 239.5 C406.12894531 240.139375 405.48054687 240.77875 404.8125 241.4375 C404.16152344 242.076875 403.51054688 242.71625 402.83984375 243.375 C400.80146518 245.41720863 400.80146518 245.41720863 399.11328125 247.91015625 C396.18720102 251.21412467 393.00558838 252.8559847 389.125 254.875 C387.49466831 255.75125929 385.86583827 256.6303165 384.23828125 257.51171875 C383.36896973 257.9814209 382.4996582 258.45112305 381.60400391 258.93505859 C376.78376636 261.58881972 372.05362498 264.39564185 367.3125 267.1875 C356.82333724 273.34183851 346.24580587 279.32381161 335.61328125 285.2265625 C332.10391692 287.17794237 328.62053636 289.16081169 325.16796875 291.2109375 C314.64363842 297.43860405 305.68990042 300.38404998 293.38696289 300.97583008 C292.52804727 301.01750966 291.66913164 301.05918924 290.78418827 301.10213184 C278.38200373 301.64944938 265.96688513 301.70524851 253.55472827 301.80668616 C251.40906192 301.82442152 249.2634079 301.84325885 247.11775398 301.86243629 C239.60319286 301.92945068 232.08860857 301.99179718 224.57397461 302.05004883 C217.61067452 302.10416623 210.64753441 302.1693361 203.68437809 302.23938721 C197.65927797 302.29946719 191.63414177 302.35144802 185.60891682 302.39731437 C182.03007082 302.42471204 178.45132712 302.45532259 174.8725872 302.49432945 C170.88962013 302.5374511 166.90670674 302.56373082 162.92358398 302.58862305 C161.76025543 302.60359329 160.59692688 302.61856354 159.39834595 302.63398743 C149.6143783 302.67162585 140.70561809 301.51655824 131.62109375 297.7421875 C130.97490585 297.47806564 130.32871796 297.21394379 129.66294861 296.94181824 C128.2710305 296.37211111 126.88095031 295.79789567 125.49261475 295.21951294 C121.64197534 293.61749645 117.77511039 292.05537053 113.91015625 290.48828125 C113.09571045 290.15716843 112.28126465 289.8260556 111.44213867 289.48490906 C102.09403523 285.69474421 92.67876533 282.08388793 83.25 278.5 C82.37220886 278.16611267 81.49441772 277.83222534 80.59002686 277.48822021 C65.0521538 271.58532483 49.45248833 265.85711674 33.83551025 260.1675415 C22.9166069 256.18907307 12.00847202 252.18238619 1.11300659 248.14013672 C-0.66069793 247.48252231 -2.43482171 246.82603716 -4.20944214 246.17089844 C-13.23299046 242.83868202 -22.21009423 239.42242509 -31.12493896 235.8082428 C-43.94962513 230.60971762 -56.89000136 225.88359446 -69.96850586 221.36523438 C-86.60747116 215.61260995 -103.19731098 209.76961968 -119.625 203.4375 C-134.81718739 197.58847083 -150.13743777 192.13444095 -165.5 186.75 C-167.25645844 186.13404465 -167.25645844 186.13404465 -169.04840088 185.50564575 C-178.42061941 182.22041322 -187.79525953 178.94211937 -197.17578125 175.68066406 C-210.40439196 171.08055289 -223.58860669 166.41187645 -236.5625 161.125 C-237.52269043 160.74013428 -238.48288086 160.35526855 -239.47216797 159.95874023 C-247.8288317 156.46212432 -255.92374463 151.84001074 -260.125 143.4375 C-260.79983569 136.63130006 -261.29006976 129.95165282 -256.90209961 124.33813477 C-250.87142758 117.88824031 -242.54812216 113.8854295 -234.6875 110.125 C-227.85442415 106.81531032 -221.09666086 103.39134929 -214.38671875 99.83984375 C-202.09354686 93.33561344 -189.69035643 87.04914693 -177.29345703 80.74560547 C-167.28453726 75.65440904 -157.28316767 70.56190809 -147.39524841 65.2388916 C-141.05650208 61.83925409 -134.61988891 58.6432777 -128.17437744 55.45251465 C-124.71101278 53.73718111 -121.25221894 52.01267435 -117.79296875 50.2890625 C-117.10218231 49.94499359 -116.41139587 49.60092468 -115.69967651 49.24642944 C-97.61930335 40.24054242 -97.61930335 40.24054242 -79.70654297 30.90722656 C-71.11642418 26.34171219 -62.39642565 22.03710329 -53.68310547 17.71289062 C-51.31578917 16.53262146 -48.95525195 15.34016801 -46.59765625 14.140625 C-38.9119416 10.23453476 -31.2318547 6.40589063 -23.125 3.4375 C-22.26777344 3.1178125 -21.41054688 2.798125 -20.52734375 2.46875 C-13.76032757 0.36561979 -7.03269727 0.10034281 0 0 Z " transform="translate(358.125,261.5625)" style="fill: #EBF5FA;"/><path d="M0 0 C4.61079022 0.71507634 8.81230082 1.85314817 13.18359375 3.45703125 C13.8899144 3.71149521 14.59623505 3.96595917 15.32395935 4.22813416 C17.69698404 5.08458102 20.06721606 5.94849951 22.4375 6.8125 C24.15301211 7.43367004 25.86867418 8.05442607 27.58447266 8.67480469 C32.35853265 10.40265688 37.13004449 12.13745479 41.90118408 13.87335205 C46.17809564 15.42832458 50.45656957 16.97897611 54.73497009 18.52984619 C82.99786239 28.77603644 111.23375621 39.09517644 139.44451904 49.48399353 C146.18822183 51.96692277 152.93419027 54.44360816 159.68136597 56.91708374 C182.97420107 65.45739697 206.25363602 74.01460943 229.38394165 82.98727417 C239.81736009 87.03398975 250.28205209 90.96308736 260.8125 94.75 C280.16329583 101.71190616 299.3632133 109.07006353 318.57502747 116.40498352 C325.54248581 119.06477107 332.51391227 121.71386009 339.48828125 124.35546875 C355.55493815 130.44451152 371.60472858 136.56755662 387.5625 142.9375 C388.20586304 143.19361053 388.84922607 143.44972107 389.51208496 143.71359253 C391.28148052 144.41912013 393.04900453 145.12933618 394.81640625 145.83984375 C395.80068604 146.23550537 396.78496582 146.63116699 397.79907227 147.03881836 C400 148 400 148 401 149 C401.0897399 151.33285136 401.11497727 153.63583165 401.09765625 155.96875 C401.09619598 156.69927078 401.09473572 157.42979156 401.0932312 158.18244934 C401.08941168 159.77899849 401.08328111 161.37554333 401.07516479 162.97207642 C401.06237673 165.52460572 401.05587547 168.07708271 401.05102539 170.62963867 C401.03765538 176.99321133 401.01389654 183.35673684 400.98962402 189.72027588 C400.84427754 216.30062021 400.84427754 216.30062021 401.3125 242.875 C401.33497803 243.88473877 401.35745605 244.89447754 401.38061523 245.93481445 C401.41614502 246.84062256 401.4516748 247.74643066 401.48828125 248.6796875 C401.52755737 249.83573486 401.52755737 249.83573486 401.56762695 251.01513672 C402.1140319 253.5234779 402.95828493 254.47596736 405 256 C407.6272914 255.92466753 407.6272914 255.92466753 410 255 C411.15545957 252.68908086 411.13672936 251.34582857 411.15821838 248.77328491 C411.1680072 247.88704941 411.17779602 247.0008139 411.18788147 246.08772278 C411.19363693 245.11308578 411.1993924 244.13844879 411.20532227 243.13427734 C411.21522186 242.10986038 411.22512146 241.08544342 411.23532104 240.02998352 C411.26699755 236.63199197 411.29171778 233.23398643 411.31640625 229.8359375 C411.33697047 227.48466623 411.35796679 225.13339871 411.37937927 222.78213501 C411.43465493 216.58434066 411.48403996 210.38651265 411.53222656 204.18865967 C411.58240152 197.86793002 411.63810846 191.54724945 411.69335938 185.2265625 C411.80100813 172.81775022 411.90243815 160.40889539 412 148 C413.12401215 147.98969254 414.24802429 147.97938507 415.40609741 147.96876526 C444.52544751 147.70098059 473.64449638 147.4096886 502.76340103 147.09720993 C509.25401379 147.02795452 515.74465129 146.963285 522.23535156 146.90283203 C529.1297072 146.83847562 536.02372497 146.7604183 542.91778564 146.66915894 C545.28227196 146.64001127 547.64682435 146.61576058 550.01141357 146.59671021 C566.44403743 146.4600906 579.07767464 145.12918345 593.75 137.1875 C594.81331543 136.62434082 595.87663086 136.06118164 596.97216797 135.48095703 C605.82235464 130.74774223 614.50840919 125.73588956 623.12011719 120.58276367 C627.98485796 117.6825004 632.72102119 115.06187261 638 113 C636.49627899 117.58521768 634.95937351 122.15400391 633.31640625 126.69140625 C626.86410256 144.55429095 622.82858259 161.02943071 622.75 180.125 C622.729375 181.35476563 622.70875 182.58453125 622.6875 183.8515625 C622.63832996 195.55403318 624.48544244 206.37530799 629.23046875 217.109375 C630 219 630 219 630 221 C627.6351595 222.67418396 625.26604674 224.22524585 622.80859375 225.75390625 C621.23721556 226.75004192 619.66678165 227.74766833 618.09716797 228.74658203 C617.26384949 229.27568176 616.43053101 229.80478149 615.57196045 230.34991455 C611.25052218 233.12240757 606.98922361 235.9839395 602.72265625 238.83984375 C600.95536665 240.01670943 599.18778627 241.19313856 597.41992188 242.36914062 C594.72268235 244.16376548 592.02742233 245.96104959 589.33764648 247.7668457 C586.67991588 249.54974098 584.01457647 251.32073378 581.34765625 253.08984375 C580.55577408 253.62528305 579.76389191 254.16072235 578.94801331 254.71238708 C564.3932844 264.31290153 548.32750966 266.47033831 531.18701172 266.38818359 C529.78866165 266.39226493 528.39031481 266.39761543 526.99197388 266.40411377 C523.24821616 266.41760547 519.50471084 266.41256597 515.76094961 266.40297651 C511.81174724 266.39528734 507.86256397 266.40245056 503.9133606 266.40713501 C497.28839303 266.41256471 490.6635264 266.40547341 484.03857422 266.39111328 C476.41537712 266.37477861 468.79242071 266.38009245 461.16922939 266.3965925 C454.58188523 266.41027122 447.9946129 266.41209643 441.40725911 266.40427649 C437.49126252 266.39963658 433.57537853 266.39887245 429.6593895 266.40888596 C425.97702056 266.4176477 422.29495769 266.41136884 418.61262131 266.39420319 C416.6426102 266.38844214 414.67257273 266.39717354 412.70257568 266.40658569 C401.84403066 266.33052961 391.30741212 264.63810803 381.1875 260.609375 C379.4535498 259.92875 379.4535498 259.92875 377.68457031 259.234375 C376.46866211 258.74453125 375.25275391 258.2546875 374 257.75 C372.65502332 257.2177358 371.3096319 256.6865186 369.96386719 256.15625 C367.1043654 255.02744012 364.2474903 253.89232017 361.39257812 252.75195312 C357.04261403 251.01496313 352.68623481 249.29455839 348.328125 247.578125 C343.71159119 245.75929059 339.09542075 243.93957449 334.48144531 242.11425781 C325.42055859 238.52991709 316.35461933 234.95888534 307.28125 231.40625 C306.26890289 231.00985825 305.25655579 230.61346649 304.21353149 230.20506287 C302.12325959 229.38667473 300.0329783 228.5683106 297.94268799 227.74996948 C278.23185996 220.03298192 258.54587045 212.25576122 238.875 204.4375 C218.66868726 196.40697496 198.42593015 188.47792609 178.14404297 180.64038086 C166.07625034 175.97596497 154.02768824 171.26684321 142 166.5 C128.67415877 161.21890648 115.32117348 156.01126243 101.9524231 150.8397522 C85.72398309 144.56140316 69.50075181 138.27001552 53.31039429 131.89398193 C51.51798563 131.18854811 49.72506043 130.48442488 47.93154907 129.78179932 C38.97605554 126.27158434 30.05336605 122.68299897 21.21484375 118.88671875 C20.12786949 118.43496025 20.12786949 118.43496025 19.01893616 117.97407532 C11.34465591 114.61528281 5.31298654 109.82158315 2 102 C0.15455606 95.81199621 -0.28221276 89.86417176 -0.22705078 83.44116211 C-0.22734283 82.53276581 -0.22763489 81.62436951 -0.22793579 80.68844604 C-0.2265544 77.71797777 -0.21104983 74.74776763 -0.1953125 71.77734375 C-0.19157813 69.70512529 -0.18873316 67.63290506 -0.18673706 65.5606842 C-0.17913401 60.13065641 -0.15951433 54.70073714 -0.1373291 49.27075195 C-0.11679871 43.72022977 -0.10772001 38.1696899 -0.09765625 32.61914062 C-0.07626511 21.7460463 -0.04216967 10.87303221 0 0 Z " transform="translate(95,435)" style="fill: #89CAE6;"/><path d="M0 0 C2.82223931 0.35169444 5.64764497 0.64838538 8.4765625 0.94140625 C50.84806782 5.45878636 85.95814964 19.26123814 123.5390625 38.31640625 C123.5390625 39.63640625 123.5390625 40.95640625 123.5390625 42.31640625 C121.21020508 44.140625 121.21020508 44.140625 117.93359375 46.00390625 C117.05269829 46.51321938 117.05269829 46.51321938 116.15400696 47.03282166 C114.22779227 48.14190887 112.29024074 49.22927613 110.3515625 50.31640625 C109.0245094 51.07369354 107.69817748 51.83224596 106.37255859 52.59204102 C103.70230328 54.11988073 101.02755943 55.63938733 98.34912109 57.15283203 C94.94218356 59.08134161 91.55937103 61.0485989 88.18359375 63.03125 C86.34385612 64.10565048 84.50401976 65.17988194 82.6640625 66.25390625 C81.42039917 66.98770508 81.42039917 66.98770508 80.15161133 67.73632812 C79.37454834 68.18427734 78.59748535 68.63222656 77.796875 69.09375 C77.1383252 69.47781006 76.47977539 69.86187012 75.80126953 70.25756836 C68.3517616 73.7443497 61.09605659 73.70102809 52.98364258 73.8449707 C51.60885951 73.87556112 50.23408853 73.90669907 48.85932922 73.93833923 C36.16425698 74.21600924 23.46546903 74.35515262 10.76796436 74.46510029 C2.2798555 74.54005783 -6.20423389 74.65008546 -14.69018555 74.85961914 C-55.96111739 75.85766796 -89.97436912 74.33279602 -128.14863586 56.70199585 C-135.87849048 53.16057022 -143.86819605 50.31126763 -151.85920525 47.42296028 C-155.83710961 45.97411762 -159.79469285 44.47165112 -163.75390625 42.97265625 C-170.68954809 40.35649364 -177.63044508 37.75465537 -184.57421875 35.16015625 C-186.42416597 34.46845744 -188.274101 33.77672602 -190.12402344 33.08496094 C-192.79287405 32.08696596 -195.46187097 31.08937591 -198.13146973 30.09338379 C-200.5660869 29.18488142 -202.9999174 28.27430033 -205.43359375 27.36328125 C-206.14526199 27.09833862 -206.85693024 26.833396 -207.59016418 26.5604248 C-211.93706756 24.93053529 -216.20643448 23.1746551 -220.4609375 21.31640625 C-220.4609375 20.98640625 -220.4609375 20.65640625 -220.4609375 20.31640625 C-219.06246582 20.13634033 -219.06246582 20.13634033 -217.63574219 19.95263672 C-200.30515738 17.71064068 -183.00533485 15.3545378 -165.7734375 12.44140625 C-165.04796722 12.31903595 -164.32249695 12.19666565 -163.57504272 12.07058716 C-156.46829026 10.86939771 -149.36521736 9.64709574 -142.26367188 8.41552734 C-120.37889267 4.62385602 -98.62794988 1.00769124 -76.4609375 -0.68359375 C-75.58518066 -0.75271973 -74.70942383 -0.8218457 -73.80712891 -0.89306641 C-49.53246918 -2.70232816 -24.16219771 -3.10881697 0 0 Z " transform="translate(587.4609375,458.68359375)" style="fill: #8ACAE6;"/><path d="M0 0 C3.70467182 1.36828044 7.42293274 2.69895473 11.13861084 4.0369873 C11.91739594 4.31874817 12.69618103 4.60050903 13.49856567 4.89080811 C22.96059614 8.30674257 32.48311651 11.544925 42.00579834 14.7869873 C43.70146851 15.36534358 45.39710732 15.94379179 47.0927124 16.52233887 C51.02145875 17.86236861 54.9508999 19.20034028 58.88079834 20.5369873 C58.10301025 21.30913574 57.32522217 22.08128418 56.52386475 22.87683105 C54.83617306 24.57543521 53.18693345 26.31373707 51.59173584 28.0994873 C50.82087646 28.9038623 50.05001709 29.7082373 49.25579834 30.5369873 C48.50040771 31.3619873 47.74501709 32.1869873 46.96673584 33.0369873 C42.70052077 35.11069185 40.44630732 34.08621322 36.04827881 32.65856934 C35.00301025 32.28844727 33.9577417 31.9183252 32.88079834 31.5369873 C31.76205322 31.16299805 30.64330811 30.78900879 29.49066162 30.40368652 C25.73207209 29.13103681 21.99253108 27.80945192 18.25579834 26.4744873 C17.58759064 26.23798462 16.91938293 26.00148193 16.23092651 25.7578125 C5.58512068 21.98813767 -4.90878757 17.93682362 -15.27593994 13.44689941 C-22.01076523 10.50267041 -22.01076523 10.50267041 -29.11920166 11.5369873 C-31.38233845 13.41646182 -31.38233845 13.41646182 -31.61920166 16.4119873 C-31.44752023 19.74305887 -31.44752023 19.74305887 -28.57769775 21.54772949 C-24.92074019 23.65113838 -21.25948892 25.14056615 -17.28326416 26.4901123 C-16.53444473 26.75171646 -15.78562531 27.01332062 -15.01411438 27.28285217 C-12.59362184 28.12593666 -10.16911028 28.95669969 -7.74420166 29.7869873 C-6.07838773 30.36411343 -4.41277989 30.94183476 -2.74737549 31.5201416 C10.09187014 35.96762534 22.96515455 40.31632897 35.88079834 44.5369873 C34.12642477 48.1454863 32.02362571 51.44230352 29.81829834 54.7869873 C11.28882798 83.38584111 2.44339368 111.06125276 -3.11920166 144.5369873 C-8.91999619 142.70970381 -14.58213655 140.61468868 -20.24029541 138.39245605 C-20.98832428 138.09880157 -21.73635315 137.80514709 -22.50704956 137.50259399 C-25.63102379 136.2739762 -28.75384549 135.04250121 -31.87481689 133.80627441 C-40.45402494 130.41221213 -49.06072716 127.10860685 -57.77935791 124.08776855 C-58.4990123 123.82932663 -59.21866669 123.5708847 -59.96012878 123.30461121 C-64.85432542 121.64942424 -68.94969751 121.21302458 -74.11920166 121.5369873 C-75.44340415 122.6413265 -75.44340415 122.6413265 -75.30670166 125.4119873 C-75.37263679 128.70269489 -75.37263679 128.70269489 -73.11920166 131.5369873 C-70.42494953 132.74295026 -67.78818862 133.79669575 -65.01763916 134.7947998 C-64.19657181 135.09938614 -63.37550446 135.40397247 -62.52955627 135.7177887 C-60.76779485 136.3698736 -59.0043453 137.01741208 -57.2394104 137.66085815 C-54.49240164 138.66264374 -51.75026517 139.67681739 -49.00909424 140.69445801 C-41.09657921 143.6274122 -33.17103791 146.52298599 -25.23248291 149.38464355 C-24.12405029 149.78860352 -23.01561768 150.19256348 -21.87359619 150.60876465 C-19.88270142 151.33304335 -17.88774342 152.04628413 -15.88824463 152.74645996 C-15.01957764 153.06276367 -14.15091064 153.37906738 -13.25592041 153.70495605 C-12.52075195 153.96558838 -11.7855835 154.2262207 -11.02813721 154.49475098 C-8.60474315 155.81787021 -7.53905121 157.18098505 -6.11920166 159.5369873 C-5.59503174 161.50402832 -5.59503174 161.50402832 -5.38873291 163.54089355 C-5.3081665 164.28145996 -5.2276001 165.02202637 -5.14459229 165.78503418 C-5.07433838 166.54880371 -5.00408447 167.31257324 -4.93170166 168.0994873 C-4.84984619 168.86712402 -4.76799072 169.63476074 -4.68365479 170.42565918 C-4.36734564 173.47445406 -4.11920166 176.47032603 -4.11920166 179.5369873 C-10.9076518 178.17748345 -17.22516241 176.22242722 -23.71685791 173.8338623 C-24.70939072 173.47358948 -25.70192352 173.11331665 -26.72453308 172.74212646 C-29.87885083 171.59563059 -33.03026042 170.44136316 -36.18170166 169.2869873 C-38.26941225 168.52737772 -40.35730152 167.76825906 -42.44537354 167.00964355 C-46.48725621 165.5399841 -50.52549487 164.06091256 -54.56109619 162.57409668 C-58.02228185 161.29957477 -61.48978795 160.04876906 -64.97027588 158.82800293 C-65.6999205 158.56731018 -66.42956512 158.30661743 -67.18132019 158.0380249 C-69.07645447 157.36113204 -70.97546642 156.69512179 -72.87481689 156.03015137 C-78.75014991 153.32614529 -82.51393037 149.72475708 -85.36920166 143.8494873 C-85.84873291 142.89687012 -86.32826416 141.94425293 -86.82232666 140.96276855 C-89.85674955 132.94713942 -90.4816729 124.98625443 -90.43170166 116.4744873 C-90.42678711 115.47151611 -90.42187256 114.46854492 -90.41680908 113.43518066 C-89.84154128 76.43218587 -71.40425891 38.93681662 -46.11920166 12.5369873 C-45.29420166 11.6707373 -44.46920166 10.8044873 -43.61920166 9.9119873 C-42.79420166 9.1282373 -41.96920166 8.3444873 -41.11920166 7.5369873 C-40.46435791 6.91050293 -39.80951416 6.28401855 -39.13482666 5.6385498 C-25.39291602 -7.10825696 -17.13140526 -6.32787535 0 0 Z " transform="translate(829.1192016601563,500.4630126953125)" style="fill: #E55150;"/><path d="M0 0 C6.40089638 5.68968567 8.453451 13.96758925 9.11328125 22.296875 C9.20171005 52.12685622 0.74590602 80.32896425 -13.1875 106.5 C-13.50444824 107.10585938 -13.82139648 107.71171875 -14.14794922 108.3359375 C-20.68621202 120.75490841 -28.91390259 131.90948753 -39.1875 141.5 C-39.97125 142.325 -40.755 143.15 -41.5625 144 C-53.69440755 155.55419766 -53.69440755 155.55419766 -59.0625 155.4375 C-63.67317641 154.05429708 -65.94110399 151.686584 -68.31640625 147.51953125 C-79.0890167 125.06002976 -73.0456191 94.99520415 -65.1875 72.5 C-62.85056934 66.34172033 -60.08859122 60.40933262 -57.1875 54.5 C-56.84879883 53.79423828 -56.51009766 53.08847656 -56.16113281 52.36132812 C-48.81434756 37.16541333 -39.28185771 23.619259 -27.875 11.1875 C-27.32497314 10.58341309 -26.77494629 9.97932617 -26.20825195 9.35693359 C-19.33231755 2.11835092 -10.18984948 -4.79522328 0 0 Z " transform="translate(920.1875,535.5)" style="fill: #E5504F;"/><path d="M0 0 C1.15971313 -0.0030011 2.31942627 -0.0060022 3.51428223 -0.00909424 C4.77349487 0.00325256 6.03270752 0.01559937 7.33007812 0.02832031 C9.28705627 0.03113007 9.28705627 0.03113007 11.28356934 0.03399658 C14.05782342 0.03860654 16.83178841 0.05303216 19.60595703 0.07519531 C23.10330454 0.10304028 26.60042268 0.11428404 30.09786987 0.11899567 C44.87523686 0.1410899 59.61462884 0.34089748 74.36132812 1.35644531 C74.36132812 1.68644531 74.36132812 2.01644531 74.36132812 2.35644531 C46.68833549 3.12332659 19.04484388 3.50339742 -8.63867188 3.35644531 C-6.05889152 0.03450816 -4.09686205 -0.01464726 0 0 Z " transform="translate(532.638671875,562.6435546875)" style="fill: #333D4B;"/><path d="M0 0 C0.33 0.66 0.66 1.32 1 2 C0.10333658 4.24310013 -0.89146683 6.44754321 -1.9375 8.625 C-2.50339844 9.81351563 -3.06929687 11.00203125 -3.65234375 12.2265625 C-4.09707031 13.14179687 -4.54179688 14.05703125 -5 15 C-6.60031344 11.79937313 -5.03173691 9.27728194 -4 6 C-5.98 6.33 -7.96 6.66 -10 7 C-7.0094833 3.66442368 -4.06815373 1.84916079 0 0 Z " transform="translate(732,548)" style="fill: #95DCEE;"/><path d="M0 0 C0.25 2.3125 0.25 2.3125 0 5 C-2 6.8125 -2 6.8125 -4 8 C-4.33 7.01 -4.66 6.02 -5 5 C-5.66 4.67 -6.32 4.34 -7 4 C-7.33 3.34 -7.66 2.68 -8 2 C-2.25 0 -2.25 0 0 0 Z " transform="translate(784,478)" style="fill: #E4EDF2;"/><path d="M0 0 C0.66 0.33 1.32 0.66 2 1 C-1.3 4.63 -4.6 8.26 -8 12 C-8.99 11.67 -9.98 11.34 -11 11 C-7.6381774 6.74828319 -4.25171681 3.3618226 0 0 Z " transform="translate(776,489)" style="fill: #1C232F;"/><path d="M0 0 C2.31 0.33 4.62 0.66 7 1 C7 1.66 7 2.32 7 3 C8.093125 2.9175 9.18625 2.835 10.3125 2.75 C14 3 14 3 15.9375 5 C16.288125 5.66 16.63875 6.32 17 7 C11.34166012 6.40438528 6.07555989 4.5330007 1 2 C0.67 1.34 0.34 0.68 0 0 Z " transform="translate(126,581)" style="fill: #12161F;"/><path d="M0 0 C1.60294922 0.01353516 1.60294922 0.01353516 3.23828125 0.02734375 C4.04652344 0.03894531 4.85476563 0.05054688 5.6875 0.0625 C5.6875 0.3925 5.6875 0.7225 5.6875 1.0625 C5.07261719 1.19527344 4.45773437 1.32804687 3.82421875 1.46484375 C2.61185547 1.72974609 2.61185547 1.72974609 1.375 2 C0.57449219 2.17402344 -0.22601563 2.34804688 -1.05078125 2.52734375 C-3.457901 3.06136159 -3.457901 3.06136159 -6.3125 4.0625 C-9 3.125 -9 3.125 -11.3125 2.0625 C-11.3125 1.7325 -11.3125 1.4025 -11.3125 1.0625 C-7.47525828 0.15836327 -3.93747726 -0.04326898 0 0 Z " transform="translate(378.3125,477.9375)" style="fill: #9BE5F4;"/><path d="M0 0 C0 0.66 0 1.32 0 2 C-2.25 3.5 -2.25 3.5 -5 5 C-6.0209375 5.61875 -6.0209375 5.61875 -7.0625 6.25 C-9.46130339 7.17856905 -10.5831079 6.70346132 -13 6 C-11.21118264 4.99491199 -9.41885304 3.99607264 -7.625 3 C-6.62726563 2.443125 -5.62953125 1.88625 -4.6015625 1.3125 C-2 0 -2 0 0 0 Z " transform="translate(163,327)" style="fill: #1E232C;"/><path d="M0 0 C3.3 0.33 6.6 0.66 10 1 C10 1.66 10 2.32 10 3 C11.65 3.33 13.3 3.66 15 4 C11.50448721 5.21405922 9.30906703 4.777272 5.8125 3.6875 C4.93207031 3.42324219 4.05164063 3.15898437 3.14453125 2.88671875 C1 2 1 2 0 0 Z " transform="translate(573,322)" style="fill: #191F2B;"/><path d="M0 0 C1.32 0.33 2.64 0.66 4 1 C2.88424427 4.34726719 2.48655378 4.62079748 -0.4375 6.25 C-2.2009375 7.11625 -2.2009375 7.11625 -4 8 C-4.66 7.67 -5.32 7.34 -6 7 C-3.69 5.35 -1.38 3.7 1 2 C0.67 1.34 0.34 0.68 0 0 Z " transform="translate(708,497)" style="fill: #98DDEE;"/><path d="M0 0 C0.66 0 1.32 0 2 0 C2.25 2.3125 2.25 2.3125 2 5 C0 6.8125 0 6.8125 -2 8 C-2.33 7.34 -2.66 6.68 -3 6 C-2.34 5.67 -1.68 5.34 -1 5 C-0.34444881 2.47266765 -0.34444881 2.47266765 0 0 Z " transform="translate(782,478)" style="fill: #D6DDE1;"/></svg>