<?xml version="1.0" encoding="UTF-8"?>
<!-- Generator: visioncortex VTracer -->
<svg id="svg" version="1.1" xmlns="http://www.w3.org/2000/svg" style="display: block;" viewBox="0 0 1024 1024"><path d="M0 0 C337.92 0 675.84 0 1024 0 C1024 337.92 1024 675.84 1024 1024 C686.08 1024 348.16 1024 0 1024 C0 686.08 0 348.16 0 0 Z " transform="translate(0,0)" style="fill: #FEFEFE;"/><path d="M0 0 C1.20527344 0.26151855 2.41054688 0.52303711 3.65234375 0.79248047 C9.32277264 2.03229414 14.98700204 3.29792803 20.6484375 4.578125 C26.44115004 5.88396642 32.2464996 7.11519327 38.0625 8.3125 C49.38846578 10.64618712 60.69423819 13.07076697 72 15.5 C86.98939442 18.71903388 101.98444749 21.9049005 117 25 C126.66784787 26.99431774 136.33486412 28.99257629 146 31 C147.11293427 31.23103424 147.11293427 31.23103424 148.24835205 31.46673584 C165.96276102 35.14565747 183.66646594 38.83368953 201.27539062 42.99438477 C206.74385659 44.27919257 212.21109747 45.4509316 217.73339844 46.47924805 C226.08237383 48.03824395 234.2250457 50.03954629 242.375 52.4375 C243.3446167 52.71392334 244.3142334 52.99034668 245.31323242 53.27514648 C250.9469162 54.99397314 254.91205415 56.69792365 259 61 C260.73144911 64.54537912 261.25030021 67.3784558 261.251849 71.3042419 C261.25711226 72.36243373 261.26237552 73.42062556 261.26779827 74.51088381 C261.26340179 75.66955698 261.25900531 76.82823014 261.25447559 78.02201462 C261.25928531 79.8804582 261.25928531 79.8804582 261.26419219 81.7764461 C261.27108264 85.22804556 261.26897663 88.67943067 261.26313647 92.13101834 C261.25897547 95.88136253 261.26636284 99.6316866 261.27228898 103.38202596 C261.28106614 109.95926111 261.28235772 116.53646513 261.27878571 123.11370468 C261.27348794 132.89433889 261.27956469 142.67494285 261.28786864 152.45557376 C261.30312928 170.93894434 261.30481155 189.42230125 261.30234561 207.90567681 C261.30051458 222.17750907 261.30226857 236.44933683 261.30657005 250.72116852 C261.30717245 252.76994475 261.30777365 254.81872099 261.30837366 256.86749722 C261.30928089 259.95463861 261.31018955 263.04178 261.31110601 266.12892138 C261.31953882 294.84167875 261.323869 323.55443441 261.31969929 352.26719284 C261.31954291 353.3501895 261.31938654 354.43318617 261.31922542 355.54900091 C261.31841961 361.0383292 261.31757384 366.52765747 261.31671212 372.01698574 C261.31654103 373.1072251 261.31636994 374.19746446 261.31619367 375.32074138 C261.31584702 377.52547215 261.31549849 379.73020292 261.31514808 381.9349337 C261.30979088 416.2404868 261.31771993 450.54601419 261.33618164 484.8515625 C261.3568893 523.37585569 261.36762665 561.90013297 261.36360615 600.42443204 C261.3632108 604.53081083 261.36284925 608.63718962 261.36250877 612.74356842 C261.36241804 613.75469526 261.36232731 614.76582211 261.36223383 615.80758916 C261.36106692 631.08434622 261.3677233 646.36108722 261.37832069 661.63784027 C261.39035876 679.00935207 261.39194781 696.38082845 261.37953053 713.75234076 C261.37289039 723.47747898 261.37455952 733.20253257 261.38811904 742.92766406 C261.39634439 749.42148077 261.39369098 755.9152339 261.38214377 762.40904541 C261.37586826 766.11059303 261.37433553 769.81197517 261.38600711 773.51351342 C261.39846363 777.50063292 261.38773695 781.48749872 261.37473011 785.47462082 C261.38203946 786.62392932 261.3893488 787.77323782 261.39687964 788.95737386 C261.3448524 796.61842688 260.31926931 803.01085679 256.4375 809.6875 C252.7126729 813.22131033 248.4818063 815.53184223 244 818 C243.41686035 818.32436035 242.8337207 818.6487207 242.23291016 818.98291016 C240.32693592 820.03968302 238.4149191 821.08453073 236.5 822.125 C235.90791748 822.44960205 235.31583496 822.7742041 234.70581055 823.10864258 C230.47788624 825.36800953 226.15857348 827.17969765 221.69580078 828.92382812 C216.80189936 830.87748847 212.00260603 833.04862771 207.1875 835.1875 C199.29352516 838.68066683 191.38433302 842.12894059 183.4375 845.5 C175.21999042 848.99717587 167.09788637 852.67752653 158.99145508 856.42407227 C149.7428429 860.68711014 140.43708783 864.81569664 131.125 868.9375 C119.62507664 874.03043811 108.16055753 879.18685401 96.75244141 884.4831543 C84.38972405 890.22166937 71.98135666 895.85910725 59.56382751 901.47784424 C55.82383093 903.17073135 52.08929434 904.87488269 48.359375 906.58984375 C32.00506146 914.07199207 18.13376789 918.72641339 0.35546875 913.890625 C-0.87567909 913.56068291 -0.87567909 913.56068291 -2.13169861 913.22407532 C-10.95782373 910.81185232 -19.64186447 907.98102132 -28.32315063 905.09729004 C-33.03965278 903.53084995 -37.76215764 901.98270244 -42.484375 900.43359375 C-43.86729485 899.97933517 -43.86729485 899.97933517 -45.27815247 899.51589966 C-52.43059241 897.17201201 -59.60743705 894.92732576 -66.8125 892.75 C-75.47018674 890.12767017 -84.05466693 887.33218497 -92.625 884.4375 C-105.40330234 880.13228653 -118.24949988 876.06696075 -131.125 872.0625 C-149.53848927 866.33494101 -167.9363884 860.56055165 -186.31954193 854.73649216 C-188.20857097 854.13812306 -190.09772285 853.54014177 -191.98687744 852.94216919 C-205.38500528 848.70091687 -218.77732525 844.44162752 -232.16015625 840.15234375 C-233.29934509 839.78815338 -234.43853394 839.42396301 -235.61224365 839.04873657 C-266.11754509 829.2523648 -266.11754509 829.2523648 -272 821 C-275.21277384 814.13590461 -275.42448623 808.1692201 -275.38031673 800.65848732 C-275.38730661 798.80289851 -275.38730661 798.80289851 -275.3944377 796.90982306 C-275.40432604 793.47744293 -275.4008029 790.04555255 -275.39160402 786.61320207 C-275.38489282 782.8785591 -275.39556105 779.14395888 -275.40399987 775.409325 C-275.41637589 768.86428315 -275.41757517 762.31931299 -275.41144943 755.77426338 C-275.40236451 746.04150041 -275.41038547 736.30880382 -275.42174067 726.57604595 C-275.44141986 709.19348911 -275.44375259 691.81096207 -275.43854547 674.42839675 C-275.43399048 659.21548853 -275.43458475 644.00259213 -275.44038582 628.7896843 C-275.44114268 626.75002046 -275.44189866 624.71035663 -275.44265376 622.67069279 C-275.44379894 619.59720098 -275.44494882 616.52370916 -275.44611301 613.45021735 C-275.45682011 584.87070381 -275.4615411 556.29119421 -275.45364285 527.71167946 C-275.45334567 526.63405464 -275.4530485 525.55642982 -275.45274232 524.44614971 C-275.45029332 515.6947582 -275.44768177 506.94336674 -275.44505819 498.19197528 C-275.43495531 464.05374609 -275.44331109 429.91556608 -275.46655273 395.77734375 C-275.4926165 357.43173789 -275.50547563 319.08616164 -275.49836498 280.74054658 C-275.49764891 276.65301347 -275.49697452 272.56548036 -275.49632454 268.47794724 C-275.49615473 267.47147677 -275.49598492 266.4650063 -275.49580997 265.42803673 C-275.4935056 250.22554869 -275.50149051 235.02308811 -275.51461601 219.82060623 C-275.52951411 202.53409234 -275.53038806 185.24764289 -275.5125451 167.9611304 C-275.50296907 158.28504341 -275.50444352 148.60910664 -275.52177979 138.93302963 C-275.53225069 132.47073526 -275.52819513 126.00855559 -275.51229975 119.54627255 C-275.50364853 115.86356811 -275.50129043 112.1811585 -275.51656907 108.49846895 C-275.53287847 104.52989347 -275.51821963 100.56177238 -275.50057125 96.59319496 C-275.51022176 95.45218405 -275.51987227 94.31117314 -275.52981523 93.13558614 C-275.46619669 86.18956872 -274.62217947 80.05617869 -271 74 C-268.24038705 71.40148582 -265.37002822 69.7232014 -262 68 C-261.00742187 67.48308594 -260.01484375 66.96617187 -258.9921875 66.43359375 C-246.71184966 60.40531857 -233.80172305 55.78107945 -221 51 C-220.36296143 50.76180542 -219.72592285 50.52361084 -219.06958008 50.27819824 C-215.0924205 48.79187717 -211.11264077 47.3128403 -207.12966919 45.84216309 C-205.24925802 45.14780469 -203.36961073 44.4513787 -201.48999023 43.75488281 C-194.85032675 41.3206572 -188.19006746 39.09088075 -181.41967773 37.05029297 C-175.47709575 35.225135 -169.59003872 33.23291391 -163.69616699 31.2571106 C-161.35947286 30.47384512 -159.02209971 29.69263424 -156.68457031 28.91186523 C-150.27657663 26.77100677 -143.86992937 24.62612972 -137.46337891 22.48095703 C-120.79855285 16.90178821 -104.12270783 11.3579964 -87.41418457 5.91085815 C-85.71479472 5.35672056 -84.01564633 4.80184174 -82.31677246 4.24612427 C-76.88615891 2.47084675 -71.44907498 0.7178244 -66 -1 C-64.84395264 -1.36446732 -64.84395264 -1.36446732 -63.66455078 -1.73629761 C-61.39021411 -2.44702782 -59.1121351 -3.14395753 -56.83203125 -3.8359375 C-56.16170364 -4.04536484 -55.49137604 -4.25479218 -54.80073547 -4.4705658 C-36.88756907 -9.81427939 -17.71268631 -3.84760148 0 0 Z " transform="translate(519,62)" style="fill: #60C0E5;"/><path d="M0 0 C1.60395956 0.1531534 3.20772334 0.30835803 4.81140137 0.46443176 C6.15107594 0.59374698 6.15107594 0.59374698 7.51781464 0.72567463 C10.25345426 1.02801118 12.86203027 1.53009908 15.53125 2.19921875 C16.49144043 2.43543945 17.45163086 2.67166016 18.44091797 2.91503906 C19.95516357 3.29740723 19.95516357 3.29740723 21.5 3.6875 C23.74193455 4.23930998 25.9841299 4.79006125 28.2265625 5.33984375 C29.36125977 5.61940918 30.49595703 5.89897461 31.66503906 6.18701172 C36.72463325 7.4204267 41.79863949 8.58786258 46.875 9.75 C63.32876585 13.52887985 79.77050907 17.35928889 96.21282959 21.18760681 C100.95606444 22.29191184 105.6995778 23.39499758 110.44361877 24.49583435 C123.12305142 27.43841318 135.78971664 30.42408771 148.4375 33.5 C164.93756677 37.50770175 181.50298334 41.22045556 198.07714844 44.90722656 C226.0520125 51.13095832 226.0520125 51.13095832 239.8125 54.875 C242.72014235 55.66600964 245.63479282 56.41177662 248.5625 57.125 C249.66766968 57.39437378 249.66766968 57.39437378 250.79516602 57.66918945 C252.78838774 58.15142418 254.78281957 58.62864964 256.77734375 59.10546875 C260 60 260 60 264 62 C264 304.88 264 547.76 264 798 C256.29492353 796.71582059 249.43813413 795.44894002 242.1328125 793.078125 C240.74819321 792.64016602 240.74819321 792.64016602 239.33560181 792.19335938 C236.26297735 791.21969409 233.19409359 790.23473276 230.125 789.25 C227.8964377 788.5417652 225.66758753 787.83443569 223.43847656 787.12792969 C218.57484243 785.5858204 213.7124245 784.03994769 208.85058594 782.4921875 C200.67013849 779.89000192 192.48028889 777.31801836 184.2890625 774.75 C182.84655153 774.29767165 181.40404157 773.84534009 179.96153259 773.39300537 C177.77124459 772.70621556 175.58095111 772.01944325 173.39063931 771.33272934 C141.46393249 761.32201885 109.56655116 751.21972634 77.68190002 741.07595825 C70.12505481 738.67259586 62.5653014 736.27864677 54.99897766 733.90527344 C50.37536294 732.45070655 45.77819414 730.93051167 41.1875 729.375 C36.50840617 727.79693302 31.82439748 726.36852832 27.0625 725.0625 C21.73791547 723.56116167 16.51454074 721.87630971 11.3125 720 C10.62873291 719.76289307 9.94496582 719.52578613 9.24047852 719.28149414 C5.38373807 717.85190313 3.01472348 716.64501209 1 713 C0.0159167 710.04775009 -0.12474045 708.1515602 -0.1241985 705.07486373 C-0.12644579 704.05039564 -0.12869308 703.02592755 -0.13100848 701.97041497 C-0.12838146 700.83921074 -0.12575445 699.70800652 -0.12304783 698.54252338 C-0.12420167 697.34031653 -0.12535552 696.13810969 -0.12654433 694.89947233 C-0.1287457 691.54174904 -0.12642861 688.18408229 -0.12226619 684.82636435 C-0.1188421 681.18134154 -0.12120086 677.53632189 -0.12284368 673.89129847 C-0.12492124 667.49614255 -0.12326715 661.10099591 -0.11920547 654.70584106 C-0.1131826 645.19640658 -0.11286854 635.68697797 -0.11374746 626.17754192 C-0.11506294 610.18292771 -0.11171397 594.18831762 -0.10573006 578.19370461 C-0.0998182 562.351184 -0.09596516 546.50866512 -0.09487724 530.66614342 C-0.0948085 529.68204342 -0.09473976 528.69794343 -0.09466894 527.68402222 C-0.09433062 522.68651721 -0.09402923 517.6890122 -0.09374207 512.69150718 C-0.09164023 477.27065531 -0.08489889 441.84980568 -0.07543945 406.42895508 C-0.06625887 372.01261405 -0.05917337 337.59627364 -0.05493164 303.17993164 C-0.05480011 302.11954652 -0.05466859 301.0591614 -0.05453308 299.9666434 C-0.05321459 289.31806832 -0.05193877 278.66949323 -0.05069422 268.02091814 C-0.04815783 246.32747791 -0.04533658 224.63403771 -0.04234314 202.94059753 C-0.04220585 201.94311227 -0.04206856 200.945627 -0.04192711 199.91791491 C-0.03272248 133.27860901 -0.01687682 66.63930435 0 0 Z " transform="translate(267,156)" style="fill: #73CEF1;"/><path d="M0 0 C1.20527344 0.26151855 2.41054688 0.52303711 3.65234375 0.79248047 C9.32277264 2.03229414 14.98700204 3.29792803 20.6484375 4.578125 C26.44115004 5.88396642 32.2464996 7.11519327 38.0625 8.3125 C49.38846578 10.64618712 60.69423819 13.07076697 72 15.5 C86.98939442 18.71903388 101.98444749 21.9049005 117 25 C126.66784787 26.99431774 136.33486412 28.99257629 146 31 C147.11293427 31.23103424 147.11293427 31.23103424 148.24835205 31.46673584 C165.96276102 35.14565747 183.66646594 38.83368953 201.27539062 42.99438477 C206.74385659 44.27919257 212.21109747 45.4509316 217.73339844 46.47924805 C226.08237383 48.03824395 234.2250457 50.03954629 242.375 52.4375 C243.3446167 52.71392334 244.3142334 52.99034668 245.31323242 53.27514648 C250.9469162 54.99397314 254.91205415 56.69792365 259 61 C260.73144911 64.54537912 261.25030021 67.3784558 261.251849 71.3042419 C261.25711226 72.36243373 261.26237552 73.42062556 261.26779827 74.51088381 C261.26340179 75.66955698 261.25900531 76.82823014 261.25447559 78.02201462 C261.25928531 79.8804582 261.25928531 79.8804582 261.26419219 81.7764461 C261.27108264 85.22804556 261.26897663 88.67943067 261.26313647 92.13101834 C261.25897547 95.88136253 261.26636284 99.6316866 261.27228898 103.38202596 C261.28106614 109.95926111 261.28235772 116.53646513 261.27878571 123.11370468 C261.27348794 132.89433889 261.27956469 142.67494285 261.28786864 152.45557376 C261.30312928 170.93894434 261.30481155 189.42230125 261.30234561 207.90567681 C261.30051458 222.17750907 261.30226857 236.44933683 261.30657005 250.72116852 C261.30717245 252.76994475 261.30777365 254.81872099 261.30837366 256.86749722 C261.30928089 259.95463861 261.31018955 263.04178 261.31110601 266.12892138 C261.31953882 294.84167875 261.323869 323.55443441 261.31969929 352.26719284 C261.31954291 353.3501895 261.31938654 354.43318617 261.31922542 355.54900091 C261.31841961 361.0383292 261.31757384 366.52765747 261.31671212 372.01698574 C261.31654103 373.1072251 261.31636994 374.19746446 261.31619367 375.32074138 C261.31584702 377.52547215 261.31549849 379.73020292 261.31514808 381.9349337 C261.30979088 416.2404868 261.31771993 450.54601419 261.33618164 484.8515625 C261.3568893 523.37585569 261.36762665 561.90013297 261.36360615 600.42443204 C261.3632108 604.53081083 261.36284925 608.63718962 261.36250877 612.74356842 C261.36241804 613.75469526 261.36232731 614.76582211 261.36223383 615.80758916 C261.36106692 631.08434622 261.3677233 646.36108722 261.37832069 661.63784027 C261.39035876 679.00935207 261.39194781 696.38082845 261.37953053 713.75234076 C261.37289039 723.47747898 261.37455952 733.20253257 261.38811904 742.92766406 C261.39634439 749.42148077 261.39369098 755.9152339 261.38214377 762.40904541 C261.37586826 766.11059303 261.37433553 769.81197517 261.38600711 773.51351342 C261.39846363 777.50063292 261.38773695 781.48749872 261.37473011 785.47462082 C261.38203946 786.62392932 261.3893488 787.77323782 261.39687964 788.95737386 C261.3448524 796.61842688 260.31926931 803.01085679 256.4375 809.6875 C252.7126729 813.22131033 248.4818063 815.53184223 244 818 C243.41686035 818.32436035 242.8337207 818.6487207 242.23291016 818.98291016 C240.32693592 820.03968302 238.4149191 821.08453073 236.5 822.125 C235.90791748 822.44960205 235.31583496 822.7742041 234.70581055 823.10864258 C230.47788624 825.36800953 226.15857348 827.17969765 221.69580078 828.92382812 C216.80189936 830.87748847 212.00260603 833.04862771 207.1875 835.1875 C199.29352516 838.68066683 191.38433302 842.12894059 183.4375 845.5 C175.21999042 848.99717587 167.09788637 852.67752653 158.99145508 856.42407227 C149.7428429 860.68711014 140.43708783 864.81569664 131.125 868.9375 C119.62507664 874.03043811 108.16055753 879.18685401 96.75244141 884.4831543 C84.38972405 890.22166937 71.98135666 895.85910725 59.56382751 901.47784424 C55.82383093 903.17073135 52.08929434 904.87488269 48.359375 906.58984375 C32.00506146 914.07199207 18.13376789 918.72641339 0.35546875 913.890625 C-0.87567909 913.56068291 -0.87567909 913.56068291 -2.13169861 913.22407532 C-10.95782373 910.81185232 -19.64186447 907.98102132 -28.32315063 905.09729004 C-33.03965278 903.53084995 -37.76215764 901.98270244 -42.484375 900.43359375 C-43.86729485 899.97933517 -43.86729485 899.97933517 -45.27815247 899.51589966 C-52.43059241 897.17201201 -59.60743705 894.92732576 -66.8125 892.75 C-75.47018674 890.12767017 -84.05466693 887.33218497 -92.625 884.4375 C-105.40330234 880.13228653 -118.24949988 876.06696075 -131.125 872.0625 C-149.53848927 866.33494101 -167.9363884 860.56055165 -186.31954193 854.73649216 C-188.20857097 854.13812306 -190.09772285 853.54014177 -191.98687744 852.94216919 C-205.38500528 848.70091687 -218.77732525 844.44162752 -232.16015625 840.15234375 C-233.29934509 839.78815338 -234.43853394 839.42396301 -235.61224365 839.04873657 C-266.11754509 829.2523648 -266.11754509 829.2523648 -272 821 C-275.21277384 814.13590461 -275.42448623 808.1692201 -275.38031673 800.65848732 C-275.38730661 798.80289851 -275.38730661 798.80289851 -275.3944377 796.90982306 C-275.40432604 793.47744293 -275.4008029 790.04555255 -275.39160402 786.61320207 C-275.38489282 782.8785591 -275.39556105 779.14395888 -275.40399987 775.409325 C-275.41637589 768.86428315 -275.41757517 762.31931299 -275.41144943 755.77426338 C-275.40236451 746.04150041 -275.41038547 736.30880382 -275.42174067 726.57604595 C-275.44141986 709.19348911 -275.44375259 691.81096207 -275.43854547 674.42839675 C-275.43399048 659.21548853 -275.43458475 644.00259213 -275.44038582 628.7896843 C-275.44114268 626.75002046 -275.44189866 624.71035663 -275.44265376 622.67069279 C-275.44379894 619.59720098 -275.44494882 616.52370916 -275.44611301 613.45021735 C-275.45682011 584.87070381 -275.4615411 556.29119421 -275.45364285 527.71167946 C-275.45334567 526.63405464 -275.4530485 525.55642982 -275.45274232 524.44614971 C-275.45029332 515.6947582 -275.44768177 506.94336674 -275.44505819 498.19197528 C-275.43495531 464.05374609 -275.44331109 429.91556608 -275.46655273 395.77734375 C-275.4926165 357.43173789 -275.50547563 319.08616164 -275.49836498 280.74054658 C-275.49764891 276.65301347 -275.49697452 272.56548036 -275.49632454 268.47794724 C-275.49615473 267.47147677 -275.49598492 266.4650063 -275.49580997 265.42803673 C-275.4935056 250.22554869 -275.50149051 235.02308811 -275.51461601 219.82060623 C-275.52951411 202.53409234 -275.53038806 185.24764289 -275.5125451 167.9611304 C-275.50296907 158.28504341 -275.50444352 148.60910664 -275.52177979 138.93302963 C-275.53225069 132.47073526 -275.52819513 126.00855559 -275.51229975 119.54627255 C-275.50364853 115.86356811 -275.50129043 112.1811585 -275.51656907 108.49846895 C-275.53287847 104.52989347 -275.51821963 100.56177238 -275.50057125 96.59319496 C-275.51022176 95.45218405 -275.51987227 94.31117314 -275.52981523 93.13558614 C-275.46619669 86.18956872 -274.62217947 80.05617869 -271 74 C-268.24038705 71.40148582 -265.37002822 69.7232014 -262 68 C-261.00742187 67.48308594 -260.01484375 66.96617187 -258.9921875 66.43359375 C-246.71184966 60.40531857 -233.80172305 55.78107945 -221 51 C-220.36296143 50.76180542 -219.72592285 50.52361084 -219.06958008 50.27819824 C-215.0924205 48.79187717 -211.11264077 47.3128403 -207.12966919 45.84216309 C-205.24925802 45.14780469 -203.36961073 44.4513787 -201.48999023 43.75488281 C-194.85032675 41.3206572 -188.19006746 39.09088075 -181.41967773 37.05029297 C-175.47709575 35.225135 -169.59003872 33.23291391 -163.69616699 31.2571106 C-161.35947286 30.47384512 -159.02209971 29.69263424 -156.68457031 28.91186523 C-150.27657663 26.77100677 -143.86992937 24.62612972 -137.46337891 22.48095703 C-120.79855285 16.90178821 -104.12270783 11.3579964 -87.41418457 5.91085815 C-85.71479472 5.35672056 -84.01564633 4.80184174 -82.31677246 4.24612427 C-76.88615891 2.47084675 -71.44907498 0.7178244 -66 -1 C-64.84395264 -1.36446732 -64.84395264 -1.36446732 -63.66455078 -1.73629761 C-61.39021411 -2.44702782 -59.1121351 -3.14395753 -56.83203125 -3.8359375 C-56.16170364 -4.04536484 -55.49137604 -4.25479218 -54.80073547 -4.4705658 C-36.88756907 -9.81427939 -17.71268631 -3.84760148 0 0 Z M229.10546875 86.08203125 C228.39827194 86.30494339 227.69107513 86.52785553 226.96244812 86.75752258 C218.032272 89.59491902 209.1735687 92.64270978 200.3125 95.6875 C198.48059428 96.31547712 196.64864375 96.94332352 194.81665039 97.57104492 C191.18687977 98.81524051 187.55759279 100.06083186 183.92871094 101.30761719 C179.81066694 102.72229059 175.69085417 104.1316822 171.5703125 105.5390625 C154.20533727 111.48327085 136.90749502 117.61522427 119.61303711 123.76098633 C106.95464371 128.2576411 94.27925855 132.70248586 81.58703613 137.10275269 C69.97278013 141.13086032 58.37452031 145.19891485 46.8125 149.375 C45.36701782 149.89416992 45.36701782 149.89416992 43.89233398 150.42382812 C42.56310913 150.90625977 42.56310913 150.90625977 41.20703125 151.3984375 C40.02330933 151.82648682 40.02330933 151.82648682 38.81567383 152.26318359 C37.01252332 152.85770303 37.01252332 152.85770303 36 154 C35.90249306 155.60564685 35.87552714 157.21561117 35.8758015 158.82421595 C35.87355421 159.87715805 35.87130692 160.93010015 35.86899152 162.01494959 C35.87161854 163.18830778 35.87424555 164.36166598 35.87695217 165.57058048 C35.87579833 166.80931224 35.87464448 168.04804399 35.87345567 169.32431307 C35.87124947 172.7937969 35.87357827 176.26322632 35.87773381 179.73270502 C35.88115101 183.49540231 35.87880047 187.25809648 35.87715632 191.02079433 C35.87507659 197.62566038 35.87673652 204.23051745 35.88079453 210.83538246 C35.886812 220.65668445 35.88713197 230.47798073 35.88625254 240.29928422 C35.88493639 256.81763837 35.88828854 273.33598852 35.89426994 289.85434151 C35.90018006 306.21765729 35.90403449 322.58097141 35.90512276 338.94428825 C35.9051915 339.9604117 35.90526024 340.97653515 35.90533106 342.02345022 C35.90566938 347.18349418 35.90597077 352.34353815 35.90625793 357.50358211 C35.90836026 394.0846646 35.91510293 430.66574491 35.92456055 467.24682617 C35.93373986 502.79239897 35.94082598 538.33797118 35.94506836 573.88354492 C35.94519989 574.97855638 35.94533141 576.07356784 35.94546692 577.20176146 C35.9467854 588.19797398 35.94806122 599.1941865 35.94930578 610.19039903 C35.95184223 632.59242242 35.95466348 654.99444578 35.95765686 677.39646912 C35.95779415 678.42655521 35.95793144 679.4566413 35.95807289 680.51794212 C35.96727886 749.34529565 35.98312468 818.17264797 36 887 C39.17748239 885.57380403 42.35441168 884.14637997 45.53125 882.71875 C46.86784668 882.11885254 46.86784668 882.11885254 48.23144531 881.50683594 C53.34007073 879.2102979 58.43078394 876.88227082 63.5 874.5 C77.79643297 867.79377728 92.25051027 861.43796544 106.70922852 855.09130859 C116.5010095 850.78939513 126.25415868 846.40475371 136 842 C139.1868968 840.56115952 142.37445105 839.1237858 145.5625 837.6875 C146.38073242 837.31874756 147.19896484 836.94999512 148.04199219 836.57006836 C152.69865677 834.47474751 157.36146966 832.39405947 162.03125 830.328125 C174.35253398 824.87706615 186.64888763 819.37483716 198.90914917 813.78787231 C200.39822506 813.10954367 201.88772979 812.43215544 203.37771606 811.75582886 C207.56409693 809.85447917 211.7399053 807.93255381 215.902771 805.98022461 C217.34012447 805.30841946 218.78009279 804.64218876 220.222229 803.98071289 C222.4233994 802.96746717 224.61273744 801.93186285 226.80078125 800.890625 C227.46554977 800.5892865 228.1303183 800.287948 228.81523132 799.97747803 C233.195438 797.8538317 236.15890399 795.52432066 238 791 C238.57952166 787.07221398 238.52943417 783.18447739 238.49219131 779.22023201 C238.49680669 778.01962875 238.50142207 776.81902549 238.50617731 775.58204031 C238.51495489 772.24248661 238.5057568 768.90384967 238.48906477 765.5643834 C238.47532712 761.9341698 238.48481129 758.30400559 238.49137473 754.67378223 C238.4996721 748.30924949 238.49309063 741.94486626 238.4768219 735.58035088 C238.45269805 726.11655651 238.45147716 716.65285657 238.45498985 707.18903706 C238.46024781 691.27003022 238.44687091 675.35108973 238.42292023 659.4321022 C238.39926243 643.66741737 238.38385853 627.90276017 238.37950897 612.13805771 C238.37923401 611.15832297 238.37895906 610.17858824 238.37867576 609.16916457 C238.37732246 604.19370659 238.37611691 599.21824859 238.37496826 594.24279056 C238.36656377 558.98996655 238.33960641 523.73717866 238.30175781 488.484375 C238.26502791 454.23405143 238.23668963 419.98373775 238.21972656 385.73339844 C238.21920046 384.67789006 238.21867435 383.62238169 238.21813231 382.53488822 C238.21285828 371.93516226 238.20775502 361.33543623 238.20277687 350.73571014 C238.19263167 329.14231819 238.18134666 307.54892689 238.16937256 285.95553589 C238.1688234 284.96267896 238.16827424 283.96982203 238.16770844 282.94687853 C238.13089788 216.63123733 238.06751615 150.31561617 238 84 C234.88344509 84 232.05202165 85.14708713 229.10546875 86.08203125 Z M-252 94 C-252.05140284 161.60451718 -252.09910342 229.20903669 -252.12702942 296.81356812 C-252.12744359 297.81365343 -252.12785776 298.81373874 -252.12828448 299.84412967 C-252.13726257 321.57709285 -252.14557321 343.31005623 -252.15319599 365.04301993 C-252.1569381 375.70039224 -252.16082774 386.35776449 -252.16479492 397.01513672 C-252.1651872 398.07569048 -252.16557948 399.13624423 -252.16598364 400.22893598 C-252.17877459 434.62328991 -252.20131367 469.01762907 -252.22889166 503.41197404 C-252.2571731 538.74769549 -252.27565253 574.08340876 -252.28174497 609.41914134 C-252.28260947 614.40659814 -252.28358638 619.39405492 -252.28463173 624.38151169 C-252.284834 625.36314399 -252.28503627 626.34477629 -252.28524467 627.35615503 C-252.288794 643.17702247 -252.30271942 658.99786468 -252.3204961 674.81872182 C-252.33813414 690.71233426 -252.34490989 706.60592162 -252.34050413 722.4995435 C-252.33821716 731.94979115 -252.34435223 741.39994724 -252.36239263 750.8501784 C-252.37361315 757.15710094 -252.37401159 763.46396328 -252.36549544 769.77088991 C-252.3609512 773.36824899 -252.36122121 776.96543449 -252.37464955 780.56277521 C-252.3889874 784.43305563 -252.38025529 788.30308422 -252.36914349 792.1733799 C-252.38096505 793.85836467 -252.38096505 793.85836467 -252.39302543 795.57738954 C-252.35679419 801.1191698 -252.2109469 805.25028467 -249 810 C-247.32345816 811.42186766 -247.32345816 811.42186766 -245.3515625 812.1875 C-244.64547852 812.49945312 -243.93939453 812.81140625 -243.21191406 813.1328125 C-239.63144846 814.53654471 -236.03559052 815.82083633 -232.375 817 C-231.66988281 817.23460937 -230.96476562 817.46921875 -230.23828125 817.7109375 C-225.71901725 819.19344739 -221.16821315 820.52458709 -216.58862305 821.80810547 C-209.18839052 823.91659597 -201.87290056 826.24558949 -194.55859375 828.6328125 C-192.51393236 829.29670126 -190.46894312 829.95957311 -188.42392254 830.62235451 C-187.02419043 831.07600573 -185.62453816 831.52990336 -184.2249651 831.98404503 C-171.85331306 835.9969408 -159.45631998 839.93122377 -147.0625 843.875 C-146.3693998 844.09561348 -145.67629959 844.31622696 -144.96219635 844.5435257 C-120.29771539 852.39387366 -95.60929787 860.16586131 -70.89575195 867.86035156 C-69.91943392 868.16434309 -69.91943392 868.16434309 -68.9233923 868.47447586 C-68.2759081 868.67607693 -67.6284239 868.87767799 -66.96131897 869.08538818 C-66.31735735 869.28589531 -65.67339573 869.48640244 -65.00992012 869.69298553 C-63.72131556 870.09418767 -62.43269441 870.49533652 -61.14405632 870.89643097 C-52.00150085 873.74268526 -42.86909874 876.61963921 -33.7421875 879.515625 C-30.44729568 880.55777719 -27.15219182 881.59925569 -23.85699463 882.64044189 C-21.82103667 883.2856052 -19.78596545 883.93357506 -17.75189209 884.58465576 C-14.97747072 885.4725761 -12.20007386 886.35054605 -9.421875 887.2265625 C-8.63730927 887.48076965 -7.85274353 887.73497681 -7.04440308 887.99688721 C-0.63429016 890.00118397 5.18959002 890.86493167 12 892 C12 649.12 12 406.24 12 156 C4.3103763 152.81007267 4.3103763 152.81007267 -3.42578125 150.54296875 C-4.37171143 150.32125 -5.3176416 150.09953125 -6.29223633 149.87109375 C-7.28892334 149.64550781 -8.28561035 149.41992188 -9.3125 149.1875 C-11.53138728 148.67116249 -13.75013163 148.15421049 -15.96875 147.63671875 C-17.11988281 147.37036621 -18.27101563 147.10401367 -19.45703125 146.82958984 C-23.00826629 145.99806444 -26.55163137 145.13902222 -30.09375 144.26953125 C-43.18523955 141.05693398 -56.29460355 138.03962848 -69.48632812 135.26733398 C-79.02432354 133.24737422 -88.49274039 130.98697658 -97.9621582 128.66918945 C-106.51753988 126.58141457 -115.09241099 124.60478434 -123.6875 122.6875 C-136.15244762 119.90358452 -148.57948287 116.97560083 -161 114 C-174.74778931 110.70657728 -188.50874358 107.49764977 -202.30493164 104.41333008 C-212.507282 102.12736317 -222.67830325 99.72227501 -232.83984375 97.26171875 C-233.72397949 97.04821777 -234.60811523 96.8347168 -235.51904297 96.61474609 C-237.10041961 96.22290331 -238.67817657 95.8159256 -240.25048828 95.38916016 C-244.29769542 94.29772472 -247.82336598 93.92158457 -252 94 Z " transform="translate(519,62)" style="fill: #272F3E;"/><path d="M0 0 C1.60395956 0.1531534 3.20772334 0.30835803 4.81140137 0.46443176 C6.15107594 0.59374698 6.15107594 0.59374698 7.51781464 0.72567463 C10.25345426 1.02801118 12.86203027 1.53009908 15.53125 2.19921875 C16.49144043 2.43543945 17.45163086 2.67166016 18.44091797 2.91503906 C19.95516357 3.29740723 19.95516357 3.29740723 21.5 3.6875 C23.74193455 4.23930998 25.9841299 4.79006125 28.2265625 5.33984375 C29.36125977 5.61940918 30.49595703 5.89897461 31.66503906 6.18701172 C36.72463325 7.4204267 41.79863949 8.58786258 46.875 9.75 C63.32876585 13.52887985 79.77050907 17.35928889 96.21282959 21.18760681 C100.95606444 22.29191184 105.6995778 23.39499758 110.44361877 24.49583435 C123.12305142 27.43841318 135.78971664 30.42408771 148.4375 33.5 C164.93756677 37.50770175 181.50298334 41.22045556 198.07714844 44.90722656 C226.0520125 51.13095832 226.0520125 51.13095832 239.8125 54.875 C242.72014235 55.66600964 245.63479282 56.41177662 248.5625 57.125 C249.66766968 57.39437378 249.66766968 57.39437378 250.79516602 57.66918945 C252.78838774 58.15142418 254.78281957 58.62864964 256.77734375 59.10546875 C260 60 260 60 264 62 C264 304.88 264 547.76 264 798 C256.29492353 796.71582059 249.43813413 795.44894002 242.1328125 793.078125 C240.74819321 792.64016602 240.74819321 792.64016602 239.33560181 792.19335938 C236.26297735 791.21969409 233.19409359 790.23473276 230.125 789.25 C227.8964377 788.5417652 225.66758753 787.83443569 223.43847656 787.12792969 C218.57484243 785.5858204 213.7124245 784.03994769 208.85058594 782.4921875 C200.67013849 779.89000192 192.48028889 777.31801836 184.2890625 774.75 C182.84655153 774.29767165 181.40404157 773.84534009 179.96153259 773.39300537 C177.77124459 772.70621556 175.58095111 772.01944325 173.39063931 771.33272934 C141.46393249 761.32201885 109.56655116 751.21972634 77.68190002 741.07595825 C70.12505481 738.67259586 62.5653014 736.27864677 54.99897766 733.90527344 C50.37536294 732.45070655 45.77819414 730.93051167 41.1875 729.375 C36.50840617 727.79693302 31.82439748 726.36852832 27.0625 725.0625 C21.73791547 723.56116167 16.51454074 721.87630971 11.3125 720 C10.62873291 719.76289307 9.94496582 719.52578613 9.24047852 719.28149414 C5.38373807 717.85190313 3.01472348 716.64501209 1 713 C0.0159167 710.04775009 -0.12474045 708.1515602 -0.1241985 705.07486373 C-0.12644579 704.05039564 -0.12869308 703.02592755 -0.13100848 701.97041497 C-0.12838146 700.83921074 -0.12575445 699.70800652 -0.12304783 698.54252338 C-0.12420167 697.34031653 -0.12535552 696.13810969 -0.12654433 694.89947233 C-0.1287457 691.54174904 -0.12642861 688.18408229 -0.12226619 684.82636435 C-0.1188421 681.18134154 -0.12120086 677.53632189 -0.12284368 673.89129847 C-0.12492124 667.49614255 -0.12326715 661.10099591 -0.11920547 654.70584106 C-0.1131826 645.19640658 -0.11286854 635.68697797 -0.11374746 626.17754192 C-0.11506294 610.18292771 -0.11171397 594.18831762 -0.10573006 578.19370461 C-0.0998182 562.351184 -0.09596516 546.50866512 -0.09487724 530.66614342 C-0.0948085 529.68204342 -0.09473976 528.69794343 -0.09466894 527.68402222 C-0.09433062 522.68651721 -0.09402923 517.6890122 -0.09374207 512.69150718 C-0.09164023 477.27065531 -0.08489889 441.84980568 -0.07543945 406.42895508 C-0.06625887 372.01261405 -0.05917337 337.59627364 -0.05493164 303.17993164 C-0.05480011 302.11954652 -0.05466859 301.0591614 -0.05453308 299.9666434 C-0.05321459 289.31806832 -0.05193877 278.66949323 -0.05069422 268.02091814 C-0.04815783 246.32747791 -0.04533658 224.63403771 -0.04234314 202.94059753 C-0.04220585 201.94311227 -0.04206856 200.945627 -0.04192711 199.91791491 C-0.03272248 133.27860901 -0.01687682 66.63930435 0 0 Z M20 23 C19.14029833 25.97860897 18.87459888 28.62472145 18.87350017 31.72067863 C18.87074042 32.67392958 18.86798068 33.62718053 18.86513731 34.60931787 C18.86719263 35.65567687 18.86924795 36.70203588 18.87136555 37.78010273 C18.86961251 38.89694756 18.86785947 40.0137924 18.86605331 41.16448101 C18.86136899 44.93968833 18.86386505 48.71485755 18.86628723 52.49006653 C18.86497299 55.21089918 18.86216041 57.93172983 18.85942191 60.65256137 C18.8542609 66.58517164 18.85285192 72.51777375 18.85387802 78.45038605 C18.85540016 87.27238587 18.85124739 96.09437663 18.8460034 104.9163747 C18.83632074 121.58776138 18.83351881 138.259145 18.83294634 154.93053416 C18.83248721 167.80271125 18.83043102 180.67488713 18.82724571 193.54706383 C18.8263482 197.2491799 18.82545839 200.95129597 18.82457083 204.65341204 C18.82434979 205.57370865 18.82412874 206.49400526 18.82390099 207.44218964 C18.81774477 233.33672063 18.81380063 259.23125121 18.81424427 285.12578297 C18.81425985 286.10253014 18.81427543 287.07927732 18.81429148 288.0856229 C18.81437459 293.03644638 18.81447363 297.98726986 18.81457619 302.93809334 C18.81459613 303.92138578 18.81461608 304.90467822 18.81463663 305.9177674 C18.81467706 307.90622526 18.81471886 309.89468312 18.81476202 311.88314099 C18.81537487 342.82517486 18.80786723 373.76719778 18.79418945 404.70922852 C18.77883729 439.4535907 18.77022271 474.19794568 18.77115268 508.94231147 C18.77122731 512.6453706 18.77127601 516.34842974 18.77130699 520.05148888 C18.77131865 520.96331023 18.7713303 521.87513159 18.77134231 522.81458389 C18.77137311 537.50434917 18.76498033 552.19410496 18.75637473 566.88386742 C18.74790825 581.64111768 18.74690039 596.39835401 18.75348405 611.15560535 C18.75718643 619.92799835 18.75532688 628.70034911 18.74554171 637.47273765 C18.73956008 643.32896157 18.74081685 649.18515476 18.74801221 655.04137724 C18.75190916 658.38041563 18.75152888 661.71930493 18.74455485 665.05834839 C18.73754153 668.65309968 18.7427517 672.24763029 18.75111103 675.84237385 C18.74614285 676.88170935 18.74117467 677.92104486 18.73605594 678.99187538 C18.7682454 685.50158218 19.20904403 690.86582706 22.5 696.625 C29.89345206 703.64877946 40.81568464 706.16555604 50.3125 709.25 C51.77990889 709.73261548 53.24719196 710.21561367 54.71435547 710.69897461 C65.17418813 714.13257862 75.67605367 717.42454528 86.19824219 720.66186523 C109.95909045 727.97351749 133.54825019 735.80830758 157.1217804 743.69871521 C162.41982287 745.47204774 167.71916694 747.24143227 173.01953125 749.0078125 C174.1334021 749.37913803 174.1334021 749.37913803 175.26977539 749.75796509 C178.99091758 750.99822796 182.71255942 752.2369602 186.43505859 753.47314453 C193.46350369 755.80897924 200.48605832 758.1595744 207.49343872 760.5579834 C210.80118628 761.6891911 214.11153787 762.81266354 217.42211914 763.93554688 C218.99863599 764.47269938 220.57387 765.01363382 222.14770508 765.55859375 C224.33099324 766.31432023 226.51837613 767.05686184 228.70703125 767.796875 C229.9494458 768.22323242 231.19186035 768.64958984 232.47192383 769.08886719 C236.12664616 770.03270663 239.24240013 770.16996442 243 770 C245.32612272 766.35315442 245.27801777 762.88473978 245.24609566 758.6986351 C245.24840335 757.9578888 245.25071103 757.21714249 245.25308865 756.45394933 C245.25840564 753.95812209 245.24939053 751.46255005 245.24050903 748.96673584 C245.24138075 747.16487004 245.24313111 745.36300449 245.24568737 743.5611403 C245.2501715 738.59905925 245.24214258 733.6370641 245.23213124 728.67499399 C245.22351438 723.32804773 245.22641565 717.98110652 245.22793579 712.63415527 C245.22898576 703.36664426 245.22269746 694.09916135 245.21146011 684.83165741 C245.19522324 671.4323166 245.18999897 658.03298942 245.18748413 644.63363984 C245.18310418 622.89540062 245.16978693 601.15717639 245.15087891 579.41894531 C245.13252787 558.29915441 245.11836757 537.17936758 245.10986328 516.05957031 C245.10907511 514.10765155 245.10907511 514.10765155 245.10827102 512.11630008 C245.10566099 505.58832757 245.10313356 499.06035504 245.10064721 492.53238249 C245.07990536 438.35491131 245.04467166 384.17745637 245 330 C243.24831098 329.9869568 241.49659368 329.97767634 239.74487305 329.9699707 C238.76939011 329.96439651 237.79390717 329.95882233 236.78886414 329.95307922 C233.8705818 330.00217737 231.04645845 330.34262348 228.15869141 330.75537109 C212.3046998 332.55198946 196.29629509 331.40485026 181 327 C180.24283691 326.78569336 179.48567383 326.57138672 178.70556641 326.35058594 C167.49418499 323.09589799 157.24550113 318.55414009 147 313 C145.8759375 312.40703125 144.751875 311.8140625 143.59375 311.203125 C136.48918899 307.31885566 130.00121146 302.91068127 123.4375 298.1875 C113.46363561 291.04583853 103.0417031 285.31305218 92 280 C90.27523437 279.16082031 90.27523437 279.16082031 88.515625 278.3046875 C73.85408724 271.63040538 57.79327101 266.1552975 42 263 C50.38946274 259.44207509 58.99490723 256.5654424 67.62359619 253.65655518 C80.48897445 249.31535722 93.29119322 244.8730141 105.97998047 240.03686523 C114.45606921 236.80720123 123.00007358 233.7991087 131.57324219 230.83837891 C148.67985905 224.92850745 165.76523168 218.93652805 182.66601562 212.45776367 C185.76702902 211.27615772 188.88200251 210.13606946 192 209 C192.89847656 208.65839844 193.79695312 208.31679688 194.72265625 207.96484375 C207.99671566 203.55383483 223.081941 205.53287981 236.49609375 208.34375 C240.22495258 209.15340838 240.22495258 209.15340838 245 209 C245 204.05 245 199.1 245 194 C220.71195394 185.55345884 199.13071037 189.13810613 175.82080078 198.49853516 C169.7163444 200.92953084 163.49174856 203.03140095 157.2855835 205.18527222 C153.68692817 206.43817845 150.09546959 207.71130972 146.50390625 208.984375 C145.79516357 209.23533432 145.0864209 209.48629364 144.35620117 209.74485779 C139.53560124 211.45272728 134.71836688 213.16989834 129.90234375 214.890625 C116.60577531 219.63817754 103.28776586 224.29401369 89.87841797 228.71630859 C81.95190047 231.33334373 74.06584784 234.05417035 66.1875 236.8125 C58.523239 239.49499135 50.90236529 242.05295699 43.02734375 244.05078125 C38.89064372 245.34783687 34.96162764 247.2392766 31 249 C31 175.74 31 102.48 31 27 C25.52016762 24.54497573 25.52016762 24.54497573 20 23 Z " transform="translate(267,156)" style="fill: #F7FDFD;"/><path d="M0 0 C0.06853719 67.31850209 0.13213796 134.63700835 0.16937256 201.95553589 C0.16992479 202.95139199 0.17047702 203.94724809 0.17104598 204.97328165 C0.18301677 226.61434504 0.19409761 248.2554088 0.20426132 269.89647312 C0.2092508 280.50878164 0.21443699 291.12109006 0.21972656 301.73339844 C0.2202496 302.78946767 0.22077263 303.8455369 0.22131152 304.93360822 C0.23836609 339.18246292 0.26841817 373.43129127 0.30518888 407.68013 C0.34289756 442.86639592 0.36753673 478.05264725 0.37565996 513.23893304 C0.37681263 518.20530796 0.37811518 523.17168284 0.37950897 528.13805771 C0.37991351 529.60428199 0.37991351 529.60428199 0.38032622 531.10012696 C0.38505865 546.8540557 0.40362582 562.60793943 0.42732814 578.36184979 C0.45084567 594.18825387 0.45987982 610.01461318 0.45400551 625.84103413 C0.45095623 635.25131793 0.45913604 644.66143827 0.48319017 654.07169264 C0.49815111 660.35197223 0.49868201 666.63214435 0.48732725 672.91243126 C0.48126829 676.49461496 0.48162766 680.07648877 0.49953273 683.65863968 C0.51865086 687.51264457 0.50700704 691.36619989 0.49219131 695.22023201 C0.50269937 696.33874215 0.51320742 697.4572523 0.5240339 698.60965669 C0.47068516 704.70413759 0.1647068 708.41143829 -4 713 C-6.36443642 714.4888801 -8.48662082 715.65402158 -11.00390625 716.79296875 C-11.70125381 717.12467575 -12.39860138 717.45638275 -13.11708069 717.79814148 C-15.40430029 718.88126333 -17.70179668 719.94041207 -20 721 C-21.5825864 721.74538521 -23.16444654 722.49231417 -24.74560547 723.24072266 C-29.79746628 725.62433508 -34.86597898 727.97107132 -39.9375 730.3125 C-41.28669525 730.93670334 -41.28669525 730.93670334 -42.66314697 731.57351685 C-56.06375178 737.7715526 -69.51362354 743.83201125 -83.05566406 749.71533203 C-88.46537512 752.07568855 -93.85725199 754.47619967 -99.25 756.875 C-100.36745605 757.37185303 -101.48491211 757.86870605 -102.63623047 758.38061523 C-112.15158352 762.61518574 -121.65533388 766.87554917 -131.15649414 771.1418457 C-138.20317353 774.30428325 -145.25823476 777.44682956 -152.32128906 780.57250977 C-163.76768585 785.63904295 -175.16366663 790.80266644 -186.5144043 796.08032227 C-188.03094604 796.78499634 -188.03094604 796.78499634 -189.578125 797.50390625 C-190.45887695 797.91455322 -191.33962891 798.3252002 -192.24707031 798.74829102 C-195.47548561 800.21619499 -198.74028517 801.60297936 -202 803 C-202 561.11 -202 319.22 -202 70 C-191.87839196 65.50150754 -191.87839196 65.50150754 -186.5859375 63.703125 C-185.42521729 63.30617432 -184.26449707 62.90922363 -183.06860352 62.50024414 C-181.84971436 62.08766357 -180.6308252 61.67508301 -179.375 61.25 C-178.07787346 60.80705724 -176.78091954 60.36360868 -175.48413086 59.91967773 C-172.87622834 59.02726892 -170.26776824 58.13652829 -167.65869141 57.24755859 C-154.23579716 52.67055408 -140.86734162 47.97274921 -127.5625 43.0625 C-96.50739616 31.62779715 -65.33597775 20.56103371 -33.81762695 10.46557617 C-32.14271001 9.92897005 -30.4678228 9.39227112 -28.79296875 8.85546875 C-28.00877563 8.60425766 -27.22458252 8.35304657 -26.41662598 8.09422302 C-21.27613756 6.43787495 -16.18474918 4.67986272 -11.12841797 2.77954102 C-3.53930473 0 -3.53930473 0 0 0 Z M-183 213 C-185.39551186 217.69790543 -185.279684 221.97194429 -185.25168228 227.11553288 C-185.25458916 228.04026737 -185.25749604 228.96500186 -185.26049101 229.91775861 C-185.26782174 233.03345907 -185.26083329 236.14896449 -185.25396729 239.2646637 C-185.2562705 241.51414543 -185.25944608 243.76362641 -185.26342177 246.01310581 C-185.27179752 252.20796467 -185.2676319 258.40276219 -185.26144934 264.59762132 C-185.25740033 270.58804863 -185.2627131 276.57846558 -185.26774407 282.56889051 C-185.2782841 295.57985628 -185.2773594 308.59080242 -185.27158624 321.60177006 C-185.26655906 332.9871241 -185.2652399 344.37247093 -185.26763153 355.75782585 C-185.2677843 356.51246065 -185.26793707 357.26709545 -185.26809447 358.04459797 C-185.26871713 361.10774271 -185.26935392 364.17088746 -185.270014 367.2340322 C-185.27613451 395.97918496 -185.27058098 424.72432521 -185.2598202 453.46947604 C-185.25032775 479.02091716 -185.25117877 504.57233835 -185.26074219 530.1237793 C-185.27144564 558.81720169 -185.27570144 587.51061302 -185.26951766 616.20403713 C-185.2688762 619.26135472 -185.26825052 622.31867232 -185.26763153 625.37598991 C-185.26747338 626.12880473 -185.26731522 626.88161955 -185.26715227 627.65724694 C-185.26487502 639.0375437 -185.26754215 650.41783247 -185.27259064 661.79812813 C-185.27830057 674.73412617 -185.27689781 687.67010149 -185.26602915 700.60609669 C-185.2606632 707.21103161 -185.25873891 713.81593432 -185.26532745 720.42086983 C-185.27126074 726.46007166 -185.26805538 732.49919513 -185.25737235 738.53838979 C-185.25512716 740.73008627 -185.25629945 742.92178928 -185.26112393 745.11348159 C-185.26715445 748.07918629 -185.26101954 751.04461812 -185.25168228 754.01030827 C-185.25636461 754.87273924 -185.26104695 755.73517021 -185.26587117 756.62373546 C-185.24019823 760.66882299 -184.97830799 763.48104283 -183 767 C-178.04800938 766.39195371 -173.74159896 764.86839462 -169.1796875 762.93359375 C-168.06701004 762.46801308 -168.06701004 762.46801308 -166.93185425 761.99302673 C-159.63658492 758.90704816 -152.47765204 755.54871872 -145.33700562 752.12307739 C-141.42651473 750.2481372 -137.50811755 748.38985732 -133.58984375 746.53125 C-132.78877701 746.15106216 -131.98771027 745.77087433 -131.16236877 745.37916565 C-123.03856827 741.53102263 -114.86864285 737.78681343 -106.6875 734.0625 C-105.25444739 733.40940503 -103.82142343 732.75624718 -102.38842773 732.10302734 C-100.20363658 731.10724163 -98.01881537 730.11152225 -95.83387756 729.11605835 C-66.24431507 715.70245378 -66.24431507 715.70245378 -36.9375 701.6875 C-36.08824951 701.27395264 -35.23899902 700.86040527 -34.36401367 700.43432617 C-27.32474475 696.90182083 -22.1213352 693.56443397 -19 686 C-18.55085916 682.49380013 -18.55085916 682.49380013 -18.61409664 678.69073582 C-18.60620797 677.61475644 -18.60620797 677.61475644 -18.59815994 676.5170401 C-18.58420117 674.11279386 -18.59157019 671.70909362 -18.59886169 669.30482483 C-18.59325667 667.56396508 -18.58635428 665.8231091 -18.57826573 664.08225912 C-18.55990118 659.29782207 -18.56031368 654.5135422 -18.56384885 649.72907794 C-18.5644606 644.56946738 -18.54790738 639.40990745 -18.53367615 634.25032043 C-18.50875009 624.1421292 -18.50051137 614.03399045 -18.49883901 603.92577107 C-18.49741403 595.71133954 -18.49125229 587.49692535 -18.48173714 579.28249931 C-18.45531718 556.00096206 -18.44147929 532.71946631 -18.44372856 509.43791396 C-18.44384843 508.18263331 -18.4439683 506.92735266 -18.4440918 505.6340332 C-18.44427576 503.74881783 -18.44427576 503.74881783 -18.44446344 501.82551729 C-18.44568331 481.44806489 -18.41696256 461.07077866 -18.3746767 440.69337434 C-18.33161576 419.77773919 -18.3108644 398.86218515 -18.31345803 377.94650453 C-18.3144549 366.20073106 -18.30617174 354.45513187 -18.27392387 342.70939827 C-18.24664884 332.71078095 -18.24004999 322.71241692 -18.26045214 312.71377856 C-18.27026782 307.61104587 -18.27034713 302.50879952 -18.2443924 297.40611267 C-18.22088102 292.73583642 -18.22500304 288.06643439 -18.25124479 283.39618021 C-18.2558685 281.70579821 -18.25033059 280.01535187 -18.23366456 278.32504571 C-17.80339412 268.3142485 -17.80339412 268.3142485 -21.89230442 259.54871273 C-26.02350943 255.75232934 -30.80332152 253.94552266 -36 252 C-37.05703125 251.60167969 -38.1140625 251.20335937 -39.203125 250.79296875 C-47.63076836 247.81683909 -56.20441499 245.62312625 -64.88061523 243.4987793 C-73.52804544 241.38105468 -82.14460705 239.15664288 -90.75 236.875 C-91.44715118 236.69025116 -92.14430237 236.50550232 -92.86257935 236.31515503 C-108.52792393 232.1583338 -124.16317797 227.8901042 -139.79595947 223.61273193 C-141.53874851 223.13607065 -143.28170781 222.66003139 -145.02484131 222.18463135 C-149.66742386 220.91744752 -154.30565876 219.63638312 -158.93945312 218.33740234 C-159.92375305 218.06361252 -160.90805298 217.78982269 -161.92218018 217.50773621 C-163.80134843 216.98489753 -165.67933133 216.45777126 -167.55584717 215.92549133 C-172.71332949 214.49650989 -177.67197216 213.52468315 -183 213 Z " transform="translate(757,146)" style="fill: #D9EBF4;"/><path d="M0 0 C1.91844913 0.4099757 3.83690429 0.81992426 5.75559998 1.22874451 C7.78974792 1.66306874 9.82308983 2.10104496 11.85644531 2.5390625 C18.29336832 3.92014748 24.74434489 5.23320026 31.19403076 6.55310059 C34.8279511 7.29772222 38.46078723 8.04759811 42.09375 8.796875 C46.71765894 9.75019077 51.34240769 10.69918052 55.96875 11.640625 C70.31668038 14.57622006 84.60315849 17.77622321 98.89434814 20.97415161 C112.3615178 23.98519461 125.84453001 26.88129033 139.37036133 29.61624146 C147.93124065 31.34859305 156.44581499 33.20415318 164.9375 35.25 C173.97694212 37.42737277 183.06538008 39.23368756 192.19921875 40.96484375 C193.37566956 41.18811844 194.55212036 41.41139313 195.76422119 41.64143372 C201.77560603 42.77905521 207.7892824 43.90275145 213.80615234 45.01098633 C216.03876699 45.42903897 218.27135289 45.84724517 220.50390625 46.265625 C222.07853889 46.54967445 222.07853889 46.54967445 223.6849823 46.83946228 C224.64302261 47.02037918 225.60106293 47.20129608 226.58813477 47.38769531 C227.43126724 47.54280579 228.27439972 47.69791626 229.14308167 47.85772705 C229.77648972 48.04905212 230.40989777 48.2403772 231.0625 48.4375 C231.3925 49.0975 231.7225 49.7575 232.0625 50.4375 C231.00289062 50.74880859 231.00289062 50.74880859 229.921875 51.06640625 C222.37325344 53.33288936 214.93743678 55.84048192 207.50732422 58.46508789 C202.61355238 60.19342617 197.71503179 61.90517538 192.8046875 63.5859375 C176.2477418 69.25322525 159.75497108 75.0873089 143.28271484 80.99609375 C141.58303323 81.60553965 139.88332644 82.21491533 138.18359375 82.82421875 C137.35487762 83.12139801 136.5261615 83.41857727 135.67233276 83.72476196 C128.67135648 86.23045244 121.6542377 88.6889354 114.6280365 91.12297058 C109.75279412 92.81841511 104.95949043 94.64447486 100.18896484 96.61743164 C97.95478047 97.47904189 95.71704774 98.15399907 93.4140625 98.80859375 C88.18128923 100.35544883 83.13912362 102.25776668 78.0625 104.25 C74.39956873 105.65572949 70.73224043 107.04964917 67.0625 108.4375 C65.81315674 108.91002197 65.81315674 108.91002197 64.53857422 109.39208984 C62.19997102 110.26357498 59.8527661 111.10511987 57.5 111.9375 C56.82388672 112.19249268 56.14777344 112.44748535 55.45117188 112.71020508 C43.00801034 117.00297535 30.77954449 113.33440346 18.48754883 110.27490234 C15.61012151 109.55879719 12.72858904 108.8617388 9.84570312 108.16796875 C8.00234035 107.71983381 6.1592316 107.27065237 4.31640625 106.8203125 C3.03353477 106.50768967 3.03353477 106.50768967 1.7247467 106.18875122 C0.92298508 105.98869476 0.12122345 105.78863831 -0.70483398 105.58251953 C-1.40366196 105.40931183 -2.10248993 105.23610413 -2.82249451 105.05764771 C-5.24776078 104.34652742 -7.59089413 103.37614235 -9.9375 102.4375 C-9.9375 73.0675 -9.9375 43.6975 -9.9375 13.4375 C-17.4902864 12.84121521 -17.4902864 12.84121521 -21.9375 15.4375 C-22.2675 43.4875 -22.5975 71.5375 -22.9375 100.4375 C-62.65219208 91.74991111 -62.65219208 91.74991111 -72.5 89.5625 C-73.21324432 89.40407623 -73.92648865 89.24565247 -74.66134644 89.08242798 C-86.26021101 86.50302771 -97.84846402 83.8778646 -109.42868042 81.21600342 C-111.11889543 80.82751696 -112.80925993 80.43968024 -114.49978638 80.05255127 C-129.2276903 76.67668724 -129.2276903 76.67668724 -135.62109375 74.86328125 C-141.03647406 73.34177055 -146.51884841 72.29158584 -152.03808594 71.21875 C-158.41443621 69.94124431 -164.73507365 68.43592878 -171.0625 66.9375 C-173.58590348 66.34360545 -176.10934071 65.74985425 -178.6328125 65.15625 C-180.44507324 64.72892578 -180.44507324 64.72892578 -182.29394531 64.29296875 C-187.83799022 62.99128466 -193.38730179 61.712656 -198.9375 60.4375 C-198.9375 59.7775 -198.9375 59.1175 -198.9375 58.4375 C-180.09799757 50.07846027 -160.73256759 43.22295616 -141.2318573 36.58404541 C-136.79352891 35.07279917 -132.35880093 33.55142116 -127.92608643 32.02378845 C-103.97461502 23.77016023 -79.95141741 15.75882517 -55.83105469 8.01220703 C-51.95319773 6.76639996 -48.07978452 5.50747636 -44.20776367 4.2436676 C-40.91294121 3.17197666 -37.61250228 2.11813206 -34.3125 1.0625 C-32.59885254 0.49921997 -32.59885254 0.49921997 -30.85058594 -0.07543945 C-19.62377865 -3.61826923 -11.39177034 -2.50938963 0 0 Z " transform="translate(497.9375,80.5625)" style="fill: #E4F5FC;"/><path d="M0 0 C1.64696604 0.4752588 3.29254728 0.95531891 4.9375 1.4375 C6.31228516 1.83775391 6.31228516 1.83775391 7.71484375 2.24609375 C10 3 10 3 11 4 C11.09793251 6.85732724 11.12992391 9.69048495 11.12025452 12.54823303 C11.12110894 13.45563608 11.12196337 14.36303913 11.12284368 15.29793924 C11.12450127 18.36278962 11.11897258 21.42758623 11.11352539 24.49243164 C11.11324355 26.67974344 11.11340119 28.86705533 11.1139679 31.05436707 C11.114256 37.01280372 11.10835714 42.97122045 11.10139394 48.92965245 C11.09516259 55.14901839 11.09455678 61.36838472 11.09336853 67.5877533 C11.09060885 78.03319642 11.08435336 88.47863268 11.07543945 98.92407227 C11.066266 109.68481408 11.05918484 120.4455539 11.05493164 131.20629883 C11.05466892 131.86914912 11.05440619 132.53199942 11.05413551 133.21493609 C11.05283051 136.54012926 11.05156904 139.86532244 11.05032361 143.19051564 C11.03985774 170.79368221 11.02225704 198.39684059 11 226 C12.0324522 225.58396578 13.0649044 225.16793156 14.12864304 224.73929024 C15.49530385 224.19015657 16.86199044 223.64108704 18.22869873 223.09207153 C18.90775709 222.818243 19.58681545 222.54441446 20.28645134 222.26228809 C24.76374635 220.46564046 29.20584992 218.86359619 33.828125 217.4921875 C35.171636 217.08566917 36.51471959 216.67773622 37.85742188 216.26855469 C38.53506592 216.06290894 39.21270996 215.85726318 39.91088867 215.64538574 C43.53554123 214.52562776 47.13473805 213.33014171 50.734375 212.1328125 C51.46665314 211.88930557 52.19893127 211.64579865 52.95339966 211.39491272 C55.21945351 210.63982426 57.48479804 209.88263993 59.75 209.125 C60.53880554 208.86165863 61.32761108 208.59831726 62.14031982 208.32699585 C72.51205104 204.86350687 82.86449243 201.3543468 93.171875 197.703125 C97.94095887 196.01399048 102.7246312 194.36825905 107.50854492 192.72167969 C116.63877027 189.57784693 125.74780515 186.39082424 134.8125 183.0625 C148.1362305 178.17099027 161.56269137 173.5689479 175 169 C175.97445068 168.63358398 176.94890137 168.26716797 177.95288086 167.88964844 C183.19521336 166.3590772 188.56443374 166.62811698 193.9831543 166.62939453 C196.0332612 166.62506179 198.08113818 166.58880764 200.13085938 166.55078125 C209.29257361 166.47526692 216.38985941 167.9079268 225 171 C225 175.95 225 180.9 225 186 C213.48214286 185.19642857 213.48214286 185.19642857 208.5 183.9375 C194.06736564 180.92103301 180.55966585 182.78573918 167 188 C165.53223644 188.53915141 164.06344863 189.07552105 162.59375 189.609375 C159.42675396 190.76424691 156.2667113 191.93618466 153.109375 193.1171875 C147.66394208 195.14068495 142.1789139 197.04304987 136.6875 198.9375 C129.37482784 201.46523292 122.08039332 204.03367201 114.8125 206.6875 C113.49088867 207.16956909 113.49088867 207.16956909 112.14257812 207.66137695 C108.47619112 208.99948135 104.81004535 210.33824571 101.14440918 211.67840576 C96.16094699 213.49993747 91.1752676 215.31529029 86.1875 217.125 C85.06633286 217.53190063 85.06633286 217.53190063 83.92251587 217.94702148 C69.05087229 223.33475446 54.09206536 228.4576352 39.10229492 233.50634766 C37.83327583 233.93535622 37.83327583 233.93535622 36.53862 234.37303162 C34.95494054 234.90819937 33.37044412 235.44095809 31.7849884 235.97084045 C28.40119128 237.11525533 25.13290341 238.27024826 22 240 C22.89976562 240.1959375 23.79953125 240.391875 24.7265625 240.59375 C36.86814689 243.36883156 48.38094627 247.55664858 60 252 C61.09957031 252.40992188 62.19914062 252.81984375 63.33203125 253.2421875 C78.43498533 259.16237265 92.35261636 267.24561412 105.46533203 276.71850586 C137.75811911 299.86516688 174.07229562 312.42495983 214 307 C217.67486236 306.88741231 221.32176699 306.95402209 225 307 C225 310.96 225 314.92 225 319 C214.67659842 321.50454451 204.9692489 322.47891644 194.36645508 322.39111328 C192.06726582 322.37503333 189.76983966 322.39106409 187.47070312 322.41015625 C173.4457217 322.43215527 160.31098394 320.31065409 147.0625 315.5625 C146.10504883 315.22250977 145.14759766 314.88251953 144.16113281 314.53222656 C123.69906708 307.02704026 105.08735256 296.66525604 87.1640625 284.375 C73.54492281 275.05255722 59.46420568 267.72674741 44.0625 261.75 C42.56529419 261.16798828 42.56529419 261.16798828 41.0378418 260.57421875 C34.29208501 258.03817956 27.47067318 255.8992415 20.56420898 253.84863281 C19.6417614 253.57338776 18.71931381 253.2981427 17.76891327 253.01455688 C15.5130194 252.34164632 13.25671161 251.670162 11 251 C11.01309569 303.00209429 11.05236509 355.00411198 11.12685562 407.00615657 C11.13562263 413.14212496 11.14417239 419.27809362 11.15258789 425.4140625 C11.15426695 426.63565008 11.15594602 427.85723766 11.15767596 429.11584304 C11.18436323 448.90906466 11.19344228 468.70225733 11.19604143 488.4954951 C11.19909828 508.79736744 11.22101396 529.0991559 11.26052457 549.40099037 C11.28431789 561.93355502 11.29331007 574.46595236 11.28351311 586.99853651 C11.27820722 595.58656748 11.29117981 604.17444817 11.3186629 612.76243635 C11.33398758 617.72114083 11.34112195 622.67950913 11.32659721 627.63822365 C11.31348292 632.17601675 11.32326616 636.71315714 11.35143773 641.25087641 C11.35756732 642.89430074 11.35521743 644.53778261 11.34362926 646.18117751 C11.32912069 648.41297647 11.3452816 650.64253748 11.36914349 652.87420845 C11.37028265 654.11437505 11.37142181 655.35454165 11.37259549 656.63228905 C12.21038855 661.12929987 13.80955092 662.76306117 17 666 C26.97008193 672.1279579 40.21207427 674.64715105 51.3125 678.0625 C53.46817239 678.73062051 55.62368784 679.39924757 57.77905273 680.06835938 C67.5708789 683.10473111 77.37031401 686.11631593 87.171875 689.12109375 C87.95971878 689.36263687 88.74756256 689.60417999 89.5592804 689.8530426 C90.33740585 690.0915947 91.11553131 690.33014679 91.91723633 690.57592773 C92.68580963 690.8115744 93.45438293 691.04722107 94.24624634 691.29000854 C95.79042145 691.76333802 97.33467198 692.23642153 98.8789978 692.70925903 C115.00501719 697.64974938 131.0712405 702.77482577 147.13110352 707.92578125 C149.02749326 708.53389548 150.9238959 709.14196952 152.8203125 709.75 C154.18295227 710.18703751 154.18295227 710.18703751 155.57312012 710.63290405 C160.3223056 712.15321655 165.07737564 713.64841306 169.84765625 715.1015625 C176.66788282 717.18459827 183.43608288 719.4166657 190.20092773 721.671875 C192.29889424 722.37046946 194.39841853 723.06423127 196.49804688 723.7578125 C206.08926615 726.94215939 215.56165925 730.3885474 225 734 C225.26785714 743.10714286 225.26785714 743.10714286 223 747 C217.36235123 747.30277284 213.13910013 746.33832225 207.859375 744.4296875 C207.07676804 744.15717667 206.29416107 743.88466583 205.48783875 743.60389709 C203.79400216 743.01316896 202.10180273 742.41772971 200.41110229 741.81808472 C195.80957301 740.18731992 191.19500723 738.59412744 186.58203125 736.99609375 C185.62535049 736.66370193 184.66866974 736.33131012 183.68299866 735.98884583 C173.64290467 732.50928123 163.54698413 729.20891165 153.4375 725.9375 C151.64704882 725.35711246 149.85660286 724.77670879 148.06616211 724.19628906 C144.49410966 723.03910903 140.92155299 721.88350179 137.34863281 720.72900391 C129.35643425 718.14632182 121.3676405 715.55315307 113.37930298 712.95855713 C111.6763969 712.40554643 109.97341503 711.85276905 108.27035522 711.30023193 C98.41373991 708.10218666 88.5711357 704.86827278 78.75 701.5625 C72.11619627 699.33038702 65.46749623 697.21518364 58.75 695.25 C49.70402985 692.58030531 40.71882359 689.72295344 31.75378418 686.79431152 C30.14427969 686.27063305 28.53321616 685.75171886 26.92053223 685.23791504 C6.74435861 678.79745947 6.74435861 678.79745947 1 671.4375 C-0.66438708 667.38055648 -1.12498964 663.51258408 -1.12534916 659.15167087 C-1.12910444 657.7172705 -1.12910444 657.7172705 -1.13293558 656.25389233 C-1.13059442 655.2093028 -1.12825325 654.16471327 -1.12584114 653.08846951 C-1.12729458 651.96957204 -1.12874802 650.85067457 -1.13024551 649.69787112 C-1.13391569 645.92173115 -1.13041434 642.1456313 -1.12698364 638.36949158 C-1.12758066 635.64565804 -1.12968156 632.92182613 -1.13171089 630.19799334 C-1.13532746 624.26200391 -1.13521001 618.32602357 -1.13266373 612.39003372 C-1.12888765 603.56318794 -1.13081164 594.73634986 -1.13387203 585.90950413 C-1.13914356 570.14679718 -1.1386791 554.38409428 -1.13579312 538.62138694 C-1.13328003 524.82800532 -1.13261972 511.03462517 -1.13381577 497.24124336 C-1.13389215 496.32717868 -1.13396854 495.41311401 -1.13404724 494.4713504 C-1.13435856 490.76110671 -1.13467696 487.05086303 -1.135007 483.34061934 C-1.13806762 448.51917629 -1.13528993 413.69773581 -1.1299101 378.87629315 C-1.12516392 347.92070121 -1.12558927 316.96511339 -1.13037109 286.00952148 C-1.13572235 251.25126459 -1.13785098 216.49300997 -1.13475883 181.73475271 C-1.1344381 178.0314821 -1.13412526 174.32821149 -1.13381577 170.62494087 C-1.13369715 169.25712519 -1.13369715 169.25712519 -1.13357614 167.86167686 C-1.13243731 154.07425162 -1.13377146 140.28682802 -1.13629532 126.499403 C-1.13914975 110.82772601 -1.13845005 95.15605372 -1.13301457 79.48437732 C-1.13007091 70.70691691 -1.12989722 61.92946666 -1.13366075 53.15200651 C-1.13589524 47.29626893 -1.13452191 41.44053952 -1.13015598 35.58480315 C-1.12776672 32.24363155 -1.12752919 28.9024969 -1.13056196 25.56132328 C-1.13357389 21.96942548 -1.13051306 18.37758413 -1.12584114 14.78568935 C-1.12818231 13.73875865 -1.13052347 12.69182796 -1.13293558 11.61317208 C-1.12918031 10.18252698 -1.12918031 10.18252698 -1.12534916 8.72297996 C-1.1252814 7.90114489 -1.12521365 7.07930981 -1.12514383 6.23257064 C-1.00179151 4.03196057 -0.61000102 2.11298383 0 0 Z " transform="translate(287,179)" style="fill: #262C3B;"/><path d="M0 0 C0 39.93 0 79.86 0 121 C-22.02265941 123.31817468 -42.61712797 125.15759234 -64 119 C-65.13574463 118.67854004 -65.13574463 118.67854004 -66.29443359 118.35058594 C-77.50581501 115.09589799 -87.75449887 110.55414009 -98 105 C-99.68609375 104.11054688 -99.68609375 104.11054688 -101.40625 103.203125 C-108.51081101 99.31885566 -114.99878854 94.91068127 -121.5625 90.1875 C-131.53636439 83.04583853 -141.9582969 77.31305218 -153 72 C-154.14984375 71.44054687 -155.2996875 70.88109375 -156.484375 70.3046875 C-171.9150366 63.28028185 -188.61759696 58.2653265 -205 54 C-201.59768216 51.73178811 -198.14944788 50.56322061 -194.30859375 49.27734375 C-193.53970825 49.01600647 -192.77082275 48.75466919 -191.9786377 48.4854126 C-190.32607665 47.92426788 -188.67284311 47.36510049 -187.01901245 46.80770874 C-184.42019615 45.931667 -181.82326167 45.05025 -179.22680664 44.16723633 C-175.75855042 42.98804257 -172.2897358 41.81052117 -168.8203125 40.63476562 C-154.11551151 35.64981785 -139.44611613 30.62857323 -124.96630859 25.01831055 C-116.95923528 21.93579318 -108.8596784 19.14530159 -100.74462891 16.36206055 C-93.59791662 13.90799243 -86.47478286 11.39927638 -79.375 8.8125 C-78.47555664 8.48483643 -77.57611328 8.15717285 -76.64941406 7.81958008 C-71.86774064 6.06991829 -67.10188666 4.28368578 -62.34716797 2.4621582 C-59.24151782 1.27974545 -56.12233976 0.1376516 -53 -1 C-52.10152344 -1.34160156 -51.20304688 -1.68320312 -50.27734375 -2.03515625 C-34.01233756 -7.44006557 -16.16125386 -2.93840979 0 0 Z " transform="translate(512,365)" style="fill: #74CFF1;"/><path d="M0 0 C8.52013173 1.23455166 16.66628214 3.13295229 24.9375 5.5 C26.83449517 6.03290694 28.7315027 6.56577139 30.62892151 7.09716797 C31.97125735 7.47314309 33.31340743 7.84978198 34.65538025 8.22705078 C42.90048366 10.54209665 51.16887743 12.77072236 59.4375 15 C60.61398605 15.31744171 60.61398605 15.31744171 61.8142395 15.64129639 C67.20881112 17.09673592 72.60419484 18.54914099 78 20 C78.68358582 20.18389282 79.36717163 20.36778564 80.07147217 20.55725098 C84.50512141 21.74972265 88.93975849 22.93846102 93.375 24.125 C94.57189453 24.44581543 95.76878906 24.76663086 97.00195312 25.09716797 C103.39687148 26.80288216 109.80095078 28.46131163 116.22265625 30.0625 C156.92274034 40.23864385 156.92274034 40.23864385 164 51 C164.50139666 54.31881416 164.50139666 54.31881416 164.50336456 58.18621635 C164.50917833 58.9023821 164.51499209 59.61854784 164.52098203 60.35641557 C164.53561257 62.76292462 164.52168329 65.16841857 164.50793457 67.57492065 C164.51254231 69.31491815 164.51889437 71.05491176 164.52684355 72.7948972 C164.5435778 77.58165585 164.53527189 82.36809648 164.52289867 87.15485644 C164.51386711 92.3151637 164.52780858 97.47541537 164.53881836 102.63571167 C164.55662918 112.74741198 164.55275196 122.8589937 164.5411678 132.9706987 C164.53214283 141.18801687 164.53090542 149.40530174 164.53526306 157.62262344 C164.53587599 158.79112738 164.53648893 159.95963131 164.53712043 161.16354445 C164.53839931 163.53719068 164.53969616 165.91083689 164.5410108 168.28448309 C164.55242436 190.55659989 164.53929123 212.82865089 164.51780933 235.1007569 C164.49994235 254.21678106 164.50303769 273.33270806 164.52148438 292.44873047 C164.54288544 314.63677831 164.55132071 336.82476841 164.53903532 359.01282513 C164.5377611 361.37846509 164.53650362 363.74410505 164.53526306 366.10974503 C164.53433741 367.85573694 164.53433741 367.85573694 164.53339306 369.63700142 C164.52993752 377.84469385 164.535773 386.0523497 164.54518127 394.26003647 C164.55639434 404.26230705 164.55337592 414.26445206 164.5320583 424.26670824 C164.5215379 429.37135217 164.51744293 434.47578665 164.53065491 439.58042908 C164.54256431 444.25244373 164.53604013 448.92405456 164.5147447 453.59603252 C164.51027243 455.28710945 164.51255891 456.97822042 164.52224785 458.66927551 C164.53440586 460.96736968 164.52194427 463.26407945 164.50336456 465.56210136 C164.50271515 466.83866879 164.50206574 468.11523622 164.50139666 469.43048751 C163.79310766 474.47289532 161.86928077 478.29108336 158.04492188 481.78735352 C152.01846504 485.50003077 145.84759566 488.80582242 139.5 491.9375 C138.3761792 492.49542236 137.2523584 493.05334473 136.09448242 493.62817383 C123.76992086 499.6909343 111.2511366 505.31814625 98.72892761 510.95750427 C89.9413588 514.91999789 81.18895923 518.95853385 72.4375 523 C71.61970062 523.37729248 70.80190125 523.75458496 69.95932007 524.14331055 C60.57432671 528.47390059 51.20470774 532.83504775 41.85778809 537.2472229 C19.60043182 547.75350395 19.60043182 547.75350395 10.8125 551.5 C10.16555176 551.78512451 9.51860352 552.07024902 8.85205078 552.36401367 C5.1892952 553.87407939 2.79967727 554.20215778 -1 553 C-2.28317892 549.15046324 -2.06643637 546.05261865 -2 542 C27.42383371 527.67008985 27.42383371 527.67008985 41.24072266 521.54931641 C46.4665612 519.21716786 51.58810305 516.71911955 56.6953125 514.140625 C63.74848452 510.58473448 70.87912837 507.24803208 78.08444214 504.0133667 C81.61443428 502.42800991 85.13894949 500.83054404 88.6640625 499.234375 C89.4073027 498.89808075 90.15054291 498.5617865 90.91630554 498.21530151 C99.41380964 494.36669636 107.88911954 490.47004548 116.3600769 486.56341553 C118.06039188 485.7794229 119.76100814 484.99608332 121.46194458 484.21343994 C126.01575152 482.11785583 130.56473711 480.01263154 135.10418701 477.8861084 C136.81283602 477.08748098 138.52556304 476.29759241 140.23876953 475.50878906 C141.13063965 475.0856543 142.02250977 474.66251953 142.94140625 474.2265625 C143.67174072 473.88447754 144.4020752 473.54239258 145.15454102 473.18994141 C148.42192731 471.08314939 149.78757153 468.63728542 151 465 C151.09800295 462.79112013 151.13383608 460.57933851 151.1386652 458.3682909 C151.14292853 457.34754183 151.14292853 457.34754183 151.14727798 456.30617157 C151.15564797 454.00934422 151.15689499 451.71256716 151.15821838 449.41572571 C151.16278217 447.75909037 151.16778192 446.10245619 151.17318195 444.44582337 C151.18679338 439.88057285 151.1941901 435.31532979 151.20060861 430.75006425 C151.20859938 425.8318617 151.22230169 420.91367475 151.23532104 415.9954834 C151.25710261 407.47007548 151.27524094 398.944666 151.29092598 390.41924477 C151.31360932 378.09281709 151.34175427 365.76640669 151.37124526 353.43999364 C151.41894002 333.44266939 151.46219909 313.44533809 151.50268555 293.44799805 C151.54203089 274.018956 151.58345481 254.58992023 151.62768555 235.16088867 C151.63177196 233.36539309 151.63177196 233.36539309 151.63594092 231.53362487 C151.64962024 225.52882412 151.66334054 219.52402346 151.67708123 213.51922286 C151.7910756 163.67949498 151.8978784 113.83975352 152 64 C151.29668045 64.28296432 150.5933609 64.56592865 149.86872864 64.85746765 C146.62791933 66.16035727 143.38623232 67.46104959 140.14453125 68.76171875 C139.03855591 69.20672729 137.93258057 69.65173584 136.79309082 70.11022949 C130.1273636 72.78265261 123.43915915 75.36533039 116.6875 77.8125 C111.80343242 79.58596381 106.9648434 81.38812826 102.1875 83.4375 C97.10075165 85.59781511 91.94812954 87.50462679 86.75 89.375 C76.54534198 93.04893426 66.37992419 96.82322049 56.22351074 100.62823486 C54.47335424 101.28381094 52.72295399 101.93873675 50.97229004 102.59295654 C42.55012381 105.74102036 34.14986564 108.91650985 25.82421875 112.3125 C20.66075143 114.39460507 15.66727433 116.10226687 10.25 117.375 C9.24453125 117.62056641 9.24453125 117.62056641 8.21875 117.87109375 C5.40394741 118.54101677 2.90409534 119 0 119 C0 115.04 0 111.08 0 107 C8.06564434 103.22539112 16.37536324 100.17954155 24.71875 97.08688354 C40.81095392 91.11914334 56.84149018 85.00615383 72.8215332 78.74462891 C80.88754022 75.58581163 88.97357859 72.49084874 97.08935547 69.4621582 C104.57538327 66.66781894 112.03831927 63.81202281 119.50585938 60.96875 C126.64998024 58.25375399 133.80832555 55.58653593 141 53 C137.29509921 50.53006614 133.49064148 49.55545872 129.25 48.375 C127.88234497 47.9891272 127.88234497 47.9891272 126.48706055 47.59545898 C116.96299087 44.93770697 107.38464685 42.48764168 97.80566406 40.03710938 C88.27980761 37.59906197 78.77877901 35.07763074 69.28857422 32.50415039 C62.34930126 30.62483099 55.39834606 28.79760083 48.4375 27 C37.20402335 24.09367586 26.02549045 20.99450093 14.87304688 17.79150391 C12.88970247 17.24510668 10.89487143 16.73934664 8.89257812 16.26708984 C7.90193359 16.02812988 6.91128906 15.78916992 5.890625 15.54296875 C4.99891602 15.34082764 4.10720703 15.13868652 3.18847656 14.93041992 C1 14 1 14 -0.29125977 12.03295898 C-1.48781978 8.60073189 -1.17521395 5.62108829 -1 2 C-0.67 1.34 -0.34 0.68 0 0 Z " transform="translate(574,359)" style="fill: #282E3C;"/><path d="M0 0 C2.3125 1.5 2.3125 1.5 4 3 C3.67 3.33 3.34 3.66 3 4 C2.87490166 6.64651343 2.81394005 9.26822219 2.79467773 11.91625977 C2.78477814 12.74545929 2.77487854 13.57465881 2.76467896 14.4289856 C2.7329688 17.18309629 2.70826912 19.93722426 2.68359375 22.69140625 C2.66303243 24.59570273 2.64203618 26.49999455 2.62062073 28.40428162 C2.56531515 33.42662806 2.51594344 38.44901627 2.46777344 43.47143555 C2.41762021 48.59232315 2.36190197 53.7131498 2.30664062 58.83398438 C2.19895533 68.8892709 2.09753355 78.94461025 2 89 C-35.50996777 80.80212806 -35.50996777 80.80212806 -47.5625 78.125 C-48.27574432 77.96657623 -48.98898865 77.80815247 -49.72384644 77.64492798 C-61.32271101 75.06552771 -72.91096402 72.4403646 -84.49118042 69.77850342 C-86.18139543 69.39001696 -87.87175993 69.00218024 -89.56228638 68.61505127 C-104.2901903 65.23918724 -104.2901903 65.23918724 -110.68359375 63.42578125 C-116.08047241 61.9098041 -121.54308788 60.86327196 -127.04345703 59.79443359 C-133.71422742 58.47881116 -140.32185639 56.87767437 -146.9375 55.3125 C-148.31439973 54.98870517 -149.6913527 54.66513663 -151.06835938 54.34179688 C-154.37951991 53.56378797 -157.68996392 52.78278097 -161 52 C-160.67 51.01 -160.34 50.02 -160 49 C-157.47855945 48.24410407 -155.08180975 47.67689585 -152.5078125 47.17578125 C-144.11378647 45.37275514 -136.15444398 42.84660585 -128.07458496 39.96981812 C-124.26773402 38.61584975 -120.45013264 37.29285636 -116.6328125 35.96875 C-115.88330322 35.70829391 -115.13379395 35.44783783 -114.36157227 35.17948914 C-103.8006064 31.52529995 -93.09083276 28.37735836 -82.37109375 25.22753906 C-69.61211271 21.46467315 -57.00876106 17.34233437 -44.4375 13 C-23.89243091 5.90701369 -23.89243091 5.90701369 -14.125 2.75 C-13.25286865 2.46253906 -12.3807373 2.17507812 -11.48217773 1.87890625 C-3.99132464 -0.51113009 -3.99132464 -0.51113009 0 0 Z " transform="translate(473,92)" style="fill: #ABD8ED;"/><path d="M0 0 C0.33 0 0.66 0 1 0 C1.66 2.64 2.32 5.28 3 8 C21.86361148 13.41511389 21.86361148 13.41511389 40.75 18.75 C41.98234375 19.09546875 43.2146875 19.4409375 44.484375 19.796875 C48.48360652 20.88449976 52.50522252 21.88016587 56.52734375 22.87890625 C63.95186328 24.72310208 71.34869717 26.66090486 78.7399292 28.63418579 C88.67013018 31.28525146 98.60527958 33.91260265 108.56640625 36.4453125 C109.34951675 36.64479996 110.13262726 36.84428741 110.93946838 37.04981995 C114.70017638 38.007279 118.4619825 38.95998911 122.22583008 39.9050293 C130.27088101 41.94055653 138.17062402 44.23139148 146 47 C143.38426717 48.74382188 141.35271716 49.71345658 138.44140625 50.77734375 C137.51199219 51.12047607 136.58257813 51.4636084 135.625 51.81713867 C134.1090625 52.37171753 134.1090625 52.37171753 132.5625 52.9375 C123.1649956 56.41483543 113.81897948 60.00497974 104.5 63.6875 C93.28153043 68.1132879 82.06960465 72.5346785 70.68359375 76.515625 C69.94391357 76.77432373 69.2042334 77.03302246 68.44213867 77.29956055 C67.05698665 77.78164096 65.67058026 78.26014547 64.2824707 78.73364258 C60.41052852 80.07394886 56.63660108 81.56118951 52.8671875 83.16796875 C43.32925502 87.18445466 33.58184947 90.66721436 23.875 94.25 C20.90869372 95.34649454 17.94265136 96.44369109 14.9770813 97.54217529 C13.14346243 98.22121338 11.30939165 98.89903266 9.474823 99.57550049 C8.65281403 99.87961853 7.83080505 100.18373657 6.98388672 100.49707031 C5.89900467 100.89747528 5.89900467 100.89747528 4.79220581 101.30596924 C2.93896945 101.99133112 2.93896945 101.99133112 1 103 C0.67 69.01 0.34 35.02 0 0 Z " transform="translate(572,364)" style="fill: #6ECBED;"/><path d="M0 0 C1.98 0.99 1.98 0.99 4 2 C3.34 2 2.68 2 2 2 C2 136.31 2 270.62 2 409 C1.34 409 0.68 409 0 409 C0 274.03 0 139.06 0 0 Z " transform="translate(298,430)" style="fill: #80E7F8;"/><path d="M0 0 C1.17828369 0.14139404 1.17828369 0.14139404 2.38037109 0.28564453 C3.65654297 0.43066406 3.65654297 0.43066406 4.95849609 0.57861328 C5.84794922 0.69076172 6.73740234 0.80291016 7.65380859 0.91845703 C8.55099609 1.02287109 9.44818359 1.12728516 10.37255859 1.23486328 C12.59265289 1.49466155 14.81104393 1.76457645 17.02880859 2.04345703 C17.02880859 2.70345703 17.02880859 3.36345703 17.02880859 4.04345703 C9.66621567 4.26769844 3.1583123 3.94465802 -3.97119141 2.04345703 C-1.97119141 0.04345703 -1.97119141 0.04345703 0 0 Z " transform="translate(529.97119140625,190.95654296875)" style="fill: #DAE0E4;"/><path d="M0 0 C6.15234375 0.5859375 6.15234375 0.5859375 8 1 C8.33 1.66 8.66 2.32 9 3 C7.23225581 3.53122363 5.46065917 4.04964073 3.6875 4.5625 C2.70136719 4.85253906 1.71523438 5.14257812 0.69921875 5.44140625 C-2 6 -2 6 -5 5 C-4.34 4.01 -3.68 3.02 -3 2 C-2.01 2 -1.02 2 0 2 C0 1.34 0 0.68 0 0 Z " transform="translate(721,128)" style="fill: #E4ECF0;"/><path d="M0 0 C-6.43520528 3.64079463 -11.58783319 5.64134677 -19 6 C-17.42935623 2.85871246 -14.33238922 2.42190313 -11.1875 1.3125 C-10.55779297 1.07466797 -9.92808594 0.83683594 -9.27929688 0.59179688 C-5.86073884 -0.63142274 -3.44077195 -1.43004376 0 0 Z " transform="translate(313,110)" style="fill: #1A202E;"/><path d="M0 0 C0.33 0 0.66 0 1 0 C1.165 1.258125 1.33 2.51625 1.5 3.8125 C2.15736595 6.58422955 2.46607963 7.66548254 4.9140625 9.19921875 C6.93152544 9.92992529 8.90667445 10.5326529 11 11 C8.66306776 11.77897741 6.38357723 12.40410569 4 13 C3.01 13.33 2.02 13.66 1 14 C0.67 9.38 0.34 4.76 0 0 Z " transform="translate(572,364)" style="fill: #76DBF3;"/><path d="M0 0 C-5.625 3 -5.625 3 -9 3 C-9 3.99 -9 4.98 -9 6 C-11.64 6 -14.28 6 -17 6 C-13.96503913 3.49723606 -11.06804717 2.08387688 -7.375 0.75 C-6.41335938 0.39421875 -5.45171875 0.0384375 -4.4609375 -0.328125 C-2 -1 -2 -1 0 0 Z " transform="translate(649,439)" style="fill: #221E2B;"/><path d="M0 0 C4.455 0.99 4.455 0.99 9 2 C2.60869565 6.26086957 2.60869565 6.26086957 -1.3125 5.625 C-1.869375 5.41875 -2.42625 5.2125 -3 5 C-2.34 4.34 -1.68 3.68 -1 3 C-0.67 2.01 -0.34 1.02 0 0 Z " transform="translate(709,409)" style="fill: #79E0F4;"/><path d="M0 0 C-0.99 0.495 -0.99 0.495 -2 1 C-0.68 1.99 0.64 2.98 2 4 C0.37419034 3.88601335 -1.25067157 3.75844341 -2.875 3.625 C-3.77992188 3.55539062 -4.68484375 3.48578125 -5.6171875 3.4140625 C-8 3 -8 3 -10 1 C-3.71428571 -1.42857143 -3.71428571 -1.42857143 0 0 Z " transform="translate(317,417)" style="fill: #7CDEEE;"/><path d="M0 0 C2.64 0 5.28 0 8 0 C5.14978125 2.32240046 2.53644909 3.93906527 -1 5 C-3.3125 4.625 -3.3125 4.625 -5 4 C-3.35 3.67 -1.7 3.34 0 3 C0 2.01 0 1.02 0 0 Z " transform="translate(653,432)" style="fill: #78DFF3;"/><path d="M0 0 C0.33 0.66 0.66 1.32 1 2 C-4.37305699 3.67357513 -4.37305699 3.67357513 -7 4 C-9 2.625 -9 2.625 -10 1 C-6.59437148 0.22157062 -3.49234244 -0.09978121 0 0 Z " transform="translate(481,90)" style="fill: #C8E9F7;"/><path d="M0 0 C-3.53411321 2.12046792 -6.94393835 2.53199289 -11 3 C-7.17860188 -0.1390056 -4.83859894 -1.61286631 0 0 Z " transform="translate(684,441)" style="fill: #69D5F1;"/><path d="M0 0 C-0.33 0.99 -0.66 1.98 -1 3 C-3.875 3.125 -3.875 3.125 -7 3 C-7.66 2.34 -8.32 1.68 -9 1 C-5.8035914 -0.06546953 -3.34252724 -0.07427838 0 0 Z " transform="translate(474,346)" style="fill: #333946;"/><path d="M0 0 C1 2 1 2 0.44140625 4.1640625 C0.15136719 4.97617188 -0.13867188 5.78828125 -0.4375 6.625 C-0.72496094 7.44226563 -1.01242188 8.25953125 -1.30859375 9.1015625 C-1.53675781 9.72804687 -1.76492187 10.35453125 -2 11 C-2.33 11 -2.66 11 -3 11 C-3.32613618 6.32538149 -2.70582788 3.83325617 0 0 Z " transform="translate(248,137)" style="fill: #141823;"/><path d="M0 0 C0 0.66 0 1.32 0 2 C-2.95481492 4.74375671 -3.77471908 5 -8 5 C-8 4.34 -8 3.68 -8 3 C-2.25 0 -2.25 0 0 0 Z " transform="translate(307,136)" style="fill: #D4DADE;"/><path d="M0 0 C0.37125 0.45375 0.7425 0.9075 1.125 1.375 C3.54264685 3.47029394 5.95430602 4.12013285 9 5 C9 5.33 9 5.66 9 6 C6.36 5.67 3.72 5.34 1 5 C0.67 3.35 0.34 1.7 0 0 Z " transform="translate(574,368)" style="fill: #221D28;"/></svg>