<?xml version="1.0" encoding="UTF-8"?>
<!-- Generator: visioncortex VTracer -->
<svg id="svg" version="1.1" xmlns="http://www.w3.org/2000/svg" style="display: block;" viewBox="0 0 1024 1024"><path d="M0 0 C337.92 0 675.84 0 1024 0 C1024 337.92 1024 675.84 1024 1024 C686.08 1024 348.16 1024 0 1024 C0 686.08 0 348.16 0 0 Z " transform="translate(0,0)" style="fill: #FEFEFE;"/><path d="M0 0 C6.40062221 1.40180252 12.81401864 2.73084415 19.234375 4.0390625 C39.6712572 8.21347447 59.99804709 12.59512198 80.23001099 17.67556763 C92.88800202 20.84392066 105.5451466 23.45623364 118.40234375 25.66674805 C127.73750541 27.27878258 136.95359212 29.20537449 146.1796875 31.34765625 C155.60992915 33.53604639 165.03679849 35.57733899 174.5546875 37.34765625 C183.49635816 39.0170907 192.37749806 40.8696051 201.2421875 42.91015625 C202.29833252 43.15193604 203.35447754 43.39371582 204.44262695 43.64282227 C210.79022213 45.12618071 217.01859985 46.850312 223.2421875 48.78515625 C224.36109375 49.11257812 225.48 49.44 226.6328125 49.77734375 C233.11793813 51.77958199 238.64014572 53.57644731 242.37488444 59.61725279 C243.41187439 62.20930417 243.49293719 64.1808491 243.4940365 66.97161168 C243.49929976 68.02898963 243.50456302 69.08636759 243.50998577 70.1757873 C243.50558929 71.33869183 243.50119281 72.50159635 243.49666309 73.69974041 C243.50147281 75.55898579 243.50147281 75.55898579 243.50637969 77.45579168 C243.51327741 80.91355206 243.51115947 84.3710989 243.50532397 87.8288476 C243.501167 91.58413234 243.50854803 95.33939689 243.51447648 99.09467679 C243.52325805 105.68213704 243.52454366 112.26956621 243.52097321 118.85703087 C243.51567773 128.65288566 243.52174988 138.44871023 243.53005614 148.24456173 C243.54532083 166.7566595 243.54699862 185.26874363 243.54453311 203.78084638 C243.54270236 218.07510911 243.54445548 232.36936736 243.54875755 246.66362953 C243.54935995 248.71534602 243.54996115 250.76706251 243.55056116 252.818779 C243.55146839 255.91032818 243.55237705 259.00187736 243.55329351 262.09342654 C243.56172701 290.84940762 243.56605605 319.605387 243.56188679 348.36136913 C243.56173041 349.44611467 243.56157404 350.53086021 243.56141292 351.64847683 C243.56060711 357.14671249 243.55976134 362.64494814 243.55889962 368.14318379 C243.55872853 369.23519843 243.55855744 370.32721307 243.55838117 371.45231906 C243.55803452 373.66064059 243.55768599 375.86896212 243.55733558 378.07728364 C243.55197874 412.43637959 243.55990613 446.79544986 243.57836914 481.15454102 C243.59907683 519.73632569 243.60981411 558.31809446 243.60579365 596.899885 C243.6053983 601.01245804 243.60503675 605.12503109 243.60469627 609.23760414 C243.60460554 610.25026064 243.60451481 611.26291713 243.60442133 612.30626018 C243.60325439 627.60659191 243.60991109 642.90690761 243.62050819 658.20723534 C243.63254638 675.60621971 243.63413522 693.00516872 243.62171803 710.40415361 C243.61507783 720.14483914 243.61674712 729.8854402 243.63030654 739.62611902 C243.63853184 746.13033459 243.63587853 752.63448667 243.62433127 759.13869704 C243.61805569 762.84620157 243.61652321 766.55354088 243.62819461 770.26103606 C243.64065105 774.25461228 243.62992473 778.24779207 243.61691761 782.24136639 C243.62422696 783.39256508 243.6315363 784.54376378 243.63906714 785.72984728 C243.58026261 794.40255804 242.60018739 802.38100028 236.2421875 808.78515625 C219.59869254 821.36545056 198.45109683 828.49913409 179.421875 836.6875 C166.73352027 842.14773333 154.17600273 847.83076228 141.7421875 853.84765625 C130.18646123 859.43522748 118.46091157 864.61792086 106.72070312 869.80200195 C97.68578809 873.79417783 88.69316081 877.85738614 79.7421875 882.03515625 C68.65929527 887.19778918 57.45186484 892.03324369 46.19921875 896.8125 C38.17332298 900.22635717 30.19821586 903.75345388 22.23413086 907.30883789 C14.31619722 910.82284688 7.81674955 913.17486069 -0.8828125 913.28515625 C-2.02169922 913.34703125 -2.02169922 913.34703125 -3.18359375 913.41015625 C-13.099977 913.53627877 -22.45549078 909.8315683 -31.7578125 906.78515625 C-32.40012314 906.57534874 -33.04243378 906.36554123 -33.70420837 906.14937592 C-43.31326435 903.01022842 -52.91004376 899.83433332 -62.50392818 896.64916897 C-89.08225721 887.82605066 -115.66330424 879.0360816 -142.4453125 870.84765625 C-143.51244476 870.52125153 -144.57957703 870.1948468 -145.67904663 869.85855103 C-147.83472348 869.19941682 -149.99041909 868.540344 -152.14613342 867.8813324 C-153.21552658 867.55439896 -154.28491974 867.22746552 -155.38671875 866.890625 C-156.98555153 866.40209801 -156.98555153 866.40209801 -158.61668396 865.90370178 C-181.842025 858.79229303 -204.97786525 851.38617828 -228.10375977 843.95874023 C-230.50569466 843.187303 -232.90786882 842.41661027 -235.31030273 841.64672852 C-241.78793851 839.57006529 -248.26036727 837.47860769 -254.72454834 835.3604126 C-256.63309045 834.73680891 -258.54308805 834.1176387 -260.45465088 833.50335693 C-283.76995917 825.9972383 -283.76995917 825.9972383 -289.7578125 816.78515625 C-290.53873347 815.59798079 -290.53873347 815.59798079 -291.33543062 814.38682199 C-293.40635116 809.14296753 -293.17217099 804.24850349 -293.14092255 798.65850449 C-293.14588206 797.42037622 -293.15084158 796.18224796 -293.15595138 794.90660065 C-293.16669203 791.4619022 -293.16396879 788.01768626 -293.15561789 784.57301229 C-293.14982069 780.82848563 -293.16135351 777.08400607 -293.17067957 773.33949208 C-293.18460932 766.77400237 -293.18732057 760.20858156 -293.18272018 753.64307976 C-293.17589691 743.87987288 -293.18613444 734.11673594 -293.19967774 724.35353877 C-293.2246134 705.90277242 -293.2291055 687.45203496 -293.22721177 669.00125447 C-293.22583968 654.75424265 -293.22965157 640.50724087 -293.23713684 626.26023102 C-293.23818717 624.21468668 -293.23923478 622.16914234 -293.2402797 620.12359799 C-293.24079905 619.10822413 -293.24131839 618.09285027 -293.24185347 617.0467075 C-293.24237362 616.0294927 -293.24289376 615.0122779 -293.24342966 613.96423841 C-293.24395365 612.94534274 -293.24447764 611.92644708 -293.24501752 610.87667579 C-293.25960532 582.21071571 -293.26788134 553.54475933 -293.26326752 524.87879562 C-293.26309556 523.79767305 -293.26292361 522.71655049 -293.26274644 521.60266663 C-293.26185753 516.12289368 -293.26091272 510.64312074 -293.25994843 505.16334781 C-293.2597574 504.07501493 -293.25956637 502.98668204 -293.25936954 501.86536938 C-293.25898245 499.66449429 -293.25859213 497.46361921 -293.25819857 495.26274413 C-293.25222859 461.01742031 -293.26766489 426.77216406 -293.29980469 392.52685547 C-293.33586985 354.06626516 -293.35521587 315.6057177 -293.35026598 277.14510942 C-293.34979599 273.0451878 -293.34938574 268.94526617 -293.34901428 264.84534454 C-293.3489119 263.83581477 -293.34880951 262.82628501 -293.34870402 261.78616343 C-293.34750845 246.53651767 -293.35948618 231.28691815 -293.37815857 216.03728485 C-293.39938183 198.69581679 -293.40325957 181.35444583 -293.38385898 164.01297346 C-293.37352139 154.3057591 -293.37703173 144.59878148 -293.40038983 134.89158845 C-293.41460831 128.40847589 -293.4106731 121.92553872 -293.39194407 115.44243804 C-293.38178167 111.74775958 -293.37949406 108.05354229 -293.39926475 104.35889241 C-293.42037816 100.37742238 -293.40277386 96.39665334 -293.38143158 92.41517258 C-293.39370911 91.27038128 -293.40598663 90.12558998 -293.4186362 88.94610804 C-293.32449924 80.56551976 -291.41318811 73.71916303 -285.60546875 67.46875 C-281.2797976 64.91132302 -276.79965542 62.85328736 -272.1953125 60.84765625 C-271.10597412 60.37239502 -270.01663574 59.89713379 -268.89428711 59.4074707 C-232.55364669 43.86532376 -194.33626731 32.16199819 -156.55889893 20.69110107 C-139.73070632 15.56349716 -123.16406315 9.76643767 -106.62255859 3.78393555 C-97.08975955 0.34003738 -87.53804454 -3.02941541 -77.90234375 -6.17578125 C-77.01669739 -6.47209442 -76.13105103 -6.76840759 -75.21856689 -7.07369995 C-51.33917389 -14.73486067 -23.59105473 -5.19285809 0 0 Z " transform="translate(536.7578125,65.21484375)" style="fill: #66BEE1;"/><path d="M0 0 C1.88304881 0.13719449 3.76567735 0.28016305 5.64811707 0.42547607 C6.6965488 0.50445507 7.74498053 0.58343407 8.82518291 0.66480637 C13.84109458 1.1943807 18.61903178 2.42318772 23.48828125 3.703125 C24.56426071 3.97704575 25.64024017 4.25096649 26.74882507 4.53318787 C29.06394917 5.12318026 31.37803836 5.71724612 33.69116211 6.31503296 C39.95126971 7.93128487 46.22011636 9.51299449 52.48828125 11.09765625 C53.454083 11.34234366 53.454083 11.34234366 54.4393959 11.59197426 C68.26080223 15.09303189 82.12095075 18.42279584 96 21.6875 C97.13101135 21.95366119 98.26202271 22.21982239 99.42730713 22.49404907 C107.28232829 24.34032311 115.14027565 26.17385882 123 28 C124.09471619 28.25434814 125.18943237 28.50869629 126.31732178 28.77075195 C133.77214797 30.50128492 141.22911606 32.22237017 148.6875 33.9375 C149.62360107 34.15320648 150.55970215 34.36891296 151.52416992 34.59115601 C160.14684937 36.57547186 168.77133816 38.54122791 177.43139648 40.35668945 C195.24165592 44.09138362 212.88954376 48.32476191 230.5322876 52.77069092 C233.46545986 53.50807503 236.40019072 54.23915249 239.33491802 54.97031879 C242.17586708 55.67882721 245.01594643 56.39076903 247.85575294 57.10384178 C249.20277429 57.44172331 250.55004088 57.77862873 251.89755821 58.11452675 C253.75117497 58.57720871 255.60352994 59.04493709 257.45581055 59.51293945 C258.50608932 59.77685989 259.5563681 60.04078033 260.63847351 60.31269836 C263 61 263 61 264 62 C264.09752196 63.61206762 264.12447283 65.22843734 264.1241985 66.84345204 C264.12756944 68.42931557 264.12756944 68.42931557 264.13100848 70.04721674 C264.12838146 71.22538797 264.12575445 72.4035592 264.12304783 73.61743259 C264.12420167 74.86122947 264.12535552 76.10502635 264.12654433 77.38651404 C264.12963343 80.87019391 264.12642171 84.35384491 264.12226619 87.83752265 C264.118849 91.61561898 264.12119953 95.39371222 264.12284368 99.17180914 C264.12492342 105.80371232 264.12326347 112.43560655 264.11920547 119.0675087 C264.11318801 128.92901444 264.11286803 138.79051451 264.11374746 148.65202175 C264.11506361 165.23799264 264.11171145 181.82395955 264.10573006 198.40992928 C264.09981994 214.84023114 264.09596551 231.27053135 264.09487724 247.70083427 C264.0948085 248.72111676 264.09473976 249.74139925 264.09466894 250.7925994 C264.09433062 255.97376349 264.09402923 261.15492759 264.09374207 266.33609169 C264.09163974 303.06691707 264.08489706 339.79774029 264.07543945 376.52856445 C264.06626014 412.21964506 264.05917402 447.91072509 264.05493164 483.60180664 C264.05480011 484.70130027 264.05466859 485.80079389 264.05453308 486.9336055 C264.0532146 497.97482822 264.05193878 509.01605095 264.05069422 520.05727368 C264.04815777 542.55099478 264.04533652 565.04471584 264.04234314 587.53843689 C264.04220585 588.57273945 264.04206856 589.607042 264.04192711 590.67268706 C264.03272114 659.78179228 264.01687532 728.89089629 264 798 C262.11439107 797.7025591 260.22954273 797.4002945 258.34501648 797.09606934 C257.29531016 796.92827721 256.24560385 796.76048508 255.16408825 796.58760834 C250.25459455 795.67585772 245.57535806 794.19548209 240.83203125 792.65625 C239.8063353 792.33101349 238.78063934 792.00577698 237.72386169 791.67068481 C234.41773692 790.62097839 231.11519794 789.56043298 227.8125 788.5 C224.35795492 787.40079312 220.9024522 786.30463845 217.44680786 785.20889282 C215.15753857 784.48299132 212.86853539 783.75625005 210.57980347 783.02865601 C202.30140326 780.40000552 194.00324653 777.84926046 185.68339539 775.35527039 C184.88037491 775.11428116 184.07735443 774.87329193 183.25 774.625 C182.13264969 774.28978836 181.01529938 773.95457672 179.86408997 773.60920715 C171.0074236 770.94319373 162.19244826 768.16344303 153.39453125 765.30859375 C152.04651583 764.87235051 150.69845671 764.43624227 149.35035706 764.0002594 C145.90125216 762.88448273 142.45264565 761.76717439 139.00417328 760.64944458 C128.48362257 757.24030092 117.96065245 753.83860309 107.4375 750.4375 C106.78791447 750.22752129 106.13832893 750.01754257 105.46905899 749.80120087 C83.19766818 742.60296085 60.89405464 735.51564095 38.54663086 728.55639648 C29.39271702 725.70018122 20.24616489 722.82402018 11.17578125 719.7109375 C10.482603 719.47911774 9.78942474 719.24729797 9.07524109 719.00845337 C3.03810928 716.89167642 3.03810928 716.89167642 1 714 C0.03471396 710.93644431 -0.12476255 708.15225239 -0.1241985 704.95066524 C-0.12644579 703.92394985 -0.12869308 702.89723446 -0.13100848 701.83940649 C-0.12838146 700.71082928 -0.12575445 699.58225207 -0.12304783 698.41947556 C-0.12420167 697.21611486 -0.12535552 696.01275417 -0.12654433 694.772928 C-0.12874332 691.41663069 -0.12643201 688.06039009 -0.12226619 684.70409816 C-0.1188387 681.05888286 -0.12120151 677.41367069 -0.12284368 673.76845479 C-0.12492017 667.3745116 -0.12326896 660.9805777 -0.11920547 654.58663559 C-0.11317993 645.07902044 -0.11286879 635.57141117 -0.11374746 626.06379446 C-0.11506262 610.07185271 -0.11171521 594.07991509 -0.10573006 578.08797455 C-0.09981734 562.24907155 -0.09596498 546.41017027 -0.09487724 530.57126617 C-0.0948085 529.58723492 -0.09473976 528.60320366 -0.09466894 527.58935328 C-0.09433062 522.59215723 -0.09402923 517.59496117 -0.09374207 512.59776512 C-0.09164046 477.18301412 -0.08489979 441.76826536 -0.07543945 406.35351562 C-0.06625825 371.94401054 -0.05917305 337.53450607 -0.05493164 303.125 C-0.05480011 302.06474641 -0.05466859 301.00449281 -0.05453308 299.91211032 C-0.05321458 289.26481486 -0.05193876 278.6175194 -0.05069422 267.97022393 C-0.04815786 246.27956738 -0.04533661 224.58891088 -0.04234314 202.89825439 C-0.04220585 201.90090642 -0.04206856 200.90355844 -0.04192711 199.8759878 C-0.03272314 133.2506576 -0.01687755 66.62532864 0 0 Z " transform="translate(267,156)" style="fill: #7CD0F0;"/><path d="M0 0 C6.40062221 1.40180252 12.81401864 2.73084415 19.234375 4.0390625 C39.6712572 8.21347447 59.99804709 12.59512198 80.23001099 17.67556763 C92.88800202 20.84392066 105.5451466 23.45623364 118.40234375 25.66674805 C127.73750541 27.27878258 136.95359212 29.20537449 146.1796875 31.34765625 C155.60992915 33.53604639 165.03679849 35.57733899 174.5546875 37.34765625 C183.49635816 39.0170907 192.37749806 40.8696051 201.2421875 42.91015625 C202.29833252 43.15193604 203.35447754 43.39371582 204.44262695 43.64282227 C210.79022213 45.12618071 217.01859985 46.850312 223.2421875 48.78515625 C224.36109375 49.11257812 225.48 49.44 226.6328125 49.77734375 C233.11793813 51.77958199 238.64014572 53.57644731 242.37488444 59.61725279 C243.41187439 62.20930417 243.49293719 64.1808491 243.4940365 66.97161168 C243.49929976 68.02898963 243.50456302 69.08636759 243.50998577 70.1757873 C243.50558929 71.33869183 243.50119281 72.50159635 243.49666309 73.69974041 C243.50147281 75.55898579 243.50147281 75.55898579 243.50637969 77.45579168 C243.51327741 80.91355206 243.51115947 84.3710989 243.50532397 87.8288476 C243.501167 91.58413234 243.50854803 95.33939689 243.51447648 99.09467679 C243.52325805 105.68213704 243.52454366 112.26956621 243.52097321 118.85703087 C243.51567773 128.65288566 243.52174988 138.44871023 243.53005614 148.24456173 C243.54532083 166.7566595 243.54699862 185.26874363 243.54453311 203.78084638 C243.54270236 218.07510911 243.54445548 232.36936736 243.54875755 246.66362953 C243.54935995 248.71534602 243.54996115 250.76706251 243.55056116 252.818779 C243.55146839 255.91032818 243.55237705 259.00187736 243.55329351 262.09342654 C243.56172701 290.84940762 243.56605605 319.605387 243.56188679 348.36136913 C243.56173041 349.44611467 243.56157404 350.53086021 243.56141292 351.64847683 C243.56060711 357.14671249 243.55976134 362.64494814 243.55889962 368.14318379 C243.55872853 369.23519843 243.55855744 370.32721307 243.55838117 371.45231906 C243.55803452 373.66064059 243.55768599 375.86896212 243.55733558 378.07728364 C243.55197874 412.43637959 243.55990613 446.79544986 243.57836914 481.15454102 C243.59907683 519.73632569 243.60981411 558.31809446 243.60579365 596.899885 C243.6053983 601.01245804 243.60503675 605.12503109 243.60469627 609.23760414 C243.60460554 610.25026064 243.60451481 611.26291713 243.60442133 612.30626018 C243.60325439 627.60659191 243.60991109 642.90690761 243.62050819 658.20723534 C243.63254638 675.60621971 243.63413522 693.00516872 243.62171803 710.40415361 C243.61507783 720.14483914 243.61674712 729.8854402 243.63030654 739.62611902 C243.63853184 746.13033459 243.63587853 752.63448667 243.62433127 759.13869704 C243.61805569 762.84620157 243.61652321 766.55354088 243.62819461 770.26103606 C243.64065105 774.25461228 243.62992473 778.24779207 243.61691761 782.24136639 C243.62422696 783.39256508 243.6315363 784.54376378 243.63906714 785.72984728 C243.58026261 794.40255804 242.60018739 802.38100028 236.2421875 808.78515625 C219.59869254 821.36545056 198.45109683 828.49913409 179.421875 836.6875 C166.73352027 842.14773333 154.17600273 847.83076228 141.7421875 853.84765625 C130.18646123 859.43522748 118.46091157 864.61792086 106.72070312 869.80200195 C97.68578809 873.79417783 88.69316081 877.85738614 79.7421875 882.03515625 C68.65929527 887.19778918 57.45186484 892.03324369 46.19921875 896.8125 C38.17332298 900.22635717 30.19821586 903.75345388 22.23413086 907.30883789 C14.31619722 910.82284688 7.81674955 913.17486069 -0.8828125 913.28515625 C-2.02169922 913.34703125 -2.02169922 913.34703125 -3.18359375 913.41015625 C-13.099977 913.53627877 -22.45549078 909.8315683 -31.7578125 906.78515625 C-32.40012314 906.57534874 -33.04243378 906.36554123 -33.70420837 906.14937592 C-43.31326435 903.01022842 -52.91004376 899.83433332 -62.50392818 896.64916897 C-89.08225721 887.82605066 -115.66330424 879.0360816 -142.4453125 870.84765625 C-143.51244476 870.52125153 -144.57957703 870.1948468 -145.67904663 869.85855103 C-147.83472348 869.19941682 -149.99041909 868.540344 -152.14613342 867.8813324 C-153.21552658 867.55439896 -154.28491974 867.22746552 -155.38671875 866.890625 C-156.98555153 866.40209801 -156.98555153 866.40209801 -158.61668396 865.90370178 C-181.842025 858.79229303 -204.97786525 851.38617828 -228.10375977 843.95874023 C-230.50569466 843.187303 -232.90786882 842.41661027 -235.31030273 841.64672852 C-241.78793851 839.57006529 -248.26036727 837.47860769 -254.72454834 835.3604126 C-256.63309045 834.73680891 -258.54308805 834.1176387 -260.45465088 833.50335693 C-283.76995917 825.9972383 -283.76995917 825.9972383 -289.7578125 816.78515625 C-290.53873347 815.59798079 -290.53873347 815.59798079 -291.33543062 814.38682199 C-293.40635116 809.14296753 -293.17217099 804.24850349 -293.14092255 798.65850449 C-293.14588206 797.42037622 -293.15084158 796.18224796 -293.15595138 794.90660065 C-293.16669203 791.4619022 -293.16396879 788.01768626 -293.15561789 784.57301229 C-293.14982069 780.82848563 -293.16135351 777.08400607 -293.17067957 773.33949208 C-293.18460932 766.77400237 -293.18732057 760.20858156 -293.18272018 753.64307976 C-293.17589691 743.87987288 -293.18613444 734.11673594 -293.19967774 724.35353877 C-293.2246134 705.90277242 -293.2291055 687.45203496 -293.22721177 669.00125447 C-293.22583968 654.75424265 -293.22965157 640.50724087 -293.23713684 626.26023102 C-293.23818717 624.21468668 -293.23923478 622.16914234 -293.2402797 620.12359799 C-293.24079905 619.10822413 -293.24131839 618.09285027 -293.24185347 617.0467075 C-293.24237362 616.0294927 -293.24289376 615.0122779 -293.24342966 613.96423841 C-293.24395365 612.94534274 -293.24447764 611.92644708 -293.24501752 610.87667579 C-293.25960532 582.21071571 -293.26788134 553.54475933 -293.26326752 524.87879562 C-293.26309556 523.79767305 -293.26292361 522.71655049 -293.26274644 521.60266663 C-293.26185753 516.12289368 -293.26091272 510.64312074 -293.25994843 505.16334781 C-293.2597574 504.07501493 -293.25956637 502.98668204 -293.25936954 501.86536938 C-293.25898245 499.66449429 -293.25859213 497.46361921 -293.25819857 495.26274413 C-293.25222859 461.01742031 -293.26766489 426.77216406 -293.29980469 392.52685547 C-293.33586985 354.06626516 -293.35521587 315.6057177 -293.35026598 277.14510942 C-293.34979599 273.0451878 -293.34938574 268.94526617 -293.34901428 264.84534454 C-293.3489119 263.83581477 -293.34880951 262.82628501 -293.34870402 261.78616343 C-293.34750845 246.53651767 -293.35948618 231.28691815 -293.37815857 216.03728485 C-293.39938183 198.69581679 -293.40325957 181.35444583 -293.38385898 164.01297346 C-293.37352139 154.3057591 -293.37703173 144.59878148 -293.40038983 134.89158845 C-293.41460831 128.40847589 -293.4106731 121.92553872 -293.39194407 115.44243804 C-293.38178167 111.74775958 -293.37949406 108.05354229 -293.39926475 104.35889241 C-293.42037816 100.37742238 -293.40277386 96.39665334 -293.38143158 92.41517258 C-293.39370911 91.27038128 -293.40598663 90.12558998 -293.4186362 88.94610804 C-293.32449924 80.56551976 -291.41318811 73.71916303 -285.60546875 67.46875 C-281.2797976 64.91132302 -276.79965542 62.85328736 -272.1953125 60.84765625 C-271.10597412 60.37239502 -270.01663574 59.89713379 -268.89428711 59.4074707 C-232.55364669 43.86532376 -194.33626731 32.16199819 -156.55889893 20.69110107 C-139.73070632 15.56349716 -123.16406315 9.76643767 -106.62255859 3.78393555 C-97.08975955 0.34003738 -87.53804454 -3.02941541 -77.90234375 -6.17578125 C-77.01669739 -6.47209442 -76.13105103 -6.76840759 -75.21856689 -7.07369995 C-51.33917389 -14.73486067 -23.59105473 -5.19285809 0 0 Z M212.67578125 82.953125 C211.24724448 83.43208154 209.8186957 83.91100228 208.39013672 84.38989258 C207.62538025 84.6468692 206.86062378 84.90384583 206.07269287 85.16860962 C195.20861787 88.81892441 184.34007808 92.45146414 173.42578125 95.94921875 C150.01433437 103.45723605 126.83700252 111.49841739 103.72589111 119.88415527 C97.53273422 122.13081642 91.3368539 124.36996883 85.14135742 126.61016846 C83.67542407 127.1404143 82.20960236 127.67096895 80.74389648 128.20184326 C67.28301526 133.07689981 53.78360417 137.83909101 40.26831055 142.56103516 C39.52205917 142.82203003 38.7758078 143.0830249 38.00694275 143.35192871 C36.6285504 143.83382689 35.2498838 144.31494177 33.87086487 144.79504395 C31.99227375 145.45168647 30.11720561 146.1183796 28.2421875 146.78515625 C27.52260864 147.02538513 26.80302979 147.26561401 26.06164551 147.51312256 C21.39757112 149.09088712 21.39757112 149.09088712 18.2421875 152.78515625 C17.94302288 155.15487729 17.94302288 155.15487729 17.99379051 157.84494513 C17.98929592 158.89951499 17.98480133 159.95408484 17.98017055 161.04061136 C17.98542458 162.20550683 17.9906786 163.37040231 17.99609184 164.57059765 C17.99378415 165.80826035 17.99147647 167.04592304 17.98909885 168.32109067 C17.98469562 171.77831231 17.98933076 175.23531439 17.99765511 178.69251525 C18.00450272 182.44533395 17.9997859 186.19814038 17.99650013 189.95096141 C17.99234483 196.5353873 17.9956535 203.11977713 18.00377655 209.70419884 C18.01582185 219.49506384 18.01645047 229.28590598 18.01469257 239.07677704 C18.01206156 255.5447136 18.01875977 272.01263413 18.03072739 288.48056602 C18.04255095 304.79198981 18.05025716 321.10340693 18.05243301 337.41483498 C18.05257049 338.42804825 18.05270797 339.44126153 18.05284962 340.48517824 C18.05352626 345.63052419 18.05412904 350.77587015 18.05470337 355.92121611 C18.05890709 392.39027166 18.07238988 428.8593185 18.09130859 465.32836914 C18.10966965 500.7632645 18.1238407 536.19815748 18.13232422 571.63305664 C18.13258727 572.72481693 18.13285032 573.81657723 18.13312135 574.94142117 C18.13575833 585.90506763 18.13830996 596.86871412 18.14079907 607.83236062 C18.14587185 630.16768492 18.15151435 652.50300906 18.15750122 674.83833313 C18.1577758 675.86533366 18.15805038 676.8923342 18.15833328 677.95045596 C18.17674266 746.56202635 18.208434 815.1735919 18.2421875 883.78515625 C21.45198273 882.3422335 24.66155729 880.89882053 27.87109375 879.45532227 C28.77525024 879.04887733 29.67940674 878.6424324 30.61096191 878.22367096 C36.83693988 875.42313449 43.04535367 872.58707891 49.2421875 869.72265625 C59.10389836 865.18667592 69.00823562 860.75089186 78.9296875 856.34765625 C79.67650787 856.01620605 80.42332825 855.68475586 81.19277954 855.34326172 C86.00760836 853.20694893 90.82328757 851.07255723 95.63916016 848.93859863 C135.06806845 831.46744551 135.06806845 831.46744551 174.34381104 813.65557861 C176.27733389 812.76904132 178.21160433 811.88415129 180.14599609 810.99951172 C183.3320446 809.54173707 186.5156535 808.07875363 189.69747925 806.61178589 C191.40603443 805.82483773 193.11618428 805.04135455 194.82641602 804.25805664 C200.38686252 801.68372054 205.89704436 799.01474237 211.3515625 796.22265625 C212.40827148 795.68511719 213.46498047 795.14757812 214.55371094 794.59375 C217.59309218 792.54909542 218.61602258 791.03579616 220.2421875 787.78515625 C220.68272529 785.28024154 220.68272529 785.28024154 220.61478299 782.63085908 C220.62152487 781.60619665 220.62826675 780.58153422 220.63521293 779.52582142 C220.62733189 778.40468426 220.61945085 777.2835471 220.61133099 776.12843609 C220.61479252 774.92898667 220.61825405 773.72953726 220.62182048 772.49374089 C220.62841052 769.1529082 220.62149441 765.81258962 220.60898608 762.47180584 C220.59869314 758.84179042 220.60579402 755.21180304 220.61071855 751.58178216 C220.61694477 745.21606104 220.61199997 738.85042397 220.59980392 732.4847126 C220.5817191 723.01910899 220.58079462 713.55355851 220.58342989 704.08794078 C220.58737434 688.16627396 220.57733694 672.24464446 220.55937767 656.32298851 C220.54163691 640.55468753 220.53008192 624.78640209 220.52681923 609.0180912 C220.52661301 608.03828773 220.52640679 607.05848425 220.52619432 606.04898976 C220.52517935 601.07322282 220.52427519 596.09745586 220.5234137 591.12168888 C220.51710962 555.86277224 220.49688961 520.6038759 220.46850586 485.3449707 C220.44096032 451.08781034 220.41970568 416.83065554 220.40698242 382.57348633 C220.40658784 381.51784643 220.40619326 380.46220653 220.40578673 379.37457754 C220.40183123 368.77357194 220.39800378 358.17256629 220.39427015 347.5715606 C220.38666116 325.9753852 220.37819741 304.37921016 220.36921692 282.78303528 C220.36880505 281.79004106 220.36839318 280.79704684 220.36796883 279.77396189 C220.34035892 213.44435156 220.2928224 147.1147525 220.2421875 80.78515625 C217.78522064 80.78515625 214.93725497 82.19229489 212.67578125 82.953125 Z M-269.7578125 90.78515625 C-269.79207953 158.40379088 -269.82388013 226.02242654 -269.84249878 293.6410675 C-269.84277489 294.64129087 -269.84305101 295.64151424 -269.84333549 296.67204741 C-269.84932082 318.40777867 -269.85486125 340.14351002 -269.85994316 361.87924151 C-269.86243791 372.53790256 -269.865031 383.19656359 -269.86767578 393.85522461 C-269.8679373 394.91590913 -269.86819882 395.97659364 -269.86846826 397.06942012 C-269.87699624 431.47075942 -269.89202279 465.87209218 -269.91040694 500.27342752 C-269.92925934 535.6150221 -269.94158042 570.95661305 -269.94564248 606.29821258 C-269.94621882 611.28599012 -269.94687009 616.27376765 -269.94756699 621.26154518 C-269.94770183 622.24324491 -269.94783668 623.22494463 -269.94797561 624.23639284 C-269.95034224 640.06117052 -269.95962695 655.885937 -269.97147657 671.71071011 C-269.98323256 687.60654276 -269.98775311 703.50236428 -269.98481525 719.39820113 C-269.98329009 728.85086082 -269.98738522 738.30347983 -269.99940759 747.7561322 C-270.0068839 754.0633891 -270.00715642 760.37061925 -270.00147613 766.67787797 C-269.99844453 770.27621862 -269.9986353 773.87448213 -270.00757886 777.47281464 C-270.01712403 781.34243957 -270.01132185 785.21195229 -270.00390816 789.08158398 C-270.00916218 790.20753417 -270.01441621 791.33348437 -270.01982945 792.49355426 C-270.01533487 793.52251694 -270.01084028 794.55147962 -270.00620949 795.61162299 C-270.00652145 796.49681303 -270.00683342 797.38200307 -270.00715483 798.29401706 C-269.63496518 802.01250408 -268.7203738 804.86563061 -265.99642944 807.4677887 C-263.3704389 809.01311549 -260.84348549 809.93329449 -257.93994141 810.86303711 C-256.76005646 811.2449823 -255.58017151 811.62692749 -254.36453247 812.02044678 C-253.07119981 812.43046559 -251.7778124 812.84031172 -250.484375 813.25 C-249.13714892 813.68287751 -247.79013761 814.11642395 -246.44332886 814.55059814 C-242.83994017 815.71005309 -239.23353939 816.85985399 -235.62643433 818.00768661 C-231.86838092 819.20525656 -228.11309286 820.41143929 -224.35742188 821.61645508 C-215.82793117 824.35104299 -207.29356358 827.07018241 -198.7578125 829.78515625 C-197.72748901 830.11314209 -196.69716553 830.44112793 -195.63562012 830.77905273 C-186.54754125 833.67164942 -177.45317785 836.54382305 -168.35346985 839.39961243 C-156.1715357 843.22307223 -143.99620529 847.06751125 -131.8203125 850.91015625 C-129.9514035 851.49973618 -129.9514035 851.49973618 -128.04473877 852.10122681 C-114.39245428 856.408796 -100.74705127 860.73376994 -87.1328125 865.16015625 C-71.57168345 870.21567016 -55.93362564 875.01823452 -40.28398132 879.79148865 C-35.89159628 881.13130227 -31.50275465 882.48173396 -27.1171875 883.84375 C-25.35164694 884.38699325 -23.58603187 884.92999447 -21.8203125 885.47265625 C-20.71490112 885.82021973 -20.71490112 885.82021973 -19.5871582 886.17480469 C-14.85899093 887.61364026 -10.80359557 888.15443337 -5.7578125 888.78515625 C-5.7578125 645.90515625 -5.7578125 403.02515625 -5.7578125 152.78515625 C-10.61768575 150.96270378 -14.84846257 149.38804673 -19.78613281 148.19458008 C-20.91195267 147.92002487 -22.03777252 147.64546967 -23.19770813 147.3625946 C-24.39832382 147.07536026 -25.59893951 146.78812592 -26.8359375 146.4921875 C-28.10338303 146.18509354 -29.37082855 145.87799957 -30.67668152 145.56159973 C-34.0818963 144.73716679 -37.48870925 143.91954129 -40.89600754 143.1037674 C-43.0173815 142.59536296 -45.13829088 142.08506345 -47.25906372 141.57415771 C-66.62556346 136.90969065 -86.01888461 132.40442939 -105.48313904 128.1650238 C-114.15219535 126.2711804 -122.79923355 124.28086727 -131.4453125 122.28515625 C-132.26243713 122.09660065 -133.07956177 121.90804504 -133.92144775 121.71377563 C-146.70718515 118.75903239 -159.46616942 115.70132267 -172.21337891 112.58496094 C-181.05350417 110.42584833 -189.91191589 108.36757039 -198.78881836 106.36572266 C-206.42920946 104.61551632 -214.02569006 102.71630912 -221.62109375 100.78125 C-222.68362869 100.51154388 -223.74616364 100.24183777 -224.84089661 99.96395874 C-230.21612544 98.59930369 -235.58862535 97.22527319 -240.95727539 95.83496094 C-242.97140924 95.32184275 -244.98564667 94.80913091 -247 94.296875 C-248.3582061 93.93945473 -248.3582061 93.93945473 -249.74385071 93.57481384 C-254.53571735 92.36732232 -259.15978173 91.58957532 -264.09255981 91.21516418 C-265.15798067 91.13245679 -266.22340153 91.04974939 -267.32110786 90.96453571 C-268.12522039 90.90534049 -268.92933292 90.84614527 -269.7578125 90.78515625 Z " transform="translate(536.7578125,65.21484375)" style="fill: #273244;"/><path d="M0 0 C1.88304881 0.13719449 3.76567735 0.28016305 5.64811707 0.42547607 C6.6965488 0.50445507 7.74498053 0.58343407 8.82518291 0.66480637 C13.84109458 1.1943807 18.61903178 2.42318772 23.48828125 3.703125 C24.56426071 3.97704575 25.64024017 4.25096649 26.74882507 4.53318787 C29.06394917 5.12318026 31.37803836 5.71724612 33.69116211 6.31503296 C39.95126971 7.93128487 46.22011636 9.51299449 52.48828125 11.09765625 C53.454083 11.34234366 53.454083 11.34234366 54.4393959 11.59197426 C68.26080223 15.09303189 82.12095075 18.42279584 96 21.6875 C97.13101135 21.95366119 98.26202271 22.21982239 99.42730713 22.49404907 C107.28232829 24.34032311 115.14027565 26.17385882 123 28 C124.09471619 28.25434814 125.18943237 28.50869629 126.31732178 28.77075195 C133.77214797 30.50128492 141.22911606 32.22237017 148.6875 33.9375 C149.62360107 34.15320648 150.55970215 34.36891296 151.52416992 34.59115601 C160.14684937 36.57547186 168.77133816 38.54122791 177.43139648 40.35668945 C195.24165592 44.09138362 212.88954376 48.32476191 230.5322876 52.77069092 C233.46545986 53.50807503 236.40019072 54.23915249 239.33491802 54.97031879 C242.17586708 55.67882721 245.01594643 56.39076903 247.85575294 57.10384178 C249.20277429 57.44172331 250.55004088 57.77862873 251.89755821 58.11452675 C253.75117497 58.57720871 255.60352994 59.04493709 257.45581055 59.51293945 C258.50608932 59.77685989 259.5563681 60.04078033 260.63847351 60.31269836 C263 61 263 61 264 62 C264.09752196 63.61206762 264.12447283 65.22843734 264.1241985 66.84345204 C264.12756944 68.42931557 264.12756944 68.42931557 264.13100848 70.04721674 C264.12838146 71.22538797 264.12575445 72.4035592 264.12304783 73.61743259 C264.12420167 74.86122947 264.12535552 76.10502635 264.12654433 77.38651404 C264.12963343 80.87019391 264.12642171 84.35384491 264.12226619 87.83752265 C264.118849 91.61561898 264.12119953 95.39371222 264.12284368 99.17180914 C264.12492342 105.80371232 264.12326347 112.43560655 264.11920547 119.0675087 C264.11318801 128.92901444 264.11286803 138.79051451 264.11374746 148.65202175 C264.11506361 165.23799264 264.11171145 181.82395955 264.10573006 198.40992928 C264.09981994 214.84023114 264.09596551 231.27053135 264.09487724 247.70083427 C264.0948085 248.72111676 264.09473976 249.74139925 264.09466894 250.7925994 C264.09433062 255.97376349 264.09402923 261.15492759 264.09374207 266.33609169 C264.09163974 303.06691707 264.08489706 339.79774029 264.07543945 376.52856445 C264.06626014 412.21964506 264.05917402 447.91072509 264.05493164 483.60180664 C264.05480011 484.70130027 264.05466859 485.80079389 264.05453308 486.9336055 C264.0532146 497.97482822 264.05193878 509.01605095 264.05069422 520.05727368 C264.04815777 542.55099478 264.04533652 565.04471584 264.04234314 587.53843689 C264.04220585 588.57273945 264.04206856 589.607042 264.04192711 590.67268706 C264.03272114 659.78179228 264.01687532 728.89089629 264 798 C262.11439107 797.7025591 260.22954273 797.4002945 258.34501648 797.09606934 C257.29531016 796.92827721 256.24560385 796.76048508 255.16408825 796.58760834 C250.25459455 795.67585772 245.57535806 794.19548209 240.83203125 792.65625 C239.8063353 792.33101349 238.78063934 792.00577698 237.72386169 791.67068481 C234.41773692 790.62097839 231.11519794 789.56043298 227.8125 788.5 C224.35795492 787.40079312 220.9024522 786.30463845 217.44680786 785.20889282 C215.15753857 784.48299132 212.86853539 783.75625005 210.57980347 783.02865601 C202.30140326 780.40000552 194.00324653 777.84926046 185.68339539 775.35527039 C184.88037491 775.11428116 184.07735443 774.87329193 183.25 774.625 C182.13264969 774.28978836 181.01529938 773.95457672 179.86408997 773.60920715 C171.0074236 770.94319373 162.19244826 768.16344303 153.39453125 765.30859375 C152.04651583 764.87235051 150.69845671 764.43624227 149.35035706 764.0002594 C145.90125216 762.88448273 142.45264565 761.76717439 139.00417328 760.64944458 C128.48362257 757.24030092 117.96065245 753.83860309 107.4375 750.4375 C106.78791447 750.22752129 106.13832893 750.01754257 105.46905899 749.80120087 C83.19766818 742.60296085 60.89405464 735.51564095 38.54663086 728.55639648 C29.39271702 725.70018122 20.24616489 722.82402018 11.17578125 719.7109375 C10.482603 719.47911774 9.78942474 719.24729797 9.07524109 719.00845337 C3.03810928 716.89167642 3.03810928 716.89167642 1 714 C0.03471396 710.93644431 -0.12476255 708.15225239 -0.1241985 704.95066524 C-0.12644579 703.92394985 -0.12869308 702.89723446 -0.13100848 701.83940649 C-0.12838146 700.71082928 -0.12575445 699.58225207 -0.12304783 698.41947556 C-0.12420167 697.21611486 -0.12535552 696.01275417 -0.12654433 694.772928 C-0.12874332 691.41663069 -0.12643201 688.06039009 -0.12226619 684.70409816 C-0.1188387 681.05888286 -0.12120151 677.41367069 -0.12284368 673.76845479 C-0.12492017 667.3745116 -0.12326896 660.9805777 -0.11920547 654.58663559 C-0.11317993 645.07902044 -0.11286879 635.57141117 -0.11374746 626.06379446 C-0.11506262 610.07185271 -0.11171521 594.07991509 -0.10573006 578.08797455 C-0.09981734 562.24907155 -0.09596498 546.41017027 -0.09487724 530.57126617 C-0.0948085 529.58723492 -0.09473976 528.60320366 -0.09466894 527.58935328 C-0.09433062 522.59215723 -0.09402923 517.59496117 -0.09374207 512.59776512 C-0.09164046 477.18301412 -0.08489979 441.76826536 -0.07543945 406.35351562 C-0.06625825 371.94401054 -0.05917305 337.53450607 -0.05493164 303.125 C-0.05480011 302.06474641 -0.05466859 301.00449281 -0.05453308 299.91211032 C-0.05321458 289.26481486 -0.05193876 278.6175194 -0.05069422 267.97022393 C-0.04815786 246.27956738 -0.04533661 224.58891088 -0.04234314 202.89825439 C-0.04220585 201.90090642 -0.04206856 200.90355844 -0.04192711 199.8759878 C-0.03272314 133.2506576 -0.01687755 66.62532864 0 0 Z M21 28 C18.5481936 30.4518064 18.74963009 31.08500307 18.748151 34.45074421 C18.74288774 35.39468787 18.73762448 36.33863153 18.73220173 37.31117955 C18.73659821 38.35740785 18.74099469 39.40363615 18.74552441 40.48156834 C18.74231793 41.59044117 18.73911145 42.699314 18.73580781 43.84178904 C18.72742756 47.60197958 18.73345999 51.36201415 18.73930359 55.12220764 C18.73739391 57.82751704 18.73248077 60.53281912 18.72771102 63.23812479 C18.71892166 69.14307056 18.71764657 75.04798166 18.72121429 80.95293236 C18.72650577 89.73393175 18.72044163 98.51489738 18.71213136 107.2958931 C18.69685935 123.89037182 18.69518968 140.48483533 18.69765439 157.0793196 C18.6994847 169.89384371 18.69773295 182.7083628 18.69342995 195.52288628 C18.69282755 197.36181845 18.69222635 199.20075062 18.69162634 201.03968279 C18.69071912 203.81058317 18.68981045 206.58148356 18.68889399 209.35238394 C18.68045919 235.12973672 18.67613228 260.9070876 18.68030071 286.68444157 C18.68045709 287.65702176 18.68061346 288.62960195 18.68077458 289.63165427 C18.6815804 294.56141384 18.68242617 299.4911734 18.68328788 304.42093296 C18.68345897 305.40004886 18.68363006 306.37916477 18.68380633 307.38795085 C18.68415298 309.36796491 18.68450151 311.34797897 18.68485192 313.32799302 C18.6902077 344.12874821 18.68228492 374.92947476 18.66381836 405.73022461 C18.64310845 440.31345103 18.63237393 474.8966597 18.63639385 509.47989267 C18.6367892 513.16672957 18.63715075 516.85356646 18.63749123 520.54040337 C18.63758196 521.44823342 18.63767269 522.35606348 18.63776617 523.29140354 C18.63893297 537.00622271 18.63227739 550.721024 18.62167931 564.4358387 C18.60963816 580.03426103 18.6080556 595.63264392 18.62046947 611.23106683 C18.62710745 619.96305527 18.6254455 628.69494946 18.61188096 637.42693039 C18.60365115 643.25884799 18.60631486 649.09069481 18.61785623 654.92260663 C18.6241275 658.24620797 18.62402568 661.56947423 18.61399289 664.89308894 C18.60392951 668.47474657 18.61227307 672.05590626 18.62526989 675.63754368 C18.61796054 676.66738382 18.6106512 677.69722395 18.60312036 678.75827137 C18.6559894 685.76538376 19.4567336 692.38273504 23.57714844 698.24316406 C29.50666301 703.30843158 35.86122291 705.48273485 43.25 707.75 C44.56999808 708.17112672 45.88948478 708.59385914 47.20849609 709.01806641 C51.46268909 710.37713704 55.72956913 711.69297849 60 713 C60.71571167 713.21934204 61.43142334 713.43868408 62.16882324 713.66467285 C68.84793778 715.70969847 75.5309994 717.74166092 82.21704102 719.76391602 C92.59658203 722.91138635 102.90725849 726.23011915 113.1875 729.6875 C113.91316162 729.93147522 114.63882324 730.17545044 115.38647461 730.42681885 C116.48971069 730.79779694 116.48971069 730.79779694 117.61523438 731.17626953 C119.14060685 731.68918159 120.66599779 732.20203871 122.19140625 732.71484375 C122.96602203 732.9752948 123.74063782 733.23574585 124.53872681 733.50408936 C134.88223293 736.97583555 145.25328383 740.36365732 155.625 743.75 C156.64125458 744.08198395 157.65750916 744.4139679 158.70455933 744.75601196 C177.53370033 750.90346421 196.39515153 756.94890176 215.27197266 762.94824219 C216.29080536 763.2727536 217.30963806 763.59726501 218.35934448 763.93161011 C220.2595016 764.53679328 222.16012666 765.14051002 224.06130981 765.74246216 C227.38353402 766.80145158 230.64508954 767.85299674 233.86816406 769.18798828 C236.92545311 770.3525031 239.76568274 770.12683597 243 770 C245.36638962 766.28660095 245.24960314 763.0518608 245.24888897 758.71704578 C245.25149625 757.97828745 245.25410354 757.23952912 245.25678983 756.47838417 C245.26311363 753.98931328 245.25511203 751.5004924 245.24723816 749.01142883 C245.24882562 747.21440019 245.2512886 745.41737215 245.25455457 743.62034577 C245.26098445 738.67160026 245.2548873 733.72293621 245.24679029 728.77419603 C245.24022576 723.44154301 245.24515901 718.10889929 245.24867249 712.77624512 C245.25372025 702.3262166 245.24806586 691.87621966 245.23882218 681.42619506 C245.2284531 669.26834683 245.22850797 657.11050549 245.22899476 644.95265367 C245.22949567 623.26880344 245.22032559 601.58496795 245.20581055 579.90112305 C245.19171733 558.83666719 245.18463997 537.77222431 245.18530273 516.70776367 C245.18534269 515.41003689 245.18538265 514.11231011 245.18542381 512.77525828 C245.18548435 510.83210659 245.18548435 510.83210659 245.1855461 508.84969932 C245.18623507 484.89936318 245.18035159 460.94903258 245.17139288 436.99869824 C245.16837054 428.51369713 245.16731262 420.02869704 245.16686058 411.54369545 C245.16618005 401.21298901 245.16173773 390.88229189 245.15252777 380.55158941 C245.14789547 375.27561523 245.14486953 369.99965303 245.14612198 364.72367668 C245.14721109 359.90218802 245.14373526 355.08072591 245.13647345 350.2592428 C245.13464914 348.50700178 245.13454038 346.75475804 245.13624074 345.0025169 C245.1382837 342.63678931 245.13428152 340.2711506 245.12863445 337.90543079 C245.12793003 336.58655206 245.1272256 335.26767332 245.12649983 333.90882856 C245.33289215 331.10765305 245.33289215 331.10765305 244 330 C241.80985996 330.09854041 239.62256896 330.25890203 237.4375 330.4375 C195.75701879 333.18780058 195.75701879 333.18780058 176 326 C174.59801807 325.52497247 173.19567385 325.05101281 171.79296875 324.578125 C153.89500918 318.36578462 139.27195732 308.64238857 124.04492188 297.57958984 C99.77275041 280.02822546 70.71256687 270.53551479 42 263 C48.48842869 259.99825756 55.06676607 257.42849229 61.796875 255.0234375 C62.81564728 254.65654816 63.83441956 254.28965881 64.88406372 253.91165161 C68.17142239 252.72914917 71.46061163 251.55184337 74.75 250.375 C77.02623173 249.55801878 79.30243603 248.74096111 81.57861328 247.92382812 C94.45231865 243.30870662 107.34459346 238.75776299 120.28540039 234.33422852 C127.94036984 231.71727484 135.57095669 229.03927436 143.1875 226.3125 C144.28763428 225.91877197 145.38776855 225.52504395 146.52124023 225.11938477 C152.09572323 223.12179354 157.66850322 221.11950874 163.24023438 219.11425781 C168.01562212 217.39575341 172.79226192 215.68076212 177.56948853 213.96737671 C179.47164294 213.28433044 181.37332129 212.59995685 183.27450562 211.91421509 C185.9514005 210.94873367 188.62982288 209.98760569 191.30859375 209.02734375 C192.11258606 208.73614655 192.91657837 208.44494934 193.74493408 208.14492798 C201.07245167 205.52739605 207.42880903 204.81796772 215.1875 204.8125 C216.08275391 204.80025391 216.97800781 204.78800781 217.90039062 204.77539062 C226.01017185 204.75782431 233.5038525 205.81981621 241 209 C241.99 209 242.98 209 244 209 C244.33 204.71 244.66 200.42 245 196 C232.98844828 187.81030565 214.96149155 188.43549205 201 190 C192.11287296 191.80196945 183.6671898 195.03878166 175.1875 198.1875 C172.8598904 199.0184775 170.53101105 199.84590622 168.20092773 200.66992188 C162.48776503 202.70004771 156.79136707 204.77276444 151.10021973 206.8637085 C146.61296484 208.50837567 142.11547571 210.12409249 137.6171875 211.73828125 C133.14744969 213.34502758 128.67913137 214.95525259 124.2175293 216.58447266 C111.56120775 221.20336507 98.80456954 225.47972316 86.00341797 229.68164062 C79.1351019 231.93949344 72.27949554 234.23576661 65.42163086 236.52511597 C61.70984725 237.76396168 57.99748795 239.00107914 54.28515625 240.23828125 C52.42709351 240.8576355 52.42709351 240.8576355 50.53149414 241.48950195 C44.02099609 243.65966797 37.51049805 245.82983398 31 248 C31 230.18 31 212.36 31 194 C46.5625 197.9375 46.5625 197.9375 51.43188477 199.17553711 C52.72665395 199.50142279 54.02149016 199.82704231 55.31640625 200.15234375 C55.97153198 200.31996216 56.62665771 200.48758057 57.30163574 200.66027832 C63.26342806 202.15155921 69.16114827 203.13966678 75.3125 203.1875 C76.15425781 203.20167969 76.99601562 203.21585938 77.86328125 203.23046875 C80.21541076 203.20272232 80.21541076 203.20272232 82 201 C82.58442963 198.12762267 82.58442963 198.12762267 82 195 C78.57129434 190.84973033 75.87195496 189.26125558 70.66015625 188.0859375 C69.43103516 187.79976562 68.20191406 187.51359375 66.93554688 187.21875 C65.65744141 186.9403125 64.37933594 186.661875 63.0625 186.375 C61.81919922 186.08882812 60.57589844 185.80265625 59.29492188 185.5078125 C54.19737329 184.34265854 49.09114207 183.22409887 43.97216797 182.15722656 C42.70131348 181.89135742 41.43045898 181.62548828 40.12109375 181.3515625 C38.96923584 181.11518066 37.81737793 180.87879883 36.63061523 180.63525391 C34 180 34 180 33 179 C32.84661243 176.97661315 32.76150356 174.94802323 32.70288086 172.91967773 C32.6429319 170.96776772 32.6429319 170.96776772 32.58177185 168.97642517 C32.54269315 167.54548416 32.50371963 166.11454028 32.46484375 164.68359375 C32.42185372 163.22769441 32.37843727 161.7718076 32.33460999 160.31593323 C32.22020644 156.47733869 32.11161887 152.63860051 32.00421143 148.79980469 C31.89366631 144.88531418 31.77766334 140.97098591 31.66210938 137.05664062 C31.43604179 129.37124268 31.21611358 121.68568497 31 114 C32.45141891 114.38934723 32.45141891 114.38934723 33.93215942 114.78656006 C41.25242764 116.74678341 48.5765022 118.68191923 55.9296875 120.515625 C56.79653671 120.73274643 57.66338593 120.94986786 58.5565033 121.17356873 C67.16549892 123.32787038 75.77798327 125.46825377 84.39111328 127.60595703 C88.79262378 128.69876211 93.1922008 129.79909234 97.59112549 130.9022522 C100.62527597 131.66131643 103.66112049 132.41340199 106.6975708 133.16320801 C108.09292267 133.50911642 109.48759658 133.85777275 110.88153076 134.20935059 C112.80061932 134.6927927 114.72252388 135.16501457 116.64453125 135.63671875 C117.71034424 135.90186279 118.77615723 136.16700684 119.87426758 136.44018555 C123.34212869 137.06127479 126.48444501 137.22894583 130 137 C132.57990801 134.42009199 132.31598838 132.49755539 132.4609375 128.97265625 C131.78971897 126.10006845 130.48334226 125.55095 128 124 C124.83135819 122.92388588 124.83135819 122.92388588 121.2109375 122.08984375 C120.53147064 121.92148514 119.85200378 121.75312653 119.15194702 121.57966614 C116.8950989 121.02313418 114.63516964 120.48037057 112.375 119.9375 C110.78269412 119.54729748 109.19057515 119.15633149 107.59863281 118.76464844 C98.68951499 116.58126764 89.76415963 114.46694067 80.8359375 112.36328125 C79.90949432 112.14449814 78.98305115 111.92571503 78.02853394 111.70030212 C73.52672913 110.63755848 69.0236649 109.58115581 64.51708984 108.53881836 C56.57219775 106.68645971 48.69116588 104.72420997 40.890625 102.328125 C39.88488434 102.02307037 39.88488434 102.02307037 38.85882568 101.71185303 C35.97388358 100.79601494 34.17232483 100.17232483 32 98 C31.74171448 95.27406311 31.74171448 95.27406311 31.72875977 91.76196289 C31.71347984 89.79465965 31.71347984 89.79465965 31.69789124 87.78761292 C31.69695024 87.08461123 31.69600925 86.38160954 31.69503975 85.65730476 C31.69138389 83.45921429 31.67467982 81.26157821 31.65428162 79.06358337 C31.59879158 72.81404052 31.56816764 66.56443035 31.54370117 60.31469727 C31.52783751 56.49322434 31.497631 52.67207342 31.45893669 48.85076714 C31.4472752 47.39354302 31.44135624 45.93626133 31.44125557 44.47899055 C31.44106381 42.44175926 31.42130338 40.40455809 31.40063477 38.36743164 C31.39556412 37.20764297 31.39049347 36.04785431 31.38526917 34.85292053 C31.22606785 32.01883104 31.22606785 32.01883104 29.69761658 30.15281677 C26.9409822 28.28084263 24.26612155 28.17815208 21 28 Z " transform="translate(267,156)" style="fill: #F9FDFE;"/><path d="M0 0 C0.05140059 67.33262079 0.09910148 134.66524393 0.12702942 201.99787903 C0.12744359 202.99387319 0.12785776 203.98986734 0.12828448 205.01604314 C0.13726248 226.65987467 0.14557313 248.3037064 0.15319599 269.94753845 C0.15693811 280.5611357 0.16082776 291.1747329 0.16479492 301.78833008 C0.1651872 302.84453007 0.16557948 303.90073006 0.16598364 304.9889361 C0.17877559 339.24477441 0.2013154 373.5005979 0.22889166 407.75642722 C0.25717031 442.9485665 0.27565189 478.14069758 0.28174497 513.33284803 C0.28260948 518.29954369 0.28358639 523.26623932 0.28463173 528.23293495 C0.28493513 529.69926036 0.28493513 529.69926036 0.28524467 531.19520851 C0.2887946 546.95304483 0.30272163 562.71085584 0.3204961 578.46868182 C0.33813017 594.29730495 0.34491089 610.1259029 0.34050413 625.95453551 C0.3382164 635.36722321 0.34435892 644.77981902 0.36239263 654.19249019 C0.37360724 660.47309993 0.3740158 666.75364922 0.36549544 673.03426307 C0.36094806 676.6174139 0.36123383 680.20039043 0.37464955 683.78352287 C0.38896788 687.6368546 0.38026399 691.48993282 0.36914349 695.34327984 C0.37702453 696.464417 0.38490557 697.58555416 0.39302543 698.74066517 C0.38628355 699.7653276 0.37954167 700.78999002 0.37259549 701.84570283 C0.37306343 702.72714933 0.37353137 703.60859584 0.37401349 704.51675285 C-0.18828494 708.25011006 -1.75383378 711.05829406 -4.77427673 713.34078979 C-5.75793968 713.84281418 -5.75793968 713.84281418 -6.76147461 714.35498047 C-7.50812881 714.74307892 -8.25478302 715.13117737 -9.02406311 715.53103638 C-10.23224953 716.13055618 -10.23224953 716.13055618 -11.46484375 716.7421875 C-12.30740219 717.17224091 -13.14996063 717.60229431 -14.01805115 718.04537964 C-23.0912213 722.63586999 -32.31200414 726.90676653 -41.5625 731.125 C-43.20268258 731.87845226 -44.84265674 732.63235842 -46.48242188 733.38671875 C-56.4924351 737.9837517 -66.54222506 742.48765113 -76.61538696 746.94433594 C-80.93940341 748.85857053 -85.26049879 750.77938466 -89.58203125 752.69921875 C-91.42464161 753.51757883 -93.2672523 754.3359382 -95.10986328 755.15429688 C-111.10384875 762.25873799 -127.09525425 769.3682531 -143.05786133 776.54296875 C-148.70584599 779.0803917 -154.359027 781.6048998 -160.0234375 784.10546875 C-171.70263458 789.26340209 -183.32864392 794.48966341 -194.8203125 800.05541992 C-195.6246875 800.4444751 -196.4290625 800.83353027 -197.2578125 801.234375 C-197.9605127 801.57694336 -198.66321289 801.91951172 -199.38720703 802.27246094 C-201 803 -201 803 -202 803 C-202.05139799 733.36517871 -202.09909922 663.73035515 -202.12702942 594.09552002 C-202.12744359 593.0655541 -202.12785776 592.03558819 -202.12828448 590.97441119 C-202.13726238 568.59261494 -202.14557304 546.21081849 -202.15319599 523.82902174 C-202.15693813 512.85362512 -202.16082777 501.87822857 -202.16479492 490.90283203 C-202.1651872 489.81062506 -202.16557948 488.71841809 -202.16598364 487.59311393 C-202.17877674 452.16624269 -202.20131741 416.73938576 -202.22889166 381.3125232 C-202.25716708 344.91887328 -202.27565113 308.52523129 -202.28174497 272.13157057 C-202.28260949 266.99589902 -202.2835864 261.86022749 -202.28463173 256.72455597 C-202.284834 255.71374266 -202.28503627 254.70292935 -202.28524467 253.66148533 C-202.28879529 237.36414871 -202.30272419 221.06683653 -202.3204961 204.76950989 C-202.33812557 188.40096425 -202.34491205 172.03244294 -202.34050413 155.66388813 C-202.33821552 145.92883255 -202.34436667 136.19386578 -202.36239263 126.45882618 C-202.37360039 119.96461124 -202.37402069 113.4704548 -202.36549544 106.9762359 C-202.36094443 103.27026509 -202.36124845 99.56446284 -202.37464955 95.85850975 C-202.38894526 91.87509253 -202.38027409 87.89192118 -202.36914349 83.90848923 C-202.38096505 82.16508653 -202.38096505 82.16508653 -202.39302543 80.38646358 C-202.38628355 79.32964644 -202.37954167 78.27282929 -202.37259549 77.18398738 C-202.37306343 76.27243661 -202.37353137 75.36088584 -202.37401349 74.42171232 C-201.91964473 71.479705 -201.04092979 70.14366867 -199 68 C-196.54625928 66.93282748 -194.252472 66.08334199 -191.7109375 65.30078125 C-190.98461624 65.06478714 -190.25829498 64.82879303 -189.50996399 64.58564758 C-187.94914759 64.07991901 -186.38636369 63.58023053 -184.8218689 63.08599854 C-181.51017679 62.03911409 -178.20866173 60.96180992 -174.90647888 59.88537598 C-173.24722992 59.34452554 -171.58753016 58.80505617 -169.92738342 58.26696777 C-163.47026321 56.1704038 -157.06502304 53.95320596 -150.6875 51.625 C-149.73012939 51.27646973 -148.77275879 50.92793945 -147.78637695 50.56884766 C-145.71436268 49.8135354 -143.64268224 49.05730687 -141.57128906 48.30029297 C-129.0145758 43.72844071 -116.42754561 39.239328 -103.84619141 34.73583984 C-100.76948132 33.63438632 -97.69358812 32.53071323 -94.61865234 31.42431641 C-73.12725266 23.69504098 -51.48132836 16.51106803 -29.74136353 9.51290894 C-22.30931024 7.11448008 -14.90179322 4.64431926 -7.50187683 2.14860535 C-6.66441422 1.86729263 -5.8269516 1.58597992 -4.96411133 1.29614258 C-3.84979485 0.92009636 -3.84979485 0.92009636 -2.71296692 0.53645325 C-1 0 -1 0 0 0 Z M-183 214 C-185.9549908 219.90998159 -185.14450115 228.02647829 -185.12863445 234.4984026 C-185.13038749 235.41593385 -185.13214053 236.33346511 -185.13394669 237.27880034 C-185.13858964 240.3458604 -185.1361456 243.4128727 -185.13371277 246.47993469 C-185.13558157 248.70399441 -185.13788256 250.9280538 -185.14057809 253.15211266 C-185.14669342 259.25810651 -185.14656282 265.36408667 -185.14538372 271.47008288 C-185.14520062 277.38033281 -185.149692 283.29057803 -185.1539966 289.20082613 C-185.16365904 302.77760332 -185.16648038 316.35437674 -185.16705366 329.93115697 C-185.16751331 340.41145889 -185.16957218 350.89175933 -185.17275429 361.37206078 C-185.17365182 364.38932218 -185.17454164 367.40658359 -185.17542917 370.42384499 C-185.17565021 371.17393495 -185.17587126 371.92402491 -185.17609901 372.69684486 C-185.18225118 393.78836382 -185.18619975 414.87988227 -185.18575573 435.97140217 C-185.18574015 436.76628597 -185.18572457 437.56116977 -185.18570852 438.38014097 C-185.18562541 442.40893519 -185.18552637 446.43772941 -185.18542381 450.46652362 C-185.18540387 451.26665932 -185.18538392 452.06679501 -185.18536337 452.89117724 C-185.18532294 454.50924265 -185.18528114 456.12730807 -185.18523798 457.74537349 C-185.1846247 482.94166426 -185.19214239 508.13794159 -185.20581055 533.33422852 C-185.22115888 561.6394702 -185.22977761 589.94470305 -185.22884732 618.24994916 C-185.22877269 621.26563879 -185.22872399 624.28132842 -185.22869301 627.29701805 C-185.22868135 628.03956481 -185.2286697 628.78211158 -185.22865769 629.54715976 C-185.22862688 641.51190275 -185.23502047 653.47663409 -185.24362527 665.44137362 C-185.2520866 677.45457465 -185.25310358 689.46775858 -185.24651595 701.48096094 C-185.24323788 707.99276631 -185.24324028 714.50452931 -185.2518692 721.01633072 C-185.25967811 726.9702511 -185.2583608 732.92409512 -185.24958507 738.87801351 C-185.24803767 741.03863617 -185.24991232 743.19926436 -185.25544515 745.35988048 C-185.26243982 748.28361553 -185.25726345 751.20707777 -185.24888897 754.13080311 C-185.25385715 754.98086027 -185.25882533 755.83091744 -185.26394406 756.70673391 C-185.23891245 762.15384538 -185.23891245 762.15384538 -183 767 C-177.17006335 766.45102719 -172.46543285 764.7891874 -167.125 762.4375 C-166.22918213 762.04892822 -165.33336426 761.66035645 -164.41040039 761.26000977 C-155.26173724 757.22807248 -146.30486451 752.80725004 -137.33132935 748.40402222 C-126.34612318 743.01984491 -115.26253876 737.92068718 -104.0625 733 C-88.55709519 726.18542773 -73.20554303 719.08124448 -57.91166687 711.80513 C-54.43884303 710.15326393 -50.96156311 708.51167361 -47.47753906 706.88354492 C-46.72051193 706.52929443 -45.9634848 706.17504395 -45.18351746 705.81005859 C-43.73774186 705.13405994 -42.29126927 704.459549 -40.84394836 703.78686523 C-27.71662558 697.90903208 -27.71662558 697.90903208 -19 687 C-18.89895018 684.72420215 -18.86530324 682.44534417 -18.8601923 680.16730976 C-18.85724088 679.45291718 -18.85428945 678.7385246 -18.85124859 678.00248376 C-18.8425165 675.58427115 -18.84097324 673.16610614 -18.83937073 670.74787903 C-18.83464256 669.00635005 -18.82949203 667.26482217 -18.82395309 665.52329558 C-18.81001158 660.71846537 -18.80245342 655.91364275 -18.7959801 651.10879743 C-18.78961934 646.99232861 -18.77954782 642.87587233 -18.76941944 638.75941131 C-18.73605855 625.1946906 -18.71456749 611.62996226 -18.69621959 598.06521395 C-18.69142666 594.53456899 -18.6864431 591.00392434 -18.68141437 587.47327971 C-18.65044591 565.5626487 -18.62375192 543.65201507 -18.60699558 521.74136829 C-18.60304588 516.66376046 -18.59904292 511.58615266 -18.5949707 506.50854492 C-18.59345816 504.61545061 -18.59345816 504.61545061 -18.59191506 502.68411198 C-18.57490229 482.23205167 -18.53378785 461.78011224 -18.48294771 441.32811097 C-18.43121465 420.34481393 -18.40205901 399.36157912 -18.3947987 378.37821883 C-18.39013105 366.59101064 -18.37532329 354.8040004 -18.3350544 343.01685524 C-18.30080642 332.97973117 -18.28679386 322.94284073 -18.29947854 312.90566156 C-18.30531764 307.78269189 -18.30135351 302.66021667 -18.2713089 297.53732109 C-18.24403341 292.84840322 -18.24437914 288.16033312 -18.26681935 283.47139712 C-18.27005339 281.7741575 -18.26310936 280.07686199 -18.24502213 278.37971566 C-17.79984121 268.3307931 -17.79984121 268.3307931 -21.91612148 259.54246044 C-34.18317777 249.42905773 -51.90427972 246.74190882 -67.02572632 242.9884491 C-76.36919359 240.66760523 -85.68687777 238.25192716 -95 235.8125 C-95.89376343 235.57866608 -96.78752686 235.34483215 -97.70837402 235.10391235 C-110.58379369 231.73148747 -123.42975897 228.26381207 -136.25 224.6875 C-136.99366821 224.4803537 -137.73733643 224.2732074 -138.50354004 224.05978394 C-145.6232591 222.07589675 -152.73830114 220.07746189 -159.84375 218.04296875 C-161.81249773 217.48697112 -163.78124753 216.93098085 -165.75 216.375 C-167.0169873 216.00314575 -167.0169873 216.00314575 -168.30957031 215.6237793 C-173.37179293 214.20336441 -177.74009887 213.77183077 -183 214 Z " transform="translate(757,146)" style="fill: #DAEAF2;"/><path d="M0 0 C1.419088 0.27510069 2.83827889 0.5496711 4.25756836 0.82373047 C12.6249493 2.45010119 20.97828237 4.14883546 29.3125 5.9375 C30.1590918 6.11885498 31.00568359 6.30020996 31.87792969 6.48706055 C36.96620505 7.61011703 41.98539691 8.91053289 47.01171875 10.28515625 C54.28074873 12.25925079 61.5962085 13.75262094 69 15.125 C71.02295046 15.50811675 73.04541862 15.89371701 75.06788635 16.27937317 C76.4737319 16.54735319 77.87968803 16.81475371 79.28575134 17.08158875 C103.24399351 21.62888155 127.03234658 26.63339177 150.75 32.3125 C171.62428542 37.30365309 192.5469251 41.68813402 213.78466797 44.84423828 C218.13454219 45.53113592 222.44281316 46.39855968 226.75 47.3125 C226.75 47.9725 226.75 48.6325 226.75 49.3125 C226.06679688 49.51133789 225.38359375 49.71017578 224.6796875 49.91503906 C213.56483414 53.23741371 202.6738337 57.1668538 191.75 61.0625 C189.62280551 61.81892159 187.49552533 62.57510226 185.36816406 63.33105469 C180.9864664 64.88853716 176.60532633 66.44757381 172.22460938 68.0078125 C166.10457159 70.18711407 159.98227499 72.36000544 153.859375 74.53125 C136.28498322 80.76559281 118.72175088 87.02856206 101.1875 93.375 C78.12987598 101.71914388 78.12987598 101.71914388 67.09667969 105.50341797 C65.40019558 106.08832728 63.7057844 106.6792607 62.01269531 107.27392578 C59.15780646 108.27637997 56.29825316 109.26442279 53.4375 110.25 C52.57068604 110.55728027 51.70387207 110.86456055 50.81079102 111.18115234 C40.99679671 114.52089748 33.01909516 112.75574873 23.0625 110.625 C21.78205811 110.35534424 20.50161621 110.08568848 19.18237305 109.80786133 C-9.4708205 103.70208975 -9.4708205 103.70208975 -14.25 101.3125 C-14.58 72.2725 -14.91 43.2325 -15.25 13.3125 C-21.28918522 12.51079172 -21.28918522 12.51079172 -26.25 14.3125 C-26.37507482 16.92850453 -26.43605405 19.51941934 -26.45532227 22.13696289 C-26.46522186 22.95640884 -26.47512146 23.7758548 -26.48532104 24.62013245 C-26.51703055 27.34177717 -26.54173062 30.06343939 -26.56640625 32.78515625 C-26.58696763 34.66703253 -26.60796388 36.54890411 -26.62937927 38.43077087 C-26.68468426 43.39393311 -26.73405623 48.3571376 -26.78222656 53.32037354 C-26.83238022 58.38093851 -26.88809824 63.4414418 -26.94335938 68.50195312 C-27.05104395 78.43874945 -27.15246589 88.37559923 -27.25 98.3125 C-38.73277785 96.15344034 -50.20585554 93.97777225 -61.625 91.5 C-62.79595215 91.24774658 -63.9669043 90.99549316 -65.17333984 90.7355957 C-75.02859566 88.60174809 -84.86115772 86.37115296 -94.69238281 84.12963867 C-104.99041481 81.78982494 -115.31459183 79.58241094 -125.64523315 77.3916626 C-142.13181727 73.89377673 -158.53648257 70.19221956 -174.89648438 66.13867188 C-180.77844578 64.68959227 -186.67091951 63.28435847 -192.5625 61.875 C-194.64194978 61.37639673 -196.7213793 60.87770894 -198.80078125 60.37890625 C-200.28384711 60.02340806 -201.76691703 59.6679268 -203.25 59.3125 C-201.03931191 56.83349275 -199.1446023 55.66319856 -196.04296875 54.5078125 C-195.16680908 54.17869873 -194.29064941 53.84958496 -193.38793945 53.51049805 C-192.41429443 53.15640869 -191.44064941 52.80231934 -190.4375 52.4375 C-188.87358521 51.86092651 -188.87358521 51.86092651 -187.27807617 51.27270508 C-164.25552295 42.86686126 -140.98805869 35.13988306 -117.65649414 27.64196777 C-106.11813112 23.93211051 -94.63279718 20.08558427 -83.17086792 16.14602661 C-76.36333212 13.80750175 -69.55070643 11.48381768 -62.73773193 9.16119385 C-61.08157647 8.59619368 -59.42569153 8.0303999 -57.77008057 7.46380615 C-53.04249966 5.8464851 -48.3099688 4.24572726 -43.56820679 2.67044067 C-42.13119245 2.1902095 -40.69605861 1.70430551 -39.26309204 1.21212769 C-25.11276278 -3.64048265 -14.56734413 -2.89648659 0 0 Z " transform="translate(502.25,81.6875)" style="fill: #E6F4FB;"/><path d="M0 0 C6.00983992 0.32780945 6.00983992 0.32780945 8.69960022 2.15380859 C10.61941612 4.87939165 10.37164869 7.04130752 10.36889648 10.3515625 C10.37922157 12.31875244 10.37922157 12.31875244 10.38975525 14.32568359 C10.38657728 15.02618835 10.38339931 15.72669312 10.38012505 16.44842529 C10.37102109 18.64251203 10.38122876 20.83574305 10.39674377 23.02978516 C10.43686864 29.26658796 10.43804307 35.50332399 10.43579102 41.74023438 C10.43573997 45.55640969 10.45487771 49.37212269 10.48512459 53.18817139 C10.49597096 55.35052048 10.48380863 57.51199513 10.47129822 59.67431641 C10.48133377 60.98577637 10.49136932 62.29723633 10.50170898 63.6484375 C10.50154282 64.80520996 10.50137665 65.96198242 10.50120544 67.15380859 C10.73444111 70.08117579 10.73444111 70.08117579 12.81549072 71.82525635 C15.93805213 73.50444775 19.19943602 74.36653907 22.61328125 75.234375 C23.36699005 75.43313232 24.12069885 75.63188965 24.89724731 75.83666992 C27.3665596 76.48425508 29.83925297 77.11762305 32.3125 77.75 C34.03333931 78.19672903 35.75412328 78.64367131 37.47485352 79.09082031 C49.34366072 82.15499969 61.25896946 84.94168169 73.22705078 87.58789062 C81.2438796 89.36352233 89.23066077 91.22127577 97.1875 93.25 C98.13230225 93.48428711 99.07710449 93.71857422 100.05053711 93.95996094 C100.91428955 94.18458008 101.77804199 94.40919922 102.66796875 94.640625 C103.78594849 94.92728027 103.78594849 94.92728027 104.92651367 95.21972656 C107.35114317 96.13213865 109.05421678 97.29740591 111 99 C111.66259654 101.83568858 111.28167693 104.04239226 111 107 C109 109 109 109 105.80712891 109.21948242 C102.0363527 109.00209575 98.74614657 108.40421108 95.0859375 107.48828125 C94.41791611 107.32369919 93.74989471 107.15911713 93.06163025 106.98954773 C90.83079814 106.4381002 88.60299349 105.87529698 86.375 105.3125 C84.78820581 104.9178098 83.20120409 104.52395318 81.61401367 104.13085938 C79.01517669 103.48670766 76.41662505 102.84149778 73.8188324 102.19314575 C66.16561999 100.28308672 58.50378103 98.40948027 50.83984375 96.54296875 C47.20196904 95.65586243 43.56414576 94.76854542 39.92633057 93.88119507 C37.51559262 93.29336164 35.10474441 92.70598019 32.69378662 92.11904907 C29.29136705 91.29006985 25.88973394 90.45793628 22.48828125 89.625 C21.45662338 89.37433273 20.42496552 89.12366547 19.36204529 88.86540222 C17.94787071 88.51823906 17.94787071 88.51823906 16.50512695 88.1640625 C15.67962845 87.96248535 14.85412994 87.7609082 14.00361633 87.55322266 C12 87 12 87 10 86 C10.66 107.45 11.32 128.9 12 151 C19.68759393 153.56635669 19.68759393 153.56635669 27.43359375 155.5 C29.1496582 155.87125 29.1496582 155.87125 30.90039062 156.25 C32.65125977 156.62125 32.65125977 156.62125 34.4375 157 C47.42440162 159.76286439 47.42440162 159.76286439 53.66015625 161.4375 C54.43109619 161.64246094 55.20203613 161.84742188 55.99633789 162.05859375 C58.55638117 163.2614117 59.56358708 164.58621947 61 167 C61.3125 170.125 61.3125 170.125 61 173 C58.61042039 175.38957961 58.07871787 175.29608684 54.8125 175.3125 C39.72703757 174.94873708 24.28174638 169.57043659 10 166 C10 183.82 10 201.64 10 220 C42.74471525 209.44586897 42.74471525 209.44586897 75.24365234 198.17285156 C82.4974883 195.56785441 89.77518002 193.06245232 97.09375 190.64453125 C107.20996374 187.29841052 117.24543781 183.74666966 127.27331543 180.14575195 C130.20883346 179.09499206 133.14733089 178.05300185 136.08691406 177.01367188 C147.68401787 172.92710621 147.68401787 172.92710621 159.21360779 168.65541077 C177.29831306 161.77529248 200.58158261 156.76432205 219.29956055 165.01342773 C221.25 166.125 221.25 166.125 224 168 C223.67 172.29 223.34 176.58 223 181 C218 180 218 180 215.125 179 C208.52747688 176.8887926 201.80402832 176.76295636 194.9375 176.6875 C194.08478516 176.65849609 193.23207031 176.62949219 192.35351562 176.59960938 C179.33226123 176.47431233 166.92230507 181.96533083 154.85150146 186.36941528 C151.47523647 187.60101659 148.09502943 188.82163799 144.71508789 190.04310608 C142.91624014 190.69326696 141.1175771 191.34393911 139.3190918 191.99510193 C129.01823389 195.72312351 118.69745613 199.39479508 108.375 203.0625 C107.43214142 203.39779724 106.48928284 203.73309448 105.51785278 204.07855225 C93.25459522 208.43931706 80.97954832 212.76502185 68.6942749 217.06332397 C56.84836497 221.20903395 45.02410318 225.40402417 33.25 229.75 C32.11224121 230.16878418 30.97448242 230.58756836 29.80224609 231.01904297 C28.77953613 231.39947754 27.75682617 231.77991211 26.703125 232.171875 C25.81270508 232.5028418 24.92228516 232.83380859 24.00488281 233.17480469 C22.03754691 233.83420273 22.03754691 233.83420273 21 235 C21.71841064 235.20568604 22.43682129 235.41137207 23.17700195 235.62329102 C56.96985949 245.34422866 86.42122995 257.09172234 115 278 C130.29364904 289.10303606 146.77505882 296.05048966 165 301 C165.63196289 301.18763916 166.26392578 301.37527832 166.91503906 301.56860352 C174.33908624 303.54328837 181.88160844 303.26049018 189.5 303.1875 C190.93367346 303.18132187 192.36734871 303.17554563 193.80102539 303.17016602 C202.66024596 303.11925857 211.47678453 302.84296716 220.30859375 302.12109375 C221.19675781 302.08113281 222.08492187 302.04117187 223 302 C224 303 224 303 224.09765625 305.50390625 C224.06510417 308.3359375 224.03255208 311.16796875 224 314 C212.43305732 316.38685831 201.36827498 317.53965913 189.5625 317.4375 C188.41720825 317.43243942 188.41720825 317.43243942 187.2487793 317.42727661 C175.73898221 317.35376952 164.96859707 316.6872816 154 313 C153.26571777 312.76925781 152.53143555 312.53851563 151.77490234 312.30078125 C132.39921397 306.15002735 115.52112713 296.53394994 99.3984375 284.28515625 C93.22837141 279.62099106 86.81050546 275.65449427 80 272 C78.82751709 271.36481445 78.82751709 271.36481445 77.63134766 270.71679688 C56.22599537 259.31919501 33.32505983 253.22001595 10 247 C10.33 265.15 10.66 283.3 11 302 C15.434375 303.216875 19.86875 304.43375 24.4375 305.6875 C29.6265355 307.1194985 34.8136135 308.55844551 40 310 C40.97727051 310.27102539 41.95454102 310.54205078 42.96142578 310.82128906 C45.31020544 311.47632721 47.65573448 312.14151696 50 312.8125 C51.8871875 313.34810547 51.8871875 313.34810547 53.8125 313.89453125 C56.92128356 314.97270006 59.39562395 315.98465106 62 318 C62.8123285 320.86871255 62.33710103 322.9660907 62 326 C60 328 60 328 57.11328125 328.32421875 C51.61730215 328.15827564 46.42254069 326.36089232 41.1875 324.8125 C39.11861457 324.21441123 37.04960067 323.61676672 34.98046875 323.01953125 C32.67691406 322.35308594 30.37335938 321.68664062 28 321 C22.06 319.35 16.12 317.7 10 316 C10.33 338.77 10.66 361.54 11 385 C29.63710697 390.13174379 29.63710697 390.13174379 48.27490234 395.26098633 C50.62860549 395.90957811 52.98228541 396.55825419 55.3359375 397.20703125 C57.13768433 397.70221252 57.13768433 397.70221252 58.97583008 398.20739746 C61.27391905 398.84129605 63.57087045 399.47934045 65.86639404 400.12246704 C67.89677126 400.69105255 69.92990192 401.24993135 71.96612549 401.79721069 C73.30281281 402.16962387 73.30281281 402.16962387 74.66650391 402.54956055 C75.82153915 402.86367134 75.82153915 402.86367134 76.99990845 403.18412781 C79.30585231 404.12476249 80.4861912 405.02622522 82 407 C82.38991688 411.36706908 82.46324069 413.30513897 80 417 C72.14447547 417.83537191 65.29040554 415.72443411 57.79296875 413.53515625 C56.55001541 413.1823912 55.30706207 412.82962616 54.02644348 412.46617126 C50.74531239 411.53488955 47.46835222 410.58971091 44.19213867 409.64129639 C40.85504526 408.6777823 37.51434256 407.72696263 34.17382812 406.77539062 C28.30760591 405.10345595 22.44475548 403.4200526 16.58439636 401.72767639 C14.40022924 401.11269067 12.20134578 400.55033645 10 400 C10 423.1 10 446.2 10 470 C12.97 470.66 15.94 471.32 19 472 C20.51660288 472.38150277 22.0305791 472.77409978 23.53833008 473.18920898 C24.68915825 473.50480019 24.68915825 473.50480019 25.86323547 473.82676697 C27.05435188 474.15808372 27.05435188 474.15808372 28.26953125 474.49609375 C29.53466805 474.84741112 29.53466805 474.84741112 30.82536316 475.20582581 C32.59124525 475.69773381 34.35672954 476.19107199 36.12182617 476.68579102 C38.8206126 477.43976646 41.5225237 478.18177669 44.22460938 478.92382812 C45.94812259 479.40551379 47.67143723 479.88791066 49.39453125 480.37109375 C50.19873001 480.58994736 51.00292877 480.80880096 51.83149719 481.0342865 C59.061376 483.08884428 59.061376 483.08884428 62 486 C62.42578125 488.2265625 62.42578125 488.2265625 62.3125 490.625 C62.27576172 491.81996094 62.27576172 491.81996094 62.23828125 493.0390625 C62 495 62 495 61 496 C51.93304503 496.86351952 44.16932298 494.35023331 35.59130859 491.77050781 C32.81358667 490.94457128 30.02775924 490.1524705 27.23828125 489.3671875 C19.01745161 487.05046495 19.01745161 487.05046495 16.15625 486.234375 C15.02413086 485.91291504 15.02413086 485.91291504 13.86914062 485.58496094 C12 485 12 485 10 484 C10.33 506.44 10.66 528.88 11 552 C30.58209109 558.5273637 50.14850214 564.91248768 69.89990234 570.87548828 C72.56051391 571.68067947 75.21796852 572.4955874 77.875 573.3125 C78.64803467 573.54291992 79.42106934 573.77333984 80.2175293 574.01074219 C83.95148205 575.16591394 87.19493664 576.2021476 90 579 C90.48852721 582.28011126 90.25013884 584.34963903 89.0625 587.4375 C86.23829303 589.57705074 84.19637848 588.9829739 80.81015015 588.53488159 C75.00473693 587.42988417 69.401618 585.58063471 63.76953125 583.81640625 C62.40692428 583.39595622 61.04410169 582.97620444 59.68107605 582.55711365 C56.11543489 581.4586592 52.55289342 580.3504695 48.99090576 579.24023438 C45.37151882 578.11418936 41.74905636 576.99812891 38.12695312 575.88085938 C32.82637084 574.24385814 27.52688764 572.60339484 22.22973633 570.95532227 C20.63830559 570.46020897 20.63830559 570.46020897 19.01472473 569.95509338 C15.99935532 568.99979576 12.99809702 568.00806896 10 567 C10.08437727 578.51791785 10.17925066 590.03569682 10.28752708 601.55341625 C10.33747424 606.90155124 10.38380456 612.24966663 10.421875 617.59790039 C10.45874758 622.75917378 10.50511315 627.92028256 10.55806351 633.08141518 C10.57659692 635.05055161 10.59170877 637.01972331 10.60334396 638.98891258 C10.62022428 641.74693027 10.64926389 644.50457184 10.68115234 647.26245117 C10.68331253 648.07669052 10.68547272 648.89092987 10.68769836 649.72984314 C10.74875116 653.86292718 10.80208495 657.4253292 13 661 C15.15066754 662.32157262 15.15066754 662.32157262 17.79980469 663.04760742 C18.7921814 663.36966156 19.78455811 663.6917157 20.80700684 664.02352905 C21.86069458 664.34576447 22.91438232 664.66799988 24 665 C25.02242798 665.33375641 26.04485596 665.66751282 27.0982666 666.01138306 C30.45996392 667.10874585 33.83024778 668.17579956 37.203125 669.23828125 C39.12655292 669.84744678 41.0499806 670.45661306 42.97339821 671.06581116 C45.00333302 671.70826929 47.03362365 672.34959078 49.06402588 672.99057007 C53.3154459 674.33277653 57.56578766 675.67837421 61.81591797 677.0246582 C63.2543629 677.4802739 64.69280895 677.93588608 66.1312561 678.39149475 C67.19892653 678.72967067 67.19892653 678.72967067 68.28816605 679.07467842 C70.44621892 679.75809955 72.60436606 680.4412222 74.76254272 681.12425232 C92.53110187 686.74809821 110.2857131 692.41550133 128.03710938 698.09326172 C132.23076568 699.43454161 136.42483377 700.77452538 140.61914062 702.11376953 C185.74023918 716.52281203 185.74023918 716.52281203 204.49151611 722.73132324 C205.89595874 723.19618953 207.30085544 723.65968656 208.70623779 724.1217041 C210.58958527 724.74174426 212.47065064 725.36870386 214.3515625 725.99609375 C215.38104004 726.33825928 216.41051758 726.6804248 217.47119141 727.03295898 C220 728 220 728 223 730 C223.328125 732.3125 223.328125 732.3125 223.25 735 C223.23453125 735.886875 223.2190625 736.77375 223.203125 737.6875 C223 740 223 740 222 742 C217.15056181 742.18018607 213.4061639 741.74564104 208.83203125 740.1484375 C208.22925858 739.94237381 207.6264859 739.73631012 207.00544739 739.52400208 C205.66165301 739.06394054 204.31942772 738.59927738 202.97857666 738.13070679 C199.02960531 736.75297879 195.06679674 735.41591499 191.10546875 734.07421875 C189.74415833 733.61197655 189.74415833 733.61197655 188.35534668 733.14039612 C174.90314851 728.58963026 161.37561303 724.26614096 147.86001968 719.90826797 C141.88290158 717.98071658 135.90661255 716.05059469 129.93031883 714.12048912 C128.45742689 713.64481003 126.98451763 713.16918457 125.51159096 712.69361305 C116.42914894 709.76083966 107.35092966 706.81581672 98.28125 703.84375 C96.85230911 703.37565414 96.85230911 703.37565414 95.39450073 702.89810181 C91.74614954 701.70264357 88.09788082 700.50693916 84.45025635 699.30926514 C73.12795194 695.59464054 61.77823593 691.9801074 50.3984375 688.4453125 C49.15764435 688.05892105 47.9168512 687.6725296 46.63845825 687.27442932 C40.55713071 685.38106801 34.47313956 683.49739874 28.38330078 681.6315918 C26.18249509 680.94879837 23.98180555 680.26563042 21.78125 679.58203125 C20.77726166 679.27850739 19.77327332 678.97498352 18.73886108 678.66226196 C10.58940934 676.1124777 5.07192266 673.18522376 0 666 C-2.26349549 659.95450126 -2.28066305 654.29023824 -2.25168228 647.88363934 C-2.25458916 646.76690011 -2.25749604 645.65016088 -2.26049101 644.49958107 C-2.2678127 640.74280491 -2.26083743 636.98619097 -2.25396729 633.22941589 C-2.25516219 630.51480289 -2.25936449 627.8001964 -2.26342177 625.08558637 C-2.27064678 619.17599013 -2.27042502 613.26643043 -2.26532745 607.3568325 C-2.25776802 598.56937717 -2.26162703 589.78195271 -2.26774407 580.99449759 C-2.27828084 565.30229091 -2.27736082 549.6101005 -2.27158624 533.91789226 C-2.26655867 520.18864571 -2.26524009 506.45940513 -2.26763153 492.73015785 C-2.2677843 491.82009944 -2.26793707 490.91004104 -2.26809447 489.9724051 C-2.26871712 486.27840241 -2.26935392 482.58439973 -2.270014 478.89039704 C-2.27613354 444.23086094 -2.27058216 409.57133521 -2.2598202 374.91180071 C-2.25032482 344.09687525 -2.25118142 313.28196633 -2.26074219 282.46704102 C-2.27144231 247.86407016 -2.27570358 213.26110847 -2.26951766 178.65813619 C-2.2688762 174.97234524 -2.26825052 171.28655428 -2.26763153 167.60076332 C-2.2673943 166.23940905 -2.2673943 166.23940905 -2.26715227 164.85055266 C-2.26487394 151.12410746 -2.26754409 137.39766888 -2.27259064 123.67122459 C-2.27829664 108.07309517 -2.2769061 92.4749846 -2.26602915 76.87685754 C-2.2601376 68.13894802 -2.25980048 59.40107928 -2.2673215 50.66317078 C-2.27178533 44.83641787 -2.26905335 39.00969785 -2.26031196 33.18294984 C-2.25552619 29.856698 -2.25506876 26.53059495 -2.26112393 23.20433488 C-2.2671326 19.63186136 -2.26104234 16.05961617 -2.25168228 12.48715496 C-2.25636461 11.44035497 -2.26104695 10.39355497 -2.26587117 9.31503376 C-2.26086413 8.37057765 -2.25585709 7.42612154 -2.25069833 6.45304555 C-2.25056281 5.63508953 -2.25042729 4.8171335 -2.25028767 3.97439094 C-2 2 -2 2 0 0 Z " transform="translate(288,184)" style="fill: #222D3F;"/><path d="M0 0 C0.33 0 0.66 0 1 0 C1 42.24 1 84.48 1 128 C-1.97 128 -4.94 128 -8 128 C-10.11929359 128.24624173 -12.23852015 128.49322993 -14.35644531 128.75097656 C-32.42835192 130.45335417 -50.84672333 130.24053322 -68 124 C-69.40198193 123.52497247 -70.80432615 123.05101281 -72.20703125 122.578125 C-90.10499082 116.36578462 -104.72804268 106.64238857 -119.95507812 95.57958984 C-145.09870986 77.3980669 -174.71365973 68.94201264 -204 60 C-200.40160402 57.60106934 -196.6331547 56.28760136 -192.59375 54.83203125 C-191.73821533 54.52046585 -190.88268066 54.20890045 -190.0012207 53.88789368 C-187.16906963 52.85832178 -184.33465585 51.8351537 -181.5 50.8125 C-179.51756612 50.0942714 -177.53514442 49.37600921 -175.55273438 48.65771484 C-157.46910589 42.11910023 -139.3124781 35.79453036 -121.14674377 29.4886322 C-114.06424565 27.02766983 -106.99637415 24.52803723 -99.9375 22 C-98.89198975 21.62576904 -97.84647949 21.25153809 -96.76928711 20.8659668 C-91.45182555 18.96011061 -86.13621414 17.04914583 -80.82128906 15.13623047 C-76.03010973 13.41203425 -71.23765095 11.69142758 -66.4446106 9.97241211 C-64.53647267 9.2872354 -62.62881111 8.60073048 -60.72164917 7.9128418 C-58.04603505 6.94782086 -55.36889508 5.98714877 -52.69140625 5.02734375 C-51.48552353 4.59058571 -51.48552353 4.59058571 -50.25527954 4.14500427 C-42.92767877 1.52744269 -36.5712825 0.81796778 -28.8125 0.8125 C-27.91724609 0.80025391 -27.02199219 0.78800781 -26.09960938 0.77539062 C-16.79001699 0.75522544 -8.60058136 2.49605945 0 6 C0 4.02 0 2.04 0 0 Z " transform="translate(511,359)" style="fill: #7CD0F0;"/><path d="M0 0 C6.97473347 -0.38930194 12.82431539 1.03186643 19.51171875 2.9296875 C20.62105774 3.23560318 21.73039673 3.54151886 22.87335205 3.85670471 C26.48069529 4.8535846 30.08398122 5.86439239 33.6875 6.875 C36.18727115 7.56760831 38.6873551 8.25908859 41.18774414 8.94946289 C46.16611562 10.32500577 51.1432056 11.70502517 56.11914062 13.08935547 C65.04960543 15.57203697 73.99046454 18.01530636 82.9375 20.4375 C83.66883148 20.63620697 84.40016296 20.83491394 85.15365601 21.03964233 C95.05332672 23.72733886 104.98396071 26.25130589 114.94876099 28.68539429 C124.71230171 31.0753301 134.42894298 33.54009248 144 36.625 C144.81210937 36.87789795 145.62421875 37.1307959 146.4609375 37.39135742 C153.41344834 39.73827474 160.11941726 43.5759624 164 50 C164.37604749 53.20217836 164.37604749 53.20217836 164.37752342 57.08157921 C164.38188374 57.79857908 164.38624407 58.51557894 164.39073652 59.25430608 C164.40173064 61.66951378 164.3912517 64.0841551 164.38095093 66.49935913 C164.38440587 68.24332873 164.38916932 69.98729616 164.39513266 71.73125899 C164.4076951 76.53356271 164.40144848 81.33568836 164.39217401 86.13799286 C164.38540516 91.3132856 164.39585403 96.48854704 164.40411377 101.66383362 C164.41747704 111.80673493 164.41456166 121.94956977 164.40587585 132.09247373 C164.39910915 140.33461029 164.39817818 148.57672819 164.4014473 156.81886673 C164.401907 157.99057024 164.40236669 159.16227374 164.40284032 160.36948342 C164.40379947 162.7495739 164.40477211 165.12966438 164.4057581 167.50975485 C164.41431978 189.84620627 164.40446604 212.1826208 164.388357 234.51906617 C164.37495662 253.69339333 164.3772781 272.86766601 164.39111328 292.04199219 C164.40716138 314.2937407 164.41349204 336.54545684 164.40427649 358.79721034 C164.40332082 361.16930747 164.40237771 363.5414046 164.4014473 365.91350174 C164.40098447 367.08069616 164.40052164 368.24789058 164.40004479 369.45045453 C164.39745233 377.68364602 164.40183149 385.91681702 164.40888596 394.15000534 C164.41729276 404.18231847 164.41503822 414.21456117 164.39904372 424.24686621 C164.39114944 429.36755055 164.38808908 434.48811737 164.39799118 439.60880089 C164.40691481 444.29430848 164.40204372 448.97958937 164.38605852 453.66507633 C164.38270078 455.36222363 164.38442702 457.05938999 164.39168589 458.75652508 C164.40078496 461.06020334 164.39147606 463.36310122 164.37752342 465.66673851 C164.37679284 467.58752899 164.37679284 467.58752899 164.37604749 469.54712331 C163.87611491 474.13751577 162.54515281 477.60599702 159.08325195 480.72924805 C153.60549686 484.14408937 148.04398085 487.10083988 142.1875 489.8125 C141.21449951 490.26987549 140.24149902 490.72725098 139.23901367 491.19848633 C137.04691236 492.22890672 134.85355972 493.25666788 132.65917969 494.28222656 C128.68238226 496.14449601 124.72030345 498.03721847 120.7578125 499.9296875 C104.79471997 507.54112781 88.76178445 514.94087976 72.5675354 522.04769897 C61.41511054 526.94789868 50.43026344 532.12382398 39.5 537.5 C30.51110753 541.91231469 21.52427023 546.27196431 12.25 550.0625 C11.46431641 550.39121094 10.67863281 550.71992187 9.86914062 551.05859375 C5.45050703 552.7957662 3.86183096 552.97236619 -1 552 C-1 548.37 -1 544.74 -1 541 C10.67111865 535.1008571 22.43121545 529.40924699 34.25 523.8125 C35.11862671 523.40058411 35.98725342 522.98866821 36.88220215 522.56427002 C56.60463959 513.21206401 76.36392202 503.94641951 96.2824707 495.01782227 C102.71363472 492.13438323 109.12257501 489.21034456 115.48974609 486.1875 C118.09349809 484.95576982 120.70216342 483.73471001 123.31080627 482.51338196 C125.95903691 481.27002337 128.60250001 480.0167405 131.24514771 478.76156616 C132.57439552 478.13232074 133.90533961 477.50664534 135.23800659 476.88467407 C137.12706977 476.00199922 139.00930887 475.10607651 140.890625 474.20703125 C141.99438477 473.6860083 143.09814453 473.16498535 144.23535156 472.62817383 C148.13804403 470.32977608 149.58272391 468.25182826 151 464 C151.09800295 461.79112013 151.13383608 459.57933851 151.1386652 457.3682909 C151.14292853 456.34754183 151.14292853 456.34754183 151.14727798 455.30617157 C151.15564797 453.00934422 151.15689499 450.71256716 151.15821838 448.41572571 C151.16278217 446.75909037 151.16778192 445.10245619 151.17318195 443.44582337 C151.18679338 438.88057285 151.1941901 434.31532979 151.20060861 429.75006425 C151.20859938 424.8318617 151.22230169 419.91367475 151.23532104 414.9954834 C151.25710261 406.47007548 151.27524094 397.944666 151.29092598 389.41924477 C151.31360932 377.09281709 151.34175427 364.76640669 151.37124526 352.43999364 C151.41894002 332.44266939 151.46219909 312.44533809 151.50268555 292.44799805 C151.54203089 273.018956 151.58345481 253.58992023 151.62768555 234.16088867 C151.63177196 232.36539309 151.63177196 232.36539309 151.63594092 230.53362487 C151.64962024 224.52882412 151.66334054 218.52402346 151.67708123 212.51922286 C151.7910756 162.67949498 151.8978784 112.83975352 152 63 C151.11316339 63.34332524 150.22632679 63.68665049 149.31261635 64.04037952 C145.97622234 65.33200449 142.63981329 66.62359063 139.30340004 67.9151659 C137.86801446 68.47083106 136.43263279 69.0265063 134.99725533 69.58219242 C102.38878157 82.20606939 69.75355926 94.75642862 37 107 C35.83624847 107.43590454 35.83624847 107.43590454 34.64898682 107.88061523 C29.98143812 109.62785177 25.30641024 111.35274288 20.625 113.0625 C19.5213208 113.47411377 18.4176416 113.88572754 17.28051758 114.30981445 C12.01651392 116.20643804 7.61211103 117.71853174 2 117 C-0.57990801 114.42009199 -0.31598838 112.49755539 -0.4609375 108.97265625 C0.19877542 106.14930857 1.60813954 105.57016255 4 104 C6.3034668 102.9987793 6.3034668 102.9987793 8.94921875 102.07421875 C9.99432617 101.70167969 11.03943359 101.32914062 12.11621094 100.9453125 C13.29473633 100.53023438 14.47326172 100.11515625 15.6875 99.6875 C30.97372572 94.21413079 46.111044 88.36615157 61.25 82.5 C66.18457704 80.59032127 71.11956836 78.68171481 76.0546875 76.7734375 C76.67119108 76.53502829 77.28769466 76.29661907 77.92288017 76.05098534 C90.62508678 71.13939151 103.33476515 66.2475066 116.05847168 61.3918457 C118.26042661 60.55074415 120.46168721 59.70782252 122.66223145 58.86303711 C125.697497 57.69817338 128.73509586 56.53962455 131.7734375 55.3828125 C133.11923386 54.86420151 133.11923386 54.86420151 134.49221802 54.33511353 C135.31124603 54.02488251 136.13027405 53.71465149 136.97412109 53.39501953 C137.68378021 53.12384308 138.39343933 52.85266663 139.12460327 52.57327271 C141 52 141 52 144 52 C144 51.34 144 50.68 144 50 C142.69369629 49.87923096 141.38739258 49.75846191 140.04150391 49.6340332 C135.33439859 49.1082328 130.89879514 48.09888499 126.3359375 46.85546875 C125.54079742 46.64440994 124.74565735 46.43335114 123.92642212 46.21589661 C121.40761732 45.54582392 118.89131108 44.86687006 116.375 44.1875 C114.71239855 43.74354486 113.04963901 43.30018134 111.38671875 42.85742188 C107.32021364 41.77331723 103.25563289 40.68218888 99.19158936 39.58889771 C96.12886519 38.76591906 93.06451501 37.94909465 90 37.1328125 C79.43754126 34.31733911 68.87611502 31.49801775 58.31591797 28.67407227 C55.87335564 28.02118204 53.43064936 27.36883012 50.98779297 26.71704102 C43.83595162 24.80862811 36.68832666 22.88541574 29.5435791 20.95062256 C25.93675004 19.98303217 22.32396825 19.04048269 18.70996094 18.10009766 C16.41847668 17.4904465 14.12712952 16.88027978 11.8359375 16.26953125 C10.7708194 15.99888351 9.70570129 15.72823578 8.60830688 15.4493866 C7.63461151 15.18612076 6.66091614 14.92285492 5.65771484 14.65161133 C4.80301605 14.42822586 3.94831726 14.20484039 3.06771851 13.97468567 C1 13 1 13 -0.27938843 11.12333679 C-1.32862594 8.03167868 -1.17973592 5.23524655 -1 2 C-0.67 1.34 -0.34 0.68 0 0 Z " transform="translate(574,360)" style="fill: #242F41;"/><path d="M0 0 C-0.48797562 0.73455414 -0.48797562 0.73455414 -0.98580933 1.48394775 C-2.42061717 5.043487 -2.26185335 8.47951407 -2.22705078 12.25683594 C-2.22734283 13.08647354 -2.22763489 13.91611115 -2.22793579 14.77088928 C-2.2265442 17.50882482 -2.21099104 20.24648709 -2.1953125 22.984375 C-2.19158176 24.88437756 -2.18873508 26.78438204 -2.18673706 28.68438721 C-2.17910539 33.68212202 -2.15946085 38.67974036 -2.1373291 43.6774292 C-2.11686067 48.77842636 -2.10773321 53.87944235 -2.09765625 58.98046875 C-2.07621457 68.98703031 -2.04208419 78.99350546 -2 89 C-13.48277785 86.84094034 -24.95585554 84.66527225 -36.375 82.1875 C-37.54595215 81.93524658 -38.7169043 81.68299316 -39.92333984 81.4230957 C-49.77859566 79.28924809 -59.61115772 77.05865296 -69.44238281 74.81713867 C-79.74188266 72.47699143 -90.06752755 70.26919193 -100.39962769 68.07806396 C-117.07762167 64.54058497 -133.68345062 60.82232252 -150.21923828 56.66455078 C-152.87437567 56.0300219 -155.53424166 55.50966951 -158.21484375 54.99609375 C-159.46394531 54.66738281 -160.71304687 54.33867187 -162 54 C-162.495 52.515 -162.495 52.515 -163 51 C-162.03626465 50.71914551 -161.0725293 50.43829102 -160.07958984 50.14892578 C-140.61836099 44.46693047 -121.28877571 38.55118127 -102.08621216 32.0415802 C-94.09068433 29.34075712 -86.05492376 26.76312079 -78.02438354 24.16876221 C-64.79897029 19.89440127 -51.60332438 15.57446505 -38.51464844 10.89501953 C-33.10154683 8.96837579 -27.67578316 7.07806395 -22.25 5.1875 C-21.15316895 4.80174805 -20.05633789 4.41599609 -18.92626953 4.01855469 C-3.03209308 -1.51604654 -3.03209308 -1.51604654 0 0 Z " transform="translate(477,91)" style="fill: #B7D6E9;"/><path d="M0 0 C0.66 0.99 1.32 1.98 2 3 C3.98152972 3.89828704 3.98152972 3.89828704 6.36328125 4.47265625 C7.75848999 4.85442017 7.75848999 4.85442017 9.18188477 5.24389648 C10.21498779 5.51403564 11.24809082 5.7841748 12.3125 6.0625 C13.95206665 6.50541382 13.95206665 6.50541382 15.62475586 6.95727539 C18.07086346 7.61707962 20.51829813 8.27197683 22.96679688 8.92285156 C27.23901207 10.05985018 31.50232298 11.22854096 35.765625 12.3984375 C51.56452916 16.72389496 67.38949768 20.89811537 83.29446411 24.81613159 C90.40986146 26.57029829 97.49505954 28.34379034 104.5 30.5 C117.82998537 34.57889142 131.46559183 37.67678072 145 41 C145 41.66 145 42.32 145 43 C144.27973633 43.25990723 143.55947266 43.51981445 142.81738281 43.78759766 C127.93692876 49.17003847 113.11313524 54.67618719 98.375 60.4375 C97.65489746 60.71896881 96.93479492 61.00043762 96.19287109 61.29043579 C95.45762207 61.57784637 94.72237305 61.86525696 93.96484375 62.16137695 C92.41668797 62.76649331 90.86851032 63.37155371 89.3203125 63.9765625 C88.52538391 64.28722153 87.73045532 64.59788055 86.91143799 64.91795349 C76.5052577 68.98015303 66.07963891 72.99199851 55.65362549 77.00296021 C53.42782274 77.85933447 51.20218903 78.71614823 48.97674561 79.57345581 C29.62871994 87.0265512 29.62871994 87.0265512 20.11914062 90.57177734 C19.00674011 90.98654831 17.8943396 91.40131927 16.74822998 91.82865906 C14.61188725 92.62348043 12.47459188 93.41574707 10.33624268 94.20515442 C9.3870697 94.55792953 8.43789673 94.91070465 7.45996094 95.27416992 C6.62043884 95.58432541 5.78091675 95.8944809 4.91595459 96.21403503 C3.02599076 96.8453979 3.02599076 96.8453979 2 98 C1.76924918 99.34747084 1.58846937 100.70377565 1.4375 102.0625 C1.2209375 104.0115625 1.2209375 104.0115625 1 106 C-1.05545608 102.91681589 -1.24980031 102.29611204 -1.24723816 98.81834412 C-1.25143265 97.96728088 -1.25562714 97.11621765 -1.25994873 96.23936462 C-1.25432922 95.30886795 -1.24870972 94.37837128 -1.24291992 93.41967773 C-1.24481827 92.43734161 -1.24671661 91.45500549 -1.24867249 90.44290161 C-1.25238292 87.1897183 -1.24167272 83.93675729 -1.23046875 80.68359375 C-1.22927706 78.42822801 -1.22882376 76.17286177 -1.2290802 73.91749573 C-1.2275149 69.18886207 -1.21922118 64.46030408 -1.20581055 59.73168945 C-1.18881096 53.6594791 -1.18499646 47.58735187 -1.18575573 41.51512051 C-1.18548429 36.85784608 -1.18000746 32.20058996 -1.17275429 27.54332161 C-1.16956426 25.30373333 -1.16759944 23.06414297 -1.16686058 20.82455254 C-1.16470111 17.69997471 -1.15596564 14.57548644 -1.14526367 11.45092773 C-1.14571686 10.51840683 -1.14617004 9.58588593 -1.14663696 8.62510681 C-1.14237198 7.7768634 -1.13810699 6.92862 -1.13371277 6.05467224 C-1.13203692 5.31560355 -1.13036108 4.57653486 -1.12863445 3.81507015 C-1 2 -1 2 0 0 Z " transform="translate(573,369)" style="fill: #82D6F4;"/><path d="M0 0 C0 1.32 0 2.64 0 4 C-3 6 -3 6 -9 8 C-9.33 35.06 -9.66 62.12 -10 90 C-10.33 90 -10.66 90 -11 90 C-11.04632182 79.24724529 -11.08186845 68.49451428 -11.10362434 57.74168015 C-11.11406559 52.74881213 -11.12823107 47.75601234 -11.15087891 42.76318359 C-11.17259505 37.94565408 -11.18456606 33.12819022 -11.18975449 28.31061554 C-11.19345244 26.47179379 -11.20067354 24.63297566 -11.21146011 22.79418182 C-11.22595867 20.22045601 -11.22797863 17.64700221 -11.22705078 15.07324219 C-11.23424133 14.31151199 -11.24143188 13.5497818 -11.24884033 12.76496887 C-11.23400315 8.96640661 -10.98588797 6.26429989 -9 3 C-9 2.34 -9 1.68 -9 1 C-5.8035914 -0.06546953 -3.34252724 -0.07427838 0 0 Z " transform="translate(485,88)" style="fill: #D5F8FE;"/><path d="M0 0 C0 1.32 0 2.64 0 4 C-3.28463659 6.18975773 -6.20696275 6.99806563 -10 8 C-9.67 5.69 -9.34 3.38 -9 1 C-5.8035914 -0.06546953 -3.34252724 -0.07427838 0 0 Z " transform="translate(485,88)" style="fill: #CBE6F2;"/><path d="M0 0 C5.94 0.99 5.94 0.99 12 2 C12 2.66 12 3.32 12 4 C8.04 4.99 4.08 5.98 0 7 C0 4.69 0 2.38 0 0 Z " transform="translate(717,127)" style="fill: #E6EDF1;"/><path d="M0 0 C1.65 0 3.3 0 5 0 C3.68 0.33 2.36 0.66 1 1 C1.33 3.97 1.66 6.94 2 10 C5.465 11.485 5.465 11.485 9 13 C9 13.33 9 13.66 9 14 C1.47493404 13.51451187 1.47493404 13.51451187 -0.5 11.375 C-1.31164429 7.51968962 -1.79804655 3.59609309 0 0 Z " transform="translate(574,360)" style="fill: #1C2334;"/><path d="M0 0 C0.99 0.495 0.99 0.495 2 1 C4.04055005 1.07065617 6.08334257 1.08421976 8.125 1.0625 C9.22070312 1.05347656 10.31640625 1.04445313 11.4453125 1.03515625 C12.28835938 1.02355469 13.13140625 1.01195312 14 1 C11.01163152 2.99224566 9.33029406 3.49035415 5.875 4.125 C4.98554687 4.29257812 4.09609375 4.46015625 3.1796875 4.6328125 C1 5 1 5 0 5 C0 3.35 0 1.7 0 0 Z " transform="translate(574,475)" style="fill: #6FCDED;"/><path d="M0 0 C-0.33 1.32 -0.66 2.64 -1 4 C-3.875 4.125 -3.875 4.125 -7 4 C-7.66 3.34 -8.32 2.68 -9 2 C-5.62902617 0.50178941 -3.79557881 0 0 0 Z " transform="translate(316,416)" style="fill: #83DBF0;"/><path d="M0 0 C1.98 0 3.96 0 6 0 C6 1.32 6 2.64 6 4 C5.01 4.495 5.01 4.495 4 5 C4 4.34 4 3.68 4 3 C3.01 2.67 2.02 2.34 1 2 C0.67 1.34 0.34 0.68 0 0 Z " transform="translate(479,88)" style="fill: #D7EBF7;"/></svg>