<?xml version="1.0" encoding="UTF-8"?>
<!-- Generator: visioncortex VTracer -->
<svg id="svg" version="1.1" xmlns="http://www.w3.org/2000/svg" style="display: block;" viewBox="0 0 2048 2048"><path d="M0 0 C675.84 0 1351.68 0 2048 0 C2048 675.84 2048 1351.68 2048 2048 C1372.16 2048 696.32 2048 0 2048 C0 1372.16 0 696.32 0 0 Z " transform="translate(0,0)" style="fill: #FEFEFE;"/><path d="M0 0 C2.96029847 0.00109834 5.92057693 -0.00388462 8.88087094 -0.00860542 C15.89849611 -0.01956787 22.91606772 -0.02021588 29.93369722 -0.01409125 C36.25928074 -0.00874214 42.58470242 -0.01578978 48.91025972 -0.03459907 C109.71000854 -0.21097887 109.71000854 -0.21097887 133.23789644 1.63361382 C134.00057203 1.691976 134.76324762 1.75033818 135.5490346 1.81046891 C151.78400944 3.10957815 166.58020527 5.68426274 178.10117769 17.97736382 C186.23649961 27.5625451 188.5921416 36.92862283 188.38633394 49.36408257 C188.37505465 50.49370416 188.36377535 51.62332574 188.35215425 52.78717828 C187.64159797 97.54910766 187.64159797 97.54910766 176.07383394 111.30158257 C175.57238863 111.92419976 175.07094332 112.54681695 174.55430269 113.18830132 C169.23732485 119.15211345 161.02939371 124.00787473 153.07383394 125.30158257 C148.4036063 125.43365915 143.74700454 125.34485267 139.07383394 125.30158257 C139.07383394 131.90158257 139.07383394 138.50158257 139.07383394 145.30158257 C140.53047457 145.29110894 141.98711519 145.28063531 143.48789644 145.26984429 C173.74942375 145.07199208 203.87544425 145.23355558 234.07383394 147.30158257 C235.26895601 147.38166558 236.46407808 147.46174859 237.69541597 147.54425836 C257.07969824 148.88710244 276.54693504 150.85748237 295.59141207 154.79328179 C298.69178701 155.42811466 301.79702722 156.03708765 304.90195894 156.64923882 C318.15011146 159.28974039 331.26494953 161.97332296 344.07383394 166.30158257 C344.77991793 166.53393609 345.48600191 166.76628961 346.21348238 167.00568414 C364.93143337 173.23405976 384.31000696 181.28774087 400.07383394 193.30158257 C401.15831409 194.09216019 402.24295917 194.8825116 403.32774019 195.67267632 C418.85271027 207.2063249 431.81040252 220.91266288 442.07383394 237.30158257 C442.51420992 238.00476617 442.9545859 238.70794976 443.4083066 239.43244195 C450.94593906 251.71515873 456.21591292 264.76785503 461.07383394 278.30158257 C461.50566988 279.49396539 461.93750582 280.6863482 462.38242769 281.91486382 C467.30034514 296.66861616 470.32370065 313.23573314 470.13633394 328.80158257 C470.12956636 329.89212945 470.12956636 329.89212945 470.12266207 331.00470757 C470.11104587 332.77036938 470.09311835 334.53598787 470.07383394 336.30158257 C470.76348238 336.26677789 471.45313082 336.2319732 472.16367769 336.19611382 C483.67307586 335.86456738 493.42727256 339.30031842 502.08555269 347.11798882 C506.55050593 351.91224447 509.55303137 357.27809178 512.07383394 363.30158257 C512.41841646 364.11925103 512.76299898 364.93691949 513.1180234 365.77936578 C514.42601462 370.59938861 514.39870226 375.17544526 514.40977144 380.14923882 C514.41642824 381.19752358 514.42308504 382.24580834 514.42994356 383.32585931 C514.44004958 385.54227729 514.44476122 387.75872557 514.44443941 389.97516656 C514.44878798 393.32863858 514.48506266 396.68076713 514.52305269 400.03400445 C514.60608802 415.61529732 513.96877474 429.09581064 503.07383394 441.30158257 C495.05736881 448.92235382 486.02056372 453.36277696 474.89024019 453.31720757 C473.63082613 453.31205132 472.37141207 453.30689507 471.07383394 453.30158257 C471.07440352 454.97971291 471.07440352 454.97971291 471.07498461 456.69174486 C471.09167881 506.07293576 471.10710299 555.45412683 471.11617708 604.83531976 C471.11631514 605.58469735 471.1164532 606.33407493 471.11659544 607.10616093 C471.11958939 623.39804413 471.12235942 639.68992737 471.12489927 655.98181065 C471.12614644 663.97308554 471.12744302 671.96436043 471.12876558 679.95563531 C471.12896172 681.14838172 471.12896172 681.14838172 471.12916182 682.36522402 C471.13341173 708.06905095 471.14091442 733.77287566 471.15013116 759.47670125 C471.15959708 785.92392456 471.16572707 812.37114665 471.16774893 838.81837163 C471.16803702 842.56674956 471.16836266 846.31512749 471.16871119 850.06350541 C471.16877861 850.80113111 471.16884603 851.53875681 471.1689155 852.29873481 C471.17009031 864.10070509 471.17470952 875.90267154 471.18066598 887.70464026 C471.18660086 899.61305184 471.18879016 911.52145967 471.18733532 923.42987267 C471.18670013 929.86443466 471.18761529 936.29898557 471.19303942 942.73354554 C471.22863304 987.33488409 471.22863304 987.33488409 470.64095736 1008.17015862 C470.62231251 1008.85445816 470.60366766 1009.5387577 470.58445782 1010.24379358 C469.78384555 1038.47262258 467.63622281 1067.47157188 453.07383394 1092.30158257 C452.20758394 1093.81945367 452.20758394 1093.81945367 451.32383394 1095.36798882 C447.30690442 1102.05357292 442.46319333 1107.68766655 437.07383394 1113.30158257 C436.41383394 1114.01314507 435.75383394 1114.72470757 435.07383394 1115.45783257 C412.22127866 1139.41615666 374.54452857 1150.78669513 343.07383394 1157.30158257 C342.4332303 1157.43542352 341.79262667 1157.56926446 341.1326108 1157.70716119 C322.86185539 1161.52108701 304.64914225 1165.03028861 286.06260347 1166.89191461 C282.06606899 1167.29591 278.07455619 1167.74222754 274.08247042 1168.18776727 C250.9052759 1170.76989764 227.79175896 1172.95480234 204.4930234 1173.99903131 C198.73098244 1174.25951932 192.97562324 1174.59859396 187.21869612 1174.95289445 C172.85934123 1175.83031333 158.502858 1176.49830919 144.12070894 1176.84845757 C143.2692989 1176.86942813 142.41788885 1176.89039868 141.5406785 1176.91200471 C115.70704582 1177.52831262 89.86643282 1177.49975894 64.02692795 1177.48968244 C61.9964421 1177.48907814 59.96595698 1177.4890329 57.93547106 1177.4891665 C21.94963975 1177.490939 -14.02736191 1177.32054802 -50.00530958 1176.48969674 C-52.69049811 1176.42769479 -55.37572649 1176.36769599 -58.0609622 1176.30777764 C-77.2086595 1175.87209993 -96.29014483 1175.10342962 -115.39491606 1173.73615289 C-121.29974032 1173.32046004 -127.19695864 1173.08388435 -133.11366606 1172.92658257 C-144.87893946 1172.5283392 -156.58233785 1171.43819374 -168.30116606 1170.36408257 C-169.23697508 1170.27854119 -170.1727841 1170.19299981 -171.13695097 1170.10486627 C-177.40253656 1169.52851349 -183.66505833 1168.92460318 -189.92616606 1168.30158257 C-190.71133604 1168.2246618 -191.49650602 1168.14774102 -192.30546904 1168.06848931 C-204.08845989 1166.9005838 -215.70928676 1165.13353049 -227.36366606 1163.05158257 C-228.23123533 1162.89751946 -229.09880461 1162.74345635 -229.99266386 1162.58472466 C-275.15868395 1154.53887638 -330.61590829 1143.85860214 -359.44569731 1103.94220757 C-366.60521317 1093.43759849 -372.51692056 1081.56175389 -375.92616606 1069.30158257 C-376.28968168 1068.07761773 -376.28968168 1068.07761773 -376.66054106 1066.82892632 C-386.45097794 1031.31361701 -384.21743872 992.50952524 -384.1582973 956.06734061 C-384.15046526 950.00085 -384.15222591 943.93436802 -384.15366098 937.86787377 C-384.15626871 925.48401841 -384.14968319 913.10018463 -384.13762617 900.71633554 C-384.12574083 888.47709443 -384.118084 876.23786234 -384.11592054 863.9986155 C-384.11578306 863.23402792 -384.11564559 862.46944034 -384.11550394 861.68168344 C-384.11482716 857.79780737 -384.11422443 853.9139313 -384.11365019 850.03005521 C-384.1094634 822.61046709 -384.09602816 795.19089068 -384.07704496 767.77130914 C-384.05863895 741.15444779 -384.04448999 714.53758965 -384.03602934 687.9207232 C-384.03576629 687.09845607 -384.03550323 686.27618893 -384.03523221 685.42900461 C-384.03259489 677.17051307 -384.0300433 668.9120215 -384.02755449 660.65352992 C-384.02248378 643.83409605 -384.01684128 627.01466238 -384.01085234 610.19522882 C-384.01057776 609.42211214 -384.01030318 608.64899546 -384.01002028 607.85245101 C-383.99165805 556.33548992 -383.95993039 504.81853561 -383.92616606 453.30158257 C-384.54435713 453.3067489 -385.1625482 453.31191522 -385.79947233 453.31723809 C-386.61028761 453.32125634 -387.42110289 453.32527459 -388.25648832 453.32941461 C-389.06030439 453.33458093 -389.86412046 453.33974725 -390.6922946 453.34507012 C-399.6364286 453.17095157 -408.37725525 448.33719217 -414.93397856 442.52033257 C-424.37155105 432.55164128 -427.23964204 419.89823608 -427.22694731 406.59064507 C-427.23123243 405.58246728 -427.23551756 404.57428948 -427.23993254 403.53556085 C-427.24564982 401.41265382 -427.2461954 399.28972721 -427.24183989 397.16681695 C-427.2386823 393.94316489 -427.26216427 390.72043382 -427.28749418 387.49689507 C-427.28976789 385.42397955 -427.29047034 383.35106159 -427.28944731 381.27814507 C-427.29865705 380.32678674 -427.3078668 379.3754284 -427.31735563 378.39524102 C-427.23406627 366.16820064 -423.00638642 355.65737591 -414.80116606 346.55158257 C-408.10214194 340.21304406 -398.89431227 336.14063477 -389.73866606 336.23908257 C-388.65198637 336.24810601 -387.56530668 336.25712945 -386.44569731 336.26642632 C-385.19852934 336.28382867 -385.19852934 336.28382867 -383.92616606 336.30158257 C-383.88749418 334.73537164 -383.88749418 334.73537164 -383.84804106 333.13752007 C-382.92340739 306.32932853 -376.12657224 280.60152182 -364.92616606 256.30158257 C-364.62565336 255.64544976 -364.32514067 254.98931695 -364.01552153 254.31330132 C-345.45905805 214.27858616 -310.15157188 184.95079658 -269.34608793 169.31281304 C-226.56581781 153.77589811 -181.6644008 148.99774723 -136.52635527 146.45029473 C-134.83947243 146.35381714 -133.15278534 146.25382857 -131.46635771 146.14969659 C-115.23005737 145.1490181 -99.00246028 145.18069546 -82.74336576 145.23291802 C-79.14219598 145.24334184 -75.54101861 145.24775548 -71.93983793 145.25275445 C-64.93526107 145.26332369 -57.93072129 145.28083732 -50.92616606 145.30158257 C-50.92616606 139.03158257 -50.92616606 132.76158257 -50.92616606 126.30158257 C-53.02991606 126.19845757 -55.13366606 126.09533257 -57.30116606 125.98908257 C-69.20283012 125.09197222 -79.43027749 121.89370653 -88.03554106 113.16095757 C-101.57645225 96.610955 -99.82207889 73.59534218 -100.92616606 53.30158257 C-100.98111235 52.40391168 -101.03605864 51.50624078 -101.09266996 50.58136773 C-101.83224512 37.78806229 -99.18427948 27.15016206 -90.73085356 17.22736382 C-78.32109544 3.98491631 -63.07664708 2.3554946 -45.68153715 1.1953814 C-44.42922489 1.11123137 -43.17691263 1.02708133 -41.88665152 0.94038129 C-27.93200113 0.07670449 -13.97695594 -0.01035027 0 0 Z " transform="translate(979.9261660575867,434.69841742515564)" style="fill: #040404;"/><path d="M0 0 C2.96029847 0.00109834 5.92057693 -0.00388462 8.88087094 -0.00860542 C15.89849611 -0.01956787 22.91606772 -0.02021588 29.93369722 -0.01409125 C36.25928074 -0.00874214 42.58470242 -0.01578978 48.91025972 -0.03459907 C109.71000854 -0.21097887 109.71000854 -0.21097887 133.23789644 1.63361382 C134.00057203 1.691976 134.76324762 1.75033818 135.5490346 1.81046891 C151.78400944 3.10957815 166.58020527 5.68426274 178.10117769 17.97736382 C186.23649961 27.5625451 188.5921416 36.92862283 188.38633394 49.36408257 C188.37505465 50.49370416 188.36377535 51.62332574 188.35215425 52.78717828 C187.64159797 97.54910766 187.64159797 97.54910766 176.07383394 111.30158257 C175.57238863 111.92419976 175.07094332 112.54681695 174.55430269 113.18830132 C169.23732485 119.15211345 161.02939371 124.00787473 153.07383394 125.30158257 C148.4036063 125.43365915 143.74700454 125.34485267 139.07383394 125.30158257 C139.07383394 131.90158257 139.07383394 138.50158257 139.07383394 145.30158257 C140.53047457 145.29110894 141.98711519 145.28063531 143.48789644 145.26984429 C173.74942375 145.07199208 203.87544425 145.23355558 234.07383394 147.30158257 C235.26895601 147.38166558 236.46407808 147.46174859 237.69541597 147.54425836 C257.07969824 148.88710244 276.54693504 150.85748237 295.59141207 154.79328179 C298.69178701 155.42811466 301.79702722 156.03708765 304.90195894 156.64923882 C318.15011146 159.28974039 331.26494953 161.97332296 344.07383394 166.30158257 C344.77991793 166.53393609 345.48600191 166.76628961 346.21348238 167.00568414 C364.93143337 173.23405976 384.31000696 181.28774087 400.07383394 193.30158257 C401.15831409 194.09216019 402.24295917 194.8825116 403.32774019 195.67267632 C418.85271027 207.2063249 431.81040252 220.91266288 442.07383394 237.30158257 C442.51420992 238.00476617 442.9545859 238.70794976 443.4083066 239.43244195 C450.94593906 251.71515873 456.21591292 264.76785503 461.07383394 278.30158257 C461.50566988 279.49396539 461.93750582 280.6863482 462.38242769 281.91486382 C467.30034514 296.66861616 470.32370065 313.23573314 470.13633394 328.80158257 C470.12956636 329.89212945 470.12956636 329.89212945 470.12266207 331.00470757 C470.11104587 332.77036938 470.09311835 334.53598787 470.07383394 336.30158257 C470.76348238 336.26677789 471.45313082 336.2319732 472.16367769 336.19611382 C483.67307586 335.86456738 493.42727256 339.30031842 502.08555269 347.11798882 C506.55050593 351.91224447 509.55303137 357.27809178 512.07383394 363.30158257 C512.41841646 364.11925103 512.76299898 364.93691949 513.1180234 365.77936578 C514.42601462 370.59938861 514.39870226 375.17544526 514.40977144 380.14923882 C514.41642824 381.19752358 514.42308504 382.24580834 514.42994356 383.32585931 C514.44004958 385.54227729 514.44476122 387.75872557 514.44443941 389.97516656 C514.44878798 393.32863858 514.48506266 396.68076713 514.52305269 400.03400445 C514.60608802 415.61529732 513.96877474 429.09581064 503.07383394 441.30158257 C495.05736881 448.92235382 486.02056372 453.36277696 474.89024019 453.31720757 C473.63082613 453.31205132 472.37141207 453.30689507 471.07383394 453.30158257 C471.07440352 454.97971291 471.07440352 454.97971291 471.07498461 456.69174486 C471.09167881 506.07293576 471.10710299 555.45412683 471.11617708 604.83531976 C471.11631514 605.58469735 471.1164532 606.33407493 471.11659544 607.10616093 C471.11958939 623.39804413 471.12235942 639.68992737 471.12489927 655.98181065 C471.12614644 663.97308554 471.12744302 671.96436043 471.12876558 679.95563531 C471.12896172 681.14838172 471.12896172 681.14838172 471.12916182 682.36522402 C471.13341173 708.06905095 471.14091442 733.77287566 471.15013116 759.47670125 C471.15959708 785.92392456 471.16572707 812.37114665 471.16774893 838.81837163 C471.16803702 842.56674956 471.16836266 846.31512749 471.16871119 850.06350541 C471.16877861 850.80113111 471.16884603 851.53875681 471.1689155 852.29873481 C471.17009031 864.10070509 471.17470952 875.90267154 471.18066598 887.70464026 C471.18660086 899.61305184 471.18879016 911.52145967 471.18733532 923.42987267 C471.18670013 929.86443466 471.18761529 936.29898557 471.19303942 942.73354554 C471.22863304 987.33488409 471.22863304 987.33488409 470.64095736 1008.17015862 C470.62231251 1008.85445816 470.60366766 1009.5387577 470.58445782 1010.24379358 C469.78384555 1038.47262258 467.63622281 1067.47157188 453.07383394 1092.30158257 C452.20758394 1093.81945367 452.20758394 1093.81945367 451.32383394 1095.36798882 C447.30690442 1102.05357292 442.46319333 1107.68766655 437.07383394 1113.30158257 C436.41383394 1114.01314507 435.75383394 1114.72470757 435.07383394 1115.45783257 C412.22127866 1139.41615666 374.54452857 1150.78669513 343.07383394 1157.30158257 C342.4332303 1157.43542352 341.79262667 1157.56926446 341.1326108 1157.70716119 C322.86185539 1161.52108701 304.64914225 1165.03028861 286.06260347 1166.89191461 C282.06606899 1167.29591 278.07455619 1167.74222754 274.08247042 1168.18776727 C250.9052759 1170.76989764 227.79175896 1172.95480234 204.4930234 1173.99903131 C198.73098244 1174.25951932 192.97562324 1174.59859396 187.21869612 1174.95289445 C172.85934123 1175.83031333 158.502858 1176.49830919 144.12070894 1176.84845757 C143.2692989 1176.86942813 142.41788885 1176.89039868 141.5406785 1176.91200471 C115.70704582 1177.52831262 89.86643282 1177.49975894 64.02692795 1177.48968244 C61.9964421 1177.48907814 59.96595698 1177.4890329 57.93547106 1177.4891665 C21.94963975 1177.490939 -14.02736191 1177.32054802 -50.00530958 1176.48969674 C-52.69049811 1176.42769479 -55.37572649 1176.36769599 -58.0609622 1176.30777764 C-77.2086595 1175.87209993 -96.29014483 1175.10342962 -115.39491606 1173.73615289 C-121.29974032 1173.32046004 -127.19695864 1173.08388435 -133.11366606 1172.92658257 C-144.87893946 1172.5283392 -156.58233785 1171.43819374 -168.30116606 1170.36408257 C-169.23697508 1170.27854119 -170.1727841 1170.19299981 -171.13695097 1170.10486627 C-177.40253656 1169.52851349 -183.66505833 1168.92460318 -189.92616606 1168.30158257 C-190.71133604 1168.2246618 -191.49650602 1168.14774102 -192.30546904 1168.06848931 C-204.08845989 1166.9005838 -215.70928676 1165.13353049 -227.36366606 1163.05158257 C-228.23123533 1162.89751946 -229.09880461 1162.74345635 -229.99266386 1162.58472466 C-275.15868395 1154.53887638 -330.61590829 1143.85860214 -359.44569731 1103.94220757 C-366.60521317 1093.43759849 -372.51692056 1081.56175389 -375.92616606 1069.30158257 C-376.28968168 1068.07761773 -376.28968168 1068.07761773 -376.66054106 1066.82892632 C-386.45097794 1031.31361701 -384.21743872 992.50952524 -384.1582973 956.06734061 C-384.15046526 950.00085 -384.15222591 943.93436802 -384.15366098 937.86787377 C-384.15626871 925.48401841 -384.14968319 913.10018463 -384.13762617 900.71633554 C-384.12574083 888.47709443 -384.118084 876.23786234 -384.11592054 863.9986155 C-384.11578306 863.23402792 -384.11564559 862.46944034 -384.11550394 861.68168344 C-384.11482716 857.79780737 -384.11422443 853.9139313 -384.11365019 850.03005521 C-384.1094634 822.61046709 -384.09602816 795.19089068 -384.07704496 767.77130914 C-384.05863895 741.15444779 -384.04448999 714.53758965 -384.03602934 687.9207232 C-384.03576629 687.09845607 -384.03550323 686.27618893 -384.03523221 685.42900461 C-384.03259489 677.17051307 -384.0300433 668.9120215 -384.02755449 660.65352992 C-384.02248378 643.83409605 -384.01684128 627.01466238 -384.01085234 610.19522882 C-384.01057776 609.42211214 -384.01030318 608.64899546 -384.01002028 607.85245101 C-383.99165805 556.33548992 -383.95993039 504.81853561 -383.92616606 453.30158257 C-384.54435713 453.3067489 -385.1625482 453.31191522 -385.79947233 453.31723809 C-386.61028761 453.32125634 -387.42110289 453.32527459 -388.25648832 453.32941461 C-389.06030439 453.33458093 -389.86412046 453.33974725 -390.6922946 453.34507012 C-399.6364286 453.17095157 -408.37725525 448.33719217 -414.93397856 442.52033257 C-424.37155105 432.55164128 -427.23964204 419.89823608 -427.22694731 406.59064507 C-427.23123243 405.58246728 -427.23551756 404.57428948 -427.23993254 403.53556085 C-427.24564982 401.41265382 -427.2461954 399.28972721 -427.24183989 397.16681695 C-427.2386823 393.94316489 -427.26216427 390.72043382 -427.28749418 387.49689507 C-427.28976789 385.42397955 -427.29047034 383.35106159 -427.28944731 381.27814507 C-427.29865705 380.32678674 -427.3078668 379.3754284 -427.31735563 378.39524102 C-427.23406627 366.16820064 -423.00638642 355.65737591 -414.80116606 346.55158257 C-408.10214194 340.21304406 -398.89431227 336.14063477 -389.73866606 336.23908257 C-388.65198637 336.24810601 -387.56530668 336.25712945 -386.44569731 336.26642632 C-385.19852934 336.28382867 -385.19852934 336.28382867 -383.92616606 336.30158257 C-383.88749418 334.73537164 -383.88749418 334.73537164 -383.84804106 333.13752007 C-382.92340739 306.32932853 -376.12657224 280.60152182 -364.92616606 256.30158257 C-364.62565336 255.64544976 -364.32514067 254.98931695 -364.01552153 254.31330132 C-345.45905805 214.27858616 -310.15157188 184.95079658 -269.34608793 169.31281304 C-226.56581781 153.77589811 -181.6644008 148.99774723 -136.52635527 146.45029473 C-134.83947243 146.35381714 -133.15278534 146.25382857 -131.46635771 146.14969659 C-115.23005737 145.1490181 -99.00246028 145.18069546 -82.74336576 145.23291802 C-79.14219598 145.24334184 -75.54101861 145.24775548 -71.93983793 145.25275445 C-64.93526107 145.26332369 -57.93072129 145.28083732 -50.92616606 145.30158257 C-50.92616606 139.03158257 -50.92616606 132.76158257 -50.92616606 126.30158257 C-53.02991606 126.19845757 -55.13366606 126.09533257 -57.30116606 125.98908257 C-69.20283012 125.09197222 -79.43027749 121.89370653 -88.03554106 113.16095757 C-101.57645225 96.610955 -99.82207889 73.59534218 -100.92616606 53.30158257 C-100.98111235 52.40391168 -101.03605864 51.50624078 -101.09266996 50.58136773 C-101.83224512 37.78806229 -99.18427948 27.15016206 -90.73085356 17.22736382 C-78.32109544 3.98491631 -63.07664708 2.3554946 -45.68153715 1.1953814 C-44.42922489 1.11123137 -43.17691263 1.02708133 -41.88665152 0.94038129 C-27.93200113 0.07670449 -13.97695594 -0.01035027 0 0 Z M-342.92616606 453.30158257 C-342.94679106 544.89720757 -342.96741606 636.49283257 -342.98866606 730.86408257 C-342.99777006 759.80683892 -343.00687407 788.74959527 -343.01625395 818.56940484 C-343.01959797 844.46862811 -343.01959797 844.46862811 -343.02160978 870.3678515 C-343.0226045 882.68224551 -343.02691675 894.99663403 -343.03283948 907.3110265 C-343.03880014 919.8743246 -343.04100092 932.43761923 -343.03961101 945.00091868 C-343.03895708 951.81685555 -343.03996434 958.63278145 -343.04538119 965.44871652 C-343.05025257 971.61580679 -343.05048604 977.78287939 -343.04706717 983.94997048 C-343.04664411 986.17578562 -343.04790373 988.40160187 -343.05104864 990.62741482 C-343.09550884 1024.06816531 -342.72854657 1061.2724673 -318.29921293 1086.93146539 C-314.84931307 1090.37400415 -311.13926489 1092.8801366 -306.92616606 1095.30158257 C-306.26616606 1095.68411187 -305.60616606 1096.06664117 -304.92616606 1096.46076226 C-293.66247124 1102.91061567 -282.3975238 1107.7475967 -269.92616606 1111.30158257 C-268.81386625 1111.62352593 -268.81386625 1111.62352593 -267.67909575 1111.9519732 C-228.50863229 1123.15320292 -187.7903092 1127.78639538 -147.27382231 1130.78986382 C-146.42552855 1130.85325322 -145.57723478 1130.91664262 -144.70323515 1130.98195291 C-126.65262586 1132.32236665 -108.59020948 1133.3191598 -90.511127 1134.18195367 C-87.13518179 1134.34318318 -83.75958148 1134.50983749 -80.38417387 1134.68195367 C-37.08996046 1136.88848725 6.19459488 1137.47770013 49.54063082 1137.43195367 C55.07096125 1137.42614232 60.60124432 1137.42963323 66.1315732 1137.43552613 C70.48993454 1137.43915521 74.84828475 1137.43798433 79.20664644 1137.43539834 C81.24766213 1137.43474144 83.2886789 1137.43551302 85.32969332 1137.43787789 C95.81518625 1137.44741121 106.2190586 1137.27900192 116.67951632 1136.53516412 C121.01137706 1136.23706511 125.33092436 1136.11667178 129.67149019 1136.05548882 C131.37649245 1136.02404799 133.08148901 1135.99229695 134.78648043 1135.96027398 C135.65763491 1135.94490594 136.52878939 1135.9295379 137.42634249 1135.91370416 C168.72694097 1135.34057127 199.92459693 1133.76860974 231.10203218 1130.92665887 C235.87440088 1130.4925791 240.64827377 1130.08893897 245.42490816 1129.7047503 C333.95164055 1124.42588338 333.95164055 1124.42588338 409.07383394 1083.30158257 C420.03423131 1070.00957639 424.64478647 1055.12788264 427.07383394 1038.30158257 C427.17148043 1037.64689996 427.26912691 1036.99221734 427.36973238 1036.31769586 C429.9990425 1018.35959626 430.21998795 1000.41180255 430.19408846 982.30120111 C430.19452672 980.01513938 430.19540517 977.7290777 430.19668245 975.44301629 C430.19891265 969.19034735 430.19492948 962.93769571 430.18990667 956.68502896 C430.18597565 950.53504198 430.18682798 944.38505707 430.18751437 938.23506919 C430.18875234 925.73938016 430.18548016 913.24369642 430.1794095 900.74800897 C430.17121572 883.85216863 430.16930517 866.95633731 430.16843843 850.06049371 C430.1631926 809.45335559 430.14923144 768.84621898 430.13633394 728.23908257 C430.11570894 637.50970757 430.09508394 546.78033257 430.07383394 453.30158257 C174.98383394 453.30158257 -80.10616606 453.30158257 -342.92616606 453.30158257 Z " transform="translate(979.9261660575867,434.69841742515564)" style="fill: #040404;"/><path d="M0 0 C255.09 0 510.18 0 773 0 C773.020625 90.729375 773.04125 181.45875 773.0625 274.9375 C773.071604 303.60101318 773.08070801 332.26452637 773.09008789 361.79663086 C773.09460449 396.75891113 773.09460449 396.75891113 773.09544373 413.1186676 C773.09643796 425.31452903 773.10074843 437.51038491 773.10667343 449.70624478 C773.11263787 462.15194815 773.114834 474.59764802 773.11344495 487.04335276 C773.11279155 493.79399962 773.11379229 500.54463476 773.11921513 507.29528034 C773.12409386 513.40581117 773.12431523 519.51632418 773.12090111 525.62685585 C773.12047877 527.82985759 773.12173213 530.03286046 773.12488258 532.23585999 C773.14779294 549.26430405 772.72445377 566.00831523 770.125 582.875 C769.96386719 583.99390625 769.80273438 585.1128125 769.63671875 586.265625 C766.55722775 606.74782093 759.92658279 625.45865506 742.73046875 638.17578125 C725.55194074 649.65270912 707.20867409 656.52726666 687.1730957 661.25 C684.85313671 661.7983507 682.53705071 662.36316021 680.22338867 662.9375 C669.08584877 665.67893029 657.88904243 667.71083212 646.5625 669.5 C645.61890625 669.65029663 644.6753125 669.80059326 643.703125 669.95544434 C624.51688219 672.98615891 605.29893238 674.98692448 585.94677734 676.58691406 C581.20830527 676.97892135 576.47334558 677.40502807 571.73828125 677.8359375 C540.44389431 680.65225633 509.12597845 682.10452861 477.71264648 682.65869141 C476.41893631 682.68298973 476.41893631 682.68298973 475.09909058 682.70777893 C473.52380895 682.73682767 471.94847034 682.76305693 470.37307739 682.78526306 C465.48609666 682.8755173 460.63525911 683.16036887 455.75952148 683.50708008 C445.594465 684.19191688 435.43371801 684.14461213 425.25 684.1328125 C423.14583322 684.13348973 421.04166652 684.13446319 418.9375 684.13571167 C414.52668513 684.13717935 410.11589061 684.13507108 405.70507812 684.13037109 C400.21091432 684.12478557 394.71680008 684.12800121 389.22263813 684.13378811 C344.75358828 684.17403278 300.39149788 683.33398362 255.98071289 681.00805664 C251.86352767 680.79252537 247.74608409 680.58425932 243.62817383 680.38305664 C221.30081108 679.29194628 199.01497872 677.97693714 176.74609375 676.0078125 C175.38761291 675.88914857 175.38761291 675.88914857 174.001688 675.76808739 C50.82700834 664.88901917 50.82700834 664.88901917 18.875 627.3125 C6.93879517 611.66954407 2.45477515 591.35009179 1 572 C0.91875918 571.04836517 0.83751837 570.09673034 0.75381571 569.11625808 C-0.15095134 557.4271255 -0.13681212 545.76899601 -0.12025452 534.05030823 C-0.1206926 531.7454019 -0.12157073 529.44049562 -0.12284851 527.1355896 C-0.12508213 520.82141932 -0.1210908 514.50726613 -0.11607273 508.19309802 C-0.11164329 501.98568787 -0.11299369 495.77827733 -0.11368043 489.57086607 C-0.11491923 476.95617225 -0.11164273 464.34148365 -0.10557556 451.72679138 C-0.09738647 434.67003188 -0.09547153 417.61328129 -0.09460449 400.55651855 C-0.08935716 359.55851131 -0.07539601 318.56050555 -0.0625 277.5625 C-0.041875 185.966875 -0.02125 94.37125 0 0 Z M26 52 C18.85068205 63.56571619 20.79389436 79.67420565 20.46484375 92.84765625 C20.44361261 93.67233147 20.42238148 94.49700668 20.40050697 95.34667206 C20.23256299 101.91832112 20.08186382 108.49029433 19.9375 115.0625 C19.91542984 116.05991085 19.89335968 117.0573217 19.87062073 118.08495712 C18.95261085 160.10449266 18.77659362 202.12268306 18.75505596 244.15064794 C18.752362 249.18629769 18.74688504 254.2219322 18.73860347 259.25757581 C18.37282087 361.59505673 18.37282087 361.59505673 24.5 463.6875 C24.61851318 464.94852539 24.73702637 466.20955078 24.85913086 467.50878906 C25.44531897 473.21865129 26.15117024 478.55710893 28 484 C30.52789465 481.47210535 30.41147895 480.22247257 30.78125 476.70703125 C30.90000488 475.61342285 31.01875977 474.51981445 31.14111328 473.39306641 C31.2595459 472.21147949 31.37797852 471.02989258 31.5 469.8125 C31.62745605 468.59739746 31.75491211 467.38229492 31.88623047 466.13037109 C32.2698538 462.42136723 32.63805617 458.71117756 33 455 C33.1551709 453.4214624 33.1551709 453.4214624 33.31347656 451.81103516 C34.41088919 440.46304459 35.24353664 429.12949184 35.65869141 417.73486328 C35.6901123 416.92259277 35.7215332 416.11032227 35.75390625 415.2734375 C35.77783447 414.56622559 35.8017627 413.85901367 35.82641602 413.13037109 C36 411 36 411 36.47984314 408.77114868 C39.40758513 393.17352999 38.53073398 376.30412541 39.0625 360.5 C39.15383917 357.82680702 39.24588703 355.15363901 39.33789062 352.48046875 C39.56093908 345.98705757 39.78147583 339.49356493 40 333 C40.00054477 334.28914558 40.00108953 335.57829117 40.00165081 336.90650177 C40.01571901 367.56276971 40.05557732 398.2188849 40.12685562 428.87506911 C40.13562154 432.65483081 40.1441715 436.43459297 40.15258789 440.21435547 C40.15426695 440.96678404 40.15594602 441.71921261 40.15767596 442.49444205 C40.18428824 454.65040953 40.19343689 466.80632985 40.19604143 478.96232349 C40.19910946 491.45136338 40.22115394 503.94026774 40.26052457 516.42924643 C40.28419575 524.12507194 40.29336526 531.82062626 40.28351311 539.51648307 C40.27752914 545.43467186 40.29804858 551.35259067 40.32806015 557.2707119 C40.33625648 559.68603846 40.3360874 562.10141134 40.32659721 564.51673317 C40.24536113 587.4780784 44.43860332 606.58398411 60.73046875 623.83203125 C74.94499428 637.2585447 93.2087366 642.15138917 112.35154724 642.14717102 C113.26110375 642.15084771 114.17066026 642.1545244 115.10777909 642.1583125 C118.13883449 642.16927693 121.16985553 642.17318082 124.20092773 642.17700195 C126.38139452 642.18327215 128.56186025 642.18991944 130.74232483 642.19691467 C137.88940699 642.21789392 145.03648921 642.22831235 152.18359375 642.23828125 C154.65100681 642.24233131 157.11841976 642.2464483 159.5858326 642.25063133 C171.18239366 642.26967069 182.77894841 642.28390352 194.37552208 642.2922433 C207.72866172 642.30200679 221.08161746 642.32830855 234.43470043 642.36874419 C244.77729376 642.39898067 255.11983967 642.41371937 265.46247631 642.41702431 C271.6294675 642.41936643 277.79628093 642.42821744 283.96322441 642.45348549 C289.77209997 642.47690283 295.58068245 642.48094479 301.38959312 642.47072411 C303.50943227 642.47023192 305.62928652 642.47645738 307.74908066 642.49028015 C323.12769103 642.58486701 338.58380859 641.78546947 352.4375 634.3125 C353.09306885 633.96856201 353.7486377 633.62462402 354.42407227 633.27026367 C370.43166731 624.52612227 379.76416169 609.61297458 385.0694313 592.56310272 C387.99118391 581.92032822 388.58091662 572.01364965 388.54589844 561.01757812 C388.55465605 559.17286823 388.56514935 557.32816589 388.57722473 555.48347473 C388.60483765 550.527907 388.60849494 545.57259015 388.60750484 540.61695671 C388.61065541 535.41861368 388.63631778 530.22038014 388.65948486 525.02209473 C388.69988533 515.20178121 388.72034788 505.38153382 388.73345876 495.56115007 C388.74938312 484.37109013 388.78782139 473.18114187 388.82805204 461.99114704 C388.91023244 438.99413562 388.9644608 415.99712751 389 393 C389.33406357 393.5536171 389.66812714 394.10723419 390.01231384 394.67762756 C390.4554744 395.40155197 390.89863495 396.12547638 391.35522461 396.87133789 C391.79241318 397.58995499 392.22960175 398.30857208 392.68003845 399.04896545 C394.32543083 401.48101915 396.06775679 402.9059446 398.5625 404.4375 C399.30628906 404.91058594 400.05007813 405.38367187 400.81640625 405.87109375 C402.90344176 406.95007991 404.72540649 407.47582733 407 408 C406.99815641 409.02337212 406.99631283 410.04674423 406.99441338 411.10112762 C406.95000742 436.00600581 406.9171452 460.91087885 406.89637566 485.81578827 C406.88606461 497.85962837 406.87200752 509.90344231 406.84912109 521.94726562 C406.82918201 532.4450776 406.81628231 542.94287062 406.81182301 553.44070101 C406.80921652 558.99881619 406.80309361 564.55687717 406.78853989 570.11497498 C406.77494785 575.34828676 406.77078067 580.5815221 406.77378464 585.81484985 C406.7732352 587.73366206 406.76926746 589.65247688 406.76158905 591.5712738 C406.75160244 594.1960059 406.75404466 596.82045136 406.75949097 599.44519043 C406.75366528 600.20007736 406.7478396 600.95496428 406.74183738 601.73272657 C406.81278762 614.4294717 411.94323671 625.48224213 420.5546875 634.65625 C428.64819899 642.24633733 438.50300972 645.14710277 449.32798767 645.15390015 C450.17569546 645.1582824 451.02340325 645.16266465 451.89679915 645.1671797 C454.74231823 645.18055259 457.58780635 645.18674327 460.43334961 645.19287109 C462.47193542 645.20077346 464.51051983 645.20904249 466.54910278 645.21765137 C473.25016953 645.24386319 479.95124249 645.2591815 486.65234375 645.2734375 C488.96134508 645.27879815 491.27034636 645.28417566 493.57934761 645.28956985 C503.18809817 645.3112003 512.79684706 645.3299348 522.40561581 645.34119225 C536.16190362 645.35741599 549.91790829 645.39055391 563.67408937 645.44759309 C573.353274 645.4863536 583.0323831 645.50583238 592.71164328 645.51111281 C598.48849844 645.5147588 604.26505154 645.52669987 610.04182243 645.55921555 C615.482978 645.58940228 620.92365042 645.5955701 626.36487198 645.58383179 C628.3541666 645.58361192 630.34348432 645.5918446 632.33270073 645.60948563 C647.64651531 645.73782086 660.43774729 644.21046003 672 633 C680.31989871 624.20413454 684.1652406 612.78679526 684.12025452 600.88824463 C684.12110894 600.06403291 684.12196337 599.23982118 684.12284368 598.39063334 C684.12449248 595.62530906 684.11898689 592.86004527 684.11352539 590.09472656 C684.11324336 588.11386618 684.11340156 586.1330057 684.1139679 584.15214539 C684.11425526 578.77031336 684.10836826 573.38850353 684.10139394 568.00667667 C684.09515037 562.38390782 684.0945558 556.76113848 684.09336853 551.1383667 C684.09025818 540.48891362 684.08204877 529.83947079 684.07201904 519.19002223 C684.06084873 507.06682414 684.05534513 494.94362556 684.05032361 482.8204236 C684.03986592 457.88027672 684.02227219 432.94013893 684 408 C684.928125 407.70222656 685.85625 407.40445312 686.8125 407.09765625 C694.30348339 404.51804065 698.43705436 399.90052423 702 393 C703.55598317 388.27329078 704.25471166 384.16581761 704.2746582 379.19775391 C704.28419022 377.88594147 704.29372223 376.57412903 704.30354309 375.2225647 C704.3032816 373.80723036 704.30234426 372.391896 704.30078125 370.9765625 C704.30467476 369.50597006 704.30901077 368.03537873 704.31376648 366.56478882 C704.32120424 363.49009549 704.32095544 360.41551703 704.31567383 357.34082031 C704.3098853 353.42157729 704.32680683 349.50280779 704.3500185 345.58364296 C704.36482825 342.54824118 704.36561771 339.51295151 704.36250877 336.47751999 C704.36301845 335.03358397 704.36818901 333.58964108 704.37832069 332.14574051 C704.43931318 322.23816299 704.37880489 312.95934072 697.4375 305.25 C696.83808594 304.55390625 696.23867187 303.8578125 695.62109375 303.140625 C688.0769582 296.97939358 680.96267902 295.26218059 671.38671875 295.36508179 C670.25816971 295.35728183 669.12962067 295.34948188 667.96687317 295.34144557 C664.20674441 295.32159256 660.44763525 295.33726521 656.6875 295.35302734 C653.98305181 295.34899742 651.27864615 295.33752357 648.57421875 295.32647705 C642.00415204 295.30430243 635.43437175 295.30901985 628.86429405 295.32354026 C623.52229853 295.33485537 618.18038299 295.3363536 612.83837891 295.33092117 C612.07662133 295.33015501 611.31486376 295.32938884 610.53002262 295.32859946 C608.98228325 295.32700075 607.4345439 295.32537968 605.88680458 295.3237365 C591.39075619 295.30949593 576.89486618 295.32584508 562.39884377 295.35273834 C549.9741499 295.37507562 537.54968965 295.37119501 525.125 295.34814453 C510.67905332 295.32135654 496.23324527 295.31086907 481.78727722 295.32620585 C480.24539187 295.32779851 478.70350649 295.32937037 477.16162109 295.33092117 C476.40308366 295.33169255 475.64454622 295.33246393 474.8630228 295.33325868 C469.53055543 295.3375667 464.19817635 295.33030857 458.86572266 295.31852341 C452.36270961 295.30446645 445.85999814 295.30836502 439.35701942 295.33492713 C436.04208963 295.3480233 432.72807527 295.35057749 429.41308594 295.33668137 C425.81265329 295.32298201 422.21362486 295.34019806 418.61328125 295.36508179 C417.57532913 295.35392818 416.53737701 295.34277457 415.4679718 295.33128297 C407.2943217 295.4405717 400.88057343 297.77240768 394.5625 303.02734375 C394.046875 303.65769531 393.53125 304.28804687 393 304.9375 C392.46375 305.56527344 391.9275 306.19304687 391.375 306.83984375 C389.71895715 309.4415247 388.93438661 312.07130694 388 315 C387.99945523 314.44800588 387.99891047 313.89601175 387.99834919 313.32729053 C387.98337511 299.88958934 387.9405871 286.45222388 387.86790943 273.01470661 C387.83360303 266.51634915 387.8085237 260.01822771 387.80444336 253.51977539 C387.80016837 247.24963162 387.77177098 240.9800206 387.72656822 234.71004295 C387.71356781 232.3166635 387.70929448 229.92322038 387.71384621 227.52980995 C387.71873381 224.17984956 387.69273893 220.83145725 387.65942383 217.48168945 C387.66804947 216.48978607 387.67667511 215.49788269 387.68556213 214.47592163 C387.67027466 213.56031967 387.65498718 212.64471771 387.63923645 211.70137024 C387.63647107 210.90955007 387.63370569 210.11772989 387.63085651 209.30191517 C386.57953238 205.46576713 385.31603659 204.26141603 382 202 C377.57762914 201.25277599 373.19413286 201.34800438 368.71879578 201.39872742 C367.33679216 201.39654681 365.95479056 201.39216847 364.57279998 201.38578159 C360.77570631 201.37459621 356.97931721 201.3946074 353.18231332 201.41967189 C349.08761198 201.44125088 344.99295082 201.43395829 340.89820862 201.43016052 C333.8040137 201.42753791 326.71004859 201.44323417 319.61591148 201.47134972 C309.3590023 201.51197355 299.10220432 201.52500578 288.8452234 201.53128967 C272.2042884 201.54223462 255.5634759 201.57551423 238.92260742 201.62280273 C222.75692356 201.66869315 206.59127295 201.7040876 190.42553711 201.7253418 C189.4291942 201.72665541 188.4328513 201.72796903 187.40631618 201.72932246 C182.40798977 201.73584761 177.40966311 201.74216616 172.4113363 201.74838197 C130.94080565 201.8002212 89.47040983 201.88829193 48 202 C48.25468767 199.99337735 48.50937533 197.9867547 48.764063 195.98013204 C49.01356213 193.88617803 49.16966365 191.81052618 49.24951172 189.70336914 C49.27991043 188.95381958 49.31030914 188.20427002 49.34162903 187.43200684 C49.37068832 186.64104614 49.39974762 185.85008545 49.4296875 185.03515625 C49.50173674 183.26829838 49.57409753 181.50145319 49.64672852 179.73461914 C49.68371857 178.81101593 49.72070862 177.88741272 49.75881958 176.93582153 C50.41184989 160.78537172 51.30837667 144.67730646 52.5625 128.5625 C53.73257582 113.42254758 54.62325023 98.33172939 54.92822266 83.14501953 C54.99905093 80.04158475 55.11218067 76.9417864 55.23046875 73.83984375 C55.28059029 71.95577989 55.32888522 70.07166619 55.375 68.1875 C55.41326904 67.3634668 55.45153809 66.53943359 55.4909668 65.69042969 C55.57535218 59.62229606 53.77785349 55.72231686 50 51 C46.35550589 47.52905322 43.46479739 46.69904528 38.5625 46.4375 C33.13145529 46.68101152 29.5301897 47.75800094 26 52 Z " transform="translate(637,888)" style="fill: #FDFDFD;"/><path d="M0 0 C103.29 0 206.58 0 313 0 C313.1613254 88.94406847 313.1613254 88.94406847 313.1953125 126.12109375 C313.20314352 134.63004588 313.21122531 143.13899773 313.21972656 151.64794922 C313.22078156 152.71434903 313.22183655 153.78074884 313.22292352 154.87946379 C313.24030185 172.07636634 313.27182668 189.27321518 313.30861118 206.47008592 C313.34606997 224.12999363 313.36824628 241.78987329 313.37635398 259.44981909 C313.38183151 270.33941521 313.3991069 281.22885954 313.43166587 292.11840892 C313.45287474 299.59448714 313.45918566 307.07048734 313.45400551 314.54659343 C313.45145362 318.8543964 313.45525483 323.16193486 313.4768219 327.46969032 C313.49647539 331.4244038 313.49715016 335.37867817 313.48359558 339.33341306 C313.48192363 340.75361652 313.4868377 342.17384888 313.49953273 343.59399658 C313.64802866 361.2525634 309.62113692 378.8838405 297.140625 392.03125 C286.30828972 401.99383574 273.71102309 405.32540683 259.30509949 405.26069641 C258.38284476 405.26452196 257.46059003 405.26834751 256.5103882 405.27228898 C253.44851631 405.28253162 250.38683503 405.27864354 247.32495117 405.2746582 C245.11799447 405.27900954 242.91103927 405.28419409 240.7040863 405.29014587 C234.72877244 405.30350231 228.75352197 405.30411823 222.7781961 405.30158257 C217.78091944 405.3005105 212.78365547 405.30540232 207.78638154 405.310188 C195.31806247 405.32190472 182.84977154 405.32106476 170.38145147 405.31463119 C159.5788013 405.30946485 148.77624138 405.32071327 137.97360905 405.33972941 C126.85503142 405.35915014 115.73649042 405.36706558 104.61789495 405.36360615 C98.38627012 405.36179739 92.15472795 405.36438879 85.92311668 405.37832069 C80.06008102 405.39093881 74.19722533 405.38891723 68.33419228 405.37590981 C66.19010481 405.37355308 64.04600451 405.37624605 61.90193176 405.38453293 C44.09183904 405.44837213 28.14366872 404.62634083 14.25 392 C2.24860614 379.20281479 -0.47190759 362.77028628 -0.36076355 345.85198975 C-0.36207437 344.35257849 -0.36470587 342.85316791 -0.36853105 341.35376096 C-0.37519363 337.26481536 -0.36330218 333.17610848 -0.34819686 329.08719325 C-0.33517924 324.66609545 -0.33962999 320.24500991 -0.34190369 315.82389832 C-0.34347282 308.17440378 -0.33410139 300.52498632 -0.31719017 292.87551117 C-0.29275573 281.81581736 -0.28499036 270.75616063 -0.2812262 259.69644275 C-0.27466868 241.75056964 -0.25472652 223.80473756 -0.22631836 205.85888672 C-0.19875967 188.43147991 -0.17756937 171.00408433 -0.16479492 153.57666016 C-0.16399093 152.49055753 -0.16318694 151.40445491 -0.16235858 150.28544009 C-0.15611991 141.79075515 -0.15024928 133.29606997 -0.14449489 124.80138469 C-0.11622014 83.20088546 -0.05585902 41.600489 0 0 Z " transform="translate(695,1107)" style="fill: #FDFDFD;"/><path d="M0 0 C3.58398946 -0.0018997 7.16796864 -0.00946926 10.75195181 -0.01613522 C18.53846585 -0.0295254 26.32497462 -0.03571263 34.11149824 -0.04014587 C39.00718202 -0.04294174 43.90286393 -0.04718446 48.79854643 -0.05165005 C62.45036279 -0.06381786 76.1021777 -0.07412172 89.75399935 -0.07752514 C90.62212134 -0.0777447 91.49024332 -0.07796427 92.38467203 -0.07819049 C93.25443846 -0.07840877 94.12420488 -0.07862705 95.02032787 -0.07885194 C96.78173486 -0.07929535 98.54314186 -0.07974191 100.30454886 -0.08019161 C101.61502475 -0.08052376 101.61502475 -0.08052376 102.95197491 -0.08086261 C117.05220387 -0.08479589 131.1523807 -0.10221606 145.25258961 -0.12555113 C159.85577138 -0.14951622 174.45892728 -0.16173824 189.06212896 -0.16289306 C197.21004441 -0.16379595 205.35789121 -0.16927281 213.50578749 -0.18771267 C260.39224026 -0.2894872 307.42545513 -0.35592677 353.83506644 7.16004276 C355.03244437 7.3429285 356.2298223 7.52581425 357.46348441 7.71424198 C401.13891217 14.38536047 447.86410486 26.72389226 476.54209769 63.01551151 C489.57715851 80.89153189 497.67251075 100.07852299 502.64756644 121.59754276 C502.86678763 122.50165897 503.08600882 123.40577518 503.31187308 124.33728886 C505.21908983 133.02324169 504.83506644 139.73464599 504.83506644 149.16004276 C250.73506644 149.16004276 -3.36493356 149.16004276 -265.16493356 149.16004276 C-265.16493356 114.61437815 -252.36544552 80.05316196 -228.16493356 55.16004276 C-227.35798044 54.27961308 -226.55102731 53.39918339 -225.71962106 52.49207401 C-198.99652275 24.21345206 -157.86547767 12.88044453 -120.55311716 7.63660526 C-117.02146044 7.13986265 -113.49387606 6.61848566 -109.96571481 6.09754276 C-73.52318046 0.84838166 -36.76968921 0.00844651 0 0 Z " transform="translate(903.1649335622787,620.8399572372437)" style="fill: #FDFDFD;"/><path d="M0 0 C78.54 0 157.08 0 238 0 C238.0825 32.29875 238.165 64.5975 238.25 97.875 C238.28641602 108.06874512 238.32283203 118.26249023 238.36035156 128.76513672 C238.37841797 141.22485352 238.37841797 141.22485352 238.3817749 147.06008911 C238.38549749 151.13057193 238.4004713 155.20084551 238.42230225 159.27127075 C238.4498095 164.46919074 238.45795159 169.66680799 238.4522891 174.86479402 C238.45347256 176.76878945 238.46136265 178.67279585 238.47686052 180.57672858 C238.6383224 201.38518867 238.6383224 201.38518867 231.625 209.875 C224.44341088 215.68866738 220.04102896 217.14936425 210.94880676 217.14717102 C209.72201432 217.15268605 209.72201432 217.15268605 208.47043818 217.1583125 C205.72613538 217.16933761 202.98187045 217.17319119 200.23754883 217.17700195 C198.27128988 217.18326748 196.30503211 217.18991437 194.33877563 217.19691467 C187.87820255 217.2179466 181.41762925 217.22831617 174.95703125 217.23828125 C172.73213883 217.24232911 170.50724653 217.24644604 168.28235435 217.25063133 C157.8294872 217.26968099 147.3766271 217.28391257 136.92374593 217.2922433 C124.86149509 217.30201563 112.79942775 217.32833611 100.73724157 217.36874419 C91.41140583 217.39891249 82.08562268 217.41371286 72.7597391 217.41702431 C67.19097322 217.41937395 61.62240345 217.42832343 56.05368996 217.45348549 C50.81285969 217.47678359 45.5723544 217.48099233 40.33148575 217.47072411 C38.41147086 217.47022906 36.49143987 217.47654015 34.57147408 217.49028015 C16.04104376 217.61543618 16.04104376 217.61543618 9 213 C8.071875 212.443125 7.14375 211.88625 6.1875 211.3125 C-1.91334613 202.74874838 -0.5419699 191.60333062 -0.45410156 180.61889648 C-0.45287512 178.61533928 -0.45341207 176.61178034 -0.45556259 174.60822392 C-0.45646296 169.25904568 -0.43333642 163.91022779 -0.40512085 158.56113434 C-0.38228424 153.53557745 -0.3812653 148.51010673 -0.37841797 143.48449707 C-0.3574567 128.80211728 -0.30161181 114.11980404 -0.25 99.4375 C-0.1675 66.623125 -0.085 33.80875 0 0 Z " transform="translate(1064,1297)" style="fill: #FBFBFB;"/><path d="M0 0 C1.25073699 -0.01001407 2.50147397 -0.02002815 3.79011208 -0.03034568 C5.18336296 -0.02123805 6.57661149 -0.01176526 7.96985769 -0.00196791 C9.45192101 -0.00613864 10.93398026 -0.01206229 12.41603035 -0.01958537 C16.512524 -0.03523911 20.6086433 -0.02580179 24.70513123 -0.01247356 C29.152698 -0.00236754 33.60020536 -0.01535012 38.04776382 -0.02544689 C45.85056115 -0.0399289 53.65324789 -0.03943388 61.4560504 -0.02925825 C73.05880421 -0.01416801 84.66146423 -0.02184253 96.26421736 -0.03409148 C116.98312066 -0.05518895 137.70197473 -0.05331518 158.42088275 -0.04177583 C176.55197183 -0.03172692 194.68304283 -0.02908057 212.81413412 -0.03386641 C214.01524132 -0.03417195 215.21634852 -0.03447749 216.45385291 -0.03479229 C221.32912602 -0.03603757 226.20439911 -0.03731116 231.0796722 -0.03863134 C276.84490002 -0.0508766 322.61009642 -0.03975882 368.3753194 -0.01824375 C409.06495803 0.00073969 449.75454659 -0.00095877 490.44418478 -0.02008772 C536.12390919 -0.04149064 581.80360582 -0.05000829 627.48333454 -0.03763866 C632.34989786 -0.03635573 637.21646118 -0.03510437 642.0830245 -0.03386641 C643.28136028 -0.0335501 644.47969605 -0.03323379 645.71434503 -0.03290789 C663.83725596 -0.02835154 681.96014686 -0.0336911 700.08305502 -0.04378462 C720.68266995 -0.05520009 741.2822278 -0.05240852 761.88183558 -0.03066164 C773.42100832 -0.01888278 784.96005754 -0.01819812 796.49922717 -0.03324634 C804.19588921 -0.04217946 811.8924517 -0.03670006 819.58909893 -0.01922726 C823.98179333 -0.00966311 828.37424139 -0.00655926 832.76692849 -0.02085119 C836.75749442 -0.03370313 840.74759383 -0.02838502 844.73812527 -0.00812855 C846.17813999 -0.00407615 847.61819271 -0.00682628 849.05817752 -0.01695231 C851.00447118 -0.02967515 852.95088577 -0.01558291 854.89715862 0 C855.97752135 0.00027104 857.05788408 0.00054207 858.17098507 0.00082132 C861.62349285 0.62302892 862.80325109 1.78233113 864.94857931 4.50139666 C865.46324301 6.54325151 865.46324301 6.54325151 865.48202658 8.73162127 C865.49786291 9.55605227 865.51369925 10.38048326 865.53001547 11.22989702 C865.5250556 12.11226534 865.52009573 12.99463366 865.51498556 13.90374041 C865.52118414 14.81845613 865.52738272 15.73317186 865.53376913 16.67560625 C865.54086539 18.60800408 865.53769665 20.54046308 865.52499533 22.4728322 C865.51114189 25.42555947 865.54518675 28.37510954 865.58334494 31.32756853 C865.58429629 33.2071266 865.58243646 35.08668862 865.57748556 36.96624041 C865.59074377 37.84658449 865.60400198 38.72692858 865.61766195 39.63394976 C865.60512884 40.46153292 865.59259573 41.28911608 865.57968283 42.14177752 C865.57824018 43.22621393 865.57824018 43.22621393 865.5767684 44.33255816 C864.57429722 47.79361492 863.05893622 49.78288674 859.94857931 51.50139666 C855.26375122 52.27959734 850.5735587 52.17422195 845.83828115 52.13339567 C844.35876213 52.13891401 842.87924994 52.14662232 841.39975244 52.15632537 C837.314921 52.17670401 833.23067068 52.16577567 829.14584098 52.14993579 C824.70922018 52.1381921 820.27269762 52.15532024 815.83609486 52.1688183 C808.05404865 52.18845571 800.27217219 52.18937897 792.49011183 52.17817354 C780.91818023 52.16155571 769.3464007 52.17339096 757.77447672 52.1908814 C737.1101461 52.22112487 716.44588811 52.2225027 695.78154267 52.21152837 C677.69816933 52.20195141 659.61482391 52.20121632 641.53144979 52.20941401 C639.10865544 52.21047979 636.68586109 52.21154533 634.26306674 52.21261064 C630.61244157 52.21423165 626.9618164 52.21586394 623.31119124 52.21752366 C589.35779052 52.23278705 555.4043992 52.23827397 521.45099783 52.22292662 C520.17027988 52.22234785 518.88956192 52.22176908 517.57003434 52.22117277 C507.16873504 52.21640773 496.76743588 52.21134994 486.36613672 52.20627505 C445.78371802 52.1866787 405.2013988 52.19588785 364.61898947 52.22869158 C319.05570396 52.2654431 273.49247671 52.28257827 227.92917633 52.2692793 C223.07468718 52.26792174 218.22019801 52.26662168 213.36570883 52.26535273 C212.17035328 52.26502476 210.97499773 52.2646968 209.74341929 52.2643589 C191.6685519 52.25977435 173.59373414 52.27044157 155.51887655 52.28860331 C134.97309085 52.30919228 114.42742937 52.30870926 93.88165081 52.27997091 C82.37373139 52.26448862 70.86609424 52.26567239 59.35818963 52.29049794 C51.68111338 52.30540573 44.00425713 52.29868181 36.32720644 52.27400837 C31.946452 52.26054308 27.56625553 52.25674197 23.18552488 52.27908965 C19.20452997 52.29920261 15.22458074 52.29198609 11.2436532 52.26244314 C9.80830198 52.25666636 8.37286692 52.26106169 6.93758783 52.2765681 C-3.73261463 52.38387631 -3.73261463 52.38387631 -7.00425386 50.19465748 C-9.40790572 47.4281876 -10.67752621 44.77319389 -10.6825242 41.120049 C-10.69505732 40.31256212 -10.70759043 39.50507524 -10.72050333 38.67311907 C-10.70724512 37.81981005 -10.69398691 36.96650103 -10.68032694 36.08733416 C-10.6827389 35.19527269 -10.68515085 34.30321123 -10.6876359 33.3841176 C-10.68665999 31.50649853 -10.6733278 29.62884977 -10.64834452 27.75139666 C-10.61394 24.87800914 -10.62772172 22.00768323 -10.64712381 19.13420916 C-10.64022748 17.30607108 -10.63055703 15.47794092 -10.61782694 13.64983416 C-10.62278681 12.79247667 -10.62774668 11.93511919 -10.63285685 11.05178118 C-10.61702051 10.25059862 -10.60118418 9.44941607 -10.58486795 8.62395525 C-10.57557009 7.57188387 -10.57557009 7.57188387 -10.56608438 6.49855852 C-9.14368127 0.97889727 -5.14047789 0.00128962 0 0 Z " transform="translate(596.0514206886292,803.4986033439636)" style="fill: #FDFDFD;"/><path d="M0 0 C103.29 0 206.58 0 313 0 C313.1613254 88.94406847 313.1613254 88.94406847 313.1953125 126.12109375 C313.20314352 134.63004588 313.21122531 143.13899773 313.21972656 151.64794922 C313.22078156 152.71434903 313.22183655 153.78074884 313.22292352 154.87946379 C313.24030185 172.07636634 313.27182668 189.27321518 313.30861118 206.47008592 C313.34606997 224.12999363 313.36824628 241.78987329 313.37635398 259.44981909 C313.38183151 270.33941521 313.3991069 281.22885954 313.43166587 292.11840892 C313.45287474 299.59448714 313.45918566 307.07048734 313.45400551 314.54659343 C313.45145362 318.8543964 313.45525483 323.16193486 313.4768219 327.46969032 C313.49647539 331.4244038 313.49715016 335.37867817 313.48359558 339.33341306 C313.48192363 340.75361652 313.4868377 342.17384888 313.49953273 343.59399658 C313.64802866 361.2525634 309.62113692 378.8838405 297.140625 392.03125 C286.30828972 401.99383574 273.71102309 405.32540683 259.30509949 405.26069641 C258.38284476 405.26452196 257.46059003 405.26834751 256.5103882 405.27228898 C253.44851631 405.28253162 250.38683503 405.27864354 247.32495117 405.2746582 C245.11799447 405.27900954 242.91103927 405.28419409 240.7040863 405.29014587 C234.72877244 405.30350231 228.75352197 405.30411823 222.7781961 405.30158257 C217.78091944 405.3005105 212.78365547 405.30540232 207.78638154 405.310188 C195.31806247 405.32190472 182.84977154 405.32106476 170.38145147 405.31463119 C159.5788013 405.30946485 148.77624138 405.32071327 137.97360905 405.33972941 C126.85503142 405.35915014 115.73649042 405.36706558 104.61789495 405.36360615 C98.38627012 405.36179739 92.15472795 405.36438879 85.92311668 405.37832069 C80.06008102 405.39093881 74.19722533 405.38891723 68.33419228 405.37590981 C66.19010481 405.37355308 64.04600451 405.37624605 61.90193176 405.38453293 C44.09183904 405.44837213 28.14366872 404.62634083 14.25 392 C2.24860614 379.20281479 -0.47190759 362.77028628 -0.36076355 345.85198975 C-0.36207437 344.35257849 -0.36470587 342.85316791 -0.36853105 341.35376096 C-0.37519363 337.26481536 -0.36330218 333.17610848 -0.34819686 329.08719325 C-0.33517924 324.66609545 -0.33962999 320.24500991 -0.34190369 315.82389832 C-0.34347282 308.17440378 -0.33410139 300.52498632 -0.31719017 292.87551117 C-0.29275573 281.81581736 -0.28499036 270.75616063 -0.2812262 259.69644275 C-0.27466868 241.75056964 -0.25472652 223.80473756 -0.22631836 205.85888672 C-0.19875967 188.43147991 -0.17756937 171.00408433 -0.16479492 153.57666016 C-0.16399093 152.49055753 -0.16318694 151.40445491 -0.16235858 150.28544009 C-0.15611991 141.79075515 -0.15024928 133.29606997 -0.14449489 124.80138469 C-0.11622014 83.20088546 -0.05585902 41.600489 0 0 Z M107.45419312 20.53295898 C106.23936752 20.76414429 106.23936752 20.76414429 105 21 C103.6587355 21.25738701 103.6587355 21.25738701 102.29037476 21.51997375 C94.16187852 22.93395852 86.25646943 23.21195327 78.03038216 23.0586338 C75.78874482 23.01847588 73.54743361 22.99460558 71.30552673 22.97502136 C64.94280932 22.91760223 58.58059322 22.83930482 52.21850586 22.73266602 C48.30023377 22.66811785 44.38233776 22.62815008 40.46362114 22.60349083 C38.98081002 22.58929136 37.49805615 22.56576349 36.01555061 22.53248024 C27.04164318 21.96549454 27.04164318 21.96549454 19.11108398 25.40112305 C16.0749618 29.13878012 15.87092788 30.91050374 15.84178162 35.6625061 C15.83199217 36.87049425 15.82220272 38.0784824 15.81211662 39.32307625 C15.80620809 40.67192672 15.80039858 42.02077763 15.79467773 43.36962891 C15.78509922 44.78845438 15.77509457 46.20727703 15.76469612 47.62609673 C15.73751829 51.51003889 15.71655869 55.3939933 15.69670224 59.2779789 C15.67466255 63.39485428 15.64713122 67.51169331 15.62034607 71.62854004 C15.56975772 79.55566252 15.52476901 87.48280707 15.48209733 95.40997577 C15.44773949 101.78762936 15.41160534 108.16527054 15.37432861 114.54290771 C14.87424408 190.771132 14.87424408 190.771132 15 267 C15.00425743 267.68925568 15.00851486 268.37851135 15.01290131 269.08865356 C15.06877506 278.08325861 15.14839085 287.0771895 15.26446533 296.07122803 C15.29543347 298.52353456 15.32284383 300.97588988 15.34588623 303.42828369 C15.47017674 315.68376762 15.98707933 327.81636757 17.29296875 340.0078125 C17.39966385 341.06362518 17.50635895 342.11943787 17.61628723 343.20724487 C19.20727368 356.63624913 24.84403785 369.4035914 35.37890625 378.1796875 C48.80569067 387.50439918 62.41534063 388.300753 78.11743164 388.29052734 C79.95484692 388.29651853 81.79225969 388.30332542 83.62966919 388.31088257 C88.60320599 388.32849374 93.57667388 388.333236 98.55023885 388.33451414 C101.66459248 388.33593953 104.77892881 388.34021656 107.89327812 388.34550858 C118.77871683 388.36399557 129.66410667 388.37218121 140.54956055 388.37060547 C150.66228618 388.36940575 160.77479782 388.39047827 170.88746935 388.4220928 C179.5961192 388.4483381 188.30469953 388.45896925 197.01338857 388.45769465 C202.20279469 388.45718727 207.39201065 388.46274546 212.58137703 388.48405075 C217.46938457 388.50357169 222.35702332 388.50346391 227.24504471 388.48901749 C229.02666329 388.48694507 230.80830581 388.49153529 232.5898838 388.5037384 C250.89177443 388.6208552 267.54604945 386.09539775 281.3125 373.09375 C292.32493611 361.20282896 294.93284815 344.95152603 295.53173828 329.40063477 C295.57280764 328.39123872 295.61387699 327.38184267 295.65619087 326.34185886 C296.06554606 315.94777805 296.34287543 305.55214083 296.5546875 295.15234375 C296.57562344 294.14673841 296.59655937 293.14113308 296.61812973 292.10505486 C297.11370075 267.71691103 297.15313971 243.32960955 297.13037109 218.93725586 C297.12467759 212.79620326 297.1280639 206.6551941 297.13381863 200.51414299 C297.15439133 174.46349809 296.97425921 148.43221019 296.37205505 122.38825989 C296.09562068 110.36132879 295.90825098 98.33881917 295.83920288 86.30887032 C295.82445606 83.80590294 295.80681382 81.30297409 295.78808594 78.80003357 C295.77603747 77.17398074 295.76399316 75.54792789 295.75195312 73.921875 C295.74310844 72.72965631 295.74310844 72.72965631 295.73408508 71.51335239 C295.70490494 67.394301 295.68349419 63.27539674 295.67407227 59.15625 C295.66401754 55.01466682 295.63489738 50.87360719 295.59275246 46.73223114 C295.58054689 45.1901416 295.57530183 43.64797879 295.57755089 42.10584259 C295.57989627 39.99216911 295.55785024 37.88006258 295.5300293 35.76660156 C295.52122993 33.97974945 295.52122993 33.97974945 295.51225281 32.15679932 C294.89851158 28.37456942 293.65281972 26.71332877 291 24 C288.18302356 22.59151178 285.87319455 22.90370133 282.72241211 22.93408203 C282.07518 22.93868124 281.42794788 22.94328045 280.76110268 22.94801903 C279.34659855 22.95843009 277.93210928 22.97102919 276.51764107 22.98551941 C272.66011646 23.02390545 268.80246857 23.04251462 264.94482422 23.06494141 C264.13299085 23.07013165 263.32115747 23.07532188 262.48472309 23.0806694 C233.18323323 23.26646957 204.17929063 22.97732616 175 20 C152.38376055 17.76705315 129.91244243 16.18733585 107.45419312 20.53295898 Z " transform="translate(695,1107)" style="fill: #F6F6F6;"/><path d="M0 0 C1.46959923 0.13518539 1.46959923 0.13518539 2.96888733 0.27310181 C4.78270101 0.44160678 6.5962481 0.61302747 8.40940857 0.78842163 C21.93627297 2.06064299 35.36931829 2.6603068 48.95001984 2.49494362 C51.31349916 2.46764847 53.67687674 2.45020359 56.04046631 2.43547058 C62.74509311 2.39331189 69.44951186 2.34440631 76.15380859 2.26464844 C80.29068016 2.2161323 84.42729618 2.18714832 88.56441498 2.17090416 C90.1289373 2.16103738 91.69343202 2.14387402 93.25778961 2.11911964 C95.4345519 2.08535247 97.6101176 2.07648873 99.78710938 2.07324219 C101.02156799 2.06134354 102.25602661 2.04944489 103.52789307 2.03718567 C107.40104098 2.60098433 109.02903531 3.78999202 111.78613281 6.51147461 C113.20467733 9.34856365 112.94240039 11.76439904 112.97558594 14.9375 C112.98387924 15.60035507 112.99217255 16.26321014 113.00071716 16.94615173 C113.02742982 19.16711796 113.04728937 21.38809566 113.06738281 23.60913086 C113.08549184 25.19283095 113.10409759 26.77652544 113.12316895 28.36021423 C113.17294683 32.58123015 113.21726418 36.80228472 113.2600708 41.02337646 C113.32696155 47.56974061 113.40013835 54.11603523 113.47591782 60.66230202 C113.49541054 62.35101784 113.51458244 64.0397374 113.53345108 65.72846031 C113.64749045 75.81357156 113.80372088 85.89636043 114.03564453 95.97949219 C114.70662198 125.22467614 114.94389375 154.4517095 114.91650391 183.70458984 C114.91080414 189.84670288 114.9142077 195.98877259 114.91994095 202.13088417 C114.93909042 226.31275839 114.84417165 250.48659541 114.34082031 274.66381836 C114.32140507 275.61709078 114.30198982 276.5703632 114.28198624 277.55252266 C114.06330415 287.98515944 113.75307784 298.41451724 113.35302734 308.84179688 C113.32113752 309.78280967 113.2892477 310.72382246 113.25639153 311.69335079 C112.65369319 326.2822848 108.72880029 342.57139563 98.41113281 353.51147461 C97.23268589 354.54652644 96.02322063 355.54727381 94.78613281 356.51147461 C94.13128906 357.0412793 93.47644531 357.57108398 92.80175781 358.11694336 C83.04113564 365.33054186 70.89716832 367.66647777 58.97018433 367.6519165 C57.81750759 367.65637319 57.81750759 367.65637319 56.64154446 367.6609199 C54.0762854 367.66956521 51.51107323 367.67111162 48.94580078 367.67260742 C47.10233969 367.6772386 45.25887956 367.68226367 43.41542053 367.68765259 C38.41306388 367.70075095 33.41072063 367.70721671 28.40834951 367.71166325 C25.2794753 367.71459853 22.15060471 367.71870422 19.02173233 367.72316742 C9.22186738 367.73683651 -0.57798923 367.74650566 -10.37786305 367.75036931 C-21.67085684 367.75484669 -32.96372939 367.77238222 -44.25668633 367.80136991 C-52.99832629 367.82302569 -61.73993225 367.83307569 -70.48159873 367.83441043 C-75.69660285 367.8354558 -80.91149291 367.84130627 -86.12646866 367.85923004 C-91.03652691 367.87577785 -95.94638618 367.8778338 -100.85646248 367.86909103 C-102.65104647 367.8683242 -104.44564147 367.87261628 -106.24019814 367.88254929 C-122.76048588 367.9685722 -138.08610091 365.92243669 -151.02636719 354.51147461 C-160.87484289 343.41044962 -163.78901263 330.86507423 -165.21386719 316.51147461 C-165.29761597 315.69541245 -165.38136475 314.87935028 -165.46765137 314.03855896 C-166.10893534 307.46734777 -166.41755084 300.94336104 -166.53027344 294.34350586 C-166.55114517 293.27268265 -166.57201691 292.20185944 -166.59352112 291.09858704 C-166.66053852 287.5071266 -166.71956509 283.91561073 -166.77636719 280.32397461 C-166.79721375 279.03126648 -166.8180603 277.73855835 -166.83953857 276.40667725 C-167.31065796 246.59594647 -167.38031318 216.7877855 -167.27645874 186.97401428 C-167.23414968 174.71189332 -167.2069316 162.44986574 -167.19446135 150.18768382 C-167.17731243 133.36485985 -167.13956554 116.54221261 -167.07856369 99.71948814 C-167.04615674 90.64575015 -167.02216035 81.57215142 -167.01885986 72.49835205 C-167.01590832 64.66750033 -166.9955561 56.8369255 -166.95354325 49.00618219 C-166.93223705 44.93257471 -166.91932934 40.85936169 -166.92767906 36.78569794 C-166.93519286 33.00141378 -166.91951781 29.21794375 -166.88579917 25.43380904 C-166.87758135 24.05503226 -166.87781255 22.67617431 -166.88727212 21.29740548 C-166.95937871 9.64342717 -166.95937871 9.64342717 -163.7976532 5.70999146 C-159.87844852 2.37518065 -157.95360967 2.39412035 -152.85913086 2.4296875 C-152.20672424 2.43275406 -151.55431763 2.43582062 -150.88214111 2.4389801 C-149.4618273 2.44614326 -148.04152342 2.45553744 -146.6212368 2.46687508 C-144.36176775 2.4842855 -142.1023698 2.49457402 -139.84284973 2.50279236 C-133.41673027 2.5272052 -126.99070477 2.56236076 -120.56469727 2.60742188 C-116.63312228 2.63448739 -112.70160405 2.65134956 -108.76995277 2.66229057 C-107.28186277 2.66843219 -105.79378271 2.67834923 -104.30574608 2.69236946 C-95.09672962 2.77823364 -86.27885931 2.23764541 -77.21386719 0.51147461 C-76.40404388 0.35754242 -75.59422058 0.20361023 -74.75985718 0.04501343 C-74.10401642 -0.08207001 -73.44817566 -0.20915344 -72.77246094 -0.34008789 C-48.68586614 -5.00360088 -24.20760488 -2.22915284 0 0 Z M-69.05445862 18.69277954 C-73.83242977 19.71026587 -78.63299561 20.15750405 -83.49536133 20.57250977 C-84.98747257 20.70057259 -84.98747257 20.70057259 -86.50972748 20.83122253 C-98.70907356 21.80414443 -110.91955468 21.96847203 -123.15136719 22.13647461 C-125.50359287 22.17479876 -127.85580671 22.21385789 -130.20800781 22.25366211 C-135.8765197 22.34802812 -141.5451074 22.43349244 -147.21386719 22.51147461 C-147.2826025 59.72701853 -147.33543107 96.94255286 -147.36706318 134.15814746 C-147.37081509 138.55635948 -147.37469808 142.95457137 -147.37866211 147.3527832 C-147.37944904 148.2283516 -147.38023597 149.10392 -147.38104675 150.00602077 C-147.39408437 164.1647418 -147.41772912 178.32342613 -147.44532558 192.48212542 C-147.47342559 207.02093027 -147.49005315 221.55971596 -147.49613267 236.09854686 C-147.5002396 245.06264439 -147.51318945 254.02663812 -147.53761659 262.99070369 C-147.55353057 269.14593852 -147.55825479 275.30112005 -147.55437132 281.45637394 C-147.55245854 285.00239601 -147.55529522 288.54823729 -147.57148361 292.09422684 C-148.35138091 318.4146468 -148.35138091 318.4146468 -137.21386719 341.51147461 C-131.46895869 347.21747853 -124.1966087 348.71452747 -116.28111899 348.78362352 C-115.57585369 348.77984419 -114.87058839 348.77606487 -114.14395142 348.77217102 C-113.37238028 348.77599657 -112.60080914 348.77982211 -111.80585706 348.78376359 C-109.24208241 348.79401322 -106.67853509 348.79011686 -104.11474609 348.78613281 C-102.26774388 348.79048375 -100.42074347 348.79566817 -98.57374573 348.80162048 C-93.571621 348.81498082 -88.56957197 348.81559244 -83.56743288 348.81305718 C-79.38516046 348.81198544 -75.20290322 348.81687607 -71.02063406 348.8216626 C-61.15046317 348.83274759 -51.28033034 348.8332009 -41.41015625 348.82714844 C-31.24226785 348.82110909 -21.07451784 348.83342101 -10.90665305 348.85471851 C-2.16329908 348.87235597 6.58001092 348.87833247 15.32338202 348.87508076 C20.53940129 348.87327115 25.75532183 348.87587193 30.97132492 348.8897953 C35.8781328 348.90240389 40.78472552 348.90040089 45.69153023 348.88738441 C47.48695131 348.88502567 49.28238767 348.88772804 51.07779121 348.89600754 C63.0176795 348.94707579 75.33719738 348.90147763 84.78613281 340.51147461 C96.99980306 326.14910312 95.35798506 305.44340241 95.2503953 287.88332868 C95.23292741 284.29939321 95.23898048 280.71548164 95.24200439 277.1315155 C95.24408969 270.94006878 95.23166751 264.74879223 95.20905304 258.55738831 C95.17637895 249.60597156 95.16611038 240.65463609 95.16110107 231.70316619 C95.15237242 217.17584359 95.12582323 202.64861145 95.08789062 188.12133789 C95.05110734 174.01945443 95.0228266 159.91759565 95.00585938 145.81567383 C95.00480848 144.9446877 95.00375759 144.07370157 95.00267485 143.17632192 C94.99745425 138.80631935 94.99239952 134.43631661 94.98742723 130.06631374 C94.94604097 93.88130354 94.87565925 57.69639615 94.78613281 21.51147461 C94.13816994 21.51327886 93.49020706 21.5150831 92.82260895 21.51694202 C85.98302073 21.535136 79.14343956 21.54726178 72.30383301 21.55610657 C69.76265177 21.56015335 67.22147238 21.56566775 64.68029785 21.57276917 C41.01083957 21.63718339 17.69847327 20.8075319 -5.84887695 18.29638672 C-18.36381324 16.96908092 -30.69791305 16.19363051 -43.27636719 16.13647461 C-43.97793945 16.12880066 -44.67951172 16.12112671 -45.40234375 16.11322021 C-53.58575423 16.04105057 -61.08296352 16.7913084 -69.05445862 18.69277954 Z " transform="translate(877.2138671875,1127.488525390625)" style="fill: #060606;"/><path d="M0 0 C1.08626366 -0.00694553 2.17252731 -0.01389106 3.29170805 -0.02104706 C6.93837787 -0.03937049 10.58440108 -0.02903739 14.23109436 -0.01878357 C16.84275806 -0.0258393 19.45441767 -0.03458284 22.06607056 -0.04489136 C28.42755827 -0.06653701 34.78886715 -0.06640304 41.15037959 -0.05826581 C46.3208981 -0.05196655 51.49136444 -0.05310215 56.6618824 -0.05953789 C57.3977187 -0.06043954 58.13355501 -0.0613412 58.89168938 -0.06227018 C60.38652934 -0.06412137 61.88136928 -0.06598394 63.37620921 -0.06785773 C77.3951954 -0.08443827 91.41408098 -0.07571498 105.43306113 -0.05887216 C118.25836651 -0.04417605 131.0834376 -0.05880179 143.9087128 -0.08764232 C157.07809016 -0.11703607 170.2473594 -0.12800861 183.41676813 -0.11846012 C184.90642168 -0.11743757 186.39607525 -0.11644296 187.88572884 -0.11547661 C188.98513002 -0.11476202 188.98513002 -0.11476202 190.10674132 -0.114033 C195.27021724 -0.11186877 200.43359078 -0.12167341 205.59704399 -0.13624763 C212.54843332 -0.15559471 219.49937968 -0.14869141 226.45075035 -0.12404823 C229.00413545 -0.11902853 231.55755356 -0.12255992 234.11091232 -0.13519669 C237.59259477 -0.15106653 241.07282992 -0.1362312 244.55444336 -0.11352539 C245.56854796 -0.12536112 246.58265256 -0.13719685 247.6274876 -0.14939123 C252.11808121 -0.08975944 255.35322432 0.0253583 258.96849823 2.86142731 C261.91025631 6.15167659 262.0857254 7.70814908 262.06947327 12.07740784 C262.07870316 13.38548904 262.08793304 14.69357025 262.09744263 16.04129028 C262.07674882 17.46081633 262.05494786 18.88032661 262.03211975 20.29981995 C262.02854051 21.76282384 262.02718568 23.22583471 262.0279541 24.68884277 C262.02326991 27.74979537 261.9984858 30.8096901 261.95814514 33.87037659 C261.90712893 37.7902747 261.89570387 41.7090135 261.89798069 45.62920475 C261.89716433 48.64819368 261.88070178 51.66693005 261.85897636 54.68583488 C261.84944316 56.13108346 261.84352041 57.57636057 261.84129524 59.02163887 C261.83477852 61.04163555 261.80612903 63.06152413 261.77650452 65.08131409 C261.76506912 66.22983353 261.75363373 67.37835297 261.74185181 68.56167603 C261.29873893 71.82366032 260.65113539 73.20402946 258.3407135 75.5146637 C255.50118333 76.46117375 253.75514172 76.64237009 250.81290531 76.64888477 C249.87933234 76.65334262 248.94575937 76.65780046 247.98389632 76.66239339 C246.44277203 76.66211685 246.44277203 76.66211685 244.87051392 76.66183472 C243.23543968 76.66734975 243.23543968 76.66734975 241.56733364 76.6729762 C237.89616715 76.68403419 234.22502894 76.68786042 230.55384827 76.69166565 C227.92938649 76.69792853 225.3049256 76.70457518 222.6804657 76.71157837 C214.79286971 76.7313376 206.90527245 76.74140689 199.01765791 76.75030616 C195.3048511 76.75468869 191.59204572 76.76005547 187.87924004 76.76529503 C175.54087527 76.7823044 163.20251139 76.79680029 150.8641367 76.80404377 C147.66256268 76.8059537 144.46098866 76.80787403 141.25941467 76.80982971 C140.46366628 76.81031345 139.66791788 76.81079719 138.84805589 76.81129559 C125.94695102 76.81960242 113.04593866 76.8449516 100.14487422 76.87741039 C86.90553277 76.91044941 73.66623841 76.92848954 60.4268555 76.93168801 C52.9909284 76.93385571 45.55513634 76.94264247 38.11924934 76.96814919 C31.12857779 76.99207328 24.13815347 76.99570181 17.14744949 76.9853878 C14.57708999 76.98489004 12.00671888 76.99128051 9.43639565 77.00494385 C5.93659933 77.02251223 2.43769202 77.01563044 -1.06210327 77.00241089 C-2.59988148 77.01886476 -2.59988148 77.01886476 -4.16872591 77.03565103 C-11.00439984 76.97299626 -11.00439984 76.97299626 -14.28944397 74.67390728 C-16.20241048 71.6585529 -16.17414628 69.44146818 -16.19273376 65.8818512 C-16.20134933 65.22444946 -16.2099649 64.56704773 -16.21884155 63.88972473 C-16.24149374 61.72263409 -16.23476575 59.55683732 -16.22569275 57.3896637 C-16.23092847 55.88038245 -16.23720476 54.37110448 -16.24447632 52.86183167 C-16.25487882 49.70103033 -16.25032129 46.54067924 -16.23570251 43.37989807 C-16.21850746 39.33081917 -16.24201743 35.28315834 -16.27719212 31.23423767 C-16.29915966 28.11832796 -16.29772652 25.002758 -16.2894268 21.88679504 C-16.28860704 20.39406274 -16.29547536 18.90130555 -16.31019783 17.40864563 C-16.32763603 15.3207039 -16.31311451 13.23531549 -16.29039001 11.1474762 C-16.28942825 9.96041077 -16.28846649 8.77334534 -16.28747559 7.55030823 C-15.6592865 4.5146637 -15.6592865 4.5146637 -13.78623009 2.35710239 C-9.22300376 -0.33161409 -5.20824299 -0.04223008 0 0 Z " transform="translate(1059.6592864990234,1201.485336303711)" style="fill: #FEFEFE;"/><path d="M0 0 C1.22267578 -0.02449219 2.44535156 -0.04898437 3.70507812 -0.07421875 C20.89123975 -0.12745415 37.31301439 4.65005717 53.77337646 9.15097046 C81.03398401 16.55959281 108.17650905 22.92232327 136.59692383 18.35400391 C138.31810173 18.08011337 138.31810173 18.08011337 140.0740509 17.8006897 C140.93648911 17.6602121 141.79892731 17.5197345 142.6875 17.375 C142.75705363 28.35395845 142.81033859 39.33286435 142.84293652 50.31199837 C142.858583 55.4102266 142.87980283 60.50830392 142.91381836 65.60644531 C142.94644789 70.52773392 142.96436067 75.44887751 142.97213173 80.37026596 C142.97766877 82.2465226 142.98848128 84.12277143 143.00469017 85.99896622 C143.02651221 88.62985551 143.02946493 91.26014784 143.02807617 93.89111328 C143.038862 94.6643544 143.04964783 95.43759552 143.0607605 96.23426819 C143.03341311 101.0316808 142.38224044 104.3773659 139.6875 108.375 C135.74138928 111.33058856 132.84756321 111.7526655 127.96972656 111.76268005 C126.9763069 111.77075836 126.9763069 111.77075836 125.96281815 111.77899987 C123.7510629 111.79326923 121.53990702 111.78617867 119.328125 111.77905273 C117.73945638 111.78475681 116.15079185 111.79172122 114.56213379 111.79985046 C110.25225513 111.81779157 105.94257996 111.81661189 101.63267517 111.81090808 C98.03412535 111.80781803 94.43561471 111.81390653 90.83707047 111.81994683 C82.3483784 111.83399316 73.85978698 111.83242947 65.37109375 111.82104492 C56.61354344 111.80955936 47.8562992 111.82364642 39.09878922 111.8504414 C31.57848071 111.87258949 24.05826835 111.87923792 16.53792953 111.87336498 C12.04689961 111.86999257 7.55606597 111.87242948 3.06506348 111.88961601 C-1.1572466 111.90506928 -5.37910262 111.90114788 -9.60139465 111.88231087 C-11.15057793 111.87862067 -12.69979473 111.88174604 -14.24894714 111.89219666 C-16.36473167 111.90537979 -18.47900699 111.89388563 -20.59472656 111.87620544 C-21.77826721 111.87599616 -22.96180786 111.87578688 -24.18121338 111.87557125 C-27.99964652 111.26515193 -29.60632176 110.0977892 -32.3125 107.375 C-34.12399258 104.59691841 -34.56152686 102.49936665 -34.55300903 99.21148682 C-34.55575836 98.38981522 -34.55850769 97.56814362 -34.56134033 96.72157288 C-34.55414978 95.82893234 -34.54695923 94.93629181 -34.53955078 94.01660156 C-34.53984283 93.06992111 -34.54013489 92.12324066 -34.54043579 91.14787292 C-34.53904302 88.02036355 -34.52348416 84.89309273 -34.5078125 81.765625 C-34.50408219 79.59657929 -34.5012353 77.42753189 -34.49923706 75.25848389 C-34.49160207 69.55055079 -34.47195465 63.84271953 -34.4498291 58.13482666 C-34.42936784 52.30995054 -34.42023474 46.48505795 -34.41015625 40.66015625 C-34.3887087 29.2317261 -34.3545743 17.80337152 -34.3125 6.375 C-32.56929227 5.73201634 -30.82522795 5.09135469 -29.08081055 4.45166016 C-28.10967819 4.0946402 -27.13854584 3.73762024 -26.13798523 3.36978149 C-17.44097924 0.30778686 -9.18759401 0.00936077 0 0 Z " transform="translate(1128.3125,1372.625)" style="fill: #FEFEFE;"/><path d="M0 0 C0.99 0 1.98 0 3 0 C7.83889069 32.48234069 9.33684879 65.00430879 10.46972656 97.78564453 C10.59193713 101.27893704 10.72007991 104.77200121 10.84814072 108.26508331 C11.27146444 119.84221799 11.64906655 131.42045723 12 143 C12.02621933 143.8488678 12.05243866 144.6977356 12.07945251 145.57232666 C13.23372355 183.17736906 13.1549324 220.78883982 13.12856978 258.40731937 C13.12480448 264.3985051 13.12615366 270.38967426 13.13037109 276.38085938 C13.1576847 316.26513133 13.04266896 356.12631323 12 396 C11.97950089 396.80137642 11.95900177 397.60275284 11.93788147 398.42841339 C11.72120104 406.89495834 11.4743668 415.35996379 11.17993164 423.82421875 C11.05777645 427.38779803 10.94789274 430.95165177 10.83789062 434.515625 C9.55665858 473.58936945 9.55665858 473.58936945 1.24609375 481.71484375 C-3.10307316 484.88666043 -7.26324112 485.78409766 -12.60546875 485.48046875 C-18.0845818 484.38107086 -20.95246874 481.49956925 -24.0769043 477.02685547 C-26.68271756 472.36553861 -26.49745377 468.02111661 -26.33984375 462.79296875 C-26.32436996 461.79653854 -26.30889618 460.80010834 -26.29295349 459.77348328 C-26.04406092 447.27355177 -25.30512206 434.79078801 -24.5625 422.3125 C-24.42587099 419.91734966 -24.2898012 417.52216736 -24.15429688 415.12695312 C-24.02133627 412.80986692 -23.88789046 410.49280849 -23.75390625 408.17578125 C-23.6934462 407.12868484 -23.63298615 406.08158844 -23.57069397 405.00276184 C-23.27602225 400.06111733 -22.93402193 395.1309557 -22.49780273 390.19970703 C-21.94328022 383.71366052 -21.64271476 377.22373846 -21.36924744 370.72046089 C-21.27874262 368.56930996 -21.18518565 366.41830894 -21.09094238 364.26731873 C-20.89132611 359.69915786 -20.69544157 355.1308411 -20.5 350.5625 C-20.27305856 345.26234645 -20.04449596 339.96227056 -19.81248474 334.66233635 C-19.72155011 332.56838436 -19.63321572 330.47433413 -19.54504395 328.38026428 C-19.23314349 321.2273342 -18.80592192 314.10018613 -18.2286377 306.96388245 C-17.89825663 302.68107758 -17.68980547 298.39644733 -17.5 294.10546875 C-17.45939453 293.22957596 -17.41878906 292.35368317 -17.37695312 291.45124817 C-17.24943349 288.69674741 -17.12447054 285.94214008 -17 283.1875 C-16.83494256 279.55591393 -16.6683728 275.92440264 -16.5 272.29296875 C-16.45879532 271.40042389 -16.41759064 270.50787903 -16.37513733 269.58828735 C-16.1356575 264.51388975 -15.84174987 259.44741173 -15.49609375 254.37890625 C-14.80979061 243.77063975 -14.52569894 233.14642953 -14.18432617 222.52252197 C-13.42361053 198.96587198 -12.49989488 175.42280464 -11.37045288 151.88119507 C-11.07206444 145.62991717 -10.79872929 139.37783434 -10.53515625 133.125 C-6.14744196 29.82163336 -6.14744196 29.82163336 0 0 Z " transform="translate(1372,992)" style="fill: #050504;"/><path d="M0 0 C0.88107422 0.20318848 1.76214844 0.40637695 2.66992188 0.61572266 C9.74385335 2.27245716 16.76219964 4.11421835 23.76953125 6.03125 C35.08408925 9.12497699 46.51075816 11.64168194 58 14 C59.47533203 14.309375 59.47533203 14.309375 60.98046875 14.625 C77.25943458 16.64670856 93.46481799 15.178394 109 10 C114.99452801 9.55596089 118.05011313 10.55310075 122.616395 14.34078217 C124.36760365 16.44082996 124.37889868 17.525003 124.38768005 20.23498535 C124.39758469 21.09828461 124.40748932 21.96158386 124.41769409 22.8510437 C124.41319244 23.79545319 124.4086908 24.73986267 124.40405273 25.71289062 C124.41091599 26.71003082 124.41777924 27.70717102 124.42485046 28.73452759 C124.44319819 32.04191207 124.43926687 35.34882536 124.43359375 38.65625 C124.43815432 40.95731765 124.44345952 43.25838394 124.44947815 45.55944824 C124.45842685 50.39157629 124.45596912 55.22353927 124.44604492 60.05566406 C124.4345999 66.22807414 124.45468943 72.39990833 124.48396206 78.57224274 C124.50237966 83.33027739 124.50201969 88.08817579 124.49632454 92.84623718 C124.49617175 95.12026269 124.50218053 97.39429768 124.51461601 99.66828918 C124.52961481 102.86320104 124.51878038 106.05707218 124.50170898 109.25195312 C124.51621094 110.64427658 124.51621094 110.64427658 124.53100586 112.06472778 C124.42535226 121.58199068 121.70456624 130.2840936 115.0703125 137.27734375 C108.69177753 142.58476624 101.53617318 145.11449984 93.34205627 145.16062927 C92.66192299 145.16571709 91.98178971 145.17080491 91.28104633 145.17604691 C88.99669241 145.19177165 86.71237014 145.20029667 84.42797852 145.20874023 C82.79185282 145.21827908 81.15572914 145.22817025 79.51960754 145.23838806 C74.13939815 145.26978324 68.75917329 145.29004765 63.37890625 145.30859375 C62.00457747 145.31353973 62.00457747 145.31353973 60.60248446 145.31858563 C51.95564114 145.34937786 43.30879429 145.37607763 34.66191196 145.39300442 C23.6160083 145.41488264 12.57059249 145.45678715 1.52488381 145.52644199 C-6.24854548 145.57378832 -14.02184369 145.59795251 -21.7954126 145.6052013 C-26.43385085 145.61014341 -31.0717394 145.62508527 -35.71002007 145.6649456 C-40.08097221 145.70201155 -44.4510653 145.71015693 -48.82214546 145.69693947 C-50.41841201 145.6969931 -52.01471855 145.70715737 -53.61083984 145.7286911 C-64.50276762 145.86766885 -73.44001478 144.44193286 -82.13774776 137.22659969 C-89.77403366 129.37770994 -91.60576819 119.40965373 -91.51757812 108.82470703 C-91.5245874 107.76799301 -91.53159668 106.71127899 -91.53881836 105.62254333 C-91.5562703 102.16735731 -91.54482594 98.71300524 -91.53125 95.2578125 C-91.53394737 92.84170374 -91.53783183 90.42559603 -91.54284668 88.00949097 C-91.54872334 82.96455472 -91.54023311 77.91990302 -91.52148438 72.875 C-91.4986227 66.40851445 -91.51187568 59.94269039 -91.53577423 53.47622871 C-91.55021886 48.49540201 -91.54563352 43.51473262 -91.53526306 38.53390121 C-91.53259591 36.14886267 -91.53586509 33.76380983 -91.54518127 31.37878799 C-91.5553325 28.05178083 -91.5398677 24.72585249 -91.51757812 21.39892578 C-91.52567505 20.41495316 -91.53377197 19.43098053 -91.54211426 18.41719055 C-91.48890226 14.13298336 -91.41055562 11.67379858 -89.1439209 7.9538269 C-84.60319581 3.81571208 -78.72465165 1.97597276 -73 0 C-72.37416016 -0.2160791 -71.74832031 -0.4321582 -71.10351562 -0.65478516 C-48.94780792 -7.82180365 -22.26601184 -5.19346851 0 0 Z M-63 18 C-64.55755417 18.52002492 -66.11529735 19.03948393 -67.67318726 19.5585022 C-68.48349585 19.82849344 -69.29380444 20.09848469 -70.12866783 20.37665749 C-71.05497725 20.68521203 -71.05497725 20.68521203 -72 21 C-72.09270102 33.54354141 -72.16376579 46.08700124 -72.20724869 58.63081551 C-72.22811886 64.45549753 -72.25642663 70.2799451 -72.30175781 76.10449219 C-72.3452351 81.72604551 -72.3691414 87.34737339 -72.37950897 92.96908188 C-72.38689689 95.11329573 -72.40132377 97.25749732 -72.42292023 99.40161514 C-72.45197867 102.40619777 -72.45595491 105.40985012 -72.45410156 108.41455078 C-72.46848267 109.30000076 -72.48286377 110.18545074 -72.49768066 111.09773254 C-72.46132608 116.54842367 -71.67399511 119.70186711 -68 124 C-64.40524336 126.39650443 -62.80335301 126.25532781 -58.52946472 126.26742554 C-57.53966668 126.27422221 -57.53966668 126.27422221 -56.52987272 126.28115618 C-54.31435933 126.29383654 -52.09909063 126.2921775 -49.88354492 126.29052734 C-48.29679548 126.29651041 -46.71004895 126.30331544 -45.12330627 126.31088257 C-40.80915354 126.32857415 -36.49508011 126.33323932 -32.18089461 126.33451414 C-28.58006046 126.33641209 -24.97924482 126.34376858 -21.37841779 126.35085833 C-12.88207044 126.3671525 -4.38576548 126.37202641 4.1105957 126.37060547 C12.87488827 126.3694043 21.63893446 126.39049886 30.40316468 126.4220928 C37.92683535 126.44824817 45.45042552 126.45897305 52.9741413 126.45769465 C57.46804087 126.45718472 61.96172165 126.46288453 66.45557594 126.48405075 C70.68358824 126.50342033 74.91117279 126.50356654 79.13920021 126.48901749 C80.68958155 126.48692656 82.23998956 126.49164724 83.79032516 126.5037384 C85.91022296 126.51919844 88.02864726 126.50988005 90.14851379 126.49447632 C91.33373029 126.49556585 92.51894678 126.49665539 93.74007893 126.49777794 C97.70484289 125.89237309 99.88086195 124.47512616 103 122 C105.54575176 117.83408686 105.27097543 113.37506996 105.22705078 108.62963867 C105.22734283 107.79985504 105.22763489 106.97007141 105.22793579 106.11514282 C105.22654661 103.38264371 105.21100483 100.65042001 105.1953125 97.91796875 C105.19158091 96.01939544 105.18873462 94.12082019 105.18673706 92.22224426 C105.17911214 87.23274388 105.15947342 82.2433605 105.1373291 77.25390625 C105.1168461 72.15952131 105.10773009 67.0651174 105.09765625 61.97070312 C105.07622648 51.98041743 105.04210428 41.99021846 105 32 C104.1375618 32.1404776 103.2751236 32.2809552 102.3865509 32.4256897 C100.665373 32.69958023 100.665373 32.69958023 98.90942383 32.97900391 C97.77886063 33.16073151 96.64829742 33.34245911 95.48347473 33.5296936 C66.4548416 37.44886997 38.93463379 30.0382499 11.27563477 22.32910156 C-5.05426806 17.7969305 -20.3340477 14.46540731 -37.375 14.625 C-38.63699219 14.61339844 -39.89898438 14.60179687 -41.19921875 14.58984375 C-48.95696281 14.61401118 -55.65957849 15.52042502 -63 18 Z " transform="translate(1166,1358)" style="fill: #050505;"/><path d="M0 0 C0 0.66 0 1.32 0 2 C-9.87359453 4.11595708 -19.64823311 5.67664479 -29.6875 6.8125 C-87.92491621 13.73631759 -150.79876325 24.4307108 -195 66 C-195.90298828 66.80630859 -195.90298828 66.80630859 -196.82421875 67.62890625 C-207.66145968 77.70829816 -214.02831303 90.49840165 -219.99731445 103.79345703 C-221.00698656 106.01537485 -222.03574673 108.22442626 -223.09765625 110.421875 C-223.40195557 111.05448242 -223.70625488 111.68708984 -224.01977539 112.33886719 C-226.12503863 115.90654118 -229.6372275 117.75815167 -233 120 C-238.59822216 120.82107258 -243.2491878 120.20403613 -248 117 C-252.93098529 111.53593522 -253.41960704 108.0027185 -253.33203125 100.7578125 C-251.31019869 77.8754252 -233.9397087 56.18828382 -217.2578125 41.640625 C-162.22402365 -3.56934361 -68.26760881 -16.56237604 0 0 Z " transform="translate(911,641)" style="fill: #060606;"/><path d="M0 0 C37.62 0 75.24 0 114 0 C114 6.93 114 13.86 114 21 C76.38 21 38.76 21 0 21 C0 14.07 0 7.14 0 0 Z " transform="translate(966,560)" style="fill: #FCFCFC;"/><path d="M0 0 C4.62 0 9.24 0 14 0 C14 17.49 14 34.98 14 53 C9.38 53 4.76 53 0 53 C0 35.51 0 18.02 0 0 Z " transform="translate(990,471)" style="fill: #F3F3F3;"/><path d="M0 0 C4.62 0 9.24 0 14 0 C14 17.16 14 34.32 14 52 C9.38 52 4.76 52 0 52 C0 34.84 0 17.68 0 0 Z " transform="translate(1095,472)" style="fill: #F1F1F1;"/><path d="M0 0 C4.62 0 9.24 0 14 0 C14 17.16 14 34.32 14 52 C9.38 52 4.76 52 0 52 C0 34.84 0 17.68 0 0 Z " transform="translate(1016,471)" style="fill: #F5F5F5;"/><path d="M0 0 C4.62 0 9.24 0 14 0 C14 16.83 14 33.66 14 51 C9.38 51 4.76 51 0 51 C0 34.17 0 17.34 0 0 Z " transform="translate(1069,472)" style="fill: #FCFCFC;"/><path d="M0 0 C4.29 0 8.58 0 13 0 C13 16.83 13 33.66 13 51 C8.71 51 4.42 51 0 51 C0 34.17 0 17.34 0 0 Z " transform="translate(1043,472)" style="fill: #FEFEFE;"/><path d="M0 0 C4.29 0 8.58 0 13 0 C13 16.83 13 33.66 13 51 C8.71 51 4.42 51 0 51 C0 34.17 0 17.34 0 0 Z " transform="translate(964,472)" style="fill: #FCFCFC;"/><path d="M0 0 C4.29 0 8.58 0 13 0 C13 16.5 13 33 13 50 C8.71 50 4.42 50 0 50 C0 33.5 0 17 0 0 Z " transform="translate(938,473)" style="fill: #FEFEFE;"/><path d="M0 0 C3.77062132 2.07014504 7.005306 4.12142833 9 8 C9.5494224 12.23840134 9.29119754 14.43917511 7.3125 18.25 C3.97520532 22.21867475 1.71950578 23.74989007 -3.4375 24.5 C-8.16675851 23.83624442 -9.65681791 22.34318209 -13 19 C-14.85110583 15.29778834 -14.46454795 11.04093083 -14 7 C-10.62437586 1.21321576 -6.63336797 -0.79600416 0 0 Z " transform="translate(755,1168)" style="fill: #080808;"/><path d="M0 0 C4.07877339 0.05826819 6.55823288 0.5276104 9.75 3.25 C11.89010569 5.98047967 12.68507755 7.74144081 13.125 11.1875 C12.58098732 15.63027019 11.0492122 18.750909 8.125 22.125 C4.36126311 23.90782274 0.82460964 24.02544474 -3.25 23.25 C-6.31881816 21.53095248 -8.65357084 19.44285833 -10.25 16.25 C-10.66948626 12.8641466 -10.74414522 9.62931569 -10.25 6.25 C-7.8125 3.1875 -7.8125 3.1875 -5.25 1.25 C-3.68966377 -0.31033623 -2.16052864 0.04292441 0 0 Z " transform="translate(847.25,1414.75)" style="fill: #080808;"/><path d="M0 0 C4.54658699 1.8599674 6.81694943 4.63389885 9 9 C9.07738607 13.33361971 8.26316176 16.02317139 5.625 19.375 C2.48872284 22.51127716 0.99897201 22.92600207 -3.375 23.25 C-7.32313087 22.97771511 -8.98150144 22.51541547 -12 20 C-14.61525329 15.94184834 -15.70124748 12.80855413 -15 8 C-11.22972111 1.23949992 -7.72902361 -0.95476174 0 0 Z " transform="translate(952,1163)" style="fill: #090909;"/><path d="M0 0 C2.70552388 2.19823815 4.44778333 3.89556667 6 7 C6.57791538 14.0505676 6.57791538 14.0505676 4.25 17.875 C0.35350691 21.55502125 -2.46114641 22.51407242 -7.96484375 22.390625 C-11.65791953 21.68178128 -13.43643982 19.68861189 -16 17 C-17.23829052 13.28512845 -17.5503822 9.86021488 -17 6 C-12.78252138 -0.92871488 -7.52666883 -2.11981047 0 0 Z " transform="translate(927,1398)" style="fill: #070707;"/><path d="M0 0 C3.90209164 0.92334746 5.69749115 2.64898086 8.41015625 5.5703125 C10.00942775 8.7688555 9.77143533 12.09132879 9.41015625 15.5703125 C7.9930421 19.11309788 6.81142703 20.31171578 3.59765625 22.3828125 C-0.87358163 24.04856779 -3.84583675 24.30036194 -8.27734375 22.4453125 C-12.18190359 19.27945317 -13.35258644 16.02021827 -14.15234375 11.1328125 C-13.49889971 6.99433358 -12.4302669 4.90871879 -9.56640625 1.90234375 C-6.42335648 -0.21579849 -3.71182715 -0.2575325 0 0 Z " transform="translate(937.58984375,1274.4296875)" style="fill: #080908;"/><path d="M0 0 C4.06219391 0.04520725 6.5258907 0.61209239 9.75 3.25 C12.58054764 7.49582147 12.52409187 11.26484837 11.75 16.25 C9.8662485 19.87259904 7.68073106 21.93975631 3.75 23.25 C-2.13400994 23.91611433 -2.13400994 23.91611433 -5.00390625 22.203125 C-8.00253673 19.74641569 -10.03927696 17.95083596 -10.5234375 14.04296875 C-10.80026203 6.94135486 -10.80026203 6.94135486 -7.8125 3.1875 C-6.966875 2.548125 -6.12125 1.90875 -5.25 1.25 C-3.68966377 -0.31033623 -2.16052864 0.04292441 0 0 Z " transform="translate(776.25,1293.75)" style="fill: #060706;"/><path d="M0 0 C3.77062132 2.07014504 7.005306 4.12142833 9 8 C9.56172694 12.33332214 9.29780107 14.45574287 7.1875 18.3125 C4.90782146 21.11324792 3.31670724 22.76790245 -0.3046875 23.40625 C-7.11061562 23.65449054 -7.11061562 23.65449054 -9.73046875 21.7265625 C-12.36301689 18.56132867 -13.88262221 15.85518107 -14.4375 11.8125 C-13.86024036 6.78209455 -11.65900216 4.35566519 -8 1 C-5.13391871 -0.43304064 -3.18699217 -0.30644155 0 0 Z " transform="translate(793,1371)" style="fill: #080808;"/><path d="M0 0 C3.62342508 1.6470114 6.16816086 3.4327343 8 7 C8.51009142 12.3559599 8.4708491 15.66143863 5 20 C2.40063719 22.79190821 0.99140092 23.00110956 -2.875 23.5 C-7.64239584 23.33960164 -9.73679498 21.34279539 -13 18 C-14.74221711 14.51556578 -14.58675154 10.80112955 -14 7 C-10.57817296 0.8202825 -6.81779 -0.46222305 0 0 Z " transform="translate(869,1305)" style="fill: #050505;"/><path d="M0 0 C3.0603333 1.7655769 5.50587755 3.50587755 8 6 C8.71405242 11.1561227 8.8312408 15.61459867 6.125 20.125 C2.39139454 23.41935776 -0.66294486 23.44681888 -5.515625 23.42578125 C-8.37441739 22.93583098 -9.23871543 22.3296337 -11.0625 20.125 C-13.8428396 15.64058129 -14.61539056 13.36268913 -14 8 C-10.29859052 2.22580121 -7.05815984 -0.67866922 0 0 Z " transform="translate(802,1201)" style="fill: #070707;"/><path d="M0 0 C3.47485838 2.07012839 5.74352278 4.11634312 7 8 C7.52055293 11.99090581 7.16996586 13.69523363 5.1875 17.25 C3.00736386 19.99074258 1.46430532 21.76417555 -2.0859375 22.3359375 C-6.11172399 22.40463693 -8.40531432 22.35428083 -11.9375 20.25 C-14.98332377 16.92728316 -15.85349415 15.13018796 -16.4375 10.625 C-15.85694294 5.8146701 -14.38607407 4.38607407 -11 1 C-7.53749757 -0.73125121 -3.78591771 -0.47815224 0 0 Z " transform="translate(785,1438)" style="fill: #070707;"/><path d="M0 0 C3.63467079 1.62400184 4.77408696 2.66113044 7 6 C7.61414419 10.25912987 7.43727155 13.97241187 5.75 17.9375 C3.43658568 20.66402402 1.34460874 21.77148868 -2.18359375 22.37109375 C-6.61365149 22.50161538 -8.3991145 22.47570102 -12 19.625 C-15.40592204 15.15472732 -15.71571819 11.52534445 -15 6 C-11.03325985 -0.34678423 -7.04525094 -0.69477388 0 0 Z " transform="translate(930,1211)" style="fill: #060606;"/><path d="M0 0 C0 16.5 0 33 0 50 C-4 49 -4 49 -6 47 C-6.46613415 44.29154735 -6.80505822 41.66788416 -7.0625 38.9375 C-7.1860083 37.70906372 -7.1860083 37.70906372 -7.31201172 36.45581055 C-8.35261337 25.33373649 -8.66371865 14.16153337 -9 3 C-5.55930376 0.70620251 -4.27709699 0 0 0 Z " transform="translate(925,474)" style="fill: #F4F4F3;"/><path d="M0 0 C5 1 5 1 8 3 C8.35644531 5.06860352 8.35644531 5.06860352 8.328125 7.62890625 C8.32377441 8.57386963 8.31942383 9.51883301 8.31494141 10.49243164 C8.29351074 11.5055542 8.27208008 12.51867676 8.25 13.5625 C8.23759277 14.59431396 8.22518555 15.62612793 8.21240234 16.68920898 C7.8317566 41.52922751 7.8317566 41.52922751 5 49 C2.525 49.495 2.525 49.495 0 50 C0 33.5 0 17 0 0 Z " transform="translate(1122,474)" style="fill: #F9F9F9;"/><path d="M0 0 C2.71049169 1.3937977 3.88911516 2.63169017 6 5 C6.6937386 8.69993918 6.27296546 10.44166155 4.625 13.8125 C3 16 3 16 1 17 C-2.01271822 17.34572176 -4.09248705 17.57706364 -7 17 C-10.0625 14.4375 -10.0625 14.4375 -12 11 C-12.06874509 7.01278471 -11.58331487 4.8749723 -9.375 1.5625 C-5.98192109 -0.66978876 -3.99040706 -0.6192011 0 0 Z " transform="translate(749,1335)" style="fill: #090909;"/><path d="M0 0 C2.5625 1.5 2.5625 1.5 4 4 C4.7099846 8.9698922 4.79117716 10.84919686 1.9375 15 C-1.77807226 17.52975133 -3.5882483 17.7878128 -8 17 C-10.93052231 15.00475077 -12.64521503 13.57163515 -13.4453125 10.02734375 C-13.63099028 6.71609006 -13.21285614 4.37018459 -11.5625 1.5 C-7.74317604 -0.73570183 -4.31481639 -0.76004105 0 0 Z " transform="translate(955,1320)" style="fill: #070707;"/><path d="M0 0 C2.64971542 1.80662415 4.55620529 3.11241058 6 6 C6.43023798 9.87214182 6.31669086 11.52496371 4.125 14.8125 C1.64122682 17.36932533 0.68979545 17.89269849 -2.8125 18.4375 C-6 18 -6 18 -8.875 15.4375 C-10.69515734 12.92366706 -11.07156915 11.62914167 -11.6875 8.4375 C-11 5 -11 5 -8.3125 2.0625 C-3.64795918 -0.84183673 -3.64795918 -0.84183673 0 0 Z " transform="translate(887,1170)" style="fill: #0D0D0D;"/><path d="M0 0 C3.44652326 2.44128731 4.78056289 3.82966874 5.5625 8 C4.87642343 11.65907504 3.57265686 13.35167676 1 16 C-1.88861709 17.44430855 -3.79647701 17.37688506 -7 17 C-9.86972996 15.00366611 -11.65210765 13.52770117 -12.44921875 10.02734375 C-12.63063966 6.6804408 -12.22262069 4.37103449 -10.5 1.5 C-7.01402996 -0.59158203 -3.89784294 -0.8876276 0 0 Z " transform="translate(904,1448)" style="fill: #070707;"/><path d="M0 0 C4.25331827 0.86802414 6.18199992 2.40158324 9.0625 5.625 C9.75 9.125 9.75 9.125 9.0625 12.625 C7.06350675 15.56102134 5.61729057 17.24630844 2.08984375 18.10546875 C-1.61383097 18.36161074 -3.57703096 17.92238696 -6.4375 15.5625 C-8.33225662 11.85193494 -8.59904724 9.74129392 -7.9375 5.625 C-5.51605492 2.27770827 -4.06319154 0.86450884 0 0 Z " transform="translate(843.9375,1264.375)" style="fill: #070707;"/><path d="M0 0 C4.4297642 0.79102932 5.89210172 1.98974785 8.5 5.625 C9.2446324 9.59637281 8.87266878 11.06599683 6.625 14.4375 C4.09153176 17.04548201 3.22742193 17.5459324 -0.375 17.9375 C-3.5 17.625 -3.5 17.625 -5.8125 15.75 C-7.81593096 13.22716101 -8.44686688 12.02349841 -8.875 8.8125 C-8.5 5.625 -8.5 5.625 -6.4375 2.75 C-3.5 0.625 -3.5 0.625 0 0 Z " transform="translate(826.5,1160.375)" style="fill: #0A0A0A;"/><path d="M0 0 C3.80470451 0.7133821 5.41196019 1.67868421 8 4.5625 C9.125 7.9375 9.125 7.9375 9 11.5625 C7 15 7 15 4 17.5625 C0.5 18.25 0.5 18.25 -3 17.5625 C-6.69186542 14.97033917 -7.82883761 13.52100936 -8.625 9.0625 C-7.67703424 3.75389177 -5.38444917 1.00958422 0 0 Z " transform="translate(751,1402.4375)" style="fill: #0B0B0B;"/><path d="M0 0 C2.4375 1.625 2.4375 1.625 4 4 C4.72125695 8.40768137 4.52001338 10.25937488 1.9375 13.9375 C-1.74062512 16.52001338 -3.59231863 16.72125695 -8 16 C-11.27522945 13.84524379 -11.90229594 12.3358577 -13 8.5625 C-13 5 -13 5 -11.1875 2.125 C-7.34864131 -1.60417702 -5.15505453 -1.15544326 0 0 Z " transform="translate(909,1348)" style="fill: #0A0A0A;"/><path d="M0 0 C2.5 1.5625 2.5 1.5625 4 4 C4.59363772 8.08125936 4.41259601 10.24082335 2.4375 13.875 C-0.79638713 16.69428622 -2.72539746 17.14998605 -7 17 C-10.60725504 14.49060519 -11.78199722 12.67823086 -13.125 8.5 C-13 5 -13 5 -11.0625 2.0625 C-6.86229946 -0.76620649 -4.99614519 -0.71373503 0 0 Z " transform="translate(863,1221)" style="fill: #0A0A0A;"/><path d="M0 0 C3.76991795 0.70685962 5.40418092 1.74418215 8 4.5625 C9.0625 7.4375 9.0625 7.4375 9 10.5625 C5.98701299 16.06899351 5.98701299 16.06899351 3 17.5625 C-1.0130324 18.09757099 -2.53928033 17.89301628 -5.875 15.5 C-8 12.5625 -8 12.5625 -8.625 9.0625 C-7.67703424 3.75389177 -5.38444917 1.00958422 0 0 Z " transform="translate(856,1367.4375)" style="fill: #080808;"/><path d="M0 0 C4.14182881 0.862881 5.56226471 2.18349135 8 5.625 C8.8876276 9.52284294 8.59158203 12.63902996 6.5 16.125 C2.97690664 18.23885602 0.00332769 18.5602036 -4 17.625 C-7.24985922 14.94386615 -7.89575014 13.27366582 -8.5625 9.125 C-8 5.625 -8 5.625 -5.875 2.6875 C-3 0.625 -3 0.625 0 0 Z " transform="translate(753,1245.375)" style="fill: #090909;"/></svg>