<?xml version="1.0" encoding="UTF-8" standalone="no"?><!DOCTYPE svg PUBLIC "-//W3C//DTD SVG 1.1//EN" "http://www.w3.org/Graphics/SVG/1.1/DTD/svg11.dtd"><svg width="100%" height="100%" viewBox="0 0 417 417" version="1.1" xmlns="http://www.w3.org/2000/svg" xmlns:xlink="http://www.w3.org/1999/xlink" xml:space="preserve" xmlns:serif="http://www.serif.com/" style="fill-rule:evenodd;clip-rule:evenodd;"><path d="M375,320.833l0,4.167c0,4.599 -3.734,8.333 -8.333,8.333l-316.667,0c-4.599,0 -8.333,-3.734 -8.333,-8.333l-0,-4.167c-0,-4.599 3.734,-8.333 8.333,-8.333l316.667,0c4.599,0 8.333,3.734 8.333,8.333Z" style="fill:#ccc;"/><rect x="166.667" y="145.833" width="83.333" height="187.5" style="fill:#f0f0f0;stroke:#333;stroke-width:6.25px;"/><path d="M166.667,200l83.333,0" style="fill:none;fill-rule:nonzero;stroke:#aaa;stroke-width:4.17px;"/><path d="M166.667,241.667l83.333,-0" style="fill:none;fill-rule:nonzero;stroke:#aaa;stroke-width:4.17px;"/><path d="M166.667,283.333l83.333,0" style="fill:none;fill-rule:nonzero;stroke:#aaa;stroke-width:4.17px;"/><rect x="195.833" y="104.167" width="25" height="41.667" style="fill:#e0e0e0;stroke:#333;stroke-width:5px;"/><circle cx="208.333" cy="104.167" r="16.667" style="fill:none;stroke:#333;stroke-width:4.17px;"/><path d="M166.667,191.667l-0,75c-0,2.299 -1.867,4.166 -4.167,4.166l-33.333,0c-2.3,0 -4.167,-1.867 -4.167,-4.166l0,-75c0,-2.3 1.867,-4.167 4.167,-4.167l33.333,-0c2.3,-0 4.167,1.867 4.167,4.167Z" style="fill:#e0e0e0;stroke:#333;stroke-width:4.17px;"/><circle cx="137.5" cy="208.333" r="6.25" style="fill:#333;"/><circle cx="137.5" cy="229.167" r="6.25" style="fill:#333;"/><circle cx="154.167" cy="208.333" r="6.25" style="fill:#333;"/><circle cx="154.167" cy="229.167" r="6.25" style="fill:#333;"/><circle cx="137.5" cy="250" r="6.25" style="fill:#333;"/><circle cx="154.167" cy="250" r="6.25" style="fill:#333;"/><path d="M354.167,170.833l-0,75c-0,2.3 -1.867,4.167 -4.167,4.167l-75,0c-2.3,0 -4.167,-1.867 -4.167,-4.167l0,-75c0,-2.299 1.867,-4.166 4.167,-4.166l75,-0c2.3,-0 4.167,1.867 4.167,4.166Z" style="stroke:#333;stroke-width:6.25px;"/><rect x="279.167" y="175" width="66.667" height="66.667" style="fill:#0f0;"/><circle cx="312.5" cy="208.333" r="12.5" style="fill:none;stroke:#fff;stroke-width:3.33px;"/><circle cx="291.667" cy="208.333" r="4.167" style="fill:#fff;"/><circle cx="333.333" cy="208.333" r="4.167" style="fill:#fff;"/><circle cx="312.5" cy="187.5" r="4.167" style="fill:#fff;"/><circle cx="312.5" cy="229.167" r="4.167" style="fill:#fff;"/></svg>