<svg xmlns="http://www.w3.org/2000/svg" width="100" height="100" viewBox="0 0 100 100">
  <!-- 桌面 -->
  <rect x="10" y="75" width="80" height="5" rx="2" fill="#cccccc"/>
  
  <!-- 显微镜主体 -->
  <rect x="40" y="35" width="20" height="45" fill="#f0f0f0" stroke="#333" stroke-width="1.5"/>
  
  <!-- 主体分层结构 -->
  <line x1="40" y1="48" x2="60" y2="48" stroke="#aaa" stroke-width="1"/>
  <line x1="40" y1="58" x2="60" y2="58" stroke="#aaa" stroke-width="1"/>
  <line x1="40" y1="68" x2="60" y2="68" stroke="#aaa" stroke-width="1"/>
  
  <!-- 顶部镜筒 -->
  <rect x="47" y="25" width="6" height="10" fill="#e0e0e0" stroke="#333" stroke-width="1.2"/>
  <circle cx="50" cy="25" r="4" fill="none" stroke="#333" stroke-width="1"/>
  
  <!-- 操作面板 -->
  <rect x="30" y="45" width="10" height="20" rx="1" fill="#e0e0e0" stroke="#333" stroke-width="1"/>
  <!-- 按钮 -->
  <circle cx="33" cy="50" r="1.5" fill="#333"/>
  <circle cx="33" cy="55" r="1.5" fill="#333"/>
  <circle cx="37" cy="50" r="1.5" fill="#333"/>
  <circle cx="37" cy="55" r="1.5" fill="#333"/>
  <circle cx="33" cy="60" r="1.5" fill="#333"/>
  <circle cx="37" cy="60" r="1.5" fill="#333"/>
  
  <!-- 显示屏 -->
  <rect x="65" y="40" width="20" height="20" rx="1" fill="#000" stroke="#333" stroke-width="1.5"/>
  <rect x="67" y="42" width="16" height="16" fill="#0f0"/>
  
  <!-- 显示内容（原子结构） -->
  <circle cx="75" cy="50" r="3" fill="none" stroke="#fff" stroke-width="0.8"/>
  <circle cx="70" cy="50" r="1" fill="#fff"/>
  <circle cx="80" cy="50" r="1" fill="#fff"/>
  <circle cx="75" cy="45" r="1" fill="#fff"/>
  <circle cx="75" cy="55" r="1" fill="#fff"/>
</svg>