<?xml version="1.0" encoding="UTF-8" standalone="no"?><!DOCTYPE svg PUBLIC "-//W3C//DTD SVG 1.1//EN" "http://www.w3.org/Graphics/SVG/1.1/DTD/svg11.dtd"><svg width="100%" height="100%" viewBox="0 0 8534 8534" version="1.1" xmlns="http://www.w3.org/2000/svg" xmlns:xlink="http://www.w3.org/1999/xlink" xml:space="preserve" xmlns:serif="http://www.serif.com/" style="fill-rule:evenodd;clip-rule:evenodd;stroke-linejoin:round;stroke-miterlimit:2;"><path d="M5818.54,1122.07c9.235,-0.062 18.469,-0.15 27.703,-0.267c12.613,-0.148 25.221,-0.184 37.835,-0.185c3.598,-0.06 7.195,-0.119 10.902,-0.181c36.718,0.273 67.655,13.614 96.976,35.435c3.287,2.379 6.574,4.758 9.961,7.21c60.101,52.273 79.21,143.392 94.205,217.79c1.347,6.659 1.347,6.659 2.721,13.452c17.543,89.382 24.597,178.904 30.089,269.685c0.688,11.207 1.449,22.408 2.2,33.611c4.196,67.9 2.847,136.089 2.49,204.085l-58.333,0c-0.346,-9.981 -0.346,-9.981 -0.699,-20.163c-0.87,-25.06 -1.75,-50.119 -2.632,-75.179c-0.379,-10.776 -0.754,-21.552 -1.128,-32.328c-1.22,-35.224 -2.501,-70.445 -3.874,-105.663c-0.154,-4.015 -0.309,-8.03 -0.467,-12.166c-1.456,-36.504 -3.785,-72.082 -9.952,-108.151c-3.864,-24.166 -5.766,-48.557 -8.071,-72.912c-14.692,-150.414 -14.692,-150.414 -94.01,-273.438c-17.117,-11.281 -32.384,-15.53 -52.67,-14.714c-39.898,8.984 -68.013,53.593 -88.834,85.612c-17.483,29.162 -31.73,59.361 -45.215,90.56c-1.555,3.595 -3.109,7.19 -4.711,10.894c-9.048,21.496 -16.462,42.987 -22.709,65.461c-2.528,8.02 -2.528,8.02 -6.695,12.187c-9.72,0.171 -19.446,0.177 -29.166,0c5.119,-32.716 15.136,-62.105 27.604,-92.708c1.858,-4.585 3.715,-9.169 5.629,-13.893c25.445,-61.587 56.854,-112.653 104.267,-160.066l-266.667,0c-2.75,5.5 -5.5,11 -8.333,16.667c-3.524,3.867 -7.047,7.734 -10.677,11.719c-86.72,99.199 -114.467,240.243 -129.688,366.927c-0.498,4.075 -0.996,8.15 -1.508,12.348c-11.339,101.846 -8.965,204.873 -8.909,307.183c0.001,5.983 0.001,5.983 0.002,12.086c0.026,166.734 4.035,332.162 21.613,498.07c0.522,5.012 1.043,10.023 1.581,15.186c3.402,32.467 7.086,64.895 10.919,97.314c0.471,4.109 0.943,8.218 1.428,12.452c12.204,105.697 27.51,219.723 73.572,316.715c1.22,2.649 2.44,5.297 3.697,8.026c26.336,57.292 26.336,57.292 71.303,100.307c26.542,-1.79 52.376,-9.514 78.125,-15.885c44.622,-10.893 89.36,-20.827 134.375,-29.948l0,-8.333c-3.056,-2.38 -6.112,-4.759 -9.261,-7.211c-12.843,-10.494 -21.313,-21.89 -30.062,-35.758c-1.618,-2.564 -3.236,-5.128 -4.903,-7.77c-32.134,-52.566 -47.119,-110.401 -59.941,-170.095c-1.11,-5.144 -1.11,-5.144 -2.244,-10.392c-71.495,-342.373 -49.317,-720.826 -10.256,-1193.77l33.334,-0c0.783,32.494 -2.38,64.079 -5.811,96.37c-6.767,66.307 -10.817,132.613 -13.721,199.203c-0.129,2.909 -0.259,5.819 -0.393,8.816c-11.716,262.71 -15.509,530.488 18.851,791.582c1.043,7.96 2.052,15.925 3.059,23.89c11.564,89.932 28.03,216.654 102.084,278.706c18.016,12.522 31.997,17.909 54.264,13.933c35.304,-12.981 54.934,-45.976 70.351,-78.64c7.885,-17.957 14.712,-36.232 21.316,-54.694c1.278,-3.528 2.556,-7.057 3.873,-10.693c13.498,-38.892 23.03,-78.864 30.762,-119.255c0.858,-4.452 1.716,-8.903 2.599,-13.49c13.326,-71.266 23.222,-143.153 33.599,-214.895l54.167,0c0.747,36.436 -1.816,70.99 -7.032,107.031c-0.744,5.242 -1.488,10.484 -2.255,15.885c-7.479,51.118 -17.1,101.642 -28.213,152.084c-0.799,3.731 -1.598,7.462 -2.421,11.306c-11.52,53.165 -28.594,101.976 -51.746,151.194c-1.236,2.671 -2.472,5.343 -3.745,8.095c-22.16,47.141 -54.834,88.312 -104.66,107.67c-22.977,7.645 -46.005,13.563 -69.655,18.724c-3.879,0.864 -7.759,1.728 -11.755,2.618c-8.383,1.864 -16.768,3.72 -25.155,5.567c-13.406,2.954 -26.806,5.932 -40.206,8.916c-14.162,3.154 -28.325,6.307 -42.49,9.453c-48.882,10.858 -97.732,21.857 -146.571,32.906c-13.642,3.084 -27.287,6.158 -40.931,9.232c-44.762,10.105 -89.467,20.428 -134.103,31.08c-4.322,1.027 -8.644,2.053 -13.097,3.111c-25.667,6.166 -50.73,13.177 -75.835,21.336c-14.484,4.349 -29.121,7.584 -43.88,10.823c-76.83,17.188 -152.205,43.61 -226.624,69.143c-9.086,3.092 -18.198,6.096 -27.315,9.096c-172.584,57.606 -401.511,144.779 -506.478,302.23c7.106,0.234 7.106,0.234 14.356,0.472c122.212,4.852 122.212,4.852 158.642,38.753c20.43,22.962 24.4,43.723 23.818,73.436c-1.608,20.191 -6.641,39.007 -12.181,58.433c-1.135,4.18 -2.271,8.359 -3.441,12.666c-5.125,18.77 -10.455,37.476 -15.927,56.149c-10.674,36.662 -19.214,73.368 -26.465,110.872c-0.843,4.353 -1.687,8.705 -2.556,13.189c-10.423,55.657 -16.96,110.075 -16.715,166.759c0.009,2.862 0.018,5.724 0.028,8.673c0.435,87.471 11.418,169.084 38.774,252.265c1.047,3.259 2.093,6.518 3.171,9.875c5.972,18.367 12.805,35.948 20.527,53.666c12.258,31.625 17.251,66.283 4.427,98.698c-26.132,45.732 -56.734,71.199 -107.291,87.761c-15.345,3.974 -30.804,7.082 -46.371,10.058c-4.643,0.888 -9.287,1.777 -14.071,2.692c-64.34,11.725 -129.397,18.124 -194.399,24.966c-17.384,1.839 -34.763,3.732 -52.142,5.619c-33.778,3.66 -67.562,7.265 -101.351,10.831c-0.464,4.162 -0.928,8.323 -1.406,12.61c-1.75,15.671 -3.515,31.34 -5.285,47.008c-0.759,6.738 -1.514,13.477 -2.265,20.216c-7.286,65.353 -18.026,129.521 -30.692,194.043c-1.676,8.545 -3.352,17.09 -5.026,25.636c-1.113,5.674 -2.23,11.348 -3.349,17.021c-7.081,35.943 -13.372,71.607 -16.885,108.076c-1.758,12.89 -1.758,12.89 -5.73,26.123c-5.842,21.342 -8.116,42.681 -10.612,64.632c-0.987,8.524 -1.985,17.048 -2.994,25.57c-0.427,3.742 -0.854,7.484 -1.294,11.339c-1.73,12.693 -3.816,25.242 -6.005,37.862c-4.3,25.514 -7.12,51.005 -9.515,76.759c-0.44,4.6 -0.881,9.2 -1.335,13.939c-0.922,9.656 -1.835,19.313 -2.741,28.971c-1.37,14.61 -2.766,29.218 -4.167,43.825c-5.366,55.966 -5.366,55.966 -9.563,112.028c-1.172,17.828 -3.14,35.314 -5.78,52.983c-4.488,30.772 -8.4,61.594 -12.188,92.46c-0.705,5.695 -1.41,11.391 -2.117,17.087c-2.952,23.82 -5.893,47.642 -8.824,71.464c-7.904,64.212 -16.036,128.333 -25.991,192.266c-2.849,18.629 -5.279,37.316 -7.746,55.999c-5.405,40.072 -11.123,79.809 -20.052,119.271c-7.391,33.522 -12.189,67.386 -17.239,101.327c-4.395,29.162 -9.635,57.772 -16.241,86.515c-3.443,16.304 -4.967,32.568 -6.624,49.137c-1.375,2.75 -2.75,5.5 -4.167,8.333c-1.442,7.44 -2.718,14.912 -3.906,22.396c-4.338,27.094 -4.338,27.094 -6.673,40.414c-0.72,4.109 -1.44,8.217 -2.181,12.451c-0.65,3.658 -1.3,7.315 -1.97,11.084c-23.558,166.097 2.009,307.67 94.421,448.294c58.746,89.412 86.396,173.863 65.101,281.507c-17.553,67.462 -57.93,115.014 -117.448,150.521c-168.598,94.309 -386.901,120.288 -577.267,136.046c-12.536,1.05 -25.044,2.298 -37.557,3.599c-64.842,6.523 -129.161,7.339 -194.291,6.97c-10.793,-0.037 -21.587,-0.074 -32.381,-0.109c-431.663,-1.806 -431.663,-1.806 -551.668,-116.005c-56.927,-59.955 -76.989,-134.156 -90.184,-213.639c-1.872,-10.204 -4.042,-20.194 -6.393,-30.291c-4.642,-20.647 -7.502,-41.348 -10.113,-62.336c-0.764,-6.006 -0.764,-6.006 -1.544,-12.132c-1.641,-12.973 -3.25,-25.949 -4.852,-38.926c-0.554,-4.444 -1.108,-8.888 -1.678,-13.466c-9.107,-73.319 -16.548,-146.632 -22.401,-220.274c-1.365,-16.673 -2.945,-33.319 -4.564,-49.969c-3.904,-40.447 -6.783,-80.95 -9.378,-121.499c-0.331,-5.063 -0.661,-10.126 -1.002,-15.342c-5.792,-93.981 -7.749,-187.944 -7.768,-282.088c-0.003,-8.615 -0.012,-17.231 -0.023,-25.846c-0.038,-30.368 -0.055,-60.735 -0.052,-91.103c0.002,-24.737 -0.027,-49.474 -0.085,-74.211c-0.578,-251.033 -0.578,-251.033 8.247,-366.032c1.445,-20.444 2.191,-40.895 2.848,-61.378c0.243,-7.192 0.487,-14.384 0.732,-21.577c0.12,-3.542 0.239,-7.085 0.362,-10.735c5.076,-145.277 18.743,-290.121 33.493,-434.697c1.406,-13.889 2.768,-27.782 4.129,-41.676c1.382,-14.116 2.777,-28.23 4.171,-42.345c0.698,-7.087 1.393,-14.173 2.083,-21.261c3.933,-40.304 8.219,-80.468 13.917,-120.564c1.664,-12.939 2.726,-25.784 3.531,-38.801c1.886,-27.411 5.769,-54.412 9.879,-81.562c4.807,-32.073 8.533,-64.255 12.254,-96.467c1.59,-13.624 3.256,-27.237 4.918,-40.852c8.826,-72.938 16.517,-145.93 23.492,-219.068c3.813,-39.913 7.878,-79.772 12.478,-119.604c5.715,-49.552 10.129,-99.191 14.316,-148.892c0.248,-2.921 0.497,-5.842 0.753,-8.851c0.674,-7.939 1.337,-15.88 1.999,-23.82c0.955,-9.758 2.143,-19.495 3.553,-29.198c2.019,-14.381 3.146,-28.536 3.972,-43.031c0.481,-8.188 0.481,-8.188 0.971,-16.542c0.334,-5.896 0.667,-11.791 0.999,-17.686c0.714,-12.561 1.435,-25.12 2.164,-37.679c0.184,-3.164 0.367,-6.328 0.556,-9.588c1.126,-18.975 2.495,-37.909 4.099,-56.851c5.609,-67.96 6.726,-135.524 6.722,-203.695c0.004,-4.464 0.008,-8.928 0.012,-13.528c-0.005,-47.877 -0.669,-95.681 -2.665,-143.519c-0.24,-5.886 -0.24,-5.886 -0.486,-11.89c-0.718,-15.507 -1.697,-30.571 -3.973,-45.94c-2.631,-19.116 -2.838,-37.95 -2.995,-57.226c-0.041,-4.114 -0.083,-8.228 -0.125,-12.466c-0.772,-96.972 1.932,-190.755 17.784,-286.525c1.312,-8.064 2.623,-16.129 3.933,-24.194c18.182,-111.216 38.877,-221.857 61.484,-332.25c5.773,-28.335 10.982,-56.761 16.094,-85.222c11.404,-62.871 25.255,-125.184 39.323,-187.5c0.671,-2.975 1.342,-5.949 2.034,-9.014c16.153,-71.503 32.695,-142.911 49.456,-214.274c8.731,-37.347 17.074,-74.77 25.317,-112.227c19.559,-88.865 40.917,-177.237 63.026,-265.501c4.151,-16.571 8.272,-33.148 12.364,-49.733c95.218,-385.303 95.218,-385.303 256.136,-490.918c99.555,-56.723 233.418,-69.874 345.451,-86.188c15.875,-2.39 31.691,-5.132 47.518,-7.822c25.73,-4.335 51.482,-8.256 77.327,-11.849c23.218,-3.284 46.377,-6.954 69.548,-10.547c98.247,-15.157 196.692,-28.285 295.333,-40.593c10.129,-1.268 20.256,-2.552 30.383,-3.841c104.872,-13.292 210.022,-23.364 315.285,-32.964c10.711,-0.978 21.422,-1.959 32.133,-2.942c138.33,-12.656 138.33,-12.656 189.167,-14.597c17.595,-0.683 34.606,-2.802 52.022,-5.324c10.56,-0.763 21.131,-1.401 31.705,-1.936c6.152,-0.323 12.304,-0.646 18.456,-0.969c3.198,-0.163 6.395,-0.326 9.689,-0.493c48.072,-2.455 96.076,-5.207 144.056,-9.102c61.868,-4.901 123.844,-7.273 185.842,-9.895c4.06,-0.172 8.12,-0.344 12.303,-0.521c4.064,-0.172 8.129,-0.344 12.318,-0.521c35.4,-1.515 70.78,-3.34 106.163,-5.208c104.178,-5.461 208.421,-9.079 312.685,-12.474c11.427,-0.372 22.855,-0.748 34.282,-1.128c127.988,-4.25 256.021,-8.449 384.085,-9.221Z" style="fill:#fefefe;fill-rule:nonzero;"/><path d="M4079.46,4094.37c-0.913,4.012 -1.826,8.024 -2.767,12.158c-13.789,61.049 -26.915,122.246 -38.9,183.675c-0.636,3.23 -1.273,6.46 -1.929,9.788c-18.676,99.401 -19.446,233.354 31.096,323.545c10.96,15.637 21.597,26.898 37.5,37.5c-2.856,34.304 -8.01,68.121 -13.542,102.084c-0.453,2.801 -0.907,5.603 -1.374,8.49c-7.755,47.815 -16.473,95.405 -25.872,142.926c-27.161,137.56 -45.524,275.327 -59.045,414.864c-5.551,57.08 -11.509,114.117 -17.517,171.151c-1.268,12.05 -2.524,24.101 -3.768,36.153c-6.061,58.681 -12.21,117.206 -22.247,175.367c-3.051,19.322 -4.404,38.542 -5.626,58.047c-0.924,10.756 -2.596,20.755 -4.916,31.283c-4.117,18.723 -6.176,37.461 -8.072,56.51c-4.203,41.255 -11.79,81.73 -19.513,122.447c-2.913,15.573 -5.463,31.2 -8.01,46.835c-7.413,44.548 -15.576,88.973 -23.649,133.404c-2.432,13.405 -4.863,26.81 -7.294,40.215c-1.644,9.052 -3.292,18.102 -4.944,27.152c-44.412,243.462 -53.157,445.206 90.737,656.905c44.807,66.67 44.807,66.67 41.418,92.083c-1.287,4.497 -1.287,4.497 -2.6,9.084c-107.394,38.084 -216.981,58.879 -331.022,59.18c-3.055,0.012 -6.109,0.024 -9.257,0.036c-16.217,0.062 -32.434,0.101 -48.651,0.119c-13.179,0.018 -26.356,0.075 -39.534,0.171c-99.17,0.703 -195.292,-3.692 -292.369,-26.172c-3.176,-0.719 -6.353,-1.438 -9.625,-2.179c-128.741,-29.394 -254.1,-81.228 -332.286,-193.215c-69.103,-110.538 -88.483,-239.531 -88.655,-368.034c-0.034,-6.264 -0.069,-12.527 -0.106,-18.79c-0.094,-19.904 -0.081,-39.806 -0.057,-59.709c0,-3.399 0.001,-6.797 0.001,-10.299c0.014,-98.978 2.464,-196.39 15.661,-294.613c3.002,-22.638 5.436,-45.332 7.873,-68.038c1.786,-16.482 3.576,-32.964 5.371,-49.446c0.416,-3.815 0.831,-7.63 1.259,-11.56c4.781,-43.434 10.677,-86.352 18.599,-129.325c3.672,-20.502 6.329,-41.043 8.788,-61.719c4.751,-38.157 10.596,-76.039 17.154,-113.926c3.615,-20.958 6.899,-41.904 9.767,-62.979c5.24,-37.188 12.331,-73.988 19.433,-110.856c0.719,-3.749 1.438,-7.499 2.179,-11.361c25.695,-133.876 52.437,-267.46 84.917,-399.873c2.357,-9.609 4.705,-19.22 7.053,-28.831c4.953,-20.248 9.953,-40.483 14.966,-60.716c0.77,-3.122 1.54,-6.244 2.333,-9.46c9.518,-38.497 20.099,-76.408 32.042,-114.238c3.625,-12.134 7.15,-24.296 10.677,-36.458c7.064,-24.14 14.3,-48.145 22.656,-71.875c1.536,-4.388 3.072,-8.777 4.655,-13.298c10.779,-30.495 21.869,-60.846 33.765,-90.924c2.345,-5.98 4.658,-11.972 6.95,-17.973c73.724,-192.656 191.176,-347.202 382.332,-432.639c64.737,-27.887 132.756,-42.918 201.465,-57.666c3.236,-0.744 6.472,-1.487 9.806,-2.252c35.873,-7.874 72.46,-11.169 108.944,-14.936c3.569,-0.374 7.137,-0.747 10.814,-1.133c61.147,-6.315 121.435,-8.888 182.936,-6.679Z" style="fill:#fefefe;fill-rule:nonzero;"/><path d="M5818.54,1122.07c9.235,-0.062 18.469,-0.15 27.703,-0.267c12.613,-0.148 25.221,-0.184 37.835,-0.185c3.598,-0.06 7.195,-0.119 10.902,-0.181c36.718,0.273 67.655,13.614 96.976,35.435c3.287,2.379 6.574,4.758 9.961,7.21c60.101,52.273 79.21,143.392 94.205,217.79c1.347,6.659 1.347,6.659 2.721,13.452c17.543,89.382 24.597,178.904 30.089,269.685c0.688,11.207 1.449,22.408 2.2,33.611c4.196,67.9 2.847,136.089 2.49,204.085l-58.333,0c-0.346,-9.981 -0.346,-9.981 -0.699,-20.163c-0.87,-25.06 -1.75,-50.119 -2.632,-75.179c-0.379,-10.776 -0.754,-21.552 -1.128,-32.328c-1.22,-35.224 -2.501,-70.445 -3.874,-105.663c-0.154,-4.015 -0.309,-8.03 -0.467,-12.166c-1.456,-36.504 -3.785,-72.082 -9.952,-108.151c-3.864,-24.166 -5.766,-48.557 -8.071,-72.912c-14.692,-150.414 -14.692,-150.414 -94.01,-273.438c-17.117,-11.281 -32.384,-15.53 -52.67,-14.714c-39.898,8.984 -68.013,53.593 -88.834,85.612c-17.483,29.162 -31.73,59.361 -45.215,90.56c-1.555,3.595 -3.109,7.19 -4.711,10.894c-9.048,21.496 -16.462,42.987 -22.709,65.461c-2.528,8.02 -2.528,8.02 -6.695,12.187c-9.72,0.171 -19.446,0.177 -29.166,0c5.119,-32.716 15.136,-62.105 27.604,-92.708c1.858,-4.585 3.715,-9.169 5.629,-13.893c25.445,-61.587 56.854,-112.653 104.267,-160.066l-266.667,0c-2.75,5.5 -5.5,11 -8.333,16.667c-3.524,3.867 -7.047,7.734 -10.677,11.719c-86.72,99.199 -114.467,240.243 -129.688,366.927c-0.498,4.075 -0.996,8.15 -1.508,12.348c-11.339,101.846 -8.965,204.873 -8.909,307.183c0.001,5.983 0.001,5.983 0.002,12.086c0.026,166.734 4.035,332.162 21.613,498.07c0.522,5.012 1.043,10.023 1.581,15.186c3.402,32.467 7.086,64.895 10.919,97.314c0.471,4.109 0.943,8.218 1.428,12.452c12.204,105.697 27.51,219.723 73.572,316.715c1.22,2.649 2.44,5.297 3.697,8.026c26.336,57.292 26.336,57.292 71.303,100.307c26.542,-1.79 52.376,-9.514 78.125,-15.885c44.622,-10.893 89.36,-20.827 134.375,-29.948l0,-8.333c-3.056,-2.38 -6.112,-4.759 -9.261,-7.211c-12.843,-10.494 -21.313,-21.89 -30.062,-35.758c-1.618,-2.564 -3.236,-5.128 -4.903,-7.77c-32.134,-52.566 -47.119,-110.401 -59.941,-170.095c-1.11,-5.144 -1.11,-5.144 -2.244,-10.392c-71.495,-342.373 -49.317,-720.826 -10.256,-1193.77l33.334,-0c0.783,32.494 -2.38,64.079 -5.811,96.37c-6.767,66.307 -10.817,132.613 -13.721,199.203c-0.129,2.909 -0.259,5.819 -0.393,8.816c-11.716,262.71 -15.509,530.488 18.851,791.582c1.043,7.96 2.052,15.925 3.059,23.89c11.564,89.932 28.03,216.654 102.084,278.706c18.016,12.522 31.997,17.909 54.264,13.933c35.304,-12.981 54.934,-45.976 70.351,-78.64c7.885,-17.957 14.712,-36.232 21.316,-54.694c1.278,-3.528 2.556,-7.057 3.873,-10.693c13.498,-38.892 23.03,-78.864 30.762,-119.255c0.858,-4.452 1.716,-8.903 2.599,-13.49c13.326,-71.266 23.222,-143.153 33.599,-214.895l54.167,0c0.747,36.436 -1.816,70.99 -7.032,107.031c-0.744,5.242 -1.488,10.484 -2.255,15.885c-7.479,51.118 -17.1,101.642 -28.213,152.084c-0.799,3.731 -1.598,7.462 -2.421,11.306c-11.52,53.165 -28.594,101.976 -51.746,151.194c-1.236,2.671 -2.472,5.343 -3.745,8.095c-22.16,47.141 -54.834,88.312 -104.66,107.67c-22.977,7.645 -46.005,13.563 -69.655,18.724c-3.879,0.864 -7.759,1.728 -11.755,2.618c-8.383,1.864 -16.768,3.72 -25.155,5.567c-13.406,2.954 -26.806,5.932 -40.206,8.916c-14.162,3.154 -28.325,6.307 -42.49,9.453c-48.882,10.858 -97.732,21.857 -146.571,32.906c-13.642,3.084 -27.287,6.158 -40.931,9.232c-44.762,10.105 -89.467,20.428 -134.103,31.08c-4.322,1.027 -8.644,2.053 -13.097,3.111c-25.667,6.166 -50.73,13.177 -75.835,21.336c-14.484,4.349 -29.121,7.584 -43.88,10.823c-76.83,17.188 -152.205,43.61 -226.624,69.143c-9.086,3.092 -18.198,6.096 -27.315,9.096c-172.584,57.606 -401.511,144.779 -506.478,302.23c7.106,0.234 7.106,0.234 14.356,0.472c122.212,4.852 122.212,4.852 158.642,38.753c20.43,22.962 24.4,43.723 23.818,73.436c-1.608,20.191 -6.641,39.007 -12.181,58.433c-1.135,4.18 -2.271,8.359 -3.441,12.666c-5.125,18.77 -10.455,37.476 -15.927,56.149c-10.674,36.662 -19.214,73.368 -26.465,110.872c-0.843,4.353 -1.687,8.705 -2.556,13.189c-10.423,55.657 -16.96,110.075 -16.715,166.759c0.009,2.862 0.018,5.724 0.028,8.673c0.435,87.471 11.418,169.084 38.774,252.265c1.047,3.259 2.093,6.518 3.171,9.875c5.972,18.367 12.805,35.948 20.527,53.666c12.258,31.625 17.251,66.283 4.427,98.698c-26.132,45.732 -56.734,71.199 -107.291,87.761c-15.345,3.974 -30.804,7.082 -46.371,10.058c-4.643,0.888 -9.287,1.777 -14.071,2.692c-64.34,11.725 -129.397,18.124 -194.399,24.966c-17.384,1.839 -34.763,3.732 -52.142,5.619c-33.778,3.66 -67.562,7.265 -101.351,10.831c-0.464,4.162 -0.928,8.323 -1.406,12.61c-1.75,15.671 -3.515,31.34 -5.285,47.008c-0.759,6.738 -1.514,13.477 -2.265,20.216c-7.286,65.353 -18.026,129.521 -30.692,194.043c-1.676,8.545 -3.352,17.09 -5.026,25.636c-1.113,5.674 -2.23,11.348 -3.349,17.021c-7.081,35.943 -13.372,71.607 -16.885,108.076c-1.758,12.89 -1.758,12.89 -5.73,26.123c-5.842,21.342 -8.116,42.681 -10.612,64.632c-0.987,8.524 -1.985,17.048 -2.994,25.57c-0.427,3.742 -0.854,7.484 -1.294,11.339c-1.73,12.693 -3.816,25.242 -6.005,37.862c-4.3,25.514 -7.12,51.005 -9.515,76.759c-0.44,4.6 -0.881,9.2 -1.335,13.939c-0.922,9.656 -1.835,19.313 -2.741,28.971c-1.37,14.61 -2.766,29.218 -4.167,43.825c-5.366,55.966 -5.366,55.966 -9.563,112.028c-1.172,17.828 -3.14,35.314 -5.78,52.983c-4.488,30.772 -8.4,61.594 -12.188,92.46c-0.705,5.695 -1.41,11.391 -2.117,17.087c-2.952,23.82 -5.893,47.642 -8.824,71.464c-7.904,64.212 -16.036,128.333 -25.991,192.266c-2.849,18.629 -5.279,37.316 -7.746,55.999c-5.405,40.072 -11.123,79.809 -20.052,119.271c-7.391,33.522 -12.189,67.386 -17.239,101.327c-4.395,29.162 -9.635,57.772 -16.241,86.515c-3.443,16.304 -4.967,32.568 -6.624,49.137c-1.375,2.75 -2.75,5.5 -4.167,8.333c-1.442,7.44 -2.718,14.912 -3.906,22.396c-4.338,27.094 -4.338,27.094 -6.673,40.414c-0.72,4.109 -1.44,8.217 -2.181,12.451c-0.65,3.658 -1.3,7.315 -1.97,11.084c-23.558,166.097 2.009,307.67 94.421,448.294c58.746,89.412 86.396,173.863 65.101,281.507c-17.553,67.462 -57.93,115.014 -117.448,150.521c-168.598,94.309 -386.901,120.288 -577.267,136.046c-12.536,1.05 -25.044,2.298 -37.557,3.599c-64.842,6.523 -129.161,7.339 -194.291,6.97c-10.793,-0.037 -21.587,-0.074 -32.381,-0.109c-431.663,-1.806 -431.663,-1.806 -551.668,-116.005c-56.927,-59.955 -76.989,-134.156 -90.184,-213.639c-1.872,-10.204 -4.042,-20.194 -6.393,-30.291c-4.642,-20.647 -7.502,-41.348 -10.113,-62.336c-0.764,-6.006 -0.764,-6.006 -1.544,-12.132c-1.641,-12.973 -3.25,-25.949 -4.852,-38.926c-0.554,-4.444 -1.108,-8.888 -1.678,-13.466c-9.107,-73.319 -16.548,-146.632 -22.401,-220.274c-1.365,-16.673 -2.945,-33.319 -4.564,-49.969c-3.904,-40.447 -6.783,-80.95 -9.378,-121.499c-0.331,-5.063 -0.661,-10.126 -1.002,-15.342c-5.792,-93.981 -7.749,-187.944 -7.768,-282.088c-0.003,-8.615 -0.012,-17.231 -0.023,-25.846c-0.038,-30.368 -0.055,-60.735 -0.052,-91.103c0.002,-24.737 -0.027,-49.474 -0.085,-74.211c-0.578,-251.033 -0.578,-251.033 8.247,-366.032c1.445,-20.444 2.191,-40.895 2.848,-61.378c0.243,-7.192 0.487,-14.384 0.732,-21.577c0.12,-3.542 0.239,-7.085 0.362,-10.735c5.076,-145.277 18.743,-290.121 33.493,-434.697c1.406,-13.889 2.768,-27.782 4.129,-41.676c1.382,-14.116 2.777,-28.23 4.171,-42.345c0.698,-7.087 1.393,-14.173 2.083,-21.261c3.933,-40.304 8.219,-80.468 13.917,-120.564c1.664,-12.939 2.726,-25.784 3.531,-38.801c1.886,-27.411 5.769,-54.412 9.879,-81.562c4.807,-32.073 8.533,-64.255 12.254,-96.467c1.59,-13.624 3.256,-27.237 4.918,-40.852c8.826,-72.938 16.517,-145.93 23.492,-219.068c3.813,-39.913 7.878,-79.772 12.478,-119.604c5.715,-49.552 10.129,-99.191 14.316,-148.892c0.248,-2.921 0.497,-5.842 0.753,-8.851c0.674,-7.939 1.337,-15.88 1.999,-23.82c0.955,-9.758 2.143,-19.495 3.553,-29.198c2.019,-14.381 3.146,-28.536 3.972,-43.031c0.481,-8.188 0.481,-8.188 0.971,-16.542c0.334,-5.896 0.667,-11.791 0.999,-17.686c0.714,-12.561 1.435,-25.12 2.164,-37.679c0.184,-3.164 0.367,-6.328 0.556,-9.588c1.126,-18.975 2.495,-37.909 4.099,-56.851c5.609,-67.96 6.726,-135.524 6.722,-203.695c0.004,-4.464 0.008,-8.928 0.012,-13.528c-0.005,-47.877 -0.669,-95.681 -2.665,-143.519c-0.24,-5.886 -0.24,-5.886 -0.486,-11.89c-0.718,-15.507 -1.697,-30.571 -3.973,-45.94c-2.631,-19.116 -2.838,-37.95 -2.995,-57.226c-0.041,-4.114 -0.083,-8.228 -0.125,-12.466c-0.772,-96.972 1.932,-190.755 17.784,-286.525c1.312,-8.064 2.623,-16.129 3.933,-24.194c18.182,-111.216 38.877,-221.857 61.484,-332.25c5.773,-28.335 10.982,-56.761 16.094,-85.222c11.404,-62.871 25.255,-125.184 39.323,-187.5c0.671,-2.975 1.342,-5.949 2.034,-9.014c16.153,-71.503 32.695,-142.911 49.456,-214.274c8.731,-37.347 17.074,-74.77 25.317,-112.227c19.559,-88.865 40.917,-177.237 63.026,-265.501c4.151,-16.571 8.272,-33.148 12.364,-49.733c95.218,-385.303 95.218,-385.303 256.136,-490.918c99.555,-56.723 233.418,-69.874 345.451,-86.188c15.875,-2.39 31.691,-5.132 47.518,-7.822c25.73,-4.335 51.482,-8.256 77.327,-11.849c23.218,-3.284 46.377,-6.954 69.548,-10.547c98.247,-15.157 196.692,-28.285 295.333,-40.593c10.129,-1.268 20.256,-2.552 30.383,-3.841c104.872,-13.292 210.022,-23.364 315.285,-32.964c10.711,-0.978 21.422,-1.959 32.133,-2.942c138.33,-12.656 138.33,-12.656 189.167,-14.597c17.595,-0.683 34.606,-2.802 52.022,-5.324c10.56,-0.763 21.131,-1.401 31.705,-1.936c6.152,-0.323 12.304,-0.646 18.456,-0.969c3.198,-0.163 6.395,-0.326 9.689,-0.493c48.072,-2.455 96.076,-5.207 144.056,-9.102c61.868,-4.901 123.844,-7.273 185.842,-9.895c4.06,-0.172 8.12,-0.344 12.303,-0.521c4.064,-0.172 8.129,-0.344 12.318,-0.521c35.4,-1.515 70.78,-3.34 106.163,-5.208c104.178,-5.461 208.421,-9.079 312.685,-12.474c11.427,-0.372 22.855,-0.748 34.282,-1.128c127.988,-4.25 256.021,-8.449 384.085,-9.221Zm-636.156,75.888c-19.838,0.746 -39.677,1.463 -59.516,2.18c-18.523,0.674 -37.046,1.37 -55.568,2.073c-8.531,0.322 -17.062,0.637 -25.593,0.945c-49.208,1.793 -98.167,4.735 -147.234,8.872c-45.784,3.798 -91.619,6.131 -137.498,8.434c-82.424,4.163 -164.592,9.315 -246.758,17.041c-25.662,2.394 -51.316,4.05 -77.055,5.313c-18.116,0.945 -35.77,3.078 -53.706,5.722c-8.239,0.694 -16.487,1.291 -24.74,1.791c-4.693,0.297 -9.387,0.595 -14.222,0.902c-5.018,0.315 -10.035,0.629 -15.205,0.953c-89.462,5.917 -178.632,14.507 -267.546,26.074c-21.793,2.825 -43.604,5.447 -65.429,8.008c-80.144,9.448 -160.087,19.889 -239.942,31.543c-4.187,0.609 -8.374,1.217 -12.689,1.844c-42.917,6.255 -85.725,12.84 -128.405,20.556c-22.092,3.981 -44.208,7.219 -66.458,10.152c-11.118,1.587 -22.23,3.213 -33.339,4.861c-7.484,1.103 -14.973,2.176 -22.465,3.218c-48.935,7.011 -82.643,15.502 -117.894,52.598c-2.25,2.183 -4.5,4.365 -6.818,6.614c-94.911,92.133 -142.201,217.559 -167.687,344.894c-15.294,75.849 -33.903,150.887 -52.722,225.919c-2.164,8.628 -4.323,17.258 -6.481,25.888c-17.569,70.2 -35.801,140.201 -54.796,210.031c-7.593,27.986 -15.011,56.019 -22.433,84.05c-0.784,2.958 -1.569,5.915 -2.377,8.963c-10.491,39.59 -20.815,79.214 -30.454,119.022c-2.987,12.24 -6.12,24.284 -10.113,36.237c-4.757,14.301 -8.948,28.685 -13.062,43.184c-0.811,2.852 -1.623,5.704 -2.459,8.642c-1.744,6.13 -3.485,12.261 -5.225,18.392c-4.645,16.367 -9.313,32.728 -13.979,49.089c-0.951,3.333 -1.901,6.667 -2.881,10.101c-42.651,149.513 -42.651,149.513 -61.768,209.511c-3.861,12.149 -7.556,24.34 -11.198,36.556c-14.67,49.118 -30.267,97.876 -46.484,146.501c-0.958,2.876 -1.915,5.752 -2.902,8.715c-20.067,60.193 -41.402,119.864 -64.286,179.046c-1.082,2.8 -2.164,5.6 -3.28,8.486c-18.505,47.744 -38.149,94.795 -60.261,140.993c-2.124,4.446 -2.124,4.446 -4.291,8.982c-47.891,99.516 -47.891,99.516 -69.547,124.188c-26.333,31.559 -25.617,61.554 -24.404,100.602c0.091,6.607 0.167,13.213 0.229,19.819c0.154,14.021 0.39,28.037 0.694,42.055c0.705,33.014 0.954,66.032 1.193,99.052c0.054,7.397 0.112,14.794 0.176,22.191c0.565,68.881 -1.617,137.265 -5.873,206.027c-0.284,4.66 -0.568,9.32 -0.86,14.121c-1.522,24.62 -3.176,49.228 -4.947,73.831c-0.626,8.864 -1.202,17.73 -1.747,26.599c-1.753,27.435 -4.603,54.538 -8.176,81.795c-4.248,32.968 -6.979,66.057 -9.833,99.169c-8.397,96.73 -18.808,193.165 -29.952,289.612c-1.079,9.344 -2.156,18.689 -3.233,28.034c-5.725,49.677 -11.47,99.352 -17.231,149.025c-0.899,7.751 -1.797,15.503 -2.696,23.255c-3.02,26.056 -6.05,52.112 -9.086,78.166c-0.423,3.64 -0.846,7.279 -1.282,11.029c-4.82,41.393 -9.761,82.768 -14.929,124.119c-0.715,5.75 -0.715,5.75 -1.444,11.616c-2.266,18.218 -4.551,36.432 -6.881,54.642c-4.757,37.778 -8.184,75.345 -10.006,113.381c-1.279,22.463 -4.14,44.63 -7.124,66.919c-4.175,32.964 -7.376,65.591 -8.701,98.782c-1.357,31.095 -4.1,62.043 -6.862,93.036c-19.825,222.975 -25.421,445.953 -24.836,669.734c0.046,21.9 0.044,43.8 0.042,65.7c0.002,112.666 0.121,225.273 4.94,337.852c0.204,4.781 0.408,9.562 0.617,14.488c1.377,31.209 3.029,62.398 4.852,93.585c0.396,6.882 0.396,6.882 0.801,13.904c4.37,74.8 11.134,148.95 20.71,223.248c2.371,18.518 4.529,37.059 6.663,55.605c0.552,4.791 0.552,4.791 1.116,9.679c0.733,6.355 1.466,12.709 2.198,19.064c8.537,81.19 8.537,81.19 23.403,161.355c2.408,10.209 4.524,20.46 6.632,30.735c13.512,64.146 28.462,120.968 74.675,170.004c3.706,3.964 3.706,3.964 7.487,8.008c58.517,56.516 148.191,70.963 225.846,79.492c2.964,0.343 5.928,0.686 8.982,1.039c75.699,8.545 151.104,8.434 227.157,8.109c13.265,-0.045 26.53,-0.043 39.796,-0.042c95.576,-0.002 190.666,-1.549 285.784,-11.71c4.919,-0.519 4.919,-0.519 9.937,-1.047c313.286,-27.517 313.286,-27.517 576.716,-174.588c27.266,-35.365 31.571,-76.004 31.055,-119.418c-0.019,-3.048 -0.037,-6.096 -0.057,-9.236c-0.048,-7.425 -0.123,-14.849 -0.203,-22.274c-2.245,0.961 -4.491,1.923 -6.804,2.913c-42.15,16.715 -86.425,25.379 -130.696,34.587c-4.76,0.993 -4.76,0.993 -9.615,2.006c-85.471,17.425 -171.658,20.294 -258.652,20.143c-15.758,-0.013 -31.512,0.085 -47.269,0.19c-94.393,0.244 -187.086,-7.8 -279.258,-28.577c-9.134,-2.042 -18.288,-3.952 -27.456,-5.839c-122.794,-26.056 -251.687,-84.628 -326.969,-188.965c-44.01,-67.869 -70.255,-139.899 -85.156,-219.27c-0.63,-3.331 -1.26,-6.662 -1.909,-10.094c-13.359,-77.425 -15.278,-155.277 -15.018,-233.656c0.01,-5.029 0.02,-10.058 0.031,-15.239c0.774,-244.348 34.694,-489.777 74.252,-730.562c0.568,-3.458 1.136,-6.916 1.721,-10.478c13.244,-80.441 27.274,-160.61 43.307,-240.546c2.652,-13.252 5.254,-26.514 7.837,-39.78c20.254,-103.495 42.754,-206.566 66.862,-309.229c0.669,-2.858 1.338,-5.715 2.027,-8.66c13.976,-59.566 29.858,-118.524 46.931,-177.277c0.801,-2.761 1.601,-5.522 2.426,-8.366c9.442,-32.531 19.069,-65.004 29.085,-97.363c1.552,-5.017 3.104,-10.034 4.704,-15.202c5.458,-16.988 11.588,-33.717 17.739,-50.464c4.209,-11.474 8.335,-22.974 12.453,-34.481c48.66,-134.284 108.715,-257.359 208.593,-360.791c2.232,-2.326 4.464,-4.653 6.764,-7.05c87.687,-89.75 209.433,-148.09 330.736,-176.283c3.371,-0.793 6.742,-1.585 10.216,-2.401c130.829,-30.11 264.394,-37.956 398.118,-43.433c1.022,-3.093 2.044,-6.186 3.097,-9.373c65.132,-195.892 147.537,-394.946 288.569,-548.96c1.906,-2.094 3.811,-4.188 5.774,-6.346c24.937,-27.081 51.027,-47.732 81.466,-67.905c15.466,-11.008 27.931,-23.538 40.999,-37.224c70.565,-71.308 164.554,-124.374 254.332,-167.187c3.318,-1.595 6.637,-3.191 10.056,-4.834c2.939,-1.384 5.878,-2.768 8.906,-4.193c7.554,-3.587 7.554,-3.587 10.967,-12.311c-172.536,-4.516 -360.477,19.134 -525.048,73.747c-11.836,3.927 -23.723,7.534 -35.71,10.97c-85.281,24.483 -167.481,56.337 -247.575,94.45c-3.617,1.706 -7.233,3.412 -10.96,5.169c-103.712,49.234 -197.319,107.467 -280.707,186.497c99.05,-143.072 280.617,-223.978 437.5,-283.333c3.741,-1.421 7.481,-2.843 11.335,-4.307c88.23,-33.14 179.601,-56.707 271.999,-74.86c4.527,-0.891 9.054,-1.783 13.718,-2.701c67.355,-13.07 134.709,-22.985 203.021,-29.45c7.839,-0.746 15.672,-1.552 23.496,-2.445c27.556,-2.862 54.745,-2.95 82.405,-2.611c95.018,0.905 169.441,-3.526 256.764,-43.388c30.06,-13.093 61.697,-22.285 92.956,-32.041c10.813,-3.378 21.607,-6.814 32.398,-10.26c41.854,-13.241 83.929,-24.713 126.602,-35.003c17.727,-4.297 35.227,-9.184 52.754,-14.236c83.485,-23.673 168.547,-43.061 253.386,-61.198c-0,-15.164 -2.763,-16.801 -12.5,-27.865c-21.664,-26.815 -35.607,-57.684 -50,-88.802c-2.084,-4.404 -4.168,-8.808 -6.315,-13.346c-9.289,-22.016 -14.706,-45.367 -20.769,-68.424c-1.845,-6.873 -1.845,-6.873 -3.727,-13.884c-14.319,-53.806 -25.853,-107.265 -33.512,-162.419c-0.441,-3.156 -0.882,-6.313 -1.336,-9.565c-3.23,-23.272 -6.319,-46.561 -9.341,-69.862c-0.388,-2.964 -0.775,-5.928 -1.175,-8.982c-25.898,-199.459 -33.737,-401.346 -33.722,-602.307c0.001,-10.925 -0.01,-21.85 -0.022,-32.774c-0.182,-487.422 -0.182,-487.422 139.216,-670.146c8.132,-10.006 8.132,-10.006 12.369,-19.124c-117.159,-2.028 -234.189,3.309 -351.238,7.753Zm-1607.1,2975.58c-2.714,1.179 -5.427,2.358 -8.223,3.573c-73.007,31.898 -137.635,71.85 -194.267,128.182c-5.386,5.296 -10.947,10.413 -16.52,15.511c-80.698,75.525 -137.875,186.712 -173.875,290.186c-4.047,11.506 -8.403,22.887 -12.747,34.283c-5.154,13.556 -10.175,27.161 -15.201,40.765c-1.848,4.974 -3.696,9.948 -5.599,15.072c-10.574,28.948 -19.687,57.999 -27.914,87.695c-3.569,12.443 -7.545,24.595 -11.8,36.817c-13.209,39.011 -23.291,78.961 -33.854,118.75c-1.156,4.317 -2.312,8.634 -3.503,13.082c-33.539,125.454 -60.115,252.231 -85.774,379.479c-4.484,22.235 -9.024,44.456 -13.62,66.667c-24,116.642 -42.71,233.877 -57.815,351.978c-2.703,20.852 -5.598,41.675 -8.559,62.492c-0.463,3.311 -0.926,6.622 -1.403,10.033c-2.381,16.667 -5.135,33.195 -8.303,49.732c-4.57,25.015 -7.601,50.071 -10.346,75.342c-0.785,7.068 -0.785,7.068 -1.586,14.278c-1.1,9.934 -2.192,19.868 -3.276,29.803c-1.627,14.885 -3.279,29.766 -4.936,44.648c-2.681,24.181 -5.261,48.371 -7.798,72.568c-1.267,11.857 -2.624,23.701 -4.005,35.545c-7.393,66.756 -7.162,133.654 -7.058,200.729c0.019,13.443 -0.01,26.885 -0.085,40.328c-0.438,78.386 0.884,154.906 13.9,232.462c0.605,3.652 1.209,7.303 1.831,11.065c18.595,110.448 70.587,212.395 161.288,280.781c99.239,68.108 213.246,102.59 331.779,119.332c8.051,1.149 16.091,2.372 24.129,3.608c61.458,8.23 123.263,7.463 185.147,7.363c12.98,-0.019 25.957,0.01 38.937,0.085c116.867,0.678 228.755,-8.719 341.525,-41.244c2.865,-0.824 5.729,-1.648 8.681,-2.496c17.105,-5.15 32.608,-11.74 48.35,-20.16c-4.404,-43.496 -29.314,-77.964 -53.385,-113.282c-49.839,-73.262 -87.303,-149.466 -104.948,-236.718c-1.122,-5.382 -1.122,-5.382 -2.267,-10.873c-6.051,-31.942 -7.355,-63.321 -7.153,-95.746c0.044,-8.39 0,-16.778 -0.053,-25.168c-0.084,-67.245 9.86,-133.068 21.191,-199.203c1.107,-6.543 2.213,-13.086 3.319,-19.629c11.452,-67.475 23.414,-134.877 37.323,-201.894c11.253,-54.373 19.025,-109.192 26.806,-164.154c0.865,-5.979 1.732,-11.958 2.605,-17.936c2.77,-19.087 5.455,-38.18 7.926,-57.308c0.559,-4.3 0.559,-4.3 1.129,-8.687c1.036,-8.019 2.054,-16.04 3.07,-24.06c1.937,-12.842 1.937,-12.842 6.104,-25.342c1.696,-15.655 3.141,-31.309 4.476,-46.997c1.897,-20.563 4.519,-40.878 7.802,-61.268c10.878,-68.171 17.161,-136.91 24.137,-205.564c1.79,-17.571 3.603,-35.139 5.414,-52.708c8.042,-77.992 8.042,-77.992 15.723,-156.02c5.642,-58.591 12.254,-116.725 21.614,-174.839c1.045,-6.695 2.087,-13.389 3.125,-20.085c6.025,-38.5 12.783,-76.816 20.134,-115.085c5.503,-28.759 10.854,-57.548 16.239,-86.33c1.442,-7.694 2.888,-15.387 4.338,-23.079c7.698,-40.859 15.182,-81.737 21.789,-122.788c0.799,-4.879 0.799,-4.879 1.613,-9.856c3.626,-23.008 3.626,-23.008 3.596,-46.215c-5.429,-6.101 -5.429,-6.101 -13.021,-10.677c-45.036,-35.554 -55.245,-106.43 -61.979,-160.156c-1.33,-20.922 -1.631,-41.802 -1.563,-62.76c0.005,-2.898 0.01,-5.796 0.015,-8.782c0.486,-104.162 23.687,-203.264 48.752,-303.793c3.107,-11.438 3.107,-11.438 2.796,-20.498c-165.148,-5.93 -351.963,10.864 -504.167,79.166Z" style="fill:#090909;fill-rule:nonzero;"/><path d="M4987.79,1781.87c38.459,38.458 38.027,84.091 38.379,134.944c0.108,9.579 0.219,19.157 0.333,28.736c0.083,7.541 0.083,7.541 0.167,15.235c1.046,89.093 3.649,177.965 8.777,266.918c0.257,4.562 0.513,9.123 0.777,13.823c2.704,47.462 6.112,94.622 12.219,141.776c2.958,24.383 4.616,48.784 5.649,73.328c0.252,5.901 0.541,11.801 0.862,17.7c1.952,37.932 3.115,71.885 -21.33,103.373c-27.696,30.472 -61.551,45.741 -100.781,55.99c-3.222,0.867 -6.444,1.735 -9.764,2.629c-35.499,9.437 -71.256,17.803 -107.023,26.153c-15.546,3.657 -31.066,7.423 -46.588,11.184c-102.336,24.762 -204.902,48.64 -307.934,70.331c-29.672,6.287 -59.142,13.16 -88.587,20.432c-56.028,13.8 -112.528,25.319 -169.052,36.886c-36.693,7.54 -73.233,15.445 -109.642,24.263c-41.055,9.936 -82.292,18.736 -123.667,27.227c-21.593,4.433 -43.176,8.91 -64.761,13.382c-4.493,0.929 -8.987,1.859 -13.616,2.817c-52.635,10.901 -105.22,22.039 -157.803,33.185c-4.498,0.953 -8.996,1.906 -13.63,2.888c-8.774,1.86 -17.549,3.72 -26.323,5.58c-8.392,1.778 -16.784,3.553 -25.177,5.325c-19.457,4.11 -38.903,8.261 -58.328,12.521c-3.57,0.775 -7.14,1.549 -10.817,2.347c-6.566,1.426 -13.127,2.87 -19.683,4.339c-43.301,9.345 -87.066,12.563 -125.99,-11.646c-2.643,-1.557 -5.285,-3.115 -8.008,-4.72c-30.633,-19.767 -42.914,-44.007 -51.929,-78.646c-3.997,-19.442 -4.42,-38.248 -4.126,-58.04c0.033,-4.131 0.067,-8.262 0.101,-12.518c0.699,-36.992 5.212,-72.903 11.816,-109.261c2.176,-11.984 4.261,-23.982 6.344,-35.981c7.178,-41.184 14.979,-82.231 23.145,-123.229c0.698,-3.506 1.396,-7.011 2.115,-10.623c11.698,-58.49 24.494,-116.694 37.99,-174.794c0.849,-3.676 1.699,-7.352 2.574,-11.14c9.487,-40.918 19.711,-81.505 31.169,-121.917c6.828,-24.218 12.424,-48.562 17.559,-73.193c13.708,-62.194 33.148,-118.025 89.013,-154.183c75.63,-39.086 169.125,-49.311 252.637,-59.017c21.633,-2.822 43.091,-6.602 64.6,-10.238c91.323,-15.194 182.717,-29.536 274.418,-42.263c18.677,-2.594 37.342,-5.264 56.002,-7.981c62.008,-8.937 124.08,-16.034 186.393,-22.389c45.466,-4.655 90.843,-9.844 136.211,-15.377c65.458,-7.971 130.962,-15.446 196.548,-22.299c8.83,-0.925 17.659,-1.862 26.487,-2.812c151.533,-16.247 151.533,-16.247 182.274,8.955Z" style="fill:#fefefe;fill-rule:nonzero;"/><path d="M3354.46,1386.04c-3.352,3.953 -6.703,7.907 -10.157,11.98c-2.298,2.712 -4.597,5.424 -6.966,8.219c-5.264,5.993 -10.695,11.845 -16.276,17.546c-110.788,114.972 -142.106,283.768 -173.509,433.898c-16.032,75.796 -35.013,151.129 -56.181,225.65c-13.174,46.499 -24.866,93.407 -36.911,140.207c-14.759,57.321 -29.577,114.611 -45.288,171.679c-5.821,21.163 -11.474,42.358 -16.964,63.609c-7.621,29.476 -15.853,58.53 -25.212,87.506c-8.298,26.106 -15.203,52.542 -22.172,79.029c-10.936,41.406 -23.103,82.239 -36.496,122.916c-7.669,23.329 -14.886,46.744 -21.723,70.33c-140.421,482.417 -140.421,482.417 -261.312,642.431l-4.167,0c-1.604,-78.908 0.963,-155.082 12.5,-233.333c0.393,-2.68 0.786,-5.36 1.191,-8.121c8.761,-59.629 17.978,-119.188 29.587,-178.337c2.598,-13.767 4.711,-27.543 6.722,-41.407c2.599,-17.544 5.963,-34.591 10.157,-51.822c5.029,-20.893 8.63,-41.777 11.735,-63.021c7.278,-47.736 17.175,-94.898 27.114,-142.139c3.091,-14.693 6.155,-29.392 9.214,-44.092c1.989,-9.527 3.98,-19.054 5.973,-28.58c0.899,-4.303 1.798,-8.606 2.724,-13.038c5.584,-26.519 11.529,-52.936 17.668,-79.332c3.868,-16.733 7.54,-33.504 11.167,-50.29c1.494,-6.869 2.988,-13.738 4.482,-20.606c0.767,-3.527 1.534,-7.054 2.325,-10.688c13.651,-62.694 27.739,-125.256 42.584,-187.678c11.467,-48.26 22.568,-96.6 33.607,-144.959c20.78,-91.022 41.898,-181.927 64.758,-272.452c2.751,-10.967 5.46,-21.943 8.169,-32.92c9.769,-39.519 19.62,-79.009 30.355,-118.278c0.792,-2.946 1.583,-5.891 2.399,-8.926c5.151,-18.535 12.053,-35.704 19.736,-53.314c2.337,-7.44 4.596,-14.906 6.771,-22.396c29.799,-90.187 90.793,-174.087 174.267,-220.817c56.657,-27.851 134.802,-50.277 198.129,-48.454Z" style="fill:#fcfcfc;fill-rule:nonzero;"/><path d="M4331.11,3656.29c4.714,0.012 4.714,0.012 9.522,0.025c4.817,-0.006 4.817,-0.006 9.731,-0.012c6.806,-0.003 13.612,0.005 20.418,0.022c10.434,0.023 20.867,0.001 31.302,-0.026c6.599,0.003 13.199,0.008 19.799,0.016c3.134,-0.008 6.268,-0.017 9.497,-0.025c22.114,0.1 22.114,0.1 31.405,4.745c1.683,25.812 -4.293,46.477 -12.5,70.834c-0.951,2.857 -1.901,5.715 -2.881,8.659c-0.94,2.814 -1.88,5.628 -2.848,8.528c-1.037,3.142 -2.073,6.284 -3.141,9.522c-2.622,7.793 -5.36,15.547 -8.171,23.274c-13.708,39.986 -22.066,80.681 -29.834,122.152c-0.544,2.879 -1.089,5.757 -1.65,8.723c-11.125,59.26 -14.752,116.191 -14.747,176.352c-0.009,11.399 -0.085,22.797 -0.164,34.196c-0.204,63.241 3.693,126.219 16.561,188.281c0.699,3.405 1.398,6.809 2.118,10.317c13.096,60.496 31.271,125.316 82.257,164.162l0,8.334c-41.943,4.949 -83.893,9.842 -125.85,14.668c-19.492,2.244 -38.982,4.505 -58.467,6.81c-165.766,19.585 -165.766,19.585 -236.516,16.022c-6.727,-13.454 -4.757,-28.16 -4.72,-42.936c-0.006,-5.215 -0.006,-5.215 -0.012,-10.535c-0.003,-7.391 0.004,-14.782 0.022,-22.172c0.022,-11.147 0,-22.293 -0.027,-33.439c-0.045,-102.188 -0.045,-102.188 8.903,-120.085c1.227,-7.927 2.435,-15.858 3.539,-23.803c9.237,-65.893 24.539,-131.633 46.771,-194.394c4.335,-12.328 8.147,-24.763 11.93,-37.272c2.859,-9.29 5.724,-18.578 8.594,-27.864c1.391,-4.555 2.782,-9.11 4.215,-13.802c110.992,-348.941 110.992,-348.941 184.944,-349.277Z" style="fill:#fdfdfd;fill-rule:nonzero;"/><path d="M5011.75,1758.96c26.871,24.896 41.415,62.764 43.47,98.748c0.171,7.561 0.171,7.561 0.344,15.274c0.103,4.205 0.103,4.205 0.208,8.495c0.147,6.088 0.285,12.176 0.416,18.264c0.212,9.811 0.448,19.621 0.69,29.431c0.601,24.49 1.166,48.98 1.722,73.47c3.684,194.765 3.684,194.765 21.38,388.61c4.679,35.946 8.539,71.459 8.821,107.747c0.04,2.865 0.081,5.73 0.122,8.682c-0.212,41.144 -16.3,78.199 -44.946,107.545c-56.72,45.572 -134.788,57.538 -203.841,73.682c-7.739,1.823 -15.477,3.648 -23.215,5.474c-15.852,3.739 -31.706,7.469 -47.562,11.193c-21.795,5.123 -43.578,10.299 -65.356,15.494c-81.665,19.469 -163.427,38.407 -245.378,56.641c-5.847,1.301 -5.847,1.301 -11.813,2.629c-28.586,6.359 -57.174,12.71 -85.763,19.057c-14.395,3.197 -28.791,6.396 -43.186,9.596c-113.732,25.265 -227.516,50.22 -341.529,74.187c-7.432,1.562 -7.432,1.562 -15.014,3.156c-48.395,10.161 -96.805,20.238 -145.273,30.047c-3.582,0.725 -7.164,1.451 -10.855,2.198c-3.491,0.707 -6.982,1.413 -10.579,2.142c-6.788,1.374 -13.575,2.749 -20.363,4.123c-3.244,0.657 -6.489,1.314 -9.832,1.991c-65.003,13.197 -129.752,27.814 -193.852,44.913c-45.702,10.549 -95.344,0.512 -136.045,-21.008c-37.99,-24.238 -61.459,-58.678 -72.857,-102.161c-12.947,-61.992 -1.145,-128.747 9.722,-190.141c1.332,-7.81 2.662,-15.62 3.987,-23.431c18.628,-108.631 40.956,-216.019 67.465,-322.998c4.982,-20.408 9.624,-40.887 14.225,-61.383c49.551,-219.507 49.551,-219.507 84.896,-272.917c2.073,-3.137 4.146,-6.273 6.282,-9.505c48.614,-63.516 138.767,-72.746 211.686,-87.37c4.46,-0.899 4.46,-0.899 9.01,-1.816c156.495,-31.309 315.359,-52.58 473.642,-72.589c15.045,-1.902 30.088,-3.815 45.132,-5.73c48.231,-6.127 96.467,-12.177 144.768,-17.73c10.559,-1.218 21.115,-2.452 31.672,-3.687c75.726,-8.832 151.494,-17.287 227.278,-25.6c19.499,-2.139 38.996,-4.291 58.491,-6.471c19.222,-2.15 38.448,-4.268 57.676,-6.365c7.21,-0.792 14.419,-1.594 21.626,-2.408c134.133,-15.117 134.133,-15.117 182.528,20.521Zm-214.323,14.844c-8.852,0.929 -17.704,1.857 -26.556,2.783c-98.788,10.42 -197.467,21.858 -296.134,33.362c-32.865,3.83 -65.737,7.596 -98.615,11.316c-12.064,1.373 -24.129,2.748 -36.193,4.125c-7.319,0.831 -14.638,1.657 -21.958,2.476c-38.487,4.309 -76.659,9.41 -114.827,15.992c-30.617,5.258 -61.344,9.46 -92.132,13.578c-49.256,6.608 -98.321,13.694 -147.226,22.577c-29.759,5.369 -59.604,9.811 -89.536,14.103c-172.896,16.556 -172.896,16.556 -311.198,108.073c-23.604,34.652 -33.016,74.687 -41.666,115.104c-6.746,31.133 -14.173,61.902 -22.852,92.546c-10.692,37.833 -19.941,75.905 -28.711,114.225c-0.786,3.415 -1.572,6.83 -2.382,10.349c-12.649,55.06 -24.328,110.291 -35.378,165.693c-0.679,3.403 -1.359,6.805 -2.059,10.311c-8.11,40.779 -15.745,81.623 -22.848,122.589c-2.161,12.45 -4.394,24.882 -6.652,37.315c-12.233,70.687 -24.02,155.437 13.183,220.394c18.529,24.973 49.321,39.845 78.272,49.495c58.125,6.162 114.249,-9.403 170.573,-21.875c10.447,-2.263 20.896,-4.521 31.346,-6.772c21.73,-4.69 43.451,-9.415 65.167,-14.169c47.725,-10.444 95.51,-20.614 143.287,-30.821c14.418,-3.085 28.833,-6.183 43.247,-9.285c43.941,-9.456 87.898,-18.815 131.91,-27.934c40.322,-8.36 80.542,-17.1 120.72,-26.123c12.917,-2.891 25.835,-5.775 38.753,-8.659c4.811,-1.075 4.811,-1.075 9.72,-2.171c21.387,-4.769 42.79,-9.465 64.206,-14.105c2.842,-0.616 5.684,-1.232 8.612,-1.867c2.813,-0.609 5.625,-1.219 8.522,-1.847c48.932,-10.606 97.713,-21.655 146.348,-33.553c31.872,-7.738 63.876,-14.662 95.974,-21.392c54.548,-11.468 108.51,-24.859 162.525,-38.59c19.223,-4.839 38.496,-9.454 57.788,-14.014c3.425,-0.814 6.851,-1.627 10.381,-2.466c19.829,-4.701 39.673,-9.335 59.524,-13.94c9.251,-2.17 18.501,-4.34 27.751,-6.511c4.247,-0.972 8.494,-1.945 12.869,-2.947c53.112,-12.52 109.409,-27.659 140.777,-75.959c10.47,-20.767 14.11,-36.444 13.802,-59.635c-0.038,-2.938 -0.076,-5.875 -0.115,-8.901c-1.111,-50.841 -3.923,-102.914 -11.556,-153.209c-2.637,-19.495 -3.933,-38.931 -5.126,-58.561c-0.26,-4.219 -0.521,-8.438 -0.789,-12.785c-0.844,-13.933 -1.659,-27.869 -2.466,-41.805c-0.282,-4.788 -0.563,-9.576 -0.854,-14.51c-5.19,-89.69 -7.293,-179.308 -7.984,-269.138c-0.05,-4.834 -0.1,-9.667 -0.152,-14.647c-0.091,-8.96 -0.149,-17.92 -0.167,-26.88c-0.443,-41.78 -3.059,-81.568 -30.427,-114.929c-27.053,-25.7 -52.875,-26.467 -88.665,-25.816c-36.824,1.249 -73.421,5.467 -110.033,9.41Z" style="fill:#0d0d0d;fill-rule:nonzero;"/><path d="M4637.79,3581.87c0.907,21.806 -2.097,40.3 -8.382,61.019c-1.794,6.183 -3.588,12.368 -5.379,18.552c-1.416,4.811 -1.416,4.811 -2.86,9.719c-19.202,65.507 -35.01,130.755 -45.879,198.21c-0.755,4.14 -1.509,8.281 -2.287,12.546c-7.955,47.511 -8.055,95.117 -8.13,143.183c-0.012,4.495 -0.025,8.991 -0.038,13.623c0.014,78.204 7.209,150.763 27.122,226.481c0.954,3.681 1.909,7.362 2.893,11.155c7.606,28.415 17.673,55.207 29.659,82.074c9.482,22.085 13.675,41.237 9.114,65.104c-11.751,24.407 -29.055,36.062 -53.385,46.875c-25.628,6.03 -46.324,6.786 -70.313,-5.208c-43.755,-27.499 -60.98,-78.874 -72.802,-127.051c-3.803,-16.719 -7.005,-33.519 -10.008,-50.399c-1.722,-9.485 -3.652,-18.906 -5.617,-28.344c-33.33,-172.582 -8.894,-406.333 70.459,-565.039c0.936,-6.403 1.7,-12.832 2.343,-19.271c0.35,-3.405 0.699,-6.811 1.058,-10.319c0.379,-3.916 0.379,-3.916 0.765,-7.91c4.448,-1.523 4.448,-1.523 8.985,-3.076c13.455,-5.97 23.266,-13.528 34.765,-22.706c64.351,-49.218 64.351,-49.218 97.917,-49.218Z" style="fill:#fbfbfa;fill-rule:nonzero;"/><path d="M5929.46,1544.37c35.181,16.887 52.322,50.963 66.015,85.856c9.029,26.505 15.443,53.504 21.485,80.81c1.16,5.167 2.32,10.334 3.515,15.658c12.438,58.579 19.026,116.125 17.318,176.009l-33.333,0c-0.457,-4.651 -0.913,-9.303 -1.384,-14.095c-8.528,-164.23 -8.528,-164.23 -77.783,-306.738c-9.884,-2.089 -9.884,-2.089 -20.833,-0c-18.758,16.999 -29.445,43.013 -37.5,66.666c-0.355,20.946 6.494,34.206 16.211,52.442c10.002,21.766 15.278,45.276 21.289,68.392c1.117,4.055 2.234,8.11 3.385,12.288c33.008,128.766 30.289,270.09 12.24,400.993c-0.426,3.119 -0.852,6.239 -1.291,9.453c-8.081,57.548 -20.904,113.071 -44.128,166.556c-7.777,19.198 -8.449,32.311 -3.54,52.376c5.28,12.468 11.876,23.16 20.834,33.334c11.077,4.675 11.077,4.675 20.833,4.166c3.997,-5.292 7.989,-10.588 11.979,-15.885c2.224,-2.949 4.447,-5.898 6.739,-8.936c5.066,-6.864 9.883,-13.913 14.615,-21.012c15.105,-0.781 15.105,-0.781 29.167,0c-1.953,26.041 -13.27,46.661 -31.641,64.941c-13.186,11.183 -22.633,17.743 -39.713,20.476c-23.42,-3.022 -34.553,-13.43 -49.479,-31.25c-45.386,-68.291 -52.774,-158.407 -62.5,-237.5c-0.5,-3.936 -1.001,-7.872 -1.516,-11.927c-16.046,-131.859 -11.293,-269.083 5.682,-400.573c0.603,-4.755 1.205,-9.51 1.825,-14.409c25.188,-192.073 25.188,-192.073 89.517,-243.143c15.392,-8.796 24.496,-8.052 41.992,-4.948Z" style="fill:#0c0c0c;fill-rule:nonzero;"/><path d="M5846.12,1715.21c30.297,23.774 32.176,94.073 38.282,129.948c0.695,4.051 1.39,8.102 2.106,12.275c24.603,150.743 15.397,324.261 -32.054,470.277c-2.75,1.375 -5.5,2.75 -8.334,4.167c-2.661,-12.143 -5.252,-24.295 -7.812,-36.459c-0.725,-3.276 -1.45,-6.552 -2.197,-9.928c-15.476,-74.511 -16.329,-149.838 -16.077,-225.647c0.044,-15.877 0,-31.751 -0.053,-47.628c-0.058,-98.455 1.385,-201.028 26.139,-297.005Z" style="fill:#f6f7f7;fill-rule:nonzero;"/><path d="M4488.91,3551.85c9.827,0.077 19.653,0.086 29.48,0.085c6.348,0.02 12.695,0.045 19.043,0.073c4.331,0.007 4.331,0.007 8.749,0.014c19.765,0.189 38.74,2.116 58.276,4.853c-5.833,11.666 -14.681,13.605 -26.127,18.808c-32.484,14.781 -54.656,29.553 -77.975,56.989c-2.771,2.487 -5.543,4.974 -8.398,7.536c-7.971,-1.346 -7.971,-1.346 -16.667,-4.167c-29.862,-8.972 -58.507,-10.118 -89.583,-10.937c-5.017,-0.161 -10.033,-0.322 -15.202,-0.488c-12.293,-0.391 -24.587,-0.748 -36.882,-1.075c6.237,-12.996 13.011,-22.828 22.657,-33.593c3.73,-4.198 3.73,-4.198 7.535,-8.48c3.618,-3.924 3.618,-3.924 7.308,-7.927c2.794,-3.187 2.794,-3.187 5.643,-6.439c26.591,-23.502 78.651,-15.521 112.143,-15.252Z" style="fill:#f6f6f6;fill-rule:nonzero;"/><path d="M6075.29,2031.87l54.167,-0c0.105,21.693 0.179,43.385 0.229,65.078c0.02,7.341 0.048,14.681 0.085,22.022c0.251,51.674 -1.224,102.993 -4.481,154.566l-58.333,0c-1.602,-80.785 3.327,-161.081 8.333,-241.666Z" style="fill:#070707;fill-rule:nonzero;"/><path d="M6004.46,2031.87l33.333,-0c2.399,51.105 -1.726,100.658 -8.073,151.302c-0.381,3.041 -0.762,6.083 -1.154,9.217c-3.428,27.124 -6.972,54.198 -11.606,81.147l-33.334,0c0.494,-7.206 1.022,-14.411 1.563,-21.614c0.29,-4.012 0.58,-8.025 0.879,-12.158c1.455,-13.692 3.491,-27.007 5.762,-40.577c5.325,-33.869 7.152,-67.757 8.984,-101.953c0.361,-6.377 0.724,-12.755 1.09,-19.132c0.879,-15.409 1.727,-30.82 2.556,-46.232Z" style="fill:#0c0c0c;fill-rule:nonzero;"/><path d="M4075.29,4565.21l41.667,0c-1.375,20.625 -2.75,41.25 -4.167,62.5l-8.333,0c-6.136,-8.382 -6.136,-8.382 -12.761,-19.531c-2.196,-3.626 -4.393,-7.251 -6.657,-10.987c-5.445,-10.875 -8.001,-20.007 -9.749,-31.982Z" style="fill:#e0e0e0;fill-rule:nonzero;"/><path d="M3771.12,3486.04c2.75,1.375 5.5,2.75 8.334,4.167c-10.805,26.52 -36.838,44.797 -57.552,63.802c-2.49,2.291 -4.979,4.582 -7.544,6.942c-6.076,5.589 -12.156,11.173 -18.238,16.756c0,-17.428 9.673,-24.52 21.094,-36.458c2.078,-2.217 4.155,-4.434 6.296,-6.718c15.536,-16.502 31.405,-32.645 47.61,-48.491Z" style="fill:#232324;fill-rule:nonzero;"/><path d="M3729.46,3540.21c2.75,1.375 5.5,2.75 8.333,4.167c-8.135,8.359 -16.297,16.687 -24.479,25c-2.315,2.384 -4.63,4.769 -7.015,7.226c-6.012,6.084 -12.245,11.947 -18.506,17.774l-8.333,-0c-2.75,6.875 -5.5,13.75 -8.334,20.833l-12.5,0c18.585,-25.612 38.189,-46.491 62.5,-66.667c2.75,-2.75 5.5,-5.5 8.334,-8.333Z" style="fill:#d2d2d2;fill-rule:nonzero;"/><path d="M3721.12,3536.04c1.375,4.125 2.75,8.25 4.167,12.5c-9.625,9.625 -19.25,19.25 -29.167,29.167c0,-14.955 2.769,-17.119 12.5,-27.865c2.321,-2.594 4.641,-5.188 7.032,-7.861c1.804,-1.96 3.609,-3.921 5.468,-5.941Z" style="fill:#333;fill-rule:nonzero;"/></svg>