<?xml version="1.0" encoding="UTF-8"?>
<!-- Generator: visioncortex VTracer -->
<svg id="svg" version="1.1" xmlns="http://www.w3.org/2000/svg" style="display: block;" viewBox="0 0 2048 2048"><path d="M0 0 C675.84 0 1351.68 0 2048 0 C2048 675.84 2048 1351.68 2048 2048 C1372.16 2048 696.32 2048 0 2048 C0 1372.16 0 696.32 0 0 Z " transform="translate(0,0)" style="fill: #FEFEFE;"/><path d="M0 0 C0.66030968 -0.00088371 1.32061935 -0.00176743 2.00093842 -0.00267792 C22.41593631 -0.02687354 42.57851326 0.53272833 62.86474609 2.88720703 C65.63417967 3.20140602 68.39775711 3.46182583 71.17578125 3.68359375 C94.96635808 5.67394713 122.67042704 9.86658104 139.75 28 C147.98975653 37.85760827 150.41815462 48.57563619 150.375 61.125 C150.39111328 62.05441406 150.40722656 62.98382813 150.42382812 63.94140625 C150.432789 76.79130571 145.54337098 89.14839711 136.82421875 98.69140625 C131.32369514 103.55772315 122.59225405 109.25 115.0625 109.25 C115.14432516 165.12442366 115.23651719 220.99882201 115.34255161 276.87320527 C115.35507001 283.47438931 115.36750286 290.07557351 115.37988281 296.67675781 C115.38234881 297.99089734 115.3848148 299.30503687 115.38735552 300.6589988 C115.42704523 321.91847051 115.45980932 343.17794752 115.48999982 364.4374346 C115.52114832 386.26259688 115.55977222 408.08773677 115.60529006 429.91287386 C115.63312738 443.37277869 115.655181 456.8326672 115.66976251 470.29259302 C115.68033015 479.53103157 115.69817952 488.76943847 115.72166704 498.00785314 C115.73499198 503.33249257 115.74519076 508.65708777 115.74671364 513.98174477 C115.74818238 518.86784955 115.75890666 523.75384803 115.77663441 528.63992007 C115.78143819 530.39661566 115.78300203 532.15332417 115.78077881 533.91002493 C115.77146995 542.71908744 116.02715623 551.41618596 116.95490456 560.18166542 C117.03230258 560.93400259 117.10970061 561.68633977 117.18944403 562.46147504 C117.61590598 566.08606342 118.11697503 569.12359737 120.0625 572.25 C129.85367704 573.15659047 136.30968941 568.84628612 143.75 562.8125 C145.52653086 561.29832602 147.29789494 559.77805553 149.0625 558.25 C149.72378906 557.71117187 150.38507812 557.17234375 151.06640625 556.6171875 C154.90607284 553.47329942 158.11067471 550.02242756 161.3203125 546.2421875 C162.95323643 544.37494265 164.65179139 542.65737604 166.4375 540.9375 C170.5467131 536.88283397 174.10916881 532.42676808 177.71582031 527.92626953 C180.31664039 524.68891807 182.94233708 521.47169808 185.5625 518.25 C186.68101157 516.87241369 187.7995015 515.4948098 188.91796875 514.1171875 C191.56198298 510.86289373 194.21608678 507.61712908 196.875 504.375 C200.20751571 500.30728191 203.4995699 496.20953557 206.77734375 492.09765625 C209.62446156 488.54970944 212.50061755 485.02586453 215.375 481.5 C219.5350127 476.39621965 223.6423269 471.25769975 227.6875 466.0625 C231.23213723 461.51235108 234.8725836 457.06773466 238.625 452.6875 C242.72511039 447.90137609 246.62342797 442.99930675 250.43603516 437.98193359 C253.76861842 433.60321242 257.23204322 429.3486784 260.734375 425.10546875 C263.28388811 421.97846525 265.76971674 418.80690407 268.25 415.625 C273.01510211 409.51947492 277.92209081 403.54011967 282.86328125 397.57666016 C287.02355079 392.54396568 291.0774352 387.43993004 295.08325195 382.28393555 C298.20508949 378.28643958 301.44563562 374.40990721 304.75 370.5625 C308.7019212 365.95478948 312.32903921 361.20187001 315.84375 356.25390625 C319.12463196 351.81200797 322.63775603 347.56866384 326.13964844 343.30029297 C329.56951093 339.11165523 332.91758756 334.87688538 336.1875 330.5625 C339.94559644 325.6326546 343.86271459 320.89048786 347.89379883 316.18579102 C351.15457877 312.36471607 354.29187966 308.46545885 357.375 304.5 C361.51569616 299.17432413 365.75862165 293.94463767 370.0625 288.75 C375.72250595 281.91242436 381.25682668 274.99041925 386.70947266 267.98681641 C389.11213251 264.90263702 391.52465052 261.82620948 393.9375 258.75 C394.37795654 258.18643799 394.81841309 257.62287598 395.2722168 257.04223633 C398.13709624 253.38764711 401.07493617 249.80509387 404.0625 246.25 C402.75740568 242.84829583 401.26755319 239.65526806 399.5625 236.4375 C394.30897584 225.88396032 393.13726085 214.53125421 396.625 203.125 C402.65755816 187.15897153 412.20950931 175.57489377 427.6328125 168.28515625 C441.9124861 162.20137248 456.15337288 165.73725095 470.08984375 171.16796875 C481.71543738 175.88012082 492.47541989 181.54880501 503.0625 188.25 C503.74199707 188.67506836 504.42149414 189.10013672 505.12158203 189.53808594 C524.53608271 201.71165112 542.95646036 215.223769 561.0625 229.25 C561.74070801 229.77223145 562.41891602 230.29446289 563.11767578 230.83251953 C571.37869286 237.19455055 579.36735123 243.82224167 587.234375 250.66455078 C589.16023223 252.33475869 591.09490929 253.99430492 593.03125 255.65234375 C594.3542738 256.78893781 595.67719305 257.92565358 597 259.0625 C597.60255615 259.57731934 598.2051123 260.09213867 598.82592773 260.62255859 C602.52573716 263.81489243 606.0214148 267.14278436 609.43164062 270.64331055 C611.09275212 272.27980377 612.82630183 273.76729284 614.625 275.25 C628.55853952 287.35088829 642.98661205 303.0065073 650.0625 320.25 C650.4234375 320.95640625 650.784375 321.6628125 651.15625 322.390625 C654.57275491 333.17028705 653.19315372 348.32165534 648.0625 358.25 C645.97116337 361.80791954 643.64419768 365.03345863 641.0625 368.25 C640.14984375 369.425625 640.14984375 369.425625 639.21875 370.625 C631.92302985 379.47554575 620.91063165 387.13855429 609.27734375 388.59985352 C606.42400772 388.71192775 603.60433727 388.69913863 600.75 388.625 C599.78771484 388.62371094 598.82542969 388.62242187 597.83398438 388.62109375 C593.01907645 388.56111566 589.51884199 388.14942445 585.0625 386.25 C581.24537625 386.25601122 580.19404484 387.11963494 577.44921875 389.83984375 C576.53667239 390.94528064 575.6375206 392.06187184 574.75 393.1875 C574.26998535 393.7757959 573.7899707 394.3640918 573.29541016 394.97021484 C571.87191777 396.72048826 570.46564579 398.48339798 569.0625 400.25 C568.34449219 401.14074219 567.62648438 402.03148437 566.88671875 402.94921875 C565.59259171 404.55974558 564.30347433 406.17431139 563.01953125 407.79296875 C558.70284517 413.21252073 554.28641923 418.55265253 549.87890625 423.8984375 C545.32050708 429.4400208 540.85537785 435.04466834 536.43676758 440.69750977 C531.20986813 447.36762379 525.84463472 453.92418307 520.49169922 460.49316406 C512.6565559 470.1244745 505.01292132 479.91042031 497.37109375 489.6953125 C492.45861258 495.97719817 487.48609119 502.20181332 482.4375 508.375 C477.88460815 513.94267303 473.51996618 519.60076 469.2421875 525.3828125 C466.1110799 529.50150959 462.78522336 533.44284834 459.453125 537.3984375 C456.68658192 540.69839901 454.00093182 544.05601486 451.3203125 547.42578125 C448.44040099 551.02816191 445.53403647 554.60862235 442.625 558.1875 C441.77869019 559.22898193 441.77869019 559.22898193 440.9152832 560.29150391 C437.76752213 564.16223286 434.60730797 568.02228906 431.4375 571.875 C428.10797868 575.93494647 424.85651589 580.04967906 421.625 584.1875 C418.1751773 588.60485368 414.66865913 592.95804199 411.0625 597.25 C406.00418628 603.27180205 401.16035162 609.4471654 396.3203125 615.64404297 C391.87184742 621.32377963 387.33242028 626.92810136 382.75 632.5 C379.39999217 636.58175016 376.12195141 640.71151822 372.875 644.875 C368.65418521 650.28660962 364.3195584 655.59336434 359.9375 660.875 C339.06308704 685.18477468 339.06308704 685.18477468 331.50390625 715.23046875 C332.45862743 720.39130421 335.36202288 722.74428484 339.0625 726.25 C340.94506391 728.33555825 342.79690002 730.43046603 344.625 732.5625 C345.38623169 733.44627319 345.38623169 733.44627319 346.1628418 734.34790039 C352.922712 742.29940439 358.99944473 750.76280563 365.0625 759.25 C365.5457373 759.92256836 366.02897461 760.59513672 366.52685547 761.28808594 C390.33568883 794.57143197 408.67653081 831.03328521 423.0625 869.25 C423.41368896 870.18158936 423.76487793 871.11317871 424.12670898 872.07299805 C426.1915253 877.63946502 427.98883406 883.19769184 429.5 888.9375 C431.00607226 894.54638112 432.64479048 900.05633328 434.5 905.5625 C453.95386448 965.75631337 456.04552207 1037.82212471 444.53857422 1099.59228516 C443.95781967 1102.83438463 443.48454018 1106.08579596 443.01831055 1109.34594727 C440.14882899 1129.11466335 435.04298624 1148.40173561 428.96679688 1167.40478516 C428.02690297 1170.36199994 427.11298524 1173.32638565 426.203125 1176.29296875 C425.59430342 1178.25798405 424.98494653 1180.2228336 424.375 1182.1875 C424.10179932 1183.08114258 423.82859863 1183.97478516 423.54711914 1184.89550781 C422.08587196 1189.53727218 420.39410011 1193.78662621 418.13647461 1198.09350586 C416.39658049 1201.5871373 414.98520507 1205.21155207 413.51293945 1208.82421875 C400.76590464 1239.96746239 384.05530076 1269.19048427 364.0625 1296.25 C363.57861816 1296.91112793 363.09473633 1297.57225586 362.59619141 1298.25341797 C352.79371943 1311.63216224 342.56048938 1324.670057 331.28515625 1336.84375 C328.63939793 1339.70805075 326.08128867 1342.6409871 323.53515625 1345.59375 C320.68202303 1348.80257887 320.68202303 1348.80257887 319.0625 1350.25 C318.4025 1350.25 317.7425 1350.25 317.0625 1350.25 C316.80525146 1350.83628174 316.54800293 1351.42256348 316.28295898 1352.02661133 C314.95557585 1354.4447906 313.54381398 1355.94159847 311.53515625 1357.82421875 C310.83100586 1358.48719971 310.12685547 1359.15018066 309.40136719 1359.83325195 C308.65016602 1360.52765381 307.89896484 1361.22205566 307.125 1361.9375 C306.35446289 1362.65574951 305.58392578 1363.37399902 304.79003906 1364.11401367 C299.89670806 1368.64326364 294.92697237 1372.98814318 289.703125 1377.1328125 C287.30044509 1379.05922154 284.9682271 1381.04994536 282.64428711 1383.07006836 C267.42926818 1396.22322796 250.87126207 1407.19685441 233.71240234 1417.63427734 C231.49260969 1418.98774959 229.28435674 1420.35669099 227.08203125 1421.73828125 C181.25794943 1450.25656143 129.9037919 1467.58566255 77.0625 1477.25 C75.96518555 1477.45254395 74.86787109 1477.65508789 73.73730469 1477.86376953 C-15.03790361 1493.9762383 -109.15845666 1479.16140438 -241.9375 1410.25 C-243.24734431 1409.37101696 -244.55724019 1408.49211078 -245.8671875 1407.61328125 C-259.72088616 1398.25573284 -273.73715934 1388.71727298 -285.9375 1377.25 C-287.20414374 1376.14102975 -288.47506984 1375.0369337 -289.75 1373.9375 C-298.31166261 1366.44604522 -306.54829562 1358.70708094 -314.5390625 1350.61328125 C-316.37130706 1348.8078937 -318.17550028 1347.15400243 -320.1875 1345.5625 C-323.11872365 1343.09760739 -325.47991965 1340.45597736 -327.95703125 1337.546875 C-330.20796678 1334.93632255 -332.53805595 1332.40877701 -334.875 1329.875 C-339.46563054 1324.83430765 -343.75907826 1319.63481119 -347.9375 1314.25 C-348.68386719 1313.29867188 -349.43023438 1312.34734375 -350.19921875 1311.3671875 C-352.80733171 1308.01569935 -355.38253817 1304.64208547 -357.9375 1301.25 C-358.42347656 1300.60595215 -358.90945313 1299.9619043 -359.41015625 1299.29833984 C-393.65925875 1253.62922011 -418.95262597 1200.58108021 -432.9375 1145.25 C-433.22125488 1144.14430664 -433.50500977 1143.03861328 -433.79736328 1141.89941406 C-438.72901546 1122.50140259 -442.1895328 1103.13190476 -444.68035889 1083.28857422 C-444.92712263 1081.33227014 -445.18237017 1079.37704184 -445.43798828 1077.421875 C-450.22241657 1039.89849944 -450.20121745 999.6148145 -443.9375 962.25 C-443.82792969 961.58822754 -443.71835937 960.92645508 -443.60546875 960.24462891 C-441.9313381 950.20674389 -440.04912438 940.20512328 -437.9375 930.25 C-437.76492676 929.43402344 -437.59235352 928.61804687 -437.41455078 927.77734375 C-422.25797008 856.86386712 -388.62914961 785.61635372 -340.3984375 731.0703125 C-335.35674127 725.45646564 -335.35674127 725.45646564 -334.34375 718.11328125 C-337.00889317 705.26097901 -346.4212313 693.67613844 -353.9375 683.25 C-354.7615853 682.08937055 -355.58454458 680.92794058 -356.40625 679.765625 C-358.44791555 676.88376104 -360.50568709 674.01388731 -362.5703125 671.1484375 C-364.0599234 669.08000636 -365.54552905 667.00872674 -367.03125 664.9375 C-372.72367559 657.01496386 -378.47927173 649.14726699 -384.34936523 641.35546875 C-393.39171046 629.34825065 -402.2613743 617.21526691 -411.04492188 605.01782227 C-417.27370606 596.37792619 -423.60686646 587.81538558 -429.9375 579.25 C-437.35871495 569.20905114 -444.74921806 559.14933596 -452.04541016 549.01708984 C-458.27412403 540.37750396 -464.60704014 531.8151506 -470.9375 523.25 C-481.15265996 509.4288266 -491.27159113 495.54328242 -501.2890625 481.578125 C-506.14698735 474.81542327 -511.01230415 468.07317712 -516.125 461.5 C-519.84563796 456.7103505 -523.41111334 451.84149536 -526.91357422 446.89257812 C-530.46560723 441.88340586 -534.09875654 436.93720971 -537.75 432 C-543.13691119 424.71373886 -548.47056504 417.39134209 -553.76293945 410.03613281 C-556.12637323 406.75214026 -558.48951995 403.47191188 -560.9375 400.25 C-562.195625 400.394375 -563.45375 400.53875 -564.75 400.6875 C-565.45769531 400.76871094 -566.16539062 400.84992188 -566.89453125 400.93359375 C-569.13146393 401.22170735 -569.13146393 401.22170735 -571.9375 402.25 C-586.49867871 403.47171677 -598.18840818 402.79752601 -609.71484375 393.22265625 C-622.22046951 382.12363866 -630.52651371 370.7198279 -632.31640625 353.6328125 C-632.98415028 333.9451336 -620.54483245 318.21429792 -607.9375 304.25 C-599.34265518 295.15063978 -590.44105954 286.39677814 -580.9375 278.25 C-579.73501218 277.2038888 -578.53317588 276.15702817 -577.33203125 275.109375 C-574.16703717 272.35933322 -570.99598749 269.61635074 -567.82177734 266.87695312 C-566.63346718 265.85092321 -565.44615338 264.82373714 -564.26025391 263.79492188 C-555.84390344 256.50161602 -547.12170364 249.67690782 -538.22509766 242.97998047 C-535.92497536 241.24052832 -533.6393705 239.48333512 -531.35546875 237.72265625 C-517.65944593 227.22496202 -503.43101087 217.59992888 -488.9375 208.25 C-488.0403125 207.67088867 -487.143125 207.09177734 -486.21875 206.49511719 C-476.14999494 200.06448652 -465.73222452 194.4876134 -455 189.25 C-453.34774414 188.43921997 -453.34774414 188.43921997 -451.66210938 187.61206055 C-440.75571309 182.41514634 -430.38092432 178.5265725 -418.1875 178.8125 C-417.31996094 178.80541016 -416.45242188 178.79832031 -415.55859375 178.79101562 C-402.69537307 178.91636935 -393.1830877 184.81811532 -383.84765625 193.28125 C-374.0155485 203.41495614 -368.76231927 215.55548534 -368.75 229.5625 C-368.73775391 230.28373047 -368.72550781 231.00496094 -368.71289062 231.74804688 C-368.69273408 239.23956428 -370.15412989 245.46107588 -374 252 C-376.73219224 256.36566427 -376.73219224 256.36566427 -377.9375 261.25 C-376.78302556 263.73554779 -376.78302556 263.73554779 -374.875 266.3125 C-374.13894531 267.36824219 -373.40289063 268.42398437 -372.64453125 269.51171875 C-368.28248156 275.56892552 -363.84571822 281.57165033 -359.3984375 287.56640625 C-354.82780027 293.73514217 -350.37941472 299.98835088 -345.9375 306.25 C-337.92457098 317.52793221 -329.78485763 328.70670416 -321.55078125 339.82421875 C-315.42790094 348.09858761 -309.3771504 356.41049587 -303.47241211 364.84204102 C-299.74884782 370.142731 -295.92298263 375.36091208 -292.0625 380.5625 C-286.62058518 387.90064648 -281.33790613 395.33610784 -276.11987305 402.8347168 C-270.6913368 410.62850586 -265.1396209 418.32891838 -259.55957031 426.01464844 C-256.78431068 429.83919347 -254.01702017 433.66949153 -251.25 437.5 C-250.70593506 438.25297363 -250.16187012 439.00594727 -249.60131836 439.78173828 C-245.9635125 444.81971673 -242.3457571 449.87157334 -238.73876953 454.93164062 C-233.73070291 461.95135755 -228.67266788 468.93499222 -223.61962891 475.92236328 C-221.94659103 478.23742034 -220.27568192 480.55399814 -218.60546875 482.87109375 C-213.55699027 489.87283482 -208.4956084 496.86330099 -203.375 503.8125 C-196.38194339 513.31367375 -189.62076625 522.97894642 -182.86328125 532.6484375 C-165.82224038 558.47829579 -165.82224038 558.47829579 -141.9375 577.25 C-134.05586753 578.02524254 -126.78545874 576.32842418 -119.9375 572.25 C-116.96620677 567.80609214 -116.13396601 563.18083675 -115.3125 558 C-115.19132813 557.30003906 -115.07015625 556.60007812 -114.9453125 555.87890625 C-113.03720512 544.49248285 -112.78554641 533.23980476 -112.77928162 521.72299194 C-112.7747104 519.94069612 -112.76970956 518.15840135 -112.76431805 516.37610781 C-112.75079128 511.4960269 -112.74333448 506.61595291 -112.73689139 501.7358582 C-112.72886335 496.46671952 -112.71517389 491.19759515 -112.70217896 485.9284668 C-112.68045024 476.80513331 -112.66229261 467.68179835 -112.64657402 458.55845261 C-112.62384251 445.36769415 -112.59570426 432.17695157 -112.56625474 418.98620661 C-112.51861902 397.58407314 -112.47534397 376.18193317 -112.43481445 354.77978516 C-112.39543906 333.9920196 -112.35400794 313.20425981 -112.30981445 292.41650391 C-112.30572804 290.49383261 -112.30572804 290.49383261 -112.30155908 288.53231947 C-112.28787927 282.1018751 -112.27415906 275.67143082 -112.26041877 269.24098659 C-112.14651716 215.91066977 -112.03969386 162.58034045 -111.9375 109.25 C-112.55233749 109.12198502 -113.16717499 108.99397003 -113.80064392 108.86207581 C-115.01295433 108.60272499 -115.01295433 108.60272499 -116.24975586 108.33813477 C-117.4504496 108.08423729 -117.4504496 108.08423729 -118.67539978 107.82521057 C-127.38791686 105.60977737 -134.96321166 98.48829704 -139.9375 91.25 C-142.21789872 87.01932709 -144.1762531 82.72042606 -145.9375 78.25 C-146.31648438 77.30898438 -146.69546875 76.36796875 -147.0859375 75.3984375 C-148.17161733 71.38441022 -148.2393406 67.70103514 -148.1875 63.5625 C-148.17855713 62.76231445 -148.16961426 61.96212891 -148.16040039 61.13769531 C-147.89038583 47.29839969 -144.46142747 34.88769719 -135 24.375 C-123.85100072 14.29405612 -109.75139584 10.6336895 -95.36669922 7.74072266 C-93.2711634 7.31740336 -91.18345834 6.85565289 -89.09765625 6.38671875 C-60.0223921 0.2307182 -29.59530702 0.01975011 0 0 Z " transform="translate(1021.9375,294.75)" style="fill: #FEFEFE;"/><path d="M0 0 C0.66030968 -0.00088371 1.32061935 -0.00176743 2.00093842 -0.00267792 C22.41593631 -0.02687354 42.57851326 0.53272833 62.86474609 2.88720703 C65.63417967 3.20140602 68.39775711 3.46182583 71.17578125 3.68359375 C94.96635808 5.67394713 122.67042704 9.86658104 139.75 28 C147.98975653 37.85760827 150.41815462 48.57563619 150.375 61.125 C150.39111328 62.05441406 150.40722656 62.98382813 150.42382812 63.94140625 C150.432789 76.79130571 145.54337098 89.14839711 136.82421875 98.69140625 C131.32369514 103.55772315 122.59225405 109.25 115.0625 109.25 C115.14432516 165.12442366 115.23651719 220.99882201 115.34255161 276.87320527 C115.35507001 283.47438931 115.36750286 290.07557351 115.37988281 296.67675781 C115.38234881 297.99089734 115.3848148 299.30503687 115.38735552 300.6589988 C115.42704523 321.91847051 115.45980932 343.17794752 115.48999982 364.4374346 C115.52114832 386.26259688 115.55977222 408.08773677 115.60529006 429.91287386 C115.63312738 443.37277869 115.655181 456.8326672 115.66976251 470.29259302 C115.68033015 479.53103157 115.69817952 488.76943847 115.72166704 498.00785314 C115.73499198 503.33249257 115.74519076 508.65708777 115.74671364 513.98174477 C115.74818238 518.86784955 115.75890666 523.75384803 115.77663441 528.63992007 C115.78143819 530.39661566 115.78300203 532.15332417 115.78077881 533.91002493 C115.77146995 542.71908744 116.02715623 551.41618596 116.95490456 560.18166542 C117.03230258 560.93400259 117.10970061 561.68633977 117.18944403 562.46147504 C117.61590598 566.08606342 118.11697503 569.12359737 120.0625 572.25 C129.85367704 573.15659047 136.30968941 568.84628612 143.75 562.8125 C145.52653086 561.29832602 147.29789494 559.77805553 149.0625 558.25 C149.72378906 557.71117187 150.38507812 557.17234375 151.06640625 556.6171875 C154.90607284 553.47329942 158.11067471 550.02242756 161.3203125 546.2421875 C162.95323643 544.37494265 164.65179139 542.65737604 166.4375 540.9375 C170.5467131 536.88283397 174.10916881 532.42676808 177.71582031 527.92626953 C180.31664039 524.68891807 182.94233708 521.47169808 185.5625 518.25 C186.68101157 516.87241369 187.7995015 515.4948098 188.91796875 514.1171875 C191.56198298 510.86289373 194.21608678 507.61712908 196.875 504.375 C200.20751571 500.30728191 203.4995699 496.20953557 206.77734375 492.09765625 C209.62446156 488.54970944 212.50061755 485.02586453 215.375 481.5 C219.5350127 476.39621965 223.6423269 471.25769975 227.6875 466.0625 C231.23213723 461.51235108 234.8725836 457.06773466 238.625 452.6875 C242.72511039 447.90137609 246.62342797 442.99930675 250.43603516 437.98193359 C253.76861842 433.60321242 257.23204322 429.3486784 260.734375 425.10546875 C263.28388811 421.97846525 265.76971674 418.80690407 268.25 415.625 C273.01510211 409.51947492 277.92209081 403.54011967 282.86328125 397.57666016 C287.02355079 392.54396568 291.0774352 387.43993004 295.08325195 382.28393555 C298.20508949 378.28643958 301.44563562 374.40990721 304.75 370.5625 C308.7019212 365.95478948 312.32903921 361.20187001 315.84375 356.25390625 C319.12463196 351.81200797 322.63775603 347.56866384 326.13964844 343.30029297 C329.56951093 339.11165523 332.91758756 334.87688538 336.1875 330.5625 C339.94559644 325.6326546 343.86271459 320.89048786 347.89379883 316.18579102 C351.15457877 312.36471607 354.29187966 308.46545885 357.375 304.5 C361.51569616 299.17432413 365.75862165 293.94463767 370.0625 288.75 C375.72250595 281.91242436 381.25682668 274.99041925 386.70947266 267.98681641 C389.11213251 264.90263702 391.52465052 261.82620948 393.9375 258.75 C394.37795654 258.18643799 394.81841309 257.62287598 395.2722168 257.04223633 C398.13709624 253.38764711 401.07493617 249.80509387 404.0625 246.25 C402.75740568 242.84829583 401.26755319 239.65526806 399.5625 236.4375 C394.30897584 225.88396032 393.13726085 214.53125421 396.625 203.125 C402.65755816 187.15897153 412.20950931 175.57489377 427.6328125 168.28515625 C441.9124861 162.20137248 456.15337288 165.73725095 470.08984375 171.16796875 C481.71543738 175.88012082 492.47541989 181.54880501 503.0625 188.25 C503.74199707 188.67506836 504.42149414 189.10013672 505.12158203 189.53808594 C524.53608271 201.71165112 542.95646036 215.223769 561.0625 229.25 C561.74070801 229.77223145 562.41891602 230.29446289 563.11767578 230.83251953 C571.37869286 237.19455055 579.36735123 243.82224167 587.234375 250.66455078 C589.16023223 252.33475869 591.09490929 253.99430492 593.03125 255.65234375 C594.3542738 256.78893781 595.67719305 257.92565358 597 259.0625 C597.60255615 259.57731934 598.2051123 260.09213867 598.82592773 260.62255859 C602.52573716 263.81489243 606.0214148 267.14278436 609.43164062 270.64331055 C611.09275212 272.27980377 612.82630183 273.76729284 614.625 275.25 C628.55853952 287.35088829 642.98661205 303.0065073 650.0625 320.25 C650.4234375 320.95640625 650.784375 321.6628125 651.15625 322.390625 C654.57275491 333.17028705 653.19315372 348.32165534 648.0625 358.25 C645.97116337 361.80791954 643.64419768 365.03345863 641.0625 368.25 C640.14984375 369.425625 640.14984375 369.425625 639.21875 370.625 C631.92302985 379.47554575 620.91063165 387.13855429 609.27734375 388.59985352 C606.42400772 388.71192775 603.60433727 388.69913863 600.75 388.625 C599.78771484 388.62371094 598.82542969 388.62242187 597.83398438 388.62109375 C593.01907645 388.56111566 589.51884199 388.14942445 585.0625 386.25 C581.24537625 386.25601122 580.19404484 387.11963494 577.44921875 389.83984375 C576.53667239 390.94528064 575.6375206 392.06187184 574.75 393.1875 C574.26998535 393.7757959 573.7899707 394.3640918 573.29541016 394.97021484 C571.87191777 396.72048826 570.46564579 398.48339798 569.0625 400.25 C568.34449219 401.14074219 567.62648438 402.03148437 566.88671875 402.94921875 C565.59259171 404.55974558 564.30347433 406.17431139 563.01953125 407.79296875 C558.70284517 413.21252073 554.28641923 418.55265253 549.87890625 423.8984375 C545.32050708 429.4400208 540.85537785 435.04466834 536.43676758 440.69750977 C531.20986813 447.36762379 525.84463472 453.92418307 520.49169922 460.49316406 C512.6565559 470.1244745 505.01292132 479.91042031 497.37109375 489.6953125 C492.45861258 495.97719817 487.48609119 502.20181332 482.4375 508.375 C477.88460815 513.94267303 473.51996618 519.60076 469.2421875 525.3828125 C466.1110799 529.50150959 462.78522336 533.44284834 459.453125 537.3984375 C456.68658192 540.69839901 454.00093182 544.05601486 451.3203125 547.42578125 C448.44040099 551.02816191 445.53403647 554.60862235 442.625 558.1875 C441.77869019 559.22898193 441.77869019 559.22898193 440.9152832 560.29150391 C437.76752213 564.16223286 434.60730797 568.02228906 431.4375 571.875 C428.10797868 575.93494647 424.85651589 580.04967906 421.625 584.1875 C418.1751773 588.60485368 414.66865913 592.95804199 411.0625 597.25 C406.00418628 603.27180205 401.16035162 609.4471654 396.3203125 615.64404297 C391.87184742 621.32377963 387.33242028 626.92810136 382.75 632.5 C379.39999217 636.58175016 376.12195141 640.71151822 372.875 644.875 C368.65418521 650.28660962 364.3195584 655.59336434 359.9375 660.875 C339.06308704 685.18477468 339.06308704 685.18477468 331.50390625 715.23046875 C332.45862743 720.39130421 335.36202288 722.74428484 339.0625 726.25 C340.94506391 728.33555825 342.79690002 730.43046603 344.625 732.5625 C345.38623169 733.44627319 345.38623169 733.44627319 346.1628418 734.34790039 C352.922712 742.29940439 358.99944473 750.76280563 365.0625 759.25 C365.5457373 759.92256836 366.02897461 760.59513672 366.52685547 761.28808594 C390.33568883 794.57143197 408.67653081 831.03328521 423.0625 869.25 C423.41368896 870.18158936 423.76487793 871.11317871 424.12670898 872.07299805 C426.1915253 877.63946502 427.98883406 883.19769184 429.5 888.9375 C431.00607226 894.54638112 432.64479048 900.05633328 434.5 905.5625 C453.95386448 965.75631337 456.04552207 1037.82212471 444.53857422 1099.59228516 C443.95781967 1102.83438463 443.48454018 1106.08579596 443.01831055 1109.34594727 C440.14882899 1129.11466335 435.04298624 1148.40173561 428.96679688 1167.40478516 C428.02690297 1170.36199994 427.11298524 1173.32638565 426.203125 1176.29296875 C425.59430342 1178.25798405 424.98494653 1180.2228336 424.375 1182.1875 C424.10179932 1183.08114258 423.82859863 1183.97478516 423.54711914 1184.89550781 C422.08587196 1189.53727218 420.39410011 1193.78662621 418.13647461 1198.09350586 C416.39658049 1201.5871373 414.98520507 1205.21155207 413.51293945 1208.82421875 C400.76590464 1239.96746239 384.05530076 1269.19048427 364.0625 1296.25 C363.57861816 1296.91112793 363.09473633 1297.57225586 362.59619141 1298.25341797 C352.79371943 1311.63216224 342.56048938 1324.670057 331.28515625 1336.84375 C328.63939793 1339.70805075 326.08128867 1342.6409871 323.53515625 1345.59375 C320.68202303 1348.80257887 320.68202303 1348.80257887 319.0625 1350.25 C318.4025 1350.25 317.7425 1350.25 317.0625 1350.25 C316.80525146 1350.83628174 316.54800293 1351.42256348 316.28295898 1352.02661133 C314.95557585 1354.4447906 313.54381398 1355.94159847 311.53515625 1357.82421875 C310.83100586 1358.48719971 310.12685547 1359.15018066 309.40136719 1359.83325195 C308.65016602 1360.52765381 307.89896484 1361.22205566 307.125 1361.9375 C306.35446289 1362.65574951 305.58392578 1363.37399902 304.79003906 1364.11401367 C299.89670806 1368.64326364 294.92697237 1372.98814318 289.703125 1377.1328125 C287.30044509 1379.05922154 284.9682271 1381.04994536 282.64428711 1383.07006836 C267.42926818 1396.22322796 250.87126207 1407.19685441 233.71240234 1417.63427734 C231.49260969 1418.98774959 229.28435674 1420.35669099 227.08203125 1421.73828125 C181.25794943 1450.25656143 129.9037919 1467.58566255 77.0625 1477.25 C75.96518555 1477.45254395 74.86787109 1477.65508789 73.73730469 1477.86376953 C-15.03790361 1493.9762383 -109.15845666 1479.16140438 -241.9375 1410.25 C-243.24734431 1409.37101696 -244.55724019 1408.49211078 -245.8671875 1407.61328125 C-259.72088616 1398.25573284 -273.73715934 1388.71727298 -285.9375 1377.25 C-287.20414374 1376.14102975 -288.47506984 1375.0369337 -289.75 1373.9375 C-298.31166261 1366.44604522 -306.54829562 1358.70708094 -314.5390625 1350.61328125 C-316.37130706 1348.8078937 -318.17550028 1347.15400243 -320.1875 1345.5625 C-323.11872365 1343.09760739 -325.47991965 1340.45597736 -327.95703125 1337.546875 C-330.20796678 1334.93632255 -332.53805595 1332.40877701 -334.875 1329.875 C-339.46563054 1324.83430765 -343.75907826 1319.63481119 -347.9375 1314.25 C-348.68386719 1313.29867188 -349.43023438 1312.34734375 -350.19921875 1311.3671875 C-352.80733171 1308.01569935 -355.38253817 1304.64208547 -357.9375 1301.25 C-358.42347656 1300.60595215 -358.90945313 1299.9619043 -359.41015625 1299.29833984 C-393.65925875 1253.62922011 -418.95262597 1200.58108021 -432.9375 1145.25 C-433.22125488 1144.14430664 -433.50500977 1143.03861328 -433.79736328 1141.89941406 C-438.72901546 1122.50140259 -442.1895328 1103.13190476 -444.68035889 1083.28857422 C-444.92712263 1081.33227014 -445.18237017 1079.37704184 -445.43798828 1077.421875 C-450.22241657 1039.89849944 -450.20121745 999.6148145 -443.9375 962.25 C-443.82792969 961.58822754 -443.71835937 960.92645508 -443.60546875 960.24462891 C-441.9313381 950.20674389 -440.04912438 940.20512328 -437.9375 930.25 C-437.76492676 929.43402344 -437.59235352 928.61804687 -437.41455078 927.77734375 C-422.25797008 856.86386712 -388.62914961 785.61635372 -340.3984375 731.0703125 C-335.35674127 725.45646564 -335.35674127 725.45646564 -334.34375 718.11328125 C-337.00889317 705.26097901 -346.4212313 693.67613844 -353.9375 683.25 C-354.7615853 682.08937055 -355.58454458 680.92794058 -356.40625 679.765625 C-358.44791555 676.88376104 -360.50568709 674.01388731 -362.5703125 671.1484375 C-364.0599234 669.08000636 -365.54552905 667.00872674 -367.03125 664.9375 C-372.72367559 657.01496386 -378.47927173 649.14726699 -384.34936523 641.35546875 C-393.39171046 629.34825065 -402.2613743 617.21526691 -411.04492188 605.01782227 C-417.27370606 596.37792619 -423.60686646 587.81538558 -429.9375 579.25 C-437.35871495 569.20905114 -444.74921806 559.14933596 -452.04541016 549.01708984 C-458.27412403 540.37750396 -464.60704014 531.8151506 -470.9375 523.25 C-481.15265996 509.4288266 -491.27159113 495.54328242 -501.2890625 481.578125 C-506.14698735 474.81542327 -511.01230415 468.07317712 -516.125 461.5 C-519.84563796 456.7103505 -523.41111334 451.84149536 -526.91357422 446.89257812 C-530.46560723 441.88340586 -534.09875654 436.93720971 -537.75 432 C-543.13691119 424.71373886 -548.47056504 417.39134209 -553.76293945 410.03613281 C-556.12637323 406.75214026 -558.48951995 403.47191188 -560.9375 400.25 C-562.195625 400.394375 -563.45375 400.53875 -564.75 400.6875 C-565.45769531 400.76871094 -566.16539062 400.84992188 -566.89453125 400.93359375 C-569.13146393 401.22170735 -569.13146393 401.22170735 -571.9375 402.25 C-586.49867871 403.47171677 -598.18840818 402.79752601 -609.71484375 393.22265625 C-622.22046951 382.12363866 -630.52651371 370.7198279 -632.31640625 353.6328125 C-632.98415028 333.9451336 -620.54483245 318.21429792 -607.9375 304.25 C-599.34265518 295.15063978 -590.44105954 286.39677814 -580.9375 278.25 C-579.73501218 277.2038888 -578.53317588 276.15702817 -577.33203125 275.109375 C-574.16703717 272.35933322 -570.99598749 269.61635074 -567.82177734 266.87695312 C-566.63346718 265.85092321 -565.44615338 264.82373714 -564.26025391 263.79492188 C-555.84390344 256.50161602 -547.12170364 249.67690782 -538.22509766 242.97998047 C-535.92497536 241.24052832 -533.6393705 239.48333512 -531.35546875 237.72265625 C-517.65944593 227.22496202 -503.43101087 217.59992888 -488.9375 208.25 C-488.0403125 207.67088867 -487.143125 207.09177734 -486.21875 206.49511719 C-476.14999494 200.06448652 -465.73222452 194.4876134 -455 189.25 C-453.34774414 188.43921997 -453.34774414 188.43921997 -451.66210938 187.61206055 C-440.75571309 182.41514634 -430.38092432 178.5265725 -418.1875 178.8125 C-417.31996094 178.80541016 -416.45242188 178.79832031 -415.55859375 178.79101562 C-402.69537307 178.91636935 -393.1830877 184.81811532 -383.84765625 193.28125 C-374.0155485 203.41495614 -368.76231927 215.55548534 -368.75 229.5625 C-368.73775391 230.28373047 -368.72550781 231.00496094 -368.71289062 231.74804688 C-368.69273408 239.23956428 -370.15412989 245.46107588 -374 252 C-376.73219224 256.36566427 -376.73219224 256.36566427 -377.9375 261.25 C-376.78302556 263.73554779 -376.78302556 263.73554779 -374.875 266.3125 C-374.13894531 267.36824219 -373.40289063 268.42398437 -372.64453125 269.51171875 C-368.28248156 275.56892552 -363.84571822 281.57165033 -359.3984375 287.56640625 C-354.82780027 293.73514217 -350.37941472 299.98835088 -345.9375 306.25 C-337.92457098 317.52793221 -329.78485763 328.70670416 -321.55078125 339.82421875 C-315.42790094 348.09858761 -309.3771504 356.41049587 -303.47241211 364.84204102 C-299.74884782 370.142731 -295.92298263 375.36091208 -292.0625 380.5625 C-286.62058518 387.90064648 -281.33790613 395.33610784 -276.11987305 402.8347168 C-270.6913368 410.62850586 -265.1396209 418.32891838 -259.55957031 426.01464844 C-256.78431068 429.83919347 -254.01702017 433.66949153 -251.25 437.5 C-250.70593506 438.25297363 -250.16187012 439.00594727 -249.60131836 439.78173828 C-245.9635125 444.81971673 -242.3457571 449.87157334 -238.73876953 454.93164062 C-233.73070291 461.95135755 -228.67266788 468.93499222 -223.61962891 475.92236328 C-221.94659103 478.23742034 -220.27568192 480.55399814 -218.60546875 482.87109375 C-213.55699027 489.87283482 -208.4956084 496.86330099 -203.375 503.8125 C-196.38194339 513.31367375 -189.62076625 522.97894642 -182.86328125 532.6484375 C-165.82224038 558.47829579 -165.82224038 558.47829579 -141.9375 577.25 C-134.05586753 578.02524254 -126.78545874 576.32842418 -119.9375 572.25 C-116.96620677 567.80609214 -116.13396601 563.18083675 -115.3125 558 C-115.19132813 557.30003906 -115.07015625 556.60007812 -114.9453125 555.87890625 C-113.03720512 544.49248285 -112.78554641 533.23980476 -112.77928162 521.72299194 C-112.7747104 519.94069612 -112.76970956 518.15840135 -112.76431805 516.37610781 C-112.75079128 511.4960269 -112.74333448 506.61595291 -112.73689139 501.7358582 C-112.72886335 496.46671952 -112.71517389 491.19759515 -112.70217896 485.9284668 C-112.68045024 476.80513331 -112.66229261 467.68179835 -112.64657402 458.55845261 C-112.62384251 445.36769415 -112.59570426 432.17695157 -112.56625474 418.98620661 C-112.51861902 397.58407314 -112.47534397 376.18193317 -112.43481445 354.77978516 C-112.39543906 333.9920196 -112.35400794 313.20425981 -112.30981445 292.41650391 C-112.30572804 290.49383261 -112.30572804 290.49383261 -112.30155908 288.53231947 C-112.28787927 282.1018751 -112.27415906 275.67143082 -112.26041877 269.24098659 C-112.14651716 215.91066977 -112.03969386 162.58034045 -111.9375 109.25 C-112.55233749 109.12198502 -113.16717499 108.99397003 -113.80064392 108.86207581 C-115.01295433 108.60272499 -115.01295433 108.60272499 -116.24975586 108.33813477 C-117.4504496 108.08423729 -117.4504496 108.08423729 -118.67539978 107.82521057 C-127.38791686 105.60977737 -134.96321166 98.48829704 -139.9375 91.25 C-142.21789872 87.01932709 -144.1762531 82.72042606 -145.9375 78.25 C-146.31648438 77.30898438 -146.69546875 76.36796875 -147.0859375 75.3984375 C-148.17161733 71.38441022 -148.2393406 67.70103514 -148.1875 63.5625 C-148.17855713 62.76231445 -148.16961426 61.96212891 -148.16040039 61.13769531 C-147.89038583 47.29839969 -144.46142747 34.88769719 -135 24.375 C-123.85100072 14.29405612 -109.75139584 10.6336895 -95.36669922 7.74072266 C-93.2711634 7.31740336 -91.18345834 6.85565289 -89.09765625 6.38671875 C-60.0223921 0.2307182 -29.59530702 0.01975011 0 0 Z M-97.9375 105.25 C-97.93896521 106.61325673 -97.93896521 106.61325673 -97.94046003 108.00405401 C-97.99881711 161.9495565 -98.07267796 215.89501898 -98.16648628 269.84047207 C-98.17775354 276.32748575 -98.18889214 282.81449964 -98.19995117 289.30151367 C-98.20215486 290.59288272 -98.20435854 291.88425177 -98.206629 293.21475322 C-98.24193668 314.0847383 -98.26683761 334.95472335 -98.28784702 355.82472717 C-98.3096612 377.26233692 -98.34276464 398.69990814 -98.38620156 420.13748509 C-98.41262176 433.35016757 -98.43038794 446.5628021 -98.43684604 459.77550966 C-98.44212953 468.85375559 -98.45844496 477.93194135 -98.48316566 487.01015496 C-98.49707988 492.23644402 -98.50638965 497.46262562 -98.50250816 502.68893433 C-98.46286058 570.64296713 -98.46286058 570.64296713 -108.9375 582.25 C-119.07339227 590.26656934 -132.31131318 592.51709077 -144.9375 591.25 C-163.13615332 585.8820519 -177.87953359 564.6789276 -188.02734375 549.55078125 C-191.02473811 545.08685936 -194.15338568 540.72544923 -197.3125 536.375 C-197.85624268 535.62532959 -198.39998535 534.87565918 -198.96020508 534.10327148 C-200.06637448 532.57921225 -201.17306548 531.05553146 -202.28027344 529.53222656 C-205.00706854 525.77705852 -207.72164785 522.01308539 -210.4375 518.25 C-211.52210573 516.74867647 -212.60674116 515.24737439 -213.69140625 513.74609375 C-215.84755299 510.76090892 -218.00097504 507.77378612 -220.15234375 504.78515625 C-225.76653304 496.99083978 -231.41648382 489.22556132 -237.125 481.5 C-244.28942355 471.8003975 -251.29768396 461.99965646 -258.24145508 452.14135742 C-264.52340836 443.22421674 -270.88346792 434.36661964 -277.28320312 425.53369141 C-287.03867837 412.06664367 -296.7788415 398.58950506 -306.3449707 384.98706055 C-312.43729001 376.32832621 -318.64455037 367.76375054 -324.9375 359.25 C-338.7946514 340.49877479 -338.7946514 340.49877479 -345.11621094 331.58862305 C-349.19182248 325.85986834 -353.37562572 320.21208642 -357.5546875 314.55859375 C-362.08751675 308.42018351 -366.56521457 302.24408502 -371.02026367 296.04907227 C-375.73908599 289.49783767 -380.53251231 283.00276096 -385.35742188 276.52929688 C-388.07689887 272.86226693 -390.69371431 269.23630011 -392.9375 265.25 C-396.28793397 266.70188594 -398.44236196 268.5319659 -400.984375 271.13671875 C-401.7475 271.91080078 -402.510625 272.68488281 -403.296875 273.48242188 C-404.48023438 274.69768555 -404.48023438 274.69768555 -405.6875 275.9375 C-411.25104722 281.62622703 -416.87692614 287.0927447 -422.9375 292.25 C-424.1286077 293.28400137 -425.31873348 294.31913508 -426.5078125 295.35546875 C-429.67029322 298.09963191 -432.83805862 300.83766542 -436.00585938 303.57568359 C-437.81632193 305.14496471 -439.61991663 306.72175087 -441.421875 308.30078125 C-450.28666196 316.03465371 -459.51377792 323.21179787 -468.9375 330.25 C-469.69192383 330.81477051 -470.44634766 331.37954102 -471.22363281 331.96142578 C-490.86462728 346.63625568 -510.78924827 361.04540137 -532 373.3828125 C-532.61685165 373.74289398 -533.23370331 374.10297546 -533.86924744 374.47396851 C-536.97138178 376.28386847 -540.07975949 378.08090752 -543.20141602 379.85693359 C-544.33248779 380.51258301 -545.46355957 381.16823242 -546.62890625 381.84375 C-547.65185791 382.42833984 -548.67480957 383.01292969 -549.72875977 383.61523438 C-550.45764404 384.15470703 -551.18652832 384.69417969 -551.9375 385.25 C-551.9375 389.23794338 -550.038593 391.23930822 -547.75 394.3125 C-546.82419849 395.58071438 -545.89841827 396.8489443 -544.97265625 398.1171875 C-544.47781738 398.78975586 -543.98297852 399.46232422 -543.47314453 400.15527344 C-541.92701567 402.26430136 -540.39667346 404.38388101 -538.87109375 406.5078125 C-531.56145379 416.6837558 -524.14950268 426.78237672 -516.70361328 436.85888672 C-513.77793897 440.81991162 -510.85799694 444.78515717 -507.9375 448.75 C-506.7708611 450.33335379 -505.60419442 451.91668712 -504.4375 453.5 C-502.10416667 456.66666667 -499.77083333 459.83333333 -497.4375 463 C-496.85967773 463.78415283 -496.28185547 464.56830566 -495.68652344 465.3762207 C-494.52297866 466.9553868 -493.35956662 468.53465072 -492.19628906 470.11401367 C-489.23295312 474.13692899 -486.26714146 478.15797964 -483.296875 482.17578125 C-477.72650577 489.71498788 -472.1822833 497.26723671 -466.75805664 504.91235352 C-462.68276582 510.64083613 -458.49913149 516.28824203 -454.3203125 521.94140625 C-450.3243375 527.3528022 -446.36696135 532.79014844 -442.4375 538.25 C-436.25980897 546.82950072 -429.99554573 555.34324452 -423.71240234 563.84570312 C-421.92653218 566.2648571 -420.14431718 568.68666019 -418.36328125 571.109375 C-412.91919518 578.51330218 -407.46168651 585.90558345 -401.9375 593.25 C-392.38028743 605.96053475 -382.97753273 618.78103787 -373.69165039 631.69091797 C-370.16190845 636.58650958 -366.57271588 641.4323232 -362.9375 646.25 C-357.06732477 654.03734127 -351.32541714 661.91152993 -345.65673828 669.84667969 C-344.47349957 671.5007271 -343.28677224 673.15228264 -342.09716797 674.80175781 C-327.86778408 694.54941119 -327.86778408 694.54941119 -323.9375 704.25 C-323.60363281 705.04792969 -323.26976562 705.84585938 -322.92578125 706.66796875 C-320.30601133 713.93457039 -319.70008365 721.63948507 -320.9375 729.25 C-322.9820055 733.53293429 -325.72291454 736.78411144 -328.9375 740.25 C-330.09378906 741.49910156 -330.09378906 741.49910156 -331.2734375 742.7734375 C-332.07007813 743.63195313 -332.86671875 744.49046875 -333.6875 745.375 C-340.23223167 752.43852138 -345.54395196 760.29214823 -350.9375 768.25 C-351.51612793 769.10013672 -352.09475586 769.95027344 -352.69091797 770.82617188 C-360.11859136 781.76375747 -367.40499916 792.75142492 -373.9375 804.25 C-374.39914551 805.0558252 -374.86079102 805.86165039 -375.33642578 806.69189453 C-389.27527291 831.18733542 -401.07512687 856.85744565 -410.03808594 883.58544922 C-410.86580002 886.03758588 -411.72602482 888.47477075 -412.6015625 890.91015625 C-417.04405264 903.44118651 -420.0116387 916.29445825 -422.9375 929.25 C-423.13085938 930.08112305 -423.32421875 930.91224609 -423.5234375 931.76855469 C-426.66370268 945.26828163 -428.60636677 958.9122967 -430.43685913 972.6444397 C-430.75242981 974.9171449 -431.08864528 977.18716951 -431.45397949 979.45240784 C-432.82106188 988.08630242 -433.25731495 996.49341428 -433.2734375 1005.2265625 C-433.28139173 1006.63408622 -433.28972762 1008.04160782 -433.29841614 1009.4491272 C-433.31697518 1013.16193979 -433.31940681 1016.8745665 -433.31505966 1020.5874176 C-433.31248582 1022.88766929 -433.31311767 1025.18790645 -433.31387329 1027.48815918 C-433.30315557 1055.61230074 -431.35952029 1082.60633204 -425.9375 1110.25 C-425.74394424 1111.24181274 -425.74394424 1111.24181274 -425.54647827 1112.25366211 C-422.19498057 1129.36257841 -418.51274364 1146.12050839 -412.82128906 1162.62890625 C-411.87421413 1165.43768981 -410.98961579 1168.26092403 -410.1171875 1171.09375 C-409.81490234 1172.07126221 -409.51261719 1173.04877441 -409.20117188 1174.0559082 C-408.63339479 1175.89697218 -408.06922861 1177.73915619 -407.50976562 1179.58276367 C-405.79948844 1185.05073727 -403.69922133 1190.18856763 -401.27197266 1195.37670898 C-399.88705656 1198.35861121 -398.57809671 1201.36554274 -397.28125 1204.38671875 C-379.96440155 1244.42831487 -357.03193533 1281.75249375 -328.1796875 1314.53515625 C-326.18563838 1316.80398511 -324.22841459 1319.09209875 -322.3203125 1321.43359375 C-315.47735959 1329.77388518 -307.98006355 1337.42370184 -300.375 1345.0625 C-299.84410767 1345.59856873 -299.31321533 1346.13463745 -298.76623535 1346.68695068 C-292.5896971 1352.9109201 -286.31128178 1358.76808517 -279.44238281 1364.23876953 C-277.18667058 1366.04993496 -275.01840099 1367.91902313 -272.86328125 1369.84765625 C-268.47732247 1373.72260788 -263.82487932 1377.20486207 -259.125 1380.6875 C-258.23627197 1381.34854736 -257.34754395 1382.00959473 -256.43188477 1382.69067383 C-254.69206131 1383.9834737 -252.95114368 1385.27480273 -251.20898438 1386.56445312 C-249.41873547 1387.89290093 -247.63738266 1389.23333748 -245.859375 1390.578125 C-215.12075021 1413.58376242 -179.56385467 1431.141473 -143.625 1444.26757812 C-141.38943152 1445.08479538 -139.1618658 1445.91858275 -136.9375 1446.765625 C-110.95767282 1456.44678702 -83.29227066 1462.12193316 -55.9375 1466.25 C-54.54337891 1466.47647217 -54.54337891 1466.47647217 -53.12109375 1466.70751953 C-17.36874288 1472.34398709 22.34210908 1471.96057791 58.0625 1466.25 C59.1348288 1466.07890717 59.1348288 1466.07890717 60.2288208 1465.90435791 C100.76164483 1459.38038981 139.85339071 1448.991564 177.140625 1431.61181641 C180.04421982 1430.25851996 182.95882801 1428.93140342 185.875 1427.60546875 C220.48332674 1411.67320924 252.33331731 1390.19690934 281.0625 1365.25 C282.16464844 1364.29867188 282.16464844 1364.29867188 283.2890625 1363.328125 C285.2243803 1361.64725137 287.14417756 1359.95023851 289.0625 1358.25 C290.12839355 1357.31027344 290.12839355 1357.31027344 291.21582031 1356.3515625 C297.38084483 1350.86700989 303.31682164 1345.1819488 309.14916992 1339.34863281 C310.62205972 1337.8779359 312.10280265 1336.41546466 313.58398438 1334.953125 C319.10310716 1329.46608847 324.23745288 1323.78916917 329.09887695 1317.70166016 C330.73670037 1315.65677358 332.40703327 1313.67069737 334.14453125 1311.7109375 C341.34464777 1303.58588195 347.66468879 1295.03440396 353.79931641 1286.08300781 C355.35585758 1283.82430832 356.9604536 1281.60157296 358.5625 1279.375 C378.64691645 1250.428395 394.48470559 1219.21409585 407.21923828 1186.41699219 C407.97908191 1184.46436566 408.75239163 1182.51699221 409.52734375 1180.5703125 C412.42255196 1173.23109169 414.90691593 1165.83772366 417.0625 1158.25 C417.44559326 1156.90977783 417.44559326 1156.90977783 417.83642578 1155.54248047 C424.77061724 1131.08866422 429.64920028 1106.43134345 433.0625 1081.25 C433.21493164 1080.17411621 433.36736328 1079.09823242 433.52441406 1077.98974609 C435.9234964 1060.53033367 436.35102556 1043.22483269 436.375 1025.625 C436.38037781 1024.03546509 436.38037781 1024.03546509 436.38586426 1022.41381836 C436.41108913 1008.56375214 435.72233218 994.99829469 434.0625 981.25 C433.84364136 979.31133057 433.84364136 979.31133057 433.62036133 977.33349609 C431.5096904 959.04760153 428.27759478 941.16276078 424.0625 923.25 C423.83916992 922.29319336 423.61583984 921.33638672 423.38574219 920.35058594 C420.75238718 909.16582013 417.74132686 898.13871908 414.0625 887.25 C413.73685059 886.27627441 413.41120117 885.30254883 413.07568359 884.29931641 C401.54327473 850.09284464 386.29716455 817.52216077 366.43115234 787.33154297 C365.12488583 785.34488077 363.83621334 783.34783949 362.55078125 781.34765625 C352.31514532 765.55617705 340.68379791 750.34932943 327.8125 736.625 C319.31496658 727.17447217 317.01031589 720.7185955 317.5859375 708.03515625 C318.12196106 701.22711832 320.15325408 695.40117934 323.0625 689.25 C323.34657715 688.6420459 323.6306543 688.0340918 323.92333984 687.40771484 C328.49474341 677.78670669 334.31987301 669.47647154 341.0625 661.25 C342.08677707 659.98244881 343.11018123 658.71419185 344.1328125 657.4453125 C346.86582184 654.06208127 349.6141137 650.69162025 352.3671875 647.32470703 C361.26911437 636.43061507 370.16321703 625.52856567 378.81982422 614.43798828 C384.06471995 607.72504604 389.43574711 601.12885579 394.86962891 594.56811523 C398.49859075 590.1769623 402.06360557 585.74533283 405.5625 581.25 C411.89768263 573.11470127 418.48816994 565.19219842 425.0625 557.25 C430.36345582 550.83261823 435.56971473 544.35310639 440.69384766 537.79443359 C444.28235208 533.21291515 447.94244187 528.69361792 451.625 524.1875 C456.35516864 518.39643 460.9471731 512.52487148 465.48046875 506.578125 C468.36897186 502.82295826 471.37238469 499.16408035 474.375 495.5 C478.93111799 489.93954753 483.35130026 484.295934 487.6875 478.5625 C492.00199414 472.8614345 496.45147401 467.33332637 501.11425781 461.91455078 C504.61221502 457.83275272 507.90628754 453.61415588 511.15527344 449.33276367 C515.04933639 444.2197096 519.10285903 439.24412915 523.17089844 434.26904297 C526.73130838 429.90801175 530.22972272 425.50519352 533.6875 421.0625 C537.60867956 416.0340974 541.65233032 411.13346322 545.79516602 406.28662109 C550.03830727 401.31190376 554.15569756 396.23990863 558.26782227 391.15673828 C563.14067235 385.13806833 568.0850873 379.18244674 573.0625 373.25 C570.20802769 370.16155455 567.42637471 368.1487858 563.75 366.125 C535.34084817 349.9255926 508.8909783 329.16950108 483.6953125 308.41796875 C481.94520474 306.97685627 480.19000388 305.54190597 478.4296875 304.11328125 C466.80497468 294.6745567 455.56814415 284.91083533 444.671875 274.640625 C441.37716829 271.53539024 438.03864649 268.48153916 434.6875 265.4375 C429.66414153 260.84977153 424.81822462 256.11380927 420.0625 251.25 C416.03978496 252.77772773 414.33767035 255.23796721 411.875 258.6875 C411.08278311 259.77883769 410.28845922 260.86864855 409.4921875 261.95703125 C409.08967773 262.5082666 408.68716797 263.05950195 408.27246094 263.62744141 C405.7159746 267.05569165 402.95745692 270.32131938 400.234375 273.6171875 C396.79366604 277.78811886 393.43290228 282.02221469 390.0625 286.25 C378.73521738 300.45142942 378.73521738 300.45142942 373.5 306.8125 C369.7396129 311.3897755 366.07819737 316.03727919 362.43164062 320.70507812 C358.84282679 325.28664821 355.18258641 329.80610618 351.5 334.3125 C346.73374234 340.15057212 342.08632702 346.06180134 337.51171875 352.05078125 C328.13459032 364.32595178 318.41381335 376.33087101 308.58984375 388.25 C304.23549661 393.53358172 300.01143179 398.89902339 295.86254883 404.34448242 C292.23150691 409.0856518 288.40912357 413.65088451 284.5625 418.21875 C281.54595774 421.87630749 278.67419883 425.62945901 275.8059082 429.40332031 C273.04547306 433.01803523 270.18769182 436.52602518 267.25 440 C263.21735746 444.78481254 259.39910744 449.69686695 255.625 454.6875 C251.26983575 460.44156108 246.7947731 466.03586991 242.08837891 471.50537109 C238.29330763 475.92996311 234.69555838 480.49035887 231.11669922 485.09057617 C227.37957282 489.88147369 223.49973459 494.54030388 219.58984375 499.19140625 C216.87369908 502.47848705 214.24313176 505.82238714 211.625 509.1875 C207.60524616 514.35090212 203.45719651 519.37621699 199.1965332 524.34204102 C195.77933473 528.3457417 192.5311116 532.46071386 189.3125 536.625 C185.99258955 540.90886767 182.60963929 544.94818705 178.671875 548.6796875 C176.85590602 550.45157957 175.21591631 552.32589164 173.5625 554.25 C162.10425869 567.4946041 144.65044483 584.90914374 126.703125 587.7890625 C120.60865429 588.05587113 115.61028495 587.58762469 110.64453125 583.85546875 C98.2655379 571.2930829 100.7632277 543.777714 100.7840271 527.38131714 C100.77901031 525.55086751 100.77313053 523.72042007 100.76647437 521.88997567 C100.75082759 516.91393987 100.74725224 511.93796075 100.74582577 506.96190333 C100.74210464 501.57565026 100.72693594 496.18942733 100.71321106 490.80319214 C100.691019 481.48901567 100.67595747 472.17485004 100.66584396 462.86065292 C100.65121135 449.39416132 100.62566187 435.92770749 100.59751268 422.46123816 C100.55212765 400.60877168 100.5154787 378.75629973 100.484375 356.90380859 C100.45415542 335.68569988 100.41978956 314.46760452 100.37988281 293.24951172 C100.37742126 291.93996269 100.37495972 290.63041366 100.37242357 289.28118132 C100.36004831 282.71106126 100.34759191 276.14094135 100.33509517 269.57082152 C100.23165157 215.13056634 100.14240749 160.69029447 100.0625 106.25 C98.32000288 106.24044749 96.57749042 106.2336701 94.8349762 106.2280426 C93.86461709 106.22396676 92.89425798 106.21989092 91.89449406 106.21569157 C88.06654418 106.26206559 84.32412804 106.62971653 80.52734375 107.08984375 C79.76434464 107.17625626 79.00134552 107.26266876 78.21522522 107.35169983 C75.80944122 107.62450108 73.40467115 107.90506973 71 108.1875 C49.76199506 110.67337891 28.86847569 111.41610442 7.47875977 111.38037109 C4.07502928 111.37470276 0.6713774 111.37805679 -2.73235035 111.38379288 C-25.7510559 111.41707655 -48.48833722 110.74713662 -71.375 108.25 C-73.08131408 108.06968565 -74.7876945 107.88999795 -76.49414062 107.7109375 C-79.60123567 107.38259146 -82.70812768 107.05265538 -85.81420898 106.71484375 C-86.41990219 106.649021 -87.0255954 106.58319824 -87.64964294 106.51538086 C-91.08189508 106.11725545 -94.50906068 105.67969943 -97.9375 105.25 Z " transform="translate(1021.9375,294.75)" style="fill: #070808;"/><path d="M0 0 C2.74222777 1.43622264 5.07359524 2.96511001 7.484375 4.90234375 C8.144375 5.42054688 8.804375 5.93875 9.484375 6.47265625 C14.57027013 11.01050234 17.58225383 16.81058477 20.484375 22.90234375 C21.04898438 24.05089844 21.04898438 24.05089844 21.625 25.22265625 C22.79139801 28.85969732 22.89175285 32.37034052 22.921875 36.15234375 C22.95474609 36.86519531 22.98761719 37.57804688 23.02148438 38.3125 C23.1143884 47.68736114 18.13379746 53.53787653 11.80859375 60.00390625 C9.61473145 62.19749816 7.39437267 64.36283542 5.171875 66.52734375 C4.05706993 67.63062922 2.9431314 68.734791 1.83007812 69.83984375 C-3.26401941 74.87676683 -8.40595856 79.81376704 -13.84985352 84.47509766 C-16.23152643 86.51573372 -18.52457451 88.64933599 -20.828125 90.77734375 C-25.39360752 94.94500414 -30.10006136 98.88107802 -34.91015625 102.76171875 C-37.27946422 104.70831661 -39.56003504 106.71468153 -41.828125 108.77734375 C-47.79896148 114.1415177 -54.17044934 118.9941074 -60.515625 123.90234375 C-61.602991 124.74853549 -62.69023481 125.59488428 -63.77734375 126.44140625 C-77.98291937 137.47200299 -92.58078012 147.88248148 -107.515625 157.90234375 C-108.41345703 158.50626953 -109.31128906 159.11019531 -110.23632812 159.73242188 C-165.80664367 196.97346493 -165.80664367 196.97346493 -185.0234375 193.44140625 C-194.59214207 190.60746936 -201.17597877 184.13599672 -206.515625 175.90234375 C-208.06876674 172.97024439 -209.33655219 170.001113 -210.515625 166.90234375 C-210.928125 165.95359375 -211.340625 165.00484375 -211.765625 164.02734375 C-213.82103123 155.46315112 -212.75061535 148.52818786 -208.515625 140.90234375 C-207.94328125 139.85626953 -207.94328125 139.85626953 -207.359375 138.7890625 C-206.43712796 137.14548653 -205.48019536 135.52144399 -204.515625 133.90234375 C-202.515625 136.90234375 -202.515625 136.90234375 -202.515625 138.90234375 C-193.15162289 142.02367779 -184.90572546 137.91314535 -176.515625 133.90234375 C-163.67483162 127.45552567 -151.55797985 119.71121402 -139.515625 111.90234375 C-137.91654297 110.87173828 -137.91654297 110.87173828 -136.28515625 109.8203125 C-112.69003742 94.36144155 -90.66352061 76.61568223 -69.21142578 58.34375 C-67.51327654 56.90034759 -65.80972307 55.46352952 -64.10546875 54.02734375 C-39.30392872 35.25084386 -39.30392872 35.25084386 -24.18359375 9.80859375 C-24.02832227 6.63415469 -24.07735089 4.48670923 -26.015625 1.90234375 C-26.510625 1.57234375 -27.005625 1.24234375 -27.515625 0.90234375 C-20.01057474 -3.33470343 -8.01692895 -2.50306337 0 0 Z " transform="translate(616.515625,489.09765625)" style="fill: #FDFDFD;"/><path d="M0 0 C0.3403125 1.60875 0.3403125 1.60875 0.6875 3.25 C2.20843937 7.59554104 3.0624205 8.70307863 7 11 C21.62417571 16.88989395 38.146157 17.62279193 53.6875 18.625 C56.38195171 18.80561205 59.07618041 18.98893979 61.7702179 19.17562866 C63.42830232 19.28984677 65.08665355 19.40027814 66.74528503 19.5062561 C67.86849907 19.58171158 67.86849907 19.58171158 69.0144043 19.65869141 C69.66563766 19.70071686 70.31687103 19.74274231 70.98783875 19.78604126 C73 20 73 20 75.442276 20.51225281 C77.99519613 20.99908392 80.31334651 21.13335517 82.90917969 21.14526367 C84.34225967 21.15469749 84.34225967 21.15469749 85.80429077 21.1643219 C86.83309357 21.16552536 87.86189636 21.16672882 88.921875 21.16796875 C90.54254379 21.17418495 90.54254379 21.17418495 92.19595337 21.18052673 C95.71400325 21.19022582 99.23193877 21.19017977 102.75 21.1875 C103.94683411 21.18756042 105.14366821 21.18762085 106.37677002 21.18768311 C124.52136445 21.17460515 142.52761105 20.74721669 160.61376953 19.2734375 C163.87533136 19.01006697 167.13757516 18.7820144 170.40234375 18.5625 C194.59018163 17.21198568 194.59018163 17.21198568 217 9 C219.12508244 5.81237635 219.5020163 3.73487777 220 0 C229.48182486 2.49521707 236.17513501 7.282952 241.625 15.33984375 C246.65237698 25.06610433 246.65607344 38.21933877 244.08984375 48.7265625 C241.08921983 56.34872617 236.69135004 63.34045504 229.19433594 67.1730957 C218.34975102 71.25972333 206.19048672 71.92033337 194.75 73.0625 C193.18351987 73.22389394 191.61711309 73.38600133 190.05078125 73.54882812 C187.80792138 73.78193822 185.56505385 74.01443221 183.32147217 74.24049377 C182.62725159 74.31074265 181.93303101 74.38099152 181.21777344 74.45336914 C180.44192398 74.53070786 179.66607452 74.60804657 178.86671448 74.68772888 C176.62455867 74.93196684 174.38580438 75.2074785 172.14878845 75.49501038 C160.37457011 76.97931093 148.76858997 77.31066851 136.91015625 77.30078125 C134.91222549 77.30468828 132.91429553 77.30902689 130.91636658 77.31376648 C126.74540511 77.3211734 122.57452832 77.32098165 118.40356445 77.31567383 C114.20651442 77.31107383 110.00975628 77.31784977 105.81274414 77.33618164 C73.62380913 77.47557538 41.91694816 76.48522649 10.07763672 71.31884766 C8.10107221 71.0155112 6.1148186 70.77743065 4.12890625 70.54296875 C-5.4332251 69.38162022 -11.64277326 66.48409233 -17.6875 58.87890625 C-24.238576 49.50072899 -25.94533743 39.29973645 -25 28 C-23.14625795 17.96372467 -18.4299385 9.83876888 -10 4 C-3.14285714 0 -3.14285714 0 0 0 Z " transform="translate(913,321)" style="fill: #FDFDFD;"/><path d="M0 0 C-0.5259375 0.7425 -0.5259375 0.7425 -1.0625 1.5 C-2.46905159 5.25080425 -2.14860253 8.25919614 -1 12 C2.78355932 19.82805378 8.31044771 25.63323556 14.49609375 31.56640625 C16.39015013 33.4072754 18.06735944 35.17951528 19.6875 37.25 C22.22074952 40.26251295 24.98211885 42.67763652 27.97265625 45.22265625 C29.85035132 46.86880511 31.58127698 48.57735116 33.3125 50.375 C36.957208 54.07729933 40.93384858 57.290552 44.9765625 60.546875 C48.19006748 63.15421496 51.34864869 65.81832572 54.5 68.5 C80.68467765 90.69343574 108.21637085 111.30430198 138 128.4375 C138.86012695 128.93378906 139.72025391 129.43007813 140.60644531 129.94140625 C151.10213912 136.24441728 151.10213912 136.24441728 162.875 138.4375 C163.77992188 138.43621094 164.68484375 138.43492187 165.6171875 138.43359375 C168.41074643 137.92525762 169.28010305 137.21206871 171 135 C171.33 134.34 171.66 133.68 172 133 C172.66 133 173.32 133 174 133 C179.67624964 142.86586246 181.40360419 150.7949564 180 162 C179.08064411 165.33382589 177.83162633 168.0769251 176 171 C175.34 172.0725 174.68 173.145 174 174.25 C173.34 175.1575 172.68 176.065 172 177 C171.195625 178.2065625 171.195625 178.2065625 170.375 179.4375 C164.61597281 185.65118723 157.37217192 190.40082109 149 192 C148.10410156 192.18433594 147.20820312 192.36867188 146.28515625 192.55859375 C134.48114497 193.78912774 124.73441598 186.79849653 115 181 C114.0090332 180.41138184 113.01806641 179.82276367 111.99707031 179.21630859 C99.28669359 171.59618354 87.06174952 163.43943076 75.17089844 154.6015625 C72.15636488 152.37761512 69.10643181 150.20446865 66.05834961 148.02685547 C57.51589967 141.91387648 49.17903746 135.59032218 41 129 C40.07058594 128.25363281 39.14117188 127.50726562 38.18359375 126.73828125 C32.42894728 122.07257807 26.7945578 117.27539934 21.18701172 112.43505859 C17.7190153 109.44801827 14.20436506 106.54131809 10.625 103.6875 C5.1102157 99.2184822 -0.02822709 94.38117867 -5.16748047 89.4909668 C-8.34171514 86.47308458 -11.5379651 83.51198714 -14.859375 80.65625 C-19.80629646 76.36060391 -24.42968489 71.75432392 -29.0625 67.125 C-29.92166016 66.27808594 -30.78082031 65.43117188 -31.66601562 64.55859375 C-48.27116029 47.99150518 -48.27116029 47.99150518 -48.3125 34.625 C-48.26356861 28.86927012 -47.86220157 24.0605465 -45 19 C-44.41412109 17.93072266 -44.41412109 17.93072266 -43.81640625 16.83984375 C-38.88088196 8.68853876 -31.50529442 1.0774275 -22.48828125 -2.4140625 C-14.68959236 -4.25048845 -7.01834557 -3.91721613 0 0 Z " transform="translate(1480,477)" style="fill: #FDFDFD;"/><path d="M0 0 C3.375 0.875 3.375 0.875 5.375 2.875 C5.95552162 7.86793949 4.52797492 11.47715556 2.375 15.87109375 C1.73225169 17.23624801 1.08968061 18.60148573 0.44726562 19.96679688 C0.10864502 20.67570068 -0.22997559 21.38460449 -0.57885742 22.11499023 C-26.48867507 76.54072388 -37.83816276 136.88545227 -37.9375 196.9375 C-37.94108521 197.80534119 -37.94467041 198.67318237 -37.94836426 199.56732178 C-37.97337363 210.76540309 -37.33571822 221.70952743 -35.89248657 232.8142395 C-35.63974245 234.76142175 -35.4027541 236.71063034 -35.16674805 238.65991211 C-31.60859653 267.90763885 -26.01039762 295.75308539 -17.25 323.85394287 C-16.61434083 325.90946847 -15.9933524 327.96899292 -15.375 330.02978516 C-12.90849527 338.19171844 -10.10157464 346.0803544 -6.625 353.875 C-6.13660645 354.98166016 -5.64821289 356.08832031 -5.14501953 357.22851562 C11.06462155 393.54854036 31.64734291 427.17958574 57.87939453 457.15844727 C58.8881694 458.31624944 59.88901034 459.48100604 60.88232422 460.65209961 C65.83880012 466.44360961 71.16554381 471.85168514 76.55273438 477.23803711 C78.11360327 478.80108734 79.66627888 480.37197365 81.21875 481.94335938 C87.61306066 488.37305227 94.26371673 494.23255898 101.375 499.875 C102.40269172 500.7382196 103.42611075 501.60660885 104.44140625 502.484375 C132.85532245 526.85186495 166.20063609 545.39002249 200.55151367 559.96289062 C202.375 560.875 202.375 560.875 204.375 562.875 C204.7017107 565.94608055 204.85638276 568.02550101 203.3125 570.75 C200.23694842 572.53580415 197.90607024 572.14902215 194.375 571.875 C191.06996729 570.85988545 187.96132173 569.48316558 184.8125 568.0625 C183.89774902 567.65797607 182.98299805 567.25345215 182.04052734 566.83666992 C156.52077116 555.41650291 132.65200195 541.81009559 110.375 524.875 C109.74803223 524.3996582 109.12106445 523.92431641 108.47509766 523.43457031 C86.90771346 506.99296348 65.93156065 488.59392251 48.375 467.875 C47.4868978 466.86090881 46.5974536 465.8479921 45.70703125 464.8359375 C29.53964399 446.37034975 15.54308372 426.18142262 3.375 404.875 C2.92157227 404.08174316 2.46814453 403.28848633 2.00097656 402.47119141 C-9.7688762 381.72653107 -19.51634163 360.2962978 -27.625 337.875 C-28.01977539 336.81031494 -28.41455078 335.74562988 -28.82128906 334.64868164 C-31.84824401 326.38227778 -34.38580688 318.07436606 -36.625 309.5625 C-36.8797963 308.59946457 -36.8797963 308.59946457 -37.13973999 307.61697388 C-40.51735751 294.80701312 -43.33619749 281.92459046 -45.625 268.875 C-45.77275879 268.04967773 -45.92051758 267.22435547 -46.07275391 266.37402344 C-55.12045104 214.5119005 -53.23906837 160.9030027 -43.6875 109.3125 C-43.56620728 108.65117065 -43.44491455 107.98984131 -43.31994629 107.30847168 C-40.6808124 93.03222601 -36.92193006 79.2382398 -32.25 65.5 C-31.85063232 64.32083008 -31.45126465 63.14166016 -31.03979492 61.92675781 C-30.25073122 59.60119713 -29.45971834 57.27629664 -28.66650391 54.95214844 C-27.82166053 52.45603827 -27.00064968 49.95554499 -26.19921875 47.4453125 C-22.97161583 37.53995331 -18.74041797 28.06644071 -14.5 18.5625 C-14.19204498 17.865802 -13.88408997 17.169104 -13.56680298 16.45129395 C-12.67717068 14.44581001 -11.77442672 12.44678954 -10.8671875 10.44921875 C-10.3397998 9.27963623 -9.81241211 8.11005371 -9.26904297 6.9050293 C-5.42106331 -0.18693322 -5.42106331 -0.18693322 0 0 Z " transform="translate(709.625,1116.125)" style="fill: #080808;"/><path d="M0 0 C0.33 0.99 0.66 1.98 1 3 C-6.18556463 16.39127953 -20.49526658 28.27910156 -32 38 C-33.06067714 38.91185238 -34.12049511 39.82470463 -35.1796875 40.73828125 C-38.77595694 43.83789201 -42.38612416 46.92094936 -46 50 C-46.98097656 50.83789062 -47.96195313 51.67578125 -48.97265625 52.5390625 C-56.74343028 59.10199958 -64.78264913 65.27763359 -72.89892578 71.40478516 C-74.80722838 72.85364051 -76.70080376 74.31914871 -78.58984375 75.79296875 C-87.47221749 82.66598739 -96.72797413 88.95156835 -106.0625 95.1875 C-106.68917572 95.60734161 -107.31585144 96.02718323 -107.96151733 96.45974731 C-120.00673789 104.51531494 -132.26160946 112.24303119 -145.125 118.9375 C-145.82625 119.30939453 -146.5275 119.68128906 -147.25 120.06445312 C-152.94900138 123.05911706 -157.40466095 125.30675996 -164 125 C-161.94062015 108.64197139 -142.78400538 95.1168736 -131 85 C-129.882487 84.02641516 -128.76528453 83.05247374 -127.6484375 82.078125 C-120.24209074 75.66302042 -112.68449626 69.49586366 -104.93505859 63.50097656 C-102.83238508 61.8699853 -100.73805525 60.22865447 -98.64453125 58.5859375 C-89.226702 51.20707182 -79.7281005 43.96566353 -70 37 C-68.95972656 36.25492188 -67.91945313 35.50984375 -66.84765625 34.7421875 C-16.92717499 -0.38470852 -16.92717499 -0.38470852 0 0 Z " transform="translate(584,496)" style="fill: #FBFBFA;"/><path d="M0 0 C87.32247554 -1.52334841 87.32247554 -1.52334841 116.7701416 10.04034424 C117.7601416 11.03034424 117.7601416 11.03034424 118.7701416 12.04034424 C118.3951416 14.16534424 118.3951416 14.16534424 117.7701416 16.04034424 C115.35499142 16.67171599 112.9382376 17.29543235 110.5201416 17.91534424 C109.85756348 18.08936768 109.19498535 18.26339111 108.5123291 18.44268799 C97.33993228 21.28848718 85.94950345 22.61164537 74.48498535 23.64190674 C73.76035536 23.7072121 73.03572536 23.77251747 72.28913689 23.83980179 C55.32487906 25.32726188 38.39486321 25.50124099 21.37536621 25.43145752 C17.17679976 25.41438109 12.97880512 25.42453947 8.78025818 25.44179249 C-65.38293614 25.69887656 -65.38293614 25.69887656 -85.2298584 15.04034424 C-84.9173584 13.16534424 -84.9173584 13.16534424 -84.2298584 11.04034424 C-69.53083526 1.24099548 -42.37194236 2.34918039 -25.2298584 1.04034424 C-24.28771484 0.96831787 -23.34557129 0.8962915 -22.37487793 0.82208252 C-14.92005342 0.29626983 -7.47057784 0.13516319 0 0 Z " transform="translate(1006.2298583984375,308.95965576171875)" style="fill: #F9F9F9;"/><path d="M0 0 C2.60111687 1.89811231 3.82824789 3.04118969 4.40234375 6.24609375 C3.83446651 10.13302047 1.70562677 12.45927938 -0.75 15.375 C-1.48947876 16.28366821 -1.48947876 16.28366821 -2.24389648 17.21069336 C-3.28988434 18.49538735 -4.34071601 19.77615053 -5.39599609 21.05322266 C-7.98533227 24.19589643 -10.52136886 27.38083069 -13.0625 30.5625 C-13.56628174 31.19019287 -14.07006348 31.81788574 -14.58911133 32.46459961 C-17.75754099 36.41759281 -20.86454496 40.40984048 -23.9375 44.4375 C-29.32509747 51.48215241 -34.9318261 58.34129086 -40.54150391 65.20947266 C-43.72371154 69.11611993 -46.85901079 73.06022474 -50 77 C-50.928125 78.15628906 -50.928125 78.15628906 -51.875 79.3359375 C-55.21486077 83.49729628 -58.53248973 87.67448827 -61.82006836 91.87719727 C-66.40511846 97.73764606 -71.04738477 103.54586825 -75.75 109.3125 C-79.6207893 114.05968387 -83.46286663 118.8206488 -87.203125 123.671875 C-93.57813787 131.93167428 -100.05455422 140.1019587 -106.6875 148.15625 C-109.33126191 151.40736261 -111.91902907 154.69899659 -114.5 158 C-118.56856979 163.20268803 -122.70531745 168.34131609 -126.90234375 173.44140625 C-128.87064986 175.84222655 -130.81506745 178.25974538 -132.75 180.6875 C-136.87162516 185.85601795 -141.04367062 190.98284251 -145.21728516 196.109375 C-148.2080265 199.78547647 -151.18079269 203.47392165 -154.125 207.1875 C-157.65186021 211.61658027 -161.31067155 215.92545989 -164.98681641 220.23046875 C-168.31998216 224.14936444 -171.49574882 228.16052153 -174.5625 232.29296875 C-176 234 -176 234 -179 236 C-184.44444444 235.55555556 -184.44444444 235.55555556 -187 233 C-187.6238676 229.60338752 -187.6709534 227.14818082 -185.890625 224.1015625 C-184.00350748 221.66325719 -182.01080987 219.33769029 -180 217 C-177.90309955 214.44849669 -175.82837617 211.87909964 -173.75 209.3125 C-172.90791992 208.27959839 -172.90791992 208.27959839 -172.04882812 207.22583008 C-168.41929009 202.77238691 -164.84566365 198.28015174 -161.3125 193.75 C-156.34240102 187.38368497 -151.19066704 181.18822195 -146 175 C-140.86979879 168.8296549 -135.88183071 162.5754153 -131.01611328 156.19433594 C-125.96637277 149.6019955 -120.68912033 143.19495494 -115.43652344 136.76416016 C-113.6098721 134.52089324 -111.8025351 132.26267592 -110 130 C-107.14777448 126.42120755 -104.26647524 122.86737282 -101.375 119.3203125 C-96.24272548 113.023772 -91.16414533 106.69257157 -86.16479492 100.29003906 C-82.66276673 95.81624388 -79.09194773 91.40180891 -75.5 87 C-68.42719698 78.32610091 -61.51079424 69.53762519 -54.66015625 60.6875 C-48.42360083 52.63556843 -42.13080954 44.64321878 -35.68408203 36.75830078 C-32.24062116 32.54239639 -28.85007175 28.29041065 -25.5 24 C-21.35173893 18.69739338 -17.16373273 13.42821559 -12.9375 8.1875 C-12.37675781 7.48689453 -11.81601563 6.78628906 -11.23828125 6.06445312 C-10.71492188 5.41798828 -10.1915625 4.77152344 -9.65234375 4.10546875 C-8.95612915 3.24151489 -8.95612915 3.24151489 -8.24584961 2.36010742 C-5.79210645 -0.31867038 -3.48404739 -0.41476755 0 0 Z " transform="translate(1436,594)" style="fill: #060606;"/><path d="M0 0 C23.21030499 2.05221875 46.76735647 21.83332986 64.80078125 35.35839844 C67.16668867 37.12442436 69.55003541 38.86480268 71.9375 40.6015625 C80.49847819 46.83878709 88.87973834 53.19444737 97 60 C98.3620064 61.11614082 99.72540611 62.23058258 101.08984375 63.34375 C108.89782446 69.72005248 116.58905314 76.16193884 124 83 C124.928125 83.83660156 125.85625 84.67320312 126.8125 85.53515625 C129.90485827 88.32518899 132.96146657 91.15149135 136 94 C136.54624023 94.51079102 137.09248047 95.02158203 137.65527344 95.54785156 C157.54334514 114.30342412 157.54334514 114.30342412 158.23046875 122.875 C158.11638672 123.926875 158.11638672 123.926875 158 125 C151.12239249 124.58797743 146.26379326 122.52073887 140.25 119.25 C139.34113037 118.764104 138.43226074 118.27820801 137.49584961 117.77758789 C122.61121242 109.67540042 108.63399346 100.03896036 95 90 C94.04609375 89.29875 93.0921875 88.5975 92.109375 87.875 C79.40705582 78.43502509 66.8871735 68.75613605 54.87890625 58.4453125 C52.27486005 56.23346322 49.62735313 54.10584381 46.9375 52 C42.00543963 48.09444976 37.41425921 43.86865553 32.80859375 39.58984375 C30.55302914 37.50995593 28.27132113 35.49019103 25.9375 33.5 C18.23207905 26.76571681 11.23512189 19.56785994 4.875 11.5625 C4.40151123 10.97138428 3.92802246 10.38026855 3.44018555 9.77124023 C-0.7265602 4.40191276 -0.7265602 4.40191276 -1 1 C-0.67 0.67 -0.34 0.34 0 0 Z " transform="translate(1487,483)" style="fill: #FAFAF9;"/><path d="M0 0 C1.66390479 1.19049454 1.66390479 1.19049454 3 3 C3.37604749 5.40816879 3.37604749 5.40816879 3.37752342 8.3270874 C3.38534666 9.43893024 3.39316991 10.55077309 3.40123022 11.69630814 C3.39119197 13.53611315 3.39119197 13.53611315 3.38095093 15.41308594 C3.3856309 16.71210217 3.39031087 18.01111839 3.39513266 19.34949875 C3.40769526 22.96270787 3.40144858 26.57568031 3.39217401 30.18889046 C3.38540527 34.08260861 3.3958539 37.97628515 3.40411377 41.86999512 C3.41747662 49.50074354 3.41456204 57.1314036 3.40587585 64.76215553 C3.39910972 70.9620092 3.39817793 77.16183804 3.4014473 83.36169434 C3.40213684 84.68363269 3.40213684 84.68363269 3.40284032 86.03227687 C3.40379947 87.82242108 3.40477211 89.61256529 3.4057581 91.40270948 C3.41431947 108.20186563 3.40446616 125.00097273 3.388357 141.80012083 C3.37495314 156.22484471 3.37728102 170.64949618 3.39111328 185.07421875 C3.40715592 201.81191323 3.41349542 218.54956468 3.40427649 235.28726578 C3.40332081 237.07094573 3.4023777 238.8546257 3.4014473 240.63830566 C3.40098447 241.51598563 3.40052164 242.3936656 3.40004479 243.29794192 C3.39745095 249.49270581 3.40183437 255.68744248 3.40888596 261.88220215 C3.41728656 269.42817927 3.41505126 276.97406273 3.39904372 284.52002907 C3.39114151 288.37253094 3.38810238 292.22487648 3.39799118 296.07737732 C3.40853329 300.24735993 3.39597409 304.41694536 3.38095093 308.58691406 C3.38764309 309.81345074 3.39433526 311.03998741 3.40123022 312.30369186 C3.39340697 313.41553471 3.38558373 314.52737755 3.37752342 315.6729126 C3.37703637 316.63615574 3.37654931 317.59939888 3.37604749 318.59183121 C3 321 3 321 1.66390479 322.80950546 C-0.9231472 324.66049554 -2.91639417 324.38545073 -6 324 C-7.66390479 322.80950546 -7.66390479 322.80950546 -9 321 C-9.37604749 318.59183121 -9.37604749 318.59183121 -9.37752342 315.6729126 C-9.38925829 314.00514833 -9.38925829 314.00514833 -9.40123022 312.30369186 C-9.39453805 311.07715519 -9.38784589 309.85061852 -9.38095093 308.58691406 C-9.3856309 307.28789783 -9.39031087 305.98888161 -9.39513266 304.65050125 C-9.40769526 301.03729213 -9.40144858 297.42431969 -9.39217401 293.81110954 C-9.38540527 289.91739139 -9.3958539 286.02371485 -9.40411377 282.13000488 C-9.41747662 274.49925646 -9.41456204 266.8685964 -9.40587585 259.23784447 C-9.39910972 253.0379908 -9.39817793 246.83816196 -9.4014473 240.63830566 C-9.401907 239.75701343 -9.40236669 238.87572119 -9.40284032 237.96772313 C-9.40379947 236.17757892 -9.40477211 234.38743471 -9.4057581 232.59729052 C-9.41431947 215.79813437 -9.40446616 198.99902727 -9.388357 182.19987917 C-9.37495314 167.77515529 -9.37728102 153.35050382 -9.39111328 138.92578125 C-9.40715592 122.18808677 -9.41349542 105.45043532 -9.40427649 88.71273422 C-9.40332081 86.92905427 -9.4023777 85.1453743 -9.4014473 83.36169434 C-9.40098447 82.48401437 -9.40052164 81.6063344 -9.40004479 80.70205808 C-9.39745095 74.50729419 -9.40183437 68.31255752 -9.40888596 62.11779785 C-9.41728656 54.57182073 -9.41505126 47.02593727 -9.39904372 39.47997093 C-9.39114151 35.62746906 -9.38810238 31.77512352 -9.39799118 27.92262268 C-9.40853329 23.75264007 -9.39597409 19.58305464 -9.38095093 15.41308594 C-9.38764309 14.18654926 -9.39433526 12.96001259 -9.40123022 11.69630814 C-9.39340697 10.58446529 -9.38558373 9.47262245 -9.37752342 8.3270874 C-9.37703637 7.36384426 -9.37654931 6.40060112 -9.37604749 5.40816879 C-9 3 -9 3 -7.66390479 1.19049454 C-5.0768528 -0.66049554 -3.08360583 -0.38545073 0 0 Z " transform="translate(956,449)" style="fill: #020303;"/><path d="M0 0 C8.0084985 6.2561591 13.68585617 16.45017953 19.41308594 24.72363281 C22.02537237 28.47085723 24.69751545 32.17420064 27.375 35.875 C27.9122168 36.61814453 28.44943359 37.36128906 29.00292969 38.12695312 C33.55454828 44.41007766 38.15825704 50.65427388 42.76904297 56.89404297 C47.25748237 62.97439216 51.68935795 69.09369119 56.10327148 75.22827148 C60.04867299 80.70377871 64.04719069 86.1381171 68.0625 91.5625 C72.97380103 98.20298967 77.78980018 104.9015464 82.53588867 111.66088867 C92.22098529 125.44753158 102.19522028 139.0237706 112.20751953 152.57373047 C122.24733554 166.16344601 132.27177419 179.75994431 142.07470703 193.52197266 C146.56487305 199.81299825 151.14565456 206.03667658 155.72460938 212.26318359 C158.25586448 215.71022587 160.77459875 219.16610937 163.2734375 222.63671875 C164.35558426 224.11793773 165.46173016 225.58223048 166.6015625 227.01953125 C168.77420273 229.80512306 169.95761558 231.72450125 170.5 235.25 C170 238 170 238 168.9375 239.875 C165.54194224 241.84661419 163.86912012 241.82456658 160 241 C157.31166973 238.57164013 155.30183255 235.71586355 153.23095703 232.75488281 C151.86373629 230.80573909 150.46355693 228.88304575 149.05859375 226.9609375 C146.25625353 223.11699294 143.47965824 219.25520563 140.70996094 215.38769531 C133.42963734 205.22185225 126.11142038 195.09168594 118.58740234 185.10449219 C108.4226548 171.60687711 98.48024862 157.94694617 88.60888672 144.23388672 C85.90987872 140.48640216 83.20461116 136.74344155 80.5 133 C79.41663696 131.50002146 78.33330362 130.00002146 77.25 128.5 C76.71375 127.7575 76.1775 127.015 75.625 126.25 C70.75 119.5 70.75 119.5 69.12451172 117.24926758 C68.04287732 115.75165746 66.96117177 114.25409874 65.87939453 112.7565918 C63.14447705 108.97044813 60.41086281 105.18337545 57.6796875 101.39453125 C52.20598822 93.8036464 46.71392742 86.22772833 41.16796875 78.68945312 C37.53995136 73.75219467 33.95496456 68.784673 30.375 63.8125 C26.79391513 58.8406217 23.19280119 53.88991806 19.5 49 C14.10711289 41.84899218 8.85699495 34.59750457 3.65185547 27.30908203 C2.55325486 25.77337932 1.4507274 24.24047796 0.34423828 22.71044922 C-1.21992397 20.54436004 -2.76807322 18.36768786 -4.3125 16.1875 C-5.0238208 15.21055176 -5.0238208 15.21055176 -5.74951172 14.21386719 C-7.62612391 11.53379739 -8.93399896 9.46459555 -9.3984375 6.1953125 C-8.44885263 0.96328605 -4.92408054 -0.66342402 0 0 Z " transform="translate(522,689)" style="fill: #070707;"/></svg>