<?xml version="1.0" encoding="UTF-8" standalone="no"?><!DOCTYPE svg PUBLIC "-//W3C//DTD SVG 1.1//EN" "http://www.w3.org/Graphics/SVG/1.1/DTD/svg11.dtd"><svg width="100%" height="100%" viewBox="0 0 8534 8534" version="1.1" xmlns="http://www.w3.org/2000/svg" xmlns:xlink="http://www.w3.org/1999/xlink" xml:space="preserve" xmlns:serif="http://www.serif.com/" style="fill-rule:evenodd;clip-rule:evenodd;stroke-linejoin:round;stroke-miterlimit:2;"><path d="M3104.73,3132.22c4.217,-0.035 8.434,-0.071 12.778,-0.108c4.58,0.004 9.161,0.008 13.88,0.012c4.861,-0.028 9.721,-0.056 14.728,-0.085c16.075,-0.079 32.149,-0.095 48.224,-0.104c8.357,-0.02 16.713,-0.04 25.07,-0.063c26.281,-0.067 52.561,-0.088 78.842,-0.082c27.041,0.005 54.081,-0.083 81.122,-0.214c23.271,-0.11 46.541,-0.154 69.812,-0.149c13.874,0.002 27.746,-0.029 41.62,-0.11c15.498,-0.081 30.993,-0.057 46.49,-0.007c4.547,-0.047 9.094,-0.094 13.779,-0.142c36.476,0.299 68.312,9.05 94.762,35.5c19.405,23.599 19.426,46.35 18.506,76.367c-3.074,25.576 -11.016,43.372 -31.185,59.684c-21.212,13.949 -21.212,13.949 -33.154,13.949l-0,241.666l345.833,0l0,-241.666c-8.25,-2.75 -16.5,-5.5 -25,-8.334c-22.736,-19.265 -35.606,-40.001 -38.672,-69.677c-1.545,-30.553 3.149,-51.808 22.006,-76.156c10.156,-9.896 10.156,-9.896 20.833,-16.667c3.344,-2.167 6.689,-4.335 10.135,-6.568c21.215,-8.466 40.744,-7.708 63.389,-7.615c4.861,-0.029 9.722,-0.057 14.73,-0.087c16.052,-0.076 32.103,-0.06 48.156,-0.036c8.351,-0.015 16.703,-0.029 25.055,-0.048c26.255,-0.058 52.509,-0.052 78.764,-0.004c27.011,0.048 54.02,-0.011 81.03,-0.123c23.253,-0.092 46.506,-0.12 69.759,-0.095c13.86,0.014 27.718,-0.003 41.578,-0.068c15.478,-0.062 30.952,-0.017 46.429,0.054c4.541,-0.04 9.081,-0.081 13.759,-0.122c32.173,0.309 58.705,5.906 83.632,27.212c2.197,2.75 4.394,5.5 6.657,8.334c3.408,4.125 3.408,4.125 6.885,8.333c17.768,25.201 17.512,48.912 14.209,79.167c-8.168,28.189 -21.195,45.213 -46.794,59.407c-7.373,3.093 -7.373,3.093 -15.706,3.093l-0,241.666l358.333,0l-0,-241.666c-10.313,-2.063 -10.313,-2.063 -20.833,-4.167c-22.668,-14.697 -38.892,-31.866 -45.834,-58.333c-3.363,-30.819 -2.793,-58.128 16.667,-83.334c18.47,-19.472 36.88,-35.687 64.499,-38.583c3.65,-0.02 7.3,-0.039 11.061,-0.059c4.216,-0.042 8.433,-0.083 12.777,-0.126c4.581,-0.003 9.161,-0.005 13.881,-0.008c4.86,-0.035 9.72,-0.07 14.728,-0.105c16.074,-0.101 32.148,-0.137 48.223,-0.165c8.357,-0.028 16.714,-0.056 25.07,-0.085c26.281,-0.089 52.562,-0.128 78.843,-0.142c27.041,-0.015 54.081,-0.139 81.122,-0.314c23.27,-0.145 46.54,-0.209 69.811,-0.212c13.875,-0.003 27.746,-0.049 41.621,-0.158c15.498,-0.112 30.991,-0.092 46.49,-0.04c4.547,-0.062 9.093,-0.124 13.778,-0.187c33.006,0.315 57.653,7.818 81.765,31.076c21.368,23.139 27.761,44.855 27.044,76.133c-3.688,28.962 -16.756,50.942 -39.567,68.913c-11.205,7.891 -14.589,9.896 -28.646,9.896l-0,241.666l275,0c-0.983,-48.488 -0.983,-48.488 -2.252,-96.968c-0.772,-44.381 4.013,-79.919 34.022,-115.145c29.68,-28.01 64.005,-36.294 103.728,-36.08c6.124,-0.039 6.124,-0.039 12.372,-0.078c8.589,-0.03 17.179,-0.017 25.768,0.036c13.005,0.058 25.997,-0.084 39,-0.243c52.16,-0.203 96.483,0.92 137.362,37.28c26.633,29.752 34.011,59.819 33.74,98.894c-0.006,3.213 -0.012,6.426 -0.018,9.737c-0.023,10.231 -0.075,20.462 -0.128,30.692c-0.021,6.95 -0.04,13.9 -0.057,20.85c-0.046,17.009 -0.118,34.017 -0.204,51.025c4.1,-0.065 8.2,-0.131 12.424,-0.198c15.212,-0.226 30.423,-0.37 45.636,-0.488c6.584,-0.063 13.168,-0.148 19.751,-0.257c9.464,-0.151 18.926,-0.222 28.391,-0.277c4.414,-0.097 4.414,-0.097 8.918,-0.196c20.247,-0.007 20.247,-0.007 29.403,6.101c8.013,11.433 7.096,20.405 7.161,34.28c0.053,5.465 0.106,10.929 0.16,16.559c-0.009,5.971 -0.021,11.943 -0.037,17.914c0.019,6.118 0.041,12.235 0.066,18.353c0.037,12.82 0.027,25.639 -0.014,38.458c-0.048,16.437 0.036,32.87 0.158,49.306c0.076,12.632 0.075,25.264 0.051,37.896c-0,6.06 0.025,12.121 0.077,18.181c0.061,8.468 0.006,16.936 -0.054,25.403c-0.001,7.23 -0.001,7.23 -0.002,14.606c-2.089,11.859 -2.089,11.859 -18.755,24.359l-133.334,0l0,1220.83l195.834,-0c39.141,19.57 39.141,19.57 45.833,37.5c1.185,11.312 1.711,21.653 1.617,32.949c0.022,3.255 0.044,6.51 0.067,9.863c0.055,10.725 0.018,21.447 -0.024,32.171c0.009,7.478 0.021,14.955 0.036,22.432c0.019,15.66 -0.008,31.319 -0.066,46.979c-0.072,20.04 -0.031,40.078 0.044,60.118c0.046,15.439 0.031,30.877 -0.001,46.316c-0.009,7.387 0.002,14.774 0.031,22.162c0.032,10.341 -0.017,20.679 -0.087,31.021c0.026,3.033 0.051,6.066 0.077,9.191c-0.241,19.466 -4.03,32.719 -14.194,49.298c-19.833,17.974 -39.456,17.235 -65.023,17.073c-3.496,-0.006 -6.993,-0.012 -10.596,-0.018c-11.165,-0.023 -22.33,-0.075 -33.496,-0.128c-7.571,-0.021 -15.142,-0.04 -22.713,-0.057c-18.557,-0.046 -37.115,-0.118 -55.672,-0.204c0.087,3.025 0.175,6.05 0.264,9.166c0.348,13.784 0.564,27.568 0.778,41.355c0.139,4.759 0.279,9.518 0.423,14.421c0.522,44.892 0.522,44.892 -18.132,64.225c-19.273,15.426 -34.179,19.107 -58.29,18.889c-3.242,0.036 -6.484,0.072 -9.824,0.109c-10.663,0.094 -21.321,0.067 -31.983,0.029c-7.452,0.022 -14.903,0.048 -22.354,0.078c-15.6,0.043 -31.199,0.024 -46.799,-0.037c-19.933,-0.071 -39.861,0.027 -59.794,0.173c-15.385,0.092 -30.769,0.086 -46.155,0.051c-7.346,-0.003 -14.691,0.025 -22.037,0.087c-68.708,0.487 -68.708,0.487 -92.764,-16.232c-31.718,-39.767 -18.333,-80.957 -18.333,-132.314l-2725,0l-0,95.834c-20.787,41.573 -20.787,41.573 -45.833,50c-11.745,1.554 -21.822,2.289 -33.514,2.156c-4.823,0.044 -4.823,0.044 -9.743,0.089c-10.545,0.073 -21.085,0.025 -31.629,-0.032c-7.372,0.011 -14.744,0.028 -22.116,0.049c-15.414,0.024 -30.827,-0.011 -46.241,-0.089c-19.723,-0.096 -39.442,-0.041 -59.165,0.059c-15.21,0.06 -30.419,0.041 -45.629,-0.002c-7.271,-0.011 -14.542,0.002 -21.813,0.041c-10.172,0.043 -20.338,-0.022 -30.509,-0.115c-2.982,0.034 -5.963,0.068 -9.034,0.102c-24.605,-0.413 -38.36,-9.804 -56.493,-25.435c-10.69,-12.942 -9.602,-26.539 -9.521,-42.497c0.013,-4.66 0.027,-9.319 0.04,-14.12c0.053,-7.295 0.053,-7.295 0.106,-14.738c0.019,-4.911 0.038,-9.823 0.057,-14.884c0.049,-12.139 0.118,-24.278 0.204,-36.418c-4.265,0.131 -8.53,0.262 -12.925,0.397c-15.925,0.455 -31.85,0.74 -47.78,0.977c-6.875,0.125 -13.749,0.295 -20.622,0.512c-64.501,1.987 -64.501,1.987 -83.24,-13.181c-18.056,-19.255 -20.01,-41.365 -19.977,-66.723c-0.042,-4.76 -0.042,-4.76 -0.085,-9.616c-0.079,-10.454 -0.095,-20.906 -0.104,-31.36c-0.027,-7.29 -0.055,-14.58 -0.084,-21.871c-0.05,-15.267 -0.066,-30.534 -0.061,-45.802c0.001,-19.536 -0.113,-39.069 -0.256,-58.605c-0.093,-15.052 -0.11,-30.104 -0.105,-45.157c-0.01,-7.201 -0.047,-14.403 -0.112,-21.604c-0.081,-10.083 -0.057,-20.16 -0.007,-30.243c-0.047,-2.955 -0.094,-5.91 -0.142,-8.955c0.265,-21.027 5.054,-32.974 18.833,-48.769c29.167,-16.666 29.167,-16.666 200,-16.666l-0,-1220.83l-133.333,0c-12.5,-12.5 -12.5,-12.5 -14.06,-24.545c0.003,-4.906 0.006,-9.813 0.008,-14.868c-0.022,-4.067 -0.022,-4.067 -0.046,-8.216c-0.033,-8.957 0.023,-17.91 0.084,-26.866c0.002,-6.221 -0,-12.442 -0.006,-18.664c0,-13.033 0.044,-26.065 0.119,-39.099c0.095,-16.725 0.097,-33.449 0.069,-50.175c-0.014,-12.843 0.013,-25.686 0.054,-38.529c0.016,-6.168 0.021,-12.336 0.015,-18.505c-0.002,-8.609 0.05,-17.216 0.118,-25.825c0.019,-4.903 0.039,-9.806 0.058,-14.858c1.087,-11.516 1.087,-11.516 9.42,-19.85c10.754,-0.729 21.055,-0.965 31.803,-0.813c4.699,0.017 4.699,0.017 9.493,0.035c10.02,0.047 20.039,0.152 30.058,0.258c6.787,0.041 13.574,0.079 20.361,0.113c16.651,0.092 33.301,0.236 49.952,0.407c-0.109,-4.578 -0.219,-9.156 -0.331,-13.873c-0.38,-17.161 -0.617,-34.321 -0.814,-51.485c-0.104,-7.396 -0.245,-14.79 -0.427,-22.184c-2.066,-86.393 -2.066,-86.393 30.701,-121.294c31.136,-30.027 60.223,-34.775 102.072,-34.783c4.576,-0.032 9.153,-0.064 13.868,-0.097c9.655,-0.044 19.31,-0.057 28.965,-0.038c14.678,0.004 29.347,-0.169 44.024,-0.354c9.416,-0.021 18.831,-0.033 28.247,-0.032c4.342,-0.069 8.683,-0.137 13.156,-0.207c33.807,0.315 61.217,8.565 86.849,31.343c34.27,35.202 39.102,73.838 38.524,120.77c-0.151,7.234 -0.303,14.468 -0.459,21.922c-0.344,23.203 -0.688,46.406 -1.042,70.312l195.833,0l0,-241.666c-6.875,-1.375 -13.75,-2.75 -20.833,-4.167c-20.801,-13.143 -37.057,-29.346 -44.173,-53.19c-5.31,-29.777 -5.887,-62.224 10.84,-88.477c21.549,-23.601 42.841,-38.489 75.559,-38.614Z" style="fill:#1e1d1e;fill-rule:nonzero;"/><path d="M4462.5,3854.17l362.5,-0c0.039,29.334 0.078,58.669 0.118,88.892c0.137,94.046 0.355,188.091 0.623,282.136c0.042,14.628 0.083,29.256 0.124,43.884c0.008,2.911 0.016,5.823 0.024,8.824c0.129,47.042 0.2,94.084 0.249,141.126c0.052,48.332 0.168,96.664 0.34,144.996c0.094,27.121 0.159,54.241 0.155,81.363c-0.003,25.564 0.072,51.127 0.205,76.691c0.035,9.347 0.043,18.694 0.02,28.041c-0.19,87.056 11.644,162.136 70.603,230.691c32.622,32.572 71.64,54.198 115.039,69.189c4.198,1.531 4.198,1.531 8.48,3.092c58.707,18.198 121.773,0.464 175.635,-24.186c63.318,-33.593 100.837,-84.283 124.039,-151.595c9.294,-31.674 13.912,-60.64 13.84,-93.677c0.024,-3.997 0.048,-7.993 0.073,-12.111c0.07,-13.3 0.083,-26.599 0.095,-39.9c0.039,-9.57 0.081,-19.14 0.127,-28.71c0.113,-25.919 0.177,-51.837 0.231,-77.755c0.065,-27.109 0.176,-54.219 0.283,-81.328c0.173,-45.481 0.317,-90.962 0.439,-136.444c0.126,-46.831 0.269,-93.663 0.436,-140.495c0.01,-2.89 0.02,-5.78 0.031,-8.757c0.051,-14.5 0.103,-28.999 0.155,-43.498c0.431,-120.157 0.796,-240.313 1.136,-360.469l275,-0l-0,1225l-2725,-0l-0,-1220.83l195.833,0c0.039,28.956 0.078,57.912 0.118,87.745c0.137,92.836 0.355,185.671 0.624,278.507c0.041,14.44 0.082,28.88 0.123,43.32c0.008,2.874 0.016,5.749 0.025,8.71c0.128,46.436 0.199,92.872 0.249,139.308c0.052,47.711 0.168,95.421 0.339,143.131c0.094,26.772 0.159,53.543 0.155,80.315c-0.003,25.236 0.072,50.471 0.206,75.707c0.035,9.226 0.042,18.452 0.019,27.677c-0.192,87.103 11.361,169.897 73.142,236.414c4.029,4.366 4.029,4.366 8.138,8.821c48.388,47.465 118.916,72.772 185.925,72.975c62.355,-2.661 131.963,-36.444 174.199,-81.813c25.293,-31.218 44.006,-66.083 56.738,-104.15c1.552,-4.458 1.552,-4.458 3.135,-9.006c13.325,-44.349 11.204,-89.569 11.167,-135.407c0.038,-9.531 0.081,-19.062 0.129,-28.593c0.114,-25.754 0.153,-51.508 0.178,-77.262c0.039,-26.959 0.149,-53.918 0.25,-80.877c0.161,-45.211 0.279,-90.421 0.365,-135.632c0.087,-46.544 0.201,-93.088 0.349,-139.632c0.01,-2.874 0.019,-5.748 0.028,-8.71c0.046,-14.421 0.093,-28.842 0.14,-43.263c0.388,-119.428 0.676,-238.856 0.926,-358.285l345.833,0c0.091,42.866 0.091,42.866 0.184,86.598c0.204,91.626 0.468,183.251 0.77,274.876c0.047,14.253 0.094,28.505 0.14,42.757c0.014,4.256 0.014,4.256 0.028,8.598c0.147,45.829 0.251,91.659 0.338,137.489c0.091,47.089 0.23,94.177 0.41,141.266c0.099,26.423 0.178,52.845 0.204,79.267c0.025,24.908 0.109,49.815 0.236,74.722c0.036,9.105 0.052,18.21 0.045,27.315c-0.035,61.957 0.928,123.145 28.895,179.977c1.416,2.934 2.831,5.869 4.289,8.892c32.356,63.406 89.488,105.004 154.972,130.089c65.172,20.444 130.351,6.422 189.695,-23.829c61.11,-33.032 101.81,-87.403 123.023,-153.002c7.824,-26.766 11.085,-50.879 10.933,-78.691c0.027,-4.054 0.055,-8.109 0.084,-12.287c0.077,-13.447 0.066,-26.893 0.056,-40.34c0.037,-9.695 0.081,-19.389 0.129,-29.084c0.114,-26.219 0.153,-52.438 0.178,-78.657c0.039,-27.437 0.148,-54.875 0.25,-82.312c0.163,-46.02 0.28,-92.04 0.365,-138.06c0.087,-47.381 0.201,-94.762 0.349,-142.143c0.01,-2.925 0.019,-5.85 0.028,-8.864c0.046,-14.676 0.093,-29.352 0.14,-44.028c0.388,-121.572 0.676,-243.143 0.926,-364.715Z" style="fill:#fdfdfd;fill-rule:nonzero;"/><path d="M2359.07,5123.95c4.029,-0.017 4.029,-0.017 8.139,-0.035c9.106,-0.029 18.211,0.001 27.316,0.031c6.581,-0.008 13.161,-0.021 19.741,-0.036c18.231,-0.033 36.463,-0.013 54.694,0.014c19.778,0.021 39.555,-0.006 59.333,-0.027c34.713,-0.03 69.425,-0.029 104.137,-0.008c51.617,0.032 103.234,0.016 154.851,-0.01c92.168,-0.044 184.335,-0.04 276.502,-0.016c80.656,0.021 161.311,0.027 241.966,0.017c5.341,-0.001 10.683,-0.001 16.186,-0.002c21.68,-0.003 43.361,-0.005 65.041,-0.008c60.61,-0.008 121.221,-0.012 181.831,-0.015c2.76,-0 5.521,-0 8.364,-0c87.992,-0.004 175.984,0.006 263.976,0.024c2.855,0 5.71,0.001 8.652,0.002c46.368,0.009 92.736,0.019 139.104,0.029c183.915,0.041 367.831,0.039 551.746,-0.001c46.345,-0.011 92.689,-0.021 139.034,-0.03c2.853,-0.001 5.706,-0.001 8.646,-0.002c87.898,-0.018 175.796,-0.026 263.693,-0.022c4.138,0 4.138,0 8.359,0c63.258,0.003 126.516,0.009 189.774,0.017c21.642,0.003 43.284,0.005 64.925,0.008c7.994,0.001 7.994,0.001 16.149,0.002c80.622,0.009 161.245,-0.002 241.867,-0.023c91.633,-0.024 183.265,-0.018 274.898,0.028c51.34,0.024 102.68,0.025 154.02,-0.006c34.232,-0.018 68.465,-0.007 102.697,0.029c19.545,0.02 39.089,0.027 58.634,-0.003c17.745,-0.027 35.489,-0.016 53.233,0.026c6.414,0.009 12.828,0.003 19.242,-0.018c8.647,-0.026 17.293,-0.002 25.94,0.035c4.806,0.001 9.612,0.002 14.564,0.002c11.174,1.043 11.174,1.043 19.507,9.376c1.087,12.624 1.087,12.624 1.145,29.052c0.021,2.989 0.042,5.977 0.064,9.056c0.058,9.905 0.054,19.809 0.045,29.715c0.016,6.871 0.034,13.742 0.054,20.613c0.031,14.413 0.03,28.827 0.008,43.241c-0.025,18.486 0.046,36.971 0.143,55.457c0.061,14.194 0.065,28.388 0.052,42.582c0.002,6.816 0.024,13.633 0.066,20.449c0.051,9.527 0.023,19.051 -0.025,28.578c0.002,5.424 0.005,10.849 0.008,16.438c-1.56,13.153 -1.56,13.153 -6.27,20.127c-11.372,8.067 -20.123,7.09 -33.987,7.093c-2.685,0.017 -5.371,0.035 -8.137,0.053c-9.078,0.043 -18.153,-0.002 -27.231,-0.047c-6.569,0.013 -13.139,0.031 -19.708,0.055c-18.183,0.049 -36.365,0.019 -54.548,-0.022c-19.732,-0.032 -39.464,0.008 -59.196,0.04c-34.626,0.045 -69.252,0.044 -103.877,0.012c-51.489,-0.047 -102.977,-0.023 -154.466,0.015c-91.94,0.066 -183.88,0.06 -275.82,0.024c-80.456,-0.031 -160.912,-0.04 -241.369,-0.025c-7.993,0.002 -7.993,0.002 -16.148,0.003c-21.63,0.004 -43.26,0.008 -64.89,0.012c-60.469,0.012 -120.938,0.019 -181.407,0.023c-4.131,-0 -4.131,-0 -8.345,0c-87.781,0.005 -175.562,-0.009 -263.343,-0.036c-4.272,-0.001 -4.272,-0.001 -8.63,-0.003c-46.254,-0.014 -92.509,-0.029 -138.763,-0.045c-183.461,-0.06 -366.923,-0.057 -550.384,0.003c-46.231,0.016 -92.461,0.031 -138.692,0.045c-2.846,0.001 -5.693,0.002 -8.625,0.003c-87.688,0.027 -175.375,0.038 -263.062,0.033c-4.128,-0.001 -4.128,-0.001 -8.339,-0.001c-63.111,-0.004 -126.222,-0.013 -189.332,-0.025c-21.592,-0.004 -43.183,-0.008 -64.775,-0.012c-7.975,-0.001 -7.975,-0.001 -16.111,-0.003c-80.422,-0.014 -160.844,0.003 -241.266,0.034c-91.408,0.036 -182.817,0.027 -274.225,-0.041c-51.21,-0.036 -102.419,-0.039 -153.629,0.008c-34.15,0.028 -68.301,0.011 -102.451,-0.043c-19.495,-0.03 -38.989,-0.04 -58.484,0.005c-17.704,0.04 -35.407,0.023 -53.111,-0.04c-6.394,-0.013 -12.789,-0.004 -19.183,0.028c-8.632,0.039 -17.26,0.003 -25.891,-0.053c-4.795,-0.001 -9.589,-0.002 -14.528,-0.003c-11.67,-1.564 -11.67,-1.564 -19.46,-7.09c-7.823,-11.583 -6.268,-22.811 -6.261,-36.565c-0.016,-2.996 -0.031,-5.992 -0.046,-9.078c-0.034,-9.904 0.023,-19.804 0.083,-29.707c0.002,-6.875 0,-13.75 -0.006,-20.625c0,-14.407 0.044,-28.812 0.119,-43.219c0.095,-18.491 0.097,-36.981 0.069,-55.472c-0.014,-14.194 0.014,-28.388 0.055,-42.582c0.016,-6.819 0.02,-13.639 0.014,-20.459c-0.002,-9.517 0.051,-19.032 0.119,-28.549c0.019,-5.421 0.038,-10.843 0.058,-16.428c2.055,-23.882 14.369,-21.999 35.158,-22.002Z" style="fill:#c9d4d6;fill-rule:nonzero;"/><rect x="2395.83" y="3604.17" width="3704.17" height="208.333" style="fill:#c9d4d6;fill-rule:nonzero;"/><path d="M3125,3854.17l433.333,-0c0.672,241.277 0.672,241.277 0.814,342.456c0.033,23.117 0.066,46.235 0.102,69.353c0.004,2.897 0.009,5.794 0.013,8.779c0.073,46.69 0.204,93.379 0.357,140.069c0.156,47.964 0.247,95.929 0.282,143.893c0.022,26.921 0.073,53.841 0.195,80.762c0.113,25.365 0.147,50.73 0.122,76.096c0.005,9.283 0.038,18.567 0.102,27.849c0.315,47.995 0.391,90.873 -18.653,135.743c-1.212,2.856 -2.424,5.713 -3.673,8.657c-26.037,56.167 -63.091,92.622 -120.074,117.075c-53.758,19.258 -111.284,18.436 -163.753,-4.899c-16.086,-8.736 -31.001,-18.459 -45.834,-29.167c-4.382,-3.007 -8.765,-6.015 -13.281,-9.114c-37.173,-37.173 -53.186,-78.624 -65.885,-128.386c-1.133,-4.413 -1.133,-4.413 -2.289,-8.915c-2.673,-16.963 -2.436,-33.659 -2.379,-50.805c-0.004,-3.932 -0.007,-7.863 -0.011,-11.913c-0.007,-13.179 0.016,-26.358 0.039,-39.537c0.001,-9.445 0,-18.889 -0.002,-28.334c-0.001,-25.652 0.023,-51.305 0.053,-76.957c0.026,-26.803 0.028,-53.607 0.033,-80.411c0.011,-44.992 0.037,-89.984 0.075,-134.977c0.038,-46.339 0.067,-92.678 0.085,-139.018c0.001,-2.886 0.002,-5.772 0.004,-8.746c0.009,-25.106 0.018,-50.212 0.027,-75.318c0.039,-108.079 0.122,-216.157 0.198,-324.235Z" style="fill:#bcd4dd;fill-rule:nonzero;"/><path d="M4866.67,3854.17l429.166,-0c0.504,237.806 0.504,237.806 0.611,337.605c0.024,22.802 0.049,45.604 0.076,68.406c0.003,2.857 0.007,5.715 0.01,8.659c0.054,46.024 0.153,92.047 0.268,138.071c0.117,47.296 0.185,94.592 0.211,141.888c0.017,26.539 0.055,53.078 0.146,79.616c0.085,25.017 0.111,50.034 0.092,75.051c0.004,9.145 0.028,18.29 0.076,27.435c0.341,67.917 0.127,131.485 -38.99,189.935c-2.304,3.551 -4.608,7.101 -6.982,10.759c-32.435,45.215 -84.17,75.722 -138.851,85.075c-62.401,6.3 -114.838,-8.004 -165.299,-45.85c-44.414,-37.616 -75.136,-89.402 -81.7,-147.867c-1.858,-28.842 -1.448,-57.712 -1.199,-86.596c0.005,-9.657 0.002,-19.313 -0.01,-28.969c-0.006,-26.038 0.116,-52.074 0.262,-78.111c0.131,-27.276 0.143,-54.552 0.167,-81.828c0.054,-45.725 0.188,-91.449 0.374,-137.173c0.192,-47.065 0.339,-94.129 0.427,-141.194c0.006,-2.938 0.011,-5.876 0.017,-8.903c0.048,-25.561 0.093,-51.123 0.138,-76.684c0.195,-109.776 0.61,-219.55 0.99,-329.325Z" style="fill:#bdd6df;fill-rule:nonzero;"/><path d="M3991.67,3858.33l429.166,0c0.672,241.277 0.672,241.277 0.814,342.456c0.033,23.118 0.066,46.236 0.102,69.354c0.004,2.897 0.009,5.794 0.013,8.779c0.073,46.69 0.204,93.379 0.357,140.068c0.156,47.965 0.247,95.929 0.282,143.894c0.022,26.921 0.073,53.841 0.195,80.761c0.113,25.366 0.147,50.731 0.122,76.097c0.005,9.283 0.038,18.566 0.102,27.849c0.316,48.101 0.238,90.745 -18.653,135.742c-1.531,3.78 -3.062,7.56 -4.639,11.455c-24.632,57.843 -72.032,88.825 -126.546,114.196c-46.635,17.368 -104.018,12.995 -148.682,-6.949c-17.502,-9.198 -33.591,-19.203 -49.3,-31.202c-2.557,-1.826 -5.113,-3.652 -7.747,-5.534c-41.675,-32.086 -67.684,-89.126 -75.586,-140.299c-0.593,-13.069 -0.544,-26.123 -0.501,-39.204c-0.004,-3.965 -0.008,-7.93 -0.011,-12.016c-0.007,-13.294 0.016,-26.588 0.039,-39.882c0.001,-9.527 0,-19.054 -0.002,-28.58c-0.001,-25.876 0.023,-51.752 0.052,-77.628c0.026,-27.038 0.029,-54.075 0.034,-81.112c0.011,-45.385 0.037,-90.77 0.074,-136.154c0.039,-46.744 0.068,-93.487 0.086,-140.231c0.001,-2.911 0.002,-5.822 0.003,-8.822c0.01,-25.325 0.019,-50.65 0.028,-75.975c0.039,-109.021 0.122,-218.042 0.198,-327.063Z" style="fill:#c4dde7;fill-rule:nonzero;"/><rect x="2545.83" y="3858.33" width="295.833" height="1220.83" style="fill:#ccd6d8;fill-rule:nonzero;"/><path d="M2325,5133.33l4.167,0l-0,237.5c349.319,-0.184 698.638,-0.381 1047.96,-0.662c5.168,-0.004 10.337,-0.008 15.662,-0.013c112.323,-0.09 224.645,-0.183 336.968,-0.279c55.081,-0.047 110.163,-0.093 165.244,-0.139c5.481,-0.005 10.963,-0.009 16.61,-0.014c177.722,-0.149 355.444,-0.257 533.165,-0.344c182.606,-0.09 365.211,-0.221 547.816,-0.403c25.782,-0.025 51.563,-0.051 77.344,-0.076c5.075,-0.005 10.149,-0.009 15.377,-0.015c81.739,-0.078 163.477,-0.113 245.216,-0.132c82.14,-0.02 164.28,-0.085 246.42,-0.196c48.824,-0.065 97.647,-0.095 146.47,-0.076c32.603,0.01 65.206,-0.026 97.808,-0.098c18.584,-0.04 37.168,-0.06 55.751,-0.025c16.917,0.031 33.832,0.005 50.749,-0.067c6.072,-0.016 12.144,-0.011 18.216,0.018c49.333,0.214 101.94,-4.334 141.169,-37.534c36.607,-37.46 40.055,-84.884 42.058,-134.945l66.666,0c0.283,31.837 0.512,63.673 0.648,95.511c0.065,14.783 0.154,29.566 0.295,44.348c0.162,16.993 0.223,33.985 0.278,50.978c0.065,5.313 0.129,10.625 0.196,16.099c0,4.921 0.001,9.842 0.002,14.912c0.028,4.339 0.056,8.679 0.085,13.15c-1.504,10.836 -1.504,10.836 -6.21,17.665c-11.357,8.263 -20.03,7.235 -33.991,7.238c-2.685,0.017 -5.371,0.035 -8.137,0.053c-9.078,0.043 -18.153,-0.002 -27.231,-0.047c-6.569,0.013 -13.139,0.031 -19.708,0.055c-18.183,0.049 -36.365,0.019 -54.548,-0.022c-19.732,-0.032 -39.464,0.008 -59.196,0.04c-34.626,0.045 -69.252,0.044 -103.877,0.012c-51.489,-0.047 -102.977,-0.023 -154.466,0.015c-91.94,0.066 -183.88,0.06 -275.82,0.024c-80.456,-0.031 -160.912,-0.04 -241.369,-0.025c-7.993,0.002 -7.993,0.002 -16.148,0.003c-21.63,0.004 -43.26,0.008 -64.89,0.012c-60.469,0.012 -120.938,0.019 -181.407,0.023c-4.131,-0 -4.131,-0 -8.345,0c-87.781,0.005 -175.562,-0.009 -263.343,-0.036c-4.272,-0.001 -4.272,-0.001 -8.63,-0.003c-46.254,-0.014 -92.509,-0.029 -138.763,-0.045c-183.461,-0.06 -366.923,-0.057 -550.384,0.003c-46.231,0.016 -92.461,0.031 -138.692,0.045c-2.846,0.001 -5.693,0.002 -8.625,0.003c-87.688,0.027 -175.375,0.038 -263.062,0.033c-4.128,-0.001 -4.128,-0.001 -8.339,-0.001c-63.111,-0.004 -126.222,-0.013 -189.332,-0.025c-21.592,-0.004 -43.183,-0.008 -64.775,-0.012c-7.975,-0.001 -7.975,-0.001 -16.111,-0.003c-80.422,-0.014 -160.844,0.003 -241.266,0.034c-91.408,0.036 -182.817,0.027 -274.225,-0.041c-51.21,-0.036 -102.419,-0.039 -153.629,0.008c-34.15,0.028 -68.301,0.011 -102.451,-0.043c-19.495,-0.03 -38.989,-0.04 -58.484,0.005c-17.704,0.04 -35.407,0.023 -53.111,-0.04c-6.394,-0.013 -12.789,-0.004 -19.183,0.028c-8.632,0.039 -17.26,0.003 -25.891,-0.053c-4.795,-0.001 -9.589,-0.002 -14.528,-0.003c-11.67,-1.564 -11.67,-1.564 -19.463,-7.087c-7.84,-11.622 -6.196,-22.912 -6.126,-36.7c-0.002,-3.01 -0.004,-6.019 -0.006,-9.119c0.009,-9.944 0.106,-19.884 0.204,-29.827c0.024,-6.895 0.041,-13.79 0.054,-20.685c0.048,-18.146 0.17,-36.291 0.309,-54.436c0.128,-18.517 0.185,-37.034 0.248,-55.551c0.134,-36.332 0.347,-72.662 0.61,-108.993Z" style="fill:#a9b6b9;fill-rule:nonzero;"/><path d="M2358.55,5124.47c4.021,-0.01 4.021,-0.01 8.124,-0.019c9.112,-0.017 18.224,-0.003 27.337,0.01c6.575,-0.006 13.15,-0.013 19.726,-0.022c18.237,-0.02 36.474,-0.014 54.712,-0.003c19.777,0.007 39.553,-0.011 59.33,-0.025c34.718,-0.021 69.435,-0.027 104.153,-0.023c51.624,0.006 103.249,-0.011 154.873,-0.033c97.547,-0.04 195.094,-0.052 292.64,-0.054c75.302,-0.002 150.604,-0.011 225.907,-0.024c21.643,-0.004 43.285,-0.007 64.928,-0.011c5.38,-0.001 10.76,-0.002 16.303,-0.003c151.406,-0.025 302.813,-0.042 454.22,-0.04c5.77,0 11.541,0 17.312,0c26.056,0.001 52.111,0.001 78.167,0.001c11.62,0 23.239,0.001 34.859,0.001c5.816,-0 11.631,-0 17.447,0c183.944,0.003 367.887,-0.028 551.831,-0.086c46.348,-0.014 92.697,-0.029 139.046,-0.042c2.853,-0.001 5.707,-0.002 8.647,-0.003c87.906,-0.026 175.812,-0.041 263.718,-0.047c2.759,0 5.517,-0 8.36,-0c63.264,-0.004 126.529,-0.005 189.794,-0.004c21.644,0.001 43.288,0.001 64.932,0.001c5.33,0 10.66,0 16.151,0c85.965,0 171.93,-0.026 257.895,-0.062c86.316,-0.035 172.633,-0.04 258.949,-0.012c51.349,0.015 102.698,0.007 154.048,-0.033c34.238,-0.025 68.477,-0.02 102.715,0.01c19.549,0.016 39.097,0.019 58.646,-0.014c17.748,-0.03 35.495,-0.023 53.243,0.016c6.415,0.007 12.83,0 19.245,-0.022c8.649,-0.028 17.296,-0.006 25.945,0.03c4.807,-0 9.614,-0.001 14.567,-0.001c11.176,1.041 11.176,1.041 19.509,9.374l0,62.5l-3866.67,0c-0,-71.353 -0,-71.353 29.387,-71.36Z" style="fill:#f0f5f6;fill-rule:nonzero;"/><path d="M6040.89,3644.27c29.262,0.773 29.262,0.773 59.115,1.562l0,166.667l-3704.17,0l0,-58.333c6.583,-0.008 13.166,-0.015 19.949,-0.022c290.604,-0.32 581.207,-0.644 871.811,-0.994c6.616,-0.008 6.616,-0.008 13.366,-0.016c95.895,-0.115 191.789,-0.231 287.684,-0.348c47.038,-0.057 94.076,-0.115 141.114,-0.172c7.02,-0.008 7.02,-0.008 14.183,-0.017c151.266,-0.183 302.532,-0.354 453.799,-0.519c155.655,-0.169 311.31,-0.351 466.965,-0.549c22.066,-0.028 44.133,-0.056 66.199,-0.084c4.343,-0.005 8.685,-0.011 13.159,-0.017c69.447,-0.087 138.893,-0.161 208.34,-0.23c70.091,-0.069 140.183,-0.153 210.274,-0.252c37.866,-0.053 75.731,-0.099 113.597,-0.128c87.048,-0.069 174.093,-0.251 261.14,-0.77c8.331,-0.048 16.662,-0.093 24.993,-0.137c30.49,-0.171 60.977,-0.43 91.465,-0.838c8.829,-0.109 17.659,-0.195 26.489,-0.251c45.778,-0.321 90.23,-3.192 135.472,-10.473c4.055,-0.642 8.109,-1.285 12.287,-1.946c49.801,-8.762 95.839,-27.479 130.214,-65.571c2.364,-4.313 4.727,-8.626 7.162,-13.069c17.812,-21.454 50.261,-14.428 75.39,-13.493Z" style="fill:#a7b4b7;fill-rule:nonzero;"/><path d="M5654.17,3858.33l70.833,0l0,112.5l104.167,0c0.017,8.117 0.034,16.234 0.052,24.598c0.08,26.826 0.257,53.65 0.498,80.476c0.143,16.263 0.247,32.525 0.264,48.79c0.018,15.698 0.137,31.392 0.325,47.089c0.054,5.987 0.072,11.974 0.053,17.961c-0.02,8.389 0.1,16.778 0.227,25.166c0.027,4.774 0.055,9.549 0.084,14.468c3.473,16.021 10.527,19.585 23.497,28.952c1.709,13.037 1.709,13.037 0.26,27.344c-0.572,7.098 -0.572,7.098 -1.156,14.339c-3.271,12.484 -3.271,12.484 -11.68,18.107c-9.253,6.246 -9.253,6.246 -10.348,17.211c0.011,6.027 0.011,6.027 0.023,12.176c-0.002,4.396 -0.005,8.792 -0.008,13.322c0.125,6.884 0.125,6.884 0.252,13.908c-0.029,4.573 -0.059,9.147 -0.089,13.859c-0.037,28.928 -0.037,28.928 14.412,53.068c1.221,10.742 1.221,10.742 0.782,21.875c-0.17,5.575 -0.17,5.575 -0.342,11.263c-0.145,2.814 -0.29,5.629 -0.44,8.528c-4.125,1.375 -8.25,2.75 -12.5,4.167l0,116.667c5.5,2.75 11,5.5 16.667,8.333c0.451,6.678 0.774,13.364 1.042,20.052c0.193,3.722 0.386,7.444 0.586,11.279c-0.538,3.411 -1.075,6.822 -1.628,10.336c-2.741,1.808 -5.482,3.616 -8.306,5.48c-9.356,6.373 -9.356,6.373 -10.451,17.42c0.011,6.067 0.011,6.067 0.023,12.256c-0.002,4.415 -0.005,8.83 -0.008,13.379c0.125,6.912 0.125,6.912 0.252,13.965c-0.029,4.608 -0.059,9.216 -0.089,13.965c-1.374,23.28 -1.374,23.28 8.199,42.998c2.05,1.827 4.101,3.654 6.213,5.537c1.221,11.246 1.221,11.246 0.782,23.698c-0.17,6.211 -0.17,6.211 -0.342,12.548c-0.145,3.164 -0.29,6.328 -0.44,9.587c-4.125,1.375 -8.25,2.75 -12.5,4.167c-0.12,16.579 -0.194,33.159 -0.26,49.739c-0.052,7.102 -0.052,7.102 -0.106,14.348c-0.013,4.498 -0.027,8.996 -0.041,13.631c-0.021,4.167 -0.043,8.335 -0.066,12.629c-0.618,9.495 -0.618,9.495 4.64,13.819c2.96,29.004 -5.484,48.317 -23.096,70.655c-25.528,27.747 -52.846,34.415 -89.404,37.679l-0,37.5l-70.833,-0l-0,-1220.83Z" style="fill:#cbd5d8;fill-rule:nonzero;"/><path d="M5654.17,3854.17l300,-0l-0,1225l-229.167,-0l0,-37.5c6.711,-1.749 6.711,-1.749 13.558,-3.532c37.573,-10.358 65.563,-19.021 86.735,-53.793c8.447,-16.97 9.533,-32.351 8.04,-51.009c-1.375,-1.375 -2.75,-2.75 -4.166,-4.166c-1.165,-15.073 -0.966,-30.201 -1.042,-45.313c-0.086,-4.248 -0.172,-8.497 -0.26,-12.874c-0.033,-6.115 -0.033,-6.115 -0.066,-12.354c-0.038,-3.748 -0.077,-7.496 -0.118,-11.358c1.781,-11.709 5.369,-14.563 13.986,-22.268c1.981,-10.98 1.981,-10.98 1.562,-22.917c0.032,-3.996 0.065,-7.992 0.098,-12.109c-0.504,-10.975 -0.504,-10.975 -7.91,-16.317c-8.784,-9.825 -7.865,-16.619 -7.91,-29.647c-0.025,-6.622 -0.025,-6.622 -0.049,-13.378c0.048,-4.609 0.096,-9.217 0.146,-13.965c-0.048,-4.609 -0.097,-9.217 -0.146,-13.965c0.016,-4.415 0.032,-8.83 0.049,-13.379c0.014,-4.045 0.028,-8.089 0.042,-12.256c1.618,-10.4 1.618,-10.4 7.451,-18.066c6.667,-4.834 6.667,-4.834 15,-4.834c-0.252,-6.602 -0.622,-13.199 -1.042,-19.792c-0.193,-3.674 -0.386,-7.348 -0.586,-11.133c-1.606,-11.337 -1.606,-11.337 -10.902,-18.305c-10.423,-11.428 -10.4,-16.91 -10.37,-32.167c-0.003,-4.401 -0.006,-8.803 -0.009,-13.338c0.084,-4.574 0.167,-9.147 0.253,-13.859c-0.03,-4.59 -0.059,-9.179 -0.09,-13.908c0.27,-33.982 0.27,-33.982 8.172,-42.879c2.059,-1.8 4.119,-3.599 6.241,-5.453c1.978,-9.879 1.978,-9.879 1.562,-20.573c0.032,-3.561 0.065,-7.122 0.098,-10.791c-0.81,-10.575 -0.81,-10.575 -7.91,-17.838c-7.854,-11.473 -7.862,-18.385 -7.91,-32.194c-0.025,-6.603 -0.025,-6.603 -0.049,-13.338c0.048,-4.574 0.096,-9.147 0.146,-13.859c-0.048,-4.59 -0.097,-9.18 -0.146,-13.908c0.016,-4.397 0.032,-8.793 0.049,-13.322c0.014,-4.018 0.028,-8.036 0.042,-12.176c1.618,-10.334 1.618,-10.334 7.451,-17.991c6.667,-4.843 6.667,-4.843 15,-4.843c0.564,-8.673 0.967,-17.357 1.302,-26.042c0.363,-7.251 0.363,-7.251 0.733,-14.648c-0.672,-4.447 -1.343,-8.895 -2.035,-13.477c-3.431,-2.476 -6.861,-4.952 -10.396,-7.503c-10.437,-9.163 -10.437,-9.163 -12.943,-21.449c0.047,-4.775 0.093,-9.549 0.141,-14.468c0.001,-5.421 0.003,-10.842 0.004,-16.427c0.107,-5.898 0.215,-11.795 0.326,-17.692c0.039,-6.048 0.069,-12.096 0.089,-18.145c0.08,-15.893 0.284,-31.783 0.515,-47.675c0.214,-16.227 0.308,-32.454 0.413,-48.682c0.224,-31.821 0.59,-63.639 1.018,-95.459l-104.167,0l0,-112.5l-70.833,0l-0,-4.166Z" style="fill:#a7b2b6;fill-rule:nonzero;"/><path d="M4095.83,4100l220.834,0c0.376,87.218 0.683,174.434 0.863,261.652c0.086,40.5 0.203,81 0.394,121.499c0.166,35.313 0.274,70.626 0.311,105.939c0.021,18.686 0.072,37.371 0.194,56.057c0.114,17.616 0.148,35.231 0.123,52.848c0.004,6.438 0.037,12.876 0.101,19.313c0.4,42.106 -1.864,82.603 -28.028,117.588c-23.156,22.103 -50.528,39.903 -83.073,41.667c-28.698,-0.718 -59.908,-12.096 -81.021,-31.991c-31.042,-38.528 -34.235,-78.447 -33.536,-125.859c0.007,-6.78 0.003,-13.561 -0.011,-20.342c-0.007,-18.257 0.139,-36.51 0.314,-54.767c0.158,-19.135 0.172,-38.27 0.201,-57.405c0.078,-36.168 0.282,-72.334 0.534,-108.5c0.28,-41.204 0.417,-82.407 0.542,-123.611c0.261,-84.697 0.719,-169.392 1.258,-254.088Z" style="fill:#d7ecf7;fill-rule:nonzero;"/><path d="M3229.17,4100l220.833,0c0.377,87.218 0.684,174.434 0.864,261.652c0.085,40.5 0.202,81 0.393,121.499c0.167,35.313 0.274,70.626 0.311,105.939c0.022,18.686 0.072,37.371 0.194,56.057c0.114,17.616 0.148,35.231 0.123,52.848c0.005,6.438 0.037,12.876 0.102,19.313c0.438,46.136 -2.792,91.158 -35.955,126.442c-23.936,19.432 -54.587,32.959 -85.563,32.389c-29.654,-3.506 -54.334,-16.735 -74.349,-38.639c-20.203,-27.511 -27.48,-56.531 -27.454,-90.13c-0.004,-2.77 -0.008,-5.541 -0.011,-8.396c-0.007,-9.276 0.016,-18.552 0.039,-27.829c0.001,-6.653 0,-13.305 -0.002,-19.958c-0.001,-18.06 0.023,-36.119 0.052,-54.179c0.026,-18.874 0.029,-37.748 0.034,-56.621c0.013,-35.74 0.047,-71.481 0.089,-107.221c0.046,-40.688 0.069,-81.377 0.09,-122.066c0.044,-83.7 0.12,-167.4 0.21,-251.1Z" style="fill:#d6ebf5;fill-rule:nonzero;"/><path d="M4970.83,4104.17l216.667,-0c0.471,88.376 0.854,176.751 1.079,265.128c0.108,41.037 0.254,82.073 0.493,123.11c0.208,35.779 0.342,71.556 0.388,107.335c0.027,18.936 0.091,37.869 0.243,56.804c0.142,17.846 0.185,35.689 0.153,53.536c0.006,6.526 0.047,13.053 0.127,19.58c0.508,43.407 -3.75,76.724 -32.822,110.574c-3.05,2.536 -6.101,5.071 -9.244,7.683c-4.577,3.931 -4.577,3.931 -9.245,7.942c-28.211,19.709 -59.819,18.737 -92.839,14.974c-32.213,-11.06 -51.362,-32.771 -66.666,-62.5c-8.106,-16.972 -9.364,-30.533 -9.336,-49.28c-0.007,-2.809 -0.014,-5.617 -0.021,-8.51c-0.014,-9.379 0.032,-18.757 0.077,-28.136c0.003,-6.735 0.001,-13.471 -0.003,-20.206c-0.003,-18.266 0.046,-36.532 0.104,-54.798c0.052,-19.096 0.057,-38.193 0.067,-57.289c0.026,-36.153 0.095,-72.306 0.178,-108.459c0.093,-41.163 0.139,-82.325 0.181,-123.488c0.087,-84.667 0.24,-169.333 0.419,-254Z" style="fill:#d9eef9;fill-rule:nonzero;"/><path d="M2604.17,3858.33l237.5,0l-0,1220.83l-237.5,-0l-0,-37.5c4.382,-1.064 4.382,-1.064 8.854,-2.149c36.516,-9.327 65.727,-18.902 91.146,-47.851c4.64,-5.157 4.64,-5.157 9.375,-10.417c14.608,-20.869 12.314,-45.816 12.776,-70.426c0.087,-3.992 0.174,-7.984 0.263,-12.097c0.278,-13.377 0.522,-26.755 0.763,-40.133c0.089,-4.61 0.179,-9.219 0.271,-13.968c1.213,-63.468 1.699,-126.916 1.666,-190.394c-0.002,-3.327 -0.004,-6.654 -0.005,-10.082c-0.022,-33.232 -0.088,-66.464 -0.225,-99.695c-0.049,-12.457 -0.083,-24.913 -0.115,-37.369c-0.029,-8.671 -0.082,-17.342 -0.135,-26.013c-0.014,-5.147 -0.027,-10.294 -0.041,-15.598c-0.033,-6.778 -0.033,-6.778 -0.066,-13.692c0.473,-10.116 0.473,-10.116 4.639,-14.283c0.417,-10.377 0.579,-20.614 0.521,-30.99c0.016,-2.892 0.032,-5.784 0.049,-8.764c0.237,-16.07 0.237,-16.07 -4.736,-31.079c-0.381,-6.398 -0.496,-12.812 -0.48,-19.22c0.002,-4.083 0.005,-8.165 0.007,-12.371c0.041,-6.776 0.041,-6.776 0.082,-13.689c0.015,-4.762 0.03,-9.524 0.045,-14.431c0.283,-63.116 1.293,-126.227 2.277,-189.335c0.303,-19.578 0.594,-39.156 0.887,-58.735c0.44,-29.351 0.896,-58.702 1.348,-88.053l-129.166,0l-0,-112.5Z" style="fill:#aab6b9;fill-rule:nonzero;"/><rect x="2395.83" y="3604.17" width="3704.17" height="41.667" style="fill:#ecf2f4;fill-rule:nonzero;"/><path d="M3991.67,3858.33l375,0c-1.375,75.625 -2.75,151.25 -4.167,229.167c-4.125,-8.25 -4.125,-8.25 -8.333,-16.667c-7.786,-9.578 -7.786,-9.578 -20.25,-9.335c-7.634,0.028 -7.634,0.028 -15.421,0.056c-4.208,-0.002 -4.208,-0.002 -8.501,-0.004c-9.29,0.006 -18.577,0.071 -27.866,0.136c-6.434,0.016 -12.868,0.028 -19.302,0.036c-16.947,0.032 -33.893,0.114 -50.84,0.206c-17.288,0.085 -34.575,0.123 -51.863,0.165c-33.931,0.09 -67.861,0.232 -101.791,0.407c-0.194,93.409 -0.341,186.818 -0.431,280.228c-0.043,43.372 -0.102,86.745 -0.197,130.117c-0.083,37.808 -0.137,75.616 -0.156,113.424c-0.011,20.015 -0.036,40.03 -0.097,60.045c-0.056,18.85 -0.074,37.701 -0.061,56.551c-0.003,6.907 -0.019,13.814 -0.051,20.72c-0.042,9.459 -0.031,18.916 -0.009,28.374c-0.007,5.285 -0.015,10.57 -0.023,16.015c2.911,43.598 20.257,82.782 52.067,113.016c30.464,24.953 64.889,33.661 103.125,39.843c-6.07,14.763 -7.789,16.4 -23.177,23.959c-43.084,12.688 -93.863,9.629 -135.156,-7.292c-3.492,-0.961 -6.983,-1.923 -10.58,-2.913c-14.697,-7.769 -18.236,-17.399 -25.358,-32.243c-2.374,-4.807 -4.748,-9.615 -7.194,-14.567c-2.364,-5.617 -4.65,-11.267 -6.868,-16.944c-1.108,-2.764 -2.215,-5.529 -3.356,-8.378c-14.11,-42.42 -10.792,-87.268 -10.563,-131.395c0.003,-9.531 0.001,-19.061 -0.006,-28.592c-0.004,-25.771 0.07,-51.542 0.157,-77.313c0.079,-26.971 0.086,-53.941 0.101,-80.911c0.034,-45.236 0.112,-90.471 0.224,-135.706c0.115,-46.573 0.203,-93.145 0.256,-139.718c0.003,-2.875 0.007,-5.751 0.01,-8.713c0.016,-14.426 0.032,-28.853 0.048,-43.279c0.129,-119.499 0.359,-238.997 0.629,-358.495Z" style="fill:#eaf4f7;fill-rule:nonzero;"/><path d="M4866.67,3858.33l366.666,0c0.086,32.227 0.172,64.453 0.261,97.657c0.038,10.186 0.076,20.371 0.115,30.866c0.012,8.022 0.022,16.044 0.031,24.065c0.022,4.207 0.043,8.414 0.065,12.749c0.001,5.963 0.001,5.963 0.001,12.047c0.01,3.469 0.019,6.939 0.028,10.514c-0.501,7.936 -0.501,7.936 -4.667,12.102c-8.902,0.473 -17.819,0.654 -26.733,0.724c-2.791,0.027 -5.582,0.055 -8.458,0.084c-6.08,0.059 -12.159,0.108 -18.239,0.15c-9.612,0.068 -19.223,0.165 -28.835,0.27c-27.333,0.296 -54.668,0.546 -82.002,0.759c-16.702,0.132 -33.402,0.304 -50.103,0.501c-6.377,0.067 -12.755,0.118 -19.133,0.154c-8.909,0.05 -17.817,0.151 -26.726,0.263c-7.614,0.064 -7.614,0.064 -15.383,0.13c-12.436,-0.089 -12.436,-0.089 -20.222,9.465c-1.311,12.819 -1.311,12.819 -1.142,28.19c-0.022,2.932 -0.044,5.865 -0.066,8.886c-0.063,9.877 -0.066,19.753 -0.068,29.63c-0.032,7.063 -0.067,14.125 -0.105,21.188c-0.092,19.235 -0.129,38.469 -0.15,57.703c-0.015,12.027 -0.041,24.053 -0.071,36.079c-0.102,41.987 -0.156,83.973 -0.171,125.96c-0.015,39.076 -0.139,78.15 -0.314,117.226c-0.145,33.575 -0.209,67.149 -0.212,100.724c-0.003,20.039 -0.039,40.077 -0.158,60.115c-0.11,18.886 -0.118,37.769 -0.052,56.655c0.008,6.9 -0.019,13.8 -0.086,20.699c-0.52,57.282 9.613,102.409 50.74,144.758c29.479,25.618 64.334,34.258 101.855,42.187c-14.425,16.09 -28.755,27.717 -50.872,30.201c-10.59,0.348 -21.088,0.261 -31.68,0.008c-3.547,-0.022 -7.095,-0.043 -10.75,-0.065c-10.583,-0.129 -21.125,-0.491 -31.698,-0.977c-3.454,-0.137 -6.909,-0.274 -10.468,-0.415c-24.343,-1.688 -24.343,-1.688 -36.195,-10.783c-42.193,-65.559 -48.633,-126.841 -47.841,-203.012c0.007,-9.616 0.003,-19.232 -0.012,-28.849c-0.007,-25.891 0.139,-51.78 0.315,-77.671c0.157,-27.136 0.171,-54.273 0.2,-81.411c0.069,-45.478 0.225,-90.956 0.449,-136.434c0.23,-46.806 0.406,-93.611 0.512,-140.418c0.007,-2.893 0.014,-5.787 0.02,-8.769c0.033,-14.519 0.065,-29.038 0.096,-43.558c0.258,-120.116 0.718,-240.231 1.258,-360.347Z" style="fill:#e8f2f5;fill-rule:nonzero;"/><path d="M3129.17,3858.33l425,0l-0,154.167l-4.167,0l0,-150l-54.167,0c0.066,5.614 0.131,11.229 0.199,17.014c0.226,20.802 0.369,41.605 0.488,62.408c0.063,9.009 0.148,18.018 0.256,27.026c0.152,12.939 0.223,25.876 0.278,38.816c0.065,4.036 0.129,8.073 0.196,12.232c0,3.753 0.001,7.506 0.002,11.373c0.042,4.955 0.042,4.955 0.085,10.01c-1.504,8.621 -1.504,8.621 -6.136,15.955c-11.743,7.711 -21.21,6.601 -35.164,6.453c-2.752,-0.012 -5.504,-0.023 -8.339,-0.035c-9.092,-0.051 -18.18,-0.189 -27.272,-0.324c-6.314,-0.045 -12.629,-0.082 -18.943,-0.114c-16.623,-0.095 -33.243,-0.257 -49.865,-0.441c-26.62,-0.293 -53.241,-0.523 -79.863,-0.677c-9.311,-0.07 -18.622,-0.193 -27.933,-0.32c-5.688,-0.043 -11.377,-0.085 -17.065,-0.124c-4.977,-0.056 -9.955,-0.112 -15.083,-0.17c-12.252,-0.308 -12.252,-0.308 -20.007,9.251c-1.287,12.635 -1.287,12.635 -1.087,27.771c-0.016,2.888 -0.031,5.775 -0.048,8.75c-0.043,9.723 -0.026,19.446 -0.01,29.169c-0.018,6.954 -0.039,13.907 -0.064,20.86c-0.056,18.933 -0.058,37.865 -0.048,56.798c0.005,15.809 -0.016,31.618 -0.036,47.428c-0.046,37.326 -0.048,74.651 -0.023,111.977c0.025,38.46 -0.026,76.92 -0.115,115.381c-0.073,33.033 -0.098,66.066 -0.084,99.099c0.007,19.722 -0.004,39.443 -0.062,59.165c-0.052,18.577 -0.044,37.153 0.01,55.731c0.01,6.795 -0.001,13.591 -0.036,20.387c-0.284,60.459 7.966,110.894 51.749,156.273c33.342,28.32 73.648,38.353 116.52,41.211c-4.166,12.5 -4.166,12.5 -11.198,17.22c-41.94,17.995 -94.846,23.949 -138.199,7.552c-4.424,-1.949 -4.424,-1.949 -8.936,-3.938c-4.616,-1.821 -4.616,-1.821 -9.326,-3.679c-25.107,-10.924 -35.478,-26.396 -46.776,-51.6c-17.158,-50.125 -17.551,-97.53 -17.096,-150.125c0.005,-9.616 0.002,-19.231 -0.01,-28.847c-0.006,-25.908 0.116,-51.815 0.262,-77.723c0.131,-27.148 0.143,-54.296 0.167,-81.445c0.058,-45.503 0.188,-91.006 0.374,-136.509c0.192,-46.834 0.339,-93.668 0.427,-140.503c0.006,-2.924 0.011,-5.848 0.017,-8.861c0.048,-25.443 0.093,-50.886 0.138,-76.329c0.195,-109.238 0.61,-218.474 0.99,-327.713Z" style="fill:#ecf6f9;fill-rule:nonzero;"/><rect x="3991.67" y="3320.83" width="429.167" height="237.5" style="fill:#daeffa;fill-rule:nonzero;"/><rect x="4866.67" y="3320.83" width="425" height="237.5" style="fill:#dbeffa;fill-rule:nonzero;"/><rect x="3129.17" y="3320.83" width="425" height="237.5" style="fill:#d9eef9;fill-rule:nonzero;"/><rect x="5654.17" y="3858.33" width="70.833" height="1220.83" style="fill:#f0f6f7;fill-rule:nonzero;"/><path d="M4968.13,4056.72c8.196,-0.059 8.196,-0.059 16.558,-0.119c5.972,0.022 11.943,0.048 17.914,0.076c6.118,-0.008 12.236,-0.02 18.353,-0.036c12.82,-0.018 25.639,0.008 38.459,0.067c16.436,0.071 32.869,0.03 49.305,-0.045c12.632,-0.045 25.264,-0.031 37.896,0.002c6.061,0.008 12.121,-0.002 18.181,-0.031c8.468,-0.032 16.936,0.025 25.404,0.086c4.82,0.01 9.64,0.02 14.606,0.03c11.859,1.587 11.859,1.587 18.749,6.152c8.472,11.985 7.197,21.933 7.225,36.496c0.022,2.922 0.045,5.844 0.068,8.854c0.06,9.816 0.03,19.631 0,29.447c0.024,7.03 0.053,14.059 0.087,21.088c0.075,19.122 0.07,38.243 0.046,57.366c-0.013,15.975 0.012,31.949 0.038,47.924c0.058,37.72 0.052,75.439 0.004,113.159c-0.048,38.851 0.011,77.701 0.123,116.552c0.092,33.384 0.12,66.767 0.095,100.151c-0.014,19.924 -0.004,39.848 0.068,59.772c0.065,18.77 0.048,37.537 -0.031,56.307c-0.015,6.861 -0.002,13.722 0.042,20.583c0.368,62.543 -11.605,105.127 -54.743,151.695c-28.042,26.898 -61.659,35.305 -99.756,36.458c-45.242,-1.511 -72.628,-15.233 -105.176,-46.403c-12.394,-13.342 -22.268,-26.678 -29.98,-43.18c-2.118,-4.244 -4.237,-8.488 -6.419,-12.86c-10.58,-28.725 -7.819,-60.426 -7.699,-90.612c-0.017,-7.128 -0.039,-14.255 -0.066,-21.382c-0.057,-19.283 -0.035,-38.564 0.005,-57.846c0.031,-20.192 0.002,-40.383 -0.018,-60.574c-0.022,-33.881 0.007,-67.761 0.067,-101.641c0.068,-39.191 0.046,-78.38 -0.023,-117.571c-0.056,-33.659 -0.065,-67.319 -0.032,-100.978c0.02,-20.1 0.022,-40.2 -0.019,-60.3c-0.036,-18.875 -0.011,-37.749 0.061,-56.625c0.017,-6.935 0.012,-13.871 -0.016,-20.806c-0.034,-9.447 0.009,-18.89 0.071,-28.336c0.005,-5.292 0.01,-10.583 0.015,-16.035c1.573,-12.768 1.573,-12.768 7.181,-20.719c10.86,-7.168 20.482,-6.14 33.357,-6.166Zm2.701,47.451c-0.565,88.232 -1.025,176.462 -1.295,264.696c-0.129,40.972 -0.304,81.942 -0.591,122.914c-0.249,35.726 -0.41,71.452 -0.466,107.179c-0.032,18.904 -0.108,37.804 -0.291,56.707c-0.171,17.826 -0.222,35.648 -0.184,53.474c-0.007,6.51 -0.056,13.02 -0.153,19.53c-0.577,40.939 3.786,74.475 27.98,108.833c10.417,10.004 20.759,17.924 33.334,25c2.46,1.547 4.92,3.094 7.454,4.687c23.637,9.355 57.734,7.271 82.194,0.928c30.416,-13.95 51.944,-38.154 65.088,-68.486c7.595,-25.608 5.749,-52.632 5.489,-79.114c-0.005,-6.738 -0.002,-13.476 0.007,-20.213c0.005,-18.197 -0.092,-36.393 -0.209,-54.589c-0.105,-19.052 -0.114,-38.103 -0.134,-57.155c-0.052,-36.035 -0.188,-72.069 -0.356,-108.103c-0.186,-41.042 -0.278,-82.084 -0.361,-123.127c-0.174,-84.387 -0.48,-168.774 -0.839,-253.161l-216.667,-0Z" style="fill:#1b1b1d;fill-rule:nonzero;"/><path d="M3226.4,4056.65c5.451,-0.053 10.902,-0.106 16.518,-0.16c5.958,0.008 11.916,0.021 17.874,0.037c6.108,-0.019 12.216,-0.041 18.323,-0.066c12.803,-0.038 25.604,-0.028 38.406,0.014c16.399,0.048 32.794,-0.036 49.192,-0.158c12.615,-0.077 25.229,-0.075 37.843,-0.052c6.046,0.001 12.091,-0.024 18.136,-0.076c8.457,-0.062 16.914,-0.007 25.371,0.054c4.811,0.001 9.621,0.001 14.578,0.002c15.511,2.621 19.493,6.383 29.027,18.755c2.085,12.932 2.085,12.932 2.088,28.457c0.035,4.29 0.035,4.29 0.07,8.667c0.057,9.584 -0.006,19.163 -0.068,28.747c0.016,6.873 0.039,13.745 0.068,20.617c0.059,18.675 0.012,37.347 -0.057,56.021c-0.057,19.561 -0.031,39.121 -0.016,58.682c0.011,32.877 -0.045,65.753 -0.141,98.63c-0.111,37.945 -0.119,75.888 -0.07,113.833c0.045,36.544 0.019,73.087 -0.039,109.63c-0.024,15.526 -0.024,31.052 -0.004,46.578c0.02,18.325 -0.023,36.648 -0.113,54.972c-0.023,6.702 -0.025,13.403 -0.004,20.105c0.169,61.944 -9.614,112.415 -53.537,158.707c-34.933,32.63 -73.579,40.061 -120.427,39.323c-20.669,-1.765 -35.332,-6.975 -52.75,-17.969c-4.278,-2.578 -4.278,-2.578 -8.643,-5.208c-34.167,-22.909 -58.786,-60.191 -68.697,-100.03c-2.202,-13.776 -2.379,-26.944 -2.412,-40.899c-0.013,-2.919 -0.025,-5.837 -0.038,-8.844c-0.036,-9.753 -0.042,-19.505 -0.048,-29.258c-0.02,-7.002 -0.041,-14.005 -0.063,-21.007c-0.055,-18.999 -0.082,-37.997 -0.1,-56.996c-0.012,-11.865 -0.029,-23.729 -0.048,-35.594c-0.057,-37.111 -0.097,-74.222 -0.113,-111.332c-0.019,-42.867 -0.092,-85.732 -0.213,-128.599c-0.09,-33.128 -0.132,-66.256 -0.138,-99.385c-0.004,-19.793 -0.029,-39.585 -0.103,-59.378c-0.068,-18.598 -0.078,-37.195 -0.041,-55.793c0.003,-6.835 -0.015,-13.669 -0.056,-20.504c-0.053,-9.31 -0.029,-18.617 0.015,-27.927c-0.006,-5.216 -0.012,-10.432 -0.019,-15.805c1.55,-12.608 1.55,-12.608 7.156,-20.532c10.836,-7.192 20.423,-6.199 33.293,-6.259Zm2.768,43.35c-0.283,87.289 -0.513,174.579 -0.648,261.868c-0.064,40.533 -0.152,81.065 -0.295,121.598c-0.125,35.339 -0.206,70.677 -0.233,106.016c-0.017,18.702 -0.055,37.404 -0.146,56.105c-0.085,17.627 -0.111,35.252 -0.092,52.879c-0.004,6.446 -0.028,12.893 -0.076,19.339c-0.375,52.724 3.07,92.507 40.943,131.609c21.77,18.411 48.145,28.926 76.937,27.181c30.572,-5.664 59.356,-19.137 79.443,-43.262c17.511,-28.745 25.527,-52.364 25.501,-85.963c0.005,-4.156 0.005,-4.156 0.011,-8.396c0.007,-9.276 -0.016,-18.552 -0.039,-27.829c-0.001,-6.653 -0,-13.305 0.002,-19.958c0.001,-18.06 -0.023,-36.119 -0.053,-54.179c-0.026,-18.874 -0.028,-37.748 -0.033,-56.621c-0.013,-35.74 -0.047,-71.481 -0.089,-107.221c-0.046,-40.688 -0.069,-81.377 -0.09,-122.066c-0.044,-83.7 -0.12,-167.4 -0.21,-251.1l-220.833,-0Z" style="fill:#1b1c1d;fill-rule:nonzero;"/><path d="M4093.51,4056.72c2.705,-0.022 5.409,-0.044 8.196,-0.066c8.936,-0.055 17.869,-0.019 26.806,0.023c6.211,-0.008 12.422,-0.02 18.633,-0.036c13.016,-0.018 26.031,0.008 39.047,0.067c16.688,0.071 33.374,0.03 50.062,-0.045c12.825,-0.045 25.65,-0.031 38.475,0.002c6.154,0.008 12.307,-0.002 18.46,-0.031c8.599,-0.032 17.194,0.016 25.793,0.086c4.894,0.01 9.788,0.02 14.83,0.03c12.017,1.587 12.017,1.587 18.919,6.203c8.357,11.77 7.172,21.294 7.186,35.626c0.019,2.834 0.039,5.668 0.059,8.587c0.05,9.519 0.01,19.036 -0.029,28.555c0.017,6.817 0.039,13.634 0.066,20.451c0.057,18.546 0.035,37.091 -0.005,55.637c-0.031,19.428 -0.002,38.857 0.018,58.286c0.022,32.67 -0.008,65.341 -0.067,98.011c-0.068,37.682 -0.046,75.363 0.023,113.044c0.057,32.39 0.064,64.779 0.032,97.168c-0.02,19.326 -0.022,38.652 0.019,57.978c0.036,18.211 0.011,36.422 -0.061,54.634c-0.017,6.651 -0.012,13.302 0.016,19.952c0.215,56.885 -6.1,103.842 -39.159,151.622c-3.867,5.801 -3.867,5.801 -7.812,11.719c-30.688,31.59 -69.927,42.868 -113.021,44.271c-43.113,-1.214 -71.621,-15.055 -102.767,-44.727c-31.488,-36.438 -43.539,-73.03 -43.652,-120.401c-0.012,-2.922 -0.024,-5.844 -0.037,-8.855c-0.036,-9.74 -0.042,-19.479 -0.049,-29.219c-0.019,-7.003 -0.04,-14.006 -0.062,-21.009c-0.055,-18.981 -0.082,-37.962 -0.1,-56.943c-0.013,-11.856 -0.03,-23.712 -0.048,-35.568c-0.057,-37.088 -0.098,-74.176 -0.114,-111.265c-0.018,-42.831 -0.092,-85.661 -0.212,-128.492c-0.09,-33.111 -0.132,-66.221 -0.138,-99.332c-0.004,-19.779 -0.029,-39.557 -0.103,-59.336c-0.069,-18.581 -0.078,-37.161 -0.041,-55.742c0.003,-6.828 -0.015,-13.656 -0.056,-20.484c-0.053,-9.301 -0.029,-18.599 0.014,-27.899c-0.006,-5.211 -0.012,-10.421 -0.018,-15.789c1.55,-12.596 1.55,-12.596 7.144,-20.52c10.952,-7.257 20.762,-6.167 33.753,-6.193Zm2.319,43.284c-0.565,88.775 -1.025,177.549 -1.295,266.326c-0.129,41.224 -0.304,82.447 -0.591,123.67c-0.249,35.947 -0.41,71.892 -0.466,107.839c-0.032,19.02 -0.108,38.037 -0.291,57.056c-0.171,17.935 -0.222,35.867 -0.184,53.803c-0.007,6.55 -0.056,13.1 -0.153,19.65c-0.576,41.141 3.862,74.54 27.98,109.156c23.221,23.383 51.915,37.381 84.896,39.583c32.401,-1.175 64.055,-20.849 85.938,-43.75c17.324,-28.905 25.527,-52.287 25.501,-85.963c0.005,-4.156 0.005,-4.156 0.011,-8.396c0.006,-9.276 -0.017,-18.552 -0.039,-27.829c-0.001,-6.653 -0.001,-13.305 0.002,-19.958c0.001,-18.06 -0.024,-36.119 -0.053,-54.179c-0.026,-18.874 -0.028,-37.748 -0.033,-56.621c-0.013,-35.74 -0.047,-71.481 -0.089,-107.221c-0.047,-40.688 -0.07,-81.377 -0.091,-122.066c-0.043,-83.7 -0.12,-167.4 -0.209,-251.1l-220.834,-0Z" style="fill:#191a1c;fill-rule:nonzero;"/><rect x="2545.83" y="3858.33" width="58.333" height="1220.83" style="fill:#edf3f6;fill-rule:nonzero;"/><path d="M3554.17,3858.33l-0,154.167l-4.167,0l0,-150l-54.167,0c0.066,5.614 0.131,11.229 0.199,17.014c0.226,20.802 0.369,41.605 0.488,62.408c0.063,9.009 0.148,18.018 0.256,27.026c0.152,12.939 0.223,25.876 0.278,38.816c0.065,4.036 0.129,8.073 0.196,12.232c0,3.753 0.001,7.506 0.002,11.373c0.042,4.955 0.042,4.955 0.085,10.01c-1.504,8.621 -1.504,8.621 -6.136,15.951c-11.736,7.712 -21.213,6.636 -35.164,6.523c-2.752,-0.005 -5.504,-0.01 -8.339,-0.015c-9.092,-0.03 -18.18,-0.147 -27.272,-0.264c-6.314,-0.034 -12.629,-0.061 -18.943,-0.083c-16.622,-0.072 -33.243,-0.214 -49.865,-0.376c-26.62,-0.246 -53.241,-0.387 -79.863,-0.524c-9.311,-0.058 -18.622,-0.148 -27.933,-0.242c-5.688,-0.042 -11.377,-0.083 -17.065,-0.124c-4.977,-0.047 -9.955,-0.094 -15.083,-0.142c-11.484,-0.398 -11.484,-0.398 -20.007,4.584c-4.392,-44.262 -4.658,-88.126 -4.427,-132.552c0.05,-12.775 0.094,-25.55 0.139,-38.325c0.023,-6.347 0.046,-12.694 0.069,-19.041c0.017,-4.702 0.034,-9.404 0.052,-14.249c37.348,-0.549 74.697,-1.093 112.046,-1.63c17.35,-0.249 34.7,-0.501 52.05,-0.756c16.804,-0.248 33.609,-0.491 50.413,-0.73c6.349,-0.091 12.699,-0.184 19.048,-0.279c3.018,-0.045 6.037,-0.09 9.147,-0.136c2.614,-0.04 5.228,-0.079 7.922,-0.12c38.699,-0.514 77.324,-0.516 116.041,-0.516Z" style="fill:#d9eef8;fill-rule:nonzero;"/><path d="M4982.63,3857.86c4.09,-0.001 4.09,-0.001 8.263,-0.002c8.927,0.003 17.854,0.036 26.782,0.068c6.223,0.008 12.446,0.014 18.67,0.018c16.316,0.016 32.632,0.057 48.948,0.103c16.675,0.043 33.35,0.062 50.025,0.083c32.672,0.044 65.343,0.116 98.014,0.203c0.106,27.814 0.179,55.627 0.229,83.44c0.021,9.47 0.05,18.94 0.086,28.41c0.05,13.58 0.074,27.159 0.092,40.738c0.022,4.262 0.043,8.524 0.065,12.916c0.001,3.92 0.001,7.841 0.001,11.88c0.01,3.469 0.019,6.939 0.028,10.514c-0.501,7.936 -0.501,7.936 -4.667,12.102c-8.879,0.517 -17.774,0.742 -26.667,0.856c-2.784,0.041 -5.569,0.082 -8.438,0.125c-9.251,0.132 -18.502,0.235 -27.753,0.338c-6.41,0.085 -12.82,0.173 -19.23,0.262c-16.915,0.231 -33.829,0.436 -50.744,0.637c-17.192,0.209 -34.384,0.441 -51.576,0.671c-25.116,0.333 -50.232,0.657 -75.348,0.962c-5.067,0.061 -10.134,0.123 -15.355,0.186c-8.296,0.087 -16.593,0.13 -24.889,0.13l-0,-200c18.955,-3.159 34.538,-4.675 53.464,-4.64Z" style="fill:#d9eef9;fill-rule:nonzero;"/><path d="M4054.17,3862.5l308.333,0l0,225c-4.125,-8.25 -4.125,-8.25 -8.333,-16.667c-7.786,-9.578 -7.786,-9.578 -20.25,-9.335c-7.634,0.028 -7.634,0.028 -15.421,0.056c-4.208,-0.002 -4.208,-0.002 -8.501,-0.004c-9.29,0.006 -18.577,0.071 -27.866,0.136c-6.434,0.016 -12.868,0.028 -19.302,0.036c-16.947,0.032 -33.893,0.114 -50.84,0.206c-17.288,0.085 -34.575,0.123 -51.863,0.165c-33.931,0.09 -67.861,0.232 -101.791,0.407c-1.375,2.75 -2.75,5.5 -4.166,8.333l-0,-208.333Z" style="fill:#d9eef9;fill-rule:nonzero;"/><path d="M5752.2,3355.42c6.177,-0.045 6.177,-0.045 12.479,-0.09c8.667,-0.033 17.334,-0.012 26.001,0.058c13.181,0.08 26.344,-0.084 39.523,-0.269c8.461,-0.001 16.922,0.012 25.383,0.041c3.894,-0.064 7.788,-0.128 11.801,-0.193c25.135,0.44 41.362,6.255 62.254,20.161c43.612,45.516 20.362,137.746 20.362,183.205l-295.833,0c-0,-145.833 -0,-145.833 20.833,-179.166c25.568,-20.683 44.886,-23.988 77.197,-23.747Z" style="fill:#a7b2b6;fill-rule:nonzero;"/><path d="M2642.19,3355.71c3.943,-0.01 7.886,-0.02 11.948,-0.031c8.292,0.004 16.585,0.06 24.876,0.164c12.621,0.143 25.229,0.086 37.85,0.005c8.095,0.029 16.189,0.069 24.284,0.122c5.6,-0.031 5.6,-0.031 11.314,-0.062c27.204,0.504 50.672,5.935 70.714,25.413c17.717,20.697 19.075,34.266 18.9,60.636c-0.005,2.94 -0.009,5.88 -0.013,8.91c-0.022,10.995 -0.08,21.989 -0.134,32.984c-0.086,24.578 -0.172,49.156 -0.26,74.479l-295.834,0c0,-145.833 0,-145.833 20.834,-179.166c21.897,-21.555 46.025,-23.891 75.521,-23.454Z" style="fill:#a9b5b9;fill-rule:nonzero;"/><path d="M3107.82,3178.05c4.188,-0.035 8.376,-0.071 12.691,-0.107c6.887,0.005 6.887,0.005 13.913,0.011c4.838,-0.028 9.677,-0.056 14.662,-0.085c16.045,-0.079 32.089,-0.095 48.134,-0.104c8.319,-0.02 16.639,-0.04 24.959,-0.062c26.172,-0.068 52.344,-0.088 78.517,-0.083c26.975,0.005 53.948,-0.082 80.923,-0.214c23.175,-0.109 46.349,-0.154 69.524,-0.148c13.834,0.002 27.667,-0.03 41.501,-0.11c15.441,-0.082 30.879,-0.058 46.321,-0.008c4.566,-0.046 9.131,-0.093 13.836,-0.142c25.368,0.21 40.421,1.801 59.702,18.833c10.814,14.256 10.103,28.436 8.333,45.834c-4.487,11.162 -9.652,19.146 -16.666,29.166c-12.273,4.091 -20.362,4.738 -33.162,4.836c-4.264,0.042 -8.528,0.084 -12.922,0.127c-7.013,0.037 -7.013,0.037 -14.168,0.074c-7.39,0.061 -7.39,0.061 -14.929,0.123c-16.335,0.125 -32.67,0.215 -49.006,0.293c-4.17,0.02 -4.17,0.02 -8.425,0.041c-26.223,0.129 -52.447,0.24 -78.671,0.311c-33.53,0.091 -67.057,0.266 -100.586,0.556c-23.585,0.196 -47.169,0.297 -70.754,0.328c-14.085,0.02 -28.166,0.083 -42.249,0.249c-15.713,0.161 -31.418,0.166 -47.132,0.133c-6.988,0.125 -6.988,0.125 -14.117,0.253c-30.739,-0.29 -30.739,-0.29 -42.22,-8.574c-13.091,-15.175 -17.145,-28.589 -18.355,-47.985c1.394,-14.703 7.982,-23.225 17.529,-34.098c13.51,-9.006 17.22,-9.388 32.817,-9.448Z" style="fill:#d9eff9;fill-rule:nonzero;"/><path d="M3974.01,3178.58c4.188,-0.023 8.376,-0.047 12.692,-0.072c4.612,-0.004 9.225,-0.009 13.978,-0.014c7.266,-0.031 7.266,-0.031 14.68,-0.062c16.087,-0.061 32.175,-0.09 48.262,-0.113c8.332,-0.018 16.665,-0.035 24.997,-0.054c23.224,-0.049 46.448,-0.08 69.672,-0.095c30.033,-0.018 60.065,-0.091 90.097,-0.212c23.213,-0.09 46.426,-0.132 69.64,-0.138c13.864,-0.004 27.728,-0.035 41.592,-0.103c15.472,-0.071 30.942,-0.064 46.414,-0.037c4.588,-0.038 9.175,-0.076 13.901,-0.116c39.195,0.215 39.195,0.215 55.064,14.102c11.806,17.709 10.525,33.377 8.333,54.166c-6.719,15.36 -10.959,19.807 -25,29.167c-9.418,1.095 -9.418,1.095 -20.661,1.17c-4.264,0.048 -8.528,0.096 -12.922,0.145c-4.676,0.009 -9.351,0.018 -14.169,0.028c-7.389,0.062 -7.389,0.062 -14.928,0.125c-13.516,0.101 -27.032,0.163 -40.548,0.2c-8.447,0.025 -16.893,0.059 -25.339,0.096c-26.432,0.114 -52.864,0.195 -79.296,0.227c-30.503,0.037 -61.003,0.183 -91.505,0.425c-23.585,0.18 -47.169,0.264 -70.755,0.275c-14.084,0.009 -28.165,0.058 -42.248,0.207c-15.713,0.142 -31.418,0.127 -47.132,0.072c-4.659,0.077 -9.317,0.154 -14.117,0.233c-30.668,-0.332 -30.668,-0.332 -42.252,-8.555c-15.485,-17.727 -16.107,-32.385 -15.101,-54.788c2.425,-14.352 7.63,-21.959 18.473,-31.527c10.187,-5.093 16.787,-4.713 28.178,-4.752Z" style="fill:#dbf0f9;fill-rule:nonzero;"/><path d="M4848.35,3178.58c4.148,-0.023 8.296,-0.047 12.569,-0.072c6.883,-0.007 6.883,-0.007 13.905,-0.014c7.205,-0.031 7.205,-0.031 14.555,-0.062c15.975,-0.062 31.95,-0.09 47.925,-0.113c8.267,-0.018 16.535,-0.035 24.802,-0.054c23.05,-0.049 46.101,-0.08 69.152,-0.095c29.815,-0.018 59.63,-0.091 89.446,-0.212c23.036,-0.09 46.072,-0.132 69.109,-0.138c13.762,-0.004 27.523,-0.035 41.284,-0.103c15.363,-0.071 30.724,-0.064 46.087,-0.037c4.555,-0.038 9.11,-0.076 13.803,-0.116c26.798,0.148 42.02,2.603 62.397,20.872c7.752,15.503 7.223,30.412 4.948,47.396c-6.766,15.145 -11.088,19.892 -25,29.167c-9.43,1.072 -9.43,1.072 -20.689,1.114c-4.27,0.036 -8.541,0.071 -12.94,0.108c-4.682,-0.004 -9.365,-0.008 -14.189,-0.011c-7.399,0.042 -7.399,0.042 -14.949,0.084c-13.533,0.066 -27.065,0.093 -40.599,0.099c-11.297,0.008 -22.593,0.038 -33.89,0.068c-26.652,0.068 -53.303,0.088 -79.955,0.082c-27.495,-0.005 -54.99,0.083 -82.485,0.215c-23.607,0.109 -47.212,0.153 -70.819,0.148c-14.099,-0.002 -28.197,0.022 -42.297,0.11c-15.722,0.081 -31.441,0.058 -47.164,0.007c-4.674,0.047 -9.347,0.094 -14.163,0.142c-6.423,-0.052 -6.423,-0.052 -12.976,-0.106c-3.717,0.005 -7.434,0.009 -11.263,0.014c-13.27,-2.765 -18.206,-8.335 -26.622,-18.741c-6.023,-18.068 -6.964,-35.305 -4.166,-54.166c10.156,-12.761 10.156,-12.761 20.833,-20.834c6.73,-6.73 14.042,-4.72 23.351,-4.752Z" style="fill:#d8eef8;fill-rule:nonzero;"/><path d="M5654.17,5500l341.666,0c0,87.5 0,87.5 -12.5,100c-10.438,1.254 -19.847,1.751 -30.289,1.684c-3.071,0.028 -6.141,0.057 -9.305,0.086c-10.153,0.076 -20.304,0.06 -30.458,0.037c-7.052,0.019 -14.104,0.041 -21.156,0.066c-14.781,0.037 -29.561,0.027 -44.343,-0.014c-18.958,-0.048 -37.914,0.036 -56.872,0.158c-14.562,0.076 -29.124,0.075 -43.686,0.051c-6.991,-0.001 -13.982,0.025 -20.972,0.076c-9.768,0.062 -19.529,0.018 -29.296,-0.054c-4.344,0.061 -4.344,0.061 -8.777,0.123c-8.071,-0.125 -8.071,-0.125 -21.512,-2.213c-12.5,-16.667 -12.5,-16.667 -12.5,-100Z" style="fill:#3e484e;fill-rule:nonzero;"/><path d="M2508.33,5500l337.5,0c0,83.333 0,83.333 -16.666,100c-13.812,2.06 -13.812,2.06 -30.447,2.024c-3.037,0.016 -6.074,0.032 -9.203,0.048c-10.017,0.031 -20.028,-0.058 -30.044,-0.151c-6.963,-0.01 -13.925,-0.014 -20.888,-0.012c-14.578,-0.013 -29.155,-0.082 -43.732,-0.194c-18.711,-0.142 -37.42,-0.173 -56.131,-0.167c-14.369,-0.002 -28.738,-0.048 -43.107,-0.108c-6.901,-0.027 -13.802,-0.043 -20.703,-0.049c-9.627,-0.019 -19.251,-0.091 -28.877,-0.18c-5.483,-0.032 -10.966,-0.064 -16.615,-0.097c-12.753,-1.114 -12.753,-1.114 -21.087,-9.447l0,-91.667Z" style="fill:#3d464c;fill-rule:nonzero;"/><path d="M5725,3362.5l0,45.833c5.414,0.86 10.828,1.719 16.406,2.605c33.209,7.518 59.298,26.649 78.516,54.622c16.508,30.689 17.578,57.981 17.578,92.773l-183.333,0c-0.43,-23.375 -0.86,-46.75 -1.302,-70.833c-0.19,-7.31 -0.38,-14.62 -0.575,-22.152c-0.872,-57.449 -0.872,-57.449 17.003,-80.509c17.666,-17.558 30.645,-24.726 55.707,-22.339Z" style="fill:#cad6d9;fill-rule:nonzero;"/><path d="M2604.17,3362.5c1.375,15.125 2.75,30.25 4.166,45.833c4.077,1.118 8.154,2.235 12.354,3.386c43.296,12.623 74.63,28.81 99.886,67.969c8.594,20.312 8.594,20.312 16.927,78.645l-191.667,0c-0.429,-23.375 -0.859,-46.75 -1.302,-70.833c-0.189,-7.31 -0.379,-14.62 -0.574,-22.152c-0.873,-57.428 -0.873,-57.428 16.927,-80.509c13.117,-12.866 24.135,-22.339 43.283,-22.339Z" style="fill:#ced9db;fill-rule:nonzero;"/><rect x="4866.67" y="3320.83" width="62.5" height="237.5" style="fill:#ebf5f8;fill-rule:nonzero;"/><path d="M3991.67,3320.83l62.5,0c1.375,78.375 2.75,156.75 4.166,237.5l-66.666,0l-0,-237.5Z" style="fill:#f0f9fc;fill-rule:nonzero;"/><path d="M3129.17,3320.83l62.5,0c-1.375,77 -2.75,154 -4.167,233.334c2.75,1.375 5.5,2.75 8.333,4.166l-66.666,0l-0,-237.5Z" style="fill:#eff8fb;fill-rule:nonzero;"/><path d="M4358.33,3320.83l62.5,0l0,237.5l-58.333,0c-1.375,-78.375 -2.75,-156.75 -4.167,-237.5Z" style="fill:#c5dee9;fill-rule:nonzero;"/><rect x="3495.83" y="3320.83" width="58.333" height="237.5" style="fill:#c5dfe9;fill-rule:nonzero;"/><path d="M5291.67,3320.83l-0,237.5l-58.334,0c-0.094,-30.351 -0.17,-60.701 -0.216,-91.052c-0.021,-14.092 -0.051,-28.184 -0.098,-42.276c-0.054,-16.185 -0.074,-32.371 -0.093,-48.556c-0.021,-5.083 -0.043,-10.165 -0.065,-15.402c-0,-4.671 -0,-9.342 -0.001,-14.155c-0.009,-4.136 -0.018,-8.271 -0.028,-12.533c1.562,-29.175 25.332,-13.526 58.835,-13.526Z" style="fill:#c4dee9;fill-rule:nonzero;"/><path d="M5725,3362.5l0,195.833l-70.833,0c-0.481,-20.165 -0.895,-40.309 -1.145,-60.475c-0.104,-6.846 -0.246,-13.692 -0.427,-20.537c-1.772,-68.655 -1.772,-68.655 16.698,-92.482c19.232,-19.116 27.953,-22.339 55.707,-22.339Z" style="fill:#e8f0f2;fill-rule:nonzero;"/><path d="M5654.17,3858.33l70.833,0l0,112.5l-66.667,0l0,1108.33l-4.166,-0l-0,-1220.83Z" style="fill:#d8dcdf;fill-rule:nonzero;"/><path d="M5850,3961.46c12.5,1.042 12.5,1.042 20.833,9.375c1.087,11.2 1.087,11.2 1.145,25.61c0.039,5.381 0.079,10.762 0.12,16.307c-0.001,5.901 -0.005,11.802 -0.011,17.702c0.016,6.031 0.034,12.061 0.054,18.091c0.031,12.649 0.03,25.297 0.008,37.945c-0.025,16.216 0.046,32.431 0.143,48.647c0.061,12.457 0.065,24.914 0.052,37.371c0.002,5.979 0.024,11.958 0.066,17.937c0.051,8.358 0.015,16.717 -0.025,25.075c0.002,4.759 0.005,9.517 0.008,14.42c-1.56,11.729 -1.56,11.729 -7.239,19.662c-6.821,4.567 -6.821,4.567 -17.498,3.785c-10.156,-3.385 -10.156,-3.385 -18.489,-11.718c-1.059,-11.228 -1.059,-11.228 -1.079,-25.676c-0.026,-5.395 -0.052,-10.789 -0.079,-16.348c0.015,-5.914 0.032,-11.828 0.051,-17.742c-0.006,-6.04 -0.014,-12.081 -0.024,-18.121c-0.013,-12.666 0.005,-25.331 0.044,-37.997c0.048,-16.254 0.02,-32.506 -0.03,-48.76c-0.03,-12.475 -0.02,-24.949 0.002,-37.424c0.005,-5.994 -0.002,-11.988 -0.021,-17.982c-0.021,-8.369 0.017,-16.739 0.057,-25.108c0.007,-4.768 0.014,-9.536 0.02,-14.448c1.552,-16.458 5.593,-19.244 21.892,-20.603Z" style="fill:#161618;fill-rule:nonzero;"/><path d="M2545.83,3858.33l58.334,0l-0,112.5l-54.167,0l0,1004.17l-4.167,0l0,-1116.67Z" style="fill:#d5dcdf;fill-rule:nonzero;"/><path d="M2604.17,3362.5l-0,195.833l-58.334,0c-0.518,-20.158 -0.894,-40.312 -1.144,-60.475c-0.104,-6.846 -0.246,-13.692 -0.427,-20.537c-1.771,-68.632 -1.771,-68.632 16.622,-92.482c13.117,-12.866 24.135,-22.339 43.283,-22.339Z" style="fill:#eaf0f3;fill-rule:nonzero;"/><path d="M4842.22,3178.61c8.234,0.016 8.234,0.016 16.634,0.033c5.425,-0.011 10.85,-0.022 16.439,-0.033c15.637,0.529 30.137,2.2 45.54,4.72c-1.756,2.068 -3.512,4.136 -5.322,6.267c-14.857,18.422 -23.844,31.66 -23.844,56.233c2.75,6.875 5.5,13.75 8.333,20.834c185.625,2.062 185.625,2.062 375,4.166l0,4.167c-58.385,0.389 -116.769,0.682 -175.155,0.864c-27.109,0.087 -54.218,0.205 -81.327,0.393c-26.152,0.181 -52.303,0.281 -78.455,0.324c-9.988,0.031 -19.975,0.091 -29.963,0.181c-13.967,0.121 -27.931,0.138 -41.899,0.13c-4.148,0.06 -8.296,0.12 -12.57,0.182c-27.955,-0.168 -27.955,-0.168 -41.404,-9.744c-12.655,-19.317 -13.381,-40.775 -10.06,-63.163c10.156,-12.761 10.156,-12.761 20.833,-20.834c4.167,-4.166 4.167,-4.166 17.22,-4.72Z" style="fill:#eff8fb;fill-rule:nonzero;"/><path d="M3111.51,3178.35c6.989,0.04 6.989,0.04 14.12,0.081c7.295,0.105 7.295,0.105 14.738,0.212c7.367,0.056 7.367,0.056 14.884,0.114c12.14,0.098 24.278,0.235 36.418,0.407l-0,8.333c-6.088,4.639 -6.088,4.639 -14.063,9.635c-13.398,9.303 -20.268,15.395 -23.437,32.032c1.28,14.854 3.622,27.534 8.333,41.666l108.333,0l0,4.167c-26.32,0.635 -52.638,1.072 -78.964,1.373c-8.952,0.126 -17.905,0.296 -26.855,0.513c-12.878,0.304 -25.75,0.445 -38.631,0.555c-5.99,0.194 -5.99,0.194 -12.102,0.391c-27.161,0.014 -27.161,0.014 -38.118,-8.221c-13.221,-15.388 -17.465,-28.351 -18.692,-48.013c1.394,-14.703 7.982,-23.225 17.529,-34.098c14.36,-9.573 19.628,-9.318 36.507,-9.147Z" style="fill:#ebf5f8;fill-rule:nonzero;"/><path d="M2762.5,4608.33c6.797,4.827 6.797,4.827 12.5,12.5c1.617,11.1 1.617,11.1 1.66,24.333c0.016,4.772 0.032,9.544 0.049,14.461c-0.048,4.987 -0.097,9.974 -0.146,15.113c0.048,4.971 0.096,9.941 0.146,15.063c-0.016,4.778 -0.032,9.555 -0.049,14.478c-0.014,4.371 -0.028,8.743 -0.043,13.247c-1.825,13.136 -4.865,18.925 -14.117,28.305c-10.417,1.823 -10.417,1.823 -20.833,0c-6.798,-4.777 -6.798,-4.777 -12.5,-12.5c-1.618,-11.548 -1.618,-11.548 -1.66,-25.39c-0.017,-4.979 -0.033,-9.958 -0.049,-15.088c0.048,-5.205 0.096,-10.409 0.146,-15.772c-0.048,-5.204 -0.097,-10.409 -0.146,-15.771c0.016,-4.979 0.032,-9.958 0.049,-15.088c0.014,-4.568 0.028,-9.136 0.042,-13.843c1.618,-11.548 1.618,-11.548 7.32,-19.287c9.75,-6.828 16.005,-6.505 27.631,-4.761Z" style="fill:#1b1b1d;fill-rule:nonzero;"/><path d="M2754.43,4246.61c12.24,3.385 12.24,3.385 20.573,11.718c1.915,17.894 1.35,35.922 1.302,53.907c0.067,5.024 0.134,10.049 0.204,15.226c0.002,4.81 0.005,9.619 0.008,14.575c0.012,4.42 0.025,8.84 0.037,13.394c-1.551,11.232 -1.551,11.232 -7.098,18.923c-10.791,7.463 -19.244,6.431 -31.953,4.809c-13.531,-20.297 -9.699,-42.817 -9.635,-66.667c-0.068,-5.006 -0.135,-10.012 -0.204,-15.169c-0.003,-4.791 -0.005,-9.582 -0.008,-14.518c-0.012,-4.394 -0.025,-8.788 -0.038,-13.314c1.552,-11.166 1.552,-11.166 7.099,-18.994c6.953,-4.672 6.953,-4.672 19.713,-3.89Z" style="fill:#1d1c1e;fill-rule:nonzero;"/><path d="M2762.5,4433.33c6.797,4.916 6.797,4.916 12.5,12.5c1.617,10.401 1.617,10.401 1.66,22.657c0.016,4.415 0.032,8.83 0.049,13.378c-0.048,4.609 -0.097,9.217 -0.146,13.965c0.048,4.609 0.096,9.217 0.146,13.965c-0.016,4.415 -0.032,8.83 -0.049,13.379c-0.014,4.045 -0.028,8.089 -0.043,12.256c-1.617,10.4 -1.617,10.4 -7.32,17.969c-9.72,7.052 -15.91,6.689 -27.63,4.931c-6.798,-4.865 -6.798,-4.865 -12.5,-12.5c-1.618,-10.849 -1.618,-10.849 -1.66,-23.714c-0.017,-4.622 -0.033,-9.244 -0.049,-14.005c0.048,-4.826 0.096,-9.652 0.146,-14.624c-0.048,-4.842 -0.097,-9.684 -0.146,-14.673c0.016,-4.617 0.032,-9.233 0.049,-13.99c0.014,-4.24 0.028,-8.481 0.042,-12.85c0.534,-3.403 1.068,-6.805 1.618,-10.31c13.469,-8.98 17.714,-10.286 33.333,-8.334Z" style="fill:#212022;fill-rule:nonzero;"/><path d="M5852.08,4483.85c11.394,3.988 15.599,6.689 22.917,16.146c2.663,15.845 1.93,31.873 1.823,47.917c0.083,4.409 0.166,8.819 0.252,13.362c-0.002,4.227 -0.005,8.454 -0.008,12.81c0.008,3.869 0.015,7.739 0.023,11.726c-2.09,10.018 -2.09,10.018 -9.722,17.676c-12.698,6.806 -20.484,4.59 -34.035,0.676c-8.566,-17.133 -5.121,-39.243 -5.208,-58.073c-0.086,-4.627 -0.172,-9.255 -0.26,-14.022c-0.022,-4.434 -0.043,-8.868 -0.066,-13.436c-0.038,-4.071 -0.077,-8.142 -0.118,-12.336c1.486,-10.467 1.486,-10.467 7.17,-18.174c6.816,-4.793 6.816,-4.793 17.232,-4.272Z" style="fill:#1b1b1d;fill-rule:nonzero;"/><path d="M5854.43,4825.78c12.24,3.386 12.24,3.386 20.573,11.719c1.879,14.414 1.35,28.967 1.302,43.49c0.067,4.031 0.134,8.062 0.204,12.215c0.004,5.805 0.004,5.805 0.008,11.727c0.018,5.321 0.018,5.321 0.037,10.749c-1.894,11.382 -4.809,15.071 -14.051,21.819c-12.76,1.302 -12.76,1.302 -25,0c-12.444,-12.444 -9.552,-24.023 -9.676,-41.04c0.013,-4.246 0.027,-8.492 0.041,-12.866c-0.068,-4.23 -0.135,-8.46 -0.204,-12.818c-0.003,-4.057 -0.005,-8.115 -0.008,-12.296c-0.012,-3.722 -0.025,-7.444 -0.038,-11.278c1.552,-9.702 1.552,-9.702 7.099,-17.312c6.953,-4.89 6.953,-4.89 19.713,-4.109Z" style="fill:#19191a;fill-rule:nonzero;"/><path d="M5850,4657.29c12.5,1.041 12.5,1.041 20.833,9.375c1.079,9.993 1.079,9.993 1.107,22.395c0.011,4.448 0.022,8.895 0.033,13.477c-0.033,4.662 -0.065,9.324 -0.098,14.128c0.032,4.662 0.064,9.324 0.098,14.127c-0.011,4.448 -0.022,8.895 -0.033,13.477c-0.009,4.093 -0.019,8.185 -0.028,12.402c-1.079,9.994 -1.079,9.994 -9.412,18.327c-12.5,1.042 -12.5,1.042 -25,-0c-10.87,-10.87 -9.405,-15.606 -9.44,-30.729c-0.011,-4.447 -0.022,-8.895 -0.033,-13.477c0.049,-6.993 0.049,-6.993 0.098,-14.127c-0.032,-4.662 -0.064,-9.325 -0.098,-14.128c0.011,-4.447 0.022,-8.894 0.033,-13.477c0.009,-4.092 0.019,-8.185 0.028,-12.402c1.697,-15.729 6.531,-18.087 21.912,-19.368Z" style="fill:#1a191b;fill-rule:nonzero;"/><path d="M5837.5,4316.67c27.404,2.404 27.404,2.404 33.333,8.333c1.053,16.553 0.772,33.157 0.782,49.74c0.051,4.68 0.102,9.361 0.154,14.184c0.012,6.699 0.012,6.699 0.025,13.534c0.017,4.119 0.034,8.238 0.051,12.482c-1.012,10.06 -1.012,10.06 -9.345,18.393c-12.5,1.042 -12.5,1.042 -25,0c-10.87,-10.869 -9.405,-15.605 -9.44,-30.729c-0.011,-4.447 -0.022,-8.894 -0.033,-13.476c0.049,-6.994 0.049,-6.994 0.098,-14.128c-0.032,-4.662 -0.064,-9.324 -0.098,-14.128c0.011,-4.447 0.022,-8.894 0.033,-13.476c0.009,-4.093 0.019,-8.186 0.028,-12.403c1.079,-9.993 1.079,-9.993 9.412,-18.326Z" style="fill:#161618;fill-rule:nonzero;"/><path d="M5662.5,5041.67l62.5,-0l0,37.5l-66.667,-0c0,-29.167 0,-29.167 4.167,-37.5Z" style="fill:#dfe8ea;fill-rule:nonzero;"/><path d="M3608.33,3195.83c9.849,10.259 12.435,16.174 14.323,30.469c-2.324,19.59 -6.755,28.674 -18.489,44.531c-17.251,7.667 -35.996,2.772 -54.167,0c6.944,-6.944 13.889,-13.889 20.833,-20.833c2.321,-2.492 4.641,-4.984 7.032,-7.552c5.468,-4.948 5.468,-4.948 13.802,-4.948c0.429,-2.234 0.859,-4.469 1.302,-6.771c3.618,-12.5 9.349,-23.387 15.364,-34.896Z" style="fill:#cae0e9;fill-rule:nonzero;"/><path d="M5725,3362.5l0,45.833c-4.114,-0.048 -8.229,-0.096 -12.467,-0.146c-5.339,-0.038 -10.678,-0.075 -16.179,-0.114c-7.976,-0.073 -7.976,-0.073 -16.113,-0.147c-13.102,-0.558 -13.102,-0.558 -21.908,4.574c5.51,-23.693 14.348,-31.99 33.334,-45.833c11.286,-5.644 20.872,-4.438 33.333,-4.167Z" style="fill:#dfe3e7;fill-rule:nonzero;"/><path d="M2545.83,4975l4.167,0c1.375,23.375 2.75,46.75 4.167,70.833c16.5,-1.375 33,-2.75 50,-4.166l-0,37.5l-58.334,-0l0,-104.167Z" style="fill:#e6eaed;fill-rule:nonzero;"/></svg>