<?xml version="1.0" encoding="UTF-8" standalone="no"?><!DOCTYPE svg PUBLIC "-//W3C//DTD SVG 1.1//EN" "http://www.w3.org/Graphics/SVG/1.1/DTD/svg11.dtd"><svg width="100%" height="100%" viewBox="0 0 8534 8534" version="1.1" xmlns="http://www.w3.org/2000/svg" xmlns:xlink="http://www.w3.org/1999/xlink" xml:space="preserve" xmlns:serif="http://www.serif.com/" style="fill-rule:evenodd;clip-rule:evenodd;stroke-linejoin:round;stroke-miterlimit:2;"><path d="M5415.61,2940.67c3.5,-0.041 7.001,-0.081 10.608,-0.123c11.313,-0.103 22.625,-0.156 33.939,-0.186c3.839,-0.011 7.678,-0.022 11.633,-0.033c164.826,-0.051 164.826,-0.051 214.434,40.426c7.97,9.872 7.654,19.699 7.201,32.019c-1.757,8.056 -1.757,8.056 -11.132,17.952c-25.561,15.104 -25.561,15.104 -40.625,15.104l-0,387.5c15.125,4.125 30.25,8.25 45.833,12.5c13.113,4.625 26.091,9.342 39.063,14.323c27.262,10.278 54.566,19.509 82.503,27.816c14.193,4.456 27.768,9.937 41.504,15.625c15.728,6.244 31.645,11.881 47.607,17.497c2.902,1.022 5.804,2.045 8.793,3.098c28.606,10.021 57.319,19.644 86.259,28.656c3.846,1.201 7.692,2.401 11.654,3.638c7.851,2.445 15.707,4.876 23.568,7.292c21.723,6.811 42.266,14.632 62.933,24.16c12.53,5.422 25.371,8.879 38.564,12.322c19.273,5.04 35.688,11.472 53.385,20.573c0.134,106.077 0.215,212.153 0.261,318.23c0.002,6.084 0.002,6.084 0.005,12.292c0.13,299.814 -0.827,599.617 -2.349,899.426c-0.025,4.911 -0.05,9.821 -0.075,14.881c-0.636,125.335 -1.304,250.67 -2.008,376.005c-16.144,3.393 -32.291,6.776 -48.438,10.156c-4.56,0.959 -9.12,1.917 -13.818,2.905c-4.431,0.927 -8.862,1.853 -13.428,2.808c-4.058,0.851 -8.117,1.702 -12.299,2.579c-3.965,0.787 -7.931,1.574 -12.017,2.385c-4.37,0.868 -8.74,1.736 -13.243,2.63c-15.272,1.996 -23.292,-1.832 -37.197,-8.262c-4.788,-2.175 -9.576,-4.35 -14.51,-6.591c-4.949,-2.326 -9.899,-4.652 -14.998,-7.048c-4.869,-2.229 -9.738,-4.458 -14.754,-6.754c-37.463,-17.175 -37.463,-17.175 -55.585,-26.119c-3.928,-1.903 -7.857,-3.806 -11.904,-5.766c-3.396,-1.694 -6.793,-3.388 -10.292,-5.133c-23.452,-7.832 -46.83,-2.95 -70.47,2.071c-2.924,0.613 -5.849,1.225 -8.862,1.856c-9.731,2.046 -19.453,4.132 -29.175,6.219c-7,1.479 -14,2.955 -21.001,4.429c-15.054,3.174 -30.104,6.366 -45.152,9.572c-23.931,5.097 -47.87,10.155 -71.811,15.204c-4.051,0.855 -8.103,1.709 -12.277,2.59c-8.277,1.745 -16.555,3.491 -24.833,5.237c-12.661,2.671 -25.322,5.346 -37.983,8.022c-90.121,19.039 -180.325,37.674 -270.537,56.28c-28.863,5.954 -57.726,11.91 -86.588,17.872c-5.166,1.067 -5.166,1.067 -10.437,2.155c-60.947,12.594 -121.853,25.381 -182.748,38.229c-3.202,0.675 -6.405,1.351 -9.704,2.047c-3.174,0.67 -6.348,1.34 -9.619,2.03c-31.804,6.707 -63.618,13.364 -95.435,20.008c-5.377,1.123 -10.754,2.246 -16.294,3.403c-13.697,2.859 -27.395,5.718 -41.092,8.577c-27.052,5.645 -54.104,11.293 -81.156,16.943c-3.036,0.634 -6.072,1.268 -9.2,1.921c-44.771,9.351 -89.532,18.741 -134.289,28.157c-22.396,4.71 -44.792,9.419 -67.188,14.127c-4.068,0.855 -4.068,0.855 -8.218,1.728c-70.372,14.792 -140.762,29.463 -211.337,43.258c-31.158,6.115 -62.189,12.674 -93.205,19.467c-43.065,9.43 -86.217,18.357 -129.429,27.084c-89.2,18.027 -178.276,36.627 -267.325,55.383c-61.081,12.861 -122.182,25.604 -183.357,38.009c-4.158,0.843 -4.158,0.843 -8.399,1.703c-29.071,5.895 -58.147,11.765 -87.229,17.606c-47.904,9.65 -95.695,19.598 -143.294,30.671c-31.511,7.323 -63.183,13.679 -94.932,19.876c-21.823,4.288 -43.499,9.156 -65.169,14.161c-12.272,2.148 -12.272,2.148 -37.272,2.148l-0,150c-81.25,21.667 -81.25,21.667 -98.177,26.042c-2.689,0.719 -5.377,1.439 -8.147,2.181c-21.303,5.45 -39.104,9.438 -59.369,-0.598c-3.904,-2.65 -7.808,-5.299 -11.83,-8.029c-6.611,-4.415 -6.611,-4.415 -13.356,-8.919c-4.69,-3.211 -9.38,-6.423 -14.069,-9.635c-4.819,-3.24 -9.642,-6.474 -14.469,-9.701c-7.306,-4.885 -14.611,-9.773 -21.901,-14.681c-22.143,-14.896 -44.64,-29.192 -67.276,-43.327c-32.596,-20.356 -32.596,-20.356 -37.24,-25c0.29,-4.463 0.58,-8.926 0.879,-13.525c1.011,-18.281 1.208,-35.719 -5.045,-53.141c-15.604,-16.339 -33.153,-25.983 -52.995,-36.485c-13.275,-7.237 -25.903,-15.364 -38.619,-23.533c-9.969,-6.401 -20.011,-12.673 -30.066,-18.937c-13.37,-8.401 -26.473,-17.084 -39.453,-26.075c-3.124,-2.13 -6.248,-4.26 -9.467,-6.454c-5.864,-4.016 -11.683,-8.099 -17.444,-12.262c-24.311,-16.5 -44.665,-16.813 -73.089,-11.785c-2.858,0.811 -5.715,1.622 -8.659,2.458c-20.984,5.945 -33.423,2.582 -52.523,-8.024c-8.184,-5.11 -16.214,-10.374 -24.178,-15.822c-15.695,-10.594 -30.307,-19.149 -48.198,-25.464c-23.568,-9.528 -41.589,-20.727 -55.309,-42.617c-13.942,-49.417 -9.708,-103.507 -8.766,-154.336c0.316,-21.523 0.197,-43.045 0.132,-64.569c-0.054,-37.259 0.167,-74.507 0.577,-111.763c0.592,-53.873 0.772,-107.741 0.853,-161.617c0.144,-87.426 0.625,-174.847 1.317,-262.271c0.671,-84.884 1.172,-169.768 1.452,-254.655c0.018,-5.234 0.035,-10.468 0.053,-15.861c0.069,-21.038 0.137,-42.076 0.203,-63.113c0.507,-161.012 1.182,-322.023 2.335,-483.032c0.121,-16.914 0.234,-33.829 0.338,-50.744c0.12,-19.423 0.26,-38.846 0.418,-58.269c0.054,-7.053 0.101,-14.106 0.141,-21.16c0.056,-9.533 0.137,-19.065 0.224,-28.597c0.04,-5.312 0.079,-10.623 0.119,-16.095c0.604,-12.252 0.604,-12.252 4.77,-20.585c8.194,-1.895 8.194,-1.895 19.106,-3.109c6.123,-0.709 6.123,-0.709 12.37,-1.433c4.469,-0.478 8.939,-0.955 13.544,-1.448c6.923,-0.785 6.923,-0.785 13.986,-1.585c14.876,-1.678 29.758,-3.302 44.64,-4.925c9.75,-1.092 19.499,-2.188 29.248,-3.288c42.078,-4.723 84.172,-9.285 126.286,-13.672c34.308,-3.574 68.558,-7.52 102.799,-11.686c2.876,-0.347 5.752,-0.694 8.714,-1.051c32.391,-3.913 64.744,-8.013 97.048,-12.588c5.436,-0.769 10.873,-1.538 16.474,-2.33c10.229,-1.464 20.454,-2.953 30.676,-4.472c4.625,-0.666 9.25,-1.333 14.016,-2.02c3.99,-0.592 7.981,-1.184 12.093,-1.794c16.817,-1.616 33.773,-1.266 50.667,-1.266c-1.375,-132 -2.75,-264 -4.167,-400c-11,-4.125 -22,-8.25 -33.333,-12.5c-11.109,-12.497 -15.814,-21.278 -19.531,-37.5c3.66,-15.971 9.315,-21.849 22.103,-31.738c42.765,-24.818 98.416,-32.067 147.151,-32.015c3.823,-0.018 7.645,-0.036 11.584,-0.054c8.05,-0.024 16.1,-0.026 24.149,-0.008c12.041,0.013 24.078,-0.084 36.118,-0.19c157.577,-0.536 157.577,-0.536 214.624,40.307c12.066,14.024 14.461,21.92 13.802,40.365c-9.56,16.178 -20.813,24.99 -37.5,33.333c-5.5,1.375 -11,2.75 -16.667,4.167c-1.375,115.5 -2.75,231 -4.166,350c13.75,-2.75 27.5,-5.5 41.666,-8.333c13.73,-1.937 27.414,-3.752 41.179,-5.371c5.619,-0.676 5.619,-0.676 11.352,-1.366c7.849,-0.939 15.699,-1.87 23.55,-2.793c11.942,-1.408 23.88,-2.855 35.817,-4.305c7.677,-0.914 15.354,-1.825 23.031,-2.734c3.525,-0.43 7.05,-0.859 10.682,-1.302c5.05,-0.585 5.05,-0.585 10.202,-1.182c2.909,-0.345 5.818,-0.69 8.816,-1.046c14.534,-1.03 29.134,-0.735 43.705,-0.735l-0,-350c-11,-2.75 -22,-5.5 -33.334,-8.333c-13.014,-11.388 -16.143,-18.216 -19.531,-35.156c3.449,-17.87 8.782,-22.961 22.396,-34.18c101.538,-59.688 265.162,-38 374.414,-10.238c41.774,13.279 41.774,13.279 51.888,29.574c1.663,12.885 2.602,20.997 -0,33.333c-10.569,13.506 -21.293,23.224 -37.5,29.167l-12.5,-0l-0,295.833c43.312,-6.187 43.312,-6.187 87.5,-12.5c18.401,-2.424 36.786,-4.804 55.208,-7.031c4.26,-0.54 8.519,-1.08 12.907,-1.636c4.184,-0.507 8.368,-1.015 12.679,-1.538c3.611,-0.444 7.222,-0.888 10.942,-1.346c16.598,-1.267 33.284,-0.949 49.931,-0.949l-0,-341.666c-8.25,-1.375 -16.5,-2.75 -25,-4.167c-14.237,-10.757 -19.935,-18.362 -26.042,-35.156c1.095,-15.606 1.491,-17.794 11.979,-28.125c21.432,-16.01 46.681,-22.367 72.396,-28.386c2.987,-0.742 5.973,-1.483 9.05,-2.248c35.948,-7.845 72.034,-7.636 108.651,-7.629c11.054,-0.018 22.101,-0.17 33.153,-0.328c61.273,-0.399 155.19,1.367 204.338,43.164c7.308,8.708 7.308,8.708 9.652,23.031c-2.986,18.911 -7.934,24.325 -23.177,35.677c-9.625,2.75 -19.25,5.5 -29.167,8.333l-0,295.834c57.653,-8.206 57.653,-8.206 115.3,-16.455c7.275,-1.027 14.55,-2.053 21.826,-3.077c3.719,-0.539 7.438,-1.079 11.27,-1.635c3.634,-0.508 7.268,-1.015 11.013,-1.538c3.118,-0.445 6.236,-0.889 9.448,-1.346c13.107,-1.207 26.314,-0.949 39.476,-0.949l0,-350c-8.25,-2.75 -16.5,-5.5 -25,-8.334c-14.788,-11.252 -20.09,-17.052 -23.698,-35.416c3.037,-15.459 6.625,-21.589 19.434,-30.73c54.104,-30.08 113.161,-31.054 173.339,-30.773c11.327,0.044 22.65,-0 33.977,-0.053c155.749,-0.126 155.749,-0.126 208.163,44.661c5.452,6.478 5.452,6.478 7.275,18.457c-2.286,16.328 -6.731,22.405 -18.49,33.854c-21.551,12.5 -21.551,12.5 -33.333,12.5l-0,300c55.423,-3.319 55.423,-3.319 109.896,-10.677c20.899,-3.629 40.926,-6.327 62.184,-6.151c5.531,0.035 5.531,0.035 11.174,0.071c4.164,0.045 4.164,0.045 8.413,0.091c0.227,-44.733 0.276,-89.461 0.097,-134.194c-0.078,-20.772 -0.094,-41.54 0.031,-62.312c0.118,-20.048 0.074,-40.09 -0.082,-60.138c-0.031,-7.647 -0.003,-15.294 0.083,-22.94c2.388,-39.984 2.388,-39.984 -11.702,-75.231c-8.707,-5.734 -8.707,-5.734 -17.968,-8.805c-7.959,-3.047 -7.959,-3.047 -16.293,-15.547c-1.823,-9.896 -1.823,-9.896 0,-20.833c35.988,-44.455 103.441,-50.479 157.276,-50.993Z" style="fill:#131313;fill-rule:nonzero;"/><path d="M2466.67,3775c15.352,2.842 27.451,6.754 41.373,13.9c3.948,2.005 7.895,4.009 11.962,6.075c4.228,2.174 8.455,4.348 12.811,6.588c9.105,4.618 18.214,9.229 27.327,13.834c4.602,2.327 9.205,4.654 13.947,7.052c19.541,9.787 39.243,19.219 58.986,28.593c38.599,18.372 77.146,36.846 115.625,55.468c2.872,1.39 5.745,2.781 8.704,4.213c50.413,24.422 100.534,49.407 150.593,74.545c49.843,25.024 99.897,49.518 150.363,73.269c8.375,3.995 16.675,8.146 24.975,12.296l0,1816.67c-27.765,-15.425 -54.406,-31.216 -80.737,-48.801c-14.695,-9.754 -29.214,-18.93 -44.995,-26.834c-15.854,-8.238 -28.448,-15.529 -40.934,-28.532c-2.856,-15.054 -4.008,-27.213 -2.002,-42.304c1.264,-9.609 1.264,-9.609 -2.165,-24.362c-12.445,-12.056 -26.814,-20.37 -41.667,-29.167c-7.124,-4.599 -14.237,-9.216 -21.338,-13.851c-7.377,-4.681 -14.761,-9.352 -22.151,-14.014c-3.983,-2.524 -7.966,-5.049 -12.07,-7.65c-18.741,-11.873 -37.508,-23.705 -56.29,-35.514c-4.769,-3.001 -4.769,-3.001 -9.634,-6.062c-6.327,-3.981 -12.656,-7.958 -18.988,-11.931c-18.778,-11.83 -37.372,-23.903 -55.867,-36.173c-4.329,-2.863 -8.658,-5.727 -13.119,-8.676c-8.463,-5.61 -16.908,-11.248 -25.332,-16.917c-3.848,-2.549 -7.697,-5.098 -11.662,-7.724c-3.402,-2.279 -6.804,-4.557 -10.309,-6.904c-11.168,-6.747 -11.168,-6.747 -30.74,-9.584l0,54.167c-14.074,-5.63 -23.486,-9.412 -35.368,-17.53c-2.602,-1.759 -5.204,-3.518 -7.885,-5.33c-3.984,-2.735 -3.984,-2.735 -8.049,-5.526c-5.275,-3.591 -10.554,-7.177 -15.836,-10.758c-2.477,-1.761 -4.953,-3.522 -7.504,-5.336c-8.392,-5.757 -8.392,-5.757 -17.423,-8.753c-10.909,-4.545 -16.913,-8.529 -24.601,-17.601c-5.194,-22.461 -4.354,-44.928 -4.009,-67.834c-0.014,-7.117 -0.044,-14.233 -0.086,-21.349c-0.075,-19.575 0.059,-39.144 0.226,-58.719c0.144,-21.1 0.095,-42.2 0.07,-63.301c-0.018,-36.564 0.087,-73.127 0.274,-109.691c0.271,-52.865 0.358,-105.729 0.4,-158.595c0.073,-85.768 0.295,-171.535 0.61,-257.302c0.306,-83.322 0.542,-166.644 0.684,-249.967c0.008,-5.135 0.017,-10.269 0.026,-15.56c0.044,-25.758 0.086,-51.517 0.127,-77.275c0.346,-213.748 0.933,-427.494 1.678,-641.24Z" style="fill:#fefefe;fill-rule:nonzero;"/><path d="M5308.33,4725c0.468,4.544 0.468,4.544 0.944,9.18c6.243,47.736 24.821,91.821 61.556,124.153c44.601,31.767 86.641,39.751 141.032,31.543c34.941,-8.97 68.004,-30.512 88.135,-60.709c18.478,2.746 34.423,9.571 51.286,17.252c2.959,1.327 5.919,2.653 8.968,4.019c6.372,2.858 12.74,5.726 19.105,8.602c16.974,7.669 33.978,15.269 50.98,22.877c3.437,1.541 6.873,3.081 10.415,4.668c31.351,14.032 62.852,27.701 94.402,41.28c60.787,26.2 121.184,53.229 181.511,80.468c-12.401,8.268 -18.928,10.301 -33.223,13.024c-4.245,0.824 -8.491,1.648 -12.865,2.497c-4.616,0.867 -9.231,1.734 -13.987,2.627c-4.798,0.926 -9.597,1.852 -14.54,2.806c-10.301,1.987 -20.604,3.961 -30.91,5.925c-26.925,5.136 -53.832,10.367 -80.738,15.602c-5.274,1.025 -10.548,2.049 -15.982,3.105c-37.481,7.313 -74.82,15.053 -112.078,23.425c-64.744,14.536 -129.75,27.701 -194.791,40.829c-49.703,10.049 -99.295,20.514 -148.83,31.361c-25.353,5.549 -50.749,10.871 -76.171,16.091c-4.792,0.99 -9.583,1.979 -14.52,2.999c-28.779,5.933 -57.568,11.808 -86.365,17.652c-16.653,3.38 -33.305,6.768 -49.957,10.156c-12.251,2.488 -24.505,4.963 -36.759,7.438c-7.638,1.552 -15.275,3.105 -22.913,4.659c-3.476,0.698 -6.953,1.395 -10.534,2.115c-14.569,2.975 -28.748,6.19 -43.041,10.341c-16.001,4.494 -32.015,7.216 -48.411,9.728c-41.672,6.672 -82.914,15.089 -124.219,23.714c-10.658,2.211 -21.316,4.417 -31.975,6.624c-6.54,1.355 -13.08,2.714 -19.619,4.077c-32.865,6.843 -65.791,13.372 -98.729,19.851c-14.499,2.855 -28.993,5.727 -43.488,8.6c-7.627,1.509 -15.255,3.011 -22.884,4.509c-11.126,2.184 -22.248,4.39 -33.37,6.599c-3.386,0.66 -6.772,1.32 -10.26,2c-17.958,3.591 -34.787,8.329 -52.175,14.146c-9.462,1.861 -18.963,3.525 -28.483,5.062c-53.589,9.029 -106.779,20.222 -160.024,31.066c-15.317,3.119 -30.638,6.22 -45.96,9.315c-11.927,2.412 -23.851,4.834 -35.775,7.26c-5.65,1.148 -11.301,2.293 -16.953,3.434c-33.534,6.559 -33.534,6.559 -66.59,15.111c-14.694,4.28 -29.245,6.852 -44.343,9.351c-39.888,6.799 -79.485,14.865 -119.112,23.032c-13.104,2.701 -26.21,5.39 -39.316,8.076c-18.703,3.833 -37.405,7.671 -56.106,11.511c-43.979,9.026 -87.97,17.992 -131.961,26.954c-14.389,2.932 -28.777,5.868 -43.165,8.804c-39.974,8.15 -79.951,16.279 -119.975,24.179c-4.5,0.889 -4.5,0.889 -9.09,1.797c-13.205,2.61 -26.413,5.202 -39.628,7.761c-4.392,0.863 -8.785,1.727 -13.31,2.616c-3.674,0.712 -7.348,1.424 -11.133,2.158c-11.136,2.42 -11.136,2.42 -23.19,6.753c-11.969,3.903 -22.802,5.971 -35.257,7.593c-25.721,3.736 -51.122,8.554 -76.595,13.704c-6.053,1.223 -6.053,1.223 -12.229,2.471c-12.565,2.547 -25.128,5.106 -37.69,7.669c-16.691,3.405 -33.385,6.794 -50.081,10.173c-5.64,1.159 -5.64,1.159 -11.392,2.341c-3.577,0.724 -7.154,1.447 -10.838,2.193c-3.094,0.632 -6.188,1.263 -9.375,1.914c-14.617,2.538 -29.374,4.196 -44.095,6.036l-0,-83.334c12.447,-0.161 12.447,-0.161 25.146,-0.325c108.89,0.98 108.89,0.98 204.281,-44.727c6.351,-14.82 4.806,-23.08 -0.261,-38.281c-59.819,-53.456 -158.574,-45.292 -233.333,-45.833l0,-58.334c4.426,-1.466 8.852,-2.932 13.411,-4.443c38.193,-11.898 38.193,-11.898 68.62,-36.442c21.427,-21.712 54.484,-16.342 82.894,-16.797c44.989,-0.824 93.303,-7.515 130.908,-33.984c9.698,-14.547 10.429,-20.385 8.334,-37.5c-18.628,-28.788 -68.464,-37.843 -100,-45.834c-15.228,-3.115 -30.49,-5.854 -45.834,-8.333l0,-37.5c29.644,-5.979 59.298,-11.907 88.959,-17.802c10.081,-2.009 20.16,-4.03 30.237,-6.063c14.516,-2.926 29.039,-5.81 43.565,-8.687c4.476,-0.911 8.952,-1.823 13.564,-2.762c23.653,-4.641 45.404,-7.365 69.509,-6.353c0.263,2.632 0.526,5.264 0.797,7.976c6.805,49.709 30.333,100.777 70.427,132.194c43.595,30.755 88.636,38.687 141.276,30.664c32.383,-9.54 67.656,-28.742 86.686,-56.999c12.765,-13.492 25.388,-13.352 43.001,-14.356c6.383,-0.559 12.763,-1.144 19.141,-1.757c4.608,-0.439 4.608,-0.439 9.31,-0.887c29.281,-3.437 54.922,-14.048 79.362,-30.168c6.853,-13.706 7.994,-27.031 4.166,-41.667c-26.327,-27.447 -72.738,-34.321 -108.333,-41.666l0,-54.167c21.859,-4.095 43.722,-8.172 65.587,-12.232c7.424,-1.382 14.848,-2.768 22.27,-4.159c10.724,-2.009 21.451,-4 32.179,-5.989c3.27,-0.616 6.539,-1.233 9.908,-1.868c19.369,-3.569 38.602,-6.216 58.219,-8.006c8.053,-0.718 8.053,-0.718 16.004,-5.246c9.72,-0.168 19.446,-0.18 29.166,-0c0.946,5.156 1.891,10.312 2.865,15.625c11.653,51.194 34.539,96.906 78.125,127.865c41.218,24.702 84.6,30.78 132.047,20.296c28.915,-9.612 56.983,-24.085 73.422,-50.505c13.786,-13.403 26.936,-11.222 45.605,-12.044c32.037,-2.878 63.703,-14.246 88.77,-34.57c5.989,-11.978 5.757,-20.079 4.166,-33.334c-15.858,-15.767 -32.562,-21.783 -53.385,-28.125c-14.824,-4.64 -14.824,-4.64 -29.948,-9.375l0,-66.666c7.906,-1.118 15.813,-2.235 23.958,-3.386c23.353,-3.553 45.799,-8.708 68.62,-14.713c13.472,-3.179 26.648,-4.669 40.414,-5.86c8.883,-1.066 16.993,-3.061 25.602,-5.468c16.919,-4.596 32.261,-4.531 49.739,-3.907c1.064,4.238 1.064,4.238 2.149,8.562c16.748,64.322 39.493,112.028 98.405,146.663c36.546,17.778 80.136,17.039 119.043,7.764c30.687,-10.777 60.175,-26.448 77.36,-55.16c10.742,-11.664 21.188,-11.69 36.637,-14.079c45.159,-6.77 45.159,-6.77 81.966,-31.136c6.864,-10.995 7.819,-16.552 5.274,-29.28c-17.074,-19.429 -42.809,-25.467 -66.667,-33.334c-4.125,-1.375 -8.25,-2.75 -12.5,-4.166l0,-66.667c36.802,-8.661 73.669,-16.711 110.743,-24.124c8.394,-1.683 16.782,-3.391 25.17,-5.1c5.342,-1.071 10.683,-2.143 16.187,-3.247c7.207,-1.451 7.207,-1.451 14.56,-2.932c12.507,-2.097 12.507,-2.097 29.173,-2.097Z" style="fill:#fbfbfb;fill-rule:nonzero;"/><path d="M6050,3787.5l0,1208.33c-18.981,-3.796 -34.421,-9.609 -51.79,-17.578c-4.566,-2.061 -4.566,-2.061 -9.225,-4.164c-6.595,-2.979 -13.187,-5.968 -19.774,-8.964c-17.776,-8.084 -35.584,-16.096 -53.391,-24.111c-3.691,-1.663 -7.382,-3.326 -11.185,-5.04c-36.314,-16.333 -72.799,-32.264 -109.324,-48.119c-10.341,-4.492 -20.678,-8.995 -31.012,-13.503c-28.145,-12.273 -56.297,-24.515 -84.546,-36.545c-7.662,-3.313 -15.322,-6.628 -22.982,-9.944c-3.317,-1.378 -6.635,-2.756 -10.053,-4.175c-20.873,-9.135 -20.873,-9.135 -24.967,-19.087c-1.492,-14.257 5.74,-25.129 11.582,-37.936c5.164,-18.961 4.803,-38.002 4.826,-57.506c0.031,-5.54 0.031,-5.54 0.063,-11.191c0.064,-12.373 0.098,-24.746 0.134,-37.119c0.039,-8.87 0.081,-17.74 0.125,-26.61c0.112,-24.085 0.2,-48.171 0.283,-72.256c0.091,-25.169 0.205,-50.338 0.317,-75.507c0.208,-47.663 0.395,-95.326 0.575,-142.989c0.206,-54.262 0.434,-108.524 0.665,-162.786c0.474,-111.623 0.92,-223.246 1.346,-334.87c20.397,-3.449 40.796,-6.885 61.197,-10.309c6.916,-1.163 13.832,-2.329 20.747,-3.499c40.137,-6.788 80.218,-13.22 120.66,-17.963c4.079,-0.478 8.158,-0.957 12.361,-1.451c3.618,-0.423 7.235,-0.847 10.962,-1.283c36.596,-4.389 72.972,-10.313 109.375,-16.048c7.677,-1.205 15.354,-2.409 23.031,-3.613c5.409,-0.849 10.817,-1.698 16.39,-2.572c12.777,-1.595 12.777,-1.595 33.61,-1.595Z" style="fill:#dbdbdb;fill-rule:nonzero;"/><path d="M5308.33,3412.5c-1.375,5.5 -2.75,11 -4.166,16.667c-4.689,0.155 -9.378,0.311 -14.209,0.472c-78.767,1.306 -78.767,1.306 -148.291,32.861c-5.523,14.347 -5.523,14.347 -4.167,29.167c31.1,39.877 103.4,42.178 149.723,47.998c8.387,0.991 8.387,0.991 16.944,2.002l-0,37.5c-2.659,0.864 -5.318,1.729 -8.057,2.62c-10.603,3.953 -19.914,7.925 -29.443,14.046c-6.557,14.283 -6.557,14.283 -4.167,29.167c32.2,39.464 99.191,48.366 147.24,53.33c61.97,4.672 126.127,4.744 187.395,-6.195c3.571,-0.618 7.141,-1.237 10.819,-1.874c28.855,-5.87 58.554,-15.857 75.379,-41.094c-0.646,-12.923 -2.063,-18.806 -11.458,-27.865c-10.926,-6.681 -10.926,-6.681 -30.208,-13.802l-0,-79.167c7.39,1.719 30.71,7.142 34.993,8.138c15.432,4.486 29.828,10.211 44.682,16.291c23.408,9.249 47.294,17.175 71.106,25.311c5.411,1.858 10.822,3.717 16.232,5.576c27.176,9.328 54.387,18.534 81.685,27.497c19.464,6.413 38.363,13.602 57.291,21.435c21.212,8.116 43.07,14.336 64.844,20.752l-0,8.334c-28.705,6.138 -57.334,10.722 -86.458,14.323c-8.47,1.077 -16.939,2.157 -25.407,3.239c-6.398,0.812 -6.398,0.812 -12.925,1.641c-47.37,6.074 -94.677,12.58 -141.877,19.859c-26.56,4.093 -53.159,7.767 -79.817,11.166c-81.192,10.371 -162.052,22.009 -242.839,35.192c-68.309,11.137 -136.677,21.468 -205.469,29.163c-31.778,3.673 -63.167,8.047 -94.583,14.053c-31.483,5.833 -63.278,9.211 -95.098,12.656c-6.34,0.709 -6.34,0.709 -12.809,1.432c-3.739,0.401 -7.477,0.801 -11.329,1.214c-12.854,1.785 -12.854,1.785 -27.661,5.9c-20.157,5.202 -40.442,7.612 -61.091,10.025c-6.153,0.747 -6.153,0.747 -12.43,1.51c-8.728,1.06 -17.456,2.112 -26.185,3.156c-68.676,8.224 -137.134,17.01 -205.428,27.984c-18.112,2.907 -36.212,5.322 -54.427,7.487c-33.477,3.982 -66.729,9.235 -100.034,14.444c-33.034,5.139 -66.099,9.89 -99.252,14.192c-20.203,2.663 -40.317,5.69 -60.427,8.966c-45.496,7.383 -91.107,13.176 -136.864,18.67c-67.818,8.163 -135.419,16.824 -202.728,28.524c-26.026,4.481 -51.966,8.082 -78.218,10.858c-37.012,3.92 -73.729,9.254 -110.524,14.822c-117.641,17.741 -235.604,33.086 -353.554,48.605c-3.64,0.479 -7.279,0.958 -11.029,1.451c-17.734,2.333 -35.469,4.662 -53.205,6.98c-28.666,3.753 -57.322,7.535 -85.942,11.63c-4.211,0.599 -8.423,1.197 -12.762,1.814c-7.284,1.045 -14.564,2.113 -21.84,3.214c-63.753,9.148 -63.753,9.148 -91.753,-5.785c-3.625,-1.88 -7.251,-3.76 -10.986,-5.697c-3.626,-1.987 -7.251,-3.974 -10.987,-6.022c-3.786,-1.987 -7.573,-3.974 -11.474,-6.022c-9.239,-4.862 -18.43,-9.799 -27.588,-14.811l-0,-4.167c6.984,0.099 6.984,0.099 14.109,0.199c17.659,0.23 35.319,0.371 52.979,0.488c7.571,0.062 15.142,0.147 22.713,0.256c112.246,2.441 112.246,2.441 211.387,-42.495c8.174,-8.254 8.174,-8.254 9.489,-20.948c-1.274,-13.01 -1.274,-13.01 -10.937,-21.614c-14.538,-9.385 -14.538,-9.385 -41.407,-20.052l0,-233.334c51.563,-6.187 51.563,-6.187 104.167,-12.5c16.5,-2.75 33,-5.5 50,-8.333c30.742,-3.454 60.748,-4.705 91.667,-4.167l-0,12.5c-4.979,0.709 -9.958,1.418 -15.088,2.149c-60.735,6.855 -60.735,6.855 -109.912,39.518c-2.096,14.073 -2.452,21.621 6.022,33.301c15.14,11.899 31.139,16.246 49.446,21.647c3.457,1.082 6.913,2.164 10.474,3.28c19.673,6.009 38.615,10.316 59.058,12.605l-0,58.334c-8.274,2.984 -16.548,5.968 -24.821,8.951c-9.545,3.659 -9.545,3.659 -21.013,11.882c-2.781,14.052 -2.781,14.052 0,29.167c33.194,39.651 95.869,48.23 145.248,53.239c27.686,1.962 55.394,2.159 83.138,2.229c2.904,0.016 5.809,0.031 8.802,0.047c63.368,0.174 144.87,-0.286 196.146,-43.015c5.989,-11.978 5.757,-20.079 4.166,-33.334c-13.862,-14.27 -27.586,-20.043 -45.833,-29.166l-0,-233.334c23.994,-5.332 44.689,-9.593 68.685,-11.735c2.764,-0.255 5.529,-0.511 8.377,-0.775c8.686,-0.8 17.374,-1.569 26.063,-2.333c8.748,-0.784 17.495,-1.575 26.241,-2.379c7.89,-0.722 15.782,-1.423 23.674,-2.123c11.726,-1.28 22.927,-3.261 34.46,-5.655c7.374,-0.269 14.757,-0.358 22.135,-0.26c5.519,0.056 5.519,0.056 11.15,0.114c4.149,0.072 4.149,0.072 8.382,0.146l-0,12.5c-4.281,0.409 -8.562,0.817 -12.972,1.237c-60.44,5.672 -60.44,5.672 -113.07,33.659c-8.34,10.524 -8.34,10.524 -8.073,23.698c6.625,16.387 14.802,20.077 29.948,28.906c33.672,12.34 68.85,19.273 104.167,25l-0,54.167c-5.243,1.719 -10.485,3.438 -15.886,5.208c-10.77,4.106 -17.294,7.157 -26.041,14.844c-5.834,13.612 -4.846,20.214 0.26,34.115c20.13,16.607 38.261,25.308 63.281,32.031c2.828,0.83 5.656,1.66 8.57,2.515c47.484,13.397 94.045,17.02 143.253,16.756c2.929,-0.008 5.858,-0.015 8.876,-0.023c105.266,0.124 105.266,0.124 198.155,-42.832c8.019,-8.29 8.019,-8.29 9.636,-20.947c-1.461,-13.568 -1.461,-13.568 -14.063,-21.875c-9.981,-5.375 -20.068,-10.555 -30.208,-15.625l-0,-229.167c49.5,-6.187 49.5,-6.187 100,-12.5c34.93,-5.037 34.93,-5.037 69.84,-10.205c12.947,-1.834 25.387,-2.856 38.493,-2.295l0,16.667c-4.93,0.456 -9.861,0.913 -14.941,1.383c-67.194,3.537 -67.194,3.537 -122.559,36.117c-2.778,12.678 -2.778,12.678 0,25c25.885,31.488 81.258,40.639 119.532,44.531c5.929,0.43 11.859,0.859 17.968,1.302l0,50c-9.63,5.29 -19.26,10.579 -28.89,15.869c-8.289,4.284 -8.289,4.284 -12.776,9.131c-1.74,11.974 -1.74,11.974 -0,25c16.948,20.5 37.889,25.551 62.5,33.333c4.785,1.52 9.571,3.04 14.502,4.606c99.721,30.124 229.325,30.301 326.123,-11.36c10.346,-6.341 15.579,-12.101 21.875,-22.412c2.777,-10.417 2.777,-10.417 -0,-20.834c-13.307,-13.306 -23.793,-17.85 -41.667,-25l-0,-225c66.667,-8.073 66.667,-8.073 87.5,-10.594c5.556,-0.673 11.111,-1.346 16.667,-2.02c2.798,-0.338 5.596,-0.677 8.479,-1.025c16.922,-2.048 16.922,-2.048 33.83,-4.197c16.612,-2.157 32.597,-3.416 49.357,-2.997Z" style="fill:#faf9f9;fill-rule:nonzero;"/><path d="M3946.63,4091.6c5.629,0.015 5.629,0.015 11.372,0.031c2.86,0.013 5.721,0.026 8.669,0.04c0.19,122.58 0.337,245.16 0.425,367.74c0.011,14.478 0.021,28.956 0.032,43.433c0.003,2.882 0.005,5.765 0.007,8.734c0.036,46.644 0.102,93.289 0.179,139.933c0.078,47.875 0.123,95.75 0.141,143.625c0.011,26.885 0.036,53.769 0.097,80.654c0.056,25.308 0.074,50.615 0.061,75.922c0.003,9.285 0.019,18.571 0.051,27.856c0.042,12.688 0.032,25.374 0.009,38.062c0.024,3.665 0.048,7.329 0.073,11.104c-0.227,47.012 -15.358,93.718 -47.43,129.082c-31.967,29.244 -72.455,43.806 -115.039,43.344c-42.911,-3.645 -76.839,-25.368 -106.054,-55.844c-28.289,-34.549 -37.367,-76.773 -37.22,-120.091c-0.004,-3.809 -0.007,-7.617 -0.011,-11.541c-0.007,-12.789 0.016,-25.578 0.039,-38.367c0.001,-9.156 0,-18.313 -0.002,-27.47c-0.001,-24.886 0.023,-49.772 0.053,-74.659c0.026,-25.997 0.028,-51.994 0.033,-77.992c0.011,-43.644 0.037,-87.288 0.075,-130.932c0.038,-44.953 0.067,-89.906 0.085,-134.859c0.001,-2.771 0.002,-5.542 0.003,-8.397c0.006,-13.902 0.011,-27.803 0.016,-41.705c0.044,-115.322 0.117,-230.644 0.21,-345.966c20.208,-3.383 40.416,-6.762 60.625,-10.137c6.845,-1.144 13.689,-2.289 20.534,-3.435c168.944,-28.285 168.944,-28.285 202.967,-28.165Z" style="fill:#fdfdfd;fill-rule:nonzero;"/><path d="M4541.67,4004.17c0.38,118.509 0.675,237.019 0.851,355.53c0.021,14.012 0.042,28.025 0.064,42.037c0.005,2.79 0.009,5.579 0.013,8.453c0.073,45.082 0.204,90.162 0.358,135.243c0.156,46.307 0.247,92.614 0.282,138.922c0.021,25.989 0.072,51.977 0.194,77.966c0.113,24.491 0.148,48.98 0.123,73.471c0.004,8.96 0.037,17.921 0.101,26.881c0.454,66.604 -2.859,130.388 -50.57,182.366c-34.783,31.771 -71.783,40.309 -117.709,39.437c-44.095,-2.043 -72.56,-25.869 -101.416,-57.129c-38.221,-55.967 -38.248,-115.821 -37.877,-181.157c0.003,-8.751 0.001,-17.502 -0.006,-26.253c-0.003,-23.628 0.07,-47.255 0.158,-70.882c0.078,-24.741 0.085,-49.481 0.1,-74.222c0.039,-46.791 0.141,-93.583 0.267,-140.375c0.14,-53.295 0.208,-106.59 0.271,-159.885c0.13,-109.579 0.35,-219.158 0.629,-328.737c3.11,-0.268 6.219,-0.537 9.423,-0.814c4.1,-0.362 8.199,-0.724 12.422,-1.097c4.055,-0.354 8.11,-0.709 12.288,-1.075c15.22,-1.536 29.921,-4.143 44.952,-7.007c39.179,-7.229 78.552,-12.476 118.05,-17.611c10.351,-1.352 20.7,-2.709 31.048,-4.077c6.357,-0.84 12.715,-1.671 19.074,-2.491c11.119,-1.465 22.04,-2.939 32.922,-5.694c7.321,-1.8 7.321,-1.8 23.988,-1.8Z" style="fill:#fcfcfc;fill-rule:nonzero;"/><path d="M6054.17,3662.5l-0,100c-12.805,1.805 -25.61,3.609 -38.802,5.469c-29.909,4.239 -59.763,8.725 -89.584,13.541c-28.392,4.565 -56.798,8.394 -85.351,11.833c-26.285,3.259 -52.494,7.072 -78.711,10.824c-4.85,0.692 -9.7,1.385 -14.696,2.098c-43.829,6.299 -87.614,12.655 -131.138,20.818c-23.199,4.212 -46.324,7.535 -69.791,9.896c-39.054,3.95 -77.838,9.664 -116.667,15.365c-3.208,0.467 -6.417,0.933 -9.723,1.414c-9.212,1.344 -18.422,2.704 -27.63,4.071c-8.089,1.197 -8.089,1.197 -16.341,2.418c-13.275,1.914 -13.275,1.914 -25.733,6.42c-11.192,1.344 -22.363,2.549 -33.577,3.662c-35.925,3.78 -71.404,9.211 -107.005,15.268c-47.387,8.043 -94.702,15.644 -142.491,20.913c-36.715,4.057 -72.979,9.58 -109.375,15.886c-55.835,9.672 -111.818,17.315 -168.045,24.322c-34.039,4.281 -67.779,9.29 -101.531,15.45c-27.994,5.07 -56.103,8.777 -84.33,12.311c-44.25,5.702 -88.277,12.238 -132.292,19.531c-43.244,7.166 -86.46,13.543 -130.011,18.54c-22.914,2.662 -45.44,6.279 -68.109,10.545c-14.831,2.632 -29.604,4.247 -44.588,5.811c-23.65,2.596 -46.936,6.009 -70.313,10.417c-28.622,5.354 -57.266,8.989 -86.198,12.239c-38.605,4.384 -76.817,10.067 -115.104,16.667c-53.404,9.197 -106.914,16.932 -160.608,24.222c-37.854,5.148 -75.618,10.674 -113.35,16.664c-33.73,5.343 -67.357,9.66 -101.349,12.902c-20.783,2.055 -41.151,5.116 -61.672,8.973c-31.994,6.005 -64.08,10.132 -96.396,14.001c-39.564,4.781 -78.979,10.461 -118.388,16.385c-4.671,0.688 -9.342,1.376 -14.155,2.084c-4.12,0.619 -8.24,1.238 -12.485,1.875c-11.961,1.332 -11.961,1.332 -36.961,1.332l-0,-116.667c13.47,-1.442 13.47,-1.442 27.213,-2.913c60.863,-6.618 121.474,-13.738 181.901,-23.65c56.182,-9.181 112.509,-16.515 169.011,-23.437c60.476,-7.416 120.911,-14.971 181.25,-23.438c3.039,-0.426 6.078,-0.852 9.21,-1.291c45.613,-6.412 91.204,-12.98 136.795,-19.546c28.301,-4.056 56.622,-7.857 84.984,-11.454c43.145,-5.492 86.147,-11.85 129.167,-18.229c66.507,-9.862 133.09,-19.015 199.74,-27.865c78.864,-10.48 157.58,-21.732 236.245,-33.612c57.186,-8.629 114.421,-16.809 171.73,-24.577c29.035,-3.95 57.947,-8.294 86.831,-13.229c14.988,-2.414 29.926,-3.943 45.037,-5.405c30.504,-3.141 60.641,-7.723 90.886,-12.76c40.986,-6.802 81.975,-12.054 123.266,-16.608c51.591,-5.74 103.159,-12.481 153.967,-23.27c56.587,-11.297 114.469,-17.105 171.657,-24.531c12.367,-1.608 24.732,-3.234 37.096,-4.862c3.716,-0.478 7.433,-0.955 11.262,-1.448c21.615,-2.859 42.864,-6.593 64.215,-11.007c11.749,-2.342 23.505,-3.995 35.395,-5.449c4.773,-0.596 9.545,-1.193 14.462,-1.807c5.116,-0.628 10.232,-1.257 15.503,-1.904c11.454,-1.434 22.907,-2.886 34.358,-4.345c3.046,-0.388 6.091,-0.776 9.228,-1.176c40.466,-5.198 80.858,-10.929 121.257,-16.614c51.446,-7.236 102.889,-14.409 154.428,-20.953c23.882,-3.051 47.618,-6.586 71.337,-10.737c14.927,-1.759 30.039,-1.383 45.069,-1.383Z" style="fill:#dedede;fill-rule:nonzero;"/><path d="M5091.67,3925c0.487,119.669 0.854,239.338 1.079,359.009c0.107,55.567 0.254,111.135 0.492,166.702c0.208,48.446 0.342,96.891 0.389,145.337c0.027,25.64 0.09,51.279 0.242,76.919c0.142,24.162 0.185,48.322 0.154,72.485c0.006,8.84 0.047,17.679 0.127,26.519c0.6,69.558 -8.086,124.69 -56.65,178.029c-10.489,8.799 -20.97,15.031 -33.333,20.833c-4.899,2.493 -9.797,4.985 -14.844,7.552c-35.177,11.887 -74.342,10.1 -107.813,-5.468c-37.625,-21.645 -61.795,-49.036 -77.343,-89.584c-1.552,-3.612 -1.552,-3.612 -3.135,-7.297c-14.189,-38.4 -11.015,-79.124 -10.784,-119.422c0.003,-8.627 0.001,-17.253 -0.006,-25.88c-0.004,-23.327 0.07,-46.653 0.157,-69.98c0.079,-24.412 0.086,-48.825 0.101,-73.237c0.038,-46.187 0.141,-92.374 0.266,-138.561c0.14,-52.6 0.209,-105.199 0.272,-157.799c0.13,-108.164 0.35,-216.327 0.629,-324.49c17.182,-2.656 34.365,-5.306 51.548,-7.956c4.816,-0.745 9.632,-1.489 14.594,-2.256c43.421,-6.692 86.899,-12.919 130.411,-18.989c9.299,-1.299 18.596,-2.61 27.893,-3.921c5.333,-0.745 10.666,-1.49 16.16,-2.257c12.79,-1.725 12.79,-1.725 21.928,-4.478c12.447,-2.715 24.769,-1.912 37.466,-1.81Z" style="fill:#fcfcfc;fill-rule:nonzero;"/><path d="M6050,5029.17l0,104.166c-9.174,1.816 -18.348,3.631 -27.799,5.502c-68.045,13.497 -135.99,27.336 -203.793,42.008c-36.66,7.926 -73.368,15.618 -110.075,23.324c-46.204,9.702 -92.39,19.477 -138.541,29.427c-95.758,20.599 -191.778,39.949 -287.748,59.527c-26.3,5.366 -52.599,10.733 -78.897,16.101c-19.094,3.897 -38.188,7.793 -57.283,11.683c-60.521,12.329 -120.975,24.861 -181.281,38.21c-62.129,13.725 -124.409,26.703 -186.718,39.583c-5.125,1.059 -10.25,2.119 -15.53,3.21c-75.35,15.563 -150.744,30.904 -226.153,46.179c-5.237,1.061 -10.474,2.122 -15.87,3.215c-5.24,1.062 -10.48,2.123 -15.88,3.217c-61.206,12.408 -122.328,25.041 -183.286,38.62c-52.516,11.649 -105.188,22.527 -157.865,33.424c-4.739,0.98 -9.478,1.96 -14.36,2.97c-19.068,3.944 -38.136,7.887 -57.204,11.829c-56.581,11.701 -113.129,23.556 -169.677,35.413c-10.107,2.119 -20.215,4.234 -30.323,6.35c-14.253,2.983 -28.503,5.981 -42.752,8.986c-50.705,10.664 -101.483,20.941 -152.302,31.05c-3.281,0.653 -6.562,1.306 -9.943,1.979c-30.624,6.094 -61.249,12.182 -91.878,18.249c-79.329,15.718 -158.483,31.866 -237.346,49.807c-18.885,4.27 -37.799,8.404 -56.715,12.533c-3.12,0.697 -6.24,1.393 -9.454,2.111c-17.4,3.72 -31.509,4.66 -49.66,4.66l-0,-108.333c87.082,-19.255 174.274,-37.842 261.648,-55.725c15.313,-3.136 30.624,-6.281 45.935,-9.424c27.644,-5.674 55.289,-11.338 82.935,-16.998c19.428,-3.977 38.855,-7.958 58.281,-11.943c23.913,-4.905 47.827,-9.805 71.742,-14.698c8.591,-1.758 17.182,-3.517 25.772,-5.278c75.498,-15.465 75.498,-15.465 110.473,-21.66c18.275,-3.282 36.469,-6.97 54.672,-10.628c4.364,-0.877 8.727,-1.753 13.223,-2.656c15.386,-3.097 30.77,-6.208 46.152,-9.324c2.994,-0.606 5.988,-1.212 9.072,-1.836c71.656,-14.509 143.27,-29.113 214.626,-45.039c60.759,-13.492 121.766,-25.648 182.812,-37.76c107.927,-21.416 215.701,-43.536 323.438,-65.885c7.903,-1.64 15.807,-3.279 23.71,-4.918c15.584,-3.232 31.167,-6.464 46.75,-9.696c3.786,-0.785 7.571,-1.57 11.471,-2.379c7.563,-1.568 15.125,-3.137 22.688,-4.705c92.598,-19.207 185.243,-38.187 277.933,-56.948c8.028,-1.627 8.028,-1.627 16.219,-3.286c39.345,-7.958 78.706,-15.804 118.14,-23.309c53.307,-10.161 106.448,-20.689 159.424,-32.471c72.375,-15.984 144.923,-31.12 217.499,-46.16c17.958,-3.721 35.913,-7.455 53.868,-11.191c14.094,-2.932 28.189,-5.858 42.285,-8.783c6.626,-1.375 13.252,-2.752 19.877,-4.131c32.208,-6.699 64.414,-13.265 96.806,-19.021c10.968,-1.962 21.879,-4.145 32.783,-6.433c3.963,-0.829 7.926,-1.658 12.009,-2.512c4.072,-0.858 8.144,-1.715 12.34,-2.599c6.443,-1.347 6.443,-1.347 13.016,-2.721c20.916,-4.378 41.822,-8.798 62.716,-13.279c3.626,-0.774 7.251,-1.548 10.987,-2.345c6.789,-1.452 13.577,-2.915 20.361,-4.391c12.474,-2.666 23.873,-4.868 36.67,-4.868Z" style="fill:#dddddc;fill-rule:nonzero;"/><path d="M5616.67,3850c0.487,117.025 0.854,234.05 1.079,351.075c0.107,54.34 0.254,108.679 0.492,163.018c0.208,47.373 0.342,94.745 0.389,142.119c0.027,25.074 0.09,50.147 0.242,75.22c0.142,23.625 0.185,47.249 0.154,70.875c0.006,8.646 0.047,17.293 0.127,25.939c0.505,57.217 -3.351,105.497 -40.813,151.962c-28.825,28.012 -64.618,41.772 -104.379,42.188c-41.354,-0.689 -70.023,-11.141 -100.016,-39.746c-46.858,-49.269 -47.171,-106.93 -46.667,-171.285c0.004,-8.464 0.002,-16.928 -0.008,-25.392c-0.005,-22.844 0.093,-45.687 0.21,-68.532c0.104,-23.923 0.114,-47.846 0.134,-71.769c0.051,-45.242 0.188,-90.484 0.355,-135.726c0.187,-51.532 0.278,-103.064 0.362,-154.596c0.174,-105.95 0.467,-211.9 0.839,-317.85c2.959,-0.335 5.918,-0.67 8.967,-1.015c13.593,-1.551 27.183,-3.132 40.772,-4.714c4.654,-0.527 9.308,-1.053 14.103,-1.595c26.44,-3.102 51.943,-7.283 77.824,-13.509c7.242,-1.242 14.5,-2.397 21.778,-3.402c3.695,-0.518 7.39,-1.037 11.198,-1.571c3.727,-0.507 7.455,-1.015 11.295,-1.538c3.76,-0.523 7.52,-1.047 11.393,-1.587c7.314,-1.018 14.628,-2.025 21.945,-3.021c8.465,-1.182 16.912,-2.497 25.354,-3.839c14.429,-1.799 28.344,-1.822 42.871,-1.709Z" style="fill:#fdfdfd;fill-rule:nonzero;"/><path d="M3637.5,4137.5l0,883.333c-32.791,9.369 -32.791,9.369 -49.756,12.207c-3.763,0.641 -7.525,1.281 -11.402,1.941c-3.966,0.66 -7.933,1.319 -12.019,1.998c-8.508,1.439 -17.015,2.883 -25.521,4.33c-4.334,0.737 -8.669,1.474 -13.135,2.233c-13.002,2.263 -25.977,4.643 -38.948,7.076c-4.111,0.769 -8.223,1.538 -12.459,2.33c-7.835,1.473 -15.667,2.963 -23.496,4.472c-3.566,0.667 -7.132,1.333 -10.806,2.02c-4.65,0.888 -4.65,0.888 -9.393,1.795c-11.488,1.493 -23.147,1.265 -34.732,1.265l0,-891.667c37.496,-9.373 37.496,-9.373 51.388,-11.125c3.114,-0.403 6.227,-0.806 9.435,-1.222c3.239,-0.399 6.478,-0.799 9.815,-1.211c3.428,-0.44 6.856,-0.881 10.387,-1.335c10.837,-1.391 21.677,-2.756 32.517,-4.117c10.899,-1.38 21.798,-2.765 32.695,-4.162c6.751,-0.864 13.503,-1.718 20.256,-2.56c16.393,-1.9 16.393,-1.9 32.418,-5.658c13.973,-2.881 28.489,-1.943 42.756,-1.943Z" style="fill:#fefefe;fill-rule:nonzero;"/><path d="M3062.5,3279.17c17.875,2.75 35.75,5.5 54.167,8.333c14.778,0.714 29.205,1.176 43.961,1.107c3.927,0.008 7.854,0.016 11.9,0.024c8.224,0.006 16.448,-0.009 24.672,-0.045c12.368,-0.044 24.734,0 37.102,0.053c8.081,-0.005 16.162,-0.016 24.243,-0.032c3.587,0.017 7.175,0.034 10.871,0.051c34.748,-0.255 66.129,-5.08 101.417,-9.491l0,670.833c-43.989,12.568 -85.295,18.199 -130.989,17.969c-4.662,-0.012 -9.323,-0.023 -14.126,-0.035c-55.827,-0.689 -109.137,-8.58 -163.218,-22.101l0,-666.666Z" style="fill:#fefefd;fill-rule:nonzero;"/><path d="M4216.67,4054.17l-0,858.333c-214.286,41.667 -214.286,41.667 -229.167,41.667l0,-870.834c41.25,-5.5 82.5,-11 125,-16.666c26.46,-4.919 26.46,-4.919 52.816,-10.352c13.851,-2.148 13.851,-2.148 51.351,-2.148Z" style="fill:#fbfbfb;fill-rule:nonzero;"/><path d="M3216.67,4058.33l-0,1812.5c-91.667,20.834 -91.667,20.834 -108.334,20.834l0,-1816.67c100,-16.667 100,-16.667 108.334,-16.667Z" style="fill:#dfdfdf;fill-rule:nonzero;"/><path d="M3662.5,3254.17c17.875,2.75 35.75,5.5 54.167,8.333c14.826,0.715 29.303,1.176 44.108,1.107c5.905,0.012 5.905,0.012 11.93,0.024c8.241,0.006 16.482,-0.009 24.723,-0.045c12.414,-0.044 24.826,0 37.24,0.053c8.095,-0.005 16.189,-0.016 24.284,-0.032c5.413,0.025 5.413,0.025 10.936,0.051c33.314,-0.245 62.906,-4.975 96.779,-9.491l-0,620.833c-101.783,23.488 -203.295,24.654 -304.167,-4.167l0,-616.666Z" style="fill:#fdfdfd;fill-rule:nonzero;"/><path d="M4237.5,3187.5c25,4.167 25,4.167 37.102,6.36c34.963,5.992 68.877,7.397 104.304,7.182c5.148,0.032 10.297,0.064 15.601,0.097c48.411,-0.098 94.205,-5.037 142.993,-9.472l0,604.166c-48.844,8.141 -91.879,14.639 -140.625,14.359c-9.379,-0.036 -18.747,0.085 -28.125,0.217c-47.732,-0.021 -82.713,-7.956 -131.25,-18.742l0,-604.167Z" style="fill:#fcfcfc;fill-rule:nonzero;"/><path d="M4795.83,3112.5c19.25,2.75 38.5,5.5 58.334,8.333c66.129,7.035 135.545,9.552 201.22,-2.343c11.28,-1.823 11.28,-1.823 32.113,-1.823l0,604.166c-46.48,10.329 -89.44,13.381 -136.702,13.501c-9.545,0.041 -19.086,0.17 -28.63,0.301c-89.139,0.63 -89.139,0.63 -126.335,-17.968l0,-604.167Z" style="fill:#fdfdfd;fill-rule:nonzero;"/><path d="M4770.83,3970.83l0,837.5c-183.333,33.334 -183.333,33.334 -208.333,33.334l0,-841.667c43.313,-6.188 43.313,-6.188 87.5,-12.5c24.343,-3.725 48.674,-7.504 72.998,-11.353c4.453,-0.695 8.905,-1.391 13.493,-2.107c5.874,-0.928 5.874,-0.928 11.867,-1.875c9.975,-1.332 9.975,-1.332 22.475,-1.332Z" style="fill:#fcfcfc;fill-rule:nonzero;"/><path d="M5329.17,3054.17c16.5,1.375 33,2.75 50,4.166c15.448,0.363 30.812,0.587 46.256,0.554c4.177,0.004 8.354,0.008 12.658,0.012c8.746,0.003 17.492,-0.005 26.238,-0.022c13.283,-0.023 26.565,-0.001 39.848,0.026c8.561,-0.003 17.122,-0.008 25.683,-0.016c5.868,0.012 5.868,0.012 11.854,0.025c5.634,-0.019 5.634,-0.019 11.382,-0.04c4.854,-0.004 4.854,-0.004 9.805,-0.01c18.001,-0.786 35.865,-2.78 53.776,-4.695c0.097,77.071 0.17,154.143 0.216,231.215c0.021,35.783 0.05,71.567 0.098,107.35c0.041,31.177 0.068,62.354 0.078,93.531c0.005,16.519 0.018,33.037 0.048,49.556c0.028,15.529 0.037,31.059 0.031,46.589c0.001,5.716 0.009,11.432 0.025,17.148c0.021,7.772 0.014,15.543 0.005,23.314c0.004,4.36 0.007,8.719 0.011,13.21c-0.512,9.753 -0.512,9.753 -4.679,13.92c-38.246,8.573 -76.381,9.646 -115.346,9.42c-9.095,-0.045 -18.186,-0 -27.281,0.053c-48.105,0.051 -94.747,-2.487 -140.706,-17.806l-0,-587.5Z" style="fill:#fefefd;fill-rule:nonzero;"/><path d="M5304.17,3895.83l-0,808.334c-179.167,33.333 -179.167,33.333 -191.667,33.333l0,-816.667c31.625,-4.125 63.25,-8.25 95.833,-12.5c11,-2.75 22,-5.5 33.334,-8.333c6.397,-1.043 12.821,-1.952 19.271,-2.604c4.334,-0.467 4.334,-0.467 8.756,-0.944c11.468,-0.749 22.98,-0.619 34.473,-0.619Z" style="fill:#fdfdfd;fill-rule:nonzero;"/><path d="M3370.83,4175c0.381,123.358 0.676,246.716 0.851,370.074c0.021,14.582 0.043,29.163 0.065,43.744c0.004,2.903 0.009,5.806 0.013,8.797c0.073,46.929 0.204,93.858 0.357,140.788c0.156,48.195 0.247,96.39 0.282,144.585c0.022,27.054 0.073,54.106 0.195,81.159c0.113,25.486 0.147,50.97 0.122,76.456c0.005,9.332 0.038,18.664 0.102,27.996c0.406,62.106 -0.772,119.459 -43.653,168.901c-24.251,22.676 -53.33,45.833 -87.5,45.833l-0,-1091.67c112.5,-16.667 112.5,-16.667 129.166,-16.667Z" style="fill:#dedede;fill-rule:nonzero;"/><path d="M6162.5,3641.67c0.138,79.514 0.216,159.027 0.26,238.541c0.002,3.142 0.004,6.284 0.006,9.522c0.163,290.879 -1.022,581.752 -2.312,872.627c-0.037,8.502 -0.075,17.004 -0.113,25.505c-0.645,145.713 -1.315,291.426 -2.008,437.138c-10.76,2.102 -21.524,4.182 -32.291,6.25c-3.04,0.596 -6.08,1.192 -9.213,1.807c-14.302,2.73 -27.211,4.443 -41.829,4.443c-0.095,-201.106 -0.169,-402.211 -0.213,-603.317c-0.005,-23.715 -0.01,-47.431 -0.016,-71.147c-0.001,-4.721 -0.002,-9.443 -0.003,-14.308c-0.018,-76.558 -0.051,-153.116 -0.089,-229.674c-0.039,-78.494 -0.063,-156.987 -0.071,-235.481c-0.006,-48.476 -0.024,-96.952 -0.058,-145.428c-0.022,-33.194 -0.028,-66.388 -0.023,-99.582c0.003,-19.181 -0.001,-38.363 -0.024,-57.544c-0.02,-17.531 -0.021,-35.061 -0.007,-52.592c0.002,-6.37 -0.003,-12.741 -0.016,-19.111c-0.017,-8.603 -0.008,-17.205 0.007,-25.808c-0.001,-4.795 -0.003,-9.591 -0.004,-14.532c0.517,-10.643 0.517,-10.643 4.684,-14.809c8.13,-1.554 16.298,-2.911 24.479,-4.167c54.755,-8.444 54.755,-8.444 58.854,-8.333Z" style="fill:#dadbdb;fill-rule:nonzero;"/><path d="M3946.89,4091.55c3.716,0.016 7.431,0.033 11.259,0.05c2.812,0.021 5.625,0.042 8.523,0.064c0.19,122.58 0.337,245.16 0.425,367.74c0.011,14.478 0.021,28.956 0.032,43.433c0.003,2.882 0.005,5.765 0.007,8.734c0.036,46.644 0.102,93.289 0.179,139.933c0.078,47.875 0.123,95.75 0.141,143.625c0.011,26.885 0.036,53.769 0.097,80.654c0.056,25.308 0.074,50.615 0.061,75.922c0.003,9.285 0.019,18.571 0.051,27.856c0.042,12.688 0.032,25.374 0.009,38.062c0.024,3.665 0.048,7.329 0.073,11.104c-0.227,47.012 -15.358,93.718 -47.43,129.083c-31.967,29.243 -72.455,43.805 -115.039,43.343c-47.584,-4.042 -83.112,-29.76 -113.069,-65.267c-4.704,-6.722 -4.704,-6.722 -8.871,-19.222c2.235,1.203 4.469,2.406 6.771,3.646c33.225,15.738 67.443,19.98 102.816,8.593c44.523,-20.404 60.298,-48.298 77.995,-92.513c7.806,-21.771 8.884,-41.339 8.911,-64.39c0.02,-3.706 0.041,-7.412 0.062,-11.231c0.064,-12.444 0.099,-24.887 0.134,-37.33c0.04,-8.911 0.082,-17.821 0.125,-26.732c0.113,-24.214 0.2,-48.429 0.284,-72.644c0.091,-25.297 0.205,-50.594 0.316,-75.89c0.208,-47.914 0.396,-95.829 0.576,-143.743c0.205,-54.544 0.434,-109.088 0.665,-163.632c0.474,-112.211 0.919,-224.423 1.345,-336.634c-5.5,-1.375 -11,-2.75 -16.666,-4.167c8.848,-1.428 17.704,-2.807 26.562,-4.167c4.931,-0.773 9.861,-1.547 14.942,-2.343c12.975,-1.709 25.63,-2.013 38.714,-1.937Z" style="fill:#dedede;fill-rule:nonzero;"/><path d="M4541.67,4004.17c0.38,118.509 0.675,237.019 0.851,355.53c0.021,14.012 0.042,28.025 0.064,42.037c0.005,2.79 0.009,5.579 0.013,8.453c0.073,45.082 0.204,90.162 0.358,135.243c0.156,46.307 0.247,92.614 0.282,138.922c0.021,25.989 0.072,51.977 0.194,77.966c0.113,24.491 0.148,48.98 0.123,73.471c0.004,8.96 0.037,17.921 0.101,26.881c0.454,66.604 -2.859,130.388 -50.57,182.366c-34.783,31.771 -71.783,40.309 -117.709,39.437c-38.698,-1.793 -65.565,-19.823 -92.041,-46.973c-11.97,-13.23 -19.213,-24.79 -25,-41.667c9.186,4.265 16.827,8.463 24.74,14.844c20.112,14.017 47.461,12.231 71.094,10.156c37.506,-12.502 65.992,-34.058 84.822,-68.755c18.987,-43.419 18.143,-84.695 17.925,-131.364c0.036,-8.751 0.08,-17.503 0.133,-26.255c0.116,-23.61 0.107,-47.219 0.073,-70.83c-0.013,-24.729 0.092,-49.458 0.184,-74.188c0.155,-46.762 0.206,-93.523 0.219,-140.286c0.019,-53.265 0.157,-106.53 0.304,-159.795c0.299,-109.509 0.451,-219.017 0.506,-328.527l-20.833,0l-0,-4.166c14.233,-2.103 28.47,-4.179 42.708,-6.25c4.034,-0.597 8.068,-1.193 12.224,-1.807c5.841,-0.846 5.841,-0.846 11.8,-1.709c3.578,-0.524 7.157,-1.047 10.844,-1.587c9.924,-1.147 9.924,-1.147 26.591,-1.147Z" style="fill:#dadada;fill-rule:nonzero;"/><path d="M5091.67,3925c0.487,119.669 0.854,239.338 1.079,359.009c0.107,55.567 0.254,111.135 0.492,166.702c0.208,48.446 0.342,96.891 0.389,145.337c0.027,25.64 0.09,51.279 0.242,76.919c0.142,24.162 0.185,48.322 0.154,72.485c0.006,8.84 0.047,17.679 0.127,26.519c0.6,69.558 -8.086,124.69 -56.65,178.029c-10.489,8.799 -20.97,15.031 -33.333,20.833c-4.899,2.493 -9.797,4.985 -14.844,7.552c-35.177,11.887 -74.342,10.1 -107.813,-5.468c-35.068,-20.107 -57.317,-44.244 -73.177,-81.25l8.334,-0c3.007,3.265 6.015,6.531 9.114,9.896c18.684,17.438 39.845,21.389 65.186,20.556c33.401,-4.754 62.281,-21.588 84.033,-47.119c8.343,-13.395 14.992,-27.019 20.833,-41.667c2.157,-5.402 2.157,-5.402 4.357,-10.914c4.757,-16.851 5.179,-32.641 5.137,-49.994c0.024,-3.56 0.048,-7.121 0.073,-10.789c0.071,-11.9 0.083,-23.798 0.095,-35.698c0.039,-8.542 0.081,-17.084 0.127,-25.627c0.114,-23.172 0.177,-46.345 0.231,-69.518c0.065,-24.223 0.177,-48.447 0.283,-72.67c0.195,-45.863 0.349,-91.725 0.487,-137.588c0.159,-52.217 0.365,-104.433 0.575,-156.65c0.43,-107.406 0.802,-214.812 1.135,-322.218c-4.125,1.375 -8.25,2.75 -12.5,4.166c-6.505,0.281 -13.021,0.355 -19.531,0.261c-5.051,-0.057 -5.051,-0.057 -10.205,-0.114c-3.843,-0.073 -3.843,-0.073 -7.764,-0.147l0,-4.166c16.748,-2.816 33.503,-5.58 50.261,-8.334c4.724,-0.795 9.448,-1.59 14.315,-2.409c4.605,-0.751 9.211,-1.503 13.956,-2.278c4.212,-0.698 8.423,-1.397 12.762,-2.116c14.116,-1.678 27.835,-1.629 42.04,-1.53Z" style="fill:#dcdcdc;fill-rule:nonzero;"/><path d="M5616.67,3850c0.487,117.025 0.854,234.05 1.079,351.075c0.107,54.34 0.254,108.679 0.492,163.018c0.208,47.373 0.342,94.745 0.389,142.119c0.027,25.074 0.09,50.147 0.242,75.22c0.142,23.625 0.185,47.249 0.154,70.875c0.006,8.646 0.047,17.293 0.127,25.939c0.505,57.217 -3.351,105.497 -40.813,151.962c-28.825,28.012 -64.618,41.772 -104.379,42.188c-41.416,-0.69 -69.724,-11.224 -99.951,-39.551c-10.823,-11.568 -19.515,-23.753 -28.174,-37.012c13.391,0 16.146,1.66 27.084,8.334c21.573,10.944 40.834,12.465 64.583,8.333c35.892,-12.555 62.114,-29.938 80.029,-63.623c13.086,-27.882 16.424,-52.435 16.464,-83.177c0.02,-3.438 0.041,-6.876 0.062,-10.418c0.064,-11.509 0.099,-23.018 0.134,-34.527c0.04,-8.254 0.081,-16.508 0.125,-24.763c0.112,-22.406 0.2,-44.813 0.283,-67.22c0.091,-23.417 0.205,-46.834 0.317,-70.251c0.208,-44.343 0.395,-88.686 0.575,-133.029c0.206,-50.484 0.435,-100.967 0.666,-151.45c0.474,-103.847 0.919,-207.695 1.345,-311.542c26.442,-11.1 50.659,-12.704 79.167,-12.5Z" style="fill:#dedede;fill-rule:nonzero;"/><path d="M3370.83,3279.17l0,670.833c-14.437,4.125 -14.437,4.125 -29.166,8.333c-2.75,0.86 -5.5,1.719 -8.334,2.605c-12.296,2.305 -24.989,1.562 -37.5,1.562l0,-645.833c41.667,-12.5 41.667,-12.5 54.167,-12.5c1.375,-5.5 2.75,-11 4.167,-16.667c-5.5,-1.375 -11,-2.75 -16.667,-4.167c11.511,-2.489 21.501,-4.166 33.333,-4.166Z" style="fill:#dededd;fill-rule:nonzero;"/><path d="M3966.67,3254.17l-0,620.833c-54.167,12.5 -54.167,12.5 -75,12.5l-0,-612.5c-44,-1.375 -88,-2.75 -133.334,-4.167l0,-4.166c6.234,-0.124 6.234,-0.124 12.594,-0.251c15.656,-0.32 31.311,-0.689 46.966,-1.072c6.732,-0.158 13.463,-0.303 20.195,-0.435c36.099,-0.716 71.041,-2.012 106.594,-9.011c9.485,-1.731 9.485,-1.731 21.985,-1.731Z" style="fill:#dfdfdf;fill-rule:nonzero;"/><path d="M4537.5,3191.67l0,604.166c-50,8.334 -50,8.334 -75,8.334c-0.195,-74.755 -0.342,-149.51 -0.432,-224.265c-0.043,-34.709 -0.101,-69.417 -0.197,-104.126c-0.083,-30.246 -0.136,-60.493 -0.155,-90.739c-0.011,-16.021 -0.037,-32.041 -0.097,-48.061c-0.057,-15.072 -0.074,-30.143 -0.062,-45.215c-0.003,-8.183 -0.048,-16.366 -0.094,-24.549c0.012,-4.855 0.023,-9.71 0.035,-14.713c-0.008,-4.229 -0.015,-8.457 -0.023,-12.814c1.025,-10.518 1.025,-10.518 9.358,-23.018c4.125,-1.375 8.25,-2.75 12.5,-4.167c-18.562,-4.125 -18.562,-4.125 -37.5,-8.333l0,-4.167c13.715,-1.396 27.43,-2.782 41.146,-4.167c3.905,-0.397 7.81,-0.795 11.833,-1.204c3.733,-0.376 7.466,-0.752 11.312,-1.139c3.447,-0.35 6.895,-0.699 10.447,-1.058c8.596,-0.765 8.596,-0.765 16.929,-0.765Z" style="fill:#dfdfde;fill-rule:nonzero;"/><path d="M3241.67,4191.67l45.833,-0c0.292,117.784 0.512,235.568 0.648,353.353c0.064,54.69 0.152,109.379 0.295,164.069c0.125,47.67 0.205,95.341 0.233,143.011c0.016,25.239 0.055,50.477 0.146,75.715c0.085,23.766 0.111,47.53 0.092,71.295c0.003,8.713 0.028,17.425 0.076,26.137c0.063,11.921 0.047,23.839 0.013,35.76c0.037,3.425 0.073,6.85 0.111,10.379c-0.235,30.485 -7.816,58.835 -24.531,84.604c-2.513,3.988 -2.513,3.988 -5.078,8.056c-5.338,6.787 -5.338,6.787 -17.838,15.121l-0,-987.5Z" style="fill:#fdfdfd;fill-rule:nonzero;"/><path d="M5616.67,3054.17c0.097,77.071 0.17,154.143 0.216,231.215c0.021,35.783 0.05,71.567 0.098,107.35c0.041,31.177 0.068,62.354 0.078,93.531c0.005,16.519 0.018,33.037 0.048,49.556c0.028,15.529 0.037,31.059 0.031,46.589c0.001,5.716 0.009,11.432 0.025,17.148c0.021,7.772 0.014,15.543 0.005,23.314c0.004,4.36 0.007,8.719 0.011,13.21c-0.512,9.753 -0.512,9.753 -4.679,13.92c-11.897,1.668 -23.739,3.133 -35.677,4.427c-3.36,0.379 -6.719,0.757 -10.181,1.148c-8.323,0.935 -16.649,1.849 -24.975,2.758c0.447,-74.067 0.916,-148.135 1.414,-222.203c0.23,-34.39 0.453,-68.781 0.658,-103.172c0.179,-29.975 0.371,-59.95 0.581,-89.925c0.111,-15.871 0.214,-31.743 0.301,-47.614c0.082,-14.942 0.183,-29.884 0.298,-44.825c0.057,-8.092 0.095,-16.184 0.131,-24.276c0.041,-4.832 0.082,-9.664 0.124,-14.642c0.027,-4.19 0.054,-8.38 0.082,-12.698c0.577,-11.478 0.577,-11.478 4.744,-32.311l-137.5,-0l-0,-4.167c7.122,-0.157 7.122,-0.157 14.388,-0.316c17.737,-0.395 35.473,-0.812 53.208,-1.235c7.654,-0.18 15.308,-0.354 22.962,-0.521c11.047,-0.243 22.093,-0.508 33.14,-0.776c5.074,-0.105 5.074,-0.105 10.25,-0.211c23.464,-0.6 46.91,-5.274 70.219,-5.274Z" style="fill:#e1e1e1;fill-rule:nonzero;"/><path d="M5087.5,3116.67l0,604.166c-30.117,6.693 -42.641,9.293 -70.833,4.167c-0.195,-74.755 -0.342,-149.509 -0.432,-224.264c-0.043,-34.709 -0.102,-69.418 -0.197,-104.127c-0.083,-30.246 -0.137,-60.492 -0.155,-90.739c-0.011,-16.02 -0.037,-32.04 -0.097,-48.061c-0.057,-15.071 -0.074,-30.143 -0.062,-45.214c-0.003,-8.183 -0.048,-16.367 -0.094,-24.549c0.017,-7.283 0.017,-7.283 0.035,-14.714c-0.008,-4.228 -0.016,-8.457 -0.024,-12.814c1.026,-10.518 1.026,-10.518 9.359,-23.018c9.342,-1.986 9.342,-1.986 20.312,-2.604c13.219,-0.829 25.26,-2.109 38.021,-5.729l0,-8.334c-3.007,1.461 -6.015,2.922 -9.114,4.427c-13.02,4.34 -19.559,3.452 -32.552,-0.26l-0,-4.167c15.877,-2.954 29.501,-4.166 45.833,-4.166Z" style="fill:#e0e0e0;fill-rule:nonzero;"/><path d="M4004.17,5300c16.607,17.476 16.607,17.476 16.927,35.677c-5.432,17.573 -9.619,21.54 -25.261,30.99c-2.288,1.407 -4.576,2.814 -6.933,4.264c-74.473,39.462 -192.585,36.692 -270.98,13.265c-53.608,-19.603 -53.608,-19.603 -67.92,-42.529c-2.182,-14.654 -1.295,-22.472 5.469,-35.677c80.414,-72.934 260.178,-59.537 348.698,-5.99Z" style="fill:#f7f7f7;fill-rule:nonzero;"/><path d="M3037.5,3691.67l0,20.833c-3.679,0.408 -7.358,0.816 -11.149,1.237c-60.953,6.729 -60.953,6.729 -109.684,40.43c-3.125,12.5 -3.125,12.5 -0,25c29.315,33.224 79.851,36.845 120.833,41.666l0,58.334c-9.494,5.018 -18.989,10.037 -28.483,15.055c-10.135,5.644 -10.135,5.644 -17.35,18.278c-18.877,-2.356 -33.474,-7.327 -50.505,-15.723c-4.878,-2.382 -9.756,-4.765 -14.783,-7.22c-5.234,-2.595 -10.468,-5.191 -15.702,-7.786c-5.444,-2.67 -10.89,-5.335 -16.337,-7.998c-10.996,-5.376 -21.985,-10.765 -32.969,-16.164c-21.421,-10.511 -42.954,-20.785 -64.496,-31.046c-7.639,-3.657 -15.278,-7.314 -22.917,-10.971c-17.508,-8.368 -35.05,-16.661 -52.604,-24.934c-9.548,-4.525 -19.097,-9.05 -28.646,-13.575c-4.494,-2.103 -8.988,-4.207 -13.619,-6.374c-4.164,-1.978 -8.328,-3.957 -12.618,-5.995c-3.688,-1.738 -7.377,-3.476 -11.177,-5.266c-9.054,-5.054 -15.118,-10.068 -21.961,-17.781c73.637,-10.998 147.483,-20.258 221.36,-29.465c17.321,-2.159 34.641,-4.335 51.96,-6.515c13.449,-1.691 26.9,-3.372 40.352,-5.05c6.394,-0.799 12.788,-1.602 19.182,-2.408c8.867,-1.116 17.735,-2.219 26.604,-3.318c5.028,-0.629 10.057,-1.257 15.238,-1.905c12.804,-1.339 12.804,-1.339 29.471,-1.339Z" style="fill:#f8f8f8;fill-rule:nonzero;"/><path d="M4549.32,5192.59c10.052,8.636 13.095,15.267 15.528,28.239c-2.911,15.524 -8.344,21.793 -19.011,33.334c-72.865,44.496 -182.124,43.445 -262.436,24.054c-29.186,-7.799 -55.27,-17.579 -77.668,-38.377c-7.413,-13.816 -9.193,-20.247 -5.729,-35.677c68,-82.4 268.618,-65.314 349.316,-11.573Z" style="fill:#f9f9f9;fill-rule:nonzero;"/><path d="M5029.17,5062.5c4.662,1.305 9.324,2.61 14.127,3.955c43.335,13.241 43.335,13.241 56.706,29.378c4.687,14.063 4.687,14.063 4.167,29.167c-20.418,32.173 -51.712,40.723 -87.475,48.779c-82.332,16.323 -175.001,12.427 -250.514,-26.513c-9.074,-6.477 -14.438,-12.834 -20.345,-22.266c-2.261,-15.183 -1.393,-22.562 6.25,-35.938c63.822,-60.63 199.07,-48.919 277.084,-26.562Z" style="fill:#f9f9f9;fill-rule:nonzero;"/><path d="M5440.62,4944.01c2.919,0.01 5.837,0.02 8.844,0.03c61.24,0.325 122.716,4.89 173.448,42.939c8.658,12.267 8.653,19.134 6.25,33.854c-19.225,29.29 -50.123,36.094 -82.569,44.825c-74.323,15.012 -179.574,14.829 -246.598,-23.991c-8.395,-6.524 -14.117,-12.497 -20.833,-20.834c-1.375,-1.375 -2.75,-2.75 -4.167,-4.166c-1.563,-11.459 -1.563,-11.459 0,-25c38.317,-48.46 109.049,-48.162 165.625,-47.657Z" style="fill:#f7f7f6;fill-rule:nonzero;"/><path d="M2568.21,3748.28c30.63,-3.224 56.849,15.103 82.849,29.028c21.143,11.147 42.561,21.754 63.948,32.424c8.234,4.108 16.463,8.226 24.691,12.344c39.274,19.634 78.767,38.762 118.437,57.584c19.018,9.034 37.971,18.193 56.901,27.409c56.438,27.466 112.943,54.568 170.355,79.956c20.551,9.148 41.009,18.5 61.481,27.824c4.053,1.844 8.106,3.688 12.281,5.588c9.449,4.299 18.897,8.599 28.344,12.901l0,8.334c-11.28,2.11 -22.565,4.189 -33.854,6.25c-3.169,0.596 -6.338,1.192 -9.603,1.806c-3.115,0.564 -6.231,1.128 -9.44,1.709c-4.255,0.786 -4.255,0.786 -8.596,1.587c-30.35,3.729 -47.917,-3.952 -74.542,-17.733c-3.876,-1.955 -7.752,-3.911 -11.745,-5.926c-12.396,-6.267 -24.756,-12.604 -37.116,-18.943c-8.152,-4.139 -16.306,-8.273 -24.463,-12.403c-15.937,-8.076 -31.863,-16.175 -47.779,-24.295c-51.239,-26.124 -102.802,-51.548 -154.581,-76.584c-5.972,-2.891 -11.945,-5.782 -17.918,-8.674c-15.02,-7.27 -30.044,-14.533 -45.07,-21.793c-8.294,-4.007 -16.587,-8.016 -24.88,-12.025c-72.826,-35.246 -72.826,-35.246 -146.181,-69.373c-14.345,-6.968 -27.964,-14.727 -41.732,-22.77l0,-4.167c22.697,-3.616 45.582,-6.106 68.213,-10.058Z" style="fill:#f6f6f5;fill-rule:nonzero;"/><path d="M3200.26,3178.39c2.88,0.003 5.759,0.005 8.726,0.008c74.097,0.176 155.44,2.613 220.181,42.44c-4.229,11.616 -6.828,15.891 -18.002,21.647c-64.852,21.497 -126.993,29.949 -195.28,29.655c-2.783,-0.006 -5.566,-0.012 -8.433,-0.018c-65.604,-0.262 -142.496,-1.035 -199.119,-38.784c0.782,-9.635 0.782,-9.635 4.167,-20.833c16.229,-12.057 33.746,-16.766 53.125,-21.354c2.771,-0.704 5.543,-1.407 8.398,-2.132c41.828,-10.216 83.326,-10.698 126.237,-10.629Z" style="fill:#f1f1f1;fill-rule:nonzero;"/><path d="M3792.99,3161.41c10.339,0.044 20.674,-0 31.013,-0.053c146.379,-0.138 146.379,-0.138 192.668,38.639c-2.344,7.552 -2.344,7.552 -8.334,16.667c-89.125,44.046 -209.835,36.518 -305.989,23.958c-3.491,-0.454 -6.982,-0.908 -10.579,-1.376c-24.453,-3.807 -49.46,-9.95 -70.932,-22.582c-5.345,-8.891 -5.345,-8.891 -8.333,-16.667c44.296,-42.82 122.911,-38.88 180.486,-38.586Z" style="fill:#eee;fill-rule:nonzero;"/><path d="M4587.5,3133.33c-2.281,15.178 -2.281,15.178 -10.286,21.501c-56.051,24.899 -118.47,26.496 -178.776,25.895c-3.359,-0.015 -6.717,-0.03 -10.177,-0.046c-145.48,-0.773 -145.48,-0.773 -196.594,-34.85c1.237,-7.796 1.237,-7.796 4.166,-16.666c92.357,-58.611 299.744,-57.116 391.667,4.166Z" style="fill:#f2f2f2;fill-rule:nonzero;"/><path d="M4928.12,3019.27c4.927,0.027 4.927,0.027 9.953,0.054c144.724,0.93 144.724,0.93 195.255,34.842c2.619,8.692 2.619,8.692 4.167,16.666c-25.736,14.378 -49.101,21.345 -78.125,26.042c-6.441,1.052 -6.441,1.052 -13.013,2.126c-74.089,10.927 -151.745,10.031 -225.529,-3.168c-3.679,-0.601 -7.358,-1.203 -11.149,-1.823c-22.095,-4.159 -39.967,-12.422 -59.684,-23.177c-0.26,-9.375 -0.26,-9.375 4.167,-20.833c46.554,-33.708 119.096,-31.299 173.958,-30.729Z" style="fill:#efefef;fill-rule:nonzero;"/><path d="M5456.59,2961.73c8.684,-0.009 17.367,-0.085 26.051,-0.164c36.952,-0.153 72.549,3.094 109.025,9.269c6.053,0.91 6.053,0.91 12.228,1.839c24.775,3.77 42.609,12.572 62.772,27.328c-4.167,12.5 -4.167,12.5 -14.649,19.108c-16.952,6.88 -32.97,9.945 -50.976,12.663c-21.995,2.772 -21.995,2.772 -42.709,9.896c-10.212,0.463 -20.302,0.683 -30.517,0.7c-3.077,0.013 -6.154,0.027 -9.324,0.042c-6.554,0.021 -13.107,0.03 -19.661,0.03c-9.803,0.009 -19.603,0.084 -29.406,0.164c-138.051,0.519 -138.051,0.519 -186.092,-34.27c7.284,-17.495 15.487,-21.981 32.194,-29.671c44.798,-17.318 93.731,-16.94 141.064,-16.934Z" style="fill:#edeceb;fill-rule:nonzero;"/><path d="M4549.32,5192.59c10.052,8.636 13.095,15.267 15.528,28.239c-2.911,15.524 -8.344,21.793 -19.011,33.334c-72.865,44.496 -182.124,43.445 -262.436,24.054c-29.186,-7.799 -55.27,-17.579 -77.668,-38.377c-7.413,-13.816 -9.193,-20.247 -5.729,-35.677c68,-82.4 268.618,-65.314 349.316,-11.573Zm-324.316,19.906l0,16.667c85.094,45.685 192.638,44.176 284.082,16.878c14.818,-5.153 14.818,-5.153 28.418,-12.712c3.374,-8.551 3.374,-8.551 4.167,-16.666c-54.062,-32.662 -107.044,-39.142 -169.792,-39.063c-4.127,-0.001 -4.127,-0.001 -8.337,-0.001c-74.967,-0.409 -74.967,-0.409 -138.538,34.897Z" style="fill:#181818;fill-rule:nonzero;"/><path d="M4004.17,5300c16.607,17.476 16.607,17.476 16.927,35.677c-5.432,17.573 -9.619,21.54 -25.261,30.99c-2.288,1.407 -4.576,2.814 -6.933,4.264c-74.473,39.462 -192.585,36.692 -270.98,13.265c-53.608,-19.603 -53.608,-19.603 -67.92,-42.529c-2.182,-14.654 -1.295,-22.472 5.469,-35.677c80.414,-72.934 260.178,-59.537 348.698,-5.99Zm-329.167,20.833l0,16.667c38.664,33.576 102.369,39.152 151.563,39.063c3.926,-0.007 7.853,-0.014 11.899,-0.021c27.837,-0.474 54.545,-3.449 81.851,-8.834c3.337,-0.653 6.674,-1.306 10.113,-1.979c21.168,-4.657 43.879,-10.57 61.241,-24.062c3.178,-8.582 3.178,-8.582 4.166,-16.667c-75.352,-53.757 -246.727,-67.466 -320.833,-4.167Z" style="fill:#151515;fill-rule:nonzero;"/><path d="M5029.17,5062.5c4.662,1.305 9.324,2.61 14.127,3.955c43.335,13.241 43.335,13.241 56.706,29.378c4.687,14.063 4.687,14.063 4.167,29.167c-20.418,32.173 -51.712,40.723 -87.475,48.779c-82.332,16.323 -175.001,12.427 -250.514,-26.513c-9.074,-6.477 -14.438,-12.834 -20.345,-22.266c-2.261,-15.183 -1.393,-22.562 6.25,-35.938c63.822,-60.63 199.07,-48.919 277.084,-26.562Zm-262.5,41.667l-0,16.666c5.864,3.283 11.778,6.475 17.708,9.636c3.287,1.788 6.574,3.577 9.961,5.42c40.69,16.796 80.493,20.292 123.998,19.907c9.014,-0.067 18.021,0 27.035,0.08c48.99,0.075 89.703,-9.428 133.798,-30.876l-0,-16.667c-7.336,-4.071 -14.726,-8.043 -22.136,-11.979c-4.109,-2.223 -8.218,-4.447 -12.451,-6.738c-39.807,-16.225 -81.647,-16.169 -124.036,-16.16c-9.564,-0.018 -19.119,-0.17 -28.682,-0.328c-41.648,-0.319 -93.505,-0.032 -125.195,31.039Z" style="fill:#181818;fill-rule:nonzero;"/><path d="M5440.62,4944.01c2.919,0.01 5.837,0.02 8.844,0.03c61.24,0.325 122.716,4.89 173.448,42.939c8.658,12.267 8.653,19.134 6.25,33.854c-19.225,29.29 -50.123,36.094 -82.569,44.825c-74.323,15.012 -179.574,14.829 -246.598,-23.991c-8.395,-6.524 -14.117,-12.497 -20.833,-20.834c-1.375,-1.375 -2.75,-2.75 -4.167,-4.166c-1.563,-11.459 -1.563,-11.459 0,-25c38.317,-48.46 109.049,-48.162 165.625,-47.657Zm-144.792,55.99l0,12.5c8.824,4.755 17.677,9.427 26.563,14.063c2.433,1.321 4.866,2.642 7.373,4.003c37.392,19.299 75.956,20.845 117.366,20.476c4.602,-0.032 9.203,-0.063 13.944,-0.095c49.38,-0.652 99.857,-3.132 143.088,-30.114c3.758,-8.61 3.758,-8.61 4.166,-16.666c-12.702,-10.565 -24.433,-15.987 -40.104,-21.094c-4.007,-1.337 -8.014,-2.675 -12.142,-4.053c-35.832,-9.989 -69.399,-13.853 -106.608,-13.655c-6.835,0.03 -6.835,0.03 -13.809,0.062c-48.785,0.7 -100.722,1.978 -139.837,34.573Z" style="fill:#121212;fill-rule:nonzero;"/><path d="M3241.67,5387.5c74.159,-2.371 147.224,-2.518 212.5,37.5l-0,16.667c-50.307,24.47 -95.488,30.963 -150.782,29.948c-6.014,-0.063 -12.028,-0.12 -18.042,-0.171c-14.561,-0.126 -29.114,-0.37 -43.676,-0.611l-0,-83.333Z" style="fill:#f9f9f9;fill-rule:nonzero;"/><path d="M5616.67,3850c0.389,111.625 0.683,223.249 0.863,334.875c0.086,51.827 0.204,103.654 0.394,155.481c0.166,45.163 0.274,90.326 0.311,135.489c0.022,23.923 0.073,47.844 0.194,71.766c0.113,22.504 0.148,45.006 0.123,67.509c0.004,8.271 0.038,16.542 0.101,24.813c0.083,11.271 0.064,22.539 0.018,33.81c0.048,3.292 0.097,6.583 0.147,9.974c-0.167,15.257 -0.88,23.039 -10.61,35.112c-2.709,2.036 -5.417,4.073 -8.208,6.171c-0.097,-113.471 -0.171,-226.941 -0.216,-340.412c-0.021,-52.682 -0.051,-105.365 -0.098,-158.047c-0.042,-45.9 -0.069,-91.8 -0.078,-137.699c-0.005,-24.32 -0.018,-48.64 -0.049,-72.96c-0.028,-22.862 -0.037,-45.724 -0.03,-68.586c-0.001,-8.417 -0.01,-16.834 -0.026,-25.252c-0.02,-11.438 -0.016,-22.877 -0.004,-34.316c-0.012,-3.376 -0.024,-6.753 -0.037,-10.231c0.075,-27.497 0.075,-27.497 17.205,-27.497Z" style="fill:#e6e6e6;fill-rule:nonzero;"/><path d="M5641.67,3462.5c21.146,2.46 40.453,7.141 60.628,14.014c4.368,1.458 4.368,1.458 8.824,2.945c6.128,2.051 12.252,4.114 18.372,6.189c9.233,3.128 18.479,6.216 27.727,9.298c28.3,9.482 56.256,19.326 83.866,30.692c13.839,5.477 27.982,9.74 42.249,13.945c17.416,5.133 34.352,10.703 51.14,17.644c34.617,14.106 70.246,25.56 105.631,37.565c7.439,2.532 14.877,5.066 22.315,7.601c18.078,6.158 36.162,12.303 54.248,18.44l-0,4.167c-13.69,3.65 -27.047,4.778 -41.146,5.208c-3.341,0.108 -6.682,0.215 -10.124,0.326c-11.855,-1.443 -21.01,-5.264 -31.807,-10.209c-17.543,-7.471 -35.964,-12.614 -54.163,-18.242c-24.004,-7.453 -47.816,-15.014 -71.282,-24.031c-15.058,-5.642 -30.366,-10.546 -45.645,-15.552c-21.235,-6.958 -42.279,-14.194 -63.167,-22.135c-10.793,-4.033 -21.713,-7.627 -32.666,-11.198c-19.668,-6.414 -38.997,-13.502 -58.334,-20.834c-5.945,-2.232 -11.891,-4.462 -17.838,-6.689c-16.276,-6.104 -32.552,-12.207 -48.828,-18.311l-0,-20.833Z" style="fill:#ecebea;fill-rule:nonzero;"/><path d="M3391.67,5150c46.167,1.884 91.248,10.137 129.166,37.5c-0.781,7.552 -0.781,7.552 -4.166,16.667c-44.839,31.219 -102.181,26.482 -154.167,25c5.89,-18.112 12.386,-35.89 19.271,-53.646c1.858,-4.802 3.717,-9.604 5.631,-14.551c1.408,-3.62 2.815,-7.24 4.265,-10.97Z" style="fill:#f6f6f6;fill-rule:nonzero;"/><path d="M3201.04,3190.62c5.246,0.025 10.492,0.05 15.897,0.076c114.51,1.211 114.51,1.211 158.061,21.799c3.239,8.496 3.239,8.496 4.167,16.667c-1.375,1.375 -2.75,2.75 -4.167,4.166c-16.233,-1.33 -32.08,-3.107 -48.067,-6.232c-33.641,-6.551 -66.632,-7.55 -100.756,-7.354c-9.223,0.045 -18.443,0 -27.666,-0.053c-36.381,-0.034 -70.978,2.801 -106.844,9.473c-8.332,1.4 -16.664,2.793 -25,4.166c-1.375,-6.875 -2.75,-13.75 -4.167,-20.833c38.851,-26.413 93.242,-22.226 138.542,-21.875Z" style="fill:#121212;fill-rule:nonzero;"/><path d="M4465.36,3111.98c3.387,0.327 6.774,0.653 10.264,0.99c55.866,6.026 55.866,6.026 70.204,20.364c-1.562,8.855 -1.562,8.855 -4.166,16.667c-14.24,-2.006 -28.456,-4.049 -42.644,-6.396c-36.815,-5.523 -72.996,-6.883 -110.221,-6.885c-4.647,-0.003 -9.295,-0.006 -14.083,-0.009c-54.798,-0.925 -54.798,-0.925 -108.052,9.123c-9.721,0.165 -19.447,0.184 -29.167,0l0,-20.833c72.339,-23.473 152.826,-20.329 227.865,-13.021Z" style="fill:#161615;fill-rule:nonzero;"/><path d="M3794.6,3173.91c9.012,0.044 18.021,-0 27.033,-0.053c50.62,-0.061 102.725,0.156 149.202,21.972c-1.375,5.5 -2.75,11 -4.166,16.667c-4.378,-0.553 -8.755,-1.106 -13.265,-1.676c-5.908,-0.744 -11.817,-1.487 -17.725,-2.23c-4.298,-0.544 -4.298,-0.544 -8.683,-1.099c-5.953,-0.747 -11.907,-1.483 -17.862,-2.207c-5.943,-0.73 -11.882,-1.492 -17.816,-2.291c-64.174,-8.118 -132.249,-8.072 -195.32,6.769c-11.65,2.515 -21.636,3.267 -33.496,2.734c-1.375,-6.875 -2.75,-13.75 -4.167,-20.833c38.373,-22.143 93.017,-18.007 136.265,-17.753Z" style="fill:#0e0e0d;fill-rule:nonzero;"/><path d="M5091.67,3054.17c-1.375,6.875 -2.75,13.75 -4.167,20.833c-15.464,-1.933 -30.26,-4.283 -45.313,-8.333c-34.834,-8.972 -70.205,-9.093 -105.989,-9.115c-4.38,-0.051 -8.76,-0.102 -13.273,-0.155c-37.414,-0.069 -72.943,4.74 -109.123,14.218c-4.555,1.117 -9.109,2.234 -13.802,3.385c-4.167,-4.167 -4.167,-4.167 -5.208,-14.323c0.343,-3.523 0.687,-7.047 1.041,-10.677c57.921,-38.614 238.808,-33.851 295.834,4.167Z" style="fill:#0f0f0f;fill-rule:nonzero;"/><path d="M5459.74,2973.68c10.257,0.013 20.509,-0.085 30.765,-0.191c43.164,-0.167 84.23,3.348 126.164,14.006c4.166,4.167 4.166,4.167 4.427,14.844c-0.086,3.351 -0.172,6.703 -0.261,10.156c-23.953,-1.858 -47.427,-4.428 -71.093,-8.594c-63.659,-9.365 -132.564,-8.977 -195.573,4.427c-8.329,1.418 -16.661,2.814 -25,4.167c-0.521,-9.896 -0.521,-9.896 -0,-20.833c26.502,-26.503 94.929,-18.078 130.571,-17.982Z" style="fill:#10100f;fill-rule:nonzero;"/><path d="M3987.5,5054.17c30.193,-3.511 56.223,8.321 83.333,20.833c2.75,2.75 5.5,5.5 8.334,8.333c-0.716,8.317 -0.716,8.317 -4.167,16.667c-31.471,19.972 -71.02,30.551 -108.333,29.167c3.017,-16.863 7.643,-32.878 12.76,-49.219c1.509,-4.839 3.019,-9.679 4.574,-14.665c1.154,-3.668 2.309,-7.337 3.499,-11.116Z" style="fill:#f9f9f9;fill-rule:nonzero;"/><path d="M6050,5158.33l0,75c-18.533,-3.089 -29.128,-5.156 -45.231,-12.63c-3.623,-1.66 -7.246,-3.319 -10.978,-5.029c-3.709,-1.735 -7.418,-3.47 -11.239,-5.257c-7.436,-3.434 -14.874,-6.863 -22.314,-10.287c-3.267,-1.522 -6.534,-3.045 -9.899,-4.614c-9.179,-4.24 -9.179,-4.24 -21.172,-8.016l-0,-8.333c14.658,-3.526 29.332,-6.978 44.01,-10.417c6.192,-1.49 6.192,-1.49 12.508,-3.011c4.042,-0.94 8.084,-1.88 12.248,-2.848c3.688,-0.873 7.375,-1.746 11.174,-2.645c11.726,-1.913 11.726,-1.913 40.893,-1.913Z" style="fill:#d6d6d6;fill-rule:nonzero;"/><path d="M5268.23,3474.74c3.465,0.018 6.929,0.037 10.498,0.057c8.48,0.048 16.96,0.123 25.44,0.203l-0,41.667c-39.994,2.011 -97.559,3.21 -129.167,-25c31.459,-14.471 58.842,-17.284 93.229,-16.927Z" style="fill:#efefef;fill-rule:nonzero;"/><path d="M5083.33,3033.33c4.125,4.125 4.125,4.125 8.334,8.334c-1.375,2.75 -2.75,5.5 -4.167,8.333c-2.27,-0.379 -4.541,-0.757 -6.88,-1.147c-142.218,-24.585 -142.218,-24.585 -280.62,1.147c-4.723,8.403 -4.723,8.403 -8.333,16.667l-0,-25c-4.125,-1.375 -8.25,-2.75 -12.5,-4.167c90.02,-29.48 212.881,-29.357 304.166,-4.167Z" style="fill:#eee;fill-rule:nonzero;"/><path d="M3966.67,3254.17l-0,620.833l-4.167,0c-1.375,-200.75 -2.75,-401.5 -4.167,-608.333c-17.875,4.125 -35.75,8.25 -54.166,12.5c-4.125,-1.375 -8.25,-2.75 -12.5,-4.167c-10.158,-0.636 -20.22,-1.07 -30.388,-1.318c-2.941,-0.087 -5.883,-0.174 -8.914,-0.263c-9.382,-0.272 -18.764,-0.518 -28.146,-0.763c-6.367,-0.18 -12.734,-0.361 -19.1,-0.545c-15.595,-0.446 -31.19,-0.868 -46.786,-1.278l0,-4.166c6.234,-0.124 6.234,-0.124 12.594,-0.251c15.656,-0.32 31.311,-0.689 46.966,-1.072c6.732,-0.158 13.463,-0.303 20.195,-0.435c36.099,-0.716 71.041,-2.012 106.594,-9.011c9.485,-1.731 9.485,-1.731 21.985,-1.731Z" style="fill:#c1c2c2;fill-rule:nonzero;"/><path d="M4558.33,4954.17c27.048,1.764 47.229,12.129 70.834,25c-0.879,7.78 -0.879,7.78 -4.167,16.666c-8.496,4.981 -8.496,4.981 -19.271,8.854c-3.76,1.365 -7.519,2.729 -11.393,4.135c-3.631,1.213 -7.262,2.427 -11.003,3.678c-2.857,0.956 -5.715,1.912 -8.659,2.897c-13.164,4.064 -23.209,5.436 -37.174,5.436c0.806,-2.368 1.611,-4.737 2.441,-7.177c6.648,-19.713 12.847,-39.439 18.392,-59.489Z" style="fill:#f0f0f0;fill-rule:nonzero;"/><path d="M3201.3,3178.12c2.829,0.01 5.659,0.02 8.574,0.031c41.711,0.175 82.375,1.772 123.457,9.344c4.356,0.795 8.712,1.59 13.2,2.409c9.527,1.84 19.003,3.786 28.467,5.924c-2.75,1.375 -5.5,2.75 -8.333,4.167l-0,8.333c-3.33,-0.553 -6.66,-1.106 -10.091,-1.676c-6.865,-1.104 -6.865,-1.104 -13.868,-2.23c-4.447,-0.725 -8.894,-1.45 -13.476,-2.197c-42.384,-6.042 -84.654,-7.052 -127.409,-6.918c-7.73,-0.024 -7.73,-0.024 -15.617,-0.048c-30.36,0.032 -60.2,1.33 -90.373,4.736l0,-8.333c-4.125,-1.375 -8.25,-2.75 -12.5,-4.167c39.556,-7.356 77.778,-9.658 117.969,-9.375Z" style="fill:#f1f1f1;fill-rule:nonzero;"/><path d="M5456.59,2961.73c8.684,-0.009 17.367,-0.085 26.051,-0.164c51.28,-0.214 100.619,6.758 150.691,17.603c-4.125,1.375 -8.25,2.75 -12.5,4.166c-1.375,2.75 -2.75,5.5 -4.166,8.334c-3.879,-0.891 -7.758,-1.781 -11.755,-2.698c-41.996,-9.068 -82.182,-11.519 -125.071,-10.974c-10.373,0.131 -20.744,0.171 -31.119,0.195c-31.384,0.154 -62.469,0.728 -93.693,4.243c-14.216,1.392 -28.256,1.17 -42.529,0.9c11.338,-7.558 16.892,-10.031 29.687,-12.76c2.933,-0.65 5.866,-1.3 8.887,-1.969c35.188,-5.965 69.904,-6.88 105.517,-6.876Z" style="fill:#dcdcdc;fill-rule:nonzero;"/><path d="M2547.92,3893.75c10.416,2.083 10.416,2.083 17.22,8.984c7.177,12.304 7.365,20.59 7.259,34.766c0.032,4.297 0.064,8.594 0.097,13.021c-1.828,13.192 -5.315,18.911 -14.16,28.646c-13.201,-1.071 -19.206,-2.428 -28.385,-12.24c-6.948,-17.917 -8.097,-35.442 -4.948,-54.427c9.665,-16.1 9.665,-16.1 22.917,-18.75Z" style="fill:#0b0b0b;fill-rule:nonzero;"/><path d="M2959.9,5597.66c10.937,2.344 10.937,2.344 20.573,12.24c8.883,19.082 10.835,36.001 7.031,56.771c-6.364,9.603 -6.364,9.603 -12.5,16.666c-12.18,-1.316 -18.947,-2.257 -27.702,-11.116c-7.167,-12.366 -7.162,-20.761 -6.933,-34.977c0.016,-4.346 0.032,-8.691 0.048,-13.168c1.612,-14.881 4.209,-22.798 19.483,-26.416Z" style="fill:#0e0f0e;fill-rule:nonzero;"/><path d="M2960.42,4110.42c10.416,2.083 10.416,2.083 17.22,8.968c7.205,12.372 7.365,20.794 7.259,35.042c0.032,4.345 0.064,8.691 0.097,13.167c-1.66,11.573 -1.66,11.573 -7.356,19.255c-6.804,4.818 -6.804,4.818 -17.22,6.641c-10.417,-1.823 -10.417,-1.823 -17.22,-8.838c-6.906,-11.7 -7.371,-19.058 -7.259,-32.569c-0.033,-3.91 -0.065,-7.82 -0.098,-11.849c2.475,-16.501 7.75,-26.452 24.577,-29.817Z" style="fill:#0c0c0c;fill-rule:nonzero;"/><path d="M5108.33,4850c24.058,2.005 41.494,9.103 62.5,20.833l0,16.667c-26.024,14.73 -49.623,20.873 -79.166,25c1.99,-8.074 3.988,-16.147 5.989,-24.219c1.112,-4.495 2.224,-8.991 3.369,-13.623c2.145,-8.3 4.597,-16.525 7.308,-24.658Z" style="fill:#ededed;fill-rule:nonzero;"/><path d="M4770.83,3533.33l0,41.667c-32.347,1.501 -61.576,0.567 -91.666,-12.5c-2.75,-2.75 -5.5,-5.5 -8.334,-8.333c29.599,-18.605 65.746,-20.834 100,-20.834Z" style="fill:#eee;fill-rule:nonzero;"/><path d="M4216.67,3604.17l-0,41.666c-33.114,1.227 -65.479,-2.501 -95.834,-16.666l0,-8.334c65.604,-19.134 65.604,-19.134 95.834,-16.666Z" style="fill:#eee;fill-rule:nonzero;"/><path d="M2537.5,5354.17c11.494,-1.769 17.932,-1.976 27.669,4.655c8.343,11.555 7.172,20.854 6.966,34.928c-0.016,4.77 -0.032,9.539 -0.048,14.453c-1.254,12.63 -1.254,12.63 -9.587,25.13c-13.202,-1.07 -19.207,-2.428 -28.385,-12.239c-6.966,-17.964 -7.437,-35.361 -4.948,-54.427c2.75,-4.125 5.5,-8.25 8.333,-12.5Z" style="fill:#0c0c0c;fill-rule:nonzero;"/><path d="M3641.67,3679.17l-0,41.666c-28.275,1.973 -56.634,-3.097 -83.334,-12.5c-1.375,-4.125 -2.75,-8.25 -4.166,-12.5c14.513,-6.257 28.195,-10.268 43.75,-13.02c3.824,-0.699 7.648,-1.397 11.588,-2.116c11.328,-1.53 11.328,-1.53 32.162,-1.53Z" style="fill:#e5e5e5;fill-rule:nonzero;"/><path d="M3037.5,3762.5l0,37.5c-28.924,-1.377 -53.295,-3.143 -79.167,-16.667l0,-8.333c27.362,-11.103 49.667,-13.746 79.167,-12.5Z" style="fill:#ebebeb;fill-rule:nonzero;"/><path d="M4379.43,3095.57c5.197,0.019 10.393,0.038 15.747,0.057c12.72,0.049 25.44,0.117 38.159,0.203l0,4.167c-9.625,1.375 -19.25,2.75 -29.166,4.167l-0,4.166c-5.164,0.314 -5.164,0.314 -10.431,0.633c-12.97,0.801 -25.939,1.627 -38.906,2.47c-8.293,0.531 -16.587,1.034 -24.882,1.536c-30.04,1.972 -58.982,4.986 -88.281,12.028l-0,-8.333c-4.125,-1.375 -8.25,-2.75 -12.5,-4.167c8.239,-2.025 16.488,-4.014 24.739,-5.99c6.889,-1.667 6.889,-1.667 13.916,-3.369c37.242,-7.542 73.676,-7.83 111.605,-7.568Z" style="fill:#c7c7c6;fill-rule:nonzero;"/><path d="M5308.33,3412.5c-1.375,5.5 -2.75,11 -4.166,16.667c-4.931,0.204 -9.862,0.408 -14.942,0.618c-46.991,1.985 -46.991,1.985 -93.213,10.205c-10.227,2.014 -18.955,2.759 -29.345,1.677c-2.75,-4.125 -5.5,-8.25 -8.334,-12.5c31.218,-4.585 62.457,-8.985 93.75,-13.021c5.371,-0.698 10.743,-1.397 16.276,-2.116c13.469,-1.376 26.451,-1.822 39.974,-1.53Z" style="fill:#e1e1e1;fill-rule:nonzero;"/><path d="M5004.17,3020.83l-0,4.167c-46.75,1.375 -93.5,2.75 -141.667,4.167c2.75,2.75 5.5,5.5 8.333,8.333c-4.415,0.553 -8.83,1.106 -13.379,1.676c-5.783,0.743 -11.567,1.486 -17.35,2.23c-2.911,0.363 -5.822,0.725 -8.821,1.099c-16.149,1.925 -16.149,1.925 -31.283,7.495c-4.723,8.403 -4.723,8.403 -8.333,16.667l-0,-25c-4.125,-1.375 -8.25,-2.75 -12.5,-4.167c72.878,-23.867 149.343,-18.257 225,-16.667Z" style="fill:#bebdbd;fill-rule:nonzero;"/><path d="M3205.47,3178.65c5.976,0.042 11.952,0.08 17.928,0.114c14.424,0.09 28.846,0.233 43.27,0.407l-0,4.166c-31.625,1.375 -63.25,2.75 -95.834,4.167l0,4.167c-37.125,4.125 -37.125,4.125 -75,8.333l0,-8.333c-4.125,-1.375 -8.25,-2.75 -12.5,-4.167c40.962,-7.814 80.648,-9.369 122.136,-8.854Z" style="fill:#d4d4d4;fill-rule:nonzero;"/><path d="M3962.5,3258.33l0,20.834c-2.062,-6.188 -2.062,-6.188 -4.167,-12.5c-5.647,1.426 -5.647,1.426 -11.409,2.881c-4.915,1.197 -9.829,2.395 -14.893,3.629c-4.882,1.209 -9.764,2.417 -14.795,3.662c-13.069,2.328 -13.069,2.328 -25.569,-1.839c-10.158,-0.636 -20.22,-1.07 -30.388,-1.318c-2.941,-0.087 -5.883,-0.174 -8.914,-0.263c-9.382,-0.272 -18.764,-0.518 -28.146,-0.763c-6.367,-0.18 -12.734,-0.361 -19.1,-0.545c-15.595,-0.446 -31.19,-0.868 -46.786,-1.278l0,-4.166c6.398,-0.157 6.398,-0.157 12.925,-0.317c15.927,-0.394 31.853,-0.811 47.78,-1.235c6.874,-0.179 13.748,-0.353 20.622,-0.52c9.919,-0.243 19.838,-0.508 29.757,-0.777c3.04,-0.069 6.079,-0.139 9.211,-0.211c28.208,-0.803 55.594,-5.851 83.872,-5.274Z" style="fill:#b1b1b1;fill-rule:nonzero;"/><path d="M4770.83,3475l0,16.667c-43.312,4.125 -43.312,4.125 -87.5,8.333l0,-8.333l-20.833,-0l0,-4.167c14.146,-2.108 28.296,-4.182 42.448,-6.25c5.998,-0.894 5.998,-0.894 12.117,-1.807c5.821,-0.846 5.821,-0.846 11.76,-1.709c3.557,-0.523 7.113,-1.047 10.778,-1.587c10.5,-1.158 20.676,-1.345 31.23,-1.147Z" style="fill:#d5d5d4;fill-rule:nonzero;"/><path d="M3275,5608.33c-2.723,2.251 -5.446,4.501 -8.252,6.82c-10.541,12.335 -10.312,18.086 -9.717,34.066c0.218,6.582 0.218,6.582 0.44,13.297c0.975,14.111 2.5,27.739 5.029,41.651c-5.5,-1.375 -11,-2.75 -16.667,-4.167c-1.375,-30.25 -2.75,-60.5 -4.166,-91.667c15.423,-3.855 19.31,-4.507 33.333,0Z" style="fill:#eae9e9;fill-rule:nonzero;"/><path d="M5491.67,3741.67c1.375,2.75 2.75,5.5 4.166,8.333c4.125,2.75 8.25,5.5 12.5,8.333c-78.417,0.769 -78.417,0.769 -116.666,-4.166l-0,-4.167c10.413,-1.415 20.83,-2.8 31.25,-4.167c2.9,-0.397 5.8,-0.795 8.789,-1.204c20.157,-2.613 39.635,-3.329 59.961,-2.962Z" style="fill:#d2d1d1;fill-rule:nonzero;"/><path d="M4608.33,3866.67c-4.125,2.062 -4.125,2.062 -8.333,4.166c-1.375,5.5 -2.75,11 -4.167,16.667c-26.812,2.063 -26.812,2.063 -54.166,4.167l-0,-12.5c-5.5,-1.375 -11,-2.75 -16.667,-4.167c28.09,-5.243 54.729,-9.434 83.333,-8.333Z" style="fill:#d6d6d5;fill-rule:nonzero;"/><path d="M3845.83,3162.5c26.737,-0.431 52.613,1.062 79.167,4.167c-11.012,11.204 -16.732,12.504 -32.711,13.536c-6.438,-0.176 -12.874,-0.422 -19.307,-0.727c-3.399,-0.11 -6.797,-0.22 -10.298,-0.334c-10.828,-0.365 -21.651,-0.82 -32.476,-1.277c-7.351,-0.264 -14.702,-0.522 -22.054,-0.774c-17.999,-0.629 -35.993,-1.338 -53.987,-2.091l-0,-4.167c30.25,-1.375 60.5,-2.75 91.666,-4.166l0,-4.167Z" style="fill:#c6c6c6;fill-rule:nonzero;"/><path d="M4347.88,3095.02c7.493,0.04 7.493,0.04 15.137,0.081c7.734,0.105 7.734,0.105 15.625,0.211c5.253,0.038 10.506,0.076 15.918,0.114c12.924,0.098 25.846,0.235 38.769,0.407l0,4.167c-9.625,1.375 -19.25,2.75 -29.166,4.167l-0,4.166l-108.334,0l0,-4.166c18.035,-6.867 32.791,-9.331 52.051,-9.147Z" style="fill:#d5d5d5;fill-rule:nonzero;"/><path d="M5020.83,3025c24.387,2.145 47.208,6.057 70.834,12.5c-1.375,4.125 -2.75,8.25 -4.167,12.5c-31.625,-4.125 -63.25,-8.25 -95.833,-12.5l-0,-4.167c14.437,-2.062 14.437,-2.062 29.166,-4.166l0,-4.167Z" style="fill:#e3e3e3;fill-rule:nonzero;"/><path d="M3391.67,3900c12.846,4.996 25.261,10.321 37.5,16.667c-2.344,7.812 -2.344,7.812 -8.334,16.666c-15.104,5.209 -15.104,5.209 -29.166,8.334l-0,-41.667Z" style="fill:#dedede;fill-rule:nonzero;"/><path d="M3300,3183.33c25.343,2.816 50.055,7.235 75,12.5c-4.125,2.063 -4.125,2.063 -8.333,4.167l-0,8.333c-3.33,-0.553 -6.66,-1.106 -10.091,-1.676c-31.318,-5.036 -62.432,-8.657 -94.076,-10.824l0,-4.166c18.563,-2.063 18.563,-2.063 37.5,-4.167l0,-4.167Z" style="fill:#c4c4c4;fill-rule:nonzero;"/><path d="M5395.83,2966.67c-1.375,4.125 -2.75,8.25 -4.166,12.5c-26.507,2.728 -52.516,4.669 -79.167,4.166c25.124,-16.749 53.852,-17.738 83.333,-16.666Z" style="fill:#c3c3c2;fill-rule:nonzero;"/><path d="M3987.5,3829.17c8.25,2.75 16.5,5.5 25,8.333l0,16.667c-13.393,12.5 -13.393,12.5 -25,12.5l0,-37.5Z" style="fill:#dadada;fill-rule:nonzero;"/><path d="M5308.33,3412.5c-1.375,5.5 -2.75,11 -4.166,16.667l-50,-0c-1.375,-4.125 -2.75,-8.25 -4.167,-12.5c19.683,-2.715 38.416,-4.665 58.333,-4.167Z" style="fill:#c8c8c7;fill-rule:nonzero;"/><path d="M5387.5,5170.83c-2.358,0.806 -4.716,1.612 -7.145,2.442c-3.056,1.085 -6.112,2.17 -9.261,3.288c-3.046,1.063 -6.091,2.126 -9.229,3.222c-8.477,2.935 -8.477,2.935 -11.865,11.882c-5.5,-2.75 -11,-5.5 -16.667,-8.334c-1.375,2.75 -2.75,5.5 -4.166,8.334l-0,-8.334c-2.321,1.461 -4.641,2.922 -7.032,4.427c-11.88,4.817 -18.323,3.114 -30.468,-0.26l-0,-4.167c12.834,-2.925 25.685,-5.767 38.541,-8.593c3.637,-0.83 7.273,-1.66 11.019,-2.515c3.518,-0.765 7.036,-1.531 10.661,-2.319c3.229,-0.72 6.459,-1.441 9.786,-2.182c9.792,-1.13 16.501,0.128 25.826,3.109Zm-66.667,20.834l8.334,4.166l-8.334,-4.166Z" style="fill:#bcbbbb;fill-rule:nonzero;"/><path d="M4450,3100c22.696,-0.404 44.329,-0.536 66.667,4.167l-0,4.166c-3.094,0.602 -6.188,1.203 -9.375,1.823c-10.836,1.989 -10.836,1.989 -18.62,4.688c-13.529,2.594 -26.017,1.141 -39.714,-0c-5.263,-0.425 -10.527,-0.849 -15.95,-1.286c-6.027,-0.524 -6.027,-0.524 -12.175,-1.058l0,-4.167c14.438,-2.062 14.438,-2.062 29.167,-4.166l-0,-4.167Z" style="fill:#bababa;fill-rule:nonzero;"/><path d="M3758.33,3162.5c-1.375,4.125 -2.75,8.25 -4.166,12.5c-15.125,1.375 -30.25,2.75 -45.834,4.167l0,-8.334c-5.5,-1.375 -11,-2.75 -16.666,-4.166c22.531,-3.219 43.911,-4.573 66.666,-4.167Z" style="fill:#dedede;fill-rule:nonzero;"/><path d="M3637.5,3825l0,33.333c-6.875,-1.375 -13.75,-2.75 -20.833,-4.166c-1.375,-5.5 -2.75,-11 -4.167,-16.667c15.625,-12.5 15.625,-12.5 25,-12.5Z" style="fill:#ecebeb;fill-rule:nonzero;"/><path d="M3700,3995.83c-4.125,2.75 -8.25,5.5 -12.5,8.334l0,4.166c-22.74,0.464 -44.23,-0.347 -66.667,-4.166l0,-4.167c10.065,-1.515 20.133,-2.984 30.209,-4.427c2.841,-0.432 5.682,-0.865 8.61,-1.31c14.452,-2.035 26.469,-3.545 40.348,1.57Z" style="fill:#bfbfbd;fill-rule:nonzero;"/><path d="M5108.33,3679.17c7.813,1.041 7.813,1.041 16.667,4.166c5.208,8.594 5.208,8.594 8.333,16.667c-15.625,12.5 -15.625,12.5 -25,12.5l0,-33.333Z" style="fill:#d0d0d0;fill-rule:nonzero;"/><path d="M2604.17,5545.83c14.062,4.941 23.53,9.483 33.333,20.834c-11,2.75 -22,5.5 -33.333,8.333l-0,-29.167Z" style="fill:#eae9e7;fill-rule:nonzero;"/><path d="M4795.83,3845.83c1.375,2.75 2.75,5.5 4.167,8.334c-18.139,3.501 -35.185,4.615 -53.646,4.427c-4.802,-0.038 -9.603,-0.075 -14.551,-0.114c-3.62,-0.049 -7.24,-0.097 -10.97,-0.147c24.955,-12.869 47.388,-13.041 75,-12.5Z" style="fill:#e9e9e9;fill-rule:nonzero;"/><path d="M4216.67,3750l-0,29.167c-6.875,-1.375 -13.75,-2.75 -20.834,-4.167c-1.375,-5.5 -2.75,-11 -4.166,-16.667c12.5,-8.333 12.5,-8.333 25,-8.333Z" style="fill:#dfdfdf;fill-rule:nonzero;"/><path d="M4175,3929.17c-1.375,2.75 -2.75,5.5 -4.167,8.333c-17.91,5.427 -35.644,5.063 -54.166,4.167c-4.125,-2.75 -8.25,-5.5 -12.5,-8.334c23.835,-3.467 46.76,-4.668 70.833,-4.166Z" style="fill:#cdcdcd;fill-rule:nonzero;"/><path d="M4770.83,3475l0,16.667c-31.282,1.538 -31.282,1.538 -41.666,-6.25c-1.375,-2.063 -2.75,-4.125 -4.167,-6.25c15.518,-2.887 30.045,-4.631 45.833,-4.167Z" style="fill:#c0c0c0;fill-rule:nonzero;"/><path d="M5979.17,5175c-4.125,1.375 -8.25,2.75 -12.5,4.167c-5.037,8.334 -5.037,8.334 -8.334,16.666c-9.625,-2.75 -19.25,-5.5 -29.166,-8.333l-0,-8.333c33.482,-9.487 33.482,-9.487 50,-4.167Z" style="fill:#afafad;fill-rule:nonzero;"/><path d="M4487.5,3108.33c6.596,-0.226 13.194,-0.387 19.792,-0.521c3.673,-0.096 7.347,-0.193 11.132,-0.292c11.216,0.849 17.822,3.457 27.409,9.147l-8.333,-0l0,8.333c-6.778,-1.175 -13.547,-2.4 -20.313,-3.646c-5.655,-1.015 -5.655,-1.015 -11.425,-2.051c-9.929,-2.636 -9.929,-2.636 -18.262,-10.97Z" style="fill:#ddd;fill-rule:nonzero;"/><path d="M5595.83,3812.5l0,8.333c-21.145,5.263 -40.533,9.46 -62.5,8.334l0,-8.334c8.071,-1.401 16.145,-2.787 24.219,-4.166c6.743,-1.16 6.743,-1.16 13.623,-2.344c12.158,-1.823 12.158,-1.823 24.658,-1.823Z" style="fill:#e7e7e7;fill-rule:nonzero;"/><path d="M5887.5,3816.67c-14.749,9.832 -24.963,10.775 -42.448,13.021c-5.301,0.698 -10.602,1.396 -16.064,2.115c-4.066,0.505 -8.132,1.01 -12.321,1.53c-1.375,-2.75 -2.75,-5.5 -4.167,-8.333c25.284,-5.121 49.162,-9.482 75,-8.333Z" style="fill:#e6e5e4;fill-rule:nonzero;"/><path d="M5304.17,3600l-0,29.167c-9.037,-2.109 -16.666,-4.166 -25,-8.334c9.408,-20.833 9.408,-20.833 25,-20.833Z" style="fill:#e6e6e6;fill-rule:nonzero;"/><path d="M5183.33,3441.67c-1.375,4.125 -2.75,8.25 -4.166,12.5c-4.641,0.515 -4.641,0.515 -9.375,1.041c-13.918,3.796 -18.998,8.777 -28.125,19.792c-5.147,8.888 -5.147,8.888 -8.334,16.667c0.496,-25.264 0.496,-25.264 10.352,-35.743c14.675,-10.911 20.625,-14.257 39.648,-14.257Z" style="fill:#313130;fill-rule:nonzero;"/><path d="M4387.5,5375c-8.333,2.778 -16.667,5.556 -25,8.333c-4.039,1.633 -8.078,3.266 -12.24,4.948c-15.303,4.06 -26.53,2.298 -41.927,-0.781l0,-4.167c10.062,-2.215 20.13,-4.377 30.209,-6.51c2.841,-0.631 5.682,-1.262 8.61,-1.913c14.588,-3.045 26.194,-5.418 40.348,0.09Z" style="fill:#b2b1b0;fill-rule:nonzero;"/><path d="M3020.83,3908.33l16.667,0l0,25c-9.036,-2.108 -16.665,-4.166 -25,-8.333c2.75,-5.5 5.5,-11 8.333,-16.667Z" style="fill:#e0e0e0;fill-rule:nonzero;"/><path d="M4562.5,3754.17c10.313,4.125 10.313,4.125 20.833,8.333c-1.375,5.5 -2.75,11 -4.166,16.667c-5.5,1.375 -11,2.75 -16.667,4.166l0,-29.166Z" style="fill:#efefef;fill-rule:nonzero;"/><path d="M4770.83,3675l0,29.167c-5.5,-1.375 -11,-2.75 -16.666,-4.167c-1.375,-5.5 -2.75,-11 -4.167,-16.667c12.5,-8.333 12.5,-8.333 20.833,-8.333Z" style="fill:#edeeee;fill-rule:nonzero;"/><path d="M5616.67,3054.17c-2.75,20.625 -5.5,41.25 -8.334,62.5l-4.166,-0c-0.112,-9.635 -0.193,-19.271 -0.261,-28.907c-0.048,-5.365 -0.096,-10.731 -0.146,-16.259c0.535,-17.334 0.535,-17.334 12.907,-17.334Z" style="fill:#edeeee;fill-rule:nonzero;"/><path d="M5020.83,3025c12.375,1.375 24.75,2.75 37.5,4.167c-4.125,1.375 -8.25,2.75 -12.5,4.166l0,8.334c-17.875,-1.375 -35.75,-2.75 -54.166,-4.167l-0,-4.167c14.437,-2.062 14.437,-2.062 29.166,-4.166l0,-4.167Z" style="fill:#c4c4c4;fill-rule:nonzero;"/><path d="M3333.33,3191.67c13.75,1.375 27.5,2.75 41.667,4.166c-4.125,2.063 -4.125,2.063 -8.333,4.167l-0,8.333c-18.563,-4.125 -18.563,-4.125 -37.5,-8.333c1.375,-2.75 2.75,-5.5 4.166,-8.333Z" style="fill:#dbdbdb;fill-rule:nonzero;"/><path d="M3836.2,4076.82c4.141,0.424 8.282,0.849 12.549,1.286c3.163,0.349 6.327,0.698 9.586,1.058l0,4.166c-26.812,2.063 -26.812,2.063 -54.166,4.167c-1.375,-2.75 -2.75,-5.5 -4.167,-8.333c13.796,-4.599 21.865,-3.862 36.198,-2.344Z" style="fill:#cacaca;fill-rule:nonzero;"/><path d="M4337.5,5387.5l0,8.333c-15.125,1.375 -30.25,2.75 -45.833,4.167c8.774,-17.548 28.679,-12.824 45.833,-12.5Z" style="fill:#e8e7e6;fill-rule:nonzero;"/><path d="M3966.67,4091.67l-0,45.833l-8.334,0c-0.808,-6.854 -1.583,-13.713 -2.343,-20.573c-0.435,-3.819 -0.871,-7.638 -1.319,-11.572c-0.166,-3.142 -0.333,-6.284 -0.504,-9.522c4.166,-4.166 4.166,-4.166 12.5,-4.166Z" style="fill:#e8e8e7;fill-rule:nonzero;"/><path d="M5641.67,3612.5c10.312,2.063 10.312,2.063 20.833,4.167c-1.375,5.5 -2.75,11 -4.167,16.666c-5.5,1.375 -11,2.75 -16.666,4.167l-0,-25Z" style="fill:#e6e6e5;fill-rule:nonzero;"/><path d="M6079.17,3658.33c5.5,1.375 11,2.75 16.666,4.167c-1.289,2.063 -2.578,4.125 -3.906,6.25c-6.162,14.499 -7.027,28.085 -8.594,43.75l-4.166,0l-0,-54.167Z" style="fill:#eaeae9;fill-rule:nonzero;"/><path d="M5158.33,3429.17l41.667,-0l0,8.333c-11,1.375 -22,2.75 -33.333,4.167c-2.75,-4.125 -5.5,-8.25 -8.334,-12.5Z" style="fill:#ebebeb;fill-rule:nonzero;"/><path d="M4812.5,3033.33c-4.167,12.5 -4.167,12.5 -12.5,16.667c-4.723,8.403 -4.723,8.403 -8.333,16.667l-0,-25c-4.125,-1.375 -8.25,-2.75 -12.5,-4.167c12.201,-4.067 20.65,-4.509 33.333,-4.167Z" style="fill:#cccbcc;fill-rule:nonzero;"/><path d="M5337.5,5179.17c-4.125,6.187 -4.125,6.187 -8.333,12.5l-0,-8.334c-2.321,1.461 -4.641,2.922 -7.032,4.427c-11.88,4.817 -18.323,3.114 -30.468,-0.26l-0,-4.167c15.56,-3.661 29.865,-4.538 45.833,-4.166Zm-16.667,12.5l8.334,4.166l-8.334,-4.166Z" style="fill:#b6b5b4;fill-rule:nonzero;"/><path d="M4616.67,3866.67l-0,8.333c2.75,1.375 5.5,2.75 8.333,4.167c-4.167,4.166 -4.167,4.166 -16.927,4.427c-6.059,-0.129 -6.059,-0.129 -12.24,-0.261c4.695,-14.084 6.164,-16.666 20.834,-16.666Z" style="fill:#e4e4e4;fill-rule:nonzero;"/><path d="M4175,3545.83l41.667,0l-0,12.5l-16.667,0l0,-8.333l-25,0l0,-4.167Z" style="fill:#cfcfcf;fill-rule:nonzero;"/><path d="M3383.33,5679.17c-8.333,8.333 -8.333,8.333 -23.437,8.854c-4.641,-0.172 -9.281,-0.344 -14.063,-0.521c1.375,-2.75 2.75,-5.5 4.167,-8.333c13.684,-3.961 19.571,-4.588 33.333,-0Z" style="fill:#e9e9e9;fill-rule:nonzero;"/><path d="M3687.5,5516.67c-10.916,10.915 -18.132,11.284 -33.333,12.5c-9.896,-3.907 -9.896,-3.907 -16.667,-8.334c16.886,-4.093 32.661,-4.506 50,-4.166Z" style="fill:#b4b4b4;fill-rule:nonzero;"/><path d="M5629.17,5120.83c-1.375,2.75 -2.75,5.5 -4.167,8.334c-11.979,0.521 -11.979,0.521 -25,-0c-2.75,-2.75 -5.5,-5.5 -8.333,-8.334c14.075,-3.519 23.644,-4.618 37.5,0Z" style="fill:#b9b9b8;fill-rule:nonzero;"/><path d="M3350,4179.17l0,4.166c-19.964,6.788 -33.568,9.191 -54.167,4.167l0,-4.167c18.372,-4.593 35.35,-4.485 54.167,-4.166Z" style="fill:#b0b0b0;fill-rule:nonzero;"/><path d="M5062.5,3929.17l25,-0c-1.375,6.875 -2.75,13.75 -4.167,20.833c-1.375,-4.125 -2.75,-8.25 -4.166,-12.5c-5.5,1.375 -11,2.75 -16.667,4.167l0,-12.5Z" style="fill:#e7e7e7;fill-rule:nonzero;"/><path d="M5658.33,3716.67l0,4.166c-19.964,6.788 -33.568,9.191 -54.166,4.167l-0,-4.167c18.371,-4.593 35.349,-4.485 54.166,-4.166Z" style="fill:#b3b3b3;fill-rule:nonzero;"/></svg>