<?xml version="1.0" encoding="UTF-8" standalone="no"?><!DOCTYPE svg PUBLIC "-//W3C//DTD SVG 1.1//EN" "http://www.w3.org/Graphics/SVG/1.1/DTD/svg11.dtd"><svg width="100%" height="100%" viewBox="0 0 8534 8534" version="1.1" xmlns="http://www.w3.org/2000/svg" xmlns:xlink="http://www.w3.org/1999/xlink" xml:space="preserve" xmlns:serif="http://www.serif.com/" style="fill-rule:evenodd;clip-rule:evenodd;stroke-linejoin:round;stroke-miterlimit:2;"><path d="M6479.95,2198.96c2.935,-0.086 5.871,-0.172 8.895,-0.26c38.727,-0.28 71.905,13.494 105.428,31.771c3.351,1.795 6.702,3.591 10.155,5.441c40.523,21.936 80.144,45.453 119.844,68.832c22.392,13.13 44.898,26.062 67.397,39.008c78.991,45.508 157.651,91.581 236.28,137.711c3.818,2.24 3.818,2.24 7.714,4.525c2.554,1.499 5.108,2.997 7.739,4.541c18.038,10.58 36.088,21.139 54.142,31.69c47.767,27.926 95.437,55.982 142.823,84.554c39.029,23.524 78.355,46.479 117.868,69.18c34.674,19.927 69.245,40.023 103.746,60.247c2.562,1.502 5.125,3.003 7.764,4.55c35.063,20.561 69.967,41.371 104.764,62.378c28.189,16.958 56.713,33.299 85.316,49.548c22.535,12.81 44.953,25.79 67.26,38.993c25.813,15.272 51.795,30.223 77.865,45.052c31.524,17.971 62.963,36.081 94.271,54.427c3.752,2.179 7.505,4.359 11.372,6.605c82.647,48.646 134.027,111.822 160.436,205.158c6.358,29.345 5.165,59.283 5.08,89.148c0.008,6.882 0.02,13.763 0.034,20.644c0.023,18.878 -0.015,37.756 -0.069,56.634c-0.03,11.953 -0.046,23.906 -0.057,35.859c-0.168,150.775 -2.286,301.523 -4.782,452.274c-0.139,8.406 -0.277,16.812 -0.414,25.218c-0.528,32.288 -1.077,64.576 -1.654,96.863c-0.176,9.854 -0.347,19.708 -0.515,29.562c-0.836,48.697 -2.059,97.298 -4.692,145.934c-1.525,28.307 -2.273,56.582 -2.63,84.929c-0.112,7.405 -0.112,7.405 -0.225,14.96c-0.157,10.399 -0.309,20.799 -0.455,31.198c-0.236,16.257 -0.503,32.512 -0.781,48.768c-1.125,65.319 -1.125,65.319 -1.885,130.644c-0.132,13.637 -0.338,27.272 -0.565,40.908c-0.082,5.979 -0.129,11.959 -0.137,17.939c-0.094,60.374 -14.053,118.446 -57.28,163.109c-20.859,16.384 -43.335,26.71 -68.62,34.277c-13.073,3.995 -25.831,8.692 -38.672,13.379c-23.204,8.323 -46.515,15.922 -70.117,23.031c-10.309,3.119 -20.59,6.291 -30.859,9.538c-28.301,8.946 -56.556,17.694 -85.368,24.886c-11.011,3.369 -21.257,7.879 -31.786,12.508c-13.755,5.589 -28.001,9.387 -42.286,13.371c-20.06,5.733 -39.851,11.614 -59.375,19.01c-18.413,6.95 -37.076,12.574 -55.99,17.969c-27.172,7.774 -53.84,16.578 -80.469,26.041c-34.554,12.272 -69.259,23.451 -104.431,33.836c-49.083,14.191 -49.083,14.191 -97.392,30.748c-17.23,6.497 -34.65,11.861 -52.343,16.927c-35.027,10.078 -69.741,21.107 -104.427,32.291c-4.222,1.361 -4.222,1.361 -8.529,2.75c-37.561,12.132 -74.906,24.775 -112.086,38.034c-29.812,10.548 -60.018,19.389 -90.406,28.101c-35.324,10.251 -70.307,21.382 -104.865,33.98c-18.014,6.541 -35.945,12.387 -54.427,17.448c-34.852,9.642 -69.002,21.342 -103.25,32.922c-31.839,10.742 -63.825,20.834 -95.969,30.62c-9.794,3.026 -19.587,6.059 -29.378,9.098c-4.938,1.532 -9.875,3.064 -14.963,4.643c-5.047,1.567 -10.094,3.134 -15.294,4.748c-2.64,0.82 -5.281,1.639 -8.001,2.484c-35.1,10.896 -70.199,21.796 -105.264,32.803c-9.852,3.075 -19.716,6.112 -29.59,9.114c-40.39,12.364 -80.271,26.011 -120.115,40.035c-31.137,10.91 -62.464,20.919 -94.061,30.408c-5.445,1.639 -5.445,1.639 -11,3.311c-13.16,3.948 -26.327,7.871 -39.497,11.785c-61.67,18.416 -122.772,38.328 -183.735,58.948c-37.035,12.513 -74.129,24.446 -111.684,35.307c-25.212,7.315 -50.079,15.485 -74.918,23.982c-32.023,10.831 -64.097,21.04 -96.603,30.313c-22.922,6.611 -45.207,14.566 -67.587,22.795c-13.98,4.878 -27.933,9.033 -42.206,12.957c-30.511,8.609 -60.471,18.522 -90.479,28.727c-44.384,14.984 -88.927,29.217 -133.764,42.798c-38.24,11.648 -76.112,24.29 -113.988,37.065c-27.977,9.397 -55.942,18.031 -84.409,25.817c-13.908,4.069 -27.408,8.871 -41.016,13.851c-30.604,11.188 -61.655,20.294 -92.96,29.265c-39.733,11.411 -78.848,24.403 -117.912,37.906c-4.198,1.451 -4.198,1.451 -8.48,2.93c-11.647,4.025 -23.294,8.051 -34.936,12.09c-37.514,13.011 -75.112,25.436 -113.16,36.82c-3.611,1.086 -7.222,2.173 -10.943,3.293c-9.977,2.994 -19.959,5.972 -29.942,8.946c-31.104,9.301 -62.136,18.806 -93.099,28.565c-10.662,3.36 -21.339,6.667 -32.031,9.928c-30.954,9.481 -61.554,19.671 -92.058,30.518c-27.981,9.931 -56.017,19.013 -84.561,27.176c-39.923,11.48 -79.369,24.489 -118.899,37.242c-12.96,4.169 -25.93,8.302 -38.906,12.421c-45.17,14.352 -90.214,29.029 -135.143,44.116c-41.116,13.806 -82.237,27.255 -123.939,39.185c-41.66,11.959 -82.714,25.35 -123.552,39.86c-24.745,8.786 -49.472,17.071 -74.739,24.218c-33.87,9.584 -67.172,20.797 -100.521,32.032c-39.025,13.137 -78.076,25.857 -117.676,37.158c-17.1,4.924 -34.093,10.129 -51.074,15.446c-7.67,2.401 -7.67,2.401 -15.495,4.85c-27.906,8.937 -55.614,18.329 -83.215,28.168c-32.326,11.498 -64.573,22.14 -97.644,31.288c-45.507,12.694 -90.059,27.912 -134.636,43.506c-32.591,11.392 -65.145,22.32 -98.349,31.775c-68.59,19.604 -136.165,42.775 -203.767,65.499c-28.866,9.651 -57.815,18.68 -87.084,27.013c-17.855,5.131 -35.284,10.994 -52.727,17.38c-20.208,7.398 -40.508,13.903 -61.198,19.792c-32.273,9.199 -64.036,19.748 -95.833,30.468c-37.721,12.706 -75.364,24.796 -113.802,35.157c-6.526,2.215 -6.526,2.215 -13.184,4.476c-20.983,5.064 -40.826,5.391 -62.337,5.42c-3.985,0.102 -7.971,0.204 -12.077,0.309c-54.897,0.22 -97.049,-19.292 -141.829,-49.528c-4.5,-2.959 -9,-5.918 -13.636,-8.966c-9.143,-6.016 -18.268,-12.058 -27.376,-18.128c-18.349,-12.214 -36.846,-24.197 -55.342,-36.187c-5.013,-3.268 -5.013,-3.268 -10.128,-6.601c-25.153,-16.39 -50.457,-32.531 -75.81,-48.608c-31.93,-20.247 -63.679,-40.751 -95.312,-61.458c-38.476,-25.177 -77.23,-49.868 -116.156,-74.341c-70.381,-44.314 -140.128,-89.568 -209.711,-135.12c-47.09,-30.816 -94.301,-61.413 -141.831,-91.547c-25.465,-16.159 -50.796,-32.509 -76.052,-48.992c-26.423,-17.243 -52.969,-34.261 -79.688,-51.042c-29.633,-18.614 -59.003,-37.602 -88.281,-56.771c-42.08,-27.54 -84.486,-54.517 -127.083,-81.25c-44.009,-27.644 -87.822,-55.546 -131.349,-83.943c-29.785,-19.404 -59.807,-38.414 -89.892,-57.349c-25.738,-16.203 -51.392,-32.537 -77.035,-48.89c-19.551,-12.465 -39.124,-24.889 -58.756,-37.227c-36.206,-22.788 -72.279,-45.771 -107.552,-69.986c-2.816,-1.881 -5.632,-3.762 -8.533,-5.699c-30.247,-21.154 -50.961,-48.253 -60.217,-84.406c-1.805,-18.725 -1.705,-37.36 -1.615,-56.16c-0.017,-5.696 -0.04,-11.393 -0.068,-17.089c-0.06,-15.592 -0.043,-31.184 -0.012,-46.777c0.02,-16.84 -0.032,-33.681 -0.075,-50.521c-0.071,-32.973 -0.075,-65.946 -0.053,-98.918c0.017,-26.814 0.011,-53.627 -0.012,-80.44c-0.003,-3.819 -0.006,-7.638 -0.009,-11.573c-0.006,-7.759 -0.013,-15.518 -0.019,-23.277c-0.057,-72.748 -0.035,-145.496 0.013,-218.244c0.041,-66.486 -0.013,-132.971 -0.112,-199.457c-0.102,-68.325 -0.142,-136.649 -0.114,-204.974c0.014,-38.336 0.005,-76.671 -0.068,-115.007c-0.061,-32.645 -0.064,-65.289 0.009,-97.933c0.035,-16.64 0.044,-33.279 -0.02,-49.919c-0.058,-15.265 -0.037,-30.529 0.043,-45.794c0.023,-8.069 -0.035,-16.139 -0.097,-24.207c0.485,-58.272 17.341,-109.146 56.799,-152.711c34.521,-33.057 74.304,-41.709 119.442,-52.549c28.17,-6.836 55.836,-14.876 83.52,-23.46c33.069,-10.235 66.118,-19.838 99.632,-28.516c21.416,-5.587 42.791,-11.33 64.171,-17.057c4.47,-1.187 8.94,-2.374 13.546,-3.597c22.542,-6.037 44.911,-12.396 67.183,-19.368c26.691,-8.316 53.617,-15.289 80.729,-22.087c35.886,-9.135 71.43,-18.888 106.771,-29.948c34.742,-10.868 69.668,-20.458 104.948,-29.427c36.13,-9.186 71.941,-18.934 107.58,-29.868c32.002,-9.795 64.207,-18.801 96.451,-27.766c27.516,-7.651 54.986,-15.442 82.427,-23.356c37.633,-10.832 75.433,-20.994 113.269,-31.094c27.956,-7.491 55.748,-15.369 83.459,-23.715c29.132,-8.677 58.573,-16.123 88.008,-23.691c24.836,-6.424 49.317,-13.493 73.76,-21.288c19.859,-5.923 39.916,-10.972 59.994,-16.097c37.824,-9.673 75.121,-20.578 112.402,-32.156c28.087,-8.666 56.245,-16.114 84.814,-22.987c16.624,-4.178 32.991,-8.923 49.398,-13.867c27.961,-8.418 56.089,-15.933 84.375,-23.178c33.795,-8.67 67.214,-18.147 100.562,-28.393c26.032,-7.923 52.238,-14.891 78.605,-21.607c36.825,-9.385 73.099,-20.038 109.378,-31.335c29.755,-9.176 59.688,-17.007 89.943,-24.339c22.916,-5.58 45.355,-12.054 67.834,-19.212c23.369,-7.133 46.975,-13.376 70.563,-19.741c26.565,-7.187 53.035,-14.648 79.469,-22.3c30.345,-8.773 60.804,-16.917 91.407,-24.739c37.236,-9.537 73.975,-20.298 110.693,-31.656c26.205,-8.09 52.439,-15.526 78.987,-22.413c22.454,-5.868 44.757,-12.279 67.09,-18.587c34.628,-9.765 69.325,-19.156 104.167,-28.125c36.086,-9.304 71.838,-19.413 107.536,-30.097c52.362,-15.576 104.974,-30.01 157.873,-43.642c26.126,-6.768 52.048,-14.011 77.902,-21.749c74.508,-22.262 149.69,-42.33 224.658,-62.976c25.331,-6.978 50.648,-14.008 75.957,-21.065c16.087,-4.477 32.19,-8.89 48.31,-13.245c44.405,-12.002 88.663,-24.396 132.774,-37.441c33.951,-10.013 68.048,-19.467 102.163,-28.904c17.734,-4.913 35.458,-9.86 53.182,-14.807c3.635,-1.015 7.271,-2.029 11.017,-3.075c7.47,-2.084 14.94,-4.169 22.411,-6.254c11.771,-3.286 23.542,-6.57 35.314,-9.854c33.202,-9.264 66.403,-18.531 99.585,-27.871c40.327,-11.351 80.676,-22.507 121.222,-33.05c40.431,-10.563 80.62,-21.999 120.839,-33.336c21.828,-6.147 43.668,-12.254 65.507,-18.364c8.681,-2.43 17.361,-4.861 26.042,-7.291c17.361,-4.861 34.722,-9.723 52.083,-14.584c4.296,-1.202 8.591,-2.405 13.017,-3.644c8.694,-2.435 17.388,-4.869 26.082,-7.302c21.496,-6.018 42.99,-12.04 64.482,-18.074c46.691,-13.101 93.411,-26.087 140.169,-38.948c33.47,-9.208 66.909,-18.498 100.26,-28.125c50.975,-14.708 102.172,-28.618 153.342,-42.624c6.954,-1.905 13.907,-3.81 20.861,-5.716c3.379,-0.926 6.758,-1.852 10.24,-2.807c20.122,-5.529 40.199,-11.192 60.251,-16.969c24.059,-6.917 48.229,-13.239 72.494,-19.384c37.542,-9.642 74.61,-20.442 111.639,-31.882c36.298,-11.203 72.784,-21.496 109.455,-31.4c5.948,-1.609 5.948,-1.609 12.017,-3.251c41.45,-11.204 82.912,-22.358 124.408,-33.386c44.465,-11.847 88.728,-24.039 132.721,-37.534c30.125,-9.151 60.535,-17 91.033,-24.797c25.632,-6.605 50.987,-13.806 76.279,-21.605c37.92,-11.682 76.208,-21.681 114.685,-31.362c27.871,-7.064 55.329,-14.924 82.72,-23.673c22.466,-6.678 43.544,-8.6 66.918,-8.767Z" style="fill:#fcfcfc;fill-rule:nonzero;"/><path d="M7962.5,3183.33c18.004,15.629 21.108,35.53 25,58.334c1.575,23.78 1.331,47.435 0.991,71.253c-0.056,7.143 -0.108,14.286 -0.155,21.429c-0.18,23.274 -0.504,46.545 -0.836,69.818c-0.105,7.925 -0.209,15.851 -0.312,23.777c-0.747,55.965 -1.736,111.925 -2.779,167.885c-0.358,19.277 -0.706,38.554 -1.054,57.831c-0.826,45.705 -1.667,91.41 -2.518,137.115c-0.768,41.236 -1.519,82.473 -2.254,123.71c-2.298,128.713 -4.716,257.423 -7.493,386.127c-0.247,11.443 -0.491,22.886 -0.735,34.329c-0.806,37.545 -1.698,75.086 -2.764,112.624c-0.285,10.326 -0.546,20.652 -0.779,30.979c-0.316,13.654 -0.729,27.301 -1.173,40.952c-0.068,3.77 -0.136,7.541 -0.206,11.425c-1.319,33.964 -9.3,68.26 -33.141,93.558c-22.679,17.607 -50.281,24.067 -77.537,31.439c-14.14,3.828 -28.196,7.937 -42.255,12.051c-2.86,0.828 -5.72,1.655 -8.666,2.508c-30.923,9.066 -61.388,19.465 -91.914,29.773c-23.811,8.003 -47.643,15.582 -71.816,22.406c-35.276,9.989 -69.713,22.264 -104.294,34.412c-28.511,9.96 -57.064,19.129 -86.124,27.33c-20.607,5.88 -40.733,12.747 -60.884,20.029c-25.407,9.181 -50.88,17.039 -76.937,24.219c-19.889,5.654 -39.419,12.383 -59,19.01c-26.853,9.087 -53.729,17.744 -80.99,25.521c-26.645,7.612 -52.653,16.454 -78.705,25.882c-19.939,7.146 -39.982,13.398 -60.357,19.17c-28.696,8.145 -56.778,17.656 -84.896,27.604c-30.173,10.66 -60.329,20.684 -91.104,29.444c-31.423,8.994 -62.486,19.082 -93.592,29.106c-24.762,7.98 -49.553,15.832 -74.419,23.482c-19.996,6.202 -39.711,12.867 -59.375,20.052c-24.124,8.78 -48.433,16.109 -73.099,23.153c-20.821,6.026 -41.177,12.91 -61.536,20.336c-30.662,11.152 -61.71,20.353 -93.152,29.044c-23.044,6.382 -45.681,13.493 -68.307,21.217c-10.415,3.509 -20.831,7.015 -31.25,10.514c-2.831,0.951 -5.662,1.902 -8.579,2.882c-55.91,18.772 -111.758,37.158 -168.504,53.27c-27.197,8.165 -54.274,16.606 -81.169,25.716c-13.337,4.384 -26.762,8.452 -40.185,12.566c-28.466,8.765 -56.55,18.476 -84.636,28.385c-30.641,10.791 -61.295,20.867 -92.544,29.736c-23.645,6.768 -46.921,14.464 -70.216,22.347c-25.994,8.791 -51.999,17.208 -78.385,24.74c-33.104,9.463 -65.653,20.407 -98.267,31.424c-30.974,10.409 -62.121,19.994 -93.467,29.21c-20.982,6.208 -41.464,13.167 -61.929,20.925c-15.021,5.286 -30.25,9.634 -45.556,14.014c-24.462,7.008 -48.472,14.771 -72.396,23.437c-22.82,8.252 -45.673,15.747 -69.01,22.396c-29.11,8.298 -57.783,17.657 -86.459,27.344c-30.673,10.353 -61.384,20.31 -92.448,29.427c-33.607,9.883 -66.795,20.778 -99.978,31.995c-45.35,15.24 -91.022,29.439 -136.717,43.602c-29.149,9.063 -58.047,18.49 -86.664,29.143c-14.937,5.381 -30.11,9.728 -45.391,14.01c-23.479,6.729 -46.376,14.183 -69.227,22.842c-12.663,4.467 -25.377,8.105 -38.325,11.663c-30.719,8.683 -60.909,18.639 -91.134,28.895c-43.112,14.617 -86.214,28.859 -130.008,41.32c-28.034,8.145 -55.77,17.289 -83.545,26.27c-4.254,1.374 -4.254,1.374 -8.595,2.777c-35.491,11.482 -70.905,23.177 -106.249,35.107c-22.016,7.368 -44.221,13.884 -66.54,20.266c-34.086,9.909 -67.622,21.481 -101.253,32.82c-23.47,7.88 -46.86,15.549 -70.749,22.05c-25.195,6.872 -49.623,15.489 -74.218,24.219c-30.411,10.781 -60.804,20.664 -91.928,29.167c-41.486,11.357 -81.986,25.306 -122.503,39.679c-29.046,10.244 -58.164,19.376 -87.829,27.655c-22.076,6.273 -43.882,13.342 -65.709,20.426c-8.452,2.732 -16.905,5.461 -25.358,8.187c-4.36,1.407 -8.72,2.813 -13.211,4.262c-12.537,4 -25.097,7.921 -37.668,11.813c-42.655,13.217 -84.966,27.402 -127.266,41.709c-33.587,11.349 -67.183,22.393 -101.25,32.223c-33.668,9.714 -66.85,20.664 -100.034,31.91c-46.222,15.653 -92.452,31.077 -139.291,44.798c-60.378,17.707 -120.296,37.007 -179.484,58.357c-28.662,10.233 -57.818,18.564 -87.052,26.983c-36.886,10.732 -73.322,22.511 -109.438,35.592c-33.868,12.226 -68.27,22.032 -102.93,31.738c-36.337,10.197 -72.8,20.758 -108.008,34.407c-13.281,4.948 -13.281,4.948 -25.781,4.948c-0.002,-2.953 -0.005,-5.906 -0.008,-8.948c-0.149,-175.225 -0.386,-350.45 -0.733,-525.675c-0.042,-21.063 -0.083,-42.127 -0.124,-63.191c-0.008,-4.193 -0.016,-8.386 -0.024,-12.706c-0.129,-67.797 -0.2,-135.594 -0.249,-203.391c-0.052,-69.623 -0.167,-139.246 -0.34,-208.869c-0.104,-42.923 -0.16,-85.845 -0.153,-128.768c0,-29.479 -0.061,-58.956 -0.17,-88.434c-0.06,-16.98 -0.095,-33.958 -0.057,-50.937c0.181,-90.14 -3.487,-166.18 -48.142,-246.581c-2.81,-5.539 -5.604,-11.087 -8.333,-16.666c45.419,-15.459 90.957,-30.033 137.064,-43.297c8.783,-2.541 17.55,-5.126 26.315,-7.729c30.01,-8.907 60.069,-17.543 90.266,-25.797c29.531,-8.095 58.721,-17.051 87.882,-26.383c24.301,-7.763 48.694,-15.118 73.186,-22.252c22.303,-6.497 44.556,-13.149 66.797,-19.855c39.845,-11.995 79.786,-23.654 119.743,-35.27c17.387,-5.056 34.757,-10.163 52.119,-15.306c26.407,-7.821 52.874,-15.337 79.44,-22.601c36.481,-10.004 72.483,-21.354 108.5,-32.898c78.886,-25.236 158.676,-48.259 238.587,-70.032c32.347,-8.835 64.471,-18.077 96.403,-28.32c27.218,-8.729 54.524,-16.966 82.031,-24.74c77.503,-21.905 154.613,-45.136 231.641,-68.652c76.829,-23.448 153.919,-45.98 231.071,-68.343c41.773,-12.126 83.467,-24.451 125.048,-37.223c30.654,-9.411 61.335,-18.163 92.367,-26.237c41.112,-11.077 81.761,-23.898 122.445,-36.442c43.421,-13.36 86.913,-26.05 130.799,-37.793c27.897,-7.528 55.409,-15.958 82.91,-24.808c38.742,-12.415 77.9,-23.321 117.052,-34.356c20.231,-5.711 40.455,-11.445 60.677,-17.187c4.805,-1.353 9.609,-2.706 14.558,-4.1c26.819,-7.617 53.293,-15.88 79.698,-24.825c17.568,-5.821 35.321,-10.879 53.14,-15.867c5.574,-1.579 5.574,-1.579 11.261,-3.19c15.352,-4.348 30.711,-8.671 46.07,-12.992c41.983,-11.828 83.736,-24.072 125.252,-37.455c25.496,-8.125 51.201,-15.242 77.053,-22.144c31.146,-8.32 61.629,-17.517 92.122,-27.995c28.403,-9.508 57.219,-17.643 86.003,-25.911c4.887,-1.413 9.775,-2.826 14.811,-4.281c20.655,-5.939 41.328,-11.8 62.06,-17.464c40.482,-11.015 40.482,-11.015 80.42,-23.828c23.08,-7.949 46.485,-14.27 70.052,-20.573c32.996,-8.831 65.588,-18.462 98.093,-28.946c21.604,-6.93 43.296,-13.279 65.189,-19.231c49.335,-13.438 98.121,-28.676 146.982,-43.728c42.89,-13.203 85.703,-26.143 129.141,-37.425c33.719,-8.997 66.976,-19.734 100.329,-29.986c46.034,-14.108 92.166,-27.85 138.489,-40.977c29.382,-8.458 58.636,-17.348 87.909,-26.172c176.19,-53.109 176.19,-53.109 249.542,-73.844c12.614,-3.606 25.207,-7.271 37.793,-10.97c41.715,-12.255 83.453,-24.304 125.44,-35.596c27.965,-7.532 55.658,-15.494 83.233,-24.353c27.801,-8.845 55.88,-16.679 83.954,-24.606c39.922,-11.296 79.572,-23.179 119.055,-35.919c59.178,-19.09 118.895,-36.372 178.6,-53.727c30.389,-8.843 60.718,-17.868 91.022,-26.995c21.896,-6.592 43.81,-13.114 65.75,-19.556c2.894,-0.85 5.788,-1.7 8.77,-2.576c14.212,-4.171 28.428,-8.329 42.646,-12.48c33.714,-9.859 67.341,-19.971 100.928,-30.257c34.664,-10.607 69.42,-20.8 104.303,-30.661c25.209,-7.143 50.311,-14.599 75.384,-22.204c23.432,-7.1 46.871,-13.897 70.573,-20.052c30.171,-7.884 59.924,-16.96 89.728,-26.123c45.903,-14.089 92.011,-27.466 138.137,-40.804Z" style="fill:#ebebeb;fill-rule:nonzero;"/><path d="M6479.95,2198.96c2.935,-0.086 5.871,-0.172 8.895,-0.26c38.727,-0.28 71.905,13.494 105.428,31.771c3.351,1.795 6.702,3.591 10.155,5.441c40.523,21.936 80.144,45.453 119.844,68.832c22.392,13.13 44.898,26.062 67.397,39.008c78.991,45.508 157.651,91.581 236.28,137.711c3.818,2.24 3.818,2.24 7.714,4.525c2.554,1.499 5.108,2.997 7.739,4.541c18.038,10.58 36.088,21.139 54.142,31.69c47.767,27.926 95.437,55.982 142.823,84.554c39.029,23.524 78.355,46.479 117.868,69.18c34.674,19.927 69.245,40.023 103.746,60.247c2.562,1.502 5.125,3.003 7.764,4.55c35.063,20.561 69.967,41.371 104.764,62.378c28.189,16.958 56.713,33.299 85.316,49.548c22.535,12.81 44.953,25.79 67.26,38.993c25.813,15.272 51.795,30.223 77.865,45.052c31.524,17.971 62.963,36.081 94.271,54.427c3.752,2.179 7.505,4.359 11.372,6.605c82.647,48.646 134.027,111.822 160.436,205.158c6.358,29.345 5.165,59.283 5.08,89.148c0.008,6.882 0.02,13.763 0.034,20.644c0.023,18.878 -0.015,37.756 -0.069,56.634c-0.03,11.953 -0.046,23.906 -0.057,35.859c-0.168,150.775 -2.286,301.523 -4.782,452.274c-0.139,8.406 -0.277,16.812 -0.414,25.218c-0.528,32.288 -1.077,64.576 -1.654,96.863c-0.176,9.854 -0.347,19.708 -0.515,29.562c-0.836,48.697 -2.059,97.298 -4.692,145.934c-1.525,28.307 -2.273,56.582 -2.63,84.929c-0.112,7.405 -0.112,7.405 -0.225,14.96c-0.157,10.399 -0.309,20.799 -0.455,31.198c-0.236,16.257 -0.503,32.512 -0.781,48.768c-1.125,65.319 -1.125,65.319 -1.885,130.644c-0.132,13.637 -0.338,27.272 -0.565,40.908c-0.082,5.979 -0.129,11.959 -0.137,17.939c-0.094,60.374 -14.053,118.446 -57.28,163.109c-20.859,16.384 -43.335,26.71 -68.62,34.277c-13.073,3.995 -25.831,8.692 -38.672,13.379c-23.204,8.323 -46.515,15.922 -70.117,23.031c-10.309,3.119 -20.59,6.291 -30.859,9.538c-28.301,8.946 -56.556,17.694 -85.368,24.886c-11.011,3.369 -21.257,7.879 -31.786,12.508c-13.755,5.589 -28.001,9.387 -42.286,13.371c-20.06,5.733 -39.851,11.614 -59.375,19.01c-18.413,6.95 -37.076,12.574 -55.99,17.969c-27.172,7.774 -53.84,16.578 -80.469,26.041c-34.554,12.272 -69.259,23.451 -104.431,33.836c-49.083,14.191 -49.083,14.191 -97.392,30.748c-17.23,6.497 -34.65,11.861 -52.343,16.927c-35.027,10.078 -69.741,21.107 -104.427,32.291c-4.222,1.361 -4.222,1.361 -8.529,2.75c-37.561,12.132 -74.906,24.775 -112.086,38.034c-29.812,10.548 -60.018,19.389 -90.406,28.101c-35.324,10.251 -70.307,21.382 -104.865,33.98c-18.014,6.541 -35.945,12.387 -54.427,17.448c-34.852,9.642 -69.002,21.342 -103.25,32.922c-31.839,10.742 -63.825,20.834 -95.969,30.62c-9.794,3.026 -19.587,6.059 -29.378,9.098c-4.938,1.532 -9.875,3.064 -14.963,4.643c-5.047,1.567 -10.094,3.134 -15.294,4.748c-2.64,0.82 -5.281,1.639 -8.001,2.484c-35.1,10.896 -70.199,21.796 -105.264,32.803c-9.852,3.075 -19.716,6.112 -29.59,9.114c-40.39,12.364 -80.271,26.011 -120.115,40.035c-31.137,10.91 -62.464,20.919 -94.061,30.408c-5.445,1.639 -5.445,1.639 -11,3.311c-13.16,3.948 -26.327,7.871 -39.497,11.785c-61.67,18.416 -122.772,38.328 -183.735,58.948c-37.035,12.513 -74.129,24.446 -111.684,35.307c-25.212,7.315 -50.079,15.485 -74.918,23.982c-32.023,10.831 -64.097,21.04 -96.603,30.313c-22.922,6.611 -45.207,14.566 -67.587,22.795c-13.98,4.878 -27.933,9.033 -42.206,12.957c-30.511,8.609 -60.471,18.522 -90.479,28.727c-44.384,14.984 -88.927,29.217 -133.764,42.798c-38.24,11.648 -76.112,24.29 -113.988,37.065c-27.977,9.397 -55.942,18.031 -84.409,25.817c-13.908,4.069 -27.408,8.871 -41.016,13.851c-30.604,11.188 -61.655,20.294 -92.96,29.265c-39.733,11.411 -78.848,24.403 -117.912,37.906c-4.198,1.451 -4.198,1.451 -8.48,2.93c-11.647,4.025 -23.294,8.051 -34.936,12.09c-37.514,13.011 -75.112,25.436 -113.16,36.82c-3.611,1.086 -7.222,2.173 -10.943,3.293c-9.977,2.994 -19.959,5.972 -29.942,8.946c-31.104,9.301 -62.136,18.806 -93.099,28.565c-10.662,3.36 -21.339,6.667 -32.031,9.928c-30.954,9.481 -61.554,19.671 -92.058,30.518c-27.981,9.931 -56.017,19.013 -84.561,27.176c-39.923,11.48 -79.369,24.489 -118.899,37.242c-12.96,4.169 -25.93,8.302 -38.906,12.421c-45.17,14.352 -90.214,29.029 -135.143,44.116c-41.116,13.806 -82.237,27.255 -123.939,39.185c-41.66,11.959 -82.714,25.35 -123.552,39.86c-24.745,8.786 -49.472,17.071 -74.739,24.218c-33.87,9.584 -67.172,20.797 -100.521,32.032c-39.025,13.137 -78.076,25.857 -117.676,37.158c-17.1,4.924 -34.093,10.129 -51.074,15.446c-7.67,2.401 -7.67,2.401 -15.495,4.85c-27.906,8.937 -55.614,18.329 -83.215,28.168c-32.326,11.498 -64.573,22.14 -97.644,31.288c-45.507,12.694 -90.059,27.912 -134.636,43.506c-32.591,11.392 -65.145,22.32 -98.349,31.775c-68.59,19.604 -136.165,42.775 -203.767,65.499c-28.866,9.651 -57.815,18.68 -87.084,27.013c-17.855,5.131 -35.284,10.994 -52.727,17.38c-20.208,7.398 -40.508,13.903 -61.198,19.792c-32.273,9.199 -64.036,19.748 -95.833,30.468c-37.721,12.706 -75.364,24.796 -113.802,35.157c-6.526,2.215 -6.526,2.215 -13.184,4.476c-20.983,5.064 -40.826,5.391 -62.337,5.42c-3.985,0.102 -7.971,0.204 -12.077,0.309c-54.897,0.22 -97.049,-19.292 -141.829,-49.528c-4.5,-2.959 -9,-5.918 -13.636,-8.966c-9.143,-6.016 -18.268,-12.058 -27.376,-18.128c-18.349,-12.214 -36.846,-24.197 -55.342,-36.187c-5.013,-3.268 -5.013,-3.268 -10.128,-6.601c-25.153,-16.39 -50.457,-32.531 -75.81,-48.608c-31.93,-20.247 -63.679,-40.751 -95.312,-61.458c-38.476,-25.177 -77.23,-49.868 -116.156,-74.341c-70.381,-44.314 -140.128,-89.568 -209.711,-135.12c-47.09,-30.816 -94.301,-61.413 -141.831,-91.547c-25.465,-16.159 -50.796,-32.509 -76.052,-48.992c-26.423,-17.243 -52.969,-34.261 -79.688,-51.042c-29.633,-18.614 -59.003,-37.602 -88.281,-56.771c-42.08,-27.54 -84.486,-54.517 -127.083,-81.25c-44.009,-27.644 -87.822,-55.546 -131.349,-83.943c-29.785,-19.404 -59.807,-38.414 -89.892,-57.349c-25.738,-16.203 -51.392,-32.537 -77.035,-48.89c-19.551,-12.465 -39.124,-24.889 -58.756,-37.227c-36.206,-22.788 -72.279,-45.771 -107.552,-69.986c-2.816,-1.881 -5.632,-3.762 -8.533,-5.699c-30.247,-21.154 -50.961,-48.253 -60.217,-84.406c-1.805,-18.725 -1.705,-37.36 -1.615,-56.16c-0.017,-5.696 -0.04,-11.393 -0.068,-17.089c-0.06,-15.592 -0.043,-31.184 -0.012,-46.777c0.02,-16.84 -0.032,-33.681 -0.075,-50.521c-0.071,-32.973 -0.075,-65.946 -0.053,-98.918c0.017,-26.814 0.011,-53.627 -0.012,-80.44c-0.003,-3.819 -0.006,-7.638 -0.009,-11.573c-0.006,-7.759 -0.013,-15.518 -0.019,-23.277c-0.057,-72.748 -0.035,-145.496 0.013,-218.244c0.041,-66.486 -0.013,-132.971 -0.112,-199.457c-0.102,-68.325 -0.142,-136.649 -0.114,-204.974c0.014,-38.336 0.005,-76.671 -0.068,-115.007c-0.061,-32.645 -0.064,-65.289 0.009,-97.933c0.035,-16.64 0.044,-33.279 -0.02,-49.919c-0.058,-15.265 -0.037,-30.529 0.043,-45.794c0.023,-8.069 -0.035,-16.139 -0.097,-24.207c0.485,-58.272 17.341,-109.146 56.799,-152.711c34.521,-33.057 74.304,-41.709 119.442,-52.549c28.17,-6.836 55.836,-14.876 83.52,-23.46c33.069,-10.235 66.118,-19.838 99.632,-28.516c21.416,-5.587 42.791,-11.33 64.171,-17.057c4.47,-1.187 8.94,-2.374 13.546,-3.597c22.542,-6.037 44.911,-12.396 67.183,-19.368c26.691,-8.316 53.617,-15.289 80.729,-22.087c35.886,-9.135 71.43,-18.888 106.771,-29.948c34.742,-10.868 69.668,-20.458 104.948,-29.427c36.13,-9.186 71.941,-18.934 107.58,-29.868c32.002,-9.795 64.207,-18.801 96.451,-27.766c27.516,-7.651 54.986,-15.442 82.427,-23.356c37.633,-10.832 75.433,-20.994 113.269,-31.094c27.956,-7.491 55.748,-15.369 83.459,-23.715c29.132,-8.677 58.573,-16.123 88.008,-23.691c24.836,-6.424 49.317,-13.493 73.76,-21.288c19.859,-5.923 39.916,-10.972 59.994,-16.097c37.824,-9.673 75.121,-20.578 112.402,-32.156c28.087,-8.666 56.245,-16.114 84.814,-22.987c16.624,-4.178 32.991,-8.923 49.398,-13.867c27.961,-8.418 56.089,-15.933 84.375,-23.178c33.795,-8.67 67.214,-18.147 100.562,-28.393c26.032,-7.923 52.238,-14.891 78.605,-21.607c36.825,-9.385 73.099,-20.038 109.378,-31.335c29.755,-9.176 59.688,-17.007 89.943,-24.339c22.916,-5.58 45.355,-12.054 67.834,-19.212c23.369,-7.133 46.975,-13.376 70.563,-19.741c26.565,-7.187 53.035,-14.648 79.469,-22.3c30.345,-8.773 60.804,-16.917 91.407,-24.739c37.236,-9.537 73.975,-20.298 110.693,-31.656c26.205,-8.09 52.439,-15.526 78.987,-22.413c22.454,-5.868 44.757,-12.279 67.09,-18.587c34.628,-9.765 69.325,-19.156 104.167,-28.125c36.086,-9.304 71.838,-19.413 107.536,-30.097c52.362,-15.576 104.974,-30.01 157.873,-43.642c26.126,-6.768 52.048,-14.011 77.902,-21.749c74.508,-22.262 149.69,-42.33 224.658,-62.976c25.331,-6.978 50.648,-14.008 75.957,-21.065c16.087,-4.477 32.19,-8.89 48.31,-13.245c44.405,-12.002 88.663,-24.396 132.774,-37.441c33.951,-10.013 68.048,-19.467 102.163,-28.904c17.734,-4.913 35.458,-9.86 53.182,-14.807c3.635,-1.015 7.271,-2.029 11.017,-3.075c7.47,-2.084 14.94,-4.169 22.411,-6.254c11.771,-3.286 23.542,-6.57 35.314,-9.854c33.202,-9.264 66.403,-18.531 99.585,-27.871c40.327,-11.351 80.676,-22.507 121.222,-33.05c40.431,-10.563 80.62,-21.999 120.839,-33.336c21.828,-6.147 43.668,-12.254 65.507,-18.364c8.681,-2.43 17.361,-4.861 26.042,-7.291c17.361,-4.861 34.722,-9.723 52.083,-14.584c4.296,-1.202 8.591,-2.405 13.017,-3.644c8.694,-2.435 17.388,-4.869 26.082,-7.302c21.496,-6.018 42.99,-12.04 64.482,-18.074c46.691,-13.101 93.411,-26.087 140.169,-38.948c33.47,-9.208 66.909,-18.498 100.26,-28.125c50.975,-14.708 102.172,-28.618 153.342,-42.624c6.954,-1.905 13.907,-3.81 20.861,-5.716c3.379,-0.926 6.758,-1.852 10.24,-2.807c20.122,-5.529 40.199,-11.192 60.251,-16.969c24.059,-6.917 48.229,-13.239 72.494,-19.384c37.542,-9.642 74.61,-20.442 111.639,-31.882c36.298,-11.203 72.784,-21.496 109.455,-31.4c5.948,-1.609 5.948,-1.609 12.017,-3.251c41.45,-11.204 82.912,-22.358 124.408,-33.386c44.465,-11.847 88.728,-24.039 132.721,-37.534c30.125,-9.151 60.535,-17 91.033,-24.797c25.632,-6.605 50.987,-13.806 76.279,-21.605c37.92,-11.682 76.208,-21.681 114.685,-31.362c27.871,-7.064 55.329,-14.924 82.72,-23.673c22.466,-6.678 43.544,-8.6 66.918,-8.767Zm-117.448,113.542c-3.137,0.91 -6.275,1.821 -9.507,2.759c-11.164,3.261 -22.318,6.553 -33.457,9.901c-26.594,7.953 -53.39,15.095 -80.213,22.236c-35.737,9.519 -71.309,19.451 -106.771,29.948c-36.746,10.864 -73.639,20.896 -110.748,30.444c-33.583,8.643 -66.994,17.822 -100.375,27.212c-8.899,2.492 -17.807,4.951 -26.719,7.399c-30.661,8.435 -61.24,17.088 -91.739,26.093c-42.58,12.566 -85.294,24.386 -128.231,35.675c-41.875,11.015 -83.371,22.816 -124.717,35.666c-34.345,10.625 -68.969,19.863 -103.795,28.764c-72.587,18.596 -144.902,38.604 -216.541,60.57c-37.677,11.526 -75.738,21.349 -113.909,31.094c-28.684,7.349 -57.13,15.157 -85.465,23.743c-24.004,7.205 -48.219,13.442 -72.501,19.642c-32.747,8.382 -65.118,17.566 -97.395,27.604c-35.902,11.16 -71.968,21.11 -108.39,30.42c-30.229,7.747 -60.232,16.126 -90.208,24.799c-25.834,7.46 -51.742,14.6 -77.704,21.604c-32.245,8.707 -64.324,17.881 -96.355,27.344c-37.585,11.098 -75.336,21.275 -113.296,31.006c-24.292,6.257 -48.22,13.189 -72.12,20.817c-20.779,6.197 -41.762,11.53 -62.761,16.927c-29.102,7.484 -57.888,15.367 -86.523,24.495c-22.499,6.754 -45.203,12.699 -67.904,18.734c-32.298,8.588 -64.426,17.466 -96.354,27.344c-41.403,12.76 -83.328,23.433 -125.32,34.048c-46.409,11.769 -92.379,24.811 -138.222,38.608c-32.903,9.803 -66.088,18.39 -99.334,26.944c-24.514,6.343 -48.689,13.282 -72.817,20.973c-27.555,8.274 -55.411,15.461 -83.21,22.866c-25.41,6.793 -50.714,13.786 -75.889,21.404c-29.824,8.999 -59.923,16.768 -90.104,24.48c-58.786,15.044 -116.997,31.812 -175.065,49.414c-44.184,13.273 -88.749,24.971 -133.372,36.663c-38.608,10.127 -76.974,20.678 -115.109,32.483c-33.656,10.298 -67.728,18.917 -101.817,27.649c-35.46,9.085 -70.759,18.609 -105.982,28.567c-11.466,3.223 -22.946,6.396 -34.426,9.566c-42.659,11.811 -85.171,23.927 -127.458,37.012c-38.666,11.95 -77.574,22.713 -116.687,33.096c-28.214,7.496 -56.317,15.283 -84.355,23.414c-30.863,8.943 -61.85,17.253 -92.968,25.26c-28.784,7.41 -57.259,15.264 -85.596,24.252c-50.944,15.542 -102.691,28.564 -154.248,41.894c-51.136,13.238 -101.939,27.575 -152.555,42.676c-35.381,10.55 -70.891,20.446 -106.56,29.981c-58.116,15.539 -116.023,31.681 -173.572,49.212c-38.16,11.621 -76.486,22.17 -115.171,31.916c-17.345,4.406 -34.447,8.987 -51.377,14.803c-23.784,8.16 -48.074,14.339 -72.38,20.735c-41.732,11.035 -41.732,11.035 -83.073,23.438c-27.916,8.877 -56.265,15.967 -84.625,23.266c-38.494,9.953 -76.678,20.863 -114.872,31.897c-15.506,4.45 -31.048,8.767 -46.596,13.066c-6.071,1.682 -12.142,3.364 -18.213,5.045c-3.195,0.885 -6.39,1.77 -9.682,2.682c-71.976,19.644 -71.976,19.644 -143.46,40.971c-31.552,9.935 -63.607,17.977 -95.619,26.278c-18.345,4.791 -36.627,9.816 -54.901,14.868l-0,8.333c2.486,1.321 4.973,2.643 7.535,4.004c30.021,16.148 59.385,33.275 88.721,50.618c22.809,13.482 45.696,26.829 68.587,40.17c4.204,2.45 8.407,4.899 12.737,7.424c8.645,5.038 17.289,10.076 25.933,15.114c13.248,7.725 26.491,15.46 39.732,23.197c39.189,22.895 78.407,45.718 117.855,68.164c25.416,14.583 50.627,29.514 75.861,44.41c8.382,4.943 16.772,9.876 25.164,14.803c26.774,15.719 53.522,31.48 80.209,47.347c55.987,33.278 112.176,66.16 168.636,98.632c54.166,31.165 108.1,62.735 161.946,94.45c64.961,38.251 130.081,76.209 195.573,113.542c42.652,24.316 85.118,48.909 127.344,73.958c50.297,29.773 100.629,59.485 151.042,89.063c2.537,1.489 5.074,2.977 7.689,4.511c41.776,24.502 83.687,48.762 125.724,72.814c18.358,10.538 36.63,21.092 54.428,32.554c3.791,2.437 3.791,2.437 7.658,4.923c6.171,4.029 12.282,8.15 18.384,12.281c17.462,8.125 35.024,-0.45 52.804,-5.741c4.274,-1.267 8.549,-2.535 12.953,-3.84c4.591,-1.371 9.183,-2.743 13.914,-4.156c4.797,-1.424 9.594,-2.849 14.536,-4.316c15.361,-4.564 30.719,-9.141 46.076,-13.718c10.145,-3.017 20.291,-6.034 30.437,-9.049c14.825,-4.407 29.649,-8.814 44.473,-13.225c29.761,-8.855 59.538,-17.657 89.332,-26.398c20.978,-6.159 41.917,-12.441 62.842,-18.776c27.622,-8.329 55.307,-16.382 83.073,-24.218c38.78,-10.962 77.337,-22.629 115.885,-34.375c42.01,-12.801 84.059,-25.388 126.324,-37.323c26.803,-7.578 53.49,-15.5 80.156,-23.545c44.286,-13.358 88.648,-26.459 133.008,-39.572c10.619,-3.142 21.236,-6.296 31.85,-9.456c25.215,-7.488 50.459,-14.821 75.814,-21.826c47.053,-13.004 93.786,-26.556 140.242,-41.56c24.123,-7.786 48.315,-15.076 72.73,-21.901c24.218,-6.813 48.312,-14.06 72.428,-21.224c9.885,-2.935 19.77,-5.87 29.655,-8.805c4.715,-1.4 9.429,-2.8 14.286,-4.242c16.768,-4.97 33.547,-9.899 50.33,-14.817c24.511,-7.188 48.979,-14.509 73.437,-21.875c43.913,-13.218 87.942,-26.025 131.975,-38.833c16.259,-4.737 32.509,-9.508 48.755,-14.292c2.831,-0.834 5.662,-1.667 8.579,-2.526c8.338,-2.456 16.676,-4.913 25.014,-7.37c20.246,-5.967 40.493,-11.926 60.745,-17.871c7.09,-2.082 14.179,-4.165 21.268,-6.25c42.697,-12.549 85.413,-24.985 128.309,-36.838c41.966,-11.597 83.565,-23.945 124.996,-37.325c24.142,-7.792 48.353,-15.088 72.788,-21.915c23.853,-6.709 47.573,-13.879 71.321,-20.947c56.836,-16.883 113.756,-33.43 170.915,-49.186c45.666,-12.614 91.017,-25.775 136.091,-40.369c53.946,-17.4 108.49,-32.849 163.047,-48.205c32.234,-9.148 64.187,-19.209 96.191,-29.129c33.257,-10.269 66.637,-19.983 100.14,-29.412c22.464,-6.358 44.619,-13.306 66.691,-20.928c13.052,-4.308 26.171,-8.109 39.403,-11.824c25.25,-7.16 50.383,-14.648 75.493,-22.282c45.283,-13.765 90.619,-27.01 136.404,-39.029c45.242,-11.894 89.659,-25.771 134.131,-40.251c34.014,-11.067 68.365,-20.628 102.914,-29.883c39.215,-10.535 77.904,-21.491 116.308,-34.7c23.032,-7.752 46.47,-14.136 69.854,-20.727c25.585,-7.218 51.084,-14.675 76.533,-22.356c24.717,-7.456 49.444,-14.873 74.219,-22.135c31.181,-9.142 62.337,-18.367 93.489,-27.605c36.978,-10.963 73.961,-21.907 110.97,-32.763c10.836,-3.18 21.664,-6.383 32.487,-9.603c30.555,-9.07 61.169,-17.852 91.891,-26.338c41.936,-11.596 83.512,-23.89 124.904,-37.297c36.692,-11.834 73.719,-22.341 110.826,-32.787c41.351,-11.702 82.473,-24.094 123.457,-37.017c27.367,-8.593 54.934,-16.436 82.549,-24.195c35.105,-9.905 70.089,-20.157 105.012,-30.685c36.045,-10.844 72.155,-21.464 108.269,-32.075c2.943,-0.865 5.887,-1.73 8.92,-2.621c14.521,-4.266 29.043,-8.53 43.565,-12.794c47.971,-14.085 95.934,-28.193 143.869,-42.398c4.81,-1.425 9.62,-2.85 14.576,-4.319c48.189,-14.291 96.336,-28.722 144.457,-43.239c62.831,-18.931 125.801,-37.39 188.764,-55.877c43.408,-12.746 86.813,-25.502 130.175,-38.403c61.15,-18.184 122.401,-35.959 183.861,-53.067c54.146,-15.076 108.104,-30.623 161.865,-47.022c1.783,-16.446 1.783,-16.446 -7.357,-25.453c-26.391,-23.326 -53.511,-41.422 -84.31,-58.401c-7.18,-4.05 -14.36,-8.099 -21.538,-12.154c-7.384,-4.164 -14.781,-8.305 -22.179,-12.443c-23.059,-12.925 -45.908,-26.218 -68.783,-39.465c-8.961,-5.172 -17.924,-10.343 -26.888,-15.511c-16.293,-9.4 -32.584,-18.802 -48.874,-28.207c-11.898,-6.869 -23.797,-13.737 -35.696,-20.605c-4.595,-2.654 -9.189,-5.307 -13.923,-8.041c-22.133,-12.773 -44.3,-25.477 -66.546,-38.053c-31.47,-17.922 -62.407,-36.732 -93.432,-55.411c-35.875,-21.57 -72.012,-42.637 -108.291,-63.518c-71.183,-41.093 -142.015,-82.799 -212.756,-124.647c-82.583,-48.843 -165.31,-97.423 -248.471,-145.276c-34.664,-19.967 -69.213,-40.125 -103.716,-60.367c-3.88,-2.275 -3.88,-2.275 -7.839,-4.597c-23.433,-13.748 -46.86,-27.507 -70.238,-41.35c-44.918,-26.586 -90.243,-52.438 -135.817,-77.886c-7.115,-4.011 -14.191,-8.094 -21.22,-12.254c-56.811,-33.182 -118.113,-6.823 -177.126,10.306Zm1580.68,875.781c-3.99,1.179 -7.98,2.358 -12.092,3.573c-4.329,1.313 -8.659,2.626 -13.119,3.979c-4.488,1.335 -8.976,2.67 -13.6,4.045c-33.848,10.098 -67.611,20.48 -101.378,30.843c-33.604,10.253 -67.392,19.765 -101.242,29.166c-63.687,17.699 -127.143,36.045 -190.085,56.244c-24.899,7.934 -49.979,14.98 -75.194,21.829c-22.157,6.071 -44.036,12.799 -65.897,19.853c-35.785,11.538 -71.885,21.749 -108.164,31.622c-25.737,7.062 -51.018,14.979 -76.291,23.549c-13.045,4.321 -26.174,7.898 -39.503,11.235c-55.247,14.431 -109.715,31.707 -164.044,49.246c-44.833,14.462 -89.949,27.488 -135.354,40.028c-26.488,7.327 -52.876,14.974 -79.248,22.705c-4.216,1.235 -8.432,2.471 -12.775,3.743c-7.967,2.335 -15.934,4.67 -23.901,7.005c-13.193,3.852 -26.406,7.631 -39.626,11.387c-34.257,9.746 -68.436,19.76 -102.621,29.753c-17.472,5.106 -34.953,10.183 -52.441,15.234c-41.128,11.899 -82.099,24.09 -122.853,37.215c-32.109,10.226 -64.579,19.086 -97.063,28.032c-24.29,6.738 -48.327,13.839 -72.158,22.058c-16.93,5.832 -33.61,11.017 -51.041,15.104c-23.854,5.66 -47.003,13.035 -70.313,20.573c-55.023,17.763 -110.457,33.848 -166.406,48.438c-42.907,11.311 -85.205,24.699 -127.604,37.76c-47.673,14.671 -95.316,29.227 -143.451,42.311c-26.178,7.185 -51.986,15.383 -77.826,23.689c-24.867,7.936 -49.855,14.714 -75.126,21.256c-18.496,4.933 -36.679,10.793 -54.899,16.65c-25.478,8.186 -50.999,15.899 -76.823,22.917c-32.851,8.933 -65.386,18.761 -97.925,28.766c-26.994,8.273 -54.067,16.182 -81.242,23.838c-27.517,7.755 -54.822,15.966 -82.031,24.74c-32.594,10.508 -65.467,19.589 -98.551,28.418c-21.688,5.842 -42.975,12.178 -64.21,19.498c-28.963,9.984 -58.31,17.926 -87.902,25.821c-25.432,6.839 -50.577,14.273 -75.639,22.356c-28.193,9.093 -56.496,17.4 -85.074,25.19c-26.748,7.32 -53.287,15.253 -79.825,23.297c-25.256,7.632 -50.595,14.921 -75.987,22.086c-27.775,7.847 -55.343,16.145 -82.812,25c-32.489,10.465 -65.245,19.578 -98.212,28.409c-27.889,7.508 -55.425,15.769 -82.932,24.564c-16.544,5.244 -33.159,10.215 -49.813,15.094c-3.043,0.893 -6.087,1.786 -9.222,2.707c-21.935,6.42 -43.904,12.719 -65.892,18.956c-3.061,0.869 -6.121,1.737 -9.274,2.632c-12.435,3.526 -24.871,7.049 -37.311,10.557c-34.223,9.657 -68.169,19.656 -101.839,31.128c-12.699,4.237 -25.497,7.729 -38.474,11.005c-64.733,16.928 -128.746,36.287 -192.421,56.81c-28.773,9.223 -57.705,17.7 -86.783,25.899c-70.035,19.762 -139.694,40.832 -209.29,62.08c-50.17,15.305 -100.452,30.113 -151.029,44.016c-49.427,13.595 -98.622,27.959 -147.717,42.706c-2.721,0.815 -5.441,1.631 -8.245,2.472c-32.237,9.666 -64.404,19.51 -96.442,29.82c-34.359,11.044 -69.064,20.687 -103.851,30.282c-26.508,7.352 -52.791,15.154 -78.962,23.624c-27.676,8.949 -55.495,16.962 -83.593,24.479c-35.647,9.539 -70.963,19.9 -106.226,30.768c-29.095,8.955 -58.278,17.555 -87.524,26.003c-29.564,8.548 -58.989,17.388 -88.282,26.823c-34.77,11.179 -69.856,21.039 -105.05,30.792c-62.149,17.25 -123.77,35.812 -184.793,56.708c4.017,8.292 8.116,16.317 12.972,24.153c12.577,20.485 20.555,41.297 27.653,64.128c0.877,2.821 1.754,5.642 2.658,8.549c7.444,24.853 11.394,48.147 11.461,74.074c0.023,4.955 0.046,9.911 0.069,15.017c0.004,5.406 0.008,10.813 0.013,16.384c0.019,5.831 0.039,11.661 0.062,17.492c0.056,16.001 0.087,32.002 0.114,48.002c0.034,17.263 0.091,34.526 0.145,51.789c0.09,29.902 0.166,59.804 0.232,89.706c0.094,43.233 0.211,86.466 0.334,129.7c0.199,70.143 0.379,140.286 0.548,210.43c0.164,68.137 0.336,136.274 0.521,204.411c0.011,4.2 0.022,8.4 0.034,12.727c0.057,21.071 0.114,42.142 0.172,63.213c0.474,174.797 0.919,349.594 1.345,524.391c12.737,-2.491 25.041,-5.202 37.402,-9.163c3.099,-0.986 6.197,-1.973 9.39,-2.989c3.293,-1.06 6.586,-2.12 9.979,-3.212c7.096,-2.263 14.192,-4.525 21.289,-6.787c3.628,-1.161 7.256,-2.322 10.994,-3.518c17.352,-5.544 34.721,-11.033 52.092,-16.518c3.337,-1.054 6.675,-2.108 10.113,-3.194c34.811,-10.982 69.684,-21.742 104.649,-32.223c39.957,-12.012 79.595,-24.252 118.766,-38.639c16.686,-5.971 33.588,-11.023 50.554,-16.13c22.284,-6.838 44.341,-14.378 66.439,-21.793c29.86,-10.008 59.717,-19.898 89.874,-28.982c68.15,-20.751 135.804,-43.088 203.499,-65.265c82.226,-26.926 82.226,-26.926 123.011,-39.321c25.881,-7.962 51.611,-16.406 77.366,-24.766c35.591,-11.552 71.22,-22.93 107.007,-33.87c14.416,-4.456 28.704,-9.196 42.993,-14.046c28.322,-9.538 56.827,-18.383 85.416,-27.084c35.866,-10.944 71.496,-22.417 107.028,-34.403c38.255,-12.901 76.425,-25.502 115.368,-36.17c41.238,-11.32 81.518,-25.219 121.832,-39.419c28.065,-9.871 56.202,-19.178 84.675,-27.803c19.073,-5.785 38.05,-11.864 57.035,-17.934c46.168,-14.733 46.168,-14.733 65.478,-20.784c53.358,-16.726 106.529,-34.02 159.694,-51.346c36.478,-11.875 73.017,-23.487 109.724,-34.641c41.066,-12.586 81.864,-25.838 122.586,-39.497c28.449,-9.519 57.035,-18.474 85.747,-27.169c33.014,-10.171 65.955,-20.496 98.698,-31.511c18.595,-6.25 37.213,-12.29 55.99,-17.968c23.947,-7.267 47.643,-15.183 71.354,-23.178c27.198,-9.164 54.439,-17.878 82.031,-25.781c26.451,-7.576 52.253,-16.355 78.109,-25.797c27.997,-9.992 56.516,-18.307 85.075,-26.53c33.208,-9.588 65.805,-19.947 98.291,-31.82c17.536,-6.253 35.258,-11.685 53.076,-17.074c48.791,-14.786 97.266,-30.496 145.605,-46.695c44.035,-14.749 88.127,-28.741 132.813,-41.407c31.768,-9.027 62.695,-19.511 93.75,-30.729c27.888,-9.988 56.001,-18.857 84.375,-27.344c54.047,-16.173 107.809,-32.935 161.278,-50.938c25.029,-8.42 50.122,-16.475 75.408,-24.094c17.026,-5.287 33.915,-10.955 50.814,-16.634c30.415,-10.214 60.966,-19.843 91.666,-29.167c38.044,-11.696 75.934,-23.751 113.626,-36.538c22.475,-7.583 45.11,-14.572 67.792,-21.509c24.321,-7.512 48.53,-15.371 72.749,-23.203c37.414,-12.1 74.9,-23.907 112.5,-35.417c48.14,-14.887 95.998,-30.547 143.774,-46.559c25.256,-8.447 50.558,-16.631 76.05,-24.339c47.318,-14.366 94.356,-29.568 141.232,-45.311c22.041,-7.381 44.18,-14.358 66.418,-21.128c58.041,-17.705 115.659,-36.627 173.168,-55.983c28.789,-9.664 57.655,-18.926 86.705,-27.771c18.911,-5.842 37.655,-12.152 56.403,-18.492c28.153,-9.45 56.342,-18.655 84.766,-27.262c18.122,-5.496 36.19,-11.163 54.261,-16.827c13.691,-4.29 27.387,-8.558 41.1,-12.779c38.257,-11.814 76.255,-24.319 114.193,-37.123c20.982,-7.056 42.005,-13.869 63.183,-20.316c30.327,-9.254 60.369,-19.321 90.414,-29.443c34.668,-11.68 69.383,-23.104 104.384,-33.759c17.069,-5.199 34.077,-10.585 51.084,-15.981c6.814,-2.154 13.629,-4.308 20.443,-6.461c9.68,-3.06 19.359,-6.121 29.037,-9.186c5.739,-1.816 11.48,-3.629 17.223,-5.437c5.494,-1.73 10.985,-3.47 16.473,-5.219c13.195,-4.159 26.363,-7.915 39.79,-11.262c31.511,-7.903 55.412,-15.599 75.732,-41.862c14.085,-29.027 19.229,-56.876 19.806,-88.837c0.137,-4.219 0.275,-8.437 0.416,-12.783c0.445,-14.449 0.773,-28.898 1.1,-43.35c0.298,-10.784 0.6,-21.568 0.906,-32.352c0.982,-35.698 1.769,-71.4 2.529,-107.104c0.253,-11.85 0.508,-23.7 0.764,-35.55c2.788,-129.738 5.189,-259.483 7.503,-389.231c0.737,-41.277 1.5,-82.554 2.268,-123.831c0.846,-45.46 1.675,-90.92 2.496,-136.38c0.344,-18.996 0.693,-37.993 1.047,-56.989c0.953,-51.338 1.814,-102.676 2.502,-154.019c0.213,-15.832 0.461,-31.664 0.738,-47.495c0.324,-18.827 0.56,-37.653 0.729,-56.482c0.075,-6.843 0.178,-13.686 0.313,-20.527c0.783,-40.724 -0.966,-78.1 -18.117,-115.903c-11.289,-5.645 -15.67,-2.805 -27.653,0.781Z" style="fill:#070707;fill-rule:nonzero;"/><path d="M570.833,4050c16.348,6.316 30.401,13.798 45.248,23.161c4.823,3.015 9.649,6.025 14.477,9.031c2.506,1.561 5.011,3.122 7.592,4.731c12.734,7.862 25.601,15.495 38.478,23.119c2.631,1.56 5.263,3.119 7.975,4.726c5.447,3.226 10.896,6.451 16.346,9.674c14.621,8.649 29.232,17.315 43.843,25.981c4.386,2.602 4.386,2.602 8.861,5.255c39.433,23.398 78.73,47.02 118.025,70.648c21.584,12.976 43.184,25.927 64.781,38.881c17.139,10.281 34.273,20.569 51.399,30.87c32.005,19.243 64.036,38.429 96.257,57.308c75.087,44.024 149.464,89.245 223.777,134.559c86.597,52.934 86.597,52.934 173.85,104.776c39.909,23.335 79.462,47.273 119.082,71.094c14.737,8.86 29.482,17.707 44.228,26.551c4.829,2.897 9.657,5.794 14.486,8.691c3.676,2.205 107.879,64.728 208.333,125c4.476,2.685 8.951,5.37 13.562,8.137c9.047,5.428 18.094,10.857 27.14,16.286c20.977,12.589 41.957,25.172 62.955,37.725c7.239,4.337 14.462,8.699 21.685,13.064c11.444,6.903 22.978,13.637 34.538,20.345c65.442,38.347 96.602,75.398 118.743,149.039c5.586,23.392 5.751,45.965 5.51,69.915c0.014,5.287 0.029,10.574 0.043,16.021c0.037,14.511 -0.028,29.019 -0.113,43.529c-0.072,15.709 -0.047,31.417 -0.035,47.126c0.009,27.162 -0.043,54.324 -0.137,81.485c-0.136,39.271 -0.179,78.541 -0.2,117.812c-0.036,63.727 -0.147,127.453 -0.305,191.179c-0.153,61.875 -0.271,123.749 -0.341,185.624c-0.005,3.819 -0.009,7.638 -0.014,11.573c-0.021,19.161 -0.043,38.321 -0.063,57.482c-0.173,158.757 -0.466,317.513 -0.839,476.269c-11.196,-5.531 -21.844,-11.339 -32.389,-18.034c-3.044,-1.927 -6.087,-3.854 -9.223,-5.839c-3.283,-2.091 -6.567,-4.182 -9.951,-6.336c-5.223,-3.313 -5.223,-3.313 -10.552,-6.693c-11.245,-7.136 -22.482,-14.283 -33.718,-21.432c-7.313,-4.644 -14.627,-9.288 -21.94,-13.932c-19.127,-12.151 -38.241,-24.324 -57.347,-36.507c-8.529,-5.438 -17.059,-10.874 -25.59,-16.309c-88.539,-56.414 -88.539,-56.414 -122.207,-79.085c-40.044,-26.964 -80.876,-52.716 -121.578,-78.672c-79.158,-50.495 -158.121,-101.271 -236.755,-152.578c-55.924,-36.487 -111.903,-72.84 -168.405,-108.427c-40.127,-25.3 -79.888,-51.159 -119.632,-77.055c-72.238,-47.051 -144.792,-93.6 -217.782,-139.477c-26.12,-16.473 -51.954,-33.366 -77.775,-50.301c-31.639,-20.743 -63.529,-40.925 -95.901,-60.502c-29.755,-18.03 -58.922,-36.909 -88.044,-55.939c-10.424,-6.789 -20.879,-13.528 -31.338,-20.262c-7.406,-4.78 -14.811,-9.559 -22.217,-14.339c-3.42,-2.196 -6.841,-4.392 -10.366,-6.655c-51.475,-33.311 -51.475,-33.311 -66.457,-48.293c-0.405,-6.929 -0.515,-13.875 -0.512,-20.815c-0.009,-4.537 -0.017,-9.074 -0.026,-13.748c0.013,-5.046 0.025,-10.092 0.037,-15.291c-0.003,-5.312 -0.007,-10.624 -0.011,-16.098c-0.009,-14.812 0.008,-29.625 0.029,-44.437c0.018,-15.949 0.012,-31.897 0.008,-47.845c-0.002,-27.654 0.011,-55.307 0.035,-82.961c0.034,-39.983 0.044,-79.967 0.05,-119.95c0.009,-64.863 0.037,-129.726 0.076,-194.589c0.038,-63.025 0.068,-126.05 0.085,-189.075c0.002,-3.882 0.003,-7.764 0.004,-11.764c0.005,-19.474 0.01,-38.948 0.016,-58.422c0.043,-161.668 0.116,-323.337 0.209,-485.005Z" style="fill:#b5b5b5;fill-rule:nonzero;"/><path d="M7962.5,3183.33c17.91,15.303 20.858,35.95 25,58.334c1.312,16.983 1.207,33.761 0.781,50.781c-0.056,4.364 -0.113,8.728 -0.171,13.224c-0.145,10.612 -0.349,21.219 -0.61,31.828c-19.17,8.619 -37.625,15.3 -58.04,20.573c-2.645,0.692 -5.289,1.385 -8.013,2.099c-8.359,2.186 -16.725,4.343 -25.093,6.495c-46.311,11.917 -46.311,11.917 -91.894,26.318c-19.201,6.34 -38.948,10.882 -58.553,15.788c-15.538,3.976 -30.597,8.194 -45.533,14.062c-20.299,7.902 -41.239,12.821 -62.353,18.05c-29.496,7.483 -58.508,15.49 -87.24,25.521c-34.606,12.04 -69.743,21.444 -105.163,30.777c-30.083,7.971 -59.902,16.526 -89.628,25.734c-45.986,14.227 -92.258,27.269 -138.65,40.104c-21.847,6.046 -43.684,12.13 -65.517,18.229c-4.34,1.212 -8.68,2.424 -13.152,3.673c-32.676,9.158 -65.243,18.658 -97.795,28.242c-25.998,7.611 -52.055,14.983 -78.164,22.203c-3.275,0.906 -6.549,1.811 -9.922,2.744c-16.221,4.483 -32.446,8.947 -48.677,13.39c-32.625,8.967 -64.989,18.461 -97.229,28.729c-20.445,6.452 -41.002,11.863 -61.838,16.88c-19.788,4.881 -39.302,10.668 -58.848,16.431c-4.261,1.247 -8.521,2.495 -12.911,3.78c-30.401,8.935 -60.706,18.165 -90.995,27.47c-27.067,8.308 -54.055,16.186 -81.608,22.737c-63.161,15.829 -125.495,35.484 -187.983,53.758c-20.897,6.109 -41.799,12.202 -62.701,18.296c-8.333,2.431 -16.667,4.861 -25,7.292c-16.667,4.861 -33.333,9.722 -50,14.583c-4.124,1.203 -8.249,2.407 -12.498,3.646c-8.34,2.432 -16.68,4.863 -25.02,7.292c-20.74,6.042 -41.472,12.109 -62.189,18.229c-43.45,12.805 -86.977,25.106 -130.762,36.719c-35.43,9.399 -70.533,19.399 -105.368,30.819c-20.105,6.578 -40.338,12.351 -60.766,17.84c-11.214,3.024 -22.397,6.14 -33.573,9.3c-40.439,11.416 -80.908,22.691 -121.484,33.61c-3.386,0.911 -6.771,1.823 -10.26,2.762c-16.812,4.523 -33.627,9.032 -50.448,13.523c-36.405,9.753 -72.523,20.102 -108.465,31.469c-58.262,18.103 -116.737,35.244 -175.521,51.562c-34.268,9.516 -68.362,19.458 -102.344,29.948c-34.139,10.526 -68.404,20.307 -102.902,29.584c-100.214,26.996 -199.727,56.651 -299.273,85.997c-21.901,6.446 -43.847,12.724 -65.81,18.957c-12.729,3.635 -25.426,7.371 -38.118,11.133c-50.316,14.874 -100.806,28.834 -151.551,42.152c-34.069,8.961 -67.444,18.629 -100.679,30.309c-21.179,6.943 -42.729,11.982 -64.421,17.057c-15.02,3.869 -29.435,8.546 -44.098,13.548c-14.947,4.881 -30.143,8.633 -45.387,12.461c-30.042,7.714 -59.704,16.325 -89.323,25.521c-33.847,10.488 -67.822,20.128 -102.084,29.166c-39.752,10.499 -79.154,21.891 -118.489,33.855c-44.055,13.397 -88.248,25.899 -132.758,37.686c-37.409,9.941 -74.462,20.854 -111.468,32.191c-86.758,26.528 -173.744,52.158 -261.432,75.434c-33.506,8.965 -66.646,18.857 -99.764,29.15c-30.561,9.419 -61.324,17.868 -92.235,26.06c-34.843,9.235 -69.338,19.012 -103.662,30.013c-25.213,8.021 -50.622,15.359 -76.025,22.753c-11.072,3.23 -22.138,6.481 -33.203,9.734c-47.244,13.864 -94.568,27.389 -142.003,40.586c-35.028,9.769 -69.95,19.879 -104.832,30.157c-23.02,6.769 -46.089,13.257 -69.281,19.414c-12.085,3.425 -23.923,7.425 -35.837,11.405c-8.183,2.411 -16.382,4.769 -24.593,7.08c-7.035,1.991 -7.035,1.991 -14.212,4.021c-4.984,1.407 -9.967,2.814 -15.102,4.264c-37.27,10.574 -74.439,21.389 -111.458,32.812c-38.063,11.745 -76.317,22.666 -114.749,33.139c-25.724,7.071 -50.95,15.019 -76.125,23.857c-10.428,3.16 -10.428,3.16 -22.928,3.16c-1.214,-3.776 -2.428,-7.551 -3.678,-11.442c-9.625,-28.601 -19.179,-52.983 -37.419,-77.425c-4.736,-6.966 -4.736,-6.966 -4.736,-15.299c45.419,-15.459 90.957,-30.033 137.064,-43.297c8.783,-2.541 17.55,-5.126 26.315,-7.729c30.01,-8.907 60.069,-17.543 90.267,-25.797c29.53,-8.095 58.72,-17.051 87.881,-26.383c24.301,-7.763 48.694,-15.118 73.186,-22.252c22.303,-6.497 44.556,-13.149 66.797,-19.855c39.845,-11.995 79.786,-23.654 119.743,-35.27c17.387,-5.056 34.757,-10.163 52.119,-15.306c26.407,-7.821 52.874,-15.337 79.44,-22.601c36.481,-10.004 72.483,-21.354 108.5,-32.898c78.886,-25.236 158.676,-48.259 238.587,-70.032c32.347,-8.835 64.471,-18.077 96.403,-28.32c27.218,-8.729 54.524,-16.966 82.031,-24.74c77.503,-21.905 154.613,-45.136 231.641,-68.652c76.829,-23.448 153.919,-45.98 231.071,-68.343c41.773,-12.126 83.467,-24.451 125.048,-37.223c30.654,-9.411 61.335,-18.163 92.367,-26.237c41.112,-11.077 81.761,-23.898 122.445,-36.442c43.421,-13.36 86.913,-26.05 130.799,-37.793c27.897,-7.528 55.409,-15.958 82.91,-24.808c38.742,-12.415 77.9,-23.321 117.052,-34.356c20.231,-5.711 40.455,-11.445 60.677,-17.187c4.805,-1.353 9.609,-2.706 14.558,-4.1c26.819,-7.617 53.293,-15.88 79.698,-24.825c17.568,-5.821 35.321,-10.879 53.14,-15.867c5.574,-1.579 5.574,-1.579 11.261,-3.19c15.352,-4.348 30.711,-8.671 46.07,-12.992c41.983,-11.828 83.736,-24.072 125.252,-37.455c25.496,-8.125 51.201,-15.242 77.053,-22.144c31.146,-8.32 61.629,-17.517 92.122,-27.995c28.403,-9.508 57.219,-17.643 86.003,-25.911c4.887,-1.413 9.775,-2.826 14.811,-4.281c20.655,-5.939 41.328,-11.8 62.06,-17.464c40.482,-11.015 40.482,-11.015 80.42,-23.828c23.08,-7.949 46.485,-14.27 70.052,-20.573c32.996,-8.831 65.588,-18.462 98.093,-28.946c21.604,-6.93 43.296,-13.279 65.189,-19.231c49.335,-13.438 98.121,-28.676 146.982,-43.728c42.89,-13.203 85.703,-26.143 129.141,-37.425c33.719,-8.997 66.976,-19.734 100.329,-29.986c46.034,-14.108 92.166,-27.85 138.489,-40.977c29.382,-8.458 58.636,-17.348 87.909,-26.172c176.19,-53.109 176.19,-53.109 249.542,-73.844c12.614,-3.606 25.207,-7.271 37.793,-10.97c41.715,-12.255 83.453,-24.304 125.44,-35.596c27.965,-7.532 55.658,-15.494 83.233,-24.353c27.801,-8.845 55.88,-16.679 83.954,-24.606c39.922,-11.296 79.572,-23.179 119.055,-35.919c59.178,-19.09 118.895,-36.372 178.6,-53.727c30.389,-8.843 60.718,-17.868 91.022,-26.995c21.896,-6.592 43.81,-13.114 65.75,-19.556c2.894,-0.85 5.788,-1.7 8.77,-2.576c14.212,-4.171 28.428,-8.329 42.646,-12.48c33.714,-9.859 67.341,-19.971 100.928,-30.257c34.664,-10.607 69.42,-20.8 104.303,-30.661c25.209,-7.143 50.311,-14.599 75.385,-22.204c23.431,-7.1 46.87,-13.897 70.572,-20.052c30.171,-7.884 59.924,-16.96 89.728,-26.123c45.903,-14.089 92.011,-27.466 138.137,-40.804Z" style="fill:#fbfbfa;fill-rule:nonzero;"/><path d="M7962.5,4537.5c-1.426,34.795 -7.425,62.699 -32.292,88.281c-23.831,18.761 -55.63,24.615 -84.375,32.552c-11.123,3.169 -22.23,6.396 -33.333,9.636c-2.859,0.827 -5.719,1.655 -8.665,2.507c-30.923,9.068 -61.388,19.466 -91.915,29.774c-23.811,8.003 -47.643,15.582 -71.816,22.406c-35.276,9.989 -69.713,22.264 -104.294,34.412c-28.511,9.96 -57.064,19.129 -86.124,27.33c-20.607,5.88 -40.733,12.747 -60.884,20.029c-25.407,9.181 -50.88,17.039 -76.937,24.219c-19.889,5.654 -39.419,12.383 -59,19.01c-26.853,9.087 -53.729,17.744 -80.99,25.521c-26.645,7.612 -52.653,16.454 -78.705,25.882c-19.939,7.146 -39.982,13.398 -60.358,19.17c-28.695,8.145 -56.777,17.656 -84.895,27.604c-30.173,10.66 -60.329,20.684 -91.104,29.444c-31.423,8.994 -62.486,19.082 -93.592,29.106c-24.762,7.98 -49.553,15.832 -74.419,23.482c-19.996,6.202 -39.711,12.867 -59.375,20.052c-24.124,8.78 -48.433,16.109 -73.099,23.153c-20.821,6.026 -41.177,12.91 -61.536,20.336c-30.662,11.152 -61.71,20.353 -93.152,29.044c-23.044,6.382 -45.681,13.493 -68.307,21.217c-10.415,3.509 -20.831,7.015 -31.25,10.514c-2.831,0.951 -5.662,1.902 -8.579,2.882c-55.91,18.772 -111.758,37.158 -168.504,53.27c-27.197,8.165 -54.274,16.606 -81.169,25.716c-13.337,4.384 -26.762,8.452 -40.185,12.566c-28.466,8.765 -56.55,18.476 -84.636,28.385c-30.641,10.791 -61.295,20.867 -92.544,29.736c-23.645,6.768 -46.921,14.464 -70.216,22.347c-25.994,8.791 -51.999,17.208 -78.385,24.74c-33.104,9.463 -65.653,20.407 -98.267,31.424c-30.974,10.409 -62.121,19.994 -93.467,29.21c-20.982,6.208 -41.464,13.167 -61.929,20.925c-15.021,5.286 -30.25,9.634 -45.556,14.014c-24.462,7.008 -48.472,14.771 -72.396,23.437c-22.82,8.252 -45.673,15.747 -69.01,22.396c-29.11,8.298 -57.783,17.657 -86.459,27.344c-30.673,10.353 -61.384,20.31 -92.448,29.427c-33.607,9.883 -66.795,20.778 -99.978,31.995c-45.35,15.24 -91.022,29.439 -136.717,43.602c-29.149,9.063 -58.047,18.49 -86.664,29.143c-14.937,5.381 -30.11,9.728 -45.391,14.01c-23.479,6.729 -46.376,14.183 -69.227,22.842c-12.663,4.467 -25.377,8.105 -38.325,11.663c-30.719,8.683 -60.909,18.639 -91.134,28.895c-43.112,14.617 -86.214,28.859 -130.008,41.32c-28.034,8.145 -55.77,17.289 -83.545,26.27c-4.254,1.374 -4.254,1.374 -8.595,2.777c-35.491,11.482 -70.905,23.177 -106.249,35.107c-22.016,7.368 -44.221,13.884 -66.54,20.266c-34.086,9.909 -67.622,21.481 -101.253,32.82c-23.47,7.88 -46.86,15.549 -70.749,22.05c-25.195,6.872 -49.623,15.489 -74.218,24.219c-30.411,10.781 -60.804,20.664 -91.928,29.167c-41.486,11.357 -81.986,25.306 -122.503,39.679c-29.046,10.244 -58.164,19.376 -87.829,27.655c-22.076,6.273 -43.882,13.342 -65.709,20.426c-8.452,2.732 -16.905,5.461 -25.358,8.187c-6.54,2.11 -6.54,2.11 -13.211,4.262c-12.537,4 -25.097,7.921 -37.668,11.813c-42.655,13.217 -84.966,27.402 -127.266,41.709c-33.587,11.349 -67.183,22.393 -101.25,32.223c-33.668,9.714 -66.85,20.664 -100.034,31.91c-46.222,15.653 -92.452,31.077 -139.291,44.798c-60.378,17.707 -120.296,37.007 -179.484,58.357c-28.662,10.233 -57.818,18.564 -87.052,26.983c-36.886,10.732 -73.322,22.511 -109.438,35.592c-33.868,12.226 -68.27,22.032 -102.93,31.738c-36.337,10.197 -72.8,20.758 -108.008,34.407c-13.281,4.948 -13.281,4.948 -25.781,4.948l-0,-1370.83l4.167,0c1.375,401.5 2.75,803 4.166,1216.67c20.625,-6.875 41.25,-13.75 62.5,-20.834c11.78,-3.557 23.581,-7.048 35.417,-10.416c27.408,-7.904 54.46,-16.558 81.445,-25.798c23.388,-7.87 47.035,-14.928 70.638,-22.119c2.625,-0.8 5.25,-1.6 7.954,-2.424c19.913,-6.067 39.833,-12.111 59.755,-18.149c3.027,-0.918 6.053,-1.836 9.172,-2.782c33.529,-10.17 67.07,-20.281 100.723,-30.03c20.421,-5.942 40.562,-12.371 60.678,-19.271c25.114,-8.531 50.403,-15.619 76.041,-22.396c37.968,-10.069 75.101,-21.929 112.287,-34.558c29.366,-9.956 58.848,-19.076 88.641,-27.649c20.679,-5.952 41.254,-12.234 61.833,-18.522c27.046,-8.259 54.096,-16.502 81.168,-24.675c71.796,-21.68 143.508,-43.622 215.186,-65.69c6.955,-2.141 6.955,-2.141 14.051,-4.326c44.003,-13.548 88.003,-27.108 131.999,-40.68c14.668,-4.525 29.338,-9.046 44.007,-13.566c9.783,-3.017 19.565,-6.039 29.346,-9.061c33.092,-10.207 66.231,-20.215 99.5,-29.836c18.954,-5.513 37.661,-11.558 56.357,-17.895c18.907,-6.401 37.799,-12.368 57.031,-17.709c27.396,-7.659 54.44,-16.267 81.511,-25c59.948,-19.314 120.15,-37.696 180.534,-55.599c10.656,-3.165 21.312,-6.333 31.966,-9.505c3.992,-1.188 3.992,-1.188 8.064,-2.399c35.574,-10.606 70.863,-21.825 105.998,-33.799c37.523,-12.78 75.309,-23.84 113.541,-34.286c44.27,-12.183 87.875,-26.248 131.526,-40.466c42.232,-13.744 84.438,-27.245 127.329,-38.789c34.178,-9.22 67.604,-20.344 101.126,-31.693c30.033,-10.134 60.19,-19.629 90.604,-28.552c20.707,-6.078 41.326,-12.41 61.916,-18.873c37.433,-11.747 74.981,-23.098 112.543,-34.424c34.585,-10.434 69.121,-21.004 103.589,-31.818c21.568,-6.759 43.19,-13.314 64.858,-19.745c27.146,-8.103 54.232,-16.361 81.259,-24.853c57.147,-17.942 114.337,-35.806 171.866,-52.49c29.669,-8.621 59.093,-17.937 88.516,-27.359c67.688,-21.654 135.497,-43.001 203.764,-62.766c27.282,-7.955 54.317,-16.66 81.376,-25.34c27.805,-8.898 55.689,-17.498 83.635,-25.942c36.115,-10.917 72.101,-22.196 108.039,-33.682c34.812,-11.126 69.701,-21.961 104.722,-32.415c45.088,-13.46 90.015,-27.349 134.863,-41.589c38.065,-12.048 76.321,-23.464 114.575,-34.892c21.599,-6.468 43.132,-13.11 64.624,-19.922c24.87,-7.871 49.888,-15.081 75,-22.135c46.25,-13.039 91.93,-27.717 137.637,-42.529c74.841,-24.22 149.964,-47.542 225.124,-70.752c4.706,-1.455 9.413,-2.909 14.262,-4.407c26.631,-8.214 53.296,-16.295 80.008,-24.239c27.948,-8.342 55.804,-16.93 83.594,-25.781c33.338,-10.61 66.831,-20.581 100.415,-30.376c46.568,-13.625 92.964,-27.73 139.169,-42.541c35.461,-11.366 71.052,-22.121 106.811,-32.507c47.169,-13.77 94.157,-28.095 140.979,-42.999c25.585,-8.124 51.253,-15.95 76.949,-23.713c34.488,-10.425 68.834,-21.237 103.125,-32.292c36.783,-11.841 73.649,-23.17 110.771,-33.892c13.275,-3.872 26.529,-7.816 39.783,-11.762c5.143,-1.531 10.287,-3.061 15.586,-4.638c10.319,-3.073 20.636,-6.149 30.953,-9.229c4.698,-1.396 9.395,-2.793 14.235,-4.232c4.241,-1.264 8.481,-2.528 12.85,-3.83c9.676,-2.729 9.676,-2.729 13.843,-2.729Z" style="fill:#b8b8b8;fill-rule:nonzero;"/><path d="M595.833,3933.33c15.118,2.822 26.558,9.227 39.795,16.927c4.513,2.614 9.025,5.227 13.674,7.92c4.834,2.828 9.667,5.657 14.5,8.487c4.974,2.892 9.948,5.784 14.923,8.674c27.11,15.773 54.115,31.712 80.951,47.948c72.521,43.806 146.255,85.637 219.66,127.936c78.64,45.334 157.107,90.972 235.31,137.056c24.591,14.481 49.24,28.86 73.896,43.229c37.881,22.078 75.723,44.222 113.541,66.407c49.386,28.967 98.821,57.85 148.289,86.678c12.256,7.146 24.505,14.302 36.754,21.46c38.346,22.403 76.723,44.747 115.222,66.888c46.67,26.842 93.107,54.044 139.389,81.55c60.145,35.733 120.623,70.893 181.18,105.924c13.196,7.636 26.39,15.275 39.583,22.916c4.087,2.366 8.175,4.732 12.386,7.17c13.239,7.669 26.469,15.353 39.697,23.039c4.08,2.36 8.159,4.721 12.362,7.153c72.525,42.196 119.406,76.391 144.502,159.969c14.011,53.843 9.947,111.382 9.654,166.619c-0.073,17.183 -0.047,34.366 -0.035,51.548c0.009,29.699 -0.043,59.398 -0.137,89.097c-0.136,42.939 -0.179,85.877 -0.2,128.816c-0.036,69.681 -0.147,139.362 -0.305,209.043c-0.153,67.65 -0.271,135.3 -0.342,202.95c-0.004,4.177 -0.009,8.354 -0.013,12.657c-0.022,20.956 -0.043,41.911 -0.064,62.866c-0.172,173.58 -0.465,347.16 -0.838,520.74c-31.665,-1.557 -55.168,-10.733 -83.334,-25c-0.002,-2.782 -0.005,-5.563 -0.007,-8.429c-0.15,-164.995 -0.386,-329.989 -0.734,-494.984c-0.042,-19.828 -0.083,-39.656 -0.123,-59.484c-0.008,-3.947 -0.017,-7.894 -0.025,-11.961c-0.129,-63.845 -0.2,-127.689 -0.249,-191.534c-0.052,-65.55 -0.166,-131.1 -0.339,-196.651c-0.105,-40.421 -0.161,-80.842 -0.154,-121.263c0.001,-27.75 -0.061,-55.499 -0.169,-83.248c-0.061,-15.99 -0.096,-31.98 -0.057,-47.97c0.041,-17.387 -0.047,-34.772 -0.147,-52.159c0.032,-4.986 0.065,-9.971 0.098,-15.108c-0.689,-68.387 -24.272,-131.187 -70.034,-182.004c-31.122,-27.877 -67.51,-48.426 -103.545,-69.217c-13.485,-7.784 -26.933,-15.632 -40.384,-23.475c-2.638,-1.536 -5.276,-3.073 -7.994,-4.656c-20.054,-11.695 -39.96,-23.606 -59.73,-35.774c-2.819,-1.734 -5.637,-3.468 -8.541,-5.255c-6.055,-3.728 -12.109,-7.457 -18.162,-11.188c-22.565,-13.863 -45.197,-27.616 -67.829,-41.369c-3.781,-2.298 -3.781,-2.298 -7.638,-4.643c-36.004,-21.872 -72.168,-43.454 -108.49,-64.794c-34.268,-20.178 -68.236,-40.839 -102.198,-61.524c-28.149,-17.14 -56.327,-34.211 -84.799,-50.81c-48.543,-28.325 -96.419,-57.779 -144.424,-87.004c-22.251,-13.545 -44.51,-27.076 -66.774,-40.6c-2.404,-1.461 -4.808,-2.921 -7.285,-4.426c-47.109,-28.613 -94.352,-57.002 -141.645,-85.309c-9.145,-5.478 -18.286,-10.962 -27.424,-16.453c-34.862,-20.947 -69.798,-41.766 -104.785,-62.504c-39.414,-23.366 -78.818,-46.748 -118.079,-70.371c-35.264,-21.205 -70.613,-42.265 -105.99,-63.281c-2.825,-1.678 -5.651,-3.357 -8.562,-5.086c-47.274,-28.073 -94.666,-55.94 -142.161,-83.638c-24.395,-14.251 -48.601,-28.686 -72.454,-43.828c1.848,-25.875 7.981,-44.189 20.833,-66.667Z" style="fill:#9b9a99;fill-rule:nonzero;"/><path d="M1777.36,3682.79c9.296,0.022 18.592,0 27.888,-0.026c131.663,-0.085 277.726,21.758 377.287,115.885c26.85,28.478 46.535,61.161 48.454,100.83c-1.746,45.661 -27.056,81.153 -59.343,111.833c-50.824,41.117 -117.142,62.532 -179.98,76.188c-2.857,0.647 -5.714,1.294 -8.657,1.961c-119.683,26.027 -258.593,18.985 -374.677,-18.628c-5.038,-1.493 -10.076,-2.986 -15.267,-4.524c-68.368,-21.091 -141.517,-54.513 -176.399,-120.476c-11.224,-22.34 -14.677,-39.822 -14.323,-64.323c0.04,-3.139 0.081,-6.279 0.123,-9.514c0.751,-23.441 3.451,-40.762 18.366,-59.496c2.638,-3.362 5.275,-6.725 7.992,-10.189c66.287,-78.605 175.689,-108.969 275.181,-118.206c24.432,-1.49 48.887,-1.384 73.355,-1.315Z" style="fill:#050505;fill-rule:nonzero;"/><path d="M3300,3933.33c3.358,0.58 6.715,1.16 10.175,1.758c87.215,15.098 199.211,48.415 253.171,123.519c19.747,32.71 28.776,61.423 24.154,99.723c-16.312,56.837 -52.765,92.478 -103.491,120.968c-72.173,38.245 -160.083,58.963 -241.626,58.752c-3.457,0.004 -6.914,0.008 -10.476,0.012c-7.283,0.003 -14.567,-0.004 -21.85,-0.022c-11.008,-0.022 -22.015,-0 -33.022,0.027c-123.138,0.063 -264.683,-19.747 -360.368,-104.737c-2.648,-2.261 -5.296,-4.522 -8.024,-6.852c-24.832,-22.705 -44.465,-55.076 -47.136,-89.144c-0.96,-46.396 7.06,-74.692 38.932,-108.577c3.908,-3.924 3.908,-3.924 7.894,-7.927c2.39,-2.486 4.781,-4.973 7.243,-7.535c115.528,-111.076 340.201,-107.03 484.424,-79.965Z" style="fill:#060606;fill-rule:nonzero;"/><path d="M2296.21,4161.64c9.478,0.076 18.955,0.086 28.434,0.085c106.141,0.24 207.721,13.64 304.525,59.106c4.57,2.106 9.141,4.211 13.851,6.381c43.944,22.064 85.264,58.812 107.633,103.173c10.572,33.918 8.094,73.043 -6.901,105.03c-21.982,37.903 -51.195,61.169 -89.583,81.25c-6.961,3.682 -6.961,3.682 -14.063,7.438c-35.954,18.253 -71.608,28.724 -111.049,36.631c-8.222,1.764 -16.271,3.904 -24.384,6.11c-32.866,8.291 -66.966,8.858 -100.7,9.147c-3.885,0.033 -7.77,0.067 -11.774,0.102c-8.193,0.057 -16.387,0.102 -24.58,0.135c-8.183,0.047 -16.366,0.132 -24.549,0.256c-75.556,1.141 -150.066,-6.103 -221.714,-31.694c-3.554,-1.233 -7.109,-2.466 -10.772,-3.737c-71.071,-25.429 -138.945,-58.569 -173.473,-129.597c-11.977,-31.053 -12.77,-63.64 -1.692,-95.052c29.814,-65.675 87.56,-96.381 152.099,-121.224c31.314,-11.007 63.218,-18.27 95.817,-24.349c5.154,-1.08 5.154,-1.08 10.411,-2.182c34.318,-6.622 67.663,-7.296 102.464,-7.009Z" style="fill:#050605;fill-rule:nonzero;"/><path d="M3020.31,3553.39c18.482,17.208 30.626,36.826 42.187,59.115c1.552,2.557 3.104,5.113 4.704,7.747c10.386,25.523 7.314,59.729 -0.798,85.466c-30.303,64.641 -89.548,97.499 -153.898,121.895c-161.303,57.975 -365.584,50.687 -522.908,-16.491c-59.668,-28.404 -111.413,-60.163 -139.34,-123.096c-9.108,-28.179 -8.969,-59.573 2.344,-86.979c36.007,-69.631 97.699,-104.496 169.663,-128.503c181.239,-57.593 445.385,-45.067 598.045,80.846Z" style="fill:#060606;fill-rule:nonzero;"/><path d="M3971.04,3686.73c8.821,-0.009 17.639,-0.085 26.46,-0.164c40.34,-0.165 79.275,3.419 119.165,9.269c3.451,0.458 6.902,0.915 10.458,1.387c90.311,12.114 194.799,43.824 256.208,115.28c25.761,37.931 37.157,66.559 33.334,112.5c-9.415,43.322 -42.232,77.516 -77.767,102.376c-150.43,92.07 -353.318,93.049 -520.761,52.854c-33.684,-8.565 -65.957,-19.242 -97.306,-34.397c-4.49,-2.137 -8.98,-4.275 -13.606,-6.478c-51.562,-26.02 -90.785,-59.208 -111.915,-114.013c-9.25,-32.584 -7.365,-63.029 7.292,-93.571c4.505,-7.92 9.178,-15.747 14.063,-23.438c1.708,-2.734 3.416,-5.467 5.175,-8.284c48.978,-66.165 154.738,-94.94 231.901,-106.885c6.397,-0.741 6.397,-0.741 12.924,-1.497c3.064,-0.359 6.129,-0.718 9.286,-1.088c31.686,-3.327 63.266,-3.855 95.089,-3.851Z" style="fill:#060606;fill-rule:nonzero;"/><path d="M5193.96,3564.73c27.687,27.864 48.668,62.946 49.267,102.978c-1.195,46.473 -23.058,75.842 -55.729,107.292c-99.939,94.06 -259.896,99.662 -388.816,96.486c-34.808,-1.48 -68.701,-6.474 -102.851,-13.153c-3.232,-0.602 -6.465,-1.204 -9.796,-1.825c-91.533,-17.302 -180.808,-47.525 -244.37,-119.008c-23.249,-36.021 -29.538,-69.896 -25,-112.5c18.687,-58.407 62.688,-89.84 114.355,-118.066c187.569,-92.315 499.134,-82.097 662.94,57.796Z" style="fill:#060606;fill-rule:nonzero;"/><path d="M3446.08,3211.64c11.673,0.076 23.346,0.086 35.02,0.085c56.251,0.103 110.922,1.721 166.031,14.054c4.131,0.92 8.261,1.839 12.517,2.787c76.627,17.748 151.49,47.412 207.015,104.765c3.255,3.199 3.255,3.199 6.575,6.462c22.99,24.582 31.891,54.579 33.008,87.549c-1.504,41.389 -19.683,72.162 -47.917,101.823c-113.799,102.191 -293.999,102.49 -437.5,95.833c-32.628,-2.655 -64.141,-8.604 -95.833,-16.667c-5.419,-1.339 -5.419,-1.339 -10.948,-2.706c-83.263,-21.142 -169.217,-56.44 -216.298,-132.678c-15.277,-29.445 -20.221,-56.811 -14.421,-89.616c23.64,-69.789 76.749,-103.242 139.665,-134.358c29.433,-12.887 61.231,-19.628 92.59,-26.163c6.288,-1.322 12.553,-2.753 18.791,-4.291c36.903,-8.194 74.113,-7.131 111.705,-6.879Z" style="fill:#050505;fill-rule:nonzero;"/><path d="M5601.14,3223.68c11.5,0.013 22.995,-0.085 34.494,-0.191c69.429,-0.253 138.863,5.794 205.249,27.287c3.962,1.249 7.924,2.498 12.006,3.784c71.47,23.378 146.531,60.276 182.265,130.331c13.989,32.455 15.317,62.648 4.688,96.614c-24.128,59.681 -80.073,91.018 -136.154,115.17c-2.593,1.095 -5.186,2.191 -7.857,3.32c-5,2.122 -10.001,4.243 -15.153,6.429c-23.801,8.746 -48.763,12.571 -73.649,17.009c-4.831,0.902 -9.662,1.804 -14.64,2.734c-95.009,17.303 -193.485,18.122 -288.224,-1.172c-3.073,-0.602 -6.146,-1.204 -9.312,-1.825c-86.045,-17.194 -191.071,-49.616 -243.667,-125.096c-5.135,-8.96 -9.622,-17.758 -13.688,-27.246c-1.504,-3.179 -3.008,-6.359 -4.557,-9.635c-9.977,-29.585 -8.64,-67.789 4.557,-96.094c38.304,-64.518 105.516,-100.792 176.302,-120.345c17.511,-4.424 35.08,-8.28 52.865,-11.426c3.986,-0.739 7.972,-1.477 12.08,-2.239c40.83,-6.771 81.088,-7.507 122.395,-7.409Z" style="fill:#050505;fill-rule:nonzero;"/><path d="M6364.87,3002.77c10.675,0.099 21.346,0.085 32.021,0.058c43.358,0.072 85.241,3.057 128.109,9.676c3.888,0.586 7.776,1.172 11.782,1.775c91.571,14.72 198.309,49.067 255.438,127.017c23.556,36.193 28.941,65.927 24.447,108.708c-19.448,53.841 -62.509,88.401 -111.573,114.486c-166.702,74.143 -370.87,70.968 -541.08,9.505c-65.522,-25.344 -124.553,-64.872 -156.202,-129.378c-10.975,-33.957 -8.117,-73.296 7.032,-105.29c22.146,-38.113 51.624,-59.117 89.323,-80.99c3.206,-1.89 6.413,-3.781 9.716,-5.729c20.867,-11.375 42.6,-19.118 65.284,-26.042c2.587,-0.809 5.173,-1.618 7.839,-2.451c58.495,-16.891 117.283,-21.943 177.864,-21.345Z" style="fill:#060606;fill-rule:nonzero;"/><path d="M4289.84,2981.25c6.621,0.003 6.621,0.003 13.375,0.005c61.873,0.139 120.103,2.762 179.817,20.421c11.595,3.346 23.371,5.564 35.193,7.959c73.616,19.247 151.372,58.882 191.927,125c16.442,28.538 17.993,53.597 14.844,86.198c-15.537,56.189 -48.084,84.242 -96.769,112.561c-18.474,10.253 -37.53,17.862 -57.398,24.939c-4.468,1.746 -8.937,3.492 -13.541,5.29c-116.333,41.494 -253.658,44.035 -373.959,19.71c-3.079,-0.602 -6.158,-1.204 -9.33,-1.825c-89.833,-17.954 -188.9,-51.759 -242.753,-130.727c-3.597,-5.74 -7.08,-11.553 -10.417,-17.448c-1.557,-2.454 -3.115,-4.909 -4.72,-7.438c-10.912,-27.871 -7.36,-70.37 2.377,-98.291c31.83,-66.809 96.723,-96.141 162.044,-120.215c69.115,-22.749 137.205,-26.433 209.31,-26.139Z" style="fill:#060606;fill-rule:nonzero;"/><path d="M5099.22,2757.03c3.262,0.006 6.525,0.013 9.886,0.019c50.662,0.173 99.611,2.818 149.228,13.783c2.89,0.603 5.78,1.205 8.757,1.825c83.152,17.577 181.21,49.661 232.536,121.873c22.037,35.844 27.905,73.115 19.287,114.746c-2.767,6.869 -2.767,6.869 -10.58,19.89c-1.627,2.927 -3.255,5.854 -4.931,8.87c-39.1,65.462 -116.316,93.432 -186.735,111.963c-161.022,39.653 -359.376,28.724 -504.867,-54.948c-31.619,-20.236 -58.698,-41.971 -78.467,-74.219c-1.718,-2.717 -3.437,-5.435 -5.208,-8.235c-15.551,-28.834 -15.35,-59.814 -11.458,-91.765c4.773,-15.715 11.494,-28.209 20.833,-41.666c1.923,-2.847 3.846,-5.694 5.827,-8.627c51.006,-66.022 148.198,-94.243 227.031,-106.363c43.023,-5.514 85.513,-7.352 128.861,-7.146Z" style="fill:#050505;fill-rule:nonzero;"/><path d="M6141.67,2595.83c2.592,1.289 5.184,2.577 7.855,3.905c50.432,25.403 104.805,59.4 123.802,116.017c6.453,35.589 6.288,72.421 -12.517,103.972c-40.763,57.948 -95.631,83.41 -160.807,105.273c-3.631,1.278 -7.262,2.557 -11.003,3.874c-60.497,19.96 -122.46,23.403 -185.612,22.949c-5.621,-0.019 -5.621,-0.019 -11.357,-0.038c-57.174,-0.286 -111.589,-3.478 -167.028,-18.452c-3.529,-0.893 -7.059,-1.786 -10.695,-2.706c-80.305,-20.528 -164.373,-52.774 -210.138,-126.46c-11.205,-21.988 -14.802,-39.606 -14.584,-63.802c0.027,-3.113 0.054,-6.225 0.082,-9.431c1.166,-35.388 13.491,-59.302 37.158,-85.361c146.506,-135.552 444.221,-136.065 614.844,-49.74Z" style="fill:#060605;fill-rule:nonzero;"/><path d="M7121.35,2794.53c3.127,-0.011 6.254,-0.022 9.475,-0.033c55.067,-0.02 107.118,5.398 160.838,18.002c2.962,0.645 5.924,1.29 8.976,1.955c59.007,12.895 114.285,35.553 161.857,73.045c2.632,1.762 5.264,3.523 7.975,5.339c25.762,18.612 41.174,48.05 50.358,77.994c6.163,39.132 1.831,71.507 -20.833,104.167c-1.923,2.847 -3.846,5.693 -5.827,8.626c-56.218,72.771 -159.03,95.262 -245.198,106.332c-133.167,13.633 -308.485,0.955 -418.278,-85.645c-32.788,-28.188 -61.569,-56.67 -65.17,-101.986c-1.532,-43.815 3.99,-75.087 34.213,-108.837c87.426,-79.89 207.548,-98.578 321.614,-98.959Z" style="fill:#060606;fill-rule:nonzero;"/><path d="M6679.17,2412.5c5.296,1.3 10.591,2.6 16.048,3.939c59.235,16.508 119.314,50.832 151.676,104.769c14.817,29.374 15.671,57.56 7.536,89.209c-15.596,41.058 -53.536,70.868 -91.927,89.583c-12.185,5.046 -24.504,9.529 -36.979,13.802c-2.943,1.011 -5.886,2.022 -8.918,3.064c-47.13,15.035 -95.1,17.931 -144.22,17.783c-9.05,-0.014 -18.095,0.085 -27.144,0.19c-54.532,0.25 -107.057,-7.593 -158.781,-25.464c-3.114,-1.061 -6.228,-2.122 -9.437,-3.215c-55.448,-19.701 -102.421,-49.79 -131.188,-101.993c-10.543,-26.36 -14.112,-54.993 -4.248,-82.032c26.088,-53.94 69.784,-84.283 125.082,-105.468c100.669,-31.196 210.784,-29.363 312.5,-4.167Z" style="fill:#060606;fill-rule:nonzero;"/><path d="M3145.58,4007.56c9.553,-0.009 19.104,-0.085 28.656,-0.164c38.463,-0.15 75.3,2.421 113.265,9.27c3.997,0.715 7.994,1.43 12.111,2.167c70.639,13.448 152.097,34.563 199.347,93.666c6.805,16.332 7.646,29.278 1.042,45.833c-45.383,62.129 -133.046,78.561 -204.687,91.146c-141.336,21.62 -304.063,2.414 -423.959,-78.385c-14.739,-14.305 -24.588,-29.083 -26.839,-50.033c2.363,-22.817 18.303,-35.326 34.652,-50.228c71.185,-56.239 179.551,-63.281 266.412,-63.272Z" style="fill:#7e7e7d;fill-rule:nonzero;"/><path d="M2315.24,4245.06c8.648,-0.009 17.293,-0.085 25.94,-0.164c85.936,-0.374 174.806,16.217 252.832,53.02c3.144,1.48 6.287,2.96 9.525,4.485c26.716,13.384 55.462,31.552 67.298,60.098c2.578,17.397 1.402,29.208 -7.812,44.01c-44.541,55.583 -136.037,74.442 -203.432,82.301c-34.908,3.271 -69.862,4.035 -104.901,4.158c-4.506,0.016 -4.506,0.016 -9.103,0.033c-52.87,0.02 -102.429,-5.584 -153.918,-18.002c-5.706,-1.224 -11.413,-2.44 -17.123,-3.646c-53.901,-12.525 -117.142,-37.825 -153.711,-81.25c-5.735,-15.054 -6.809,-28.538 -4.166,-44.271c15.874,-35.355 52.013,-52.427 86.377,-65.965c69.585,-26.005 138.166,-34.815 212.194,-34.807Z" style="fill:#7e7e7d;fill-rule:nonzero;"/><path d="M1742.73,3769.84c3.734,-0.033 7.467,-0.067 11.314,-0.101c7.919,-0.058 15.837,-0.103 23.755,-0.136c7.922,-0.047 15.843,-0.131 23.763,-0.256c110.758,-1.736 240.565,17 325.575,94.911c10.503,11.137 14.412,17.748 15.837,33.138c-2.03,23.549 -11.74,34.694 -28.386,50.521c-87.179,73.072 -241.657,75.723 -349.349,67.61c-87.253,-9.554 -201.729,-28.515 -265.755,-94.173c-10.137,-16.895 -13.648,-30.853 -11.979,-50.521c14.858,-33.768 52.275,-55.888 85.124,-70.019c34.613,-11.589 70.747,-18.826 106.543,-25.814c3.76,-0.754 7.521,-1.509 11.395,-2.286c17.439,-2.411 34.576,-2.72 52.163,-2.874Z" style="fill:#80807f;fill-rule:nonzero;"/><path d="M3983.07,3769.27c2.782,-0.001 5.563,-0.001 8.429,-0.002c49.067,0.126 96.025,5.325 143.963,15.971c9.809,2.138 19.628,3.987 29.509,5.759c55.455,10.566 118.597,35.444 155.859,79.834c8.461,14.63 10.374,24.661 8.334,41.667c-23.134,44.417 -67.056,63.858 -112.5,79.167c-47.54,13.849 -96.23,24.212 -145.834,25c-3.577,0.101 -7.155,0.202 -10.842,0.307c-117.538,3.15 -272.583,-2.874 -364.158,-87.807c-13.784,-13.112 -16.329,-18.177 -18.75,-37.24c1.379,-23.705 14.417,-38.514 30.99,-54.427c72.118,-58.028 186.463,-68.341 275,-68.229Z" style="fill:#818180;fill-rule:nonzero;"/><path d="M4772.72,3540.67c3.226,-0.041 6.451,-0.082 9.774,-0.124c68.564,-0.689 134.279,-0.656 200.838,17.783c3.594,0.938 7.187,1.875 10.889,2.841c59.66,15.67 123.875,34.722 159.945,88.826c1.869,19.003 2.027,29.11 -6.25,46.354c-53.154,61.127 -145.728,80.141 -222.917,86.979c-11.89,0.597 -23.758,0.777 -35.661,0.847c-4.925,0.035 -4.925,0.035 -9.95,0.072c-6.915,0.039 -13.83,0.066 -20.745,0.082c-10.313,0.04 -20.622,0.17 -30.934,0.301c-46.534,0.31 -90.476,-4.482 -136.043,-13.802c-4.032,-0.806 -8.064,-1.612 -12.219,-2.443c-58.541,-12.56 -126.965,-33.453 -166.948,-80.89c-9.287,-15.872 -10.524,-27.372 -8.333,-45.833c20.957,-40.47 64.302,-59.531 105.55,-74.463c53.28,-16.399 107.243,-25.942 163.004,-26.53Z" style="fill:#80807f;fill-rule:nonzero;"/><path d="M2636.98,3531.25c5.055,-0.028 5.055,-0.028 10.211,-0.057c106.918,-0.241 243.338,14.999 323.643,93.807c9.918,11.098 16.157,18.207 17.285,33.236c-1.412,19.854 -6.796,32.008 -21.451,45.931c-77.439,64.828 -196.306,72.673 -292.969,72.656c-4.86,0.009 -4.86,0.009 -9.819,0.018c-80.382,-0.118 -160.567,-10.88 -234.712,-43.508c-6.566,-2.819 -6.566,-2.819 -13.265,-5.696c-32.11,-14.832 -68.675,-34.849 -82.569,-69.304c-1.994,-15.29 -0.818,-23.327 5.99,-37.239c69.576,-83.152 197.202,-89.673 297.656,-89.844Z" style="fill:#7f7f7e;fill-rule:nonzero;"/><path d="M3616.67,3308.33c3.401,0.76 6.802,1.519 10.306,2.301c64.878,14.963 142.931,34.859 185.673,90.115c7.779,14.675 6.628,24.492 4.021,40.918c-16.125,35.914 -54.516,54.022 -89.584,67.448c-54.53,19.787 -110.733,31.191 -168.75,32.552c-3.576,0.107 -7.153,0.215 -10.837,0.325c-119.221,3.253 -264.046,-9.058 -359.003,-89.909c-12.446,-13.123 -17.349,-26.32 -18.457,-43.978c1.947,-19.785 16.225,-32.607 29.964,-45.605c34.775,-28.264 77.85,-43.492 120.833,-54.167c5.038,-1.251 10.077,-2.503 15.267,-3.792c88.463,-19.266 192.587,-15.874 280.567,3.792Z" style="fill:#7f7f7f;fill-rule:nonzero;"/><path d="M5921.09,3381.25c5.568,4.747 11.048,9.6 16.406,14.583c2.277,2.057 4.555,4.115 6.901,6.234c10.942,11.215 14.077,19.512 17.057,34.912c-1.469,18.367 -9.488,29.42 -22.135,42.399c-97.358,77.855 -253.76,81.608 -372.709,69.029c-78.387,-10.145 -183.16,-27.946 -237.968,-91.376c-12.352,-17.703 -14.628,-31.478 -11.979,-52.864c13.024,-30.391 45.141,-46.69 74.365,-59.278c11.254,-4.147 22.538,-7.92 33.968,-11.556c2.799,-0.984 5.598,-1.969 8.482,-2.983c138.412,-48.225 365.908,-39.829 487.612,50.9Z" style="fill:#7e7e7e;fill-rule:nonzero;"/><path d="M4454.17,3083.33c3.016,0.646 6.033,1.291 9.141,1.955c63.977,14.013 120.559,37.883 168.202,83.202c8.464,15.088 10.252,27.485 5.99,44.01c-20.091,39.949 -70.414,56.793 -109.619,72.021c-142.824,45.977 -321.368,35.808 -457.341,-28.027c-29.214,-15.244 -61.256,-33.179 -74.707,-64.827c-2.628,-13.142 -1.971,-21.143 4.151,-33.122c34.719,-51.637 103.658,-69.664 161.489,-81.783c97.15,-18.286 196.556,-14.674 292.694,6.571Z" style="fill:#80807f;fill-rule:nonzero;"/><path d="M6367.57,3090.27c12.13,0.099 24.257,0.085 36.387,0.058c41.095,0.06 80.618,1.527 121.045,9.676c3.644,0.648 7.287,1.296 11.041,1.964c66.258,12.132 144.85,36.053 188.438,91.265c6.501,15.169 7.469,23.693 4.688,40.104c-31.147,49.552 -91.543,70.569 -146.062,83.382c-112.062,23.112 -230.721,19.649 -341.438,-8.382c-4.892,-1.234 -4.892,-1.234 -9.882,-2.494c-50.742,-13.455 -105.084,-36.742 -135.952,-80.839c-6.903,-13.807 -7.243,-26.856 -4.166,-41.667c25.444,-43.994 76.81,-63.608 123.348,-76.59c3.295,-0.85 6.59,-1.7 9.985,-2.576c6.296,-1.65 6.296,-1.65 12.72,-3.334c43.322,-10.059 85.497,-10.953 129.848,-10.567Z" style="fill:#7e7e7d;fill-rule:nonzero;"/><path d="M5085.02,2843.97c11.51,0.035 23.011,-0.085 34.52,-0.217c96.214,-0.38 225.582,18.134 297.909,88.534c10.83,11.735 19.442,21.467 21.614,37.76c-2.74,23.294 -15.346,36.809 -33.072,51.042c-99.763,70.108 -260.386,75.542 -376.879,55.635c-169.979,-31.912 -169.979,-31.912 -217.392,-91.312c-8.827,-17.044 -11.195,-24.875 -7.552,-43.75c15.287,-34.311 50.497,-52.084 83.333,-66.667c19.205,-7.06 38.437,-11.982 58.333,-16.667c4.436,-1.107 8.872,-2.215 13.442,-3.357c42.013,-9.57 82.74,-11.202 125.744,-11.001Z" style="fill:#7f7f7f;fill-rule:nonzero;"/><path d="M6171.18,2715.51c11.77,12.101 17.828,21.881 18.929,38.916c-3.467,21.842 -9.834,33.454 -26.823,47.77c-25.88,18.697 -53.966,29.536 -84.114,39.47c-2.583,0.964 -5.166,1.928 -7.827,2.921c-53.187,19.543 -106.797,19.821 -162.746,19.735c-5.568,0.001 -5.568,0.001 -11.249,0.002c-42.858,-0.113 -84.333,-1.772 -126.512,-10.158c-3.292,-0.63 -6.585,-1.259 -9.978,-1.908c-63.209,-12.713 -134.471,-32.806 -176.578,-84.99c-7.169,-12.536 -8.276,-22.699 -8.17,-36.963c10.093,-31.248 39.568,-45.713 66.715,-60.205c143.452,-72.222 401.907,-59.211 528.353,45.41Z" style="fill:#7e7e7d;fill-rule:nonzero;"/><path d="M7081.22,2882.19c3.396,-0.052 6.791,-0.104 10.29,-0.158c115.522,-1.431 238.709,0.622 329.098,83.752c10.844,11.448 16.31,18.847 19.499,34.472c-6.233,29.296 -24.559,43.532 -48.681,59.473c-22.457,12.705 -45.896,20.631 -70.59,27.767c-2.662,0.823 -5.324,1.646 -8.066,2.494c-89.987,26.985 -201.04,22.514 -291.934,1.673c-5.371,-1.112 -10.742,-2.224 -16.276,-3.369c-51.149,-11.89 -111.312,-34.377 -146.224,-75.798c-6.953,-11.65 -8.329,-16.479 -8.593,-30.469c7.727,-26.817 24.314,-39.381 47.867,-53.19c39.457,-21.686 79.144,-33.196 123.226,-41.341c3.717,-0.723 7.434,-1.447 11.263,-2.192c16.393,-2.356 32.593,-2.882 49.121,-3.114Z" style="fill:#80807f;fill-rule:nonzero;"/><path d="M6532.03,2481.51c5.339,-0.041 10.679,-0.083 16.18,-0.126c38.317,0.343 72.914,6.132 110.122,14.449c6.417,1.083 12.839,2.137 19.271,3.125c30.512,6.961 64.585,23.969 86.198,46.875c8.785,15.618 10.239,24.026 7.031,41.667c-25.188,35.264 -72.384,45.769 -112.5,54.167c-3.03,0.722 -6.06,1.445 -9.181,2.19c-14.344,2.433 -28.416,2.652 -42.918,2.676c-4.495,0.021 -4.495,0.021 -9.08,0.042c-6.335,0.021 -12.67,0.031 -19.006,0.03c-9.527,0.009 -19.052,0.085 -28.579,0.164c-72.499,0.283 -150.516,-9.623 -208.13,-58.146c-11.14,-11.628 -16.085,-18.49 -17.741,-34.717c12.743,-28.52 40.564,-41.766 67.969,-53.906c45.811,-15.977 92.201,-18.319 140.364,-18.49Z" style="fill:#7e7e7d;fill-rule:nonzero;"/><path d="M4195.83,3800c44.866,14.955 104.338,35.442 129.932,79.281c4.949,11.958 4.943,20.37 3.402,33.219c-18.064,34.683 -45.372,50.855 -79.948,66.146c-4.385,1.941 -4.385,1.941 -8.858,3.921c-14.579,6.165 -24.308,9.1 -40.361,9.1c-1.375,-63.25 -2.75,-126.5 -4.167,-191.667Z" style="fill:#5c5c5b;fill-rule:nonzero;"/><path d="M2541.67,4279.17c45.645,15.215 93.753,33.476 124.479,72.395c6.331,14.773 6.89,24.138 4.687,40.105c-18.208,42.209 -69.411,57.911 -108.724,74.576c-12.109,4.59 -12.109,4.59 -20.442,4.59l-0,-191.666Z" style="fill:#5c5c5b;fill-rule:nonzero;"/><path d="M3370.83,4037.5c48.404,16.135 92.965,35.152 126.823,74.219c7.195,14.676 7.681,22.005 5.876,37.76c-9.962,24.974 -29.294,38.48 -51.97,51.302c-4.694,2.723 -9.388,5.447 -14.225,8.252c-16.504,7.634 -16.504,7.634 -62.337,20.134c-1.375,-63.25 -2.75,-126.5 -4.167,-191.667Z" style="fill:#585857;fill-rule:nonzero;"/><path d="M2854.17,3562.5c48.403,16.135 92.964,35.152 126.823,74.219c8.45,17.238 8.063,28.516 2.343,46.614c-23.894,41.816 -77.967,56.443 -120.833,70.834l-4.167,-0c-1.375,-63.25 -2.75,-126.5 -4.166,-191.667Z" style="fill:#595958;fill-rule:nonzero;"/><path d="M5029.17,3575c49.527,11.006 95.864,31.296 125,75c1.869,19.003 2.027,29.11 -6.25,46.354c-31.704,36.459 -73.1,53.103 -118.75,66.146l-0,-187.5Z" style="fill:#5b5b5a;fill-rule:nonzero;"/><path d="M3691.67,3329.17c99.963,34.779 99.963,34.779 125,79.166c4.592,17.053 1.497,29.998 -5.729,46.094c-31.827,35.616 -74.189,53.345 -119.271,66.406c-2.75,-1.375 -5.5,-2.75 -8.334,-4.166c0.67,-2.388 1.34,-4.775 2.03,-7.235c2.104,-9.285 2.787,-17.506 2.993,-27.006c0.083,-3.419 0.166,-6.838 0.251,-10.361c0.07,-3.65 0.14,-7.301 0.211,-11.062c0.087,-3.769 0.174,-7.537 0.263,-11.419c0.272,-12.014 0.518,-24.028 0.763,-36.042c0.18,-8.155 0.362,-16.309 0.545,-24.463c0.446,-19.971 0.868,-39.941 1.278,-59.912Z" style="fill:#5a5a59;fill-rule:nonzero;"/><path d="M2016.67,3804.17c47.892,15.964 95.936,35.571 125,79.166c1.947,21.03 0.756,33.43 -12.5,50c-31.916,33.794 -67.991,47.206 -112.5,58.334l-0,-187.5Z" style="fill:#5a5a59;fill-rule:nonzero;"/><path d="M5833.33,3341.67c47.585,14.275 88.838,31.589 120.834,70.833c6.918,13.836 7.151,26.822 4.166,41.667c-17.348,33.368 -54.031,49.409 -87.5,62.5c-12.375,2.75 -24.75,5.5 -37.5,8.333l0,-183.333Z" style="fill:#5a5a5a;fill-rule:nonzero;"/><path d="M5312.5,2879.17c21.908,3.651 36.983,8.956 55.99,19.271c2.753,1.48 5.507,2.961 8.344,4.487c25.764,14.343 44.288,30.841 60.666,55.408c2.058,15.439 0.751,23.499 -6.25,37.5c-30.644,36.773 -71.987,55.82 -118.75,62.5l0,-179.166Z" style="fill:#5c5c5c;fill-rule:nonzero;"/><path d="M6604.17,3120.83c20.539,6.847 37.45,14.136 56.25,24.219c2.658,1.378 5.317,2.755 8.056,4.175c24.646,13.129 49.309,28.375 60.694,54.94c2.856,15.139 2.955,24.465 -5.371,37.711c-29.923,36.277 -67.61,51.38 -111.296,66.455l-4.167,0c-1.375,-61.875 -2.75,-123.75 -4.166,-187.5Z" style="fill:#595958;fill-rule:nonzero;"/><path d="M4516.67,3104.17c46.22,9.244 94.24,35.111 120.833,75c2.506,16.43 3.242,26.811 -4.183,41.748c-26.496,35.074 -74.494,55.392 -116.65,62.418l-0,-179.166Z" style="fill:#5a5a59;fill-rule:nonzero;"/><path d="M6079.17,2666.67c87.009,34.804 87.009,34.804 108.333,70.833c3.911,17.669 1.535,29.997 -5.99,46.354c-23.946,26.867 -55.656,43.155 -89.843,53.646l-12.5,0l-0,-170.833Z" style="fill:#595858;fill-rule:nonzero;"/><path d="M7329.17,2912.5c40.945,16.378 84.702,35.122 108.333,75c3.222,15.79 1.067,22.721 -5.729,37.24c-22.26,29.862 -59.491,47.825 -94.271,58.593l-8.333,0l-0,-170.833Z" style="fill:#575756;fill-rule:nonzero;"/><path d="M6687.5,2504.17c30.504,10.168 67.275,24.24 83.333,54.166c2.821,17.55 2.595,25.535 -7.812,40.105c-21.755,16.533 -44.835,28.266 -71.354,34.895c-1.375,-42.625 -2.75,-85.25 -4.167,-129.166Z" style="fill:#5c5c5b;fill-rule:nonzero;"/><path d="M6754.17,2429.17c13.75,6.875 27.5,13.75 41.666,20.833c-4.125,4.125 -8.25,8.25 -12.5,12.5c-11,-6.875 -22,-13.75 -33.333,-20.833c1.375,-4.125 2.75,-8.25 4.167,-12.5Z" style="fill:#e3e3e0;fill-rule:nonzero;"/><path d="M6354.17,2525c-5.441,12.137 -11.281,20.012 -20.834,29.167c-2.75,4.125 -5.5,8.25 -8.333,12.5c1.354,-14.893 2.661,-23.155 12.24,-34.896c8.593,-6.771 8.593,-6.771 16.927,-6.771Z" style="fill:#6a6a68;fill-rule:nonzero;"/></svg>