<?xml version="1.0" encoding="UTF-8" standalone="no"?>
<!DOCTYPE svg PUBLIC "-//W3C//DTD SVG 1.1//EN" "http://www.w3.org/Graphics/SVG/1.1/DTD/svg11.dtd">
<svg width="100%" height="100%" viewBox="0 0 24 24" version="1.1" xmlns="http://www.w3.org/2000/svg" xmlns:xlink="http://www.w3.org/1999/xlink" xml:space="preserve" xmlns:serif="http://www.serif.com/" style="fill-rule:evenodd;clip-rule:evenodd;stroke-linecap:round;stroke-linejoin:round;stroke-miterlimit:1.5;">
    <g transform="matrix(0.599984,0.00377306,-0.00628848,0.99998,5.41275,-0.0403804)">
        <path d="M6,2L16,2" style="fill:none;stroke:rgb(51,51,51);stroke-width:2.43px;"/>
    </g>
    <g transform="matrix(1,0,0,0.930865,1,0.552794)">
        <path d="M9,1.536L9,16" style="fill:none;stroke:rgb(51,51,51);stroke-width:1.04px;"/>
    </g>
    <g transform="matrix(1,0,0,0.930775,1,0.554239)">
        <path d="M13,1.554L13,16" style="fill:none;stroke:rgb(51,51,51);stroke-width:1.04px;"/>
    </g>
    <g transform="matrix(1.1,0,0,1,3.4,4.44663)">
        <path d="M6,11C3.239,11 1,12.791 1,15C1,15.94 1.414,16.851 2.17,17.571C1.414,16.851 1,15.94 1,15C1,12.791 3.239,11 6,11Z" style="fill:none;stroke:rgb(51,51,51);stroke-width:0.95px;"/>
    </g>
    <g transform="matrix(-1.1,0,0,1,20.6,4.44663)">
        <path d="M6,11C3.239,11 1,12.791 1,15C1,15.94 1.414,16.851 2.17,17.571C1.414,16.851 1,15.94 1,15C1,12.791 3.239,11 6,11Z" style="fill:none;stroke:rgb(51,51,51);stroke-width:0.95px;"/>
    </g>
    <g transform="matrix(1,0,0,1,1,0.446631)">
        <path d="M5,21.571L17,21.571" style="fill:none;stroke:rgb(51,51,51);stroke-width:1px;"/>
    </g>
    <g transform="matrix(1.16667,0,0,1,-2,0)">
        <rect x="6" y="18.732" width="12" height="2.268" style="fill:rgb(51,51,51);stroke:rgb(51,51,51);stroke-width:0.92px;"/>
    </g>
    <g transform="matrix(1,0,0,1,0,1)">
        <path d="M6,21L18,21" style="fill:none;stroke:rgb(51,51,51);stroke-width:1px;"/>
    </g>
    <g transform="matrix(1,0,0,1,7,2)">
        <circle cx="4.5" cy="11.5" r="0.5" style="fill:rgb(51,51,51);stroke:rgb(51,51,51);stroke-width:0.5px;"/>
    </g>
    <g transform="matrix(1,0,0,1,8,-1)">
        <circle cx="4.5" cy="11.5" r="0.5" style="fill:rgb(51,51,51);stroke:rgb(51,51,51);stroke-width:0.5px;"/>
    </g>
    <g transform="matrix(1,0,0,1,7,-5)">
        <circle cx="4.5" cy="11.5" r="0.5" style="fill:rgb(51,51,51);stroke:rgb(51,51,51);stroke-width:0.5px;"/>
    </g>
</svg>
